M48
; DRILL file {KiCad 7.0.1} date Wed Oct  4 00:40:21 2023
; FORMAT={-:-/ absolute / inch / decimal}
; #@! TF.CreationDate,2023-10-04T00:40:21-04:00
; #@! TF.GenerationSoftware,Kicad,Pcbnew,7.0.1
; #@! TF.FileFunction,Plated,1,2,PTH
FMAT,2
INCH
; #@! TA.AperFunction,Plated,PTH,ViaDrill
T1C0.0118
; #@! TA.AperFunction,Plated,PTH,ComponentDrill
T2C0.0256
; #@! TA.AperFunction,Plated,PTH,ComponentDrill
T3C0.0276
%
G90
G05
T1
X1.2139Y-1.2634
X1.5197Y-2.7242
X1.5239Y-1.5429
X1.5245Y-3.0193
X1.5284Y-2.4286
X1.5306Y-1.8379
X1.5325Y-2.1334
X1.5354Y-1.2476
X1.6102Y-1.3013
X1.6291Y-2.7878
X1.6437Y-1.5901
X1.6463Y-1.8854
X1.6463Y-2.1807
X1.6463Y-2.476
X1.6463Y-3.0665
X2.0571Y-1.2579
X2.2334Y-1.2949
X2.7026Y-2.4287
X2.7037Y-1.2476
X2.705Y-3.0193
X2.7067Y-1.8406
X2.7067Y-2.724
X2.7106Y-2.1334
X2.7142Y-1.5473
X2.8229Y-2.1852
X2.8231Y-1.8897
X2.8231Y-2.4803
X2.8231Y-2.7756
X2.8231Y-3.0708
X2.8239Y-1.2984
X2.8274Y-1.5901
T2
X1.0118Y-1.2795
X1.0118Y-1.5748
X1.0118Y-2.7559
X1.0118Y-3.0512
X1.0618Y-1.2795
X1.0618Y-1.5748
X1.0618Y-2.7559
X1.0618Y-3.0512
X1.1082Y-1.1415
X1.1082Y-1.4368
X1.1082Y-1.732
X1.1082Y-2.6179
X1.1082Y-2.9131
X1.1545Y-1.1227
X1.1545Y-1.418
X1.1545Y-1.7133
X1.1545Y-2.5991
X1.1545Y-2.8944
X3.1762Y-1.4363
X3.1762Y-1.7316
X3.1762Y-2.6174
X3.1762Y-2.9127
X3.2225Y-1.4176
X3.2225Y-1.7129
X3.2225Y-2.5987
X3.2225Y-2.894
X3.2689Y-1.2795
X3.2689Y-1.5748
X3.2689Y-2.7559
X3.2689Y-3.0512
X3.3189Y-1.2795
X3.3189Y-1.5748
X3.3189Y-2.7559
X3.3189Y-3.0512
T3
X1.0236Y-1.1319
X1.0236Y-1.4272
X1.0236Y-1.7224
X1.0236Y-2.0177
X1.0236Y-2.313
X1.0236Y-2.6083
X1.0236Y-2.9035
X1.0236Y-3.1988
X1.0555Y-1.0555
X1.0555Y-1.2083
X1.0555Y-1.3508
X1.0555Y-1.5035
X1.0555Y-1.6461
X1.0555Y-1.7988
X1.0555Y-1.9413
X1.0555Y-2.0941
X1.0555Y-2.2366
X1.0555Y-2.3894
X1.0555Y-2.5319
X1.0555Y-2.6846
X1.0555Y-2.8272
X1.0555Y-2.9799
X1.0555Y-3.1224
X1.0555Y-3.2752
X1.1319Y-1.0236
X1.1319Y-1.2402
X1.1319Y-1.3189
X1.1319Y-1.5354
X1.1319Y-1.6142
X1.1319Y-1.8307
X1.1319Y-1.9094
X1.1319Y-2.126
X1.1319Y-2.2047
X1.1319Y-2.4213
X1.1319Y-2.5
X1.1319Y-2.7165
X1.1319Y-2.7953
X1.1319Y-3.0118
X1.1319Y-3.0906
X1.1319Y-3.3071
X1.2083Y-1.0555
X1.2083Y-1.2083
X1.2083Y-1.3508
X1.2083Y-1.5035
X1.2083Y-1.6461
X1.2083Y-1.7988
X1.2083Y-1.9413
X1.2083Y-2.0941
X1.2083Y-2.2366
X1.2083Y-2.3894
X1.2083Y-2.5319
X1.2083Y-2.6846
X1.2083Y-2.8272
X1.2083Y-2.9799
X1.2083Y-3.1224
X1.2083Y-3.2752
X1.2402Y-1.1319
X1.2402Y-1.4272
X1.2402Y-1.7224
X1.2402Y-2.0177
X1.2402Y-2.313
X1.2402Y-2.6083
X1.2402Y-2.9035
X1.2402Y-3.1988
X1.3189Y-1.1319
X1.3189Y-1.4272
X1.3189Y-1.7224
X1.3189Y-2.0177
X1.3189Y-2.313
X1.3189Y-2.6083
X1.3189Y-2.9035
X1.3189Y-3.1988
X1.3508Y-1.0555
X1.3508Y-1.2083
X1.3508Y-1.3508
X1.3508Y-1.5035
X1.3508Y-1.6461
X1.3508Y-1.7988
X1.3508Y-1.9413
X1.3508Y-2.0941
X1.3508Y-2.2366
X1.3508Y-2.3894
X1.3508Y-2.5319
X1.3508Y-2.6846
X1.3508Y-2.8272
X1.3508Y-2.9799
X1.3508Y-3.1224
X1.3508Y-3.2752
X1.4272Y-1.0236
X1.4272Y-1.2402
X1.4272Y-1.3189
X1.4272Y-1.5354
X1.4272Y-1.6142
X1.4272Y-1.8307
X1.4272Y-1.9094
X1.4272Y-2.126
X1.4272Y-2.2047
X1.4272Y-2.4213
X1.4272Y-2.5
X1.4272Y-2.7165
X1.4272Y-2.7953
X1.4272Y-3.0118
X1.4272Y-3.0906
X1.4272Y-3.3071
X1.5035Y-1.0555
X1.5035Y-1.2083
X1.5035Y-1.3508
X1.5035Y-1.5035
X1.5035Y-1.6461
X1.5035Y-1.7988
X1.5035Y-1.9413
X1.5035Y-2.0941
X1.5035Y-2.2366
X1.5035Y-2.3894
X1.5035Y-2.5319
X1.5035Y-2.6846
X1.5035Y-2.8272
X1.5035Y-2.9799
X1.5035Y-3.1224
X1.5035Y-3.2752
X1.5354Y-1.1319
X1.5354Y-1.4272
X1.5354Y-1.7224
X1.5354Y-2.0177
X1.5354Y-2.313
X1.5354Y-2.6083
X1.5354Y-2.9035
X1.5354Y-3.1988
X1.6142Y-1.1319
X1.6142Y-1.4272
X1.6142Y-1.7224
X1.6142Y-2.0177
X1.6142Y-2.313
X1.6142Y-2.6083
X1.6142Y-2.9035
X1.6142Y-3.1988
X1.6461Y-1.0555
X1.6461Y-1.2083
X1.6461Y-1.3508
X1.6461Y-1.5035
X1.6461Y-1.6461
X1.6461Y-1.7988
X1.6461Y-1.9413
X1.6461Y-2.0941
X1.6461Y-2.2366
X1.6461Y-2.3894
X1.6461Y-2.5319
X1.6461Y-2.6846
X1.6461Y-2.8272
X1.6461Y-2.9799
X1.6461Y-3.1224
X1.6461Y-3.2752
X1.7224Y-1.0236
X1.7224Y-1.2402
X1.7224Y-1.3189
X1.7224Y-1.5354
X1.7224Y-1.6142
X1.7224Y-1.8307
X1.7224Y-1.9094
X1.7224Y-2.126
X1.7224Y-2.2047
X1.7224Y-2.4213
X1.7224Y-2.5
X1.7224Y-2.7165
X1.7224Y-2.7953
X1.7224Y-3.0118
X1.7224Y-3.0906
X1.7224Y-3.3071
X1.7988Y-1.0555
X1.7988Y-1.2083
X1.7988Y-1.3508
X1.7988Y-1.5035
X1.7988Y-1.6461
X1.7988Y-1.7988
X1.7988Y-1.9413
X1.7988Y-2.0941
X1.7988Y-2.2366
X1.7988Y-2.3894
X1.7988Y-2.5319
X1.7988Y-2.6846
X1.7988Y-2.8272
X1.7988Y-2.9799
X1.7988Y-3.1224
X1.7988Y-3.2752
X1.8307Y-1.1319
X1.8307Y-1.4272
X1.8307Y-1.7224
X1.8307Y-2.0177
X1.8307Y-2.313
X1.8307Y-2.6083
X1.8307Y-2.9035
X1.8307Y-3.1988
X1.9094Y-1.1319
X1.9094Y-1.4272
X1.9094Y-1.7224
X1.9094Y-2.0177
X1.9094Y-2.313
X1.9094Y-2.6083
X1.9094Y-2.9035
X1.9094Y-3.1988
X1.9413Y-1.0555
X1.9413Y-1.2083
X1.9413Y-1.3508
X1.9413Y-1.5035
X1.9413Y-1.6461
X1.9413Y-1.7988
X1.9413Y-1.9413
X1.9413Y-2.0941
X1.9413Y-2.2366
X1.9413Y-2.3894
X1.9413Y-2.5319
X1.9413Y-2.6846
X1.9413Y-2.8272
X1.9413Y-2.9799
X1.9413Y-3.1224
X1.9413Y-3.2752
X2.0177Y-1.0236
X2.0177Y-1.2402
X2.0177Y-1.3189
X2.0177Y-1.5354
X2.0177Y-1.6142
X2.0177Y-1.8307
X2.0177Y-1.9094
X2.0177Y-2.126
X2.0177Y-2.2047
X2.0177Y-2.4213
X2.0177Y-2.5
X2.0177Y-2.7165
X2.0177Y-2.7953
X2.0177Y-3.0118
X2.0177Y-3.0906
X2.0177Y-3.3071
X2.0941Y-1.0555
X2.0941Y-1.2083
X2.0941Y-1.3508
X2.0941Y-1.5035
X2.0941Y-1.6461
X2.0941Y-1.7988
X2.0941Y-1.9413
X2.0941Y-2.0941
X2.0941Y-2.2366
X2.0941Y-2.3894
X2.0941Y-2.5319
X2.0941Y-2.6846
X2.0941Y-2.8272
X2.0941Y-2.9799
X2.0941Y-3.1224
X2.0941Y-3.2752
X2.126Y-1.1319
X2.126Y-1.4272
X2.126Y-1.7224
X2.126Y-2.0177
X2.126Y-2.313
X2.126Y-2.6083
X2.126Y-2.9035
X2.126Y-3.1988
X2.2047Y-1.1319
X2.2047Y-1.4272
X2.2047Y-1.7224
X2.2047Y-2.0177
X2.2047Y-2.313
X2.2047Y-2.6083
X2.2047Y-2.9035
X2.2047Y-3.1988
X2.2366Y-1.0555
X2.2366Y-1.2083
X2.2366Y-1.3508
X2.2366Y-1.5035
X2.2366Y-1.6461
X2.2366Y-1.7988
X2.2366Y-1.9413
X2.2366Y-2.0941
X2.2366Y-2.2366
X2.2366Y-2.3894
X2.2366Y-2.5319
X2.2366Y-2.6846
X2.2366Y-2.8272
X2.2366Y-2.9799
X2.2366Y-3.1224
X2.2366Y-3.2752
X2.313Y-1.0236
X2.313Y-1.2402
X2.313Y-1.3189
X2.313Y-1.5354
X2.313Y-1.6142
X2.313Y-1.8307
X2.313Y-1.9094
X2.313Y-2.126
X2.313Y-2.2047
X2.313Y-2.4213
X2.313Y-2.5
X2.313Y-2.7165
X2.313Y-2.7953
X2.313Y-3.0118
X2.313Y-3.0906
X2.313Y-3.3071
X2.3894Y-1.0555
X2.3894Y-1.2083
X2.3894Y-1.3508
X2.3894Y-1.5035
X2.3894Y-1.6461
X2.3894Y-1.7988
X2.3894Y-1.9413
X2.3894Y-2.0941
X2.3894Y-2.2366
X2.3894Y-2.3894
X2.3894Y-2.5319
X2.3894Y-2.6846
X2.3894Y-2.8272
X2.3894Y-2.9799
X2.3894Y-3.1224
X2.3894Y-3.2752
X2.4213Y-1.1319
X2.4213Y-1.4272
X2.4213Y-1.7224
X2.4213Y-2.0177
X2.4213Y-2.313
X2.4213Y-2.6083
X2.4213Y-2.9035
X2.4213Y-3.1988
X2.5Y-1.1319
X2.5Y-1.4272
X2.5Y-1.7224
X2.5Y-2.0177
X2.5Y-2.313
X2.5Y-2.6083
X2.5Y-2.9035
X2.5Y-3.1988
X2.5319Y-1.0555
X2.5319Y-1.2083
X2.5319Y-1.3508
X2.5319Y-1.5035
X2.5319Y-1.6461
X2.5319Y-1.7988
X2.5319Y-1.9413
X2.5319Y-2.0941
X2.5319Y-2.2366
X2.5319Y-2.3894
X2.5319Y-2.5319
X2.5319Y-2.6846
X2.5319Y-2.8272
X2.5319Y-2.9799
X2.5319Y-3.1224
X2.5319Y-3.2752
X2.6083Y-1.0236
X2.6083Y-1.2402
X2.6083Y-1.3189
X2.6083Y-1.5354
X2.6083Y-1.6142
X2.6083Y-1.8307
X2.6083Y-1.9094
X2.6083Y-2.126
X2.6083Y-2.2047
X2.6083Y-2.4213
X2.6083Y-2.5
X2.6083Y-2.7165
X2.6083Y-2.7953
X2.6083Y-3.0118
X2.6083Y-3.0906
X2.6083Y-3.3071
X2.6846Y-1.0555
X2.6846Y-1.2083
X2.6846Y-1.3508
X2.6846Y-1.5035
X2.6846Y-1.6461
X2.6846Y-1.7988
X2.6846Y-1.9413
X2.6846Y-2.0941
X2.6846Y-2.2366
X2.6846Y-2.3894
X2.6846Y-2.5319
X2.6846Y-2.6846
X2.6846Y-2.8272
X2.6846Y-2.9799
X2.6846Y-3.1224
X2.6846Y-3.2752
X2.7165Y-1.1319
X2.7165Y-1.4272
X2.7165Y-1.7224
X2.7165Y-2.0177
X2.7165Y-2.313
X2.7165Y-2.6083
X2.7165Y-2.9035
X2.7165Y-3.1988
X2.7953Y-1.1319
X2.7953Y-1.4272
X2.7953Y-1.7224
X2.7953Y-2.0177
X2.7953Y-2.313
X2.7953Y-2.6083
X2.7953Y-2.9035
X2.7953Y-3.1988
X2.8272Y-1.0555
X2.8272Y-1.2083
X2.8272Y-1.3508
X2.8272Y-1.5035
X2.8272Y-1.6461
X2.8272Y-1.7988
X2.8272Y-1.9413
X2.8272Y-2.0941
X2.8272Y-2.2366
X2.8272Y-2.3894
X2.8272Y-2.5319
X2.8272Y-2.6846
X2.8272Y-2.8272
X2.8272Y-2.9799
X2.8272Y-3.1224
X2.8272Y-3.2752
X2.9035Y-1.0236
X2.9035Y-1.2402
X2.9035Y-1.3189
X2.9035Y-1.5354
X2.9035Y-1.6142
X2.9035Y-1.8307
X2.9035Y-1.9094
X2.9035Y-2.126
X2.9035Y-2.2047
X2.9035Y-2.4213
X2.9035Y-2.5
X2.9035Y-2.7165
X2.9035Y-2.7953
X2.9035Y-3.0118
X2.9035Y-3.0906
X2.9035Y-3.3071
X2.9799Y-1.0555
X2.9799Y-1.2083
X2.9799Y-1.3508
X2.9799Y-1.5035
X2.9799Y-1.6461
X2.9799Y-1.7988
X2.9799Y-1.9413
X2.9799Y-2.0941
X2.9799Y-2.2366
X2.9799Y-2.3894
X2.9799Y-2.5319
X2.9799Y-2.6846
X2.9799Y-2.8272
X2.9799Y-2.9799
X2.9799Y-3.1224
X2.9799Y-3.2752
X3.0118Y-1.1319
X3.0118Y-1.4272
X3.0118Y-1.7224
X3.0118Y-2.0177
X3.0118Y-2.313
X3.0118Y-2.6083
X3.0118Y-2.9035
X3.0118Y-3.1988
X3.0906Y-1.1319
X3.0906Y-1.4272
X3.0906Y-1.7224
X3.0906Y-2.0177
X3.0906Y-2.313
X3.0906Y-2.6083
X3.0906Y-2.9035
X3.0906Y-3.1988
X3.1224Y-1.0555
X3.1224Y-1.2083
X3.1224Y-1.3508
X3.1224Y-1.5035
X3.1224Y-1.6461
X3.1224Y-1.7988
X3.1224Y-1.9413
X3.1224Y-2.0941
X3.1224Y-2.2366
X3.1224Y-2.3894
X3.1224Y-2.5319
X3.1224Y-2.6846
X3.1224Y-2.8272
X3.1224Y-2.9799
X3.1224Y-3.1224
X3.1224Y-3.2752
X3.1988Y-1.0236
X3.1988Y-1.2402
X3.1988Y-1.3189
X3.1988Y-1.5354
X3.1988Y-1.6142
X3.1988Y-1.8307
X3.1988Y-1.9094
X3.1988Y-2.126
X3.1988Y-2.2047
X3.1988Y-2.4213
X3.1988Y-2.5
X3.1988Y-2.7165
X3.1988Y-2.7953
X3.1988Y-3.0118
X3.1988Y-3.0906
X3.1988Y-3.3071
X3.2752Y-1.0555
X3.2752Y-1.2083
X3.2752Y-1.3508
X3.2752Y-1.5035
X3.2752Y-1.6461
X3.2752Y-1.7988
X3.2752Y-1.9413
X3.2752Y-2.0941
X3.2752Y-2.2366
X3.2752Y-2.3894
X3.2752Y-2.5319
X3.2752Y-2.6846
X3.2752Y-2.8272
X3.2752Y-2.9799
X3.2752Y-3.1224
X3.2752Y-3.2752
X3.3071Y-1.1319
X3.3071Y-1.4272
X3.3071Y-1.7224
X3.3071Y-2.0177
X3.3071Y-2.313
X3.3071Y-2.6083
X3.3071Y-2.9035
X3.3071Y-3.1988
T0
M30
