%TF.GenerationSoftware,KiCad,Pcbnew,7.0.1*%
%TF.CreationDate,2023-10-04T00:40:19-04:00*%
%TF.ProjectId,TacTile-B,54616354-696c-4652-9d42-2e6b69636164,rev?*%
%TF.SameCoordinates,Original*%
%TF.FileFunction,Paste,Bot*%
%TF.FilePolarity,Positive*%
%FSLAX46Y46*%
G04 Gerber Fmt 4.6, Leading zero omitted, Abs format (unit mm)*
G04 Created by KiCad (PCBNEW 7.0.1) date 2023-10-04 00:40:19*
%MOMM*%
%LPD*%
G01*
G04 APERTURE LIST*
G04 Aperture macros list*
%AMRoundRect*
0 Rectangle with rounded corners*
0 $1 Rounding radius*
0 $2 $3 $4 $5 $6 $7 $8 $9 X,Y pos of 4 corners*
0 Add a 4 corners polygon primitive as box body*
4,1,4,$2,$3,$4,$5,$6,$7,$8,$9,$2,$3,0*
0 Add four circle primitives for the rounded corners*
1,1,$1+$1,$2,$3*
1,1,$1+$1,$4,$5*
1,1,$1+$1,$6,$7*
1,1,$1+$1,$8,$9*
0 Add four rect primitives between the rounded corners*
20,1,$1+$1,$2,$3,$4,$5,0*
20,1,$1+$1,$4,$5,$6,$7,0*
20,1,$1+$1,$6,$7,$8,$9,0*
20,1,$1+$1,$8,$9,$2,$3,0*%
G04 Aperture macros list end*
%ADD10RoundRect,0.130000X-0.064904X0.187583X-0.194904X-0.037583X0.064904X-0.187583X0.194904X0.037583X0*%
%ADD11RoundRect,0.062500X0.108373X0.312708X-0.216627X-0.250208X-0.108373X-0.312708X0.216627X0.250208X0*%
%ADD12RoundRect,0.130000X0.068168X-0.186422X0.194218X0.040979X-0.068168X0.186422X-0.194218X-0.040979X0*%
%ADD13RoundRect,0.062500X-0.102899X-0.314552X0.212227X0.253951X0.102899X0.314552X-0.212227X-0.253951X0*%
G04 APERTURE END LIST*
D10*
%TO.C,U8*%
X74215609Y-51143542D03*
X73609391Y-50793542D03*
X73890609Y-51706458D03*
X73284391Y-51356458D03*
D11*
X73831731Y-49608438D03*
X74264744Y-49858438D03*
X74697756Y-50108438D03*
X75130769Y-50358438D03*
X73668269Y-52891562D03*
X73235256Y-52641562D03*
X72802244Y-52391562D03*
X72369231Y-52141562D03*
%TD*%
D12*
%TO.C,U7*%
X35786320Y-51314568D03*
X36398554Y-51653935D03*
X36101446Y-50746065D03*
X36713680Y-51085432D03*
D13*
X36196931Y-52842739D03*
X35759621Y-52600334D03*
X35322311Y-52357929D03*
X34885001Y-52115524D03*
X36303069Y-49557261D03*
X36740379Y-49799666D03*
X37177689Y-50042071D03*
X37614999Y-50284476D03*
%TD*%
D12*
%TO.C,U11*%
X35786320Y-66314568D03*
X36398554Y-66653935D03*
X36101446Y-65746065D03*
X36713680Y-66085432D03*
D13*
X36196931Y-67842739D03*
X35759621Y-67600334D03*
X35322311Y-67357929D03*
X34885001Y-67115524D03*
X36303069Y-64557261D03*
X36740379Y-64799666D03*
X37177689Y-65042071D03*
X37614999Y-65284476D03*
%TD*%
D12*
%TO.C,U5*%
X35786320Y-43814568D03*
X36398554Y-44153935D03*
X36101446Y-43246065D03*
X36713680Y-43585432D03*
D13*
X36196931Y-45342739D03*
X35759621Y-45100334D03*
X35322311Y-44857929D03*
X34885001Y-44615524D03*
X36303069Y-42057261D03*
X36740379Y-42299666D03*
X37177689Y-42542071D03*
X37614999Y-42784476D03*
%TD*%
D12*
%TO.C,U3*%
X35786320Y-36314568D03*
X36398554Y-36653935D03*
X36101446Y-35746065D03*
X36713680Y-36085432D03*
D13*
X36196931Y-37842739D03*
X35759621Y-37600334D03*
X35322311Y-37357929D03*
X34885001Y-37115524D03*
X36303069Y-34557261D03*
X36740379Y-34799666D03*
X37177689Y-35042071D03*
X37614999Y-35284476D03*
%TD*%
D10*
%TO.C,U4*%
X74215609Y-36143542D03*
X73609391Y-35793542D03*
X73890609Y-36706458D03*
X73284391Y-36356458D03*
D11*
X73831731Y-34608438D03*
X74264744Y-34858438D03*
X74697756Y-35108438D03*
X75130769Y-35358438D03*
X73668269Y-37891562D03*
X73235256Y-37641562D03*
X72802244Y-37391562D03*
X72369231Y-37141562D03*
%TD*%
D12*
%TO.C,U1*%
X35786320Y-28864568D03*
X36398554Y-29203935D03*
X36101446Y-28296065D03*
X36713680Y-28635432D03*
D13*
X36196931Y-30392739D03*
X35759621Y-30150334D03*
X35322311Y-29907929D03*
X34885001Y-29665524D03*
X36303069Y-27107261D03*
X36740379Y-27349666D03*
X37177689Y-27592071D03*
X37614999Y-27834476D03*
%TD*%
D10*
%TO.C,U6*%
X74215609Y-43643542D03*
X73609391Y-43293542D03*
X73890609Y-44206458D03*
X73284391Y-43856458D03*
D11*
X73831731Y-42108438D03*
X74264744Y-42358438D03*
X74697756Y-42608438D03*
X75130769Y-42858438D03*
X73668269Y-45391562D03*
X73235256Y-45141562D03*
X72802244Y-44891562D03*
X72369231Y-44641562D03*
%TD*%
D12*
%TO.C,U13*%
X35786320Y-73814568D03*
X36398554Y-74153935D03*
X36101446Y-73246065D03*
X36713680Y-73585432D03*
D13*
X36196931Y-75342739D03*
X35759621Y-75100334D03*
X35322311Y-74857929D03*
X34885001Y-74615524D03*
X36303069Y-72057261D03*
X36740379Y-72299666D03*
X37177689Y-72542071D03*
X37614999Y-72784476D03*
%TD*%
D10*
%TO.C,U12*%
X74215609Y-66143542D03*
X73609391Y-65793542D03*
X73890609Y-66706458D03*
X73284391Y-66356458D03*
D11*
X73831731Y-64608438D03*
X74264744Y-64858438D03*
X74697756Y-65108438D03*
X75130769Y-65358438D03*
X73668269Y-67891562D03*
X73235256Y-67641562D03*
X72802244Y-67391562D03*
X72369231Y-67141562D03*
%TD*%
D12*
%TO.C,U9*%
X35786320Y-58814568D03*
X36398554Y-59153935D03*
X36101446Y-58246065D03*
X36713680Y-58585432D03*
D13*
X36196931Y-60342739D03*
X35759621Y-60100334D03*
X35322311Y-59857929D03*
X34885001Y-59615524D03*
X36303069Y-57057261D03*
X36740379Y-57299666D03*
X37177689Y-57542071D03*
X37614999Y-57784476D03*
%TD*%
D10*
%TO.C,U14*%
X74215609Y-73643542D03*
X73609391Y-73293542D03*
X73890609Y-74206458D03*
X73284391Y-73856458D03*
D11*
X73831731Y-72108438D03*
X74264744Y-72358438D03*
X74697756Y-72608438D03*
X75130769Y-72858438D03*
X73668269Y-75391562D03*
X73235256Y-75141562D03*
X72802244Y-74891562D03*
X72369231Y-74641562D03*
%TD*%
D10*
%TO.C,U16*%
X74215609Y-81143542D03*
X73609391Y-80793542D03*
X73890609Y-81706458D03*
X73284391Y-81356458D03*
D11*
X73831731Y-79608438D03*
X74264744Y-79858438D03*
X74697756Y-80108438D03*
X75130769Y-80358438D03*
X73668269Y-82891562D03*
X73235256Y-82641562D03*
X72802244Y-82391562D03*
X72369231Y-82141562D03*
%TD*%
D10*
%TO.C,U10*%
X74215609Y-58643542D03*
X73609391Y-58293542D03*
X73890609Y-59206458D03*
X73284391Y-58856458D03*
D11*
X73831731Y-57108438D03*
X74264744Y-57358438D03*
X74697756Y-57608438D03*
X75130769Y-57858438D03*
X73668269Y-60391562D03*
X73235256Y-60141562D03*
X72802244Y-59891562D03*
X72369231Y-59641562D03*
%TD*%
D10*
%TO.C,U2*%
X74215609Y-28643542D03*
X73609391Y-28293542D03*
X73890609Y-29206458D03*
X73284391Y-28856458D03*
D11*
X73831731Y-27108438D03*
X74264744Y-27358438D03*
X74697756Y-27608438D03*
X75130769Y-27858438D03*
X73668269Y-30391562D03*
X73235256Y-30141562D03*
X72802244Y-29891562D03*
X72369231Y-29641562D03*
%TD*%
D12*
%TO.C,U15*%
X35786320Y-81314568D03*
X36398554Y-81653935D03*
X36101446Y-80746065D03*
X36713680Y-81085432D03*
D13*
X36196931Y-82842739D03*
X35759621Y-82600334D03*
X35322311Y-82357929D03*
X34885001Y-82115524D03*
X36303069Y-79557261D03*
X36740379Y-79799666D03*
X37177689Y-80042071D03*
X37614999Y-80284476D03*
%TD*%
M02*
