%TF.GenerationSoftware,KiCad,Pcbnew,7.0.1*%
%TF.CreationDate,2023-10-04T00:40:19-04:00*%
%TF.ProjectId,TacTile-B,54616354-696c-4652-9d42-2e6b69636164,rev?*%
%TF.SameCoordinates,Original*%
%TF.FileFunction,Copper,L1,Top*%
%TF.FilePolarity,Positive*%
%FSLAX46Y46*%
G04 Gerber Fmt 4.6, Leading zero omitted, Abs format (unit mm)*
G04 Created by KiCad (PCBNEW 7.0.1) date 2023-10-04 00:40:19*
%MOMM*%
%LPD*%
G01*
G04 APERTURE LIST*
G04 Aperture macros list*
%AMHorizOval*
0 Thick line with rounded ends*
0 $1 width*
0 $2 $3 position (X,Y) of the first rounded end (center of the circle)*
0 $4 $5 position (X,Y) of the second rounded end (center of the circle)*
0 Add line between two ends*
20,1,$1,$2,$3,$4,$5,0*
0 Add two circle primitives to create the rounded ends*
1,1,$1,$2,$3*
1,1,$1,$4,$5*%
%AMRotRect*
0 Rectangle, with rotation*
0 The origin of the aperture is its center*
0 $1 length*
0 $2 width*
0 $3 Rotation angle, in degrees counterclockwise*
0 Add horizontal line*
21,1,$1,$2,0,0,$3*%
G04 Aperture macros list end*
%TA.AperFunction,ComponentPad*%
%ADD10C,1.000000*%
%TD*%
%TA.AperFunction,ComponentPad*%
%ADD11RotRect,1.000000X1.000000X112.000000*%
%TD*%
%TA.AperFunction,ComponentPad*%
%ADD12HorizOval,1.000000X0.000000X0.000000X0.000000X0.000000X0*%
%TD*%
%TA.AperFunction,ComponentPad*%
%ADD13R,1.000000X1.000000*%
%TD*%
%TA.AperFunction,ComponentPad*%
%ADD14O,1.000000X1.000000*%
%TD*%
%TA.AperFunction,ComponentPad*%
%ADD15RotRect,1.000000X1.000000X292.000000*%
%TD*%
%TA.AperFunction,ComponentPad*%
%ADD16HorizOval,1.000000X0.000000X0.000000X0.000000X0.000000X0*%
%TD*%
%TA.AperFunction,ViaPad*%
%ADD17C,0.600000*%
%TD*%
%TA.AperFunction,Conductor*%
%ADD18C,0.600000*%
%TD*%
%TA.AperFunction,Conductor*%
%ADD19C,1.000000*%
%TD*%
G04 APERTURE END LIST*
D10*
%TO.P,L34,1,A*%
%TO.N,/VIN16*%
X36250000Y-56000000D03*
%TO.P,L34,2,A*%
%TO.N,/VIN17*%
X38190000Y-56810000D03*
%TO.P,L34,3,A*%
%TO.N,/VIN18*%
X39000000Y-58750000D03*
%TO.P,L34,4,A*%
%TO.N,/VIN19*%
X38190000Y-60690000D03*
%TO.P,L34,5,A*%
%TO.N,/VIN16*%
X34310000Y-56810000D03*
%TO.P,L34,6,A*%
%TO.N,/VIN17*%
X33500000Y-58750000D03*
%TO.P,L34,7,A*%
%TO.N,/VIN18*%
X34310000Y-60690000D03*
%TO.P,L34,8,A*%
%TO.N,/VIN19*%
X36250000Y-61500000D03*
%TD*%
%TO.P,L36,1,A*%
%TO.N,/VIN16*%
X51250000Y-56000000D03*
%TO.P,L36,2,A*%
%TO.N,/VIN17*%
X53190000Y-56810000D03*
%TO.P,L36,3,A*%
%TO.N,/VIN18*%
X54000000Y-58750000D03*
%TO.P,L36,4,A*%
%TO.N,/VIN19*%
X53190000Y-60690000D03*
%TO.P,L36,5,A*%
%TO.N,/VIN16*%
X49310000Y-56810000D03*
%TO.P,L36,6,A*%
%TO.N,/VIN17*%
X48500000Y-58750000D03*
%TO.P,L36,7,A*%
%TO.N,/VIN18*%
X49310000Y-60690000D03*
%TO.P,L36,8,A*%
%TO.N,/VIN19*%
X51250000Y-61500000D03*
%TD*%
%TO.P,L55,1,A*%
%TO.N,/VIN24*%
X66250000Y-71000000D03*
%TO.P,L55,2,A*%
%TO.N,/VIN25*%
X68190000Y-71810000D03*
%TO.P,L55,3,A*%
%TO.N,/VIN26*%
X69000000Y-73750000D03*
%TO.P,L55,4,A*%
%TO.N,/VIN27*%
X68190000Y-75690000D03*
%TO.P,L55,5,A*%
%TO.N,/VIN24*%
X64310000Y-71810000D03*
%TO.P,L55,6,A*%
%TO.N,/VIN25*%
X63500000Y-73750000D03*
%TO.P,L55,7,A*%
%TO.N,/VIN26*%
X64310000Y-75690000D03*
%TO.P,L55,8,A*%
%TO.N,/VIN27*%
X66250000Y-76500000D03*
%TD*%
%TO.P,L27,1,A*%
%TO.N,/VIN12*%
X43750000Y-48500000D03*
%TO.P,L27,2,A*%
%TO.N,/VIN13*%
X45690000Y-49310000D03*
%TO.P,L27,3,A*%
%TO.N,/VIN14*%
X46500000Y-51250000D03*
%TO.P,L27,4,A*%
%TO.N,/VIN15*%
X45690000Y-53190000D03*
%TO.P,L27,5,A*%
%TO.N,/VIN12*%
X41810000Y-49310000D03*
%TO.P,L27,6,A*%
%TO.N,/VIN13*%
X41000000Y-51250000D03*
%TO.P,L27,7,A*%
%TO.N,/VIN14*%
X41810000Y-53190000D03*
%TO.P,L27,8,A*%
%TO.N,/VIN15*%
X43750000Y-54000000D03*
%TD*%
%TO.P,L1,1,A*%
%TO.N,/VIN0*%
X28750000Y-26000000D03*
%TO.P,L1,2,A*%
%TO.N,/VIN1*%
X30690000Y-26810000D03*
%TO.P,L1,3,A*%
%TO.N,/VIN2*%
X31500000Y-28750000D03*
%TO.P,L1,4,A*%
%TO.N,/VIN3*%
X30690000Y-30690000D03*
%TO.P,L1,5,A*%
%TO.N,/VIN0*%
X26810000Y-26810000D03*
%TO.P,L1,6,A*%
%TO.N,/VIN1*%
X26000000Y-28750000D03*
%TO.P,L1,7,A*%
%TO.N,/VIN2*%
X26810000Y-30690000D03*
%TO.P,L1,8,A*%
%TO.N,/VIN3*%
X28750000Y-31500000D03*
%TD*%
%TO.P,L30,1,A*%
%TO.N,/VIN12*%
X66250000Y-48500000D03*
%TO.P,L30,2,A*%
%TO.N,/VIN13*%
X68190000Y-49310000D03*
%TO.P,L30,3,A*%
%TO.N,/VIN14*%
X69000000Y-51250000D03*
%TO.P,L30,4,A*%
%TO.N,/VIN15*%
X68190000Y-53190000D03*
%TO.P,L30,5,A*%
%TO.N,/VIN12*%
X64310000Y-49310000D03*
%TO.P,L30,6,A*%
%TO.N,/VIN13*%
X63500000Y-51250000D03*
%TO.P,L30,7,A*%
%TO.N,/VIN14*%
X64310000Y-53190000D03*
%TO.P,L30,8,A*%
%TO.N,/VIN15*%
X66250000Y-54000000D03*
%TD*%
%TO.P,L5,1,A*%
%TO.N,/VIN0*%
X58750000Y-26000000D03*
%TO.P,L5,2,A*%
%TO.N,/VIN1*%
X60690000Y-26810000D03*
%TO.P,L5,3,A*%
%TO.N,/VIN2*%
X61500000Y-28750000D03*
%TO.P,L5,4,A*%
%TO.N,/VIN3*%
X60690000Y-30690000D03*
%TO.P,L5,5,A*%
%TO.N,/VIN0*%
X56810000Y-26810000D03*
%TO.P,L5,6,A*%
%TO.N,/VIN1*%
X56000000Y-28750000D03*
%TO.P,L5,7,A*%
%TO.N,/VIN2*%
X56810000Y-30690000D03*
%TO.P,L5,8,A*%
%TO.N,/VIN3*%
X58750000Y-31500000D03*
%TD*%
%TO.P,L9,1,A*%
%TO.N,/VIN4*%
X28750000Y-33500000D03*
%TO.P,L9,2,A*%
%TO.N,/VIN5*%
X30690000Y-34310000D03*
%TO.P,L9,3,A*%
%TO.N,/VIN6*%
X31500000Y-36250000D03*
%TO.P,L9,4,A*%
%TO.N,/VIN7*%
X30690000Y-38190000D03*
%TO.P,L9,5,A*%
%TO.N,/VIN4*%
X26810000Y-34310000D03*
%TO.P,L9,6,A*%
%TO.N,/VIN5*%
X26000000Y-36250000D03*
%TO.P,L9,7,A*%
%TO.N,/VIN6*%
X26810000Y-38190000D03*
%TO.P,L9,8,A*%
%TO.N,/VIN7*%
X28750000Y-39000000D03*
%TD*%
%TO.P,L33,1,A*%
%TO.N,/VIN16*%
X28750000Y-56000000D03*
%TO.P,L33,2,A*%
%TO.N,/VIN17*%
X30690000Y-56810000D03*
%TO.P,L33,3,A*%
%TO.N,/VIN18*%
X31500000Y-58750000D03*
%TO.P,L33,4,A*%
%TO.N,/VIN19*%
X30690000Y-60690000D03*
%TO.P,L33,5,A*%
%TO.N,/VIN16*%
X26810000Y-56810000D03*
%TO.P,L33,6,A*%
%TO.N,/VIN17*%
X26000000Y-58750000D03*
%TO.P,L33,7,A*%
%TO.N,/VIN18*%
X26810000Y-60690000D03*
%TO.P,L33,8,A*%
%TO.N,/VIN19*%
X28750000Y-61500000D03*
%TD*%
%TO.P,L2,1,A*%
%TO.N,/VIN0*%
X36250000Y-26000000D03*
%TO.P,L2,2,A*%
%TO.N,/VIN1*%
X38190000Y-26810000D03*
%TO.P,L2,3,A*%
%TO.N,/VIN2*%
X39000000Y-28750000D03*
%TO.P,L2,4,A*%
%TO.N,/VIN3*%
X38190000Y-30690000D03*
%TO.P,L2,5,A*%
%TO.N,/VIN0*%
X34310000Y-26810000D03*
%TO.P,L2,6,A*%
%TO.N,/VIN1*%
X33500000Y-28750000D03*
%TO.P,L2,7,A*%
%TO.N,/VIN2*%
X34310000Y-30690000D03*
%TO.P,L2,8,A*%
%TO.N,/VIN3*%
X36250000Y-31500000D03*
%TD*%
%TO.P,L16,1,A*%
%TO.N,/VIN4*%
X81250000Y-33500000D03*
%TO.P,L16,2,A*%
%TO.N,/VIN5*%
X83190000Y-34310000D03*
%TO.P,L16,3,A*%
%TO.N,/VIN6*%
X84000000Y-36250000D03*
%TO.P,L16,4,A*%
%TO.N,/VIN7*%
X83190000Y-38190000D03*
%TO.P,L16,5,A*%
%TO.N,/VIN4*%
X79310000Y-34310000D03*
%TO.P,L16,6,A*%
%TO.N,/VIN5*%
X78500000Y-36250000D03*
%TO.P,L16,7,A*%
%TO.N,/VIN6*%
X79310000Y-38190000D03*
%TO.P,L16,8,A*%
%TO.N,/VIN7*%
X81250000Y-39000000D03*
%TD*%
%TO.P,L18,1,A*%
%TO.N,/VIN8*%
X36250000Y-41000000D03*
%TO.P,L18,2,A*%
%TO.N,/VIN9*%
X38190000Y-41810000D03*
%TO.P,L18,3,A*%
%TO.N,/VIN10*%
X39000000Y-43750000D03*
%TO.P,L18,4,A*%
%TO.N,/VIN11*%
X38190000Y-45690000D03*
%TO.P,L18,5,A*%
%TO.N,/VIN8*%
X34310000Y-41810000D03*
%TO.P,L18,6,A*%
%TO.N,/VIN9*%
X33500000Y-43750000D03*
%TO.P,L18,7,A*%
%TO.N,/VIN10*%
X34310000Y-45690000D03*
%TO.P,L18,8,A*%
%TO.N,/VIN11*%
X36250000Y-46500000D03*
%TD*%
%TO.P,L13,1,A*%
%TO.N,/VIN4*%
X58750000Y-33500000D03*
%TO.P,L13,2,A*%
%TO.N,/VIN5*%
X60690000Y-34310000D03*
%TO.P,L13,3,A*%
%TO.N,/VIN6*%
X61500000Y-36250000D03*
%TO.P,L13,4,A*%
%TO.N,/VIN7*%
X60690000Y-38190000D03*
%TO.P,L13,5,A*%
%TO.N,/VIN4*%
X56810000Y-34310000D03*
%TO.P,L13,6,A*%
%TO.N,/VIN5*%
X56000000Y-36250000D03*
%TO.P,L13,7,A*%
%TO.N,/VIN6*%
X56810000Y-38190000D03*
%TO.P,L13,8,A*%
%TO.N,/VIN7*%
X58750000Y-39000000D03*
%TD*%
%TO.P,L12,1,A*%
%TO.N,/VIN4*%
X51250000Y-33500000D03*
%TO.P,L12,2,A*%
%TO.N,/VIN5*%
X53190000Y-34310000D03*
%TO.P,L12,3,A*%
%TO.N,/VIN6*%
X54000000Y-36250000D03*
%TO.P,L12,4,A*%
%TO.N,/VIN7*%
X53190000Y-38190000D03*
%TO.P,L12,5,A*%
%TO.N,/VIN4*%
X49310000Y-34310000D03*
%TO.P,L12,6,A*%
%TO.N,/VIN5*%
X48500000Y-36250000D03*
%TO.P,L12,7,A*%
%TO.N,/VIN6*%
X49310000Y-38190000D03*
%TO.P,L12,8,A*%
%TO.N,/VIN7*%
X51250000Y-39000000D03*
%TD*%
%TO.P,L37,1,A*%
%TO.N,/VIN16*%
X58750000Y-56000000D03*
%TO.P,L37,2,A*%
%TO.N,/VIN17*%
X60690000Y-56810000D03*
%TO.P,L37,3,A*%
%TO.N,/VIN18*%
X61500000Y-58750000D03*
%TO.P,L37,4,A*%
%TO.N,/VIN19*%
X60690000Y-60690000D03*
%TO.P,L37,5,A*%
%TO.N,/VIN16*%
X56810000Y-56810000D03*
%TO.P,L37,6,A*%
%TO.N,/VIN17*%
X56000000Y-58750000D03*
%TO.P,L37,7,A*%
%TO.N,/VIN18*%
X56810000Y-60690000D03*
%TO.P,L37,8,A*%
%TO.N,/VIN19*%
X58750000Y-61500000D03*
%TD*%
%TO.P,L28,1,A*%
%TO.N,/VIN12*%
X51250000Y-48500000D03*
%TO.P,L28,2,A*%
%TO.N,/VIN13*%
X53190000Y-49310000D03*
%TO.P,L28,3,A*%
%TO.N,/VIN14*%
X54000000Y-51250000D03*
%TO.P,L28,4,A*%
%TO.N,/VIN15*%
X53190000Y-53190000D03*
%TO.P,L28,5,A*%
%TO.N,/VIN12*%
X49310000Y-49310000D03*
%TO.P,L28,6,A*%
%TO.N,/VIN13*%
X48500000Y-51250000D03*
%TO.P,L28,7,A*%
%TO.N,/VIN14*%
X49310000Y-53190000D03*
%TO.P,L28,8,A*%
%TO.N,/VIN15*%
X51250000Y-54000000D03*
%TD*%
%TO.P,L56,1,A*%
%TO.N,/VIN24*%
X73750000Y-71000000D03*
%TO.P,L56,2,A*%
%TO.N,/VIN25*%
X75690000Y-71810000D03*
%TO.P,L56,3,A*%
%TO.N,/VIN26*%
X76500000Y-73750000D03*
%TO.P,L56,4,A*%
%TO.N,/VIN27*%
X75690000Y-75690000D03*
%TO.P,L56,5,A*%
%TO.N,/VIN24*%
X71810000Y-71810000D03*
%TO.P,L56,6,A*%
%TO.N,/VIN25*%
X71000000Y-73750000D03*
%TO.P,L56,7,A*%
%TO.N,/VIN26*%
X71810000Y-75690000D03*
%TO.P,L56,8,A*%
%TO.N,/VIN27*%
X73750000Y-76500000D03*
%TD*%
%TO.P,L41,1,A*%
%TO.N,/VIN20*%
X28750000Y-63500000D03*
%TO.P,L41,2,A*%
%TO.N,/VIN21*%
X30690000Y-64310000D03*
%TO.P,L41,3,A*%
%TO.N,/VIN22*%
X31500000Y-66250000D03*
%TO.P,L41,4,A*%
%TO.N,/VIN23*%
X30690000Y-68190000D03*
%TO.P,L41,5,A*%
%TO.N,/VIN20*%
X26810000Y-64310000D03*
%TO.P,L41,6,A*%
%TO.N,/VIN21*%
X26000000Y-66250000D03*
%TO.P,L41,7,A*%
%TO.N,/VIN22*%
X26810000Y-68190000D03*
%TO.P,L41,8,A*%
%TO.N,/VIN23*%
X28750000Y-69000000D03*
%TD*%
%TO.P,L38,1,A*%
%TO.N,/VIN16*%
X66250000Y-56000000D03*
%TO.P,L38,2,A*%
%TO.N,/VIN17*%
X68190000Y-56810000D03*
%TO.P,L38,3,A*%
%TO.N,/VIN18*%
X69000000Y-58750000D03*
%TO.P,L38,4,A*%
%TO.N,/VIN19*%
X68190000Y-60690000D03*
%TO.P,L38,5,A*%
%TO.N,/VIN16*%
X64310000Y-56810000D03*
%TO.P,L38,6,A*%
%TO.N,/VIN17*%
X63500000Y-58750000D03*
%TO.P,L38,7,A*%
%TO.N,/VIN18*%
X64310000Y-60690000D03*
%TO.P,L38,8,A*%
%TO.N,/VIN19*%
X66250000Y-61500000D03*
%TD*%
%TO.P,L35,1,A*%
%TO.N,/VIN16*%
X43750000Y-56000000D03*
%TO.P,L35,2,A*%
%TO.N,/VIN17*%
X45690000Y-56810000D03*
%TO.P,L35,3,A*%
%TO.N,/VIN18*%
X46500000Y-58750000D03*
%TO.P,L35,4,A*%
%TO.N,/VIN19*%
X45690000Y-60690000D03*
%TO.P,L35,5,A*%
%TO.N,/VIN16*%
X41810000Y-56810000D03*
%TO.P,L35,6,A*%
%TO.N,/VIN17*%
X41000000Y-58750000D03*
%TO.P,L35,7,A*%
%TO.N,/VIN18*%
X41810000Y-60690000D03*
%TO.P,L35,8,A*%
%TO.N,/VIN19*%
X43750000Y-61500000D03*
%TD*%
%TO.P,L44,1,A*%
%TO.N,/VIN20*%
X51250000Y-63500000D03*
%TO.P,L44,2,A*%
%TO.N,/VIN21*%
X53190000Y-64310000D03*
%TO.P,L44,3,A*%
%TO.N,/VIN22*%
X54000000Y-66250000D03*
%TO.P,L44,4,A*%
%TO.N,/VIN23*%
X53190000Y-68190000D03*
%TO.P,L44,5,A*%
%TO.N,/VIN20*%
X49310000Y-64310000D03*
%TO.P,L44,6,A*%
%TO.N,/VIN21*%
X48500000Y-66250000D03*
%TO.P,L44,7,A*%
%TO.N,/VIN22*%
X49310000Y-68190000D03*
%TO.P,L44,8,A*%
%TO.N,/VIN23*%
X51250000Y-69000000D03*
%TD*%
%TO.P,L58,1,A*%
%TO.N,/VIN28*%
X36250000Y-78500000D03*
%TO.P,L58,2,A*%
%TO.N,/VIN29*%
X38190000Y-79310000D03*
%TO.P,L58,3,A*%
%TO.N,/VIN30*%
X39000000Y-81250000D03*
%TO.P,L58,4,A*%
%TO.N,/VIN31*%
X38190000Y-83190000D03*
%TO.P,L58,5,A*%
%TO.N,/VIN28*%
X34310000Y-79310000D03*
%TO.P,L58,6,A*%
%TO.N,/VIN29*%
X33500000Y-81250000D03*
%TO.P,L58,7,A*%
%TO.N,/VIN30*%
X34310000Y-83190000D03*
%TO.P,L58,8,A*%
%TO.N,/VIN31*%
X36250000Y-84000000D03*
%TD*%
%TO.P,L31,1,A*%
%TO.N,/VIN12*%
X73750000Y-48500000D03*
%TO.P,L31,2,A*%
%TO.N,/VIN13*%
X75690000Y-49310000D03*
%TO.P,L31,3,A*%
%TO.N,/VIN14*%
X76500000Y-51250000D03*
%TO.P,L31,4,A*%
%TO.N,/VIN15*%
X75690000Y-53190000D03*
%TO.P,L31,5,A*%
%TO.N,/VIN12*%
X71810000Y-49310000D03*
%TO.P,L31,6,A*%
%TO.N,/VIN13*%
X71000000Y-51250000D03*
%TO.P,L31,7,A*%
%TO.N,/VIN14*%
X71810000Y-53190000D03*
%TO.P,L31,8,A*%
%TO.N,/VIN15*%
X73750000Y-54000000D03*
%TD*%
%TO.P,L50,1,A*%
%TO.N,/VIN24*%
X36250000Y-71000000D03*
%TO.P,L50,2,A*%
%TO.N,/VIN25*%
X38190000Y-71810000D03*
%TO.P,L50,3,A*%
%TO.N,/VIN26*%
X39000000Y-73750000D03*
%TO.P,L50,4,A*%
%TO.N,/VIN27*%
X38190000Y-75690000D03*
%TO.P,L50,5,A*%
%TO.N,/VIN24*%
X34310000Y-71810000D03*
%TO.P,L50,6,A*%
%TO.N,/VIN25*%
X33500000Y-73750000D03*
%TO.P,L50,7,A*%
%TO.N,/VIN26*%
X34310000Y-75690000D03*
%TO.P,L50,8,A*%
%TO.N,/VIN27*%
X36250000Y-76500000D03*
%TD*%
%TO.P,L22,1,A*%
%TO.N,/VIN8*%
X66250000Y-41000000D03*
%TO.P,L22,2,A*%
%TO.N,/VIN9*%
X68190000Y-41810000D03*
%TO.P,L22,3,A*%
%TO.N,/VIN10*%
X69000000Y-43750000D03*
%TO.P,L22,4,A*%
%TO.N,/VIN11*%
X68190000Y-45690000D03*
%TO.P,L22,5,A*%
%TO.N,/VIN8*%
X64310000Y-41810000D03*
%TO.P,L22,6,A*%
%TO.N,/VIN9*%
X63500000Y-43750000D03*
%TO.P,L22,7,A*%
%TO.N,/VIN10*%
X64310000Y-45690000D03*
%TO.P,L22,8,A*%
%TO.N,/VIN11*%
X66250000Y-46500000D03*
%TD*%
%TO.P,L6,1,A*%
%TO.N,/VIN0*%
X66250000Y-26000000D03*
%TO.P,L6,2,A*%
%TO.N,/VIN1*%
X68190000Y-26810000D03*
%TO.P,L6,3,A*%
%TO.N,/VIN2*%
X69000000Y-28750000D03*
%TO.P,L6,4,A*%
%TO.N,/VIN3*%
X68190000Y-30690000D03*
%TO.P,L6,5,A*%
%TO.N,/VIN0*%
X64310000Y-26810000D03*
%TO.P,L6,6,A*%
%TO.N,/VIN1*%
X63500000Y-28750000D03*
%TO.P,L6,7,A*%
%TO.N,/VIN2*%
X64310000Y-30690000D03*
%TO.P,L6,8,A*%
%TO.N,/VIN3*%
X66250000Y-31500000D03*
%TD*%
%TO.P,L26,1,A*%
%TO.N,/VIN12*%
X36250000Y-48500000D03*
%TO.P,L26,2,A*%
%TO.N,/VIN13*%
X38190000Y-49310000D03*
%TO.P,L26,3,A*%
%TO.N,/VIN14*%
X39000000Y-51250000D03*
%TO.P,L26,4,A*%
%TO.N,/VIN15*%
X38190000Y-53190000D03*
%TO.P,L26,5,A*%
%TO.N,/VIN12*%
X34310000Y-49310000D03*
%TO.P,L26,6,A*%
%TO.N,/VIN13*%
X33500000Y-51250000D03*
%TO.P,L26,7,A*%
%TO.N,/VIN14*%
X34310000Y-53190000D03*
%TO.P,L26,8,A*%
%TO.N,/VIN15*%
X36250000Y-54000000D03*
%TD*%
%TO.P,L39,1,A*%
%TO.N,/VIN16*%
X73750000Y-56000000D03*
%TO.P,L39,2,A*%
%TO.N,/VIN17*%
X75690000Y-56810000D03*
%TO.P,L39,3,A*%
%TO.N,/VIN18*%
X76500000Y-58750000D03*
%TO.P,L39,4,A*%
%TO.N,/VIN19*%
X75690000Y-60690000D03*
%TO.P,L39,5,A*%
%TO.N,/VIN16*%
X71810000Y-56810000D03*
%TO.P,L39,6,A*%
%TO.N,/VIN17*%
X71000000Y-58750000D03*
%TO.P,L39,7,A*%
%TO.N,/VIN18*%
X71810000Y-60690000D03*
%TO.P,L39,8,A*%
%TO.N,/VIN19*%
X73750000Y-61500000D03*
%TD*%
%TO.P,L40,1,A*%
%TO.N,/VIN16*%
X81250000Y-56000000D03*
%TO.P,L40,2,A*%
%TO.N,/VIN17*%
X83190000Y-56810000D03*
%TO.P,L40,3,A*%
%TO.N,/VIN18*%
X84000000Y-58750000D03*
%TO.P,L40,4,A*%
%TO.N,/VIN19*%
X83190000Y-60690000D03*
%TO.P,L40,5,A*%
%TO.N,/VIN16*%
X79310000Y-56810000D03*
%TO.P,L40,6,A*%
%TO.N,/VIN17*%
X78500000Y-58750000D03*
%TO.P,L40,7,A*%
%TO.N,/VIN18*%
X79310000Y-60690000D03*
%TO.P,L40,8,A*%
%TO.N,/VIN19*%
X81250000Y-61500000D03*
%TD*%
%TO.P,L53,1,A*%
%TO.N,/VIN24*%
X81250000Y-71000000D03*
%TO.P,L53,2,A*%
%TO.N,/VIN25*%
X83190000Y-71810000D03*
%TO.P,L53,3,A*%
%TO.N,/VIN26*%
X84000000Y-73750000D03*
%TO.P,L53,4,A*%
%TO.N,/VIN27*%
X83190000Y-75690000D03*
%TO.P,L53,5,A*%
%TO.N,/VIN24*%
X79310000Y-71810000D03*
%TO.P,L53,6,A*%
%TO.N,/VIN25*%
X78500000Y-73750000D03*
%TO.P,L53,7,A*%
%TO.N,/VIN26*%
X79310000Y-75690000D03*
%TO.P,L53,8,A*%
%TO.N,/VIN27*%
X81250000Y-76500000D03*
%TD*%
%TO.P,L29,1,A*%
%TO.N,/VIN12*%
X58750000Y-48500000D03*
%TO.P,L29,2,A*%
%TO.N,/VIN13*%
X60690000Y-49310000D03*
%TO.P,L29,3,A*%
%TO.N,/VIN14*%
X61500000Y-51250000D03*
%TO.P,L29,4,A*%
%TO.N,/VIN15*%
X60690000Y-53190000D03*
%TO.P,L29,5,A*%
%TO.N,/VIN12*%
X56810000Y-49310000D03*
%TO.P,L29,6,A*%
%TO.N,/VIN13*%
X56000000Y-51250000D03*
%TO.P,L29,7,A*%
%TO.N,/VIN14*%
X56810000Y-53190000D03*
%TO.P,L29,8,A*%
%TO.N,/VIN15*%
X58750000Y-54000000D03*
%TD*%
%TO.P,L61,1,A*%
%TO.N,/VIN28*%
X58750000Y-78500000D03*
%TO.P,L61,2,A*%
%TO.N,/VIN29*%
X60690000Y-79310000D03*
%TO.P,L61,3,A*%
%TO.N,/VIN30*%
X61500000Y-81250000D03*
%TO.P,L61,4,A*%
%TO.N,/VIN31*%
X60690000Y-83190000D03*
%TO.P,L61,5,A*%
%TO.N,/VIN28*%
X56810000Y-79310000D03*
%TO.P,L61,6,A*%
%TO.N,/VIN29*%
X56000000Y-81250000D03*
%TO.P,L61,7,A*%
%TO.N,/VIN30*%
X56810000Y-83190000D03*
%TO.P,L61,8,A*%
%TO.N,/VIN31*%
X58750000Y-84000000D03*
%TD*%
%TO.P,L3,1,A*%
%TO.N,/VIN0*%
X43750000Y-26000000D03*
%TO.P,L3,2,A*%
%TO.N,/VIN1*%
X45690000Y-26810000D03*
%TO.P,L3,3,A*%
%TO.N,/VIN2*%
X46500000Y-28750000D03*
%TO.P,L3,4,A*%
%TO.N,/VIN3*%
X45690000Y-30690000D03*
%TO.P,L3,5,A*%
%TO.N,/VIN0*%
X41810000Y-26810000D03*
%TO.P,L3,6,A*%
%TO.N,/VIN1*%
X41000000Y-28750000D03*
%TO.P,L3,7,A*%
%TO.N,/VIN2*%
X41810000Y-30690000D03*
%TO.P,L3,8,A*%
%TO.N,/VIN3*%
X43750000Y-31500000D03*
%TD*%
%TO.P,L46,1,A*%
%TO.N,/VIN20*%
X66250000Y-63500000D03*
%TO.P,L46,2,A*%
%TO.N,/VIN21*%
X68190000Y-64310000D03*
%TO.P,L46,3,A*%
%TO.N,/VIN22*%
X69000000Y-66250000D03*
%TO.P,L46,4,A*%
%TO.N,/VIN23*%
X68190000Y-68190000D03*
%TO.P,L46,5,A*%
%TO.N,/VIN20*%
X64310000Y-64310000D03*
%TO.P,L46,6,A*%
%TO.N,/VIN21*%
X63500000Y-66250000D03*
%TO.P,L46,7,A*%
%TO.N,/VIN22*%
X64310000Y-68190000D03*
%TO.P,L46,8,A*%
%TO.N,/VIN23*%
X66250000Y-69000000D03*
%TD*%
%TO.P,L42,1,A*%
%TO.N,/VIN20*%
X36250000Y-63500000D03*
%TO.P,L42,2,A*%
%TO.N,/VIN21*%
X38190000Y-64310000D03*
%TO.P,L42,3,A*%
%TO.N,/VIN22*%
X39000000Y-66250000D03*
%TO.P,L42,4,A*%
%TO.N,/VIN23*%
X38190000Y-68190000D03*
%TO.P,L42,5,A*%
%TO.N,/VIN20*%
X34310000Y-64310000D03*
%TO.P,L42,6,A*%
%TO.N,/VIN21*%
X33500000Y-66250000D03*
%TO.P,L42,7,A*%
%TO.N,/VIN22*%
X34310000Y-68190000D03*
%TO.P,L42,8,A*%
%TO.N,/VIN23*%
X36250000Y-69000000D03*
%TD*%
%TO.P,L20,1,A*%
%TO.N,/VIN8*%
X51250000Y-41000000D03*
%TO.P,L20,2,A*%
%TO.N,/VIN9*%
X53190000Y-41810000D03*
%TO.P,L20,3,A*%
%TO.N,/VIN10*%
X54000000Y-43750000D03*
%TO.P,L20,4,A*%
%TO.N,/VIN11*%
X53190000Y-45690000D03*
%TO.P,L20,5,A*%
%TO.N,/VIN8*%
X49310000Y-41810000D03*
%TO.P,L20,6,A*%
%TO.N,/VIN9*%
X48500000Y-43750000D03*
%TO.P,L20,7,A*%
%TO.N,/VIN10*%
X49310000Y-45690000D03*
%TO.P,L20,8,A*%
%TO.N,/VIN11*%
X51250000Y-46500000D03*
%TD*%
%TO.P,L48,1,A*%
%TO.N,/VIN20*%
X81250000Y-63500000D03*
%TO.P,L48,2,A*%
%TO.N,/VIN21*%
X83190000Y-64310000D03*
%TO.P,L48,3,A*%
%TO.N,/VIN22*%
X84000000Y-66250000D03*
%TO.P,L48,4,A*%
%TO.N,/VIN23*%
X83190000Y-68190000D03*
%TO.P,L48,5,A*%
%TO.N,/VIN20*%
X79310000Y-64310000D03*
%TO.P,L48,6,A*%
%TO.N,/VIN21*%
X78500000Y-66250000D03*
%TO.P,L48,7,A*%
%TO.N,/VIN22*%
X79310000Y-68190000D03*
%TO.P,L48,8,A*%
%TO.N,/VIN23*%
X81250000Y-69000000D03*
%TD*%
%TO.P,L7,1,A*%
%TO.N,/VIN0*%
X73750000Y-26000000D03*
%TO.P,L7,2,A*%
%TO.N,/VIN1*%
X75690000Y-26810000D03*
%TO.P,L7,3,A*%
%TO.N,/VIN2*%
X76500000Y-28750000D03*
%TO.P,L7,4,A*%
%TO.N,/VIN3*%
X75690000Y-30690000D03*
%TO.P,L7,5,A*%
%TO.N,/VIN0*%
X71810000Y-26810000D03*
%TO.P,L7,6,A*%
%TO.N,/VIN1*%
X71000000Y-28750000D03*
%TO.P,L7,7,A*%
%TO.N,/VIN2*%
X71810000Y-30690000D03*
%TO.P,L7,8,A*%
%TO.N,/VIN3*%
X73750000Y-31500000D03*
%TD*%
%TO.P,L25,1,A*%
%TO.N,/VIN12*%
X28750000Y-48500000D03*
%TO.P,L25,2,A*%
%TO.N,/VIN13*%
X30690000Y-49310000D03*
%TO.P,L25,3,A*%
%TO.N,/VIN14*%
X31500000Y-51250000D03*
%TO.P,L25,4,A*%
%TO.N,/VIN15*%
X30690000Y-53190000D03*
%TO.P,L25,5,A*%
%TO.N,/VIN12*%
X26810000Y-49310000D03*
%TO.P,L25,6,A*%
%TO.N,/VIN13*%
X26000000Y-51250000D03*
%TO.P,L25,7,A*%
%TO.N,/VIN14*%
X26810000Y-53190000D03*
%TO.P,L25,8,A*%
%TO.N,/VIN15*%
X28750000Y-54000000D03*
%TD*%
%TO.P,L59,1,A*%
%TO.N,/VIN28*%
X43750000Y-78500000D03*
%TO.P,L59,2,A*%
%TO.N,/VIN29*%
X45690000Y-79310000D03*
%TO.P,L59,3,A*%
%TO.N,/VIN30*%
X46500000Y-81250000D03*
%TO.P,L59,4,A*%
%TO.N,/VIN31*%
X45690000Y-83190000D03*
%TO.P,L59,5,A*%
%TO.N,/VIN28*%
X41810000Y-79310000D03*
%TO.P,L59,6,A*%
%TO.N,/VIN29*%
X41000000Y-81250000D03*
%TO.P,L59,7,A*%
%TO.N,/VIN30*%
X41810000Y-83190000D03*
%TO.P,L59,8,A*%
%TO.N,/VIN31*%
X43750000Y-84000000D03*
%TD*%
%TO.P,L8,1,A*%
%TO.N,/VIN0*%
X81250000Y-26000000D03*
%TO.P,L8,2,A*%
%TO.N,/VIN1*%
X83190000Y-26810000D03*
%TO.P,L8,3,A*%
%TO.N,/VIN2*%
X84000000Y-28750000D03*
%TO.P,L8,4,A*%
%TO.N,/VIN3*%
X83190000Y-30690000D03*
%TO.P,L8,5,A*%
%TO.N,/VIN0*%
X79310000Y-26810000D03*
%TO.P,L8,6,A*%
%TO.N,/VIN1*%
X78500000Y-28750000D03*
%TO.P,L8,7,A*%
%TO.N,/VIN2*%
X79310000Y-30690000D03*
%TO.P,L8,8,A*%
%TO.N,/VIN3*%
X81250000Y-31500000D03*
%TD*%
%TO.P,L64,1,A*%
%TO.N,/VIN28*%
X81250000Y-78500000D03*
%TO.P,L64,2,A*%
%TO.N,/VIN29*%
X83190000Y-79310000D03*
%TO.P,L64,3,A*%
%TO.N,/VIN30*%
X84000000Y-81250000D03*
%TO.P,L64,4,A*%
%TO.N,/VIN31*%
X83190000Y-83190000D03*
%TO.P,L64,5,A*%
%TO.N,/VIN28*%
X79310000Y-79310000D03*
%TO.P,L64,6,A*%
%TO.N,/VIN29*%
X78500000Y-81250000D03*
%TO.P,L64,7,A*%
%TO.N,/VIN30*%
X79310000Y-83190000D03*
%TO.P,L64,8,A*%
%TO.N,/VIN31*%
X81250000Y-84000000D03*
%TD*%
%TO.P,L11,1,A*%
%TO.N,/VIN4*%
X43750000Y-33500000D03*
%TO.P,L11,2,A*%
%TO.N,/VIN5*%
X45690000Y-34310000D03*
%TO.P,L11,3,A*%
%TO.N,/VIN6*%
X46500000Y-36250000D03*
%TO.P,L11,4,A*%
%TO.N,/VIN7*%
X45690000Y-38190000D03*
%TO.P,L11,5,A*%
%TO.N,/VIN4*%
X41810000Y-34310000D03*
%TO.P,L11,6,A*%
%TO.N,/VIN5*%
X41000000Y-36250000D03*
%TO.P,L11,7,A*%
%TO.N,/VIN6*%
X41810000Y-38190000D03*
%TO.P,L11,8,A*%
%TO.N,/VIN7*%
X43750000Y-39000000D03*
%TD*%
%TO.P,L15,1,A*%
%TO.N,/VIN4*%
X73750000Y-33500000D03*
%TO.P,L15,2,A*%
%TO.N,/VIN5*%
X75690000Y-34310000D03*
%TO.P,L15,3,A*%
%TO.N,/VIN6*%
X76500000Y-36250000D03*
%TO.P,L15,4,A*%
%TO.N,/VIN7*%
X75690000Y-38190000D03*
%TO.P,L15,5,A*%
%TO.N,/VIN4*%
X71810000Y-34310000D03*
%TO.P,L15,6,A*%
%TO.N,/VIN5*%
X71000000Y-36250000D03*
%TO.P,L15,7,A*%
%TO.N,/VIN6*%
X71810000Y-38190000D03*
%TO.P,L15,8,A*%
%TO.N,/VIN7*%
X73750000Y-39000000D03*
%TD*%
%TO.P,L45,1,A*%
%TO.N,/VIN20*%
X58750000Y-63500000D03*
%TO.P,L45,2,A*%
%TO.N,/VIN21*%
X60690000Y-64310000D03*
%TO.P,L45,3,A*%
%TO.N,/VIN22*%
X61500000Y-66250000D03*
%TO.P,L45,4,A*%
%TO.N,/VIN23*%
X60690000Y-68190000D03*
%TO.P,L45,5,A*%
%TO.N,/VIN20*%
X56810000Y-64310000D03*
%TO.P,L45,6,A*%
%TO.N,/VIN21*%
X56000000Y-66250000D03*
%TO.P,L45,7,A*%
%TO.N,/VIN22*%
X56810000Y-68190000D03*
%TO.P,L45,8,A*%
%TO.N,/VIN23*%
X58750000Y-69000000D03*
%TD*%
%TO.P,L10,1,A*%
%TO.N,/VIN4*%
X36250000Y-33500000D03*
%TO.P,L10,2,A*%
%TO.N,/VIN5*%
X38190000Y-34310000D03*
%TO.P,L10,3,A*%
%TO.N,/VIN6*%
X39000000Y-36250000D03*
%TO.P,L10,4,A*%
%TO.N,/VIN7*%
X38190000Y-38190000D03*
%TO.P,L10,5,A*%
%TO.N,/VIN4*%
X34310000Y-34310000D03*
%TO.P,L10,6,A*%
%TO.N,/VIN5*%
X33500000Y-36250000D03*
%TO.P,L10,7,A*%
%TO.N,/VIN6*%
X34310000Y-38190000D03*
%TO.P,L10,8,A*%
%TO.N,/VIN7*%
X36250000Y-39000000D03*
%TD*%
%TO.P,L47,1,A*%
%TO.N,/VIN20*%
X73750000Y-63500000D03*
%TO.P,L47,2,A*%
%TO.N,/VIN21*%
X75690000Y-64310000D03*
%TO.P,L47,3,A*%
%TO.N,/VIN22*%
X76500000Y-66250000D03*
%TO.P,L47,4,A*%
%TO.N,/VIN23*%
X75690000Y-68190000D03*
%TO.P,L47,5,A*%
%TO.N,/VIN20*%
X71810000Y-64310000D03*
%TO.P,L47,6,A*%
%TO.N,/VIN21*%
X71000000Y-66250000D03*
%TO.P,L47,7,A*%
%TO.N,/VIN22*%
X71810000Y-68190000D03*
%TO.P,L47,8,A*%
%TO.N,/VIN23*%
X73750000Y-69000000D03*
%TD*%
%TO.P,L54,1,A*%
%TO.N,/VIN24*%
X58750000Y-71000000D03*
%TO.P,L54,2,A*%
%TO.N,/VIN25*%
X60690000Y-71810000D03*
%TO.P,L54,3,A*%
%TO.N,/VIN26*%
X61500000Y-73750000D03*
%TO.P,L54,4,A*%
%TO.N,/VIN27*%
X60690000Y-75690000D03*
%TO.P,L54,5,A*%
%TO.N,/VIN24*%
X56810000Y-71810000D03*
%TO.P,L54,6,A*%
%TO.N,/VIN25*%
X56000000Y-73750000D03*
%TO.P,L54,7,A*%
%TO.N,/VIN26*%
X56810000Y-75690000D03*
%TO.P,L54,8,A*%
%TO.N,/VIN27*%
X58750000Y-76500000D03*
%TD*%
%TO.P,L19,1,A*%
%TO.N,/VIN8*%
X43750000Y-41000000D03*
%TO.P,L19,2,A*%
%TO.N,/VIN9*%
X45690000Y-41810000D03*
%TO.P,L19,3,A*%
%TO.N,/VIN10*%
X46500000Y-43750000D03*
%TO.P,L19,4,A*%
%TO.N,/VIN11*%
X45690000Y-45690000D03*
%TO.P,L19,5,A*%
%TO.N,/VIN8*%
X41810000Y-41810000D03*
%TO.P,L19,6,A*%
%TO.N,/VIN9*%
X41000000Y-43750000D03*
%TO.P,L19,7,A*%
%TO.N,/VIN10*%
X41810000Y-45690000D03*
%TO.P,L19,8,A*%
%TO.N,/VIN11*%
X43750000Y-46500000D03*
%TD*%
%TO.P,L32,1,A*%
%TO.N,/VIN12*%
X81250000Y-48500000D03*
%TO.P,L32,2,A*%
%TO.N,/VIN13*%
X83190000Y-49310000D03*
%TO.P,L32,3,A*%
%TO.N,/VIN14*%
X84000000Y-51250000D03*
%TO.P,L32,4,A*%
%TO.N,/VIN15*%
X83190000Y-53190000D03*
%TO.P,L32,5,A*%
%TO.N,/VIN12*%
X79310000Y-49310000D03*
%TO.P,L32,6,A*%
%TO.N,/VIN13*%
X78500000Y-51250000D03*
%TO.P,L32,7,A*%
%TO.N,/VIN14*%
X79310000Y-53190000D03*
%TO.P,L32,8,A*%
%TO.N,/VIN15*%
X81250000Y-54000000D03*
%TD*%
%TO.P,L60,1,A*%
%TO.N,/VIN28*%
X51250000Y-78500000D03*
%TO.P,L60,2,A*%
%TO.N,/VIN29*%
X53190000Y-79310000D03*
%TO.P,L60,3,A*%
%TO.N,/VIN30*%
X54000000Y-81250000D03*
%TO.P,L60,4,A*%
%TO.N,/VIN31*%
X53190000Y-83190000D03*
%TO.P,L60,5,A*%
%TO.N,/VIN28*%
X49310000Y-79310000D03*
%TO.P,L60,6,A*%
%TO.N,/VIN29*%
X48500000Y-81250000D03*
%TO.P,L60,7,A*%
%TO.N,/VIN30*%
X49310000Y-83190000D03*
%TO.P,L60,8,A*%
%TO.N,/VIN31*%
X51250000Y-84000000D03*
%TD*%
%TO.P,L62,1,A*%
%TO.N,/VIN28*%
X66250000Y-78500000D03*
%TO.P,L62,2,A*%
%TO.N,/VIN29*%
X68190000Y-79310000D03*
%TO.P,L62,3,A*%
%TO.N,/VIN30*%
X69000000Y-81250000D03*
%TO.P,L62,4,A*%
%TO.N,/VIN31*%
X68190000Y-83190000D03*
%TO.P,L62,5,A*%
%TO.N,/VIN28*%
X64310000Y-79310000D03*
%TO.P,L62,6,A*%
%TO.N,/VIN29*%
X63500000Y-81250000D03*
%TO.P,L62,7,A*%
%TO.N,/VIN30*%
X64310000Y-83190000D03*
%TO.P,L62,8,A*%
%TO.N,/VIN31*%
X66250000Y-84000000D03*
%TD*%
%TO.P,L17,1,A*%
%TO.N,/VIN8*%
X28750000Y-41000000D03*
%TO.P,L17,2,A*%
%TO.N,/VIN9*%
X30690000Y-41810000D03*
%TO.P,L17,3,A*%
%TO.N,/VIN10*%
X31500000Y-43750000D03*
%TO.P,L17,4,A*%
%TO.N,/VIN11*%
X30690000Y-45690000D03*
%TO.P,L17,5,A*%
%TO.N,/VIN8*%
X26810000Y-41810000D03*
%TO.P,L17,6,A*%
%TO.N,/VIN9*%
X26000000Y-43750000D03*
%TO.P,L17,7,A*%
%TO.N,/VIN10*%
X26810000Y-45690000D03*
%TO.P,L17,8,A*%
%TO.N,/VIN11*%
X28750000Y-46500000D03*
%TD*%
%TO.P,L49,1,A*%
%TO.N,/VIN24*%
X28750000Y-71000000D03*
%TO.P,L49,2,A*%
%TO.N,/VIN25*%
X30690000Y-71810000D03*
%TO.P,L49,3,A*%
%TO.N,/VIN26*%
X31500000Y-73750000D03*
%TO.P,L49,4,A*%
%TO.N,/VIN27*%
X30690000Y-75690000D03*
%TO.P,L49,5,A*%
%TO.N,/VIN24*%
X26810000Y-71810000D03*
%TO.P,L49,6,A*%
%TO.N,/VIN25*%
X26000000Y-73750000D03*
%TO.P,L49,7,A*%
%TO.N,/VIN26*%
X26810000Y-75690000D03*
%TO.P,L49,8,A*%
%TO.N,/VIN27*%
X28750000Y-76500000D03*
%TD*%
%TO.P,L21,1,A*%
%TO.N,/VIN8*%
X58750000Y-41000000D03*
%TO.P,L21,2,A*%
%TO.N,/VIN9*%
X60690000Y-41810000D03*
%TO.P,L21,3,A*%
%TO.N,/VIN10*%
X61500000Y-43750000D03*
%TO.P,L21,4,A*%
%TO.N,/VIN11*%
X60690000Y-45690000D03*
%TO.P,L21,5,A*%
%TO.N,/VIN8*%
X56810000Y-41810000D03*
%TO.P,L21,6,A*%
%TO.N,/VIN9*%
X56000000Y-43750000D03*
%TO.P,L21,7,A*%
%TO.N,/VIN10*%
X56810000Y-45690000D03*
%TO.P,L21,8,A*%
%TO.N,/VIN11*%
X58750000Y-46500000D03*
%TD*%
%TO.P,L51,1,A*%
%TO.N,/VIN24*%
X43750000Y-71000000D03*
%TO.P,L51,2,A*%
%TO.N,/VIN25*%
X45690000Y-71810000D03*
%TO.P,L51,3,A*%
%TO.N,/VIN26*%
X46500000Y-73750000D03*
%TO.P,L51,4,A*%
%TO.N,/VIN27*%
X45690000Y-75690000D03*
%TO.P,L51,5,A*%
%TO.N,/VIN24*%
X41810000Y-71810000D03*
%TO.P,L51,6,A*%
%TO.N,/VIN25*%
X41000000Y-73750000D03*
%TO.P,L51,7,A*%
%TO.N,/VIN26*%
X41810000Y-75690000D03*
%TO.P,L51,8,A*%
%TO.N,/VIN27*%
X43750000Y-76500000D03*
%TD*%
%TO.P,L23,1,A*%
%TO.N,/VIN8*%
X73750000Y-41000000D03*
%TO.P,L23,2,A*%
%TO.N,/VIN9*%
X75690000Y-41810000D03*
%TO.P,L23,3,A*%
%TO.N,/VIN10*%
X76500000Y-43750000D03*
%TO.P,L23,4,A*%
%TO.N,/VIN11*%
X75690000Y-45690000D03*
%TO.P,L23,5,A*%
%TO.N,/VIN8*%
X71810000Y-41810000D03*
%TO.P,L23,6,A*%
%TO.N,/VIN9*%
X71000000Y-43750000D03*
%TO.P,L23,7,A*%
%TO.N,/VIN10*%
X71810000Y-45690000D03*
%TO.P,L23,8,A*%
%TO.N,/VIN11*%
X73750000Y-46500000D03*
%TD*%
%TO.P,L24,1,A*%
%TO.N,/VIN8*%
X81250000Y-41000000D03*
%TO.P,L24,2,A*%
%TO.N,/VIN9*%
X83190000Y-41810000D03*
%TO.P,L24,3,A*%
%TO.N,/VIN10*%
X84000000Y-43750000D03*
%TO.P,L24,4,A*%
%TO.N,/VIN11*%
X83190000Y-45690000D03*
%TO.P,L24,5,A*%
%TO.N,/VIN8*%
X79310000Y-41810000D03*
%TO.P,L24,6,A*%
%TO.N,/VIN9*%
X78500000Y-43750000D03*
%TO.P,L24,7,A*%
%TO.N,/VIN10*%
X79310000Y-45690000D03*
%TO.P,L24,8,A*%
%TO.N,/VIN11*%
X81250000Y-46500000D03*
%TD*%
%TO.P,L4,1,A*%
%TO.N,/VIN0*%
X51250000Y-26000000D03*
%TO.P,L4,2,A*%
%TO.N,/VIN1*%
X53190000Y-26810000D03*
%TO.P,L4,3,A*%
%TO.N,/VIN2*%
X54000000Y-28750000D03*
%TO.P,L4,4,A*%
%TO.N,/VIN3*%
X53190000Y-30690000D03*
%TO.P,L4,5,A*%
%TO.N,/VIN0*%
X49310000Y-26810000D03*
%TO.P,L4,6,A*%
%TO.N,/VIN1*%
X48500000Y-28750000D03*
%TO.P,L4,7,A*%
%TO.N,/VIN2*%
X49310000Y-30690000D03*
%TO.P,L4,8,A*%
%TO.N,/VIN3*%
X51250000Y-31500000D03*
%TD*%
%TO.P,L63,1,A*%
%TO.N,/VIN28*%
X73750000Y-78500000D03*
%TO.P,L63,2,A*%
%TO.N,/VIN29*%
X75690000Y-79310000D03*
%TO.P,L63,3,A*%
%TO.N,/VIN30*%
X76500000Y-81250000D03*
%TO.P,L63,4,A*%
%TO.N,/VIN31*%
X75690000Y-83190000D03*
%TO.P,L63,5,A*%
%TO.N,/VIN28*%
X71810000Y-79310000D03*
%TO.P,L63,6,A*%
%TO.N,/VIN29*%
X71000000Y-81250000D03*
%TO.P,L63,7,A*%
%TO.N,/VIN30*%
X71810000Y-83190000D03*
%TO.P,L63,8,A*%
%TO.N,/VIN31*%
X73750000Y-84000000D03*
%TD*%
%TO.P,L57,1,A*%
%TO.N,/VIN28*%
X28750000Y-78500000D03*
%TO.P,L57,2,A*%
%TO.N,/VIN29*%
X30690000Y-79310000D03*
%TO.P,L57,3,A*%
%TO.N,/VIN30*%
X31500000Y-81250000D03*
%TO.P,L57,4,A*%
%TO.N,/VIN31*%
X30690000Y-83190000D03*
%TO.P,L57,5,A*%
%TO.N,/VIN28*%
X26810000Y-79310000D03*
%TO.P,L57,6,A*%
%TO.N,/VIN29*%
X26000000Y-81250000D03*
%TO.P,L57,7,A*%
%TO.N,/VIN30*%
X26810000Y-83190000D03*
%TO.P,L57,8,A*%
%TO.N,/VIN31*%
X28750000Y-84000000D03*
%TD*%
%TO.P,L14,1,A*%
%TO.N,/VIN4*%
X66250000Y-33500000D03*
%TO.P,L14,2,A*%
%TO.N,/VIN5*%
X68190000Y-34310000D03*
%TO.P,L14,3,A*%
%TO.N,/VIN6*%
X69000000Y-36250000D03*
%TO.P,L14,4,A*%
%TO.N,/VIN7*%
X68190000Y-38190000D03*
%TO.P,L14,5,A*%
%TO.N,/VIN4*%
X64310000Y-34310000D03*
%TO.P,L14,6,A*%
%TO.N,/VIN5*%
X63500000Y-36250000D03*
%TO.P,L14,7,A*%
%TO.N,/VIN6*%
X64310000Y-38190000D03*
%TO.P,L14,8,A*%
%TO.N,/VIN7*%
X66250000Y-39000000D03*
%TD*%
%TO.P,L52,1,A*%
%TO.N,/VIN24*%
X51250000Y-71000000D03*
%TO.P,L52,2,A*%
%TO.N,/VIN25*%
X53190000Y-71810000D03*
%TO.P,L52,3,A*%
%TO.N,/VIN26*%
X54000000Y-73750000D03*
%TO.P,L52,4,A*%
%TO.N,/VIN27*%
X53190000Y-75690000D03*
%TO.P,L52,5,A*%
%TO.N,/VIN24*%
X49310000Y-71810000D03*
%TO.P,L52,6,A*%
%TO.N,/VIN25*%
X48500000Y-73750000D03*
%TO.P,L52,7,A*%
%TO.N,/VIN26*%
X49310000Y-75690000D03*
%TO.P,L52,8,A*%
%TO.N,/VIN27*%
X51250000Y-76500000D03*
%TD*%
%TO.P,L43,1,A*%
%TO.N,/VIN20*%
X43750000Y-63500000D03*
%TO.P,L43,2,A*%
%TO.N,/VIN21*%
X45690000Y-64310000D03*
%TO.P,L43,3,A*%
%TO.N,/VIN22*%
X46500000Y-66250000D03*
%TO.P,L43,4,A*%
%TO.N,/VIN23*%
X45690000Y-68190000D03*
%TO.P,L43,5,A*%
%TO.N,/VIN20*%
X41810000Y-64310000D03*
%TO.P,L43,6,A*%
%TO.N,/VIN21*%
X41000000Y-66250000D03*
%TO.P,L43,7,A*%
%TO.N,/VIN22*%
X41810000Y-68190000D03*
%TO.P,L43,8,A*%
%TO.N,/VIN23*%
X43750000Y-69000000D03*
%TD*%
D11*
%TO.P,J10,1,Pin_1*%
%TO.N,/INP18*%
X81852670Y-66006506D03*
D12*
%TO.P,J10,2,Pin_2*%
%TO.N,/INP19*%
X80675147Y-66482256D03*
%TD*%
D13*
%TO.P,J17,1,Pin_1*%
%TO.N,/VIN*%
X25700000Y-32500000D03*
D14*
%TO.P,J17,2,Pin_2*%
%TO.N,/GND*%
X26970000Y-32500000D03*
%TD*%
D11*
%TO.P,J4,1,Pin_1*%
%TO.N,/INP6*%
X81852670Y-36006506D03*
D12*
%TO.P,J4,2,Pin_2*%
%TO.N,/INP7*%
X80675147Y-36482256D03*
%TD*%
D15*
%TO.P,J3,1,Pin_1*%
%TO.N,/INP5*%
X28147331Y-36493494D03*
D16*
%TO.P,J3,2,Pin_2*%
%TO.N,/INP4*%
X29324854Y-36017744D03*
%TD*%
D13*
%TO.P,J12,1,Pin_1*%
%TO.N,/INP22*%
X84300000Y-70000000D03*
D14*
%TO.P,J12,2,Pin_2*%
%TO.N,/INP23*%
X83030000Y-70000000D03*
%TD*%
D15*
%TO.P,J13,1,Pin_1*%
%TO.N,/INP25*%
X28147331Y-73993494D03*
D16*
%TO.P,J13,2,Pin_2*%
%TO.N,/INP24*%
X29324854Y-73517744D03*
%TD*%
D15*
%TO.P,J1,1,Pin_1*%
%TO.N,/INP1*%
X28147331Y-28993494D03*
D16*
%TO.P,J1,2,Pin_2*%
%TO.N,/INP0*%
X29324854Y-28517744D03*
%TD*%
D13*
%TO.P,J15,1,Pin_1*%
%TO.N,/INP29*%
X25700000Y-77500000D03*
D14*
%TO.P,J15,2,Pin_2*%
%TO.N,/INP28*%
X26970000Y-77500000D03*
%TD*%
D13*
%TO.P,J5,1,Pin_1*%
%TO.N,/INP9*%
X25700000Y-40000000D03*
D14*
%TO.P,J5,2,Pin_2*%
%TO.N,/INP8*%
X26970000Y-40000000D03*
%TD*%
D11*
%TO.P,J8,1,Pin_1*%
%TO.N,/INP14*%
X81852670Y-43506506D03*
D12*
%TO.P,J8,2,Pin_2*%
%TO.N,/INP15*%
X80675147Y-43982256D03*
%TD*%
D13*
%TO.P,J2,1,Pin_1*%
%TO.N,/INP2*%
X84300000Y-32500000D03*
D14*
%TO.P,J2,2,Pin_2*%
%TO.N,/INP3*%
X83030000Y-32500000D03*
%TD*%
D13*
%TO.P,J16,1,Pin_1*%
%TO.N,/INP30*%
X84300000Y-77500000D03*
D14*
%TO.P,J16,2,Pin_2*%
%TO.N,/INP31*%
X83030000Y-77500000D03*
%TD*%
D13*
%TO.P,J6,1,Pin_1*%
%TO.N,/INP10*%
X84300000Y-40000000D03*
D14*
%TO.P,J6,2,Pin_2*%
%TO.N,/INP11*%
X83030000Y-40000000D03*
%TD*%
D15*
%TO.P,J7,1,Pin_1*%
%TO.N,/INP13*%
X28147331Y-43993494D03*
D16*
%TO.P,J7,2,Pin_2*%
%TO.N,/INP12*%
X29324854Y-43517744D03*
%TD*%
D15*
%TO.P,J9,1,Pin_1*%
%TO.N,/INP17*%
X28147331Y-66493494D03*
D16*
%TO.P,J9,2,Pin_2*%
%TO.N,/INP16*%
X29324854Y-66017744D03*
%TD*%
D11*
%TO.P,J14,1,Pin_1*%
%TO.N,/INP26*%
X81852670Y-73506506D03*
D12*
%TO.P,J14,2,Pin_2*%
%TO.N,/INP27*%
X80675147Y-73982256D03*
%TD*%
D13*
%TO.P,J11,1,Pin_1*%
%TO.N,/INP21*%
X25700000Y-70000000D03*
D14*
%TO.P,J11,2,Pin_2*%
%TO.N,/INP20*%
X26970000Y-70000000D03*
%TD*%
D17*
%TO.N,/GND*%
X71701687Y-55504806D03*
X41816993Y-77889500D03*
X71706994Y-70499499D03*
X41750000Y-40389500D03*
X71816993Y-40389500D03*
X71706994Y-62999499D03*
X38926286Y-54189500D03*
X71706994Y-77999499D03*
X30833181Y-32089500D03*
X38721754Y-76689500D03*
X68750000Y-46750000D03*
X56727158Y-32890000D03*
X39000000Y-31689500D03*
X71706994Y-47999499D03*
X52250000Y-31950000D03*
X41816993Y-62889500D03*
X71728246Y-32978246D03*
X41816993Y-47889500D03*
X38599325Y-69194182D03*
X68707545Y-76689500D03*
X38821953Y-61687392D03*
X68940524Y-39301088D03*
X68673212Y-31689500D03*
X41816993Y-55389500D03*
X68750000Y-69189500D03*
X68850000Y-54189500D03*
X38878386Y-46682109D03*
X68646754Y-61689500D03*
X41379873Y-70810500D03*
X40899259Y-33052282D03*
X38707545Y-39189500D03*
%TD*%
D18*
%TO.N,/GND*%
X40882316Y-70312943D02*
X41379873Y-70810500D01*
X39000000Y-31689500D02*
X37474714Y-31689500D01*
X40064215Y-54650001D02*
X39386787Y-54650001D01*
X70866076Y-55504806D02*
X70011271Y-54650001D01*
X40803714Y-55389500D02*
X40064215Y-54650001D01*
X71816993Y-40389500D02*
X70750770Y-40389500D01*
X71706994Y-77999499D02*
X70860769Y-77999499D01*
X35611271Y-32499999D02*
X35140433Y-32970837D01*
X70860769Y-77999499D02*
X70011271Y-77150001D01*
X69168046Y-77150001D02*
X68707545Y-76689500D01*
X39346278Y-47150001D02*
X38878386Y-46682109D01*
X71706994Y-70499499D02*
X70860769Y-70499499D01*
X32341270Y-32850000D02*
X31580770Y-32089500D01*
X70860769Y-47999499D02*
X70011271Y-47150001D01*
X69154464Y-32170752D02*
X68673212Y-31689500D01*
X40899259Y-33052282D02*
X39996978Y-32150001D01*
X41816993Y-55389500D02*
X40803714Y-55389500D01*
X41816993Y-77889500D02*
X40898230Y-77889500D01*
X40111270Y-39750000D02*
X39268045Y-39750000D01*
X70011271Y-77150001D02*
X69168046Y-77150001D01*
X31580770Y-32089500D02*
X30833181Y-32089500D01*
X70839516Y-32978246D02*
X70032022Y-32170752D01*
X40064215Y-47150001D02*
X39346278Y-47150001D01*
X70750770Y-40389500D02*
X70055635Y-39694365D01*
X70011271Y-69650001D02*
X69210501Y-69650001D01*
X39268045Y-39750000D02*
X38707545Y-39189500D01*
X39182255Y-77150001D02*
X38721754Y-76689500D01*
X69107255Y-62150001D02*
X68646754Y-61689500D01*
X39804213Y-70312943D02*
X40882316Y-70312943D01*
X40803714Y-62889500D02*
X40064215Y-62150001D01*
X40064215Y-62150001D02*
X39284562Y-62150001D01*
X71728246Y-32978246D02*
X70839516Y-32978246D01*
X71701687Y-55504806D02*
X70866076Y-55504806D01*
X69310501Y-54650001D02*
X68850000Y-54189500D01*
X40158731Y-77150001D02*
X39182255Y-77150001D01*
X35140433Y-32970837D02*
X33029163Y-32970837D01*
X71706994Y-62999499D02*
X70913713Y-62999499D01*
X40898230Y-77889500D02*
X40158731Y-77150001D01*
X70032022Y-32170752D02*
X69154464Y-32170752D01*
X41816993Y-62889500D02*
X40803714Y-62889500D01*
X39386787Y-54650001D02*
X38926286Y-54189500D01*
X40750770Y-40389500D02*
X40111270Y-39750000D01*
X40803714Y-47889500D02*
X40064215Y-47150001D01*
X69150001Y-47150001D02*
X68750000Y-46750000D01*
X69210501Y-69650001D02*
X68750000Y-69189500D01*
X70011271Y-47150001D02*
X69150001Y-47150001D01*
X70011271Y-54650001D02*
X69310501Y-54650001D01*
X55898731Y-32890001D02*
X56727158Y-32890000D01*
X55754365Y-32745635D02*
X55898731Y-32890001D01*
X70055635Y-39694365D02*
X69333801Y-39694365D01*
X70913713Y-62999499D02*
X70064215Y-62150001D01*
X39460501Y-32150001D02*
X39000000Y-31689500D01*
X69333801Y-39694365D02*
X68940524Y-39301088D01*
X33029163Y-32970837D02*
X32908326Y-32850000D01*
X70860769Y-70499499D02*
X70011271Y-69650001D01*
X54391674Y-31950000D02*
X55187309Y-32745635D01*
X71706994Y-47999499D02*
X70860769Y-47999499D01*
X41750000Y-40389500D02*
X40750770Y-40389500D01*
X52250000Y-31950000D02*
X54391674Y-31950000D01*
X38685452Y-69194182D02*
X39804213Y-70312943D01*
X32908326Y-32850000D02*
X32341270Y-32850000D01*
X70064215Y-62150001D02*
X69107255Y-62150001D01*
X37474714Y-31689500D02*
X36664213Y-32499999D01*
X41816993Y-47889500D02*
X40803714Y-47889500D01*
X39284562Y-62150001D02*
X38821953Y-61687392D01*
X38599325Y-69194182D02*
X38685452Y-69194182D01*
X36664213Y-32499999D02*
X35611271Y-32499999D01*
X39996978Y-32150001D02*
X39460501Y-32150001D01*
X55187309Y-32745635D02*
X55754365Y-32745635D01*
D19*
%TO.N,/VIN0*%
X66640000Y-25610000D02*
X68687056Y-25610000D01*
X69994113Y-26350000D02*
X71072057Y-27427943D01*
X65120000Y-26000000D02*
X64310000Y-26810000D01*
X81250000Y-26000000D02*
X80120000Y-26000000D01*
X39610000Y-25610000D02*
X40000000Y-26000000D01*
X40000000Y-26000000D02*
X41000000Y-26000000D01*
X59140000Y-25610000D02*
X63110000Y-25610000D01*
X43750000Y-26000000D02*
X42620000Y-26000000D01*
X73750000Y-26000000D02*
X72620000Y-26000000D01*
X32000000Y-25600000D02*
X32500000Y-26100000D01*
X69390000Y-26312944D02*
X69390000Y-26350000D01*
X36640000Y-25610000D02*
X39610000Y-25610000D01*
X48110000Y-25610000D02*
X49310000Y-26810000D01*
X51250000Y-26000000D02*
X51640000Y-25610000D01*
X33600000Y-26100000D02*
X34310000Y-26810000D01*
X80120000Y-26000000D02*
X79310000Y-26810000D01*
X57620000Y-26000000D02*
X56810000Y-26810000D01*
X41000000Y-26000000D02*
X41810000Y-26810000D01*
X51250000Y-26000000D02*
X50120000Y-26000000D01*
X72620000Y-26000000D02*
X71810000Y-26810000D01*
X71072057Y-27427943D02*
X71192057Y-27427943D01*
X76187056Y-25610000D02*
X76890000Y-26312944D01*
X78257056Y-26810000D02*
X79310000Y-26810000D01*
X36250000Y-26000000D02*
X36640000Y-25610000D01*
X68687056Y-25610000D02*
X69390000Y-26312944D01*
X50120000Y-26000000D02*
X49310000Y-26810000D01*
X28750000Y-26000000D02*
X27620000Y-26000000D01*
X58750000Y-26000000D02*
X57620000Y-26000000D01*
X32500000Y-26100000D02*
X33600000Y-26100000D01*
X44140000Y-25610000D02*
X48110000Y-25610000D01*
X36250000Y-26000000D02*
X35120000Y-26000000D01*
X29150000Y-25600000D02*
X32000000Y-25600000D01*
X51640000Y-25610000D02*
X55610000Y-25610000D01*
X27620000Y-26000000D02*
X26810000Y-26810000D01*
X73750000Y-26000000D02*
X74140000Y-25610000D01*
X69390000Y-26350000D02*
X69994113Y-26350000D01*
X66250000Y-26000000D02*
X65120000Y-26000000D01*
X28750000Y-26000000D02*
X29150000Y-25600000D01*
X76890000Y-26312944D02*
X76890000Y-26350000D01*
X74140000Y-25610000D02*
X76187056Y-25610000D01*
X55610000Y-25610000D02*
X56810000Y-26810000D01*
X58750000Y-26000000D02*
X59140000Y-25610000D01*
X43750000Y-26000000D02*
X44140000Y-25610000D01*
X63110000Y-25610000D02*
X64310000Y-26810000D01*
X77797056Y-26350000D02*
X78257056Y-26810000D01*
X35120000Y-26000000D02*
X34310000Y-26810000D01*
X71192057Y-27427943D02*
X71810000Y-26810000D01*
X42620000Y-26000000D02*
X41810000Y-26810000D01*
X66250000Y-26000000D02*
X66640000Y-25610000D01*
X76890000Y-26350000D02*
X77797056Y-26350000D01*
%TO.N,/VIN1*%
X78500000Y-28750000D02*
X78550000Y-28750000D01*
X52137056Y-26810000D02*
X53190000Y-26810000D01*
X74637056Y-26810000D02*
X75690000Y-26810000D01*
X35617056Y-27200000D02*
X36747056Y-27200000D01*
X27307057Y-28010000D02*
X28117057Y-27200000D01*
X48500000Y-28750000D02*
X49240000Y-28010000D01*
X75690000Y-27390000D02*
X75690000Y-26810000D01*
X38222894Y-27550000D02*
X39800000Y-27550000D01*
X44247056Y-27200000D02*
X44637056Y-26810000D01*
X59637056Y-26810000D02*
X60690000Y-26810000D01*
X78500000Y-28750000D02*
X77300000Y-27550000D01*
X48500000Y-28750000D02*
X46560000Y-26810000D01*
X29247056Y-27200000D02*
X29647056Y-26800000D01*
X42307056Y-28010000D02*
X43117056Y-27200000D01*
X69497057Y-27550000D02*
X68750000Y-27550000D01*
X76002943Y-27550000D02*
X75926471Y-27626471D01*
X77300000Y-27550000D02*
X76002943Y-27550000D01*
X71567056Y-28750000D02*
X73117056Y-27200000D01*
X28117057Y-27200000D02*
X29247056Y-27200000D01*
X63500000Y-28750000D02*
X64240000Y-28010000D01*
X83130000Y-26750000D02*
X83190000Y-26810000D01*
X41740000Y-28010000D02*
X42307056Y-28010000D01*
X65617057Y-27200000D02*
X66747056Y-27200000D01*
X31250000Y-27370000D02*
X32500000Y-27370000D01*
X38190000Y-27517106D02*
X38222894Y-27550000D01*
X71000000Y-28750000D02*
X71567056Y-28750000D01*
X26000000Y-28750000D02*
X26740000Y-28010000D01*
X32500000Y-27750000D02*
X33500000Y-28750000D01*
X36747056Y-27200000D02*
X37137056Y-26810000D01*
X82197056Y-26750000D02*
X83130000Y-26750000D01*
X63500000Y-28750000D02*
X61560000Y-26810000D01*
X79290000Y-28010000D02*
X79807057Y-28010000D01*
X64240000Y-28010000D02*
X64807057Y-28010000D01*
X56000000Y-28750000D02*
X54060000Y-26810000D01*
X33500000Y-28750000D02*
X34240000Y-28010000D01*
X49807056Y-28010000D02*
X50617056Y-27200000D01*
X37137056Y-26810000D02*
X38190000Y-26810000D01*
X56740000Y-28010000D02*
X57307056Y-28010000D01*
X58117056Y-27200000D02*
X59247056Y-27200000D01*
X73117056Y-27200000D02*
X74247056Y-27200000D01*
X50617056Y-27200000D02*
X51747056Y-27200000D01*
X39800000Y-27550000D02*
X41000000Y-28750000D01*
X59247056Y-27200000D02*
X59637056Y-26810000D01*
X30680000Y-26800000D02*
X30690000Y-26810000D01*
X54060000Y-26810000D02*
X53190000Y-26810000D01*
X81747056Y-27200000D02*
X82197056Y-26750000D01*
X51747056Y-27200000D02*
X52137056Y-26810000D01*
X41000000Y-28750000D02*
X41740000Y-28010000D01*
X49240000Y-28010000D02*
X49807056Y-28010000D01*
X80617056Y-27200000D02*
X81747056Y-27200000D01*
X32500000Y-27370000D02*
X32500000Y-27750000D01*
X67137056Y-26810000D02*
X68190000Y-26810000D01*
X44637056Y-26810000D02*
X45690000Y-26810000D01*
X71000000Y-28750000D02*
X70697057Y-28750000D01*
X34240000Y-28010000D02*
X34807056Y-28010000D01*
X46560000Y-26810000D02*
X45690000Y-26810000D01*
X43117056Y-27200000D02*
X44247056Y-27200000D01*
X74247056Y-27200000D02*
X74637056Y-26810000D01*
X78550000Y-28750000D02*
X79290000Y-28010000D01*
X75926471Y-27626471D02*
X75690000Y-27390000D01*
X34807056Y-28010000D02*
X35617056Y-27200000D01*
X68190000Y-26990000D02*
X68190000Y-26810000D01*
X79807057Y-28010000D02*
X80617056Y-27200000D01*
X56000000Y-28750000D02*
X56740000Y-28010000D01*
X66747056Y-27200000D02*
X67137056Y-26810000D01*
X57307056Y-28010000D02*
X58117056Y-27200000D01*
X68750000Y-27550000D02*
X68190000Y-26990000D01*
X29647056Y-26800000D02*
X30680000Y-26800000D01*
X70697057Y-28750000D02*
X69497057Y-27550000D01*
X38190000Y-26810000D02*
X38190000Y-27517106D01*
X26740000Y-28010000D02*
X27307057Y-28010000D01*
X64807057Y-28010000D02*
X65617057Y-27200000D01*
X61560000Y-26810000D02*
X60690000Y-26810000D01*
X30690000Y-26810000D02*
X31250000Y-27370000D01*
%TO.N,/VIN2*%
X61500000Y-29802944D02*
X61500000Y-28750000D01*
X41070000Y-29950000D02*
X40502944Y-29950000D01*
X54000000Y-28750000D02*
X53260000Y-29490000D01*
X42200000Y-30300000D02*
X41810000Y-30690000D01*
X71777106Y-29950000D02*
X71810000Y-29982894D01*
X56810000Y-30690000D02*
X56070000Y-29950000D01*
X76500000Y-28750000D02*
X76500000Y-29250000D01*
X34310000Y-30690000D02*
X34700000Y-30300000D01*
X44062944Y-29490000D02*
X43252944Y-30300000D01*
X41810000Y-30690000D02*
X41070000Y-29950000D01*
X70200000Y-29950000D02*
X71777106Y-29950000D01*
X53260000Y-29490000D02*
X51562944Y-29490000D01*
X63440000Y-30690000D02*
X63300000Y-30550000D01*
X58252944Y-30300000D02*
X57200000Y-30300000D01*
X54302944Y-28750000D02*
X54000000Y-28750000D01*
X34700000Y-30300000D02*
X35752944Y-30300000D01*
X46890000Y-30192943D02*
X46500000Y-29802943D01*
X66562944Y-29490000D02*
X65802944Y-30250000D01*
X28200000Y-30300000D02*
X27810000Y-30690000D01*
X69000000Y-28750000D02*
X70200000Y-29950000D01*
X33742943Y-30690000D02*
X31802943Y-28750000D01*
X29341703Y-30300000D02*
X28200000Y-30300000D01*
X46500000Y-29802943D02*
X46500000Y-28750000D01*
X64310000Y-30690000D02*
X63440000Y-30690000D01*
X62247056Y-30550000D02*
X61500000Y-29802944D01*
X75760000Y-29490000D02*
X74062944Y-29490000D01*
X60760000Y-29490000D02*
X59062944Y-29490000D01*
X27810000Y-30690000D02*
X26810000Y-30690000D01*
X76500000Y-28750000D02*
X75760000Y-29490000D01*
X80802944Y-30250000D02*
X80362944Y-30690000D01*
X68260000Y-29490000D02*
X66562944Y-29490000D01*
X49700000Y-30300000D02*
X49310000Y-30690000D01*
X49310000Y-30690000D02*
X46890000Y-30690000D01*
X36562944Y-29490000D02*
X38260000Y-29490000D01*
X51562944Y-29490000D02*
X50752944Y-30300000D01*
X81932944Y-30250000D02*
X80802944Y-30250000D01*
X38260000Y-29490000D02*
X39000000Y-28750000D01*
X80362944Y-30690000D02*
X79310000Y-30690000D01*
X76500000Y-29250000D02*
X77500000Y-30250000D01*
X74062944Y-29490000D02*
X72862944Y-30690000D01*
X55502944Y-29950000D02*
X54302944Y-28750000D01*
X57200000Y-30300000D02*
X56810000Y-30690000D01*
X31500000Y-28750000D02*
X30891703Y-28750000D01*
X43252944Y-30300000D02*
X42200000Y-30300000D01*
X78690000Y-30690000D02*
X79310000Y-30690000D01*
X82692944Y-29490000D02*
X81932944Y-30250000D01*
X39302944Y-28750000D02*
X39000000Y-28750000D01*
X59062944Y-29490000D02*
X58252944Y-30300000D01*
X65802944Y-30250000D02*
X64750000Y-30250000D01*
X40502944Y-29950000D02*
X39302944Y-28750000D01*
X46890000Y-30690000D02*
X46890000Y-30192943D01*
X31802943Y-28750000D02*
X31500000Y-28750000D01*
X77500000Y-30250000D02*
X78250000Y-30250000D01*
X45760000Y-29490000D02*
X44062944Y-29490000D01*
X63300000Y-30550000D02*
X62247056Y-30550000D01*
X69000000Y-28750000D02*
X68260000Y-29490000D01*
X72862944Y-30690000D02*
X71810000Y-30690000D01*
X34310000Y-30690000D02*
X33742943Y-30690000D01*
X64750000Y-30250000D02*
X64310000Y-30690000D01*
X71810000Y-29982894D02*
X71810000Y-30690000D01*
X61500000Y-28750000D02*
X60760000Y-29490000D01*
X46500000Y-28750000D02*
X45760000Y-29490000D01*
X84000000Y-28750000D02*
X83260000Y-29490000D01*
X30891703Y-28750000D02*
X29341703Y-30300000D01*
X50752944Y-30300000D02*
X49700000Y-30300000D01*
X35752944Y-30300000D02*
X36562944Y-29490000D01*
X56070000Y-29950000D02*
X55502944Y-29950000D01*
X78250000Y-30250000D02*
X78690000Y-30690000D01*
X83260000Y-29490000D02*
X82692944Y-29490000D01*
%TO.N,/VIN3*%
X28750000Y-31500000D02*
X30000000Y-31500000D01*
X60690000Y-30690000D02*
X59560000Y-30690000D01*
X38190000Y-30690000D02*
X39545888Y-30690000D01*
X41312944Y-31890000D02*
X43360000Y-31890000D01*
X70572944Y-31150000D02*
X71312944Y-31890000D01*
X75690000Y-30690000D02*
X74560000Y-30690000D01*
X30690000Y-30690000D02*
X30730000Y-30650000D01*
X74560000Y-30690000D02*
X73750000Y-31500000D01*
X45690000Y-30690000D02*
X44560000Y-30690000D01*
X49807056Y-31890000D02*
X45690000Y-31890000D01*
X40005888Y-31150000D02*
X40572944Y-31150000D01*
X34807056Y-31890000D02*
X35197056Y-31500000D01*
X30000000Y-31500000D02*
X30690000Y-30810000D01*
X55572944Y-31150000D02*
X55005888Y-31150000D01*
X58750000Y-31500000D02*
X57697057Y-31500000D01*
X54605888Y-30750000D02*
X53250000Y-30750000D01*
X56312944Y-31890000D02*
X55572944Y-31150000D01*
X65110000Y-31890000D02*
X62942944Y-31890000D01*
X51250000Y-31500000D02*
X50197056Y-31500000D01*
X53190000Y-30690000D02*
X52060000Y-30690000D01*
X53250000Y-30750000D02*
X53190000Y-30690000D01*
X69650000Y-31150000D02*
X70572944Y-31150000D01*
X71312944Y-31890000D02*
X73360000Y-31890000D01*
X80730001Y-32019999D02*
X81250000Y-31500000D01*
X65500000Y-31500000D02*
X65110000Y-31890000D01*
X68190000Y-30690000D02*
X67060000Y-30690000D01*
X32005887Y-30650000D02*
X33245887Y-31890000D01*
X68190000Y-30690000D02*
X69190000Y-30690000D01*
X73360000Y-31890000D02*
X73750000Y-31500000D01*
X67060000Y-30690000D02*
X66250000Y-31500000D01*
X43360000Y-31890000D02*
X43750000Y-31500000D01*
X55005888Y-31150000D02*
X54605888Y-30750000D01*
X50197056Y-31500000D02*
X49807056Y-31890000D01*
X61750000Y-31750000D02*
X60690000Y-30690000D01*
X69190000Y-30690000D02*
X69650000Y-31150000D01*
X35197056Y-31500000D02*
X36250000Y-31500000D01*
X82430000Y-31450000D02*
X81300000Y-31450000D01*
X77999999Y-32019999D02*
X80730001Y-32019999D01*
X52060000Y-30690000D02*
X51250000Y-31500000D01*
X81300000Y-31450000D02*
X81250000Y-31500000D01*
X57307056Y-31890000D02*
X56312944Y-31890000D01*
X33245887Y-31890000D02*
X34807056Y-31890000D01*
X62942944Y-31890000D02*
X62802944Y-31750000D01*
X62802944Y-31750000D02*
X61750000Y-31750000D01*
X37060000Y-30690000D02*
X36250000Y-31500000D01*
X40572944Y-31150000D02*
X41312944Y-31890000D01*
X44560000Y-30690000D02*
X43750000Y-31500000D01*
X77500000Y-31520000D02*
X77999999Y-32019999D01*
X45690000Y-31890000D02*
X45690000Y-30690000D01*
X83190000Y-30690000D02*
X82430000Y-31450000D01*
X30690000Y-30810000D02*
X30690000Y-30690000D01*
X39545888Y-30690000D02*
X40005888Y-31150000D01*
X76520000Y-31520000D02*
X77500000Y-31520000D01*
X38190000Y-30690000D02*
X37060000Y-30690000D01*
X57697057Y-31500000D02*
X57307056Y-31890000D01*
X66250000Y-31500000D02*
X65500000Y-31500000D01*
X59560000Y-30690000D02*
X58750000Y-31500000D01*
X30730000Y-30650000D02*
X32005887Y-30650000D01*
X75690000Y-30690000D02*
X76520000Y-31520000D01*
%TO.N,/VIN4*%
X79250000Y-34250000D02*
X78197056Y-34250000D01*
X43750000Y-33500000D02*
X42620000Y-33500000D01*
X33094112Y-34450000D02*
X33602944Y-34450000D01*
X33602944Y-34450000D02*
X33742944Y-34310000D01*
X26810000Y-34290000D02*
X26810000Y-34310000D01*
X33742944Y-34310000D02*
X34310000Y-34310000D01*
X71810000Y-34310000D02*
X70757056Y-34310000D01*
X58750000Y-33500000D02*
X57620000Y-33500000D01*
X60192944Y-33110000D02*
X59802944Y-33500000D01*
X28750000Y-33500000D02*
X29140000Y-33110000D01*
X54327057Y-33750000D02*
X53687057Y-33110000D01*
X39547056Y-33850000D02*
X40297056Y-33850000D01*
X78197056Y-34250000D02*
X77057056Y-33110000D01*
X29140000Y-33110000D02*
X31187056Y-33110000D01*
X35500000Y-34250000D02*
X34370000Y-34250000D01*
X69427056Y-33850000D02*
X68687056Y-33110000D01*
X55454113Y-34310000D02*
X54894113Y-33750000D01*
X63257056Y-34310000D02*
X62057056Y-33110000D01*
X28750000Y-33500000D02*
X28700000Y-33550000D01*
X66640000Y-33110000D02*
X66250000Y-33500000D01*
X49310000Y-34310000D02*
X48257056Y-34310000D01*
X68687056Y-33110000D02*
X66640000Y-33110000D01*
X59802944Y-33500000D02*
X58750000Y-33500000D01*
X75192944Y-33110000D02*
X74802944Y-33500000D01*
X81250000Y-33500000D02*
X81200000Y-33550000D01*
X54894113Y-33750000D02*
X54327057Y-33750000D01*
X73750000Y-33500000D02*
X72620000Y-33500000D01*
X34370000Y-34250000D02*
X34310000Y-34310000D01*
X48257056Y-34310000D02*
X47057056Y-33110000D01*
X81200000Y-33550000D02*
X80070000Y-33550000D01*
X31927056Y-33850000D02*
X32494112Y-33850000D01*
X37632944Y-33110000D02*
X38807056Y-33110000D01*
X72620000Y-33500000D02*
X71810000Y-34310000D01*
X42620000Y-33500000D02*
X41810000Y-34310000D01*
X52692943Y-33110000D02*
X52302944Y-33500000D01*
X40757056Y-34310000D02*
X41810000Y-34310000D01*
X80070000Y-33550000D02*
X79310000Y-34310000D01*
X31187056Y-33110000D02*
X31927056Y-33850000D01*
X52302944Y-33500000D02*
X51250000Y-33500000D01*
X36250000Y-33500000D02*
X37242944Y-33500000D01*
X36250000Y-33500000D02*
X35500000Y-34250000D01*
X47057056Y-33110000D02*
X44140000Y-33110000D01*
X57620000Y-33500000D02*
X56810000Y-34310000D01*
X50120000Y-33500000D02*
X49310000Y-34310000D01*
X44140000Y-33110000D02*
X43750000Y-33500000D01*
X70757056Y-34310000D02*
X70297056Y-33850000D01*
X56810000Y-34310000D02*
X55454113Y-34310000D01*
X37242944Y-33500000D02*
X37632944Y-33110000D01*
X40297056Y-33850000D02*
X40757056Y-34310000D01*
X28700000Y-33550000D02*
X27550000Y-33550000D01*
X70297056Y-33850000D02*
X69427056Y-33850000D01*
X64310000Y-34310000D02*
X63257056Y-34310000D01*
X62057056Y-33110000D02*
X60192944Y-33110000D01*
X74802944Y-33500000D02*
X73750000Y-33500000D01*
X77057056Y-33110000D02*
X75192944Y-33110000D01*
X51250000Y-33500000D02*
X50120000Y-33500000D01*
X65120000Y-33500000D02*
X64310000Y-34310000D01*
X53687057Y-33110000D02*
X52692943Y-33110000D01*
X66250000Y-33500000D02*
X65120000Y-33500000D01*
X32494112Y-33850000D02*
X33094112Y-34450000D01*
X79310000Y-34310000D02*
X79250000Y-34250000D01*
X38807056Y-33110000D02*
X39547056Y-33850000D01*
X27550000Y-33550000D02*
X26810000Y-34290000D01*
%TO.N,/VIN5*%
X53190000Y-34310000D02*
X53190000Y-34390000D01*
X73117056Y-34700000D02*
X75300000Y-34700000D01*
X72307056Y-35510000D02*
X73117056Y-34700000D01*
X42307057Y-35510000D02*
X43117056Y-34700000D01*
X80567057Y-34750000D02*
X81697056Y-34750000D01*
X54397057Y-34950000D02*
X55697057Y-36250000D01*
X30690000Y-34310000D02*
X31430000Y-35050000D01*
X48500000Y-36250000D02*
X48500000Y-35510000D01*
X57307056Y-35510000D02*
X58117056Y-34700000D01*
X28050000Y-34767057D02*
X28050000Y-34750000D01*
X56740000Y-35510000D02*
X57307056Y-35510000D01*
X33500000Y-36250000D02*
X34240000Y-35510000D01*
X45690000Y-34310000D02*
X46560000Y-34310000D01*
X75300000Y-34700000D02*
X75690000Y-34310000D01*
X69800000Y-35050000D02*
X71000000Y-36250000D01*
X68190000Y-34310000D02*
X68930000Y-35050000D01*
X64240000Y-35510000D02*
X64807057Y-35510000D01*
X26000000Y-36250000D02*
X26150000Y-36250000D01*
X55697057Y-36250000D02*
X56000000Y-36250000D01*
X79240000Y-35510000D02*
X79807057Y-35510000D01*
X58117056Y-34700000D02*
X60300000Y-34700000D01*
X38310000Y-34310000D02*
X38450000Y-34450000D01*
X43117056Y-34700000D02*
X44247057Y-34700000D01*
X71740000Y-35510000D02*
X72307056Y-35510000D01*
X53190000Y-34390000D02*
X53750000Y-34950000D01*
X44247057Y-34700000D02*
X44637057Y-34310000D01*
X26890000Y-35510000D02*
X27307057Y-35510000D01*
X49807056Y-35510000D02*
X50617056Y-34700000D01*
X27307057Y-35510000D02*
X28050000Y-34767057D01*
X39800000Y-35050000D02*
X41000000Y-36250000D01*
X36930000Y-35510000D02*
X38130000Y-34310000D01*
X41490000Y-35510000D02*
X42307057Y-35510000D01*
X68930000Y-35050000D02*
X69800000Y-35050000D01*
X79807057Y-35510000D02*
X80567057Y-34750000D01*
X76560000Y-34310000D02*
X78500000Y-36250000D01*
X38450000Y-35050000D02*
X39800000Y-35050000D01*
X28050000Y-34750000D02*
X29197056Y-34750000D01*
X41000000Y-36250000D02*
X41000000Y-36000000D01*
X64807057Y-35510000D02*
X65617056Y-34700000D01*
X29637056Y-34310000D02*
X30690000Y-34310000D01*
X46560000Y-34310000D02*
X48500000Y-36250000D01*
X56000000Y-36250000D02*
X56740000Y-35510000D01*
X38130000Y-34310000D02*
X38190000Y-34310000D01*
X75690000Y-34310000D02*
X76560000Y-34310000D01*
X50617056Y-34700000D02*
X52800000Y-34700000D01*
X52800000Y-34700000D02*
X53190000Y-34310000D01*
X63500000Y-36250000D02*
X64240000Y-35510000D01*
X67137056Y-34310000D02*
X68190000Y-34310000D01*
X60690000Y-34310000D02*
X61560000Y-34310000D01*
X33197056Y-36250000D02*
X33500000Y-36250000D01*
X31997056Y-35050000D02*
X33197056Y-36250000D01*
X48500000Y-35510000D02*
X49807056Y-35510000D01*
X78500000Y-36250000D02*
X79240000Y-35510000D01*
X38190000Y-34310000D02*
X38310000Y-34310000D01*
X61560000Y-34310000D02*
X63500000Y-36250000D01*
X34240000Y-35510000D02*
X36930000Y-35510000D01*
X41000000Y-36000000D02*
X41490000Y-35510000D01*
X82137056Y-34310000D02*
X83190000Y-34310000D01*
X44637057Y-34310000D02*
X45690000Y-34310000D01*
X60300000Y-34700000D02*
X60690000Y-34310000D01*
X53750000Y-34950000D02*
X54397057Y-34950000D01*
X65617056Y-34700000D02*
X66747056Y-34700000D01*
X31430000Y-35050000D02*
X31997056Y-35050000D01*
X38450000Y-34450000D02*
X38450000Y-35050000D01*
X71000000Y-36250000D02*
X71740000Y-35510000D01*
X81697056Y-34750000D02*
X82137056Y-34310000D01*
X66747056Y-34700000D02*
X67137056Y-34310000D01*
X29197056Y-34750000D02*
X29637056Y-34310000D01*
X26150000Y-36250000D02*
X26890000Y-35510000D01*
%TO.N,/VIN6*%
X68260000Y-36990000D02*
X67692943Y-36990000D01*
X41810000Y-38190000D02*
X41070000Y-37450000D01*
X74382944Y-37800000D02*
X73252944Y-37800000D01*
X26850000Y-38150000D02*
X27902943Y-38150000D01*
X60192943Y-36990000D02*
X59382944Y-37800000D01*
X69000000Y-36250000D02*
X68260000Y-36990000D01*
X66882944Y-37800000D02*
X64700000Y-37800000D01*
X29490000Y-37800000D02*
X29490000Y-37692943D01*
X31500000Y-37102726D02*
X31500000Y-36250000D01*
X71070000Y-37450000D02*
X70200000Y-37450000D01*
X83260000Y-36990000D02*
X82692943Y-36990000D01*
X54390000Y-38190000D02*
X54390000Y-37692944D01*
X78391618Y-37750000D02*
X78831618Y-38190000D01*
X37692943Y-36990000D02*
X36932944Y-37750000D01*
X72862944Y-38190000D02*
X71810000Y-38190000D01*
X54000000Y-36250000D02*
X53260000Y-36990000D01*
X82692943Y-36990000D02*
X82532943Y-37150000D01*
X32587274Y-38190000D02*
X31500000Y-37102726D01*
X61890000Y-37692944D02*
X61500000Y-37302944D01*
X34310000Y-38190000D02*
X32587274Y-38190000D01*
X34750000Y-37750000D02*
X34310000Y-38190000D01*
X30760000Y-36990000D02*
X31500000Y-36250000D01*
X61500000Y-36250000D02*
X60760000Y-36990000D01*
X46890000Y-37692944D02*
X46500000Y-37302944D01*
X49310000Y-38190000D02*
X46890000Y-38190000D01*
X75192943Y-36990000D02*
X74382944Y-37800000D01*
X73252944Y-37800000D02*
X72862944Y-38190000D01*
X80362944Y-38190000D02*
X79310000Y-38190000D01*
X46890000Y-38190000D02*
X46890000Y-37692944D01*
X67692943Y-36990000D02*
X66882944Y-37800000D01*
X40200000Y-37450000D02*
X39000000Y-36250000D01*
X84000000Y-36250000D02*
X83260000Y-36990000D01*
X39000000Y-36250000D02*
X38260000Y-36990000D01*
X82350000Y-37150000D02*
X81700000Y-37800000D01*
X56810000Y-38190000D02*
X54390000Y-38190000D01*
X29490000Y-37692943D02*
X30192943Y-36990000D01*
X71810000Y-38190000D02*
X71070000Y-37450000D01*
X46500000Y-36250000D02*
X45932944Y-36250000D01*
X70200000Y-37450000D02*
X69000000Y-36250000D01*
X77500000Y-37750000D02*
X78391618Y-37750000D01*
X36932944Y-37750000D02*
X34750000Y-37750000D01*
X44432944Y-37750000D02*
X42250000Y-37750000D01*
X45932944Y-36250000D02*
X44432944Y-37750000D01*
X64310000Y-38190000D02*
X61890000Y-38190000D01*
X82532943Y-37150000D02*
X82350000Y-37150000D01*
X52692943Y-36990000D02*
X51882944Y-37800000D01*
X81700000Y-37800000D02*
X80752944Y-37800000D01*
X80752944Y-37800000D02*
X80362944Y-38190000D01*
X76500000Y-36750000D02*
X77500000Y-37750000D01*
X54390000Y-37692944D02*
X54000000Y-37302944D01*
X42250000Y-37750000D02*
X41810000Y-38190000D01*
X38260000Y-36990000D02*
X37692943Y-36990000D01*
X78831618Y-38190000D02*
X79310000Y-38190000D01*
X59382944Y-37800000D02*
X57200000Y-37800000D01*
X57200000Y-37800000D02*
X56810000Y-38190000D01*
X51882944Y-37800000D02*
X49700000Y-37800000D01*
X46500000Y-37302944D02*
X46500000Y-36250000D01*
X76500000Y-36250000D02*
X76500000Y-36750000D01*
X76500000Y-36250000D02*
X75760000Y-36990000D01*
X54000000Y-37302944D02*
X54000000Y-36250000D01*
X60760000Y-36990000D02*
X60192943Y-36990000D01*
X41070000Y-37450000D02*
X40200000Y-37450000D01*
X61500000Y-37302944D02*
X61500000Y-36250000D01*
X27902943Y-38150000D02*
X28252944Y-37800000D01*
X53260000Y-36990000D02*
X52692943Y-36990000D01*
X28252944Y-37800000D02*
X29490000Y-37800000D01*
X30192943Y-36990000D02*
X30760000Y-36990000D01*
X26810000Y-38190000D02*
X26850000Y-38150000D01*
X75760000Y-36990000D02*
X75192943Y-36990000D01*
X61890000Y-38190000D02*
X61890000Y-37692944D01*
X49700000Y-37800000D02*
X49310000Y-38190000D01*
X64700000Y-37800000D02*
X64310000Y-38190000D01*
%TO.N,/VIN7*%
X53190000Y-39390000D02*
X57307056Y-39390000D01*
X34807056Y-39390000D02*
X35197056Y-39000000D01*
X69052944Y-38000000D02*
X69702944Y-38650000D01*
X82332943Y-39000000D02*
X83142943Y-38190000D01*
X68947056Y-38000000D02*
X69052944Y-38000000D01*
X30690000Y-38310000D02*
X30690000Y-38190000D01*
X68190000Y-38190000D02*
X68757056Y-38190000D01*
X81250000Y-39000000D02*
X82332943Y-39000000D01*
X46140000Y-39390000D02*
X49807056Y-39390000D01*
X38190000Y-38190000D02*
X39242944Y-38190000D01*
X69702944Y-38650000D02*
X70572944Y-38650000D01*
X58750000Y-39000000D02*
X59880000Y-39000000D01*
X36250000Y-39000000D02*
X37380000Y-39000000D01*
X71312944Y-39390000D02*
X73360000Y-39390000D01*
X59880000Y-39000000D02*
X60690000Y-38190000D01*
X30000000Y-39000000D02*
X30690000Y-38310000D01*
X73750000Y-39000000D02*
X74880000Y-39000000D01*
X64807056Y-39390000D02*
X65197056Y-39000000D01*
X60690000Y-39190000D02*
X60890000Y-39390000D01*
X51250000Y-39000000D02*
X52380000Y-39000000D01*
X70572944Y-38650000D02*
X71312944Y-39390000D01*
X35197056Y-39000000D02*
X36250000Y-39000000D01*
X43750000Y-39000000D02*
X44880000Y-39000000D01*
X30890218Y-38190000D02*
X32090218Y-39390000D01*
X77870000Y-39390000D02*
X80860000Y-39390000D01*
X40572944Y-38650000D02*
X41312944Y-39390000D01*
X52380000Y-39000000D02*
X53190000Y-38190000D01*
X83142943Y-38190000D02*
X83190000Y-38190000D01*
X74880000Y-39000000D02*
X75690000Y-38190000D01*
X45690000Y-38190000D02*
X45690000Y-38940000D01*
X37380000Y-39000000D02*
X38190000Y-38190000D01*
X60690000Y-38190000D02*
X60690000Y-39190000D01*
X49807056Y-39390000D02*
X50197056Y-39000000D01*
X28750000Y-39000000D02*
X30000000Y-39000000D01*
X67380000Y-39000000D02*
X68190000Y-38190000D01*
X44880000Y-39000000D02*
X45690000Y-38190000D01*
X45690000Y-38940000D02*
X46140000Y-39390000D01*
X43360000Y-39390000D02*
X43750000Y-39000000D01*
X57697056Y-39000000D02*
X58750000Y-39000000D01*
X32090218Y-39390000D02*
X34807056Y-39390000D01*
X77500000Y-39020000D02*
X77870000Y-39390000D01*
X60890000Y-39390000D02*
X64807056Y-39390000D01*
X39702944Y-38650000D02*
X40572944Y-38650000D01*
X57307056Y-39390000D02*
X57697056Y-39000000D01*
X75690000Y-38190000D02*
X76520000Y-39020000D01*
X73360000Y-39390000D02*
X73750000Y-39000000D01*
X30690000Y-38190000D02*
X30890218Y-38190000D01*
X80860000Y-39390000D02*
X81250000Y-39000000D01*
X50197056Y-39000000D02*
X51250000Y-39000000D01*
X39242944Y-38190000D02*
X39702944Y-38650000D01*
X41312944Y-39390000D02*
X43360000Y-39390000D01*
X68757056Y-38190000D02*
X68947056Y-38000000D01*
X65197056Y-39000000D02*
X66250000Y-39000000D01*
X53190000Y-38190000D02*
X53190000Y-39390000D01*
X66250000Y-39000000D02*
X67380000Y-39000000D01*
X76520000Y-39020000D02*
X77500000Y-39020000D01*
%TO.N,/VIN8*%
X36250000Y-41000000D02*
X35819195Y-41430805D01*
X55610000Y-40610000D02*
X51640000Y-40610000D01*
X73750000Y-41000000D02*
X72620000Y-41000000D01*
X42392944Y-41810000D02*
X41810000Y-41810000D01*
X57620000Y-41000000D02*
X56810000Y-41810000D01*
X44140001Y-40610000D02*
X43750000Y-41000000D01*
X41810000Y-41810000D02*
X40757056Y-41810000D01*
X49860000Y-41810000D02*
X49310000Y-41810000D01*
X49310000Y-41810000D02*
X48257056Y-41810000D01*
X81250000Y-41000000D02*
X80120000Y-41000000D01*
X40260000Y-41312944D02*
X39390000Y-41312944D01*
X34689195Y-41430805D02*
X34310000Y-41810000D01*
X38687056Y-40610000D02*
X36640000Y-40610000D01*
X29249999Y-40500001D02*
X31500001Y-40500001D01*
X39390000Y-41312944D02*
X38687056Y-40610000D01*
X70297056Y-41350000D02*
X69547056Y-41350000D01*
X56810000Y-41810000D02*
X55610000Y-40610000D01*
X28750000Y-41000000D02*
X27650000Y-41000000D01*
X79310000Y-41810000D02*
X78110000Y-40610000D01*
X27650000Y-41000000D02*
X26840000Y-41810000D01*
X64310000Y-41810000D02*
X63110000Y-40610000D01*
X72620000Y-41000000D02*
X71810000Y-41810000D01*
X43202944Y-41000000D02*
X42392944Y-41810000D01*
X66640001Y-40610000D02*
X66250000Y-41000000D01*
X78110000Y-40610000D02*
X74140000Y-40610000D01*
X59140000Y-40610000D02*
X58750000Y-41000000D01*
X74140000Y-40610000D02*
X73750000Y-41000000D01*
X65120000Y-41000000D02*
X64310000Y-41810000D01*
X70595584Y-41648528D02*
X70297056Y-41350000D01*
X66250000Y-41000000D02*
X65120000Y-41000000D01*
X31500001Y-40500001D02*
X32000000Y-41000000D01*
X71810000Y-41810000D02*
X71648528Y-41648528D01*
X32500000Y-41000000D02*
X33500000Y-41000000D01*
X40757056Y-41810000D02*
X40260000Y-41312944D01*
X71648528Y-41648528D02*
X70595584Y-41648528D01*
X36640000Y-40610000D02*
X36250000Y-41000000D01*
X80120000Y-41000000D02*
X79310000Y-41810000D01*
X28750000Y-41000000D02*
X29249999Y-40500001D01*
X43750000Y-41000000D02*
X43202944Y-41000000D01*
X32000000Y-41000000D02*
X32500000Y-41000000D01*
X50670000Y-41000000D02*
X49860000Y-41810000D01*
X33500000Y-41000000D02*
X34310000Y-41810000D01*
X26840000Y-41810000D02*
X26810000Y-41810000D01*
X47057056Y-40610000D02*
X44140001Y-40610000D01*
X48257056Y-41810000D02*
X47057056Y-40610000D01*
X58750000Y-41000000D02*
X57620000Y-41000000D01*
X35819195Y-41430805D02*
X34689195Y-41430805D01*
X63110000Y-40610000D02*
X59140000Y-40610000D01*
X51640000Y-40610000D02*
X51250000Y-41000000D01*
X68807056Y-40610000D02*
X66640001Y-40610000D01*
X51250000Y-41000000D02*
X50670000Y-41000000D01*
X69547056Y-41350000D02*
X68807056Y-40610000D01*
%TO.N,/VIN9*%
X49617056Y-43750000D02*
X48500000Y-43750000D01*
X66747056Y-42200000D02*
X65617056Y-42200000D01*
X28147056Y-42200000D02*
X27337056Y-43010000D01*
X37137057Y-41810000D02*
X36316252Y-42630805D01*
X30690000Y-41810000D02*
X30300000Y-42200000D01*
X43700000Y-42200000D02*
X42150000Y-43750000D01*
X41000000Y-43750000D02*
X39800000Y-42550000D01*
X48500000Y-43750000D02*
X47100000Y-42350000D01*
X65617056Y-42200000D02*
X64807056Y-43010000D01*
X31150000Y-42270000D02*
X32500000Y-42270000D01*
X35569195Y-42630805D02*
X34450000Y-43750000D01*
X56740000Y-43010000D02*
X56000000Y-43750000D01*
X53190000Y-41810000D02*
X52137057Y-41810000D01*
X78500000Y-43000000D02*
X78651472Y-42848528D01*
X32500000Y-42750000D02*
X33500000Y-43750000D01*
X75690000Y-41810000D02*
X74637057Y-41810000D01*
X71000000Y-43000000D02*
X71000000Y-43750000D01*
X58117056Y-42200000D02*
X57307056Y-43010000D01*
X38190000Y-42517106D02*
X38190000Y-41810000D01*
X38222894Y-42550000D02*
X38190000Y-42517106D01*
X54060000Y-41810000D02*
X53190000Y-41810000D01*
X34450000Y-43750000D02*
X33500000Y-43750000D01*
X44637057Y-41810000D02*
X44247056Y-42200000D01*
X81747056Y-42200000D02*
X82137056Y-41810000D01*
X78812944Y-43010000D02*
X79807056Y-43010000D01*
X73117056Y-42200000D02*
X72307056Y-43010000D01*
X71000000Y-43750000D02*
X69800000Y-42550000D01*
X46750000Y-42350000D02*
X46210000Y-41810000D01*
X69800000Y-42550000D02*
X69050000Y-42550000D01*
X64807056Y-43010000D02*
X64240000Y-43010000D01*
X67137057Y-41810000D02*
X66747056Y-42200000D01*
X78500000Y-43750000D02*
X78500000Y-43000000D01*
X82137056Y-41810000D02*
X83190000Y-41810000D01*
X79807056Y-43010000D02*
X80617056Y-42200000D01*
X68190000Y-41810000D02*
X67137057Y-41810000D01*
X57307056Y-43010000D02*
X56740000Y-43010000D01*
X61560000Y-41810000D02*
X60690000Y-41810000D01*
X45690000Y-41810000D02*
X44637057Y-41810000D01*
X59637057Y-41810000D02*
X59247056Y-42200000D01*
X39800000Y-42550000D02*
X38222894Y-42550000D01*
X44247056Y-42200000D02*
X43700000Y-42200000D01*
X75690000Y-41810000D02*
X76560000Y-41810000D01*
X80617056Y-42200000D02*
X81747056Y-42200000D01*
X42150000Y-43750000D02*
X41000000Y-43750000D01*
X32500000Y-42270000D02*
X32500000Y-42750000D01*
X27337056Y-43010000D02*
X26740000Y-43010000D01*
X59247056Y-42200000D02*
X58117056Y-42200000D01*
X64240000Y-43010000D02*
X63500000Y-43750000D01*
X46210000Y-41810000D02*
X45690000Y-41810000D01*
X47100000Y-42350000D02*
X46750000Y-42350000D01*
X56000000Y-43750000D02*
X54060000Y-41810000D01*
X51010203Y-42356853D02*
X49617056Y-43750000D01*
X52137057Y-41810000D02*
X51590204Y-42356853D01*
X30690000Y-41810000D02*
X31150000Y-42270000D01*
X71312944Y-43010000D02*
X71151472Y-42848528D01*
X38190000Y-41810000D02*
X37137057Y-41810000D01*
X78651472Y-42848528D02*
X78812944Y-43010000D01*
X26740000Y-43010000D02*
X26000000Y-43750000D01*
X72307056Y-43010000D02*
X71312944Y-43010000D01*
X63500000Y-43750000D02*
X61560000Y-41810000D01*
X60690000Y-41810000D02*
X59637057Y-41810000D01*
X30300000Y-42200000D02*
X28147056Y-42200000D01*
X51590204Y-42356853D02*
X51010203Y-42356853D01*
X69050000Y-42550000D02*
X68310000Y-41810000D01*
X71151472Y-42848528D02*
X71000000Y-43000000D01*
X74637057Y-41810000D02*
X74247056Y-42200000D01*
X68310000Y-41810000D02*
X68190000Y-41810000D01*
X74247056Y-42200000D02*
X73117056Y-42200000D01*
X76560000Y-41810000D02*
X78500000Y-43750000D01*
X36316252Y-42630805D02*
X35569195Y-42630805D01*
%TO.N,/VIN10*%
X46358528Y-44490000D02*
X45192944Y-44490000D01*
X58252944Y-45300000D02*
X57862944Y-45690000D01*
X81882944Y-45300000D02*
X82692944Y-44490000D01*
X43252944Y-45300000D02*
X42862944Y-45690000D01*
X73252944Y-45300000D02*
X72862944Y-45690000D01*
X30192944Y-44490000D02*
X30692944Y-44490000D01*
X71070000Y-44950000D02*
X70200000Y-44950000D01*
X27862943Y-45690000D02*
X28252944Y-45300000D01*
X80752944Y-45300000D02*
X81882944Y-45300000D01*
X35752944Y-45300000D02*
X35362944Y-45690000D01*
X46890000Y-44140000D02*
X46500000Y-43750000D01*
X37692944Y-44490000D02*
X36882944Y-45300000D01*
X59382944Y-45300000D02*
X58252944Y-45300000D01*
X54000000Y-44802943D02*
X54000000Y-43750000D01*
X79310000Y-45690000D02*
X80362943Y-45690000D01*
X42862944Y-45690000D02*
X41810000Y-45690000D01*
X46500000Y-44348528D02*
X46358528Y-44490000D01*
X49220000Y-45600000D02*
X46890000Y-45600000D01*
X78371618Y-45230000D02*
X78831618Y-45690000D01*
X31890000Y-45192943D02*
X31890000Y-45690000D01*
X61500000Y-43750000D02*
X60760000Y-44490000D01*
X53260000Y-44490000D02*
X52692944Y-44490000D01*
X40502944Y-44950000D02*
X39302944Y-43750000D01*
X41400000Y-44950000D02*
X40502944Y-44950000D01*
X69000000Y-43750000D02*
X68260000Y-44490000D01*
X45192944Y-44490000D02*
X44382944Y-45300000D01*
X57862944Y-45690000D02*
X56810000Y-45690000D01*
X28252944Y-45300000D02*
X29382944Y-45300000D01*
X54000000Y-43750000D02*
X53260000Y-44490000D01*
X77500000Y-45230000D02*
X78371618Y-45230000D01*
X56810000Y-45690000D02*
X54390000Y-45690000D01*
X65362944Y-45690000D02*
X64310000Y-45690000D01*
X60760000Y-44490000D02*
X60192944Y-44490000D01*
X31500000Y-44802943D02*
X31890000Y-45192943D01*
X29382944Y-45300000D02*
X30192944Y-44490000D01*
X50302944Y-45750000D02*
X49370000Y-45750000D01*
X52692944Y-44490000D02*
X51882944Y-45300000D01*
X38260000Y-44490000D02*
X37692944Y-44490000D01*
X80362943Y-45690000D02*
X80752944Y-45300000D01*
X75760000Y-44490000D02*
X75192944Y-44490000D01*
X76500000Y-43750000D02*
X75760000Y-44490000D01*
X26810000Y-45690000D02*
X27862943Y-45690000D01*
X30692944Y-44490000D02*
X31432944Y-43750000D01*
X35362944Y-45690000D02*
X34310000Y-45690000D01*
X31500000Y-43750000D02*
X31500000Y-44802943D01*
X83260000Y-44490000D02*
X84000000Y-43750000D01*
X70200000Y-44950000D02*
X69000000Y-43750000D01*
X72862944Y-45690000D02*
X71810000Y-45690000D01*
X36882944Y-45300000D02*
X35752944Y-45300000D01*
X31890000Y-45690000D02*
X34310000Y-45690000D01*
X50752944Y-45300000D02*
X50302944Y-45750000D01*
X51882944Y-45300000D02*
X50752944Y-45300000D01*
X67692944Y-44490000D02*
X66882944Y-45300000D01*
X46500000Y-43750000D02*
X46500000Y-44348528D01*
X76500000Y-44230000D02*
X77500000Y-45230000D01*
X61890000Y-45690000D02*
X61890000Y-45192943D01*
X44382944Y-45300000D02*
X43252944Y-45300000D01*
X60192944Y-44490000D02*
X59382944Y-45300000D01*
X49310000Y-45690000D02*
X49220000Y-45600000D01*
X49370000Y-45750000D02*
X49310000Y-45690000D01*
X71810000Y-45690000D02*
X71070000Y-44950000D01*
X68260000Y-44490000D02*
X67692944Y-44490000D01*
X41810000Y-45690000D02*
X41810000Y-45360000D01*
X76500000Y-43750000D02*
X76500000Y-44230000D01*
X74382944Y-45300000D02*
X73252944Y-45300000D01*
X46890000Y-45600000D02*
X46890000Y-44140000D01*
X78831618Y-45690000D02*
X79310000Y-45690000D01*
X61500000Y-44802943D02*
X61500000Y-43750000D01*
X41810000Y-45360000D02*
X41400000Y-44950000D01*
X66882944Y-45300000D02*
X65752944Y-45300000D01*
X54390000Y-45690000D02*
X54390000Y-45192943D01*
X54390000Y-45192943D02*
X54000000Y-44802943D01*
X39302944Y-43750000D02*
X39000000Y-43750000D01*
X61890000Y-45192943D02*
X61500000Y-44802943D01*
X31432944Y-43750000D02*
X31500000Y-43750000D01*
X75192944Y-44490000D02*
X74382944Y-45300000D01*
X82692944Y-44490000D02*
X83260000Y-44490000D01*
X64310000Y-45690000D02*
X61890000Y-45690000D01*
X39000000Y-43750000D02*
X38260000Y-44490000D01*
X65752944Y-45300000D02*
X65362944Y-45690000D01*
%TO.N,/VIN11*%
X37380000Y-46500000D02*
X36250000Y-46500000D01*
X58750000Y-46500000D02*
X58250001Y-46999999D01*
X36250000Y-46500000D02*
X35860000Y-46890000D01*
X38797056Y-45650000D02*
X38757056Y-45690000D01*
X30690000Y-46440000D02*
X30690000Y-45690000D01*
X75690000Y-45690000D02*
X76500000Y-46500000D01*
X53410000Y-46910000D02*
X53190000Y-46690000D01*
X67380000Y-46500000D02*
X66250000Y-46500000D01*
X50800000Y-46950000D02*
X46950000Y-46950000D01*
X77500000Y-46500000D02*
X77890000Y-46890000D01*
X71422943Y-46999999D02*
X70572944Y-46150000D01*
X53190000Y-45690000D02*
X52380000Y-46500000D01*
X41312944Y-46890000D02*
X40572944Y-46150000D01*
X45690000Y-45690000D02*
X44880000Y-46500000D01*
X80859999Y-46890000D02*
X81250000Y-46500000D01*
X30690000Y-45690000D02*
X29880000Y-46500000D01*
X60690000Y-45690000D02*
X59880000Y-46500000D01*
X75690000Y-45690000D02*
X74880000Y-46500000D01*
X38757056Y-45690000D02*
X38190000Y-45690000D01*
X58250001Y-46999999D02*
X54499999Y-46999999D01*
X77890000Y-46890000D02*
X80859999Y-46890000D01*
X82380000Y-46500000D02*
X81250000Y-46500000D01*
X65860000Y-46890000D02*
X60890000Y-46890000D01*
X46800000Y-46800000D02*
X45690000Y-46800000D01*
X69242944Y-45690000D02*
X68190000Y-45690000D01*
X45690000Y-46800000D02*
X45690000Y-45690000D01*
X59880000Y-46500000D02*
X58750000Y-46500000D01*
X38190000Y-45690000D02*
X37380000Y-46500000D01*
X83190000Y-45690000D02*
X82380000Y-46500000D01*
X74880000Y-46500000D02*
X73750000Y-46500000D01*
X68190000Y-45690000D02*
X67380000Y-46500000D01*
X69702944Y-46150000D02*
X69242944Y-45690000D01*
X73250001Y-46999999D02*
X71422943Y-46999999D01*
X54499999Y-46999999D02*
X54410000Y-46910000D01*
X44880000Y-46500000D02*
X43750000Y-46500000D01*
X52380000Y-46500000D02*
X51250000Y-46500000D01*
X51250000Y-46500000D02*
X50800000Y-46950000D01*
X46950000Y-46950000D02*
X46800000Y-46800000D01*
X54410000Y-46910000D02*
X53410000Y-46910000D01*
X73750000Y-46500000D02*
X73250001Y-46999999D01*
X76500000Y-46500000D02*
X77500000Y-46500000D01*
X66250000Y-46500000D02*
X65860000Y-46890000D01*
X60890000Y-46890000D02*
X60690000Y-46690000D01*
X40572944Y-46150000D02*
X40005888Y-46150000D01*
X39505888Y-45650000D02*
X38797056Y-45650000D01*
X29880000Y-46500000D02*
X28750000Y-46500000D01*
X70572944Y-46150000D02*
X69702944Y-46150000D01*
X35860000Y-46890000D02*
X31140000Y-46890000D01*
X43360000Y-46890000D02*
X41312944Y-46890000D01*
X60690000Y-46690000D02*
X60690000Y-45690000D01*
X53190000Y-46690000D02*
X53190000Y-45690000D01*
X43750000Y-46500000D02*
X43360000Y-46890000D01*
X40005888Y-46150000D02*
X39505888Y-45650000D01*
X31140000Y-46890000D02*
X30690000Y-46440000D01*
%TO.N,/VIN12*%
X68807056Y-48110000D02*
X66640001Y-48110000D01*
X53912944Y-48110000D02*
X51640000Y-48110000D01*
X61502943Y-48199999D02*
X61412944Y-48110000D01*
X43750000Y-48500000D02*
X42620000Y-48500000D01*
X77057056Y-48110000D02*
X74140000Y-48110000D01*
X70697056Y-49250000D02*
X70297056Y-48850000D01*
X72620000Y-48500000D02*
X71810000Y-49310000D01*
X81022436Y-48500000D02*
X80212436Y-49310000D01*
X28750000Y-48500000D02*
X29140002Y-48110000D01*
X49310000Y-49310000D02*
X48199999Y-48199999D01*
X35120000Y-48500000D02*
X34310000Y-49310000D01*
X40810000Y-49310000D02*
X40350000Y-48850000D01*
X27620000Y-48500000D02*
X26810000Y-49310000D01*
X74140000Y-48110000D02*
X73750000Y-48500000D01*
X44250000Y-48000000D02*
X43750000Y-48500000D01*
X71810000Y-49310000D02*
X71750000Y-49250000D01*
X80212436Y-49310000D02*
X79310000Y-49310000D01*
X66640001Y-48110000D02*
X66250000Y-48500000D01*
X56810000Y-49310000D02*
X55699999Y-48199999D01*
X69547056Y-48850000D02*
X68807056Y-48110000D01*
X46502943Y-48199999D02*
X46302944Y-48000000D01*
X38687056Y-48110000D02*
X36640000Y-48110000D01*
X71750000Y-49250000D02*
X70697056Y-49250000D01*
X41810000Y-49310000D02*
X40810000Y-49310000D01*
X64310000Y-49310000D02*
X63199999Y-48199999D01*
X36250000Y-48500000D02*
X35120000Y-48500000D01*
X50120000Y-48500000D02*
X49310000Y-49310000D01*
X28750000Y-48500000D02*
X27620000Y-48500000D01*
X54002943Y-48199999D02*
X53912944Y-48110000D01*
X39390000Y-48812944D02*
X38687056Y-48110000D01*
X55699999Y-48199999D02*
X54002943Y-48199999D01*
X32110000Y-48110000D02*
X32500000Y-48500000D01*
X48199999Y-48199999D02*
X46502943Y-48199999D01*
X39390000Y-48850000D02*
X39390000Y-48812944D01*
X61412944Y-48110000D02*
X59140000Y-48110000D01*
X36640000Y-48110000D02*
X36250000Y-48500000D01*
X51250000Y-48500000D02*
X50120000Y-48500000D01*
X63199999Y-48199999D02*
X61502943Y-48199999D01*
X78257056Y-49310000D02*
X77057056Y-48110000D01*
X42620000Y-48500000D02*
X41810000Y-49310000D01*
X51640000Y-48110000D02*
X51250000Y-48500000D01*
X70297056Y-48850000D02*
X69547056Y-48850000D01*
X58750000Y-48500000D02*
X57620000Y-48500000D01*
X33500000Y-48500000D02*
X34310000Y-49310000D01*
X79310000Y-49310000D02*
X78257056Y-49310000D01*
X57620000Y-48500000D02*
X56810000Y-49310000D01*
X32500000Y-48500000D02*
X33500000Y-48500000D01*
X66250000Y-48500000D02*
X65120000Y-48500000D01*
X81250000Y-48500000D02*
X81022436Y-48500000D01*
X40350000Y-48850000D02*
X39390000Y-48850000D01*
X59140000Y-48110000D02*
X58750000Y-48500000D01*
X29140002Y-48110000D02*
X32110000Y-48110000D01*
X65120000Y-48500000D02*
X64310000Y-49310000D01*
X46302944Y-48000000D02*
X44250000Y-48000000D01*
X73750000Y-48500000D02*
X72620000Y-48500000D01*
%TO.N,/VIN13*%
X65617056Y-49700000D02*
X64807056Y-50510000D01*
X81550000Y-49925000D02*
X81550000Y-49897056D01*
X37137057Y-49310000D02*
X36747056Y-49700000D01*
X74637057Y-49310000D02*
X74247056Y-49700000D01*
X66747056Y-49700000D02*
X65617056Y-49700000D01*
X69050000Y-50050000D02*
X68310000Y-49310000D01*
X59637057Y-49310000D02*
X59247056Y-49700000D01*
X75690000Y-49310000D02*
X76560000Y-49310000D01*
X56740000Y-50510000D02*
X56000000Y-51250000D01*
X29247056Y-49700000D02*
X28117056Y-49700000D01*
X82137056Y-49310000D02*
X83190000Y-49310000D01*
X58117056Y-49700000D02*
X57307056Y-50510000D01*
X53190000Y-49310000D02*
X52137057Y-49310000D01*
X41000000Y-51197056D02*
X39852944Y-50050000D01*
X42307056Y-50510000D02*
X41740000Y-50510000D01*
X56000000Y-51250000D02*
X54149999Y-49399999D01*
X29637057Y-49310000D02*
X29247056Y-49700000D01*
X80709492Y-50510000D02*
X81294492Y-49925000D01*
X81294492Y-49925000D02*
X81550000Y-49925000D01*
X49807056Y-50510000D02*
X49240000Y-50510000D01*
X79240000Y-50510000D02*
X80709492Y-50510000D01*
X76560000Y-49310000D02*
X78500000Y-51250000D01*
X67137057Y-49310000D02*
X66747056Y-49700000D01*
X32500000Y-50250000D02*
X33500000Y-51250000D01*
X28117056Y-49700000D02*
X27307056Y-50510000D01*
X51747056Y-49700000D02*
X50617056Y-49700000D01*
X48500000Y-51250000D02*
X46649999Y-49399999D01*
X71740000Y-50510000D02*
X71000000Y-51250000D01*
X61757056Y-49809999D02*
X61189999Y-49809999D01*
X38190000Y-49310000D02*
X37137057Y-49310000D01*
X30690000Y-49310000D02*
X31150000Y-49770000D01*
X44637057Y-49310000D02*
X44247056Y-49700000D01*
X49240000Y-50510000D02*
X48500000Y-51250000D01*
X30690000Y-49310000D02*
X29637057Y-49310000D01*
X64807056Y-50510000D02*
X64240000Y-50510000D01*
X59247056Y-49700000D02*
X58117056Y-49700000D01*
X53279999Y-49399999D02*
X53190000Y-49310000D01*
X54149999Y-49399999D02*
X53279999Y-49399999D01*
X68190000Y-49310000D02*
X67137057Y-49310000D01*
X31150000Y-49770000D02*
X32500000Y-49770000D01*
X75690000Y-49310000D02*
X74637057Y-49310000D01*
X78500000Y-51250000D02*
X79240000Y-50510000D01*
X63500000Y-51250000D02*
X63197057Y-51250000D01*
X61189999Y-49809999D02*
X60690000Y-49310000D01*
X45690000Y-49310000D02*
X44637057Y-49310000D01*
X38190000Y-50017106D02*
X38190000Y-49310000D01*
X71000000Y-51250000D02*
X69800000Y-50050000D01*
X64240000Y-50510000D02*
X63500000Y-51250000D01*
X45779999Y-49399999D02*
X45690000Y-49310000D01*
X81550000Y-49897056D02*
X82137056Y-49310000D01*
X34807056Y-50510000D02*
X34240000Y-50510000D01*
X73117056Y-49700000D02*
X72307056Y-50510000D01*
X27307056Y-50510000D02*
X26740000Y-50510000D01*
X63197057Y-51250000D02*
X61757056Y-49809999D01*
X39852944Y-50050000D02*
X38222894Y-50050000D01*
X41000000Y-51250000D02*
X41000000Y-51197056D01*
X26740000Y-50510000D02*
X26000000Y-51250000D01*
X35617056Y-49700000D02*
X34807056Y-50510000D01*
X72307056Y-50510000D02*
X71740000Y-50510000D01*
X32500000Y-49770000D02*
X32500000Y-50250000D01*
X74247056Y-49700000D02*
X73117056Y-49700000D01*
X69800000Y-50050000D02*
X69050000Y-50050000D01*
X68310000Y-49310000D02*
X68190000Y-49310000D01*
X36747056Y-49700000D02*
X35617056Y-49700000D01*
X46649999Y-49399999D02*
X45779999Y-49399999D01*
X41740000Y-50510000D02*
X41000000Y-51250000D01*
X50617056Y-49700000D02*
X49807056Y-50510000D01*
X43117056Y-49700000D02*
X42307056Y-50510000D01*
X44247056Y-49700000D02*
X43117056Y-49700000D01*
X52137057Y-49310000D02*
X51747056Y-49700000D01*
X34240000Y-50510000D02*
X33500000Y-51250000D01*
X38222894Y-50050000D02*
X38190000Y-50017106D01*
X60690000Y-49310000D02*
X59637057Y-49310000D01*
X57307056Y-50510000D02*
X56740000Y-50510000D01*
%TO.N,/VIN14*%
X46890000Y-53100001D02*
X46890000Y-51640000D01*
X54390000Y-52692943D02*
X54000000Y-52302943D01*
X77500000Y-52750000D02*
X78391618Y-52750000D01*
X46890000Y-51640000D02*
X46500000Y-51250000D01*
X45760000Y-51990000D02*
X45192944Y-51990000D01*
X39000000Y-51250000D02*
X38260000Y-51990000D01*
X71810000Y-53190000D02*
X71070000Y-52450000D01*
X49310000Y-53190000D02*
X49220001Y-53100001D01*
X76500000Y-51250000D02*
X76500000Y-51750000D01*
X78831618Y-53190000D02*
X79310000Y-53190000D01*
X69000000Y-51250000D02*
X68260000Y-51990000D01*
X78391618Y-52750000D02*
X78831618Y-53190000D01*
X52692944Y-51990000D02*
X51882944Y-52800000D01*
X75760000Y-51990000D02*
X75192944Y-51990000D01*
X45192944Y-51990000D02*
X44382944Y-52800000D01*
X41070000Y-52450000D02*
X40502944Y-52450000D01*
X76500000Y-51750000D02*
X77500000Y-52750000D01*
X64700000Y-52800000D02*
X64310000Y-53190000D01*
X54000000Y-52302943D02*
X54000000Y-51250000D01*
X57802944Y-53250000D02*
X56870000Y-53250000D01*
X81882944Y-52800000D02*
X80752944Y-52800000D01*
X29382944Y-52800000D02*
X30932944Y-51250000D01*
X51882944Y-52800000D02*
X49700000Y-52800000D01*
X68260000Y-51990000D02*
X67692944Y-51990000D01*
X49220001Y-53100001D02*
X46890000Y-53100001D01*
X40502944Y-52450000D02*
X39302944Y-51250000D01*
X46500000Y-51250000D02*
X45760000Y-51990000D01*
X59382944Y-52800000D02*
X58252944Y-52800000D01*
X56810000Y-53190000D02*
X54390000Y-53190000D01*
X41810000Y-53190000D02*
X41070000Y-52450000D01*
X54000000Y-51250000D02*
X53260000Y-51990000D01*
X60760000Y-51990000D02*
X60192944Y-51990000D01*
X58252944Y-52800000D02*
X57802944Y-53250000D01*
X39302944Y-51250000D02*
X39000000Y-51250000D01*
X61500000Y-52302943D02*
X61500000Y-51250000D01*
X67692944Y-51990000D02*
X66882944Y-52800000D01*
X69302944Y-51250000D02*
X69000000Y-51250000D01*
X54390000Y-53190000D02*
X54390000Y-52692943D01*
X31500000Y-51250000D02*
X31500000Y-52302943D01*
X83260000Y-51990000D02*
X82692944Y-51990000D01*
X70502944Y-52450000D02*
X69302944Y-51250000D01*
X80352944Y-53200000D02*
X79320000Y-53200000D01*
X80752944Y-52800000D02*
X80352944Y-53200000D01*
X53260000Y-51990000D02*
X52692944Y-51990000D01*
X79320000Y-53200000D02*
X79310000Y-53190000D01*
X35752944Y-52800000D02*
X35362944Y-53190000D01*
X74382944Y-52800000D02*
X73252944Y-52800000D01*
X56870000Y-53250000D02*
X56810000Y-53190000D01*
X30932944Y-51250000D02*
X31500000Y-51250000D01*
X32387057Y-53190000D02*
X34310000Y-53190000D01*
X72752945Y-53299999D02*
X71919999Y-53299999D01*
X26810000Y-53190000D02*
X27200000Y-52800000D01*
X27200000Y-52800000D02*
X29382944Y-52800000D01*
X66882944Y-52800000D02*
X64700000Y-52800000D01*
X62387057Y-53190000D02*
X61500000Y-52302943D01*
X82692944Y-51990000D02*
X81882944Y-52800000D01*
X75192944Y-51990000D02*
X74382944Y-52800000D01*
X60192944Y-51990000D02*
X59382944Y-52800000D01*
X76500000Y-51250000D02*
X75760000Y-51990000D01*
X37692944Y-51990000D02*
X36882944Y-52800000D01*
X71919999Y-53299999D02*
X71810000Y-53190000D01*
X61500000Y-51250000D02*
X60760000Y-51990000D01*
X43252944Y-52800000D02*
X42862944Y-53190000D01*
X71070000Y-52450000D02*
X70502944Y-52450000D01*
X31500000Y-52302943D02*
X32387057Y-53190000D01*
X44382944Y-52800000D02*
X43252944Y-52800000D01*
X35362944Y-53190000D02*
X34310000Y-53190000D01*
X73252944Y-52800000D02*
X72752945Y-53299999D01*
X36882944Y-52800000D02*
X35752944Y-52800000D01*
X38260000Y-51990000D02*
X37692944Y-51990000D01*
X49700000Y-52800000D02*
X49310000Y-53190000D01*
X84000000Y-51250000D02*
X83260000Y-51990000D01*
X64310000Y-53190000D02*
X62387057Y-53190000D01*
X42862944Y-53190000D02*
X41810000Y-53190000D01*
%TO.N,/VIN15*%
X67380000Y-54000000D02*
X66250000Y-54000000D01*
X38190000Y-53190000D02*
X37380000Y-54000000D01*
X77880000Y-54400000D02*
X80850000Y-54400000D01*
X68190000Y-53190000D02*
X67380000Y-54000000D01*
X70572944Y-53650000D02*
X70005888Y-53650000D01*
X40572944Y-53650000D02*
X40005888Y-53650000D01*
X52380000Y-54000000D02*
X51250000Y-54000000D01*
X31140000Y-54390000D02*
X30690000Y-53940000D01*
X80850000Y-54400000D02*
X81250000Y-54000000D01*
X75690000Y-53190000D02*
X74880000Y-54000000D01*
X69545888Y-53190000D02*
X68190000Y-53190000D01*
X35860000Y-54390000D02*
X31140000Y-54390000D01*
X60690000Y-53190000D02*
X59880000Y-54000000D01*
X71422943Y-54499999D02*
X70572944Y-53650000D01*
X76520000Y-54020000D02*
X77500000Y-54020000D01*
X46890000Y-54390000D02*
X46800001Y-54300001D01*
X53190000Y-54410000D02*
X53190000Y-53190000D01*
X75690000Y-53190000D02*
X76520000Y-54020000D01*
X50197056Y-54000000D02*
X49807056Y-54390000D01*
X40005888Y-53650000D02*
X39545888Y-53190000D01*
X65422943Y-54000000D02*
X65032943Y-54390000D01*
X65032943Y-54390000D02*
X60690000Y-54390000D01*
X37380000Y-54000000D02*
X36250000Y-54000000D01*
X29880000Y-54000000D02*
X28750000Y-54000000D01*
X74880000Y-54000000D02*
X73750000Y-54000000D01*
X45690000Y-53190000D02*
X44880000Y-54000000D01*
X53190000Y-53190000D02*
X52380000Y-54000000D01*
X43360000Y-54390000D02*
X41312944Y-54390000D01*
X77500000Y-54020000D02*
X77880000Y-54400000D01*
X54499999Y-54499999D02*
X54410000Y-54410000D01*
X36250000Y-54000000D02*
X35860000Y-54390000D01*
X58750000Y-54000000D02*
X58250001Y-54499999D01*
X73250001Y-54499999D02*
X71422943Y-54499999D01*
X59880000Y-54000000D02*
X58750000Y-54000000D01*
X44880000Y-54000000D02*
X43750000Y-54000000D01*
X30690000Y-53190000D02*
X29880000Y-54000000D01*
X45690000Y-54300001D02*
X45690000Y-53190000D01*
X54410000Y-54410000D02*
X53190000Y-54410000D01*
X46800001Y-54300001D02*
X45690000Y-54300001D01*
X70005888Y-53650000D02*
X69545888Y-53190000D01*
X83190000Y-53190000D02*
X82380000Y-54000000D01*
X30690000Y-53940000D02*
X30690000Y-53190000D01*
X58250001Y-54499999D02*
X54499999Y-54499999D01*
X43750000Y-54000000D02*
X43360000Y-54390000D01*
X51250000Y-54000000D02*
X50197056Y-54000000D01*
X39545888Y-53190000D02*
X38190000Y-53190000D01*
X49807056Y-54390000D02*
X46890000Y-54390000D01*
X66250000Y-54000000D02*
X65422943Y-54000000D01*
X41312944Y-54390000D02*
X40572944Y-53650000D01*
X73750000Y-54000000D02*
X73250001Y-54499999D01*
X82380000Y-54000000D02*
X81250000Y-54000000D01*
X60690000Y-54390000D02*
X60690000Y-53190000D01*
%TO.N,/VIN16*%
X40810000Y-56810000D02*
X40350000Y-56350000D01*
X39427056Y-56350000D02*
X38687056Y-55610000D01*
X71242944Y-56810000D02*
X71000000Y-57052944D01*
X58750000Y-56000000D02*
X57620000Y-56000000D01*
X55699999Y-55699999D02*
X54002943Y-55699999D01*
X73750000Y-56000000D02*
X72620000Y-56000000D01*
X32500000Y-56000000D02*
X33500000Y-56000000D01*
X80120000Y-56000000D02*
X79310000Y-56810000D01*
X28750000Y-56000000D02*
X27620000Y-56000000D01*
X50120000Y-56000000D02*
X49310000Y-56810000D01*
X53912944Y-55610000D02*
X51640000Y-55610000D01*
X32110000Y-55610000D02*
X32500000Y-56000000D01*
X36640001Y-55610000D02*
X36250000Y-56000000D01*
X54002943Y-55699999D02*
X53912944Y-55610000D01*
X66640000Y-55610000D02*
X66250000Y-56000000D01*
X51640000Y-55610000D02*
X51250000Y-56000000D01*
X43750000Y-56000000D02*
X42620000Y-56000000D01*
X27620000Y-56000000D02*
X26810000Y-56810000D01*
X74140001Y-55610000D02*
X73750000Y-56000000D01*
X38687056Y-55610000D02*
X36640001Y-55610000D01*
X70297056Y-56350000D02*
X69427056Y-56350000D01*
X68687056Y-55610000D02*
X66640000Y-55610000D01*
X64310000Y-56810000D02*
X63110000Y-55610000D01*
X81250000Y-56000000D02*
X80120000Y-56000000D01*
X76754112Y-55610000D02*
X74140001Y-55610000D01*
X35120000Y-56000000D02*
X34310000Y-56810000D01*
X69427056Y-56350000D02*
X68687056Y-55610000D01*
X63110000Y-55610000D02*
X59140000Y-55610000D01*
X36250000Y-56000000D02*
X35120000Y-56000000D01*
X78290000Y-56810000D02*
X78122056Y-56977944D01*
X66250000Y-56000000D02*
X65120000Y-56000000D01*
X29140001Y-55610000D02*
X32110000Y-55610000D01*
X40350000Y-56350000D02*
X39427056Y-56350000D01*
X46302945Y-55500001D02*
X44249999Y-55500001D01*
X51250000Y-56000000D02*
X50120000Y-56000000D01*
X42620000Y-56000000D02*
X41810000Y-56810000D01*
X57620000Y-56000000D02*
X56810000Y-56810000D01*
X72620000Y-56000000D02*
X71810000Y-56810000D01*
X46502943Y-55699999D02*
X46302945Y-55500001D01*
X41810000Y-56810000D02*
X40810000Y-56810000D01*
X79310000Y-56810000D02*
X78290000Y-56810000D01*
X33500000Y-56000000D02*
X34310000Y-56810000D01*
X65120000Y-56000000D02*
X64310000Y-56810000D01*
X48199999Y-55699999D02*
X46502943Y-55699999D01*
X78122056Y-56977944D02*
X76754112Y-55610000D01*
X28750000Y-56000000D02*
X29140001Y-55610000D01*
X71000000Y-57052944D02*
X70297056Y-56350000D01*
X49310000Y-56810000D02*
X48199999Y-55699999D01*
X71810000Y-56810000D02*
X71242944Y-56810000D01*
X44249999Y-55500001D02*
X43750000Y-56000000D01*
X59140000Y-55610000D02*
X58750000Y-56000000D01*
X56810000Y-56810000D02*
X55699999Y-55699999D01*
%TO.N,/VIN17*%
X51747056Y-57200000D02*
X50617056Y-57200000D01*
X61560000Y-56810000D02*
X60690000Y-56810000D01*
X34240000Y-58010000D02*
X33500000Y-58750000D01*
X64807056Y-58010000D02*
X64240000Y-58010000D01*
X34807056Y-58010000D02*
X34240000Y-58010000D01*
X67137057Y-56810000D02*
X66747056Y-57200000D01*
X75690000Y-56810000D02*
X76210000Y-56810000D01*
X65617056Y-57200000D02*
X64807056Y-58010000D01*
X79240000Y-58010000D02*
X79807057Y-58010000D01*
X39800000Y-57550000D02*
X38222894Y-57550000D01*
X53279999Y-56899999D02*
X53190000Y-56810000D01*
X76210000Y-56810000D02*
X76950000Y-57550000D01*
X71000000Y-58750000D02*
X69800000Y-57550000D01*
X71740000Y-58010000D02*
X71000000Y-58750000D01*
X81747056Y-57200000D02*
X82137056Y-56810000D01*
X49807056Y-58010000D02*
X48812944Y-58010000D01*
X31150000Y-57270000D02*
X32500000Y-57270000D01*
X80617056Y-57200000D02*
X81747056Y-57200000D01*
X38190000Y-56810000D02*
X37137057Y-56810000D01*
X43117056Y-57200000D02*
X42307056Y-58010000D01*
X48651472Y-57848528D02*
X48500000Y-58000000D01*
X37137057Y-56810000D02*
X36747056Y-57200000D01*
X48500000Y-58750000D02*
X48197057Y-58750000D01*
X68190000Y-56810000D02*
X67137057Y-56810000D01*
X82137056Y-56810000D02*
X83190000Y-56810000D01*
X56000000Y-58750000D02*
X54149999Y-56899999D01*
X53190000Y-56810000D02*
X52137057Y-56810000D01*
X57307056Y-58010000D02*
X56740000Y-58010000D01*
X54149999Y-56899999D02*
X53279999Y-56899999D01*
X46757056Y-57309999D02*
X46189999Y-57309999D01*
X48812944Y-58010000D02*
X48651472Y-57848528D01*
X56740000Y-58010000D02*
X56000000Y-58750000D01*
X32500000Y-57270000D02*
X32500000Y-57750000D01*
X50617056Y-57200000D02*
X49807056Y-58010000D01*
X66747056Y-57200000D02*
X65617056Y-57200000D01*
X73117056Y-57200000D02*
X72307056Y-58010000D01*
X59637057Y-56810000D02*
X59247056Y-57200000D01*
X69800000Y-57550000D02*
X68930000Y-57550000D01*
X41000000Y-58750000D02*
X39800000Y-57550000D01*
X38222894Y-57550000D02*
X38190000Y-57517106D01*
X63500000Y-58750000D02*
X61560000Y-56810000D01*
X29247056Y-57200000D02*
X28117056Y-57200000D01*
X38190000Y-57517106D02*
X38190000Y-56810000D01*
X68930000Y-57550000D02*
X68190000Y-56810000D01*
X76997056Y-57550000D02*
X78197056Y-58750000D01*
X78197056Y-58750000D02*
X78500000Y-58750000D01*
X74247056Y-57200000D02*
X73117056Y-57200000D01*
X42307056Y-58010000D02*
X41740000Y-58010000D01*
X28117056Y-57200000D02*
X27307056Y-58010000D01*
X46189999Y-57309999D02*
X45690000Y-56810000D01*
X27307056Y-58010000D02*
X26740000Y-58010000D01*
X60690000Y-56810000D02*
X59637057Y-56810000D01*
X35617056Y-57200000D02*
X34807056Y-58010000D01*
X72307056Y-58010000D02*
X71740000Y-58010000D01*
X48197057Y-58750000D02*
X46757056Y-57309999D01*
X64240000Y-58010000D02*
X63500000Y-58750000D01*
X36747056Y-57200000D02*
X35617056Y-57200000D01*
X30690000Y-56810000D02*
X29637057Y-56810000D01*
X32500000Y-57750000D02*
X33500000Y-58750000D01*
X78500000Y-58750000D02*
X79240000Y-58010000D01*
X44247056Y-57200000D02*
X43117056Y-57200000D01*
X74637057Y-56810000D02*
X74247056Y-57200000D01*
X76950000Y-57550000D02*
X76997056Y-57550000D01*
X75690000Y-56810000D02*
X74637057Y-56810000D01*
X58117056Y-57200000D02*
X57307056Y-58010000D01*
X48500000Y-58000000D02*
X48500000Y-58750000D01*
X30690000Y-56810000D02*
X31150000Y-57270000D01*
X29637057Y-56810000D02*
X29247056Y-57200000D01*
X41740000Y-58010000D02*
X41000000Y-58750000D01*
X59247056Y-57200000D02*
X58117056Y-57200000D01*
X45690000Y-56810000D02*
X44637057Y-56810000D01*
X44637057Y-56810000D02*
X44247056Y-57200000D01*
X52137057Y-56810000D02*
X51747056Y-57200000D01*
X26740000Y-58010000D02*
X26000000Y-58750000D01*
X79807057Y-58010000D02*
X80617056Y-57200000D01*
%TO.N,/VIN18*%
X41810000Y-60690000D02*
X41810000Y-60510000D01*
X50752944Y-60300000D02*
X50362944Y-60690000D01*
X84000000Y-58750000D02*
X83848528Y-58750000D01*
X56870000Y-60750000D02*
X56810000Y-60690000D01*
X29382944Y-60300000D02*
X30932944Y-58750000D01*
X54390000Y-60192944D02*
X54000000Y-59802944D01*
X58252944Y-60300000D02*
X57802944Y-60750000D01*
X38260000Y-59490000D02*
X37692944Y-59490000D01*
X49310000Y-60690000D02*
X47387057Y-60690000D01*
X80362944Y-60690000D02*
X79310000Y-60690000D01*
X81882944Y-60300000D02*
X80752944Y-60300000D01*
X73252944Y-60300000D02*
X72862944Y-60690000D01*
X78371618Y-60230000D02*
X78831618Y-60690000D01*
X41810000Y-60510000D02*
X41250000Y-59950000D01*
X61890000Y-60192943D02*
X61500000Y-59802943D01*
X76500000Y-59230000D02*
X77500000Y-60230000D01*
X46500000Y-58750000D02*
X45760000Y-59490000D01*
X30932944Y-58750000D02*
X31500000Y-58750000D01*
X26810000Y-60690000D02*
X27200000Y-60300000D01*
X64310000Y-60690000D02*
X61890000Y-60690000D01*
X74382944Y-60300000D02*
X73252944Y-60300000D01*
X69000000Y-58750000D02*
X68260000Y-59490000D01*
X41250000Y-59950000D02*
X40502944Y-59950000D01*
X56810000Y-60690000D02*
X54390000Y-60690000D01*
X72862944Y-60690000D02*
X71810000Y-60690000D01*
X61500000Y-59802943D02*
X61500000Y-58750000D01*
X31500000Y-58750000D02*
X31500000Y-59802943D01*
X53260000Y-59490000D02*
X52692944Y-59490000D01*
X57802944Y-60750000D02*
X56870000Y-60750000D01*
X60192943Y-59490000D02*
X59382943Y-60300000D01*
X66882944Y-60300000D02*
X65752944Y-60300000D01*
X54390000Y-60690000D02*
X54390000Y-60192944D01*
X31500000Y-59802943D02*
X31890000Y-60192943D01*
X59382943Y-60300000D02*
X58252944Y-60300000D01*
X68260000Y-59490000D02*
X67692944Y-59490000D01*
X80752944Y-60300000D02*
X80362944Y-60690000D01*
X51882944Y-60300000D02*
X50752944Y-60300000D01*
X54000000Y-59802944D02*
X54000000Y-58750000D01*
X37692944Y-59490000D02*
X36882944Y-60300000D01*
X71810000Y-60690000D02*
X71070000Y-59950000D01*
X39000000Y-58750000D02*
X38260000Y-59490000D01*
X71070000Y-59950000D02*
X70200000Y-59950000D01*
X44382944Y-60300000D02*
X43252944Y-60300000D01*
X45192944Y-59490000D02*
X44382944Y-60300000D01*
X67692944Y-59490000D02*
X66882944Y-60300000D01*
X45760000Y-59490000D02*
X45192944Y-59490000D01*
X61500000Y-58750000D02*
X61348528Y-58750000D01*
X78831618Y-60690000D02*
X79310000Y-60690000D01*
X46500000Y-59802943D02*
X46500000Y-58750000D01*
X77500000Y-60230000D02*
X78371618Y-60230000D01*
X43252944Y-60300000D02*
X42862944Y-60690000D01*
X75192944Y-59490000D02*
X74382944Y-60300000D01*
X52692944Y-59490000D02*
X51882944Y-60300000D01*
X47387057Y-60690000D02*
X46500000Y-59802943D01*
X31890000Y-60192943D02*
X31890000Y-60690000D01*
X42862944Y-60690000D02*
X41810000Y-60690000D01*
X76500000Y-58750000D02*
X76271447Y-58750000D01*
X54000000Y-58750000D02*
X53260000Y-59490000D01*
X36882944Y-60300000D02*
X35752944Y-60300000D01*
X35362944Y-60690000D02*
X34310000Y-60690000D01*
X76271447Y-58750000D02*
X75531447Y-59490000D01*
X83108528Y-59490000D02*
X82692944Y-59490000D01*
X27200000Y-60300000D02*
X29382944Y-60300000D01*
X60608528Y-59490000D02*
X60192943Y-59490000D01*
X35752944Y-60300000D02*
X35362944Y-60690000D01*
X65362944Y-60690000D02*
X64310000Y-60690000D01*
X40502944Y-59950000D02*
X39302944Y-58750000D01*
X61890000Y-60690000D02*
X61890000Y-60192943D01*
X61348528Y-58750000D02*
X60608528Y-59490000D01*
X70200000Y-59950000D02*
X69000000Y-58750000D01*
X65752944Y-60300000D02*
X65362944Y-60690000D01*
X50362944Y-60690000D02*
X49310000Y-60690000D01*
X31890000Y-60690000D02*
X34310000Y-60690000D01*
X39302944Y-58750000D02*
X39000000Y-58750000D01*
X82692944Y-59490000D02*
X81882944Y-60300000D01*
X76500000Y-58750000D02*
X76500000Y-59230000D01*
X75531447Y-59490000D02*
X75192944Y-59490000D01*
X83848528Y-58750000D02*
X83108528Y-59490000D01*
%TO.N,/VIN19*%
X43360000Y-61890000D02*
X41312944Y-61890000D01*
X73250001Y-61999999D02*
X71422943Y-61999999D01*
X38190000Y-60690000D02*
X37380000Y-61500000D01*
X30690000Y-61440000D02*
X30690000Y-60690000D01*
X60690000Y-60690000D02*
X60690000Y-61890000D01*
X53660000Y-61910000D02*
X53190000Y-61440000D01*
X43750000Y-61500000D02*
X43360000Y-61890000D01*
X54410000Y-61910000D02*
X53660000Y-61910000D01*
X83190000Y-60690000D02*
X82380000Y-61500000D01*
X77500000Y-61500000D02*
X77890000Y-61890000D01*
X41312944Y-61890000D02*
X40610000Y-61187056D01*
X65860000Y-61890000D02*
X66250000Y-61500000D01*
X75690000Y-60690000D02*
X74880000Y-61500000D01*
X74880000Y-61500000D02*
X73750000Y-61500000D01*
X31140000Y-61890000D02*
X30690000Y-61440000D01*
X69242944Y-60690000D02*
X68190000Y-60690000D01*
X70572944Y-61150000D02*
X69702944Y-61150000D01*
X67380000Y-61500000D02*
X66250000Y-61500000D01*
X53190000Y-61440000D02*
X53190000Y-60690000D01*
X60690000Y-61890000D02*
X65860000Y-61890000D01*
X54499999Y-61999999D02*
X54410000Y-61910000D01*
X40005888Y-61150000D02*
X39505888Y-60650000D01*
X36250000Y-61500000D02*
X35860000Y-61890000D01*
X59880000Y-61500000D02*
X60690000Y-60690000D01*
X37380000Y-61500000D02*
X36250000Y-61500000D01*
X58750000Y-61500000D02*
X59880000Y-61500000D01*
X75690000Y-60690000D02*
X76500000Y-61500000D01*
X77890000Y-61890000D02*
X80860000Y-61890000D01*
X82380000Y-61500000D02*
X81250000Y-61500000D01*
X45690000Y-60690000D02*
X45690000Y-61890000D01*
X44880000Y-61500000D02*
X43750000Y-61500000D01*
X38797056Y-60650000D02*
X38757056Y-60690000D01*
X45690000Y-60690000D02*
X44880000Y-61500000D01*
X50860000Y-61890000D02*
X51250000Y-61500000D01*
X52380000Y-61500000D02*
X51250000Y-61500000D01*
X39505888Y-60650000D02*
X38797056Y-60650000D01*
X80860000Y-61890000D02*
X81250000Y-61500000D01*
X45690000Y-61890000D02*
X50860000Y-61890000D01*
X29880000Y-61500000D02*
X28750000Y-61500000D01*
X35860000Y-61890000D02*
X31140000Y-61890000D01*
X58250001Y-61999999D02*
X54499999Y-61999999D01*
X30690000Y-60690000D02*
X29880000Y-61500000D01*
X38757056Y-60690000D02*
X38190000Y-60690000D01*
X76500000Y-61500000D02*
X77500000Y-61500000D01*
X40610000Y-61150000D02*
X40005888Y-61150000D01*
X58750000Y-61500000D02*
X58250001Y-61999999D01*
X69702944Y-61150000D02*
X69242944Y-60690000D01*
X53190000Y-60690000D02*
X52380000Y-61500000D01*
X71422943Y-61999999D02*
X70572944Y-61150000D01*
X73750000Y-61500000D02*
X73250001Y-61999999D01*
X40610000Y-61187056D02*
X40610000Y-61150000D01*
X68190000Y-60690000D02*
X67380000Y-61500000D01*
%TO.N,/VIN20*%
X56810000Y-64310000D02*
X55699999Y-63199999D01*
X72620000Y-63500000D02*
X71810000Y-64310000D01*
X74140000Y-63110000D02*
X73750000Y-63500000D01*
X63110000Y-63110000D02*
X59140000Y-63110000D01*
X36640001Y-63110000D02*
X36250000Y-63500000D01*
X79310000Y-64310000D02*
X78257056Y-64310000D01*
X73750000Y-63500000D02*
X72620000Y-63500000D01*
X33500000Y-63500000D02*
X34310000Y-64310000D01*
X28750000Y-63500000D02*
X29140001Y-63110000D01*
X66250000Y-63500000D02*
X65120000Y-63500000D01*
X40810000Y-64310000D02*
X40350000Y-63850000D01*
X68667056Y-63090000D02*
X66660000Y-63090000D01*
X59140000Y-63110000D02*
X58750000Y-63500000D01*
X41810000Y-64310000D02*
X40810000Y-64310000D01*
X70350000Y-63850000D02*
X69427056Y-63850000D01*
X38687056Y-63110000D02*
X36640001Y-63110000D01*
X58750000Y-63500000D02*
X57620000Y-63500000D01*
X35120000Y-63500000D02*
X34310000Y-64310000D01*
X42620000Y-63500000D02*
X41810000Y-64310000D01*
X28750000Y-63500000D02*
X27620000Y-63500000D01*
X79390000Y-64310000D02*
X79310000Y-64310000D01*
X49310000Y-64310000D02*
X48110000Y-63110000D01*
X70810000Y-64310000D02*
X70350000Y-63850000D01*
X80200000Y-63500000D02*
X79390000Y-64310000D01*
X39390000Y-63850000D02*
X39390000Y-63812943D01*
X53912944Y-63110000D02*
X51640000Y-63110000D01*
X40350000Y-63850000D02*
X39390000Y-63850000D01*
X32110000Y-63110000D02*
X32500000Y-63500000D01*
X29140001Y-63110000D02*
X32110000Y-63110000D01*
X69427056Y-63850000D02*
X68667056Y-63090000D01*
X71810000Y-64310000D02*
X70810000Y-64310000D01*
X44140000Y-63110000D02*
X43750000Y-63500000D01*
X39390000Y-63812943D02*
X38687056Y-63110000D01*
X78257056Y-64310000D02*
X77057056Y-63110000D01*
X51250000Y-63500000D02*
X50120000Y-63500000D01*
X55699999Y-63199999D02*
X54002943Y-63199999D01*
X27620000Y-63500000D02*
X26810000Y-64310000D01*
X32500000Y-63500000D02*
X33500000Y-63500000D01*
X48110000Y-63110000D02*
X44140000Y-63110000D01*
X36250000Y-63500000D02*
X35120000Y-63500000D01*
X50120000Y-63500000D02*
X49310000Y-64310000D01*
X43750000Y-63500000D02*
X42620000Y-63500000D01*
X81250000Y-63500000D02*
X80200000Y-63500000D01*
X51640000Y-63110000D02*
X51250000Y-63500000D01*
X77057056Y-63110000D02*
X74140000Y-63110000D01*
X54002943Y-63199999D02*
X53912944Y-63110000D01*
X66660000Y-63090000D02*
X66250000Y-63500000D01*
X57620000Y-63500000D02*
X56810000Y-64310000D01*
X64310000Y-64310000D02*
X63110000Y-63110000D01*
X65120000Y-63500000D02*
X64310000Y-64310000D01*
%TO.N,/VIN21*%
X63500000Y-66250000D02*
X61560000Y-64310000D01*
X78500000Y-66250000D02*
X78500000Y-66150000D01*
X59247056Y-64700000D02*
X58117056Y-64700000D01*
X31150000Y-64770000D02*
X32500000Y-64770000D01*
X42307056Y-65510000D02*
X41740000Y-65510000D01*
X38190000Y-65017106D02*
X38190000Y-64310000D01*
X76560000Y-64310000D02*
X78500000Y-66250000D01*
X71740000Y-65510000D02*
X71000000Y-66250000D01*
X72307056Y-65510000D02*
X71740000Y-65510000D01*
X54800000Y-65050000D02*
X53930000Y-65050000D01*
X34807056Y-65510000D02*
X34240000Y-65510000D01*
X46560000Y-64310000D02*
X45690000Y-64310000D01*
X69800000Y-65050000D02*
X68930000Y-65050000D01*
X57307056Y-65510000D02*
X56740000Y-65510000D01*
X80697056Y-64700000D02*
X81747056Y-64700000D01*
X49240000Y-65510000D02*
X48500000Y-66250000D01*
X61560000Y-64310000D02*
X60690000Y-64310000D01*
X50617056Y-64700000D02*
X49807056Y-65510000D01*
X66747056Y-64700000D02*
X65617056Y-64700000D01*
X41000000Y-66250000D02*
X39800000Y-65050000D01*
X30690000Y-64310000D02*
X29637057Y-64310000D01*
X64807056Y-65510000D02*
X64240000Y-65510000D01*
X74637057Y-64310000D02*
X74247056Y-64700000D01*
X38190000Y-64310000D02*
X37137057Y-64310000D01*
X65617056Y-64700000D02*
X64807056Y-65510000D01*
X75690000Y-64310000D02*
X74637057Y-64310000D01*
X44637057Y-64310000D02*
X44247056Y-64700000D01*
X32500000Y-64770000D02*
X32500000Y-65250000D01*
X71000000Y-66250000D02*
X69800000Y-65050000D01*
X43117056Y-64700000D02*
X42307056Y-65510000D01*
X38222894Y-65050000D02*
X38190000Y-65017106D01*
X51747056Y-64700000D02*
X50617056Y-64700000D01*
X82137056Y-64310000D02*
X83190000Y-64310000D01*
X52137057Y-64310000D02*
X51747056Y-64700000D01*
X36747056Y-64700000D02*
X35617056Y-64700000D01*
X41740000Y-65510000D02*
X41000000Y-66250000D01*
X29637057Y-64310000D02*
X29247056Y-64700000D01*
X37137057Y-64310000D02*
X36747056Y-64700000D01*
X28117056Y-64700000D02*
X27307056Y-65510000D01*
X48500000Y-66250000D02*
X46560000Y-64310000D01*
X45690000Y-64310000D02*
X44637057Y-64310000D01*
X53930000Y-65050000D02*
X53190000Y-64310000D01*
X39800000Y-65050000D02*
X38222894Y-65050000D01*
X68190000Y-64310000D02*
X67137057Y-64310000D01*
X26740000Y-65510000D02*
X26000000Y-66250000D01*
X67137057Y-64310000D02*
X66747056Y-64700000D01*
X68930000Y-65050000D02*
X68190000Y-64310000D01*
X35617056Y-64700000D02*
X34807056Y-65510000D01*
X56000000Y-66250000D02*
X54800000Y-65050000D01*
X58117056Y-64700000D02*
X57307056Y-65510000D01*
X49807056Y-65510000D02*
X49240000Y-65510000D01*
X34240000Y-65510000D02*
X33500000Y-66250000D01*
X73117056Y-64700000D02*
X72307056Y-65510000D01*
X60690000Y-64310000D02*
X59637057Y-64310000D01*
X30690000Y-64310000D02*
X31150000Y-64770000D01*
X75690000Y-64310000D02*
X76560000Y-64310000D01*
X44247056Y-64700000D02*
X43117056Y-64700000D01*
X53190000Y-64310000D02*
X52137057Y-64310000D01*
X79887056Y-65510000D02*
X80697056Y-64700000D01*
X74247056Y-64700000D02*
X73117056Y-64700000D01*
X59637057Y-64310000D02*
X59247056Y-64700000D01*
X64240000Y-65510000D02*
X63500000Y-66250000D01*
X79140000Y-65510000D02*
X79887056Y-65510000D01*
X29247056Y-64700000D02*
X28117056Y-64700000D01*
X32500000Y-65250000D02*
X33500000Y-66250000D01*
X81747056Y-64700000D02*
X82137056Y-64310000D01*
X56740000Y-65510000D02*
X56000000Y-66250000D01*
X27307056Y-65510000D02*
X26740000Y-65510000D01*
X78500000Y-66150000D02*
X79140000Y-65510000D01*
%TO.N,/VIN22*%
X52692944Y-66990000D02*
X51882944Y-67800000D01*
X75192944Y-66990000D02*
X74382944Y-67800000D01*
X41250000Y-67450000D02*
X40502943Y-67450000D01*
X44382944Y-67800000D02*
X43252944Y-67800000D01*
X33014214Y-67900000D02*
X34020000Y-67900000D01*
X79310000Y-68190000D02*
X79809999Y-67690001D01*
X68260000Y-66990000D02*
X67692944Y-66990000D01*
X46890000Y-68190000D02*
X46890000Y-67692944D01*
X59382944Y-67800000D02*
X58252944Y-67800000D01*
X61890000Y-68100001D02*
X61890000Y-66640000D01*
X30932944Y-66250000D02*
X31500000Y-66250000D01*
X57802944Y-68250000D02*
X56870000Y-68250000D01*
X70200000Y-67450000D02*
X69000000Y-66250000D01*
X78831618Y-68190000D02*
X79310000Y-68190000D01*
X61890000Y-66640000D02*
X61500000Y-66250000D01*
X54000000Y-67302943D02*
X54000000Y-66250000D01*
X65362944Y-68190000D02*
X64310000Y-68190000D01*
X79809999Y-67690001D02*
X81945886Y-67690001D01*
X76500000Y-66750000D02*
X77500000Y-67750000D01*
X31500000Y-67303650D02*
X32141068Y-67944718D01*
X60608528Y-66990000D02*
X60192944Y-66990000D01*
X42862944Y-68190000D02*
X41810000Y-68190000D01*
X41810000Y-68190000D02*
X41810000Y-68010000D01*
X32969496Y-67944718D02*
X33014214Y-67900000D01*
X61348528Y-66250000D02*
X60608528Y-66990000D01*
X41810000Y-68010000D02*
X41250000Y-67450000D01*
X75608528Y-66990000D02*
X75192944Y-66990000D01*
X69000000Y-66250000D02*
X68260000Y-66990000D01*
X54947057Y-68250000D02*
X54000000Y-67302943D01*
X26810000Y-68190000D02*
X27862944Y-68190000D01*
X73252944Y-67800000D02*
X72862944Y-68190000D01*
X58252944Y-67800000D02*
X57802944Y-68250000D01*
X60192944Y-66990000D02*
X59382944Y-67800000D01*
X39302943Y-66250000D02*
X39000000Y-66250000D01*
X81945886Y-67690001D02*
X82645887Y-66990000D01*
X83260000Y-66990000D02*
X84000000Y-66250000D01*
X27862944Y-68190000D02*
X28252944Y-67800000D01*
X45192944Y-66990000D02*
X44382944Y-67800000D01*
X36002943Y-67550000D02*
X35652943Y-67900000D01*
X28252944Y-67800000D02*
X29382944Y-67800000D01*
X82645887Y-66990000D02*
X83260000Y-66990000D01*
X78391618Y-67750000D02*
X78831618Y-68190000D01*
X45760000Y-66990000D02*
X45192944Y-66990000D01*
X76348528Y-66250000D02*
X75608528Y-66990000D01*
X56810000Y-68190000D02*
X56750000Y-68250000D01*
X39000000Y-66250000D02*
X38292894Y-66250000D01*
X46500000Y-67302944D02*
X46500000Y-66250000D01*
X50752944Y-67800000D02*
X50362944Y-68190000D01*
X31500000Y-66250000D02*
X31500000Y-67303650D01*
X29382944Y-67800000D02*
X30932944Y-66250000D01*
X43252944Y-67800000D02*
X42862944Y-68190000D01*
X74382944Y-67800000D02*
X73252944Y-67800000D01*
X34020000Y-67900000D02*
X34310000Y-68190000D01*
X76500000Y-66250000D02*
X76348528Y-66250000D01*
X40502943Y-67450000D02*
X39302943Y-66250000D01*
X36992894Y-67550000D02*
X36002943Y-67550000D01*
X32141068Y-67944718D02*
X32969496Y-67944718D01*
X35652943Y-67900000D02*
X34600000Y-67900000D01*
X67692944Y-66990000D02*
X66882944Y-67800000D01*
X46890000Y-67692944D02*
X46500000Y-67302944D01*
X72862944Y-68190000D02*
X71810000Y-68190000D01*
X50362944Y-68190000D02*
X49310000Y-68190000D01*
X65752944Y-67800000D02*
X65362944Y-68190000D01*
X49310000Y-68190000D02*
X46890000Y-68190000D01*
X46500000Y-66250000D02*
X45760000Y-66990000D01*
X66882944Y-67800000D02*
X65752944Y-67800000D01*
X71070000Y-67450000D02*
X70200000Y-67450000D01*
X34600000Y-67900000D02*
X34310000Y-68190000D01*
X56750000Y-68250000D02*
X54947057Y-68250000D01*
X51882944Y-67800000D02*
X50752944Y-67800000D01*
X38292894Y-66250000D02*
X36992894Y-67550000D01*
X64220001Y-68100001D02*
X61890000Y-68100001D01*
X77500000Y-67750000D02*
X78391618Y-67750000D01*
X64310000Y-68190000D02*
X64220001Y-68100001D01*
X54000000Y-66250000D02*
X53260000Y-66990000D01*
X56870000Y-68250000D02*
X56810000Y-68190000D01*
X71810000Y-68190000D02*
X71070000Y-67450000D01*
X53260000Y-66990000D02*
X52692944Y-66990000D01*
X76500000Y-66250000D02*
X76500000Y-66750000D01*
X61500000Y-66250000D02*
X61348528Y-66250000D01*
%TO.N,/VIN23*%
X31644718Y-69144718D02*
X30690000Y-68190000D01*
X73250001Y-69499999D02*
X71422943Y-69499999D01*
X40572944Y-68650000D02*
X40005887Y-68650000D01*
X76242943Y-68190000D02*
X77072943Y-69020000D01*
X83142943Y-68190000D02*
X83190000Y-68190000D01*
X60690000Y-68190000D02*
X59880000Y-69000000D01*
X77500000Y-69020000D02*
X77870000Y-69390000D01*
X67380000Y-69000000D02*
X66250000Y-69000000D01*
X45690000Y-68190000D02*
X44880000Y-69000000D01*
X70572944Y-68650000D02*
X69702944Y-68650000D01*
X81250000Y-69000000D02*
X82332943Y-69000000D01*
X39355887Y-68000000D02*
X38380000Y-68000000D01*
X69702944Y-68650000D02*
X69242944Y-68190000D01*
X58750000Y-69000000D02*
X58300000Y-69450000D01*
X60690000Y-69190000D02*
X60690000Y-68190000D01*
X75690000Y-68190000D02*
X76242943Y-68190000D01*
X60800001Y-69300001D02*
X60690000Y-69190000D01*
X43360000Y-69390000D02*
X41312944Y-69390000D01*
X74880000Y-69000000D02*
X73750000Y-69000000D01*
X54300001Y-69300001D02*
X53550001Y-69300001D01*
X66250000Y-69000000D02*
X65750001Y-69499999D01*
X69242944Y-68190000D02*
X68190000Y-68190000D01*
X36149999Y-69100000D02*
X35097057Y-69100000D01*
X54800000Y-69450000D02*
X54750001Y-69499999D01*
X43750000Y-69000000D02*
X43360000Y-69390000D01*
X59880000Y-69000000D02*
X58750000Y-69000000D01*
X45690000Y-69390000D02*
X45690000Y-68190000D01*
X61800001Y-69300001D02*
X60800001Y-69300001D01*
X41312944Y-69390000D02*
X40572944Y-68650000D01*
X51250000Y-69000000D02*
X50750001Y-69499999D01*
X73750000Y-69000000D02*
X73250001Y-69499999D01*
X77870000Y-69390000D02*
X80860000Y-69390000D01*
X53190000Y-68940000D02*
X53190000Y-68190000D01*
X37380000Y-69000000D02*
X36250000Y-69000000D01*
X36250000Y-69000000D02*
X36149999Y-69100000D01*
X46890000Y-69390000D02*
X45690000Y-69390000D01*
X38380000Y-68000000D02*
X38190000Y-68190000D01*
X29880000Y-69000000D02*
X28750000Y-69000000D01*
X82332943Y-69000000D02*
X83142943Y-68190000D01*
X30690000Y-68190000D02*
X29880000Y-69000000D01*
X54499999Y-69499999D02*
X54300001Y-69300001D01*
X33711834Y-69390000D02*
X33466552Y-69144718D01*
X40005887Y-68650000D02*
X39355887Y-68000000D01*
X68190000Y-68190000D02*
X67380000Y-69000000D01*
X71422943Y-69499999D02*
X70572944Y-68650000D01*
X77072943Y-69020000D02*
X77500000Y-69020000D01*
X75690000Y-68190000D02*
X74880000Y-69000000D01*
X33466552Y-69144718D02*
X31644718Y-69144718D01*
X46999999Y-69499999D02*
X46890000Y-69390000D01*
X61999999Y-69499999D02*
X61800001Y-69300001D01*
X35097057Y-69100000D02*
X34807056Y-69390000D01*
X54750001Y-69499999D02*
X54499999Y-69499999D01*
X53550001Y-69300001D02*
X53190000Y-68940000D01*
X38190000Y-68190000D02*
X37380000Y-69000000D01*
X34807056Y-69390000D02*
X33711834Y-69390000D01*
X44880000Y-69000000D02*
X43750000Y-69000000D01*
X50750001Y-69499999D02*
X46999999Y-69499999D01*
X58300000Y-69450000D02*
X54800000Y-69450000D01*
X52380000Y-69000000D02*
X51250000Y-69000000D01*
X80860000Y-69390000D02*
X81250000Y-69000000D01*
X65750001Y-69499999D02*
X61999999Y-69499999D01*
X53190000Y-68190000D02*
X52380000Y-69000000D01*
%TO.N,/VIN24*%
X54754112Y-71109999D02*
X54412943Y-71109999D01*
X38687056Y-70610000D02*
X36640001Y-70610000D01*
X79310000Y-71810000D02*
X78720000Y-72400000D01*
X28750000Y-71000000D02*
X27667057Y-71000000D01*
X40259999Y-71312943D02*
X39390000Y-71312943D01*
X81200000Y-70950000D02*
X80170000Y-70950000D01*
X77494112Y-71350000D02*
X76927057Y-71350000D01*
X57672436Y-71850000D02*
X56850000Y-71850000D01*
X76187057Y-70610000D02*
X74140001Y-70610000D01*
X40757056Y-71810000D02*
X40259999Y-71312943D01*
X30192943Y-70610000D02*
X32110000Y-70610000D01*
X39390000Y-71312943D02*
X38687056Y-70610000D01*
X33500000Y-71000000D02*
X34310000Y-71810000D01*
X71810000Y-71810000D02*
X71242944Y-71810000D01*
X66640000Y-70610000D02*
X66250000Y-71000000D01*
X28750000Y-71000000D02*
X29802943Y-71000000D01*
X32110000Y-70610000D02*
X32500000Y-71000000D01*
X49992944Y-71810000D02*
X49310000Y-71810000D01*
X54412943Y-71109999D02*
X53802945Y-70500001D01*
X58750000Y-71000000D02*
X58522436Y-71000000D01*
X35440001Y-71810000D02*
X34310000Y-71810000D01*
X51749999Y-70500001D02*
X51250000Y-71000000D01*
X26857057Y-71810000D02*
X26810000Y-71810000D01*
X32500000Y-71000000D02*
X33500000Y-71000000D01*
X47797056Y-71350000D02*
X46927056Y-71350000D01*
X53802945Y-70500001D02*
X51749999Y-70500001D01*
X73750000Y-71000000D02*
X72620000Y-71000000D01*
X74140001Y-70610000D02*
X73750000Y-71000000D01*
X64310000Y-71810000D02*
X63199999Y-70699999D01*
X56810000Y-71810000D02*
X56770000Y-71850000D01*
X78720000Y-72400000D02*
X78544112Y-72400000D01*
X44140001Y-70610000D02*
X43750000Y-71000000D01*
X61502943Y-70699999D02*
X61302945Y-70500001D01*
X49310000Y-71810000D02*
X48257056Y-71810000D01*
X43750000Y-71000000D02*
X43136218Y-71000000D01*
X36250000Y-71000000D02*
X35440001Y-71810000D01*
X71202944Y-71850000D02*
X70797056Y-71850000D01*
X41810000Y-71810000D02*
X40757056Y-71810000D01*
X59249999Y-70500001D02*
X58750000Y-71000000D01*
X70797056Y-71850000D02*
X70297056Y-71350000D01*
X56770000Y-71850000D02*
X55494113Y-71850000D01*
X76927057Y-71350000D02*
X76187057Y-70610000D01*
X42326218Y-71810000D02*
X41810000Y-71810000D01*
X43136218Y-71000000D02*
X42326218Y-71810000D01*
X51250000Y-71000000D02*
X50802944Y-71000000D01*
X48257056Y-71810000D02*
X47797056Y-71350000D01*
X81250000Y-71000000D02*
X81200000Y-70950000D01*
X61302945Y-70500001D02*
X59249999Y-70500001D01*
X80170000Y-70950000D02*
X79310000Y-71810000D01*
X69427056Y-71350000D02*
X68687056Y-70610000D01*
X63199999Y-70699999D02*
X61502943Y-70699999D01*
X56850000Y-71850000D02*
X56810000Y-71810000D01*
X46927056Y-71350000D02*
X46187056Y-70610000D01*
X78544112Y-72400000D02*
X77494112Y-71350000D01*
X71242944Y-71810000D02*
X71202944Y-71850000D01*
X66250000Y-71000000D02*
X65120000Y-71000000D01*
X70297056Y-71350000D02*
X69427056Y-71350000D01*
X50802944Y-71000000D02*
X49992944Y-71810000D01*
X29802943Y-71000000D02*
X30192943Y-70610000D01*
X65120000Y-71000000D02*
X64310000Y-71810000D01*
X58522436Y-71000000D02*
X57672436Y-71850000D01*
X36640001Y-70610000D02*
X36250000Y-71000000D01*
X68687056Y-70610000D02*
X66640000Y-70610000D01*
X55494113Y-71850000D02*
X54754112Y-71109999D01*
X46187056Y-70610000D02*
X44140001Y-70610000D01*
X72620000Y-71000000D02*
X71810000Y-71810000D01*
X27667057Y-71000000D02*
X26857057Y-71810000D01*
%TO.N,/VIN25*%
X73117056Y-72200000D02*
X72307056Y-73010000D01*
X76430000Y-72550000D02*
X76997056Y-72550000D01*
X35322057Y-73625000D02*
X35094492Y-73625000D01*
X32500000Y-72270000D02*
X32500000Y-72750000D01*
X56000000Y-73750000D02*
X55697057Y-73750000D01*
X48500000Y-73750000D02*
X47300000Y-72550000D01*
X53190000Y-71810000D02*
X52137057Y-71810000D01*
X60690000Y-71810000D02*
X59637057Y-71810000D01*
X26640000Y-73010000D02*
X26000000Y-73650000D01*
X44240000Y-72360000D02*
X43473274Y-72360000D01*
X35094492Y-73625000D02*
X34969492Y-73750000D01*
X75690000Y-71810000D02*
X76430000Y-72550000D01*
X78500000Y-73750000D02*
X79067056Y-73750000D01*
X79067056Y-73750000D02*
X80667056Y-72150000D01*
X74247056Y-72200000D02*
X73117056Y-72200000D01*
X30690000Y-71810000D02*
X31150000Y-72270000D01*
X81747057Y-72200000D02*
X82047057Y-71900000D01*
X60779999Y-71899999D02*
X60690000Y-71810000D01*
X59019492Y-72200000D02*
X57469492Y-73750000D01*
X71740000Y-73010000D02*
X71000000Y-73750000D01*
X44790000Y-71810000D02*
X44240000Y-72360000D01*
X38190000Y-72517106D02*
X38190000Y-71810000D01*
X38222894Y-72550000D02*
X38190000Y-72517106D01*
X30690000Y-71810000D02*
X30299999Y-72200000D01*
X80702943Y-72150000D02*
X80752943Y-72200000D01*
X83100000Y-71900000D02*
X83190000Y-71810000D01*
X54257056Y-72309999D02*
X53689999Y-72309999D01*
X80752943Y-72200000D02*
X81747057Y-72200000D01*
X64240000Y-73010000D02*
X63500000Y-73750000D01*
X53689999Y-72309999D02*
X53190000Y-71810000D01*
X74637057Y-71810000D02*
X74247056Y-72200000D01*
X66747056Y-72200000D02*
X65617056Y-72200000D01*
X47300000Y-72550000D02*
X46430000Y-72550000D01*
X80667056Y-72150000D02*
X80702943Y-72150000D01*
X41000000Y-73750000D02*
X39800000Y-72550000D01*
X69800000Y-72550000D02*
X68930000Y-72550000D01*
X72307056Y-73010000D02*
X71740000Y-73010000D01*
X59637057Y-71810000D02*
X59247057Y-72200000D01*
X46430000Y-72550000D02*
X45690000Y-71810000D01*
X57469492Y-73750000D02*
X56000000Y-73750000D01*
X30299999Y-72200000D02*
X28164113Y-72200000D01*
X71000000Y-73750000D02*
X69800000Y-72550000D01*
X65617056Y-72200000D02*
X64807056Y-73010000D01*
X68930000Y-72550000D02*
X68190000Y-71810000D01*
X64807056Y-73010000D02*
X64240000Y-73010000D01*
X32500000Y-72750000D02*
X33500000Y-73750000D01*
X45690000Y-71810000D02*
X44790000Y-71810000D01*
X42083274Y-73750000D02*
X41000000Y-73750000D01*
X43473274Y-72360000D02*
X42083274Y-73750000D01*
X61649999Y-71899999D02*
X60779999Y-71899999D01*
X28164113Y-72200000D02*
X27354113Y-73010000D01*
X31150000Y-72270000D02*
X32500000Y-72270000D01*
X82047057Y-71900000D02*
X83100000Y-71900000D01*
X51156754Y-72343246D02*
X49750000Y-73750000D01*
X68190000Y-71810000D02*
X67137057Y-71810000D01*
X75690000Y-71810000D02*
X74637057Y-71810000D01*
X63500000Y-73750000D02*
X61649999Y-71899999D01*
X67137057Y-71810000D02*
X66747056Y-72200000D01*
X52137057Y-71810000D02*
X51603811Y-72343246D01*
X49750000Y-73750000D02*
X48500000Y-73750000D01*
X55697057Y-73750000D02*
X54257056Y-72309999D01*
X39800000Y-72550000D02*
X38222894Y-72550000D01*
X76997056Y-72550000D02*
X78197056Y-73750000D01*
X51603811Y-72343246D02*
X51156754Y-72343246D01*
X78197056Y-73750000D02*
X78500000Y-73750000D01*
X34969492Y-73750000D02*
X33500000Y-73750000D01*
X59247057Y-72200000D02*
X59019492Y-72200000D01*
X37137057Y-71810000D02*
X35322057Y-73625000D01*
X26000000Y-73650000D02*
X26000000Y-73750000D01*
X27354113Y-73010000D02*
X26640000Y-73010000D01*
X38190000Y-71810000D02*
X37137057Y-71810000D01*
%TO.N,/VIN26*%
X65752944Y-75300000D02*
X65302944Y-75750000D01*
X42862944Y-75690000D02*
X41810000Y-75690000D01*
X26810000Y-75690000D02*
X26870000Y-75750000D01*
X37692944Y-74490000D02*
X36882944Y-75300000D01*
X56810000Y-75510000D02*
X56250000Y-74950000D01*
X41070000Y-74950000D02*
X40502944Y-74950000D01*
X31500000Y-73750000D02*
X31500000Y-74802943D01*
X78371618Y-75230000D02*
X78831618Y-75690000D01*
X39302944Y-73750000D02*
X39000000Y-73750000D01*
X26870000Y-75750000D02*
X27802943Y-75750000D01*
X69000000Y-73750000D02*
X68750000Y-73750000D01*
X31500000Y-74802943D02*
X32387056Y-75690000D01*
X65302944Y-75750000D02*
X64370000Y-75750000D01*
X61348528Y-73750000D02*
X60608528Y-74490000D01*
X67692944Y-74490000D02*
X66882944Y-75300000D01*
X56250000Y-74950000D02*
X55200001Y-74950000D01*
X60192944Y-74490000D02*
X59382944Y-75300000D01*
X38260000Y-74490000D02*
X37692944Y-74490000D01*
X36882944Y-75300000D02*
X35752944Y-75300000D01*
X54000000Y-73750000D02*
X53260000Y-74490000D01*
X49310000Y-75690000D02*
X46890000Y-75690000D01*
X30192944Y-74490000D02*
X30760000Y-74490000D01*
X32387056Y-75690000D02*
X34310000Y-75690000D01*
X45192944Y-74490000D02*
X44382944Y-75300000D01*
X27802943Y-75750000D02*
X28252944Y-75300000D01*
X64370000Y-75750000D02*
X64310000Y-75690000D01*
X81945886Y-75190001D02*
X82645887Y-74490000D01*
X71810000Y-75690000D02*
X71070000Y-74950000D01*
X46890000Y-75690000D02*
X46890000Y-75192943D01*
X61890000Y-75192943D02*
X61500000Y-74802943D01*
X50362944Y-75690000D02*
X49310000Y-75690000D01*
X53260000Y-74490000D02*
X52692944Y-74490000D01*
X76500000Y-74230000D02*
X77500000Y-75230000D01*
X61500000Y-74802943D02*
X61500000Y-73750000D01*
X39000000Y-73750000D02*
X38260000Y-74490000D01*
X52692944Y-74490000D02*
X51882944Y-75300000D01*
X56810000Y-75690000D02*
X56810000Y-75510000D01*
X75192944Y-74490000D02*
X74382944Y-75300000D01*
X35752944Y-75300000D02*
X35362944Y-75690000D01*
X61500000Y-73750000D02*
X61348528Y-73750000D01*
X71896472Y-75776472D02*
X71810000Y-75690000D01*
X74382944Y-75300000D02*
X73252944Y-75300000D01*
X55200001Y-74950000D02*
X54000000Y-73750000D01*
X41810000Y-75690000D02*
X41070000Y-74950000D01*
X70200000Y-74950000D02*
X69000000Y-73750000D01*
X46500000Y-73750000D02*
X45760000Y-74490000D01*
X45760000Y-74490000D02*
X45192944Y-74490000D01*
X57862944Y-75690000D02*
X56810000Y-75690000D01*
X76500000Y-73750000D02*
X76500000Y-74230000D01*
X79310000Y-75690000D02*
X79809999Y-75190001D01*
X44382944Y-75300000D02*
X43252944Y-75300000D01*
X46890000Y-75192943D02*
X46500000Y-74802943D01*
X82645887Y-74490000D02*
X83260000Y-74490000D01*
X68750000Y-73750000D02*
X68010000Y-74490000D01*
X66882944Y-75300000D02*
X65752944Y-75300000D01*
X50752944Y-75300000D02*
X50362944Y-75690000D01*
X76500000Y-73750000D02*
X75760000Y-74490000D01*
X43252944Y-75300000D02*
X42862944Y-75690000D01*
X75760000Y-74490000D02*
X75192944Y-74490000D01*
X51882944Y-75300000D02*
X50752944Y-75300000D01*
X28252944Y-75300000D02*
X29382944Y-75300000D01*
X61890000Y-75690000D02*
X61890000Y-75192943D01*
X68010000Y-74490000D02*
X67692944Y-74490000D01*
X77500000Y-75230000D02*
X78371618Y-75230000D01*
X59382944Y-75300000D02*
X58252944Y-75300000D01*
X46500000Y-74802943D02*
X46500000Y-73750000D01*
X29382944Y-75300000D02*
X30192944Y-74490000D01*
X40502944Y-74950000D02*
X39302944Y-73750000D01*
X35362944Y-75690000D02*
X34310000Y-75690000D01*
X72776472Y-75776472D02*
X71896472Y-75776472D01*
X60608528Y-74490000D02*
X60192944Y-74490000D01*
X73252944Y-75300000D02*
X72776472Y-75776472D01*
X83260000Y-74490000D02*
X84000000Y-73750000D01*
X71070000Y-74950000D02*
X70200000Y-74950000D01*
X58252944Y-75300000D02*
X57862944Y-75690000D01*
X78831618Y-75690000D02*
X79310000Y-75690000D01*
X79809999Y-75190001D02*
X81945886Y-75190001D01*
X64310000Y-75690000D02*
X61890000Y-75690000D01*
X30760000Y-74490000D02*
X31500000Y-73750000D01*
%TO.N,/VIN27*%
X43750000Y-76500000D02*
X43360000Y-76890000D01*
X56312944Y-76890000D02*
X55572944Y-76150000D01*
X71422943Y-76999999D02*
X70572944Y-76150000D01*
X55572944Y-76150000D02*
X54702945Y-76150000D01*
X80750001Y-76999999D02*
X81250000Y-76500000D01*
X46910000Y-76910000D02*
X45690000Y-76910000D01*
X38190000Y-75690000D02*
X37380000Y-76500000D01*
X73250001Y-76999999D02*
X71422943Y-76999999D01*
X68190000Y-75690000D02*
X67380000Y-76500000D01*
X60690000Y-76190000D02*
X60690000Y-75690000D01*
X67380000Y-76500000D02*
X66250000Y-76500000D01*
X53190000Y-75690000D02*
X52380000Y-76500000D01*
X41312944Y-76890000D02*
X40572944Y-76150000D01*
X76500000Y-76500000D02*
X77500000Y-76500000D01*
X37380000Y-76500000D02*
X36250000Y-76500000D01*
X61398528Y-76898528D02*
X60690000Y-76190000D01*
X31890000Y-76890000D02*
X30690000Y-75690000D01*
X70572944Y-76150000D02*
X69702944Y-76150000D01*
X69702944Y-76150000D02*
X69242944Y-75690000D01*
X66250000Y-76500000D02*
X65750001Y-76999999D01*
X81250000Y-76500000D02*
X82332943Y-76500000D01*
X54242945Y-75690000D02*
X53190000Y-75690000D01*
X58360000Y-76890000D02*
X56312944Y-76890000D01*
X30690000Y-75690000D02*
X29880000Y-76500000D01*
X44880000Y-76500000D02*
X43750000Y-76500000D01*
X77999999Y-76999999D02*
X80750001Y-76999999D01*
X38757056Y-75690000D02*
X38190000Y-75690000D01*
X75690000Y-75690000D02*
X74880000Y-76500000D01*
X73750000Y-76500000D02*
X73250001Y-76999999D01*
X58750000Y-76500000D02*
X58360000Y-76890000D01*
X35860000Y-76890000D02*
X31890000Y-76890000D01*
X54702945Y-76150000D02*
X54242945Y-75690000D01*
X39151472Y-75295584D02*
X38757056Y-75690000D01*
X40005888Y-76150000D02*
X39151472Y-75295584D01*
X59880000Y-76500000D02*
X58750000Y-76500000D01*
X82332943Y-76500000D02*
X83142943Y-75690000D01*
X46999999Y-76999999D02*
X46910000Y-76910000D01*
X61898528Y-76898528D02*
X61398528Y-76898528D01*
X43360000Y-76890000D02*
X41312944Y-76890000D01*
X50750001Y-76999999D02*
X46999999Y-76999999D01*
X51250000Y-76500000D02*
X50750001Y-76999999D01*
X65750001Y-76999999D02*
X61999999Y-76999999D01*
X29880000Y-76500000D02*
X28750000Y-76500000D01*
X52380000Y-76500000D02*
X51250000Y-76500000D01*
X83142943Y-75690000D02*
X83190000Y-75690000D01*
X77500000Y-76500000D02*
X77999999Y-76999999D01*
X60690000Y-75690000D02*
X59880000Y-76500000D01*
X69242944Y-75690000D02*
X68190000Y-75690000D01*
X45690000Y-75690000D02*
X44880000Y-76500000D01*
X74880000Y-76500000D02*
X73750000Y-76500000D01*
X36250000Y-76500000D02*
X35860000Y-76890000D01*
X75690000Y-75690000D02*
X76500000Y-76500000D01*
X40572944Y-76150000D02*
X40005888Y-76150000D01*
X61999999Y-76999999D02*
X61898528Y-76898528D01*
X45690000Y-76910000D02*
X45690000Y-75690000D01*
%TO.N,/VIN28*%
X61401472Y-78098528D02*
X59151472Y-78098528D01*
X76927056Y-78850000D02*
X76187056Y-78110000D01*
X44140000Y-78110000D02*
X43750000Y-78500000D01*
X70297056Y-78850000D02*
X69427056Y-78850000D01*
X64310000Y-79310000D02*
X63199999Y-78199999D01*
X35120000Y-78500000D02*
X34310000Y-79310000D01*
X48199999Y-78199999D02*
X46502943Y-78199999D01*
X57620000Y-78500000D02*
X56810000Y-79310000D01*
X33870000Y-79750000D02*
X34310000Y-79310000D01*
X28750000Y-78500000D02*
X28100000Y-78500000D01*
X71810000Y-79310000D02*
X71242944Y-79310000D01*
X29249999Y-78000001D02*
X31077057Y-78000001D01*
X78850000Y-78850000D02*
X76927056Y-78850000D01*
X50120000Y-78500000D02*
X49310000Y-79310000D01*
X42620000Y-78500000D02*
X41810000Y-79310000D01*
X40540000Y-79310000D02*
X40497056Y-79352944D01*
X40497056Y-79352944D02*
X39994113Y-78850000D01*
X32494113Y-78850000D02*
X33394113Y-79750000D01*
X66250000Y-78500000D02*
X65120000Y-78500000D01*
X68627056Y-78050000D02*
X66700000Y-78050000D01*
X56810000Y-79310000D02*
X56242944Y-79310000D01*
X49310000Y-79310000D02*
X48199999Y-78199999D01*
X28100000Y-78500000D02*
X27290000Y-79310000D01*
X79310000Y-79310000D02*
X78850000Y-78850000D01*
X33394113Y-79750000D02*
X33870000Y-79750000D01*
X55297056Y-78850000D02*
X54427057Y-78850000D01*
X28750000Y-78500000D02*
X29249999Y-78000001D01*
X51640000Y-78110000D02*
X51250000Y-78500000D01*
X59151472Y-78098528D02*
X58750000Y-78500000D01*
X36250000Y-78500000D02*
X35120000Y-78500000D01*
X43750000Y-78500000D02*
X42620000Y-78500000D01*
X54427057Y-78850000D02*
X53687057Y-78110000D01*
X80120000Y-78500000D02*
X79310000Y-79310000D01*
X63199999Y-78199999D02*
X61502943Y-78199999D01*
X71202944Y-79350000D02*
X70797056Y-79350000D01*
X72620000Y-78500000D02*
X71810000Y-79310000D01*
X58750000Y-78500000D02*
X57620000Y-78500000D01*
X65120000Y-78500000D02*
X64310000Y-79310000D01*
X76187056Y-78110000D02*
X74140001Y-78110000D01*
X71242944Y-79310000D02*
X71202944Y-79350000D01*
X56242944Y-79310000D02*
X56000000Y-79552944D01*
X51250000Y-78500000D02*
X50120000Y-78500000D01*
X31927056Y-78850000D02*
X32494113Y-78850000D01*
X39427056Y-78850000D02*
X38687056Y-78110000D01*
X61502943Y-78199999D02*
X61401472Y-78098528D01*
X70797056Y-79350000D02*
X70297056Y-78850000D01*
X56000000Y-79552944D02*
X55297056Y-78850000D01*
X73750000Y-78500000D02*
X72620000Y-78500000D01*
X27290000Y-79310000D02*
X26810000Y-79310000D01*
X46412944Y-78110000D02*
X44140000Y-78110000D01*
X41810000Y-79310000D02*
X40540000Y-79310000D01*
X81250000Y-78500000D02*
X80120000Y-78500000D01*
X37302944Y-78500000D02*
X36250000Y-78500000D01*
X66700000Y-78050000D02*
X66250000Y-78500000D01*
X37692944Y-78110000D02*
X37302944Y-78500000D01*
X38687056Y-78110000D02*
X37692944Y-78110000D01*
X46502943Y-78199999D02*
X46412944Y-78110000D01*
X53687057Y-78110000D02*
X51640000Y-78110000D01*
X39994113Y-78850000D02*
X39427056Y-78850000D01*
X69427056Y-78850000D02*
X68627056Y-78050000D01*
X31077057Y-78000001D02*
X31927056Y-78850000D01*
X74140001Y-78110000D02*
X73750000Y-78500000D01*
%TO.N,/VIN29*%
X37137057Y-79750000D02*
X37087057Y-79700000D01*
X74637057Y-79310000D02*
X74247056Y-79700000D01*
X26740000Y-80510000D02*
X26000000Y-81250000D01*
X27790000Y-80510000D02*
X26740000Y-80510000D01*
X49807056Y-80510000D02*
X48812944Y-80510000D01*
X52137057Y-79310000D02*
X51747056Y-79700000D01*
X65617056Y-79700000D02*
X64807056Y-80510000D01*
X44247056Y-79700000D02*
X43117056Y-79700000D01*
X81747056Y-79700000D02*
X80617056Y-79700000D01*
X75690000Y-79310000D02*
X75690000Y-79737056D01*
X48500000Y-81250000D02*
X46649999Y-79399999D01*
X66747056Y-79700000D02*
X65617056Y-79700000D01*
X79807056Y-80510000D02*
X78990000Y-80510000D01*
X48500000Y-80500000D02*
X48500000Y-81250000D01*
X42307056Y-80510000D02*
X41740000Y-80510000D01*
X38930000Y-80050000D02*
X38190000Y-79310000D01*
X60779999Y-79399999D02*
X60690000Y-79310000D01*
X31430000Y-80050000D02*
X31997057Y-80050000D01*
X37750000Y-79750000D02*
X37137057Y-79750000D01*
X30690000Y-79310000D02*
X31430000Y-80050000D01*
X43117056Y-79700000D02*
X42307056Y-80510000D01*
X56740000Y-80510000D02*
X56000000Y-81250000D01*
X68190000Y-79310000D02*
X67137057Y-79310000D01*
X33197057Y-81250000D02*
X33500000Y-81250000D01*
X35617056Y-79700000D02*
X34067056Y-81250000D01*
X80617056Y-79700000D02*
X79807056Y-80510000D01*
X69800000Y-80050000D02*
X68930000Y-80050000D01*
X41000000Y-81250000D02*
X40697057Y-81250000D01*
X64240000Y-80510000D02*
X63500000Y-81250000D01*
X77350000Y-80050000D02*
X78500000Y-81200000D01*
X59247056Y-79700000D02*
X58117056Y-79700000D01*
X34067056Y-81250000D02*
X33500000Y-81250000D01*
X61649999Y-79399999D02*
X60779999Y-79399999D01*
X39497057Y-80050000D02*
X38930000Y-80050000D01*
X31997057Y-80050000D02*
X33197057Y-81250000D01*
X58117056Y-79700000D02*
X57307056Y-80510000D01*
X45690000Y-79310000D02*
X44637057Y-79310000D01*
X71740000Y-80510000D02*
X71000000Y-81250000D01*
X72307056Y-80510000D02*
X71740000Y-80510000D01*
X41740000Y-80510000D02*
X41000000Y-81250000D01*
X56000000Y-81250000D02*
X54800000Y-80050000D01*
X44637057Y-79310000D02*
X44247056Y-79700000D01*
X37087057Y-79700000D02*
X35617056Y-79700000D01*
X67137057Y-79310000D02*
X66747056Y-79700000D01*
X75690000Y-79737056D02*
X76002944Y-80050000D01*
X48812944Y-80510000D02*
X48651472Y-80348528D01*
X48651472Y-80348528D02*
X48500000Y-80500000D01*
X28897057Y-80050000D02*
X28250000Y-80050000D01*
X30690000Y-79310000D02*
X29637057Y-79310000D01*
X57307056Y-80510000D02*
X56740000Y-80510000D01*
X63500000Y-81250000D02*
X61649999Y-79399999D01*
X75690000Y-79310000D02*
X74637057Y-79310000D01*
X38190000Y-79310000D02*
X37750000Y-79750000D01*
X68930000Y-80050000D02*
X68190000Y-79310000D01*
X46649999Y-79399999D02*
X45779999Y-79399999D01*
X51747056Y-79700000D02*
X50617056Y-79700000D01*
X78990000Y-80510000D02*
X78300000Y-81200000D01*
X50617056Y-79700000D02*
X49807056Y-80510000D01*
X45779999Y-79399999D02*
X45690000Y-79310000D01*
X73117056Y-79700000D02*
X72307056Y-80510000D01*
X28250000Y-80050000D02*
X27790000Y-80510000D01*
X82137057Y-79310000D02*
X81747056Y-79700000D01*
X71000000Y-81250000D02*
X69800000Y-80050000D01*
X53930000Y-80050000D02*
X53190000Y-79310000D01*
X64807056Y-80510000D02*
X64240000Y-80510000D01*
X76002944Y-80050000D02*
X77350000Y-80050000D01*
X83190000Y-79310000D02*
X82137057Y-79310000D01*
X53190000Y-79310000D02*
X52137057Y-79310000D01*
X54800000Y-80050000D02*
X53930000Y-80050000D01*
X74247056Y-79700000D02*
X73117056Y-79700000D01*
X29637057Y-79310000D02*
X28897057Y-80050000D01*
X60690000Y-79310000D02*
X59637057Y-79310000D01*
X59637057Y-79310000D02*
X59247056Y-79700000D01*
X40697057Y-81250000D02*
X39497057Y-80050000D01*
%TO.N,/VIN30*%
X61348528Y-81250000D02*
X60608528Y-81990000D01*
X75760000Y-81990000D02*
X75192944Y-81990000D01*
X59382944Y-82800000D02*
X58252944Y-82800000D01*
X78515786Y-82680000D02*
X79025786Y-83190000D01*
X31890000Y-82692943D02*
X31890000Y-83190000D01*
X84000000Y-81250000D02*
X83260000Y-81990000D01*
X73252944Y-82800000D02*
X72862944Y-83190000D01*
X71200000Y-83190000D02*
X71810000Y-83190000D01*
X54000000Y-81250000D02*
X53292894Y-81250000D01*
X38108528Y-81990000D02*
X37692944Y-81990000D01*
X43252944Y-82800000D02*
X42862944Y-83190000D01*
X61890000Y-83190000D02*
X61890000Y-82692944D01*
X39000000Y-82302943D02*
X39000000Y-81250000D01*
X61890000Y-82692944D02*
X61500000Y-82302944D01*
X69497057Y-82800000D02*
X71200000Y-82800000D01*
X42862944Y-83190000D02*
X41810000Y-83190000D01*
X69000000Y-81250000D02*
X68260000Y-81990000D01*
X60192944Y-81990000D02*
X59382944Y-82800000D01*
X76500000Y-81250000D02*
X75760000Y-81990000D01*
X49310000Y-83190000D02*
X46890000Y-83190000D01*
X60608528Y-81990000D02*
X60192944Y-81990000D01*
X46500000Y-82302943D02*
X46500000Y-81250000D01*
X80362944Y-83190000D02*
X79310000Y-83190000D01*
X61500000Y-82302944D02*
X61500000Y-81250000D01*
X31890000Y-83190000D02*
X34310000Y-83190000D01*
X50362943Y-83190000D02*
X49310000Y-83190000D01*
X46890000Y-82692943D02*
X46500000Y-82302943D01*
X54390000Y-83190000D02*
X54390000Y-82692943D01*
X54390000Y-82692943D02*
X54000000Y-82302943D01*
X79025786Y-83190000D02*
X79310000Y-83190000D01*
X72862944Y-83190000D02*
X71810000Y-83190000D01*
X61500000Y-81250000D02*
X61348528Y-81250000D01*
X39000000Y-81250000D02*
X38848528Y-81250000D01*
X45608528Y-81990000D02*
X45192944Y-81990000D01*
X31500000Y-82302943D02*
X31890000Y-82692943D01*
X57862944Y-83190000D02*
X56810000Y-83190000D01*
X39390000Y-83190000D02*
X39390000Y-82692943D01*
X71200000Y-82800000D02*
X71200000Y-83190000D01*
X39390000Y-82692943D02*
X39000000Y-82302943D01*
X36882944Y-82800000D02*
X35752944Y-82800000D01*
X74382944Y-82800000D02*
X73252944Y-82800000D01*
X77500000Y-82680000D02*
X78515786Y-82680000D01*
X76500000Y-81680000D02*
X77500000Y-82680000D01*
X28252944Y-82800000D02*
X29382944Y-82800000D01*
X58252944Y-82800000D02*
X57862944Y-83190000D01*
X35752944Y-82800000D02*
X35362944Y-83190000D01*
X64310000Y-83190000D02*
X61890000Y-83190000D01*
X50752943Y-82800000D02*
X50362943Y-83190000D01*
X69000000Y-82302943D02*
X69497057Y-82800000D01*
X35362944Y-83190000D02*
X34310000Y-83190000D01*
X75192944Y-81990000D02*
X74382944Y-82800000D01*
X37692944Y-81990000D02*
X36882944Y-82800000D01*
X65362944Y-83190000D02*
X64310000Y-83190000D01*
X54000000Y-82302943D02*
X54000000Y-81250000D01*
X27862943Y-83190000D02*
X28252944Y-82800000D01*
X46348528Y-81250000D02*
X45608528Y-81990000D01*
X38848528Y-81250000D02*
X38108528Y-81990000D01*
X81882944Y-82800000D02*
X80752944Y-82800000D01*
X41810000Y-83190000D02*
X39390000Y-83190000D01*
X82692944Y-81990000D02*
X81882944Y-82800000D01*
X67692944Y-81990000D02*
X66882944Y-82800000D01*
X45192944Y-81990000D02*
X44382944Y-82800000D01*
X65752944Y-82800000D02*
X65362944Y-83190000D01*
X46890000Y-83190000D02*
X46890000Y-82692943D01*
X29382944Y-82800000D02*
X30932944Y-81250000D01*
X30932944Y-81250000D02*
X31500000Y-81250000D01*
X76500000Y-81250000D02*
X76500000Y-81680000D01*
X31500000Y-81250000D02*
X31500000Y-82302943D01*
X68260000Y-81990000D02*
X67692944Y-81990000D01*
X83260000Y-81990000D02*
X82692944Y-81990000D01*
X51742894Y-82800000D02*
X50752943Y-82800000D01*
X69000000Y-81250000D02*
X69000000Y-82302943D01*
X53292894Y-81250000D02*
X51742894Y-82800000D01*
X80752944Y-82800000D02*
X80362944Y-83190000D01*
X66882944Y-82800000D02*
X65752944Y-82800000D01*
X44382944Y-82800000D02*
X43252944Y-82800000D01*
X26810000Y-83190000D02*
X27862943Y-83190000D01*
X56810000Y-83190000D02*
X54390000Y-83190000D01*
X46500000Y-81250000D02*
X46348528Y-81250000D01*
%TO.N,/VIN31*%
X52380000Y-84000000D02*
X51250000Y-84000000D01*
X67380000Y-84000000D02*
X66250000Y-84000000D01*
X35860000Y-84390000D02*
X36250000Y-84000000D01*
X38890000Y-84390000D02*
X43360000Y-84390000D01*
X53390000Y-84390000D02*
X58360000Y-84390000D01*
X31390000Y-84390000D02*
X35860000Y-84390000D01*
X80860000Y-84390000D02*
X81250000Y-84000000D01*
X30690000Y-83190000D02*
X30690000Y-83690000D01*
X69000000Y-84000000D02*
X68190000Y-83190000D01*
X59880000Y-84000000D02*
X58750000Y-84000000D01*
X60690000Y-83190000D02*
X60690000Y-83690000D01*
X82380000Y-84000000D02*
X81250000Y-84000000D01*
X45690000Y-83190000D02*
X44880000Y-84000000D01*
X45690000Y-83190000D02*
X45690000Y-83940000D01*
X43360000Y-84390000D02*
X43750000Y-84000000D01*
X75690000Y-83190000D02*
X74880000Y-84000000D01*
X38190000Y-83190000D02*
X37380000Y-84000000D01*
X53190000Y-83190000D02*
X53190000Y-84190000D01*
X30690000Y-83690000D02*
X31390000Y-84390000D01*
X37380000Y-84000000D02*
X36250000Y-84000000D01*
X38190000Y-83190000D02*
X38190000Y-83690000D01*
X30690000Y-83190000D02*
X29880000Y-84000000D01*
X58360000Y-84390000D02*
X58750000Y-84000000D01*
X61390000Y-84390000D02*
X65860000Y-84390000D01*
X53190000Y-83190000D02*
X52380000Y-84000000D01*
X73360000Y-84390000D02*
X73750000Y-84000000D01*
X53190000Y-84190000D02*
X53390000Y-84390000D01*
X38190000Y-83690000D02*
X38890000Y-84390000D01*
X45690000Y-83940000D02*
X46140000Y-84390000D01*
X83190000Y-83190000D02*
X82380000Y-84000000D01*
X76450000Y-83950000D02*
X77500000Y-83950000D01*
X46140000Y-84390000D02*
X50860000Y-84390000D01*
X70000000Y-84000000D02*
X69000000Y-84000000D01*
X70000000Y-84000000D02*
X70390000Y-84390000D01*
X60690000Y-83190000D02*
X59880000Y-84000000D01*
X77940000Y-84390000D02*
X80860000Y-84390000D01*
X75690000Y-83190000D02*
X76450000Y-83950000D01*
X65860000Y-84390000D02*
X66250000Y-84000000D01*
X44880000Y-84000000D02*
X43750000Y-84000000D01*
X77500000Y-83950000D02*
X77940000Y-84390000D01*
X70390000Y-84390000D02*
X73360000Y-84390000D01*
X74880000Y-84000000D02*
X73750000Y-84000000D01*
X68190000Y-83190000D02*
X67380000Y-84000000D01*
X29880000Y-84000000D02*
X28750000Y-84000000D01*
X50860000Y-84390000D02*
X51250000Y-84000000D01*
X60690000Y-83690000D02*
X61390000Y-84390000D01*
%TD*%
M02*
