M48
; DRILL file {KiCad 7.0.1} date Mon Aug 14 10:41:01 2023
; FORMAT={-:-/ absolute / inch / decimal}
; #@! TF.CreationDate,2023-08-14T10:41:01-04:00
; #@! TF.GenerationSoftware,Kicad,Pcbnew,7.0.1
; #@! TF.FileFunction,Plated,1,2,PTH
FMAT,2
INCH
; #@! TA.AperFunction,Plated,PTH,ViaDrill
T1C0.0118
; #@! TA.AperFunction,Plated,PTH,ComponentDrill
T2C0.0157
; #@! TA.AperFunction,Plated,PTH,ComponentDrill
T3C0.0256
%
G90
G05
T1
X1.2119Y-1.2614
X1.5177Y-2.7222
X1.522Y-1.5409
X1.5225Y-3.0173
X1.5265Y-2.4267
X1.5287Y-1.8359
X1.5306Y-2.1315
X1.5335Y-1.2456
X1.6082Y-1.2993
X1.6272Y-2.7858
X1.6417Y-1.5882
X1.6444Y-1.8834
X1.6444Y-2.1787
X1.6444Y-2.474
X1.6444Y-3.0645
X2.0551Y-1.2559
X2.2314Y-1.2929
X2.7007Y-2.4268
X2.7017Y-1.2456
X2.7031Y-3.0173
X2.7047Y-1.8386
X2.7047Y-2.722
X2.7087Y-2.1315
X2.7122Y-1.5453
X2.8209Y-2.1833
X2.8211Y-1.8878
X2.8211Y-2.4783
X2.8211Y-2.7736
X2.8211Y-3.0689
X2.822Y-1.2964
X2.8255Y-1.5882
T2
X1.0217Y-1.1299
X1.0217Y-1.4252
X1.0217Y-1.7205
X1.0217Y-2.0157
X1.0217Y-2.311
X1.0217Y-2.6063
X1.0217Y-2.9016
X1.0217Y-3.1969
X1.0535Y-1.0535
X1.0535Y-1.2063
X1.0535Y-1.3488
X1.0535Y-1.5016
X1.0535Y-1.6441
X1.0535Y-1.7969
X1.0535Y-1.9394
X1.0535Y-2.0921
X1.0535Y-2.2346
X1.0535Y-2.3874
X1.0535Y-2.5299
X1.0535Y-2.6827
X1.0535Y-2.8252
X1.0535Y-2.978
X1.0535Y-3.1205
X1.0535Y-3.2732
X1.1299Y-1.0217
X1.1299Y-1.2382
X1.1299Y-1.3169
X1.1299Y-1.5335
X1.1299Y-1.6122
X1.1299Y-1.8287
X1.1299Y-1.9075
X1.1299Y-2.124
X1.1299Y-2.2028
X1.1299Y-2.4193
X1.1299Y-2.498
X1.1299Y-2.7146
X1.1299Y-2.7933
X1.1299Y-3.0098
X1.1299Y-3.0886
X1.1299Y-3.3051
X1.2063Y-1.0535
X1.2063Y-1.2063
X1.2063Y-1.3488
X1.2063Y-1.5016
X1.2063Y-1.6441
X1.2063Y-1.7969
X1.2063Y-1.9394
X1.2063Y-2.0921
X1.2063Y-2.2346
X1.2063Y-2.3874
X1.2063Y-2.5299
X1.2063Y-2.6827
X1.2063Y-2.8252
X1.2063Y-2.978
X1.2063Y-3.1205
X1.2063Y-3.2732
X1.2382Y-1.1299
X1.2382Y-1.4252
X1.2382Y-1.7205
X1.2382Y-2.0157
X1.2382Y-2.311
X1.2382Y-2.6063
X1.2382Y-2.9016
X1.2382Y-3.1969
X1.3169Y-1.1299
X1.3169Y-1.4252
X1.3169Y-1.7205
X1.3169Y-2.0157
X1.3169Y-2.311
X1.3169Y-2.6063
X1.3169Y-2.9016
X1.3169Y-3.1969
X1.3488Y-1.0535
X1.3488Y-1.2063
X1.3488Y-1.3488
X1.3488Y-1.5016
X1.3488Y-1.6441
X1.3488Y-1.7969
X1.3488Y-1.9394
X1.3488Y-2.0921
X1.3488Y-2.2346
X1.3488Y-2.3874
X1.3488Y-2.5299
X1.3488Y-2.6827
X1.3488Y-2.8252
X1.3488Y-2.978
X1.3488Y-3.1205
X1.3488Y-3.2732
X1.4252Y-1.0217
X1.4252Y-1.2382
X1.4252Y-1.3169
X1.4252Y-1.5335
X1.4252Y-1.6122
X1.4252Y-1.8287
X1.4252Y-1.9075
X1.4252Y-2.124
X1.4252Y-2.2028
X1.4252Y-2.4193
X1.4252Y-2.498
X1.4252Y-2.7146
X1.4252Y-2.7933
X1.4252Y-3.0098
X1.4252Y-3.0886
X1.4252Y-3.3051
X1.5016Y-1.0535
X1.5016Y-1.2063
X1.5016Y-1.3488
X1.5016Y-1.5016
X1.5016Y-1.6441
X1.5016Y-1.7969
X1.5016Y-1.9394
X1.5016Y-2.0921
X1.5016Y-2.2346
X1.5016Y-2.3874
X1.5016Y-2.5299
X1.5016Y-2.6827
X1.5016Y-2.8252
X1.5016Y-2.978
X1.5016Y-3.1205
X1.5016Y-3.2732
X1.5335Y-1.1299
X1.5335Y-1.4252
X1.5335Y-1.7205
X1.5335Y-2.0157
X1.5335Y-2.311
X1.5335Y-2.6063
X1.5335Y-2.9016
X1.5335Y-3.1969
X1.6122Y-1.1299
X1.6122Y-1.4252
X1.6122Y-1.7205
X1.6122Y-2.0157
X1.6122Y-2.311
X1.6122Y-2.6063
X1.6122Y-2.9016
X1.6122Y-3.1969
X1.6441Y-1.0535
X1.6441Y-1.2063
X1.6441Y-1.3488
X1.6441Y-1.5016
X1.6441Y-1.6441
X1.6441Y-1.7969
X1.6441Y-1.9394
X1.6441Y-2.0921
X1.6441Y-2.2346
X1.6441Y-2.3874
X1.6441Y-2.5299
X1.6441Y-2.6827
X1.6441Y-2.8252
X1.6441Y-2.978
X1.6441Y-3.1205
X1.6441Y-3.2732
X1.7205Y-1.0217
X1.7205Y-1.2382
X1.7205Y-1.3169
X1.7205Y-1.5335
X1.7205Y-1.6122
X1.7205Y-1.8287
X1.7205Y-1.9075
X1.7205Y-2.124
X1.7205Y-2.2028
X1.7205Y-2.4193
X1.7205Y-2.498
X1.7205Y-2.7146
X1.7205Y-2.7933
X1.7205Y-3.0098
X1.7205Y-3.0886
X1.7205Y-3.3051
X1.7969Y-1.0535
X1.7969Y-1.2063
X1.7969Y-1.3488
X1.7969Y-1.5016
X1.7969Y-1.6441
X1.7969Y-1.7969
X1.7969Y-1.9394
X1.7969Y-2.0921
X1.7969Y-2.2346
X1.7969Y-2.3874
X1.7969Y-2.5299
X1.7969Y-2.6827
X1.7969Y-2.8252
X1.7969Y-2.978
X1.7969Y-3.1205
X1.7969Y-3.2732
X1.8287Y-1.1299
X1.8287Y-1.4252
X1.8287Y-1.7205
X1.8287Y-2.0157
X1.8287Y-2.311
X1.8287Y-2.6063
X1.8287Y-2.9016
X1.8287Y-3.1969
X1.9075Y-1.1299
X1.9075Y-1.4252
X1.9075Y-1.7205
X1.9075Y-2.0157
X1.9075Y-2.311
X1.9075Y-2.6063
X1.9075Y-2.9016
X1.9075Y-3.1969
X1.9394Y-1.0535
X1.9394Y-1.2063
X1.9394Y-1.3488
X1.9394Y-1.5016
X1.9394Y-1.6441
X1.9394Y-1.7969
X1.9394Y-1.9394
X1.9394Y-2.0921
X1.9394Y-2.2346
X1.9394Y-2.3874
X1.9394Y-2.5299
X1.9394Y-2.6827
X1.9394Y-2.8252
X1.9394Y-2.978
X1.9394Y-3.1205
X1.9394Y-3.2732
X2.0157Y-1.0217
X2.0157Y-1.2382
X2.0157Y-1.3169
X2.0157Y-1.5335
X2.0157Y-1.6122
X2.0157Y-1.8287
X2.0157Y-1.9075
X2.0157Y-2.124
X2.0157Y-2.2028
X2.0157Y-2.4193
X2.0157Y-2.498
X2.0157Y-2.7146
X2.0157Y-2.7933
X2.0157Y-3.0098
X2.0157Y-3.0886
X2.0157Y-3.3051
X2.0921Y-1.0535
X2.0921Y-1.2063
X2.0921Y-1.3488
X2.0921Y-1.5016
X2.0921Y-1.6441
X2.0921Y-1.7969
X2.0921Y-1.9394
X2.0921Y-2.0921
X2.0921Y-2.2346
X2.0921Y-2.3874
X2.0921Y-2.5299
X2.0921Y-2.6827
X2.0921Y-2.8252
X2.0921Y-2.978
X2.0921Y-3.1205
X2.0921Y-3.2732
X2.124Y-1.1299
X2.124Y-1.4252
X2.124Y-1.7205
X2.124Y-2.0157
X2.124Y-2.311
X2.124Y-2.6063
X2.124Y-2.9016
X2.124Y-3.1969
X2.2028Y-1.1299
X2.2028Y-1.4252
X2.2028Y-1.7205
X2.2028Y-2.0157
X2.2028Y-2.311
X2.2028Y-2.6063
X2.2028Y-2.9016
X2.2028Y-3.1969
X2.2346Y-1.0535
X2.2346Y-1.2063
X2.2346Y-1.3488
X2.2346Y-1.5016
X2.2346Y-1.6441
X2.2346Y-1.7969
X2.2346Y-1.9394
X2.2346Y-2.0921
X2.2346Y-2.2346
X2.2346Y-2.3874
X2.2346Y-2.5299
X2.2346Y-2.6827
X2.2346Y-2.8252
X2.2346Y-2.978
X2.2346Y-3.1205
X2.2346Y-3.2732
X2.311Y-1.0217
X2.311Y-1.2382
X2.311Y-1.3169
X2.311Y-1.5335
X2.311Y-1.6122
X2.311Y-1.8287
X2.311Y-1.9075
X2.311Y-2.124
X2.311Y-2.2028
X2.311Y-2.4193
X2.311Y-2.498
X2.311Y-2.7146
X2.311Y-2.7933
X2.311Y-3.0098
X2.311Y-3.0886
X2.311Y-3.3051
X2.3874Y-1.0535
X2.3874Y-1.2063
X2.3874Y-1.3488
X2.3874Y-1.5016
X2.3874Y-1.6441
X2.3874Y-1.7969
X2.3874Y-1.9394
X2.3874Y-2.0921
X2.3874Y-2.2346
X2.3874Y-2.3874
X2.3874Y-2.5299
X2.3874Y-2.6827
X2.3874Y-2.8252
X2.3874Y-2.978
X2.3874Y-3.1205
X2.3874Y-3.2732
X2.4193Y-1.1299
X2.4193Y-1.4252
X2.4193Y-1.7205
X2.4193Y-2.0157
X2.4193Y-2.311
X2.4193Y-2.6063
X2.4193Y-2.9016
X2.4193Y-3.1969
X2.498Y-1.1299
X2.498Y-1.4252
X2.498Y-1.7205
X2.498Y-2.0157
X2.498Y-2.311
X2.498Y-2.6063
X2.498Y-2.9016
X2.498Y-3.1969
X2.5299Y-1.0535
X2.5299Y-1.2063
X2.5299Y-1.3488
X2.5299Y-1.5016
X2.5299Y-1.6441
X2.5299Y-1.7969
X2.5299Y-1.9394
X2.5299Y-2.0921
X2.5299Y-2.2346
X2.5299Y-2.3874
X2.5299Y-2.5299
X2.5299Y-2.6827
X2.5299Y-2.8252
X2.5299Y-2.978
X2.5299Y-3.1205
X2.5299Y-3.2732
X2.6063Y-1.0217
X2.6063Y-1.2382
X2.6063Y-1.3169
X2.6063Y-1.5335
X2.6063Y-1.6122
X2.6063Y-1.8287
X2.6063Y-1.9075
X2.6063Y-2.124
X2.6063Y-2.2028
X2.6063Y-2.4193
X2.6063Y-2.498
X2.6063Y-2.7146
X2.6063Y-2.7933
X2.6063Y-3.0098
X2.6063Y-3.0886
X2.6063Y-3.3051
X2.6827Y-1.0535
X2.6827Y-1.2063
X2.6827Y-1.3488
X2.6827Y-1.5016
X2.6827Y-1.6441
X2.6827Y-1.7969
X2.6827Y-1.9394
X2.6827Y-2.0921
X2.6827Y-2.2346
X2.6827Y-2.3874
X2.6827Y-2.5299
X2.6827Y-2.6827
X2.6827Y-2.8252
X2.6827Y-2.978
X2.6827Y-3.1205
X2.6827Y-3.2732
X2.7146Y-1.1299
X2.7146Y-1.4252
X2.7146Y-1.7205
X2.7146Y-2.0157
X2.7146Y-2.311
X2.7146Y-2.6063
X2.7146Y-2.9016
X2.7146Y-3.1969
X2.7933Y-1.1299
X2.7933Y-1.4252
X2.7933Y-1.7205
X2.7933Y-2.0157
X2.7933Y-2.311
X2.7933Y-2.6063
X2.7933Y-2.9016
X2.7933Y-3.1969
X2.8252Y-1.0535
X2.8252Y-1.2063
X2.8252Y-1.3488
X2.8252Y-1.5016
X2.8252Y-1.6441
X2.8252Y-1.7969
X2.8252Y-1.9394
X2.8252Y-2.0921
X2.8252Y-2.2346
X2.8252Y-2.3874
X2.8252Y-2.5299
X2.8252Y-2.6827
X2.8252Y-2.8252
X2.8252Y-2.978
X2.8252Y-3.1205
X2.8252Y-3.2732
X2.9016Y-1.0217
X2.9016Y-1.2382
X2.9016Y-1.3169
X2.9016Y-1.5335
X2.9016Y-1.6122
X2.9016Y-1.8287
X2.9016Y-1.9075
X2.9016Y-2.124
X2.9016Y-2.2028
X2.9016Y-2.4193
X2.9016Y-2.498
X2.9016Y-2.7146
X2.9016Y-2.7933
X2.9016Y-3.0098
X2.9016Y-3.0886
X2.9016Y-3.3051
X2.978Y-1.0535
X2.978Y-1.2063
X2.978Y-1.3488
X2.978Y-1.5016
X2.978Y-1.6441
X2.978Y-1.7969
X2.978Y-1.9394
X2.978Y-2.0921
X2.978Y-2.2346
X2.978Y-2.3874
X2.978Y-2.5299
X2.978Y-2.6827
X2.978Y-2.8252
X2.978Y-2.978
X2.978Y-3.1205
X2.978Y-3.2732
X3.0098Y-1.1299
X3.0098Y-1.4252
X3.0098Y-1.7205
X3.0098Y-2.0157
X3.0098Y-2.311
X3.0098Y-2.6063
X3.0098Y-2.9016
X3.0098Y-3.1969
X3.0886Y-1.1299
X3.0886Y-1.4252
X3.0886Y-1.7205
X3.0886Y-2.0157
X3.0886Y-2.311
X3.0886Y-2.6063
X3.0886Y-2.9016
X3.0886Y-3.1969
X3.1205Y-1.0535
X3.1205Y-1.2063
X3.1205Y-1.3488
X3.1205Y-1.5016
X3.1205Y-1.6441
X3.1205Y-1.7969
X3.1205Y-1.9394
X3.1205Y-2.0921
X3.1205Y-2.2346
X3.1205Y-2.3874
X3.1205Y-2.5299
X3.1205Y-2.6827
X3.1205Y-2.8252
X3.1205Y-2.978
X3.1205Y-3.1205
X3.1205Y-3.2732
X3.1969Y-1.0217
X3.1969Y-1.2382
X3.1969Y-1.3169
X3.1969Y-1.5335
X3.1969Y-1.6122
X3.1969Y-1.8287
X3.1969Y-1.9075
X3.1969Y-2.124
X3.1969Y-2.2028
X3.1969Y-2.4193
X3.1969Y-2.498
X3.1969Y-2.7146
X3.1969Y-2.7933
X3.1969Y-3.0098
X3.1969Y-3.0886
X3.1969Y-3.3051
X3.2732Y-1.0535
X3.2732Y-1.2063
X3.2732Y-1.3488
X3.2732Y-1.5016
X3.2732Y-1.6441
X3.2732Y-1.7969
X3.2732Y-1.9394
X3.2732Y-2.0921
X3.2732Y-2.2346
X3.2732Y-2.3874
X3.2732Y-2.5299
X3.2732Y-2.6827
X3.2732Y-2.8252
X3.2732Y-2.978
X3.2732Y-3.1205
X3.2732Y-3.2732
X3.3051Y-1.1299
X3.3051Y-1.4252
X3.3051Y-1.7205
X3.3051Y-2.0157
X3.3051Y-2.311
X3.3051Y-2.6063
X3.3051Y-2.9016
X3.3051Y-3.1969
T3
X1.0098Y-1.2776
X1.0098Y-1.5728
X1.0098Y-2.7539
X1.0098Y-3.0492
X1.0598Y-1.2776
X1.0598Y-1.5728
X1.0598Y-2.7539
X1.0598Y-3.0492
X1.1062Y-1.1395
X1.1062Y-1.4348
X1.1062Y-1.7301
X1.1062Y-2.6159
X1.1062Y-2.9112
X1.1526Y-1.1208
X1.1526Y-1.4161
X1.1526Y-1.7113
X1.1526Y-2.5972
X1.1526Y-2.8924
X3.1742Y-1.4343
X3.1742Y-1.7296
X3.1742Y-2.6154
X3.1742Y-2.9107
X3.2206Y-1.4156
X3.2206Y-1.7109
X3.2206Y-2.5967
X3.2206Y-2.892
X3.2669Y-1.2776
X3.2669Y-1.5728
X3.2669Y-2.7539
X3.2669Y-3.0492
X3.3169Y-1.2776
X3.3169Y-1.5728
X3.3169Y-2.7539
X3.3169Y-3.0492
T0
M30
