%TF.GenerationSoftware,KiCad,Pcbnew,7.0.1*%
%TF.CreationDate,2023-10-04T00:40:19-04:00*%
%TF.ProjectId,TacTile-B,54616354-696c-4652-9d42-2e6b69636164,rev?*%
%TF.SameCoordinates,Original*%
%TF.FileFunction,Profile,NP*%
%FSLAX46Y46*%
G04 Gerber Fmt 4.6, Leading zero omitted, Abs format (unit mm)*
G04 Created by KiCad (PCBNEW 7.0.1) date 2023-10-04 00:40:19*
%MOMM*%
%LPD*%
G01*
G04 APERTURE LIST*
%TA.AperFunction,Profile*%
%ADD10C,0.100000*%
%TD*%
G04 APERTURE END LIST*
D10*
X82440255Y-47269917D02*
X82440255Y-47730083D01*
X82440255Y-62730083D02*
X82440255Y-62269917D01*
X25000000Y-25000000D02*
X85000000Y-25000000D01*
X82440255Y-47269917D02*
G75*
G03*
X85000000Y-43750000I-1140255J3519917D01*
G01*
X25000000Y-25000000D02*
X25000000Y-43750000D01*
X25000001Y-51250000D02*
G75*
G03*
X27559745Y-54769916I3699999J0D01*
G01*
X82440255Y-54769917D02*
X82440255Y-55230083D01*
X82440255Y-54769917D02*
G75*
G03*
X85000000Y-51250000I-1140255J3519917D01*
G01*
X25000001Y-43750000D02*
G75*
G03*
X27559745Y-47269916I3699999J0D01*
G01*
X85000000Y-85000000D02*
X25000000Y-85000000D01*
X82440255Y-62269917D02*
G75*
G03*
X85000000Y-58750000I-1140255J3519917D01*
G01*
X27559745Y-55230083D02*
G75*
G03*
X25000000Y-58750000I1140255J-3519917D01*
G01*
X27559745Y-62730083D02*
G75*
G03*
X25000000Y-66250000I1140255J-3519917D01*
G01*
X27559745Y-62730083D02*
X27559745Y-62269917D01*
X84999999Y-58750000D02*
G75*
G03*
X82440255Y-55230084I-3699999J0D01*
G01*
X27559745Y-47269917D02*
X27559745Y-47730083D01*
X84999999Y-51250000D02*
G75*
G03*
X82440255Y-47730084I-3699999J0D01*
G01*
X27559745Y-55230083D02*
X27559745Y-54769917D01*
X25000001Y-58750000D02*
G75*
G03*
X27559745Y-62269916I3699999J0D01*
G01*
X84999999Y-66250000D02*
G75*
G03*
X82440255Y-62730084I-3699999J0D01*
G01*
X85000000Y-85000000D02*
X85000000Y-66250000D01*
X25000000Y-66250000D02*
X25000000Y-85000000D01*
X85000000Y-43750000D02*
X85000000Y-25000000D01*
X27559745Y-47730083D02*
G75*
G03*
X25000000Y-51250000I1140255J-3519917D01*
G01*
M02*
