%TF.GenerationSoftware,KiCad,Pcbnew,7.0.1*%
%TF.CreationDate,2024-01-11T09:30:56-05:00*%
%TF.ProjectId,TacTile-D,54616354-696c-4652-9d44-2e6b69636164,rev?*%
%TF.SameCoordinates,Original*%
%TF.FileFunction,Soldermask,Top*%
%TF.FilePolarity,Negative*%
%FSLAX46Y46*%
G04 Gerber Fmt 4.6, Leading zero omitted, Abs format (unit mm)*
G04 Created by KiCad (PCBNEW 7.0.1) date 2024-01-11 09:30:56*
%MOMM*%
%LPD*%
G01*
G04 APERTURE LIST*
%ADD10R,1.700000X1.700000*%
%ADD11O,1.700000X1.700000*%
%ADD12R,1.600000X1.600000*%
%ADD13O,1.600000X1.600000*%
G04 APERTURE END LIST*
D10*
%TO.C,J1*%
X32200000Y-48675000D03*
D11*
X32200000Y-51215000D03*
X32200000Y-53755000D03*
X32200000Y-56295000D03*
X32200000Y-58835000D03*
X32200000Y-61375000D03*
%TD*%
D12*
%TO.C,U9*%
X36125000Y-64800000D03*
D13*
X38665000Y-64800000D03*
X41205000Y-64800000D03*
X43745000Y-64800000D03*
X46285000Y-64800000D03*
X48825000Y-64800000D03*
X51365000Y-64800000D03*
X53905000Y-64800000D03*
X53905000Y-57180000D03*
X51365000Y-57180000D03*
X48825000Y-57180000D03*
X46285000Y-57180000D03*
X43745000Y-57180000D03*
X41205000Y-57180000D03*
X38665000Y-57180000D03*
X36125000Y-57180000D03*
%TD*%
D10*
%TO.C,J2*%
X61325000Y-33200000D03*
D11*
X58785000Y-33200000D03*
X56245000Y-33200000D03*
X53705000Y-33200000D03*
X51165000Y-33200000D03*
X48625000Y-33200000D03*
%TD*%
D12*
%TO.C,U3*%
X28125000Y-75400000D03*
D13*
X30665000Y-75400000D03*
X33205000Y-75400000D03*
X35745000Y-75400000D03*
X38285000Y-75400000D03*
X40825000Y-75400000D03*
X43365000Y-75400000D03*
X45905000Y-75400000D03*
X45905000Y-67780000D03*
X43365000Y-67780000D03*
X40825000Y-67780000D03*
X38285000Y-67780000D03*
X35745000Y-67780000D03*
X33205000Y-67780000D03*
X30665000Y-67780000D03*
X28125000Y-67780000D03*
%TD*%
D10*
%TO.C,J3*%
X77825000Y-48650000D03*
D11*
X77825000Y-51190000D03*
X77825000Y-53730000D03*
X77825000Y-56270000D03*
X77825000Y-58810000D03*
X77825000Y-61350000D03*
%TD*%
D10*
%TO.C,J7*%
X35000000Y-26375000D03*
D11*
X37540000Y-26375000D03*
%TD*%
D12*
%TO.C,U7*%
X75640000Y-29860000D03*
D13*
X75640000Y-32400000D03*
X75640000Y-34940000D03*
X75640000Y-37480000D03*
X75640000Y-40020000D03*
X75640000Y-42560000D03*
X75640000Y-45100000D03*
X83260000Y-45100000D03*
X83260000Y-42560000D03*
X83260000Y-40020000D03*
X83260000Y-37480000D03*
X83260000Y-34940000D03*
X83260000Y-32400000D03*
X83260000Y-29860000D03*
%TD*%
D12*
%TO.C,U5*%
X44375000Y-51800000D03*
D13*
X46915000Y-51800000D03*
X49455000Y-51800000D03*
X51995000Y-51800000D03*
X54535000Y-51800000D03*
X57075000Y-51800000D03*
X59615000Y-51800000D03*
X59615000Y-44180000D03*
X57075000Y-44180000D03*
X54535000Y-44180000D03*
X51995000Y-44180000D03*
X49455000Y-44180000D03*
X46915000Y-44180000D03*
X44375000Y-44180000D03*
%TD*%
D10*
%TO.C,J5*%
X34000000Y-83625000D03*
D11*
X36540000Y-83625000D03*
X39080000Y-83625000D03*
X41620000Y-83625000D03*
%TD*%
D12*
%TO.C,U6*%
X65450000Y-29875000D03*
D13*
X65450000Y-32415000D03*
X65450000Y-34955000D03*
X65450000Y-37495000D03*
X65450000Y-40035000D03*
X65450000Y-42575000D03*
X65450000Y-45115000D03*
X73070000Y-45115000D03*
X73070000Y-42575000D03*
X73070000Y-40035000D03*
X73070000Y-37495000D03*
X73070000Y-34955000D03*
X73070000Y-32415000D03*
X73070000Y-29875000D03*
%TD*%
D10*
%TO.C,J8*%
X72460000Y-26375000D03*
D11*
X75000000Y-26375000D03*
%TD*%
D10*
%TO.C,J4*%
X61350000Y-78825000D03*
D11*
X58810000Y-78825000D03*
X56270000Y-78825000D03*
X53730000Y-78825000D03*
X51190000Y-78825000D03*
X48650000Y-78825000D03*
%TD*%
D12*
%TO.C,U1*%
X58125000Y-64800000D03*
D13*
X60665000Y-64800000D03*
X63205000Y-64800000D03*
X65745000Y-64800000D03*
X68285000Y-64800000D03*
X70825000Y-64800000D03*
X73365000Y-64800000D03*
X73365000Y-57180000D03*
X70825000Y-57180000D03*
X68285000Y-57180000D03*
X65745000Y-57180000D03*
X63205000Y-57180000D03*
X60665000Y-57180000D03*
X58125000Y-57180000D03*
%TD*%
D10*
%TO.C,J6*%
X65840000Y-83625000D03*
D11*
X68380000Y-83625000D03*
X70920000Y-83625000D03*
X73460000Y-83625000D03*
X76000000Y-83625000D03*
%TD*%
D12*
%TO.C,U2*%
X28175000Y-40300000D03*
D13*
X30715000Y-40300000D03*
X33255000Y-40300000D03*
X35795000Y-40300000D03*
X38335000Y-40300000D03*
X40875000Y-40300000D03*
X43415000Y-40300000D03*
X43415000Y-32680000D03*
X40875000Y-32680000D03*
X38335000Y-32680000D03*
X35795000Y-32680000D03*
X33255000Y-32680000D03*
X30715000Y-32680000D03*
X28175000Y-32680000D03*
%TD*%
D12*
%TO.C,U4*%
X64125000Y-75370000D03*
D13*
X66665000Y-75370000D03*
X69205000Y-75370000D03*
X71745000Y-75370000D03*
X74285000Y-75370000D03*
X76825000Y-75370000D03*
X79365000Y-75370000D03*
X81905000Y-75370000D03*
X81905000Y-67750000D03*
X79365000Y-67750000D03*
X76825000Y-67750000D03*
X74285000Y-67750000D03*
X71745000Y-67750000D03*
X69205000Y-67750000D03*
X66665000Y-67750000D03*
X64125000Y-67750000D03*
%TD*%
M02*
