%TF.GenerationSoftware,KiCad,Pcbnew,7.0.1*%
%TF.CreationDate,2023-08-14T10:43:38-04:00*%
%TF.ProjectId,TacTile-D,54616354-696c-4652-9d44-2e6b69636164,rev?*%
%TF.SameCoordinates,Original*%
%TF.FileFunction,Copper,L2,Bot*%
%TF.FilePolarity,Positive*%
%FSLAX46Y46*%
G04 Gerber Fmt 4.6, Leading zero omitted, Abs format (unit mm)*
G04 Created by KiCad (PCBNEW 7.0.1) date 2023-08-14 10:43:38*
%MOMM*%
%LPD*%
G01*
G04 APERTURE LIST*
%TA.AperFunction,ComponentPad*%
%ADD10R,1.600000X1.600000*%
%TD*%
%TA.AperFunction,ComponentPad*%
%ADD11O,1.600000X1.600000*%
%TD*%
%TA.AperFunction,ComponentPad*%
%ADD12R,1.350000X1.350000*%
%TD*%
%TA.AperFunction,ComponentPad*%
%ADD13O,1.350000X1.350000*%
%TD*%
%TA.AperFunction,ComponentPad*%
%ADD14R,1.000000X1.000000*%
%TD*%
%TA.AperFunction,ComponentPad*%
%ADD15O,1.000000X1.000000*%
%TD*%
%TA.AperFunction,ViaPad*%
%ADD16C,0.800000*%
%TD*%
%TA.AperFunction,Conductor*%
%ADD17C,0.250000*%
%TD*%
%TA.AperFunction,Conductor*%
%ADD18C,1.000000*%
%TD*%
G04 APERTURE END LIST*
D10*
%TO.P,U2,1*%
%TO.N,CLK*%
X51200000Y-67700000D03*
D11*
%TO.P,U2,2,GND*%
%TO.N,GND*%
X51200000Y-70240000D03*
%TO.P,U2,3*%
%TO.N,Net-(U3-QD)*%
X51200000Y-72780000D03*
%TO.P,U2,4*%
%TO.N,LEN*%
X58820000Y-72780000D03*
%TO.P,U2,5,VCC*%
%TO.N,VCC*%
X58820000Y-70240000D03*
%TO.P,U2,6*%
%TO.N,Net-(U4-CPR)*%
X58820000Y-67700000D03*
%TD*%
D12*
%TO.P,J1,1,Pin_1*%
%TO.N,CLK*%
X31100000Y-60000000D03*
D13*
%TO.P,J1,2,Pin_2*%
%TO.N,MOSI*%
X31100000Y-58000000D03*
%TO.P,J1,3,Pin_3*%
%TO.N,SS*%
X31100000Y-56000000D03*
%TO.P,J1,4,Pin_4*%
%TO.N,VIN*%
X31100000Y-54000000D03*
%TO.P,J1,5,Pin_5*%
%TO.N,VCC*%
X31100000Y-52000000D03*
%TO.P,J1,6,Pin_6*%
%TO.N,GND*%
X31100000Y-50000000D03*
%TD*%
D10*
%TO.P,U7,1*%
%TO.N,Net-(U6B-~{R})*%
X34700000Y-51200000D03*
D11*
%TO.P,U7,2*%
%TO.N,Net-(U6B-~{Q})*%
X34700000Y-53740000D03*
%TO.P,U7,3*%
%TO.N,Net-(U6B-~{S})*%
X34700000Y-56280000D03*
%TO.P,U7,4,GND*%
%TO.N,GND*%
X34700000Y-58820000D03*
%TO.P,U7,5*%
%TO.N,Net-(U5-Pad7)*%
X42320000Y-58820000D03*
%TO.P,U7,6*%
%TO.N,Net-(U10-LE)*%
X42320000Y-56280000D03*
%TO.P,U7,7*%
%TO.N,Net-(U6A-~{R})*%
X42320000Y-53740000D03*
%TO.P,U7,8,VCC*%
%TO.N,VCC*%
X42320000Y-51200000D03*
%TD*%
D12*
%TO.P,J2,1,Pin_1*%
%TO.N,CLK*%
X50000000Y-31100000D03*
D13*
%TO.P,J2,2,Pin_2*%
%TO.N,MOSI*%
X52000000Y-31100000D03*
%TO.P,J2,3,Pin_3*%
%TO.N,SS*%
X54000000Y-31100000D03*
%TO.P,J2,4,Pin_4*%
%TO.N,VIN*%
X56000000Y-31100000D03*
%TO.P,J2,5,Pin_5*%
%TO.N,VCC*%
X58000000Y-31100000D03*
%TO.P,J2,6,Pin_6*%
%TO.N,GND*%
X60000000Y-31100000D03*
%TD*%
D10*
%TO.P,U3,1,QB*%
%TO.N,LS1*%
X28600000Y-75300000D03*
D11*
%TO.P,U3,2,QC*%
%TO.N,LS2*%
X31140000Y-75300000D03*
%TO.P,U3,3,QD*%
%TO.N,Net-(U3-QD)*%
X33680000Y-75300000D03*
%TO.P,U3,4,QE*%
%TO.N,unconnected-(U3-QE-Pad4)*%
X36220000Y-75300000D03*
%TO.P,U3,5,QF*%
%TO.N,unconnected-(U3-QF-Pad5)*%
X38760000Y-75300000D03*
%TO.P,U3,6,QG*%
%TO.N,unconnected-(U3-QG-Pad6)*%
X41300000Y-75300000D03*
%TO.P,U3,7,QH*%
%TO.N,unconnected-(U3-QH-Pad7)*%
X43840000Y-75300000D03*
%TO.P,U3,8,GND*%
%TO.N,GND*%
X46380000Y-75300000D03*
%TO.P,U3,9,QH'*%
%TO.N,unconnected-(U3-QH'-Pad9)*%
X46380000Y-67680000D03*
%TO.P,U3,10,~{SRCLR}*%
%TO.N,SEN*%
X43840000Y-67680000D03*
%TO.P,U3,11,SRCLK*%
%TO.N,CLK*%
X41300000Y-67680000D03*
%TO.P,U3,12,RCLK*%
%TO.N,Net-(U3-RCLK)*%
X38760000Y-67680000D03*
%TO.P,U3,13,~{OE}*%
%TO.N,GND*%
X36220000Y-67680000D03*
%TO.P,U3,14,SER*%
%TO.N,MOSI*%
X33680000Y-67680000D03*
%TO.P,U3,15,QA*%
%TO.N,LS0*%
X31140000Y-67680000D03*
%TO.P,U3,16,VCC*%
%TO.N,VCC*%
X28600000Y-67680000D03*
%TD*%
D12*
%TO.P,J3,1,Pin_1*%
%TO.N,CLK*%
X79675000Y-60000000D03*
D13*
%TO.P,J3,2,Pin_2*%
%TO.N,MISO0*%
X79675000Y-58000000D03*
%TO.P,J3,3,Pin_3*%
%TO.N,SS*%
X79675000Y-56000000D03*
%TO.P,J3,4,Pin_4*%
%TO.N,VIN*%
X79675000Y-54000000D03*
%TO.P,J3,5,Pin_5*%
%TO.N,VCC*%
X79675000Y-52000000D03*
%TO.P,J3,6,Pin_6*%
%TO.N,GND*%
X79675000Y-50000000D03*
%TD*%
D14*
%TO.P,J7,1,Pin_1*%
%TO.N,VIN*%
X35000000Y-26325000D03*
D15*
%TO.P,J7,2,Pin_2*%
%TO.N,GND*%
X36270000Y-26325000D03*
%TD*%
D10*
%TO.P,U1,1*%
%TO.N,Net-(U4-Q0)*%
X68450000Y-51200000D03*
D11*
%TO.P,U1,2*%
%TO.N,Net-(U4-Q1)*%
X68450000Y-53740000D03*
%TO.P,U1,3*%
%TO.N,Net-(U11-C)*%
X68450000Y-56280000D03*
%TO.P,U1,4,GND*%
%TO.N,GND*%
X68450000Y-58820000D03*
%TO.P,U1,5*%
%TO.N,Net-(U6A-~{Q})*%
X76070000Y-58820000D03*
%TO.P,U1,6*%
%TO.N,MOSI*%
X76070000Y-56280000D03*
%TO.P,U1,7*%
%TO.N,Net-(U3-RCLK)*%
X76070000Y-53740000D03*
%TO.P,U1,8,VCC*%
%TO.N,VCC*%
X76070000Y-51200000D03*
%TD*%
D10*
%TO.P,U6,1,~{R}*%
%TO.N,Net-(U6A-~{R})*%
X44125000Y-35250000D03*
D11*
%TO.P,U6,2,D*%
%TO.N,Net-(U6A-D)*%
X41585000Y-35250000D03*
%TO.P,U6,3,C*%
%TO.N,Net-(U6A-C)*%
X39045000Y-35250000D03*
%TO.P,U6,4,~{S}*%
%TO.N,GND*%
X36505000Y-35250000D03*
%TO.P,U6,5,Q*%
%TO.N,Net-(U10-LE)*%
X33965000Y-35250000D03*
%TO.P,U6,6,~{Q}*%
%TO.N,Net-(U6A-~{Q})*%
X31425000Y-35250000D03*
%TO.P,U6,7,GND*%
%TO.N,GND*%
X28885000Y-35250000D03*
%TO.P,U6,8,~{Q}*%
%TO.N,Net-(U6B-~{Q})*%
X28885000Y-42870000D03*
%TO.P,U6,9,Q*%
%TO.N,SEN*%
X31425000Y-42870000D03*
%TO.P,U6,10,~{S}*%
%TO.N,Net-(U6B-~{S})*%
X33965000Y-42870000D03*
%TO.P,U6,11,C*%
%TO.N,GND*%
X36505000Y-42870000D03*
%TO.P,U6,12,D*%
X39045000Y-42870000D03*
%TO.P,U6,13,~{R}*%
%TO.N,Net-(U6B-~{R})*%
X41585000Y-42870000D03*
%TO.P,U6,14,VCC*%
%TO.N,VCC*%
X44125000Y-42870000D03*
%TD*%
D14*
%TO.P,J5,1,Pin_1*%
%TO.N,LS0*%
X35000000Y-83575000D03*
D15*
%TO.P,J5,2,Pin_2*%
%TO.N,LS1*%
X36270000Y-83575000D03*
%TO.P,J5,3,Pin_3*%
%TO.N,LS2*%
X37540000Y-83575000D03*
%TO.P,J5,4,Pin_4*%
%TO.N,LS3*%
X38810000Y-83575000D03*
%TD*%
D14*
%TO.P,J8,1,Pin_1*%
%TO.N,VCC*%
X73730000Y-26325000D03*
D15*
%TO.P,J8,2,Pin_2*%
%TO.N,LEN*%
X75000000Y-26325000D03*
%TD*%
D10*
%TO.P,U8,1*%
%TO.N,Net-(U11-Q)*%
X48950000Y-37700000D03*
D11*
%TO.P,U8,2,GND*%
%TO.N,GND*%
X48950000Y-40240000D03*
%TO.P,U8,3*%
%TO.N,Net-(U10-Q)*%
X48950000Y-42780000D03*
%TO.P,U8,4*%
%TO.N,MISO1*%
X56570000Y-42780000D03*
%TO.P,U8,5,VCC*%
%TO.N,VCC*%
X56570000Y-40240000D03*
%TO.P,U8,6*%
%TO.N,MISO0*%
X56570000Y-37700000D03*
%TD*%
D10*
%TO.P,U5,1*%
%TO.N,MOSI*%
X45950000Y-51200000D03*
D11*
%TO.P,U5,2*%
%TO.N,CLK*%
X45950000Y-53740000D03*
%TO.P,U5,3*%
%TO.N,Net-(U6B-~{R})*%
X45950000Y-56280000D03*
%TO.P,U5,4,GND*%
%TO.N,GND*%
X45950000Y-58820000D03*
%TO.P,U5,5*%
%TO.N,CLK*%
X53570000Y-58820000D03*
%TO.P,U5,6*%
%TO.N,SS*%
X53570000Y-56280000D03*
%TO.P,U5,7*%
%TO.N,Net-(U5-Pad7)*%
X53570000Y-53740000D03*
%TO.P,U5,8,VCC*%
%TO.N,VCC*%
X53570000Y-51200000D03*
%TD*%
D12*
%TO.P,J4,1,Pin_1*%
%TO.N,CLK*%
X50000000Y-79675000D03*
D13*
%TO.P,J4,2,Pin_2*%
%TO.N,MISO1*%
X52000000Y-79675000D03*
%TO.P,J4,3,Pin_3*%
%TO.N,SS*%
X54000000Y-79675000D03*
%TO.P,J4,4,Pin_4*%
%TO.N,VIN*%
X56000000Y-79675000D03*
%TO.P,J4,5,Pin_5*%
%TO.N,VCC*%
X58000000Y-79675000D03*
%TO.P,J4,6,Pin_6*%
%TO.N,GND*%
X60000000Y-79675000D03*
%TD*%
D14*
%TO.P,J6,1,Pin_1*%
%TO.N,LS4*%
X69920000Y-83575000D03*
D15*
%TO.P,J6,2,Pin_2*%
%TO.N,LS5*%
X71190000Y-83575000D03*
%TO.P,J6,3,Pin_3*%
%TO.N,LS6*%
X72460000Y-83575000D03*
%TO.P,J6,4,Pin_4*%
%TO.N,LS7*%
X73730000Y-83575000D03*
%TO.P,J6,5,Pin_5*%
%TO.N,LS8*%
X75000000Y-83575000D03*
%TD*%
D10*
%TO.P,U10,1,LE*%
%TO.N,Net-(U10-LE)*%
X73700000Y-37700000D03*
D11*
%TO.P,U10,2,GND*%
%TO.N,GND*%
X73700000Y-40240000D03*
%TO.P,U10,3,D*%
%TO.N,MOSI*%
X73700000Y-42780000D03*
%TO.P,U10,4,Q*%
%TO.N,Net-(U10-Q)*%
X81320000Y-42780000D03*
%TO.P,U10,5,VCC*%
%TO.N,VCC*%
X81320000Y-40240000D03*
%TO.P,U10,6,~{OE}*%
%TO.N,GND*%
X81320000Y-37700000D03*
%TD*%
D10*
%TO.P,U4,1,Q1*%
%TO.N,Net-(U4-Q1)*%
X63600000Y-75300000D03*
D11*
%TO.P,U4,2,Q2*%
%TO.N,LS3*%
X66140000Y-75300000D03*
%TO.P,U4,3,Q3*%
%TO.N,LS4*%
X68680000Y-75300000D03*
%TO.P,U4,4,Q4*%
%TO.N,LS5*%
X71220000Y-75300000D03*
%TO.P,U4,5,Q5*%
%TO.N,LS6*%
X73760000Y-75300000D03*
%TO.P,U4,6,Q6*%
%TO.N,LS7*%
X76300000Y-75300000D03*
%TO.P,U4,7,Q7*%
%TO.N,LS8*%
X78840000Y-75300000D03*
%TO.P,U4,8,GND*%
%TO.N,GND*%
X81380000Y-75300000D03*
%TO.P,U4,9,~{RCO}*%
%TO.N,unconnected-(U4-~{RCO}-Pad9)*%
X81380000Y-67680000D03*
%TO.P,U4,10,~{MRC}*%
%TO.N,SEN*%
X78840000Y-67680000D03*
%TO.P,U4,11,CPC*%
%TO.N,CLK*%
X76300000Y-67680000D03*
%TO.P,U4,12,~{CE}*%
%TO.N,GND*%
X73760000Y-67680000D03*
%TO.P,U4,13,CPR*%
%TO.N,Net-(U4-CPR)*%
X71220000Y-67680000D03*
%TO.P,U4,14,~{OE}*%
%TO.N,GND*%
X68680000Y-67680000D03*
%TO.P,U4,15,Q0*%
%TO.N,Net-(U4-Q0)*%
X66140000Y-67680000D03*
%TO.P,U4,16,VCC*%
%TO.N,VCC*%
X63600000Y-67680000D03*
%TD*%
D10*
%TO.P,U9,1*%
%TO.N,Net-(U6A-C)*%
X61450000Y-37700000D03*
D11*
%TO.P,U9,2,GND*%
%TO.N,GND*%
X61450000Y-40240000D03*
%TO.P,U9,3*%
%TO.N,Net-(U11-C)*%
X61450000Y-42780000D03*
%TO.P,U9,4*%
%TO.N,Net-(U6A-C)*%
X69070000Y-42780000D03*
%TO.P,U9,5,VCC*%
%TO.N,VCC*%
X69070000Y-40240000D03*
%TO.P,U9,6*%
%TO.N,Net-(U6A-D)*%
X69070000Y-37700000D03*
%TD*%
D10*
%TO.P,U11,1,C*%
%TO.N,Net-(U11-C)*%
X57200000Y-51200000D03*
D11*
%TO.P,U11,2,D*%
%TO.N,SS*%
X57200000Y-53740000D03*
%TO.P,U11,3,~{Q}*%
%TO.N,unconnected-(U11-~{Q}-Pad3)*%
X57200000Y-56280000D03*
%TO.P,U11,4,GND*%
%TO.N,GND*%
X57200000Y-58820000D03*
%TO.P,U11,5,Q*%
%TO.N,Net-(U11-Q)*%
X64820000Y-58820000D03*
%TO.P,U11,6,~{CLR}*%
%TO.N,GND*%
X64820000Y-56280000D03*
%TO.P,U11,7,~{PRE}*%
X64820000Y-53740000D03*
%TO.P,U11,8,VCC*%
%TO.N,VCC*%
X64820000Y-51200000D03*
%TD*%
D16*
%TO.N,CLK*%
X51750000Y-54000000D03*
%TO.N,MOSI*%
X52000000Y-44500000D03*
%TO.N,SS*%
X44025500Y-54958196D03*
X46750000Y-55000000D03*
%TO.N,VCC*%
X53970500Y-40250000D03*
%TO.N,MISO0*%
X55419500Y-45949500D03*
X78750000Y-46000000D03*
%TO.N,MISO1*%
X53250000Y-60750000D03*
X55500000Y-60750000D03*
%TO.N,Net-(U11-C)*%
X67481012Y-52730213D03*
%TO.N,Net-(U6A-~{Q})*%
X38250000Y-44750000D03*
X74500000Y-46750000D03*
%TO.N,Net-(U3-RCLK)*%
X69750000Y-65250000D03*
%TO.N,Net-(U6B-~{R})*%
X41000000Y-49747701D03*
%TO.N,Net-(U5-Pad7)*%
X52512299Y-57737701D03*
%TO.N,Net-(U6A-C)*%
X62849130Y-42747712D03*
%TO.N,Net-(U10-LE)*%
X40250000Y-44500000D03*
X75000000Y-45250000D03*
%TO.N,Net-(U11-Q)*%
X50000000Y-47474500D03*
X66000000Y-49250000D03*
%TD*%
D17*
%TO.N,CLK*%
X44825000Y-52615000D02*
X44825000Y-43925000D01*
X76300000Y-63375000D02*
X79675000Y-60000000D01*
X41300000Y-67680000D02*
X33620000Y-60000000D01*
X50000000Y-68900000D02*
X51200000Y-67700000D01*
X52570000Y-58820000D02*
X51750000Y-58000000D01*
X51200000Y-61190000D02*
X53570000Y-58820000D01*
X50000000Y-79675000D02*
X50000000Y-68900000D01*
X44825000Y-43925000D02*
X47825000Y-40925000D01*
X47825000Y-40925000D02*
X47825000Y-33275000D01*
X51200000Y-67700000D02*
X51200000Y-61190000D01*
X76300000Y-67680000D02*
X76300000Y-63375000D01*
X47825000Y-33275000D02*
X50000000Y-31100000D01*
X45950000Y-53740000D02*
X44825000Y-52615000D01*
X33620000Y-60000000D02*
X31100000Y-60000000D01*
X53570000Y-58820000D02*
X52570000Y-58820000D01*
X51750000Y-58000000D02*
X51750000Y-54000000D01*
%TO.N,MOSI*%
X52000000Y-31100000D02*
X52000000Y-44500000D01*
X30100000Y-59000000D02*
X31100000Y-58000000D01*
X33680000Y-67680000D02*
X30100000Y-64100000D01*
X76070000Y-56280000D02*
X73700000Y-53910000D01*
X45950000Y-51200000D02*
X47300000Y-51200000D01*
X47300000Y-51200000D02*
X52000000Y-46500000D01*
X52000000Y-46500000D02*
X52000000Y-44500000D01*
X30100000Y-64100000D02*
X30100000Y-59000000D01*
X73700000Y-53910000D02*
X73700000Y-42780000D01*
%TO.N,SS*%
X54695000Y-57405000D02*
X53570000Y-56280000D01*
X54000000Y-79675000D02*
X54695000Y-78980000D01*
X44067304Y-55000000D02*
X46750000Y-55000000D01*
X44025500Y-54958196D02*
X44067304Y-55000000D01*
X54695000Y-31795000D02*
X54000000Y-31100000D01*
X53570000Y-56280000D02*
X54695000Y-55155000D01*
X54695000Y-55155000D02*
X54695000Y-31795000D01*
X54695000Y-78980000D02*
X54695000Y-57405000D01*
D18*
%TO.N,VIN*%
X79675000Y-54000000D02*
X79750000Y-54000000D01*
D17*
%TO.N,VCC*%
X63600000Y-52420000D02*
X63600000Y-67680000D01*
X64820000Y-51200000D02*
X63600000Y-52420000D01*
X73730000Y-26325000D02*
X73730000Y-32770000D01*
X28600000Y-54500000D02*
X28600000Y-67680000D01*
X58820000Y-70240000D02*
X57695000Y-71365000D01*
X70195000Y-36305000D02*
X70195000Y-39115000D01*
X31100000Y-52000000D02*
X28600000Y-54500000D01*
X58000000Y-38810000D02*
X56570000Y-40240000D01*
X70195000Y-39115000D02*
X69070000Y-40240000D01*
X73730000Y-32770000D02*
X70195000Y-36305000D01*
X57695000Y-79370000D02*
X58000000Y-79675000D01*
X58000000Y-31100000D02*
X58000000Y-38810000D01*
X53970500Y-40250000D02*
X53570000Y-40650500D01*
X57695000Y-71365000D02*
X57695000Y-79370000D01*
X53570000Y-40650500D02*
X53570000Y-51200000D01*
%TO.N,MISO0*%
X55419500Y-38850500D02*
X56570000Y-37700000D01*
X55419500Y-45949500D02*
X55419500Y-38850500D01*
X79675000Y-58000000D02*
X78675000Y-57000000D01*
X78675000Y-46075000D02*
X78750000Y-46000000D01*
X78675000Y-57000000D02*
X78675000Y-46075000D01*
%TO.N,MISO1*%
X52325000Y-61675000D02*
X53250000Y-60750000D01*
X55500000Y-60750000D02*
X55145000Y-60395000D01*
X55145000Y-60395000D02*
X55145000Y-47249305D01*
X52000000Y-79675000D02*
X52325000Y-79350000D01*
X56570000Y-45824305D02*
X56570000Y-42780000D01*
X55145000Y-47249305D02*
X56570000Y-45824305D01*
X52325000Y-79350000D02*
X52325000Y-61675000D01*
%TO.N,LS0*%
X34250000Y-83575000D02*
X27475000Y-76800000D01*
X35000000Y-83575000D02*
X34250000Y-83575000D01*
X27475000Y-71345000D02*
X31140000Y-67680000D01*
X27475000Y-76800000D02*
X27475000Y-71345000D01*
%TO.N,LS1*%
X28702106Y-75300000D02*
X28600000Y-75300000D01*
X36270000Y-82867894D02*
X28702106Y-75300000D01*
X36270000Y-83575000D02*
X36270000Y-82867894D01*
%TO.N,LS2*%
X37540000Y-83575000D02*
X37540000Y-81700000D01*
X37540000Y-81700000D02*
X31140000Y-75300000D01*
%TO.N,LS3*%
X58996370Y-83575000D02*
X38810000Y-83575000D01*
X66140000Y-76431370D02*
X58996370Y-83575000D01*
X66140000Y-75300000D02*
X66140000Y-76431370D01*
%TO.N,LS4*%
X69920000Y-76540000D02*
X68680000Y-75300000D01*
X69920000Y-83575000D02*
X69920000Y-76540000D01*
%TO.N,LS5*%
X71190000Y-75330000D02*
X71220000Y-75300000D01*
X71190000Y-83575000D02*
X71190000Y-75330000D01*
%TO.N,LS6*%
X72460000Y-76600000D02*
X73760000Y-75300000D01*
X72460000Y-83575000D02*
X72460000Y-76600000D01*
%TO.N,LS7*%
X73730000Y-83575000D02*
X73730000Y-77870000D01*
X73730000Y-77870000D02*
X76300000Y-75300000D01*
%TO.N,LS8*%
X75000000Y-83575000D02*
X75000000Y-79140000D01*
X75000000Y-79140000D02*
X78840000Y-75300000D01*
%TO.N,LEN*%
X72500000Y-40940991D02*
X72500000Y-34636396D01*
X58820000Y-72780000D02*
X62475000Y-69125000D01*
X62475000Y-50965991D02*
X72500000Y-40940991D01*
X72500000Y-34636396D02*
X75000000Y-32136396D01*
X62475000Y-69125000D02*
X62475000Y-50965991D01*
X75000000Y-32136396D02*
X75000000Y-26325000D01*
%TO.N,Net-(U4-Q0)*%
X66756012Y-67063988D02*
X66756012Y-52429908D01*
X66756012Y-52429908D02*
X67985920Y-51200000D01*
X67985920Y-51200000D02*
X68450000Y-51200000D01*
X66140000Y-67680000D02*
X66756012Y-67063988D01*
%TO.N,Net-(U4-Q1)*%
X63600000Y-75300000D02*
X67265000Y-71635000D01*
X67265000Y-71635000D02*
X67265000Y-61595991D01*
X69575000Y-59285991D02*
X69575000Y-54865000D01*
X67265000Y-61595991D02*
X69575000Y-59285991D01*
X69575000Y-54865000D02*
X68450000Y-53740000D01*
%TO.N,Net-(U11-C)*%
X67481012Y-52730213D02*
X67325000Y-52886225D01*
X67325000Y-55155000D02*
X68450000Y-56280000D01*
X61450000Y-42780000D02*
X61450000Y-46950000D01*
X67325000Y-52886225D02*
X67325000Y-55155000D01*
X61450000Y-46950000D02*
X57200000Y-51200000D01*
%TO.N,Net-(U6A-~{Q})*%
X37630000Y-41455000D02*
X31425000Y-35250000D01*
X78225000Y-56665000D02*
X78225000Y-50475000D01*
X78225000Y-50475000D02*
X74500000Y-46750000D01*
X76070000Y-58820000D02*
X78225000Y-56665000D01*
X37630000Y-44130000D02*
X37630000Y-41455000D01*
X38250000Y-44750000D02*
X37630000Y-44130000D01*
%TO.N,Net-(U3-RCLK)*%
X75894009Y-57405000D02*
X76595000Y-57405000D01*
X76595000Y-57405000D02*
X77195000Y-56805000D01*
X77195000Y-56805000D02*
X77195000Y-54865000D01*
X69750000Y-65250000D02*
X69750000Y-63549009D01*
X77195000Y-54865000D02*
X76070000Y-53740000D01*
X69750000Y-63549009D02*
X75894009Y-57405000D01*
%TO.N,SEN*%
X40050000Y-51495000D02*
X31425000Y-42870000D01*
X40050000Y-63890000D02*
X40050000Y-51495000D01*
X43840000Y-67680000D02*
X40050000Y-63890000D01*
%TO.N,Net-(U6B-~{R})*%
X41000000Y-49747701D02*
X41000000Y-54010991D01*
X41500000Y-49247701D02*
X41500000Y-42955000D01*
X41000000Y-49747701D02*
X41500000Y-49247701D01*
X43196999Y-55155000D02*
X44321999Y-56280000D01*
X41000000Y-54010991D02*
X42144009Y-55155000D01*
X41500000Y-42955000D02*
X41585000Y-42870000D01*
X44321999Y-56280000D02*
X45950000Y-56280000D01*
X42144009Y-55155000D02*
X43196999Y-55155000D01*
%TO.N,Net-(U5-Pad7)*%
X52512299Y-57737701D02*
X52445000Y-57670402D01*
X52445000Y-57670402D02*
X52445000Y-54865000D01*
X52445000Y-54865000D02*
X53570000Y-53740000D01*
%TO.N,Net-(U6A-~{R})*%
X43500000Y-52560000D02*
X43500000Y-43835991D01*
X43000000Y-36375000D02*
X44125000Y-35250000D01*
X43000000Y-43335991D02*
X43000000Y-36375000D01*
X43500000Y-43835991D02*
X43000000Y-43335991D01*
X42320000Y-53740000D02*
X43500000Y-52560000D01*
%TO.N,Net-(U6A-C)*%
X61450000Y-37700000D02*
X62849130Y-39099130D01*
X62849130Y-39099130D02*
X62849130Y-42747712D01*
%TO.N,Net-(U10-LE)*%
X40500000Y-54460000D02*
X40500000Y-51308604D01*
X40500000Y-51308604D02*
X40250000Y-51058604D01*
X40250000Y-41535000D02*
X33965000Y-35250000D01*
X40250000Y-51058604D02*
X40250000Y-44500000D01*
X42320000Y-56280000D02*
X40500000Y-54460000D01*
X75000000Y-45250000D02*
X75000000Y-39000000D01*
X40250000Y-44500000D02*
X40250000Y-41535000D01*
X75000000Y-39000000D02*
X73700000Y-37700000D01*
%TO.N,Net-(U6B-~{Q})*%
X34700000Y-53740000D02*
X32100000Y-51140000D01*
X32100000Y-46085000D02*
X28885000Y-42870000D01*
X32100000Y-51140000D02*
X32100000Y-46085000D01*
%TO.N,Net-(U6B-~{S})*%
X30250000Y-42454009D02*
X30959009Y-41745000D01*
X35825000Y-55155000D02*
X35825000Y-48860991D01*
X34700000Y-56280000D02*
X35825000Y-55155000D01*
X35825000Y-48860991D02*
X30250000Y-43285991D01*
X32840000Y-41745000D02*
X33965000Y-42870000D01*
X30250000Y-43285991D02*
X30250000Y-42454009D01*
X30959009Y-41745000D02*
X32840000Y-41745000D01*
%TO.N,Net-(U11-Q)*%
X50000000Y-47474500D02*
X50075000Y-47399500D01*
X50075000Y-38825000D02*
X48950000Y-37700000D01*
X50075000Y-47399500D02*
X50075000Y-38825000D01*
X66000000Y-57640000D02*
X64820000Y-58820000D01*
X66000000Y-49250000D02*
X66000000Y-57640000D01*
%TD*%
%TA.AperFunction,Conductor*%
%TO.N,GND*%
G36*
X67243830Y-55553269D02*
G01*
X67293193Y-55583519D01*
X67488126Y-55778452D01*
X67520729Y-55836003D01*
X67519106Y-55902128D01*
X67463975Y-56083869D01*
X67444659Y-56279999D01*
X67463976Y-56476133D01*
X67521185Y-56664726D01*
X67577355Y-56769812D01*
X67614090Y-56838538D01*
X67739117Y-56990883D01*
X67891462Y-57115910D01*
X68065273Y-57208814D01*
X68253868Y-57266024D01*
X68450000Y-57285341D01*
X68646132Y-57266024D01*
X68834727Y-57208814D01*
X69008538Y-57115910D01*
X69046835Y-57084479D01*
X69110321Y-57057266D01*
X69178517Y-57068238D01*
X69230262Y-57113993D01*
X69249500Y-57180333D01*
X69249500Y-57855630D01*
X69230262Y-57921970D01*
X69178517Y-57967725D01*
X69110321Y-57978697D01*
X69046835Y-57951483D01*
X69036171Y-57942731D01*
X68853764Y-57845233D01*
X68700000Y-57798590D01*
X68700000Y-58946000D01*
X68683387Y-59008000D01*
X68638000Y-59053387D01*
X68576000Y-59070000D01*
X67428590Y-59070000D01*
X67475233Y-59223764D01*
X67572731Y-59406171D01*
X67703945Y-59566054D01*
X67863828Y-59697268D01*
X68046235Y-59794766D01*
X68244165Y-59854808D01*
X68257891Y-59856160D01*
X68322026Y-59881808D01*
X68362489Y-59937788D01*
X68366725Y-60006731D01*
X68333419Y-60067244D01*
X67293193Y-61107472D01*
X67243830Y-61137722D01*
X67186114Y-61142264D01*
X67132627Y-61120109D01*
X67095027Y-61076086D01*
X67081512Y-61019791D01*
X67081512Y-58570000D01*
X67428590Y-58570000D01*
X68200000Y-58570000D01*
X68200000Y-57798590D01*
X68046235Y-57845233D01*
X67863828Y-57942731D01*
X67703945Y-58073945D01*
X67572731Y-58233828D01*
X67475233Y-58416235D01*
X67428590Y-58570000D01*
X67081512Y-58570000D01*
X67081512Y-55671200D01*
X67095027Y-55614905D01*
X67132627Y-55570882D01*
X67186114Y-55548727D01*
X67243830Y-55553269D01*
G37*
%TD.AperFunction*%
%TA.AperFunction,Conductor*%
G36*
X65603516Y-51943100D02*
G01*
X65655262Y-51988855D01*
X65674500Y-52055195D01*
X65674500Y-52820767D01*
X65655262Y-52887107D01*
X65603517Y-52932862D01*
X65535321Y-52943834D01*
X65471835Y-52916620D01*
X65406171Y-52862731D01*
X65223764Y-52765233D01*
X65070000Y-52718590D01*
X65070000Y-54761410D01*
X65223764Y-54714766D01*
X65406171Y-54617268D01*
X65471835Y-54563380D01*
X65535321Y-54536166D01*
X65603517Y-54547138D01*
X65655262Y-54592893D01*
X65674500Y-54659233D01*
X65674500Y-55360767D01*
X65655262Y-55427107D01*
X65603517Y-55472862D01*
X65535321Y-55483834D01*
X65471835Y-55456620D01*
X65406171Y-55402731D01*
X65223764Y-55305233D01*
X65070000Y-55258590D01*
X65070000Y-57301410D01*
X65223764Y-57254766D01*
X65406171Y-57157268D01*
X65471835Y-57103380D01*
X65535321Y-57076166D01*
X65603517Y-57087138D01*
X65655262Y-57132893D01*
X65674500Y-57199233D01*
X65674500Y-57453812D01*
X65665061Y-57501265D01*
X65638183Y-57541490D01*
X65399989Y-57779684D01*
X65321546Y-57858127D01*
X65263994Y-57890729D01*
X65197870Y-57889106D01*
X65016130Y-57833975D01*
X64820000Y-57814659D01*
X64623866Y-57833976D01*
X64435273Y-57891185D01*
X64261463Y-57984089D01*
X64261461Y-57984090D01*
X64261462Y-57984090D01*
X64149651Y-58075852D01*
X64128165Y-58093485D01*
X64064679Y-58120699D01*
X63996483Y-58109727D01*
X63944738Y-58063972D01*
X63925500Y-57997632D01*
X63925500Y-57166405D01*
X63944738Y-57100065D01*
X63996483Y-57054310D01*
X64064679Y-57043338D01*
X64128165Y-57070552D01*
X64233828Y-57157268D01*
X64416235Y-57254766D01*
X64570000Y-57301410D01*
X64570000Y-55258590D01*
X64416235Y-55305233D01*
X64233828Y-55402731D01*
X64128165Y-55489448D01*
X64064679Y-55516662D01*
X63996483Y-55505690D01*
X63944738Y-55459935D01*
X63925500Y-55393595D01*
X63925500Y-54626405D01*
X63944738Y-54560065D01*
X63996483Y-54514310D01*
X64064679Y-54503338D01*
X64128165Y-54530552D01*
X64233828Y-54617268D01*
X64416235Y-54714766D01*
X64570000Y-54761410D01*
X64570000Y-52718590D01*
X64416235Y-52765233D01*
X64233828Y-52862731D01*
X64128165Y-52949448D01*
X64064679Y-52976662D01*
X63996483Y-52965690D01*
X63944738Y-52919935D01*
X63925500Y-52853595D01*
X63925500Y-52606188D01*
X63934939Y-52558735D01*
X63961819Y-52518507D01*
X64137967Y-52342359D01*
X64318452Y-52161872D01*
X64376004Y-52129270D01*
X64442126Y-52130892D01*
X64623868Y-52186024D01*
X64820000Y-52205341D01*
X65016132Y-52186024D01*
X65204727Y-52128814D01*
X65378538Y-52035910D01*
X65471836Y-51959341D01*
X65535320Y-51932128D01*
X65603516Y-51943100D01*
G37*
%TD.AperFunction*%
%TA.AperFunction,Conductor*%
G36*
X51937500Y-68717113D02*
G01*
X51982887Y-68762500D01*
X51999500Y-68824500D01*
X51999500Y-69275630D01*
X51980262Y-69341970D01*
X51928517Y-69387725D01*
X51860321Y-69398697D01*
X51796835Y-69371483D01*
X51786171Y-69362731D01*
X51603764Y-69265233D01*
X51450000Y-69218590D01*
X51450000Y-71261410D01*
X51603764Y-71214766D01*
X51786171Y-71117268D01*
X51796835Y-71108517D01*
X51860321Y-71081303D01*
X51928517Y-71092275D01*
X51980262Y-71138030D01*
X51999500Y-71204370D01*
X51999500Y-71879667D01*
X51980262Y-71946007D01*
X51928517Y-71991762D01*
X51860321Y-72002734D01*
X51796835Y-71975520D01*
X51758538Y-71944090D01*
X51736091Y-71932092D01*
X51584726Y-71851185D01*
X51396133Y-71793976D01*
X51200000Y-71774659D01*
X51003866Y-71793976D01*
X50815273Y-71851185D01*
X50641463Y-71944089D01*
X50641461Y-71944090D01*
X50641462Y-71944090D01*
X50528162Y-72037073D01*
X50464680Y-72064286D01*
X50396484Y-72053314D01*
X50344738Y-72007559D01*
X50325500Y-71941219D01*
X50325500Y-71142819D01*
X50344738Y-71076479D01*
X50396483Y-71030724D01*
X50464679Y-71019752D01*
X50528165Y-71046966D01*
X50613828Y-71117268D01*
X50796235Y-71214766D01*
X50950000Y-71261410D01*
X50950000Y-69218590D01*
X50796235Y-69265233D01*
X50613828Y-69362731D01*
X50528165Y-69433034D01*
X50464679Y-69460248D01*
X50396483Y-69449276D01*
X50344738Y-69403521D01*
X50325500Y-69337181D01*
X50325500Y-69086188D01*
X50334939Y-69038735D01*
X50361819Y-68998507D01*
X50623507Y-68736819D01*
X50663735Y-68709939D01*
X50711188Y-68700500D01*
X51875500Y-68700500D01*
X51937500Y-68717113D01*
G37*
%TD.AperFunction*%
%TA.AperFunction,Conductor*%
G36*
X49486264Y-38709939D02*
G01*
X49526492Y-38736819D01*
X49713181Y-38923508D01*
X49740061Y-38963736D01*
X49749500Y-39011189D01*
X49749500Y-39275630D01*
X49730262Y-39341970D01*
X49678517Y-39387725D01*
X49610321Y-39398697D01*
X49546835Y-39371483D01*
X49536171Y-39362731D01*
X49353764Y-39265233D01*
X49200000Y-39218590D01*
X49200000Y-41261410D01*
X49353764Y-41214766D01*
X49536171Y-41117268D01*
X49546835Y-41108517D01*
X49610321Y-41081303D01*
X49678517Y-41092275D01*
X49730262Y-41138030D01*
X49749500Y-41204370D01*
X49749500Y-41879667D01*
X49730262Y-41946007D01*
X49678517Y-41991762D01*
X49610321Y-42002734D01*
X49546835Y-41975520D01*
X49508538Y-41944090D01*
X49441254Y-41908126D01*
X49334726Y-41851185D01*
X49146133Y-41793976D01*
X48950000Y-41774659D01*
X48753866Y-41793976D01*
X48565273Y-41851185D01*
X48391463Y-41944089D01*
X48239117Y-42069117D01*
X48114089Y-42221463D01*
X48021185Y-42395273D01*
X47963976Y-42583866D01*
X47944659Y-42780000D01*
X47963976Y-42976133D01*
X48021185Y-43164726D01*
X48082126Y-43278738D01*
X48114090Y-43338538D01*
X48239117Y-43490883D01*
X48391462Y-43615910D01*
X48565273Y-43708814D01*
X48753868Y-43766024D01*
X48950000Y-43785341D01*
X49146132Y-43766024D01*
X49334727Y-43708814D01*
X49508538Y-43615910D01*
X49546835Y-43584479D01*
X49610321Y-43557266D01*
X49678517Y-43568238D01*
X49730262Y-43613993D01*
X49749500Y-43680333D01*
X49749500Y-46848651D01*
X49736712Y-46903495D01*
X49700986Y-46947027D01*
X49571717Y-47046217D01*
X49475463Y-47171659D01*
X49414956Y-47317737D01*
X49394317Y-47474499D01*
X49414956Y-47631262D01*
X49475463Y-47777340D01*
X49571717Y-47902782D01*
X49697159Y-47999036D01*
X49768581Y-48028620D01*
X49816982Y-48064516D01*
X49842746Y-48118989D01*
X49839790Y-48179176D01*
X49808810Y-48230862D01*
X47201493Y-50838181D01*
X47161265Y-50865061D01*
X47113812Y-50874500D01*
X47074500Y-50874500D01*
X47012500Y-50857887D01*
X46967113Y-50812500D01*
X46950500Y-50750500D01*
X46950500Y-50380251D01*
X46938867Y-50321769D01*
X46894552Y-50255447D01*
X46828230Y-50211132D01*
X46769749Y-50199500D01*
X46769748Y-50199500D01*
X45274500Y-50199500D01*
X45212500Y-50182887D01*
X45167113Y-50137500D01*
X45150500Y-50075500D01*
X45150500Y-44111188D01*
X45159939Y-44063735D01*
X45186819Y-44023507D01*
X45896331Y-43313995D01*
X48041290Y-41169034D01*
X48049258Y-41161734D01*
X48059134Y-41153448D01*
X48078194Y-41137455D01*
X48097091Y-41104722D01*
X48102880Y-41095635D01*
X48111722Y-41083009D01*
X48163768Y-41040457D01*
X48230374Y-41031320D01*
X48291958Y-41058285D01*
X48363829Y-41117268D01*
X48546235Y-41214766D01*
X48700000Y-41261410D01*
X48700000Y-39218590D01*
X48546235Y-39265233D01*
X48363828Y-39362731D01*
X48353165Y-39371483D01*
X48289679Y-39398697D01*
X48221483Y-39387725D01*
X48169738Y-39341970D01*
X48150500Y-39275630D01*
X48150500Y-38824500D01*
X48167113Y-38762500D01*
X48212500Y-38717113D01*
X48274500Y-38700500D01*
X49438811Y-38700500D01*
X49486264Y-38709939D01*
G37*
%TD.AperFunction*%
%TA.AperFunction,Conductor*%
G36*
X84837500Y-25017113D02*
G01*
X84882887Y-25062500D01*
X84899500Y-25124500D01*
X84899500Y-84775500D01*
X84882887Y-84837500D01*
X84837500Y-84882887D01*
X84775500Y-84899500D01*
X25124500Y-84899500D01*
X25062500Y-84882887D01*
X25017113Y-84837500D01*
X25000500Y-84775500D01*
X25000500Y-76828807D01*
X27145735Y-76828807D01*
X27155512Y-76865296D01*
X27157853Y-76875852D01*
X27164599Y-76914107D01*
X27174829Y-76938803D01*
X27175446Y-76939684D01*
X27197112Y-76970627D01*
X27202915Y-76979736D01*
X27221806Y-77012455D01*
X27250742Y-77036735D01*
X27258718Y-77044044D01*
X34005950Y-83791276D01*
X34013258Y-83799250D01*
X34037545Y-83828194D01*
X34061594Y-83842079D01*
X34070256Y-83847080D01*
X34079379Y-83852892D01*
X34110316Y-83874554D01*
X34110317Y-83874554D01*
X34111198Y-83875171D01*
X34135891Y-83885400D01*
X34136954Y-83885587D01*
X34136955Y-83885588D01*
X34174143Y-83892145D01*
X34184692Y-83894483D01*
X34207146Y-83900500D01*
X34207598Y-83900621D01*
X34255208Y-83925407D01*
X34287883Y-83967992D01*
X34299500Y-84020395D01*
X34299500Y-84094749D01*
X34311132Y-84153230D01*
X34355447Y-84219552D01*
X34421769Y-84263867D01*
X34480251Y-84275500D01*
X34480252Y-84275500D01*
X35519748Y-84275500D01*
X35519749Y-84275500D01*
X35548989Y-84269683D01*
X35578231Y-84263867D01*
X35644552Y-84219552D01*
X35675899Y-84172638D01*
X35729248Y-84127949D01*
X35798272Y-84119038D01*
X35861222Y-84148713D01*
X35869148Y-84155734D01*
X36019775Y-84234790D01*
X36184944Y-84275500D01*
X36355055Y-84275500D01*
X36355056Y-84275500D01*
X36520225Y-84234790D01*
X36670852Y-84155734D01*
X36798183Y-84042929D01*
X36802950Y-84036022D01*
X36847369Y-83996668D01*
X36904995Y-83982462D01*
X36962622Y-83996664D01*
X37007048Y-84036020D01*
X37011817Y-84042929D01*
X37139148Y-84155734D01*
X37289775Y-84234790D01*
X37454944Y-84275500D01*
X37625055Y-84275500D01*
X37625056Y-84275500D01*
X37790225Y-84234790D01*
X37940852Y-84155734D01*
X38068183Y-84042929D01*
X38072950Y-84036022D01*
X38117369Y-83996668D01*
X38174995Y-83982462D01*
X38232622Y-83996664D01*
X38277048Y-84036020D01*
X38281817Y-84042929D01*
X38409148Y-84155734D01*
X38559775Y-84234790D01*
X38724944Y-84275500D01*
X38895055Y-84275500D01*
X38895056Y-84275500D01*
X39060225Y-84234790D01*
X39210852Y-84155734D01*
X39338183Y-84042929D01*
X39399525Y-83954059D01*
X39443949Y-83914703D01*
X39501575Y-83900500D01*
X58976743Y-83900500D01*
X58987550Y-83900971D01*
X59025177Y-83904264D01*
X59061694Y-83894478D01*
X59072200Y-83892149D01*
X59109415Y-83885588D01*
X59109417Y-83885586D01*
X59110482Y-83885399D01*
X59135169Y-83875173D01*
X59136052Y-83874554D01*
X59136054Y-83874554D01*
X59166995Y-83852887D01*
X59176092Y-83847091D01*
X59208825Y-83828194D01*
X59233118Y-83799241D01*
X59240406Y-83791288D01*
X66356296Y-76675399D01*
X66364250Y-76668110D01*
X66393194Y-76643825D01*
X66412102Y-76611073D01*
X66417878Y-76602008D01*
X66439553Y-76571054D01*
X66439553Y-76571051D01*
X66440171Y-76570170D01*
X66450400Y-76545475D01*
X66450586Y-76544417D01*
X66450588Y-76544415D01*
X66457150Y-76507194D01*
X66459480Y-76496682D01*
X66469263Y-76460177D01*
X66465971Y-76422558D01*
X66465500Y-76411752D01*
X66465500Y-76334795D01*
X66483142Y-76271046D01*
X66531046Y-76225437D01*
X66619361Y-76178231D01*
X66698538Y-76135910D01*
X66850883Y-76010883D01*
X66975910Y-75858538D01*
X67068814Y-75684727D01*
X67126024Y-75496132D01*
X67145341Y-75300000D01*
X67674659Y-75300000D01*
X67693976Y-75496133D01*
X67751185Y-75684726D01*
X67782865Y-75743994D01*
X67844090Y-75858538D01*
X67969117Y-76010883D01*
X68121462Y-76135910D01*
X68295273Y-76228814D01*
X68483868Y-76286024D01*
X68680000Y-76305341D01*
X68876132Y-76286024D01*
X69057870Y-76230893D01*
X69123995Y-76229270D01*
X69181547Y-76261873D01*
X69558181Y-76638507D01*
X69585061Y-76678735D01*
X69594500Y-76726188D01*
X69594500Y-82750500D01*
X69577887Y-82812500D01*
X69532500Y-82857887D01*
X69470500Y-82874500D01*
X69400251Y-82874500D01*
X69341769Y-82886132D01*
X69275447Y-82930447D01*
X69231132Y-82996769D01*
X69219500Y-83055251D01*
X69219500Y-84094749D01*
X69231132Y-84153230D01*
X69275447Y-84219552D01*
X69341769Y-84263867D01*
X69400251Y-84275500D01*
X69400252Y-84275500D01*
X70439748Y-84275500D01*
X70439749Y-84275500D01*
X70468989Y-84269683D01*
X70498231Y-84263867D01*
X70564552Y-84219552D01*
X70595899Y-84172638D01*
X70649248Y-84127949D01*
X70718272Y-84119038D01*
X70781222Y-84148713D01*
X70789148Y-84155734D01*
X70939775Y-84234790D01*
X71104944Y-84275500D01*
X71275055Y-84275500D01*
X71275056Y-84275500D01*
X71440225Y-84234790D01*
X71590852Y-84155734D01*
X71718183Y-84042929D01*
X71722949Y-84036023D01*
X71767373Y-83996666D01*
X71825000Y-83982462D01*
X71882627Y-83996666D01*
X71927051Y-84036024D01*
X71931815Y-84042927D01*
X71931816Y-84042928D01*
X71931817Y-84042929D01*
X72059148Y-84155734D01*
X72209775Y-84234790D01*
X72374944Y-84275500D01*
X72545055Y-84275500D01*
X72545056Y-84275500D01*
X72710225Y-84234790D01*
X72860852Y-84155734D01*
X72988183Y-84042929D01*
X72992949Y-84036023D01*
X73037373Y-83996666D01*
X73095000Y-83982462D01*
X73152627Y-83996666D01*
X73197051Y-84036024D01*
X73201815Y-84042927D01*
X73201816Y-84042928D01*
X73201817Y-84042929D01*
X73329148Y-84155734D01*
X73479775Y-84234790D01*
X73644944Y-84275500D01*
X73815055Y-84275500D01*
X73815056Y-84275500D01*
X73980225Y-84234790D01*
X74130852Y-84155734D01*
X74258183Y-84042929D01*
X74262949Y-84036023D01*
X74307373Y-83996666D01*
X74365000Y-83982462D01*
X74422627Y-83996666D01*
X74467051Y-84036024D01*
X74471815Y-84042927D01*
X74471816Y-84042928D01*
X74471817Y-84042929D01*
X74599148Y-84155734D01*
X74749775Y-84234790D01*
X74914944Y-84275500D01*
X75085055Y-84275500D01*
X75085056Y-84275500D01*
X75250225Y-84234790D01*
X75400852Y-84155734D01*
X75528183Y-84042929D01*
X75624818Y-83902930D01*
X75685140Y-83743872D01*
X75705645Y-83575000D01*
X75685140Y-83406128D01*
X75624818Y-83247070D01*
X75528186Y-83107075D01*
X75528184Y-83107072D01*
X75469690Y-83055251D01*
X75400852Y-82994266D01*
X75391871Y-82989552D01*
X75343383Y-82943907D01*
X75325500Y-82879758D01*
X75325500Y-79326188D01*
X75334939Y-79278735D01*
X75361819Y-79238507D01*
X76844427Y-77755899D01*
X78338452Y-76261872D01*
X78396004Y-76229270D01*
X78462126Y-76230892D01*
X78643868Y-76286024D01*
X78840000Y-76305341D01*
X79036132Y-76286024D01*
X79224727Y-76228814D01*
X79398538Y-76135910D01*
X79550883Y-76010883D01*
X79675910Y-75858538D01*
X79768814Y-75684727D01*
X79809683Y-75550000D01*
X80358590Y-75550000D01*
X80405233Y-75703764D01*
X80502731Y-75886171D01*
X80633945Y-76046054D01*
X80793828Y-76177268D01*
X80976235Y-76274766D01*
X81130000Y-76321410D01*
X81130000Y-75550000D01*
X81630000Y-75550000D01*
X81630000Y-76321410D01*
X81783764Y-76274766D01*
X81966171Y-76177268D01*
X82126054Y-76046054D01*
X82257268Y-75886171D01*
X82354766Y-75703764D01*
X82401410Y-75550000D01*
X81630000Y-75550000D01*
X81130000Y-75550000D01*
X80358590Y-75550000D01*
X79809683Y-75550000D01*
X79826024Y-75496132D01*
X79845341Y-75300000D01*
X79826024Y-75103868D01*
X79809683Y-75050000D01*
X80358590Y-75050000D01*
X81130000Y-75050000D01*
X81130000Y-74278590D01*
X81630000Y-74278590D01*
X81630000Y-75050000D01*
X82401410Y-75050000D01*
X82354766Y-74896235D01*
X82257268Y-74713828D01*
X82126054Y-74553945D01*
X81966171Y-74422731D01*
X81783764Y-74325233D01*
X81630000Y-74278590D01*
X81130000Y-74278590D01*
X80976235Y-74325233D01*
X80793828Y-74422731D01*
X80633945Y-74553945D01*
X80502731Y-74713828D01*
X80405233Y-74896235D01*
X80358590Y-75050000D01*
X79809683Y-75050000D01*
X79768814Y-74915273D01*
X79675910Y-74741462D01*
X79550883Y-74589117D01*
X79398538Y-74464090D01*
X79319361Y-74421769D01*
X79224726Y-74371185D01*
X79036133Y-74313976D01*
X78840000Y-74294659D01*
X78643866Y-74313976D01*
X78455273Y-74371185D01*
X78281463Y-74464089D01*
X78129117Y-74589117D01*
X78004089Y-74741463D01*
X77911185Y-74915273D01*
X77853976Y-75103866D01*
X77834659Y-75300000D01*
X77853975Y-75496130D01*
X77909106Y-75677870D01*
X77910729Y-75743994D01*
X77878126Y-75801546D01*
X74783714Y-78895958D01*
X74775741Y-78903264D01*
X74746806Y-78927544D01*
X74727914Y-78960264D01*
X74722106Y-78969380D01*
X74699831Y-79001193D01*
X74689597Y-79025899D01*
X74682852Y-79064148D01*
X74680512Y-79074704D01*
X74670735Y-79111192D01*
X74674028Y-79148820D01*
X74674500Y-79159628D01*
X74674500Y-82879758D01*
X74656617Y-82943907D01*
X74608128Y-82989552D01*
X74603234Y-82992121D01*
X74599149Y-82994265D01*
X74471814Y-83107073D01*
X74467049Y-83113978D01*
X74422625Y-83153334D01*
X74365000Y-83167537D01*
X74307375Y-83153334D01*
X74262951Y-83113978D01*
X74258185Y-83107073D01*
X74199690Y-83055251D01*
X74130852Y-82994266D01*
X74121871Y-82989552D01*
X74073383Y-82943907D01*
X74055500Y-82879758D01*
X74055500Y-78056188D01*
X74064939Y-78008735D01*
X74091819Y-77968507D01*
X75798452Y-76261873D01*
X75856004Y-76229270D01*
X75922126Y-76230892D01*
X76103868Y-76286024D01*
X76300000Y-76305341D01*
X76496132Y-76286024D01*
X76684727Y-76228814D01*
X76858538Y-76135910D01*
X77010883Y-76010883D01*
X77135910Y-75858538D01*
X77228814Y-75684727D01*
X77286024Y-75496132D01*
X77305341Y-75300000D01*
X77286024Y-75103868D01*
X77228814Y-74915273D01*
X77135910Y-74741462D01*
X77010883Y-74589117D01*
X76858538Y-74464090D01*
X76779361Y-74421769D01*
X76684726Y-74371185D01*
X76496133Y-74313976D01*
X76300000Y-74294659D01*
X76103866Y-74313976D01*
X75915273Y-74371185D01*
X75741463Y-74464089D01*
X75589117Y-74589117D01*
X75464089Y-74741463D01*
X75371185Y-74915273D01*
X75313976Y-75103866D01*
X75294659Y-75300000D01*
X75313975Y-75496130D01*
X75369106Y-75677870D01*
X75370729Y-75743994D01*
X75338126Y-75801546D01*
X73513714Y-77625958D01*
X73505741Y-77633264D01*
X73476806Y-77657544D01*
X73457914Y-77690264D01*
X73452106Y-77699380D01*
X73429831Y-77731193D01*
X73419597Y-77755899D01*
X73412852Y-77794148D01*
X73410512Y-77804704D01*
X73400735Y-77841192D01*
X73404028Y-77878820D01*
X73404500Y-77889628D01*
X73404500Y-82879758D01*
X73386617Y-82943907D01*
X73338128Y-82989552D01*
X73333234Y-82992121D01*
X73329149Y-82994265D01*
X73201814Y-83107073D01*
X73197049Y-83113978D01*
X73152625Y-83153334D01*
X73095000Y-83167537D01*
X73037375Y-83153334D01*
X72992951Y-83113978D01*
X72988185Y-83107073D01*
X72929690Y-83055251D01*
X72860852Y-82994266D01*
X72851871Y-82989552D01*
X72803383Y-82943907D01*
X72785500Y-82879758D01*
X72785500Y-76786188D01*
X72794939Y-76738735D01*
X72821819Y-76698507D01*
X73034427Y-76485899D01*
X73258452Y-76261872D01*
X73316004Y-76229270D01*
X73382126Y-76230892D01*
X73563868Y-76286024D01*
X73760000Y-76305341D01*
X73956132Y-76286024D01*
X74144727Y-76228814D01*
X74318538Y-76135910D01*
X74470883Y-76010883D01*
X74595910Y-75858538D01*
X74688814Y-75684727D01*
X74746024Y-75496132D01*
X74765341Y-75300000D01*
X74746024Y-75103868D01*
X74688814Y-74915273D01*
X74595910Y-74741462D01*
X74470883Y-74589117D01*
X74318538Y-74464090D01*
X74239361Y-74421769D01*
X74144726Y-74371185D01*
X73956133Y-74313976D01*
X73760000Y-74294659D01*
X73563866Y-74313976D01*
X73375273Y-74371185D01*
X73201463Y-74464089D01*
X73049117Y-74589117D01*
X72924089Y-74741463D01*
X72831185Y-74915273D01*
X72773976Y-75103866D01*
X72754659Y-75300000D01*
X72773975Y-75496130D01*
X72829106Y-75677870D01*
X72830729Y-75743994D01*
X72798126Y-75801546D01*
X72243714Y-76355958D01*
X72235741Y-76363264D01*
X72206806Y-76387544D01*
X72187914Y-76420264D01*
X72182106Y-76429380D01*
X72159831Y-76461193D01*
X72149597Y-76485899D01*
X72142852Y-76524148D01*
X72140512Y-76534704D01*
X72130735Y-76571192D01*
X72134028Y-76608820D01*
X72134500Y-76619628D01*
X72134500Y-82879758D01*
X72116617Y-82943907D01*
X72068128Y-82989552D01*
X72063234Y-82992121D01*
X72059149Y-82994265D01*
X71931814Y-83107073D01*
X71927049Y-83113978D01*
X71882625Y-83153334D01*
X71825000Y-83167537D01*
X71767375Y-83153334D01*
X71722951Y-83113978D01*
X71718185Y-83107073D01*
X71659690Y-83055251D01*
X71590852Y-82994266D01*
X71581871Y-82989552D01*
X71533383Y-82943907D01*
X71515500Y-82879758D01*
X71515500Y-76347845D01*
X71526553Y-76296669D01*
X71557742Y-76254616D01*
X71603504Y-76229184D01*
X71604727Y-76228814D01*
X71778538Y-76135910D01*
X71930883Y-76010883D01*
X72055910Y-75858538D01*
X72148814Y-75684727D01*
X72206024Y-75496132D01*
X72225341Y-75300000D01*
X72206024Y-75103868D01*
X72148814Y-74915273D01*
X72055910Y-74741462D01*
X71930883Y-74589117D01*
X71778538Y-74464090D01*
X71699361Y-74421769D01*
X71604726Y-74371185D01*
X71416133Y-74313976D01*
X71220000Y-74294659D01*
X71023866Y-74313976D01*
X70835273Y-74371185D01*
X70661463Y-74464089D01*
X70509117Y-74589117D01*
X70384089Y-74741463D01*
X70291185Y-74915273D01*
X70233976Y-75103866D01*
X70214659Y-75300000D01*
X70233976Y-75496133D01*
X70291185Y-75684726D01*
X70322865Y-75743994D01*
X70384090Y-75858538D01*
X70509117Y-76010883D01*
X70661462Y-76135910D01*
X70735194Y-76175321D01*
X70798953Y-76209401D01*
X70846858Y-76255010D01*
X70864500Y-76318759D01*
X70864500Y-82879758D01*
X70846617Y-82943907D01*
X70798128Y-82989552D01*
X70793658Y-82991898D01*
X70789145Y-82994267D01*
X70781222Y-83001287D01*
X70718270Y-83030961D01*
X70649247Y-83022050D01*
X70595897Y-82977359D01*
X70591808Y-82971240D01*
X70564552Y-82930448D01*
X70541747Y-82915210D01*
X70498230Y-82886132D01*
X70439749Y-82874500D01*
X70439748Y-82874500D01*
X70369500Y-82874500D01*
X70307500Y-82857887D01*
X70262113Y-82812500D01*
X70245500Y-82750500D01*
X70245500Y-76559627D01*
X70245972Y-76548819D01*
X70247665Y-76529474D01*
X70249264Y-76511193D01*
X70248199Y-76507220D01*
X70239487Y-76474706D01*
X70237145Y-76464143D01*
X70236445Y-76460174D01*
X70230588Y-76426955D01*
X70230587Y-76426954D01*
X70230400Y-76425891D01*
X70220171Y-76401198D01*
X70219554Y-76400317D01*
X70219554Y-76400316D01*
X70197892Y-76369379D01*
X70192080Y-76360256D01*
X70173194Y-76327544D01*
X70144255Y-76303262D01*
X70136280Y-76295954D01*
X69641873Y-75801547D01*
X69609270Y-75743995D01*
X69610894Y-75677870D01*
X69649683Y-75550000D01*
X69666024Y-75496132D01*
X69685341Y-75300000D01*
X69666024Y-75103868D01*
X69608814Y-74915273D01*
X69515910Y-74741462D01*
X69390883Y-74589117D01*
X69238538Y-74464090D01*
X69159361Y-74421769D01*
X69064726Y-74371185D01*
X68876133Y-74313976D01*
X68680000Y-74294659D01*
X68483866Y-74313976D01*
X68295273Y-74371185D01*
X68121463Y-74464089D01*
X67969117Y-74589117D01*
X67844089Y-74741463D01*
X67751185Y-74915273D01*
X67693976Y-75103866D01*
X67674659Y-75300000D01*
X67145341Y-75300000D01*
X67126024Y-75103868D01*
X67068814Y-74915273D01*
X66975910Y-74741462D01*
X66850883Y-74589117D01*
X66698538Y-74464090D01*
X66619361Y-74421769D01*
X66524726Y-74371185D01*
X66336133Y-74313976D01*
X66140000Y-74294659D01*
X65943866Y-74313976D01*
X65755273Y-74371185D01*
X65581463Y-74464089D01*
X65429117Y-74589117D01*
X65304089Y-74741463D01*
X65211185Y-74915273D01*
X65153976Y-75103866D01*
X65134659Y-75300000D01*
X65153976Y-75496133D01*
X65211185Y-75684726D01*
X65242865Y-75743994D01*
X65304090Y-75858538D01*
X65429117Y-76010883D01*
X65581462Y-76135910D01*
X65660637Y-76178230D01*
X65690554Y-76194221D01*
X65733481Y-76232179D01*
X65754759Y-76285384D01*
X65749843Y-76342476D01*
X65719782Y-76391260D01*
X58897863Y-83213181D01*
X58857635Y-83240061D01*
X58810182Y-83249500D01*
X39501575Y-83249500D01*
X39443949Y-83235297D01*
X39399525Y-83195940D01*
X39338184Y-83107072D01*
X39279690Y-83055251D01*
X39210852Y-82994266D01*
X39166980Y-82971240D01*
X39060224Y-82915209D01*
X38935764Y-82884533D01*
X38895056Y-82874500D01*
X38724944Y-82874500D01*
X38694121Y-82882097D01*
X38559775Y-82915209D01*
X38409149Y-82994265D01*
X38409147Y-82994266D01*
X38409148Y-82994266D01*
X38281817Y-83107071D01*
X38281816Y-83107072D01*
X38281813Y-83107075D01*
X38277046Y-83113981D01*
X38232620Y-83153336D01*
X38174995Y-83167537D01*
X38117370Y-83153332D01*
X38072949Y-83113975D01*
X38068183Y-83107071D01*
X37940852Y-82994266D01*
X37931871Y-82989552D01*
X37883383Y-82943907D01*
X37865500Y-82879758D01*
X37865500Y-81719627D01*
X37865972Y-81708819D01*
X37869264Y-81671192D01*
X37859487Y-81634706D01*
X37857145Y-81624143D01*
X37850400Y-81585891D01*
X37840171Y-81561198D01*
X37839554Y-81560317D01*
X37839554Y-81560316D01*
X37817892Y-81529379D01*
X37812080Y-81520256D01*
X37793194Y-81487544D01*
X37764255Y-81463262D01*
X37756280Y-81455954D01*
X36670075Y-80369749D01*
X49124500Y-80369749D01*
X49136132Y-80428230D01*
X49180447Y-80494552D01*
X49246769Y-80538867D01*
X49305251Y-80550500D01*
X49305252Y-80550500D01*
X50694748Y-80550500D01*
X50694749Y-80550500D01*
X50723989Y-80544683D01*
X50753231Y-80538867D01*
X50819552Y-80494552D01*
X50863867Y-80428231D01*
X50875500Y-80369748D01*
X50875500Y-79717862D01*
X50886584Y-79674999D01*
X50875500Y-79632138D01*
X50875500Y-78980251D01*
X50863867Y-78921769D01*
X50819552Y-78855447D01*
X50753230Y-78811132D01*
X50694749Y-78799500D01*
X50694748Y-78799500D01*
X50449500Y-78799500D01*
X50387500Y-78782887D01*
X50342113Y-78737500D01*
X50325500Y-78675500D01*
X50325500Y-73618781D01*
X50344738Y-73552441D01*
X50396484Y-73506686D01*
X50464680Y-73495714D01*
X50528162Y-73522926D01*
X50641462Y-73615910D01*
X50815273Y-73708814D01*
X51003868Y-73766024D01*
X51200000Y-73785341D01*
X51396132Y-73766024D01*
X51584727Y-73708814D01*
X51758538Y-73615910D01*
X51796835Y-73584479D01*
X51860321Y-73557266D01*
X51928517Y-73568238D01*
X51980262Y-73613993D01*
X51999500Y-73680333D01*
X51999500Y-78679634D01*
X51986950Y-78733992D01*
X51951842Y-78777347D01*
X51901281Y-78800924D01*
X51727968Y-78837762D01*
X51559837Y-78912619D01*
X51410950Y-79020791D01*
X51287804Y-79157559D01*
X51195785Y-79316940D01*
X51138915Y-79491969D01*
X51122821Y-79645100D01*
X51111641Y-79675000D01*
X51122820Y-79704898D01*
X51124183Y-79717862D01*
X51138915Y-79858030D01*
X51195785Y-80033059D01*
X51287804Y-80192440D01*
X51410950Y-80329208D01*
X51559837Y-80437380D01*
X51727968Y-80512237D01*
X51907980Y-80550500D01*
X51907981Y-80550500D01*
X52092019Y-80550500D01*
X52092020Y-80550500D01*
X52272031Y-80512237D01*
X52272032Y-80512236D01*
X52272034Y-80512236D01*
X52440161Y-80437381D01*
X52589050Y-80329207D01*
X52712195Y-80192440D01*
X52804214Y-80033059D01*
X52861085Y-79858029D01*
X52876679Y-79709653D01*
X52889292Y-79674999D01*
X52876679Y-79640343D01*
X52875817Y-79632138D01*
X52861085Y-79491971D01*
X52809315Y-79332639D01*
X52804214Y-79316940D01*
X52712195Y-79157559D01*
X52682350Y-79124413D01*
X52658736Y-79085879D01*
X52650500Y-79041441D01*
X52650500Y-61861188D01*
X52659939Y-61813735D01*
X52686819Y-61773507D01*
X53078314Y-61382011D01*
X53126137Y-61352273D01*
X53182181Y-61346753D01*
X53250000Y-61355682D01*
X53406762Y-61335044D01*
X53552841Y-61274536D01*
X53678282Y-61178282D01*
X53774536Y-61052841D01*
X53835044Y-60906762D01*
X53855682Y-60750000D01*
X53835044Y-60593238D01*
X53774536Y-60447159D01*
X53742990Y-60406047D01*
X53678282Y-60321717D01*
X53552840Y-60225463D01*
X53406762Y-60164956D01*
X53250000Y-60144317D01*
X53093237Y-60164956D01*
X52972898Y-60214802D01*
X52906048Y-60222714D01*
X52844914Y-60194531D01*
X52807515Y-60138559D01*
X52804872Y-60071294D01*
X52837765Y-60012560D01*
X53068452Y-59781873D01*
X53126004Y-59749270D01*
X53192126Y-59750892D01*
X53373868Y-59806024D01*
X53570000Y-59825341D01*
X53766132Y-59806024D01*
X53954727Y-59748814D01*
X54128538Y-59655910D01*
X54166835Y-59624479D01*
X54230321Y-59597266D01*
X54298517Y-59608238D01*
X54350262Y-59653993D01*
X54369500Y-59720333D01*
X54369500Y-78705353D01*
X54357421Y-78758736D01*
X54323536Y-78801719D01*
X54274447Y-78825927D01*
X54219719Y-78826643D01*
X54092021Y-78799500D01*
X54092019Y-78799500D01*
X53907981Y-78799500D01*
X53907980Y-78799500D01*
X53727968Y-78837762D01*
X53559837Y-78912619D01*
X53410950Y-79020791D01*
X53287804Y-79157559D01*
X53195785Y-79316940D01*
X53138915Y-79491969D01*
X53123321Y-79640343D01*
X53110707Y-79674999D01*
X53123320Y-79709653D01*
X53124183Y-79717862D01*
X53138915Y-79858030D01*
X53195785Y-80033059D01*
X53287804Y-80192440D01*
X53410950Y-80329208D01*
X53559837Y-80437380D01*
X53727968Y-80512237D01*
X53907980Y-80550500D01*
X53907981Y-80550500D01*
X54092019Y-80550500D01*
X54092020Y-80550500D01*
X54272031Y-80512237D01*
X54272032Y-80512236D01*
X54272034Y-80512236D01*
X54440161Y-80437381D01*
X54589050Y-80329207D01*
X54712195Y-80192440D01*
X54804214Y-80033059D01*
X54861085Y-79858029D01*
X54876679Y-79709653D01*
X54889292Y-79674999D01*
X55110707Y-79674999D01*
X55123320Y-79709653D01*
X55124183Y-79717862D01*
X55138915Y-79858030D01*
X55195785Y-80033059D01*
X55287804Y-80192440D01*
X55410950Y-80329208D01*
X55559837Y-80437380D01*
X55727968Y-80512237D01*
X55907980Y-80550500D01*
X55907981Y-80550500D01*
X56092019Y-80550500D01*
X56092020Y-80550500D01*
X56272031Y-80512237D01*
X56272032Y-80512236D01*
X56272034Y-80512236D01*
X56440161Y-80437381D01*
X56589050Y-80329207D01*
X56712195Y-80192440D01*
X56804214Y-80033059D01*
X56861085Y-79858029D01*
X56876679Y-79709653D01*
X56889292Y-79674999D01*
X57110707Y-79674999D01*
X57123320Y-79709653D01*
X57124183Y-79717862D01*
X57138915Y-79858030D01*
X57195785Y-80033059D01*
X57287804Y-80192440D01*
X57410950Y-80329208D01*
X57559837Y-80437380D01*
X57727968Y-80512237D01*
X57907980Y-80550500D01*
X57907981Y-80550500D01*
X58092019Y-80550500D01*
X58092020Y-80550500D01*
X58272031Y-80512237D01*
X58272032Y-80512236D01*
X58272034Y-80512236D01*
X58440161Y-80437381D01*
X58589050Y-80329207D01*
X58712195Y-80192440D01*
X58804214Y-80033059D01*
X58856046Y-79873535D01*
X58889092Y-79821464D01*
X58943138Y-79791752D01*
X59004814Y-79791752D01*
X59058860Y-79821464D01*
X59091907Y-79873538D01*
X59150315Y-80053304D01*
X59247536Y-80221696D01*
X59377643Y-80366193D01*
X59534952Y-80480486D01*
X59712586Y-80559572D01*
X59750000Y-80567525D01*
X59750000Y-79925000D01*
X60250000Y-79925000D01*
X60250000Y-80567525D01*
X60287413Y-80559572D01*
X60465047Y-80480486D01*
X60622356Y-80366193D01*
X60752463Y-80221696D01*
X60849684Y-80053304D01*
X60891372Y-79925000D01*
X60250000Y-79925000D01*
X59750000Y-79925000D01*
X59750000Y-78782474D01*
X60250000Y-78782474D01*
X60250000Y-79425000D01*
X60891372Y-79425000D01*
X60891372Y-79424999D01*
X60849684Y-79296695D01*
X60752463Y-79128303D01*
X60622356Y-78983806D01*
X60465047Y-78869513D01*
X60287413Y-78790427D01*
X60250000Y-78782474D01*
X59750000Y-78782474D01*
X59712585Y-78790427D01*
X59534952Y-78869513D01*
X59377643Y-78983805D01*
X59247536Y-79128303D01*
X59150315Y-79296695D01*
X59091907Y-79476461D01*
X59058860Y-79528535D01*
X59004814Y-79558247D01*
X58943138Y-79558247D01*
X58889092Y-79528535D01*
X58856045Y-79476461D01*
X58839324Y-79425000D01*
X58809315Y-79332639D01*
X58804214Y-79316940D01*
X58712195Y-79157559D01*
X58589049Y-79020791D01*
X58440162Y-78912619D01*
X58272031Y-78837762D01*
X58118719Y-78805175D01*
X58068158Y-78781598D01*
X58033050Y-78738243D01*
X58020500Y-78683885D01*
X58020500Y-73680333D01*
X58039738Y-73613993D01*
X58091483Y-73568238D01*
X58159679Y-73557266D01*
X58223164Y-73584479D01*
X58261462Y-73615910D01*
X58435273Y-73708814D01*
X58623868Y-73766024D01*
X58820000Y-73785341D01*
X59016132Y-73766024D01*
X59204727Y-73708814D01*
X59378538Y-73615910D01*
X59530883Y-73490883D01*
X59655910Y-73338538D01*
X59748814Y-73164727D01*
X59806024Y-72976132D01*
X59825341Y-72780000D01*
X59806024Y-72583868D01*
X59750892Y-72402126D01*
X59749270Y-72336003D01*
X59781871Y-72278453D01*
X62691290Y-69369034D01*
X62699258Y-69361734D01*
X62728192Y-69337457D01*
X62728192Y-69337456D01*
X62728194Y-69337455D01*
X62747091Y-69304722D01*
X62752887Y-69295625D01*
X62774554Y-69264684D01*
X62774554Y-69264682D01*
X62775173Y-69263799D01*
X62785399Y-69239112D01*
X62785586Y-69238047D01*
X62785588Y-69238045D01*
X62792149Y-69200830D01*
X62794478Y-69190324D01*
X62804264Y-69153807D01*
X62800971Y-69116176D01*
X62800500Y-69105370D01*
X62800500Y-68580333D01*
X62819738Y-68513993D01*
X62871483Y-68468238D01*
X62939679Y-68457266D01*
X63003164Y-68484479D01*
X63041462Y-68515910D01*
X63215273Y-68608814D01*
X63403868Y-68666024D01*
X63600000Y-68685341D01*
X63796132Y-68666024D01*
X63984727Y-68608814D01*
X64158538Y-68515910D01*
X64310883Y-68390883D01*
X64435910Y-68238538D01*
X64528814Y-68064727D01*
X64586024Y-67876132D01*
X64605341Y-67680000D01*
X64586024Y-67483868D01*
X64528814Y-67295273D01*
X64435910Y-67121462D01*
X64310883Y-66969117D01*
X64158538Y-66844090D01*
X64158536Y-66844089D01*
X63991046Y-66754563D01*
X63943142Y-66708954D01*
X63925500Y-66645205D01*
X63925500Y-59642368D01*
X63944738Y-59576028D01*
X63996483Y-59530273D01*
X64064679Y-59519301D01*
X64128164Y-59546514D01*
X64261462Y-59655910D01*
X64435273Y-59748814D01*
X64623868Y-59806024D01*
X64820000Y-59825341D01*
X65016132Y-59806024D01*
X65204727Y-59748814D01*
X65378538Y-59655910D01*
X65530883Y-59530883D01*
X65655910Y-59378538D01*
X65748814Y-59204727D01*
X65806024Y-59016132D01*
X65825341Y-58820000D01*
X65806024Y-58623868D01*
X65750892Y-58442126D01*
X65749270Y-58376003D01*
X65781871Y-58318453D01*
X66216290Y-57884034D01*
X66224277Y-57876717D01*
X66225416Y-57875762D01*
X66226837Y-57874571D01*
X66290356Y-57846643D01*
X66358935Y-57857212D01*
X66411098Y-57902969D01*
X66430512Y-57969586D01*
X66430512Y-66566459D01*
X66411813Y-66631939D01*
X66361356Y-66677671D01*
X66294359Y-66689861D01*
X66140000Y-66674659D01*
X66139999Y-66674659D01*
X65943866Y-66693976D01*
X65755273Y-66751185D01*
X65581463Y-66844089D01*
X65429117Y-66969117D01*
X65304089Y-67121463D01*
X65211185Y-67295273D01*
X65153976Y-67483866D01*
X65134659Y-67680000D01*
X65153976Y-67876133D01*
X65211185Y-68064726D01*
X65242865Y-68123994D01*
X65304090Y-68238538D01*
X65429117Y-68390883D01*
X65581462Y-68515910D01*
X65755273Y-68608814D01*
X65943868Y-68666024D01*
X66140000Y-68685341D01*
X66336132Y-68666024D01*
X66524727Y-68608814D01*
X66698538Y-68515910D01*
X66736835Y-68484479D01*
X66800321Y-68457266D01*
X66868517Y-68468238D01*
X66920262Y-68513993D01*
X66939500Y-68580333D01*
X66939500Y-71448812D01*
X66930061Y-71496265D01*
X66903181Y-71536493D01*
X64176493Y-74263181D01*
X64136265Y-74290061D01*
X64088812Y-74299500D01*
X62780251Y-74299500D01*
X62721769Y-74311132D01*
X62655447Y-74355447D01*
X62611132Y-74421769D01*
X62599500Y-74480251D01*
X62599500Y-76119749D01*
X62611132Y-76178230D01*
X62655447Y-76244552D01*
X62721769Y-76288867D01*
X62780251Y-76300500D01*
X62780252Y-76300500D01*
X64419748Y-76300500D01*
X64419749Y-76300500D01*
X64448989Y-76294683D01*
X64478231Y-76288867D01*
X64544552Y-76244552D01*
X64588867Y-76178231D01*
X64600500Y-76119748D01*
X64600500Y-74811188D01*
X64609939Y-74763735D01*
X64636819Y-74723507D01*
X65184826Y-74175500D01*
X67481290Y-71879034D01*
X67489258Y-71871734D01*
X67518192Y-71847457D01*
X67518192Y-71847456D01*
X67518194Y-71847455D01*
X67537091Y-71814722D01*
X67542887Y-71805625D01*
X67564554Y-71774684D01*
X67564554Y-71774682D01*
X67565173Y-71773799D01*
X67575399Y-71749112D01*
X67575586Y-71748047D01*
X67575588Y-71748045D01*
X67582149Y-71710830D01*
X67584478Y-71700324D01*
X67594264Y-71663807D01*
X67590971Y-71626176D01*
X67590500Y-71615370D01*
X67590500Y-68354123D01*
X67605142Y-68295670D01*
X67645609Y-68251021D01*
X67702346Y-68230720D01*
X67761952Y-68239562D01*
X67810353Y-68275458D01*
X67933945Y-68426054D01*
X68093828Y-68557268D01*
X68276235Y-68654766D01*
X68430000Y-68701410D01*
X68430000Y-67930000D01*
X68930000Y-67930000D01*
X68930000Y-68701410D01*
X69083764Y-68654766D01*
X69266171Y-68557268D01*
X69426054Y-68426054D01*
X69557268Y-68266171D01*
X69654766Y-68083764D01*
X69701410Y-67930000D01*
X68930000Y-67930000D01*
X68430000Y-67930000D01*
X68430000Y-67680000D01*
X70214659Y-67680000D01*
X70233976Y-67876133D01*
X70291185Y-68064726D01*
X70322865Y-68123994D01*
X70384090Y-68238538D01*
X70509117Y-68390883D01*
X70661462Y-68515910D01*
X70835273Y-68608814D01*
X71023868Y-68666024D01*
X71220000Y-68685341D01*
X71416132Y-68666024D01*
X71604727Y-68608814D01*
X71778538Y-68515910D01*
X71930883Y-68390883D01*
X72055910Y-68238538D01*
X72148814Y-68064727D01*
X72189683Y-67930000D01*
X72738590Y-67930000D01*
X72785233Y-68083764D01*
X72882731Y-68266171D01*
X73013945Y-68426054D01*
X73173828Y-68557268D01*
X73356235Y-68654766D01*
X73510000Y-68701410D01*
X73510000Y-67930000D01*
X74010000Y-67930000D01*
X74010000Y-68701410D01*
X74163764Y-68654766D01*
X74346171Y-68557268D01*
X74506054Y-68426054D01*
X74637268Y-68266171D01*
X74734766Y-68083764D01*
X74781410Y-67930000D01*
X74010000Y-67930000D01*
X73510000Y-67930000D01*
X72738590Y-67930000D01*
X72189683Y-67930000D01*
X72206024Y-67876132D01*
X72225341Y-67680000D01*
X75294659Y-67680000D01*
X75313976Y-67876133D01*
X75371185Y-68064726D01*
X75402865Y-68123994D01*
X75464090Y-68238538D01*
X75589117Y-68390883D01*
X75741462Y-68515910D01*
X75915273Y-68608814D01*
X76103868Y-68666024D01*
X76300000Y-68685341D01*
X76496132Y-68666024D01*
X76684727Y-68608814D01*
X76858538Y-68515910D01*
X77010883Y-68390883D01*
X77135910Y-68238538D01*
X77228814Y-68064727D01*
X77286024Y-67876132D01*
X77305341Y-67680000D01*
X77834659Y-67680000D01*
X77853976Y-67876133D01*
X77911185Y-68064726D01*
X77942865Y-68123994D01*
X78004090Y-68238538D01*
X78129117Y-68390883D01*
X78281462Y-68515910D01*
X78455273Y-68608814D01*
X78643868Y-68666024D01*
X78840000Y-68685341D01*
X79036132Y-68666024D01*
X79224727Y-68608814D01*
X79398538Y-68515910D01*
X79550883Y-68390883D01*
X79675910Y-68238538D01*
X79768814Y-68064727D01*
X79826024Y-67876132D01*
X79845341Y-67680000D01*
X80374659Y-67680000D01*
X80393976Y-67876133D01*
X80451185Y-68064726D01*
X80482865Y-68123994D01*
X80544090Y-68238538D01*
X80669117Y-68390883D01*
X80821462Y-68515910D01*
X80995273Y-68608814D01*
X81183868Y-68666024D01*
X81380000Y-68685341D01*
X81576132Y-68666024D01*
X81764727Y-68608814D01*
X81938538Y-68515910D01*
X82090883Y-68390883D01*
X82215910Y-68238538D01*
X82308814Y-68064727D01*
X82366024Y-67876132D01*
X82385341Y-67680000D01*
X82366024Y-67483868D01*
X82308814Y-67295273D01*
X82215910Y-67121462D01*
X82090883Y-66969117D01*
X81938538Y-66844090D01*
X81861161Y-66802731D01*
X81764726Y-66751185D01*
X81576133Y-66693976D01*
X81380000Y-66674659D01*
X81183866Y-66693976D01*
X80995273Y-66751185D01*
X80821463Y-66844089D01*
X80669117Y-66969117D01*
X80544089Y-67121463D01*
X80451185Y-67295273D01*
X80393976Y-67483866D01*
X80374659Y-67680000D01*
X79845341Y-67680000D01*
X79826024Y-67483868D01*
X79768814Y-67295273D01*
X79675910Y-67121462D01*
X79550883Y-66969117D01*
X79398538Y-66844090D01*
X79321161Y-66802731D01*
X79224726Y-66751185D01*
X79036133Y-66693976D01*
X78840000Y-66674659D01*
X78643866Y-66693976D01*
X78455273Y-66751185D01*
X78281463Y-66844089D01*
X78129117Y-66969117D01*
X78004089Y-67121463D01*
X77911185Y-67295273D01*
X77853976Y-67483866D01*
X77834659Y-67680000D01*
X77305341Y-67680000D01*
X77286024Y-67483868D01*
X77228814Y-67295273D01*
X77135910Y-67121462D01*
X77010883Y-66969117D01*
X76858538Y-66844090D01*
X76858536Y-66844089D01*
X76691046Y-66754563D01*
X76643142Y-66708954D01*
X76625500Y-66645205D01*
X76625500Y-63561188D01*
X76634939Y-63513735D01*
X76661819Y-63473507D01*
X79223507Y-60911819D01*
X79263735Y-60884939D01*
X79311188Y-60875500D01*
X80369749Y-60875500D01*
X80398989Y-60869683D01*
X80428231Y-60863867D01*
X80494552Y-60819552D01*
X80538867Y-60753231D01*
X80550500Y-60694748D01*
X80550500Y-59305252D01*
X80542766Y-59266373D01*
X80538867Y-59246769D01*
X80494552Y-59180447D01*
X80428230Y-59136132D01*
X80369749Y-59124500D01*
X80369748Y-59124500D01*
X78980252Y-59124500D01*
X78980251Y-59124500D01*
X78921769Y-59136132D01*
X78855447Y-59180447D01*
X78811132Y-59246769D01*
X78799500Y-59305251D01*
X78799500Y-60363812D01*
X78790061Y-60411265D01*
X78763181Y-60451493D01*
X76083714Y-63130958D01*
X76075741Y-63138264D01*
X76046806Y-63162544D01*
X76027914Y-63195264D01*
X76022106Y-63204380D01*
X75999831Y-63236193D01*
X75989597Y-63260899D01*
X75982852Y-63299148D01*
X75980512Y-63309704D01*
X75970735Y-63346192D01*
X75974028Y-63383820D01*
X75974500Y-63394628D01*
X75974500Y-66645205D01*
X75956858Y-66708954D01*
X75908954Y-66754563D01*
X75741461Y-66844090D01*
X75589117Y-66969117D01*
X75464089Y-67121463D01*
X75371185Y-67295273D01*
X75313976Y-67483866D01*
X75294659Y-67680000D01*
X72225341Y-67680000D01*
X72206024Y-67483868D01*
X72189683Y-67430000D01*
X72738590Y-67430000D01*
X73510000Y-67430000D01*
X73510000Y-66658590D01*
X74010000Y-66658590D01*
X74010000Y-67430000D01*
X74781410Y-67430000D01*
X74734766Y-67276235D01*
X74637268Y-67093828D01*
X74506054Y-66933945D01*
X74346171Y-66802731D01*
X74163764Y-66705233D01*
X74010000Y-66658590D01*
X73510000Y-66658590D01*
X73356235Y-66705233D01*
X73173828Y-66802731D01*
X73013945Y-66933945D01*
X72882731Y-67093828D01*
X72785233Y-67276235D01*
X72738590Y-67430000D01*
X72189683Y-67430000D01*
X72148814Y-67295273D01*
X72055910Y-67121462D01*
X71930883Y-66969117D01*
X71778538Y-66844090D01*
X71701161Y-66802731D01*
X71604726Y-66751185D01*
X71416133Y-66693976D01*
X71220000Y-66674659D01*
X71023866Y-66693976D01*
X70835273Y-66751185D01*
X70661463Y-66844089D01*
X70509117Y-66969117D01*
X70384089Y-67121463D01*
X70291185Y-67295273D01*
X70233976Y-67483866D01*
X70214659Y-67680000D01*
X68430000Y-67680000D01*
X68430000Y-66658590D01*
X68930000Y-66658590D01*
X68930000Y-67430000D01*
X69701410Y-67430000D01*
X69654766Y-67276235D01*
X69557268Y-67093828D01*
X69426054Y-66933945D01*
X69266171Y-66802731D01*
X69083764Y-66705233D01*
X68930000Y-66658590D01*
X68430000Y-66658590D01*
X68276235Y-66705233D01*
X68093828Y-66802731D01*
X67933945Y-66933945D01*
X67810353Y-67084542D01*
X67761952Y-67120438D01*
X67702346Y-67129280D01*
X67645609Y-67108979D01*
X67605142Y-67064330D01*
X67590500Y-67005877D01*
X67590500Y-61782179D01*
X67599939Y-61734726D01*
X67626819Y-61694498D01*
X68626569Y-60694748D01*
X69791296Y-59530020D01*
X69799249Y-59522732D01*
X69828194Y-59498446D01*
X69847082Y-59465729D01*
X69852881Y-59456626D01*
X69874554Y-59425675D01*
X69874554Y-59425673D01*
X69875173Y-59424790D01*
X69885398Y-59400103D01*
X69885585Y-59399040D01*
X69885588Y-59399036D01*
X69892150Y-59361813D01*
X69894479Y-59351307D01*
X69904263Y-59314798D01*
X69900971Y-59277179D01*
X69900500Y-59266373D01*
X69900500Y-54884619D01*
X69900972Y-54873812D01*
X69904118Y-54837852D01*
X69904263Y-54836193D01*
X69904262Y-54836192D01*
X69904263Y-54836191D01*
X69894486Y-54799704D01*
X69892144Y-54789140D01*
X69888941Y-54770972D01*
X69885588Y-54751955D01*
X69885587Y-54751954D01*
X69885400Y-54750891D01*
X69875173Y-54726201D01*
X69874554Y-54725317D01*
X69874554Y-54725316D01*
X69852878Y-54694360D01*
X69847085Y-54685266D01*
X69828194Y-54652545D01*
X69813640Y-54640333D01*
X69799261Y-54628267D01*
X69791286Y-54620959D01*
X69603986Y-54433659D01*
X69411872Y-54241546D01*
X69379270Y-54183995D01*
X69380894Y-54117870D01*
X69390849Y-54085054D01*
X69436024Y-53936132D01*
X69455341Y-53740000D01*
X69436024Y-53543868D01*
X69378814Y-53355273D01*
X69285910Y-53181462D01*
X69160883Y-53029117D01*
X69008538Y-52904090D01*
X68924263Y-52859044D01*
X68834726Y-52811185D01*
X68646133Y-52753976D01*
X68450000Y-52734659D01*
X68253863Y-52753976D01*
X68235976Y-52759402D01*
X68182791Y-52763543D01*
X68132788Y-52744956D01*
X68095222Y-52707080D01*
X68077045Y-52656928D01*
X68066056Y-52573451D01*
X68005548Y-52427372D01*
X67985390Y-52401101D01*
X67984535Y-52399987D01*
X67959507Y-52336655D01*
X67971698Y-52269656D01*
X68017429Y-52219199D01*
X68082910Y-52200500D01*
X69269749Y-52200500D01*
X69298989Y-52194683D01*
X69328231Y-52188867D01*
X69394552Y-52144552D01*
X69438867Y-52078231D01*
X69447285Y-52035910D01*
X69450500Y-52019749D01*
X69450500Y-50380251D01*
X69438867Y-50321769D01*
X69394552Y-50255447D01*
X69328230Y-50211132D01*
X69269749Y-50199500D01*
X69269748Y-50199500D01*
X67630252Y-50199500D01*
X67630251Y-50199500D01*
X67571769Y-50211132D01*
X67505447Y-50255447D01*
X67461132Y-50321769D01*
X67449500Y-50380251D01*
X67449500Y-51224732D01*
X67440061Y-51272185D01*
X67413181Y-51312413D01*
X66539726Y-52185866D01*
X66531761Y-52193165D01*
X66529216Y-52195301D01*
X66465696Y-52223259D01*
X66397102Y-52212706D01*
X66344921Y-52166949D01*
X66325500Y-52100321D01*
X66325500Y-49818299D01*
X66338288Y-49763455D01*
X66374014Y-49719923D01*
X66428282Y-49678282D01*
X66524536Y-49552841D01*
X66585044Y-49406762D01*
X66605682Y-49250000D01*
X66585044Y-49093238D01*
X66524536Y-48947159D01*
X66428282Y-48821717D01*
X66302840Y-48725463D01*
X66156762Y-48664956D01*
X66000000Y-48644317D01*
X65843237Y-48664956D01*
X65697159Y-48725463D01*
X65571717Y-48821717D01*
X65475463Y-48947159D01*
X65414956Y-49093237D01*
X65394317Y-49249999D01*
X65414956Y-49406762D01*
X65475463Y-49552840D01*
X65571717Y-49678281D01*
X65625986Y-49719923D01*
X65661712Y-49763455D01*
X65674500Y-49818299D01*
X65674500Y-50344805D01*
X65655262Y-50411145D01*
X65603516Y-50456900D01*
X65535320Y-50467872D01*
X65471836Y-50440658D01*
X65378538Y-50364090D01*
X65288568Y-50316000D01*
X65204726Y-50271185D01*
X65016133Y-50213976D01*
X64869152Y-50199500D01*
X64820000Y-50194659D01*
X64819999Y-50194659D01*
X64623866Y-50213976D01*
X64435273Y-50271185D01*
X64261463Y-50364089D01*
X64109117Y-50489117D01*
X63984089Y-50641463D01*
X63891185Y-50815273D01*
X63833976Y-51003866D01*
X63814659Y-51199999D01*
X63833975Y-51396130D01*
X63889106Y-51577870D01*
X63890729Y-51643994D01*
X63858126Y-51701546D01*
X63383714Y-52175958D01*
X63375741Y-52183264D01*
X63346806Y-52207544D01*
X63327914Y-52240264D01*
X63322106Y-52249380D01*
X63299831Y-52281193D01*
X63289597Y-52305899D01*
X63282852Y-52344148D01*
X63280512Y-52354704D01*
X63270735Y-52391192D01*
X63274028Y-52428820D01*
X63274500Y-52439628D01*
X63274500Y-66645205D01*
X63256858Y-66708954D01*
X63208954Y-66754563D01*
X63041461Y-66844090D01*
X63003165Y-66875520D01*
X62939679Y-66902734D01*
X62871483Y-66891762D01*
X62819738Y-66846007D01*
X62800500Y-66779667D01*
X62800500Y-51152179D01*
X62809939Y-51104726D01*
X62836819Y-51064498D01*
X65284372Y-48616945D01*
X72716290Y-41185025D01*
X72724258Y-41177725D01*
X72753192Y-41153448D01*
X72753192Y-41153447D01*
X72753194Y-41153446D01*
X72772091Y-41120713D01*
X72777887Y-41111616D01*
X72799554Y-41080675D01*
X72799554Y-41080672D01*
X72805960Y-41071525D01*
X72828355Y-41031607D01*
X72880230Y-40999051D01*
X72941360Y-40995293D01*
X72996832Y-41021252D01*
X73113828Y-41117268D01*
X73296235Y-41214766D01*
X73450000Y-41261410D01*
X73450000Y-39218590D01*
X73296235Y-39265233D01*
X73113828Y-39362731D01*
X73028165Y-39433034D01*
X72964679Y-39460248D01*
X72896483Y-39449276D01*
X72844738Y-39403521D01*
X72825500Y-39337181D01*
X72825500Y-38824500D01*
X72842113Y-38762500D01*
X72887500Y-38717113D01*
X72949500Y-38700500D01*
X74188812Y-38700500D01*
X74236265Y-38709939D01*
X74276493Y-38736819D01*
X74638181Y-39098507D01*
X74665061Y-39138735D01*
X74674500Y-39186188D01*
X74674500Y-39425750D01*
X74659858Y-39484203D01*
X74619391Y-39528852D01*
X74562655Y-39549153D01*
X74503048Y-39540311D01*
X74454647Y-39504416D01*
X74446052Y-39493943D01*
X74286171Y-39362731D01*
X74103764Y-39265233D01*
X73950000Y-39218590D01*
X73950000Y-41261410D01*
X74103764Y-41214766D01*
X74286171Y-41117268D01*
X74446052Y-40986056D01*
X74454647Y-40975584D01*
X74503048Y-40939689D01*
X74562655Y-40930847D01*
X74619391Y-40951148D01*
X74659858Y-40995797D01*
X74674500Y-41054250D01*
X74674500Y-42043779D01*
X74659858Y-42102232D01*
X74619391Y-42146881D01*
X74562654Y-42167182D01*
X74503048Y-42158340D01*
X74454648Y-42122445D01*
X74410883Y-42069117D01*
X74258538Y-41944090D01*
X74191254Y-41908126D01*
X74084726Y-41851185D01*
X73896133Y-41793976D01*
X73700000Y-41774659D01*
X73503866Y-41793976D01*
X73315273Y-41851185D01*
X73141463Y-41944089D01*
X72989117Y-42069117D01*
X72864089Y-42221463D01*
X72771185Y-42395273D01*
X72713976Y-42583866D01*
X72694659Y-42780000D01*
X72713976Y-42976133D01*
X72771185Y-43164726D01*
X72832126Y-43278738D01*
X72864090Y-43338538D01*
X72989117Y-43490883D01*
X73141462Y-43615910D01*
X73197098Y-43645648D01*
X73308954Y-43705437D01*
X73356858Y-43751046D01*
X73374500Y-43814795D01*
X73374500Y-53890372D01*
X73374028Y-53901180D01*
X73370735Y-53938807D01*
X73380512Y-53975296D01*
X73382853Y-53985852D01*
X73389599Y-54024107D01*
X73399829Y-54048803D01*
X73400446Y-54049684D01*
X73422112Y-54080627D01*
X73427915Y-54089736D01*
X73446806Y-54122455D01*
X73475742Y-54146735D01*
X73483718Y-54154044D01*
X75108126Y-55778452D01*
X75140729Y-55836003D01*
X75139106Y-55902128D01*
X75083975Y-56083869D01*
X75064659Y-56280000D01*
X75083976Y-56476133D01*
X75141185Y-56664726D01*
X75197355Y-56769812D01*
X75234090Y-56838538D01*
X75359117Y-56990883D01*
X75507971Y-57113045D01*
X75520903Y-57123658D01*
X75518997Y-57125980D01*
X75544649Y-57148669D01*
X75565920Y-57201873D01*
X75561001Y-57258959D01*
X75530942Y-57307739D01*
X69533714Y-63304967D01*
X69525741Y-63312273D01*
X69496806Y-63336553D01*
X69477914Y-63369273D01*
X69472106Y-63378389D01*
X69449831Y-63410202D01*
X69439597Y-63434908D01*
X69432852Y-63473157D01*
X69430512Y-63483713D01*
X69420735Y-63520201D01*
X69424028Y-63557829D01*
X69424500Y-63568637D01*
X69424500Y-64681701D01*
X69411712Y-64736545D01*
X69375986Y-64780077D01*
X69321717Y-64821718D01*
X69225463Y-64947159D01*
X69164956Y-65093237D01*
X69144317Y-65250000D01*
X69164956Y-65406762D01*
X69225463Y-65552840D01*
X69321717Y-65678282D01*
X69447159Y-65774536D01*
X69593238Y-65835044D01*
X69750000Y-65855682D01*
X69906762Y-65835044D01*
X70052841Y-65774536D01*
X70178282Y-65678282D01*
X70274536Y-65552841D01*
X70335044Y-65406762D01*
X70355682Y-65250000D01*
X70335044Y-65093238D01*
X70274536Y-64947159D01*
X70178282Y-64821718D01*
X70124013Y-64780076D01*
X70088288Y-64736545D01*
X70075500Y-64681701D01*
X70075500Y-63735197D01*
X70084939Y-63687744D01*
X70111819Y-63647516D01*
X70628377Y-63130958D01*
X74868037Y-58891296D01*
X74928547Y-58857992D01*
X74997490Y-58862227D01*
X75053470Y-58902690D01*
X75079119Y-58966824D01*
X75083976Y-59016133D01*
X75141185Y-59204726D01*
X75200020Y-59314798D01*
X75234090Y-59378538D01*
X75359117Y-59530883D01*
X75511462Y-59655910D01*
X75685273Y-59748814D01*
X75873868Y-59806024D01*
X76070000Y-59825341D01*
X76266132Y-59806024D01*
X76454727Y-59748814D01*
X76628538Y-59655910D01*
X76780883Y-59530883D01*
X76905910Y-59378538D01*
X76998814Y-59204727D01*
X77056024Y-59016132D01*
X77075341Y-58820000D01*
X77056024Y-58623868D01*
X77000892Y-58442126D01*
X76999270Y-58376004D01*
X77031873Y-58318452D01*
X77642271Y-57708054D01*
X78203081Y-57147244D01*
X78248350Y-57118405D01*
X78301568Y-57111399D01*
X78352761Y-57127540D01*
X78392334Y-57163803D01*
X78394156Y-57166405D01*
X78397105Y-57170616D01*
X78402915Y-57179736D01*
X78421806Y-57212455D01*
X78450742Y-57236735D01*
X78458718Y-57244044D01*
X78813579Y-57598905D01*
X78846472Y-57657638D01*
X78843829Y-57724903D01*
X78819887Y-57798590D01*
X78813915Y-57816971D01*
X78803048Y-57920362D01*
X78794678Y-58000000D01*
X78813915Y-58183030D01*
X78870785Y-58358059D01*
X78962804Y-58517440D01*
X79085950Y-58654208D01*
X79234837Y-58762380D01*
X79402968Y-58837237D01*
X79582980Y-58875500D01*
X79582981Y-58875500D01*
X79767019Y-58875500D01*
X79767020Y-58875500D01*
X79947031Y-58837237D01*
X79947032Y-58837236D01*
X79947034Y-58837236D01*
X80115161Y-58762381D01*
X80264050Y-58654207D01*
X80387195Y-58517440D01*
X80479214Y-58358059D01*
X80536085Y-58183029D01*
X80555322Y-58000000D01*
X80536085Y-57816971D01*
X80505579Y-57723085D01*
X80479214Y-57641940D01*
X80387195Y-57482559D01*
X80264049Y-57345791D01*
X80115162Y-57237619D01*
X79947031Y-57162762D01*
X79767020Y-57124500D01*
X79767019Y-57124500D01*
X79582981Y-57124500D01*
X79582980Y-57124500D01*
X79390219Y-57165473D01*
X79390002Y-57164455D01*
X79359978Y-57171111D01*
X79311365Y-57162100D01*
X79270137Y-57134811D01*
X79100228Y-56964902D01*
X79067185Y-56905536D01*
X79070386Y-56837670D01*
X79108869Y-56781677D01*
X79171081Y-56754368D01*
X79238345Y-56763942D01*
X79402966Y-56837236D01*
X79582980Y-56875500D01*
X79582981Y-56875500D01*
X79767019Y-56875500D01*
X79767020Y-56875500D01*
X79947031Y-56837237D01*
X79947032Y-56837236D01*
X79947034Y-56837236D01*
X80115161Y-56762381D01*
X80240873Y-56671046D01*
X80264049Y-56654208D01*
X80315430Y-56597144D01*
X80387195Y-56517440D01*
X80479214Y-56358059D01*
X80536085Y-56183029D01*
X80555322Y-56000000D01*
X80536085Y-55816971D01*
X80490637Y-55677097D01*
X80479214Y-55641940D01*
X80387195Y-55482559D01*
X80264049Y-55345791D01*
X80115162Y-55237619D01*
X79947031Y-55162762D01*
X79767020Y-55124500D01*
X79767019Y-55124500D01*
X79582981Y-55124500D01*
X79582980Y-55124500D01*
X79402968Y-55162762D01*
X79234840Y-55237618D01*
X79197385Y-55264831D01*
X79134228Y-55288130D01*
X79068205Y-55274997D01*
X79018772Y-55229302D01*
X79000500Y-55164512D01*
X79000500Y-54835488D01*
X79018772Y-54770698D01*
X79068205Y-54725003D01*
X79134228Y-54711870D01*
X79197384Y-54735168D01*
X79234839Y-54762381D01*
X79347361Y-54812479D01*
X79402968Y-54837237D01*
X79582980Y-54875500D01*
X79582981Y-54875500D01*
X79767019Y-54875500D01*
X79767020Y-54875500D01*
X79947031Y-54837237D01*
X79947032Y-54837236D01*
X79947034Y-54837236D01*
X80115161Y-54762381D01*
X80236119Y-54674500D01*
X80264049Y-54654208D01*
X80387195Y-54517440D01*
X80479214Y-54358059D01*
X80481983Y-54349538D01*
X80536085Y-54183029D01*
X80555322Y-54000000D01*
X80536085Y-53816971D01*
X80479214Y-53641941D01*
X80479214Y-53641940D01*
X80387195Y-53482559D01*
X80264049Y-53345791D01*
X80115162Y-53237619D01*
X79947031Y-53162762D01*
X79767020Y-53124500D01*
X79767019Y-53124500D01*
X79582981Y-53124500D01*
X79582980Y-53124500D01*
X79402968Y-53162762D01*
X79234840Y-53237618D01*
X79197385Y-53264831D01*
X79134228Y-53288130D01*
X79068205Y-53274997D01*
X79018772Y-53229302D01*
X79000500Y-53164512D01*
X79000500Y-52835488D01*
X79018772Y-52770698D01*
X79068205Y-52725003D01*
X79134228Y-52711870D01*
X79197384Y-52735168D01*
X79234839Y-52762381D01*
X79344455Y-52811185D01*
X79402968Y-52837237D01*
X79582980Y-52875500D01*
X79582981Y-52875500D01*
X79767019Y-52875500D01*
X79767020Y-52875500D01*
X79947031Y-52837237D01*
X79947032Y-52837236D01*
X79947034Y-52837236D01*
X80115161Y-52762381D01*
X80202674Y-52698799D01*
X80264049Y-52654208D01*
X80307294Y-52606180D01*
X80387195Y-52517440D01*
X80479214Y-52358059D01*
X80536085Y-52183029D01*
X80555322Y-52000000D01*
X80536085Y-51816971D01*
X80491966Y-51681188D01*
X80479214Y-51641940D01*
X80387195Y-51482559D01*
X80264049Y-51345791D01*
X80115162Y-51237619D01*
X79947031Y-51162762D01*
X79870959Y-51146593D01*
X79811856Y-51115695D01*
X79777308Y-51058649D01*
X79777308Y-50991957D01*
X79811856Y-50934911D01*
X79870959Y-50904013D01*
X79962412Y-50884574D01*
X80140047Y-50805486D01*
X80297356Y-50691193D01*
X80427463Y-50546696D01*
X80524684Y-50378304D01*
X80566372Y-50250000D01*
X79549000Y-50250000D01*
X79487000Y-50233387D01*
X79441613Y-50188000D01*
X79425000Y-50126000D01*
X79425000Y-49107474D01*
X79925000Y-49107474D01*
X79925000Y-49750000D01*
X80566372Y-49750000D01*
X80566372Y-49749999D01*
X80524684Y-49621695D01*
X80427463Y-49453303D01*
X80297356Y-49308806D01*
X80140047Y-49194513D01*
X79962413Y-49115427D01*
X79925000Y-49107474D01*
X79425000Y-49107474D01*
X79387585Y-49115427D01*
X79209950Y-49194514D01*
X79197385Y-49203644D01*
X79134229Y-49226944D01*
X79068205Y-49213811D01*
X79018773Y-49168116D01*
X79000500Y-49103326D01*
X79000500Y-46625849D01*
X79013288Y-46571005D01*
X79049014Y-46527473D01*
X79178282Y-46428282D01*
X79226706Y-46365174D01*
X79274536Y-46302841D01*
X79335044Y-46156762D01*
X79355682Y-46000000D01*
X79335044Y-45843238D01*
X79274536Y-45697159D01*
X79268642Y-45689478D01*
X79178282Y-45571717D01*
X79052840Y-45475463D01*
X78906762Y-45414956D01*
X78750000Y-45394317D01*
X78593237Y-45414956D01*
X78447159Y-45475463D01*
X78321717Y-45571717D01*
X78225463Y-45697159D01*
X78164956Y-45843237D01*
X78144317Y-45999999D01*
X78164956Y-46156762D01*
X78225463Y-46302840D01*
X78323876Y-46431095D01*
X78342919Y-46466723D01*
X78349500Y-46506581D01*
X78349500Y-49839812D01*
X78335985Y-49896107D01*
X78298385Y-49940130D01*
X78244898Y-49962285D01*
X78187182Y-49957743D01*
X78137819Y-49927493D01*
X75132011Y-46921685D01*
X75102273Y-46873862D01*
X75096753Y-46817818D01*
X75097616Y-46811265D01*
X75105682Y-46750000D01*
X75085044Y-46593238D01*
X75024536Y-46447159D01*
X75010051Y-46428282D01*
X74928282Y-46321717D01*
X74802840Y-46225463D01*
X74656762Y-46164956D01*
X74500000Y-46144317D01*
X74343237Y-46164956D01*
X74196952Y-46225549D01*
X74137345Y-46234391D01*
X74080609Y-46214090D01*
X74040142Y-46169441D01*
X74025500Y-46110988D01*
X74025500Y-43814795D01*
X74043142Y-43751046D01*
X74091046Y-43705437D01*
X74152460Y-43672609D01*
X74258538Y-43615910D01*
X74410883Y-43490883D01*
X74454648Y-43437554D01*
X74503048Y-43401660D01*
X74562654Y-43392818D01*
X74619391Y-43413119D01*
X74659858Y-43457768D01*
X74674500Y-43516221D01*
X74674500Y-44681701D01*
X74661712Y-44736545D01*
X74625986Y-44780077D01*
X74571717Y-44821718D01*
X74475463Y-44947159D01*
X74414956Y-45093237D01*
X74394317Y-45250000D01*
X74414956Y-45406762D01*
X74475463Y-45552840D01*
X74571717Y-45678282D01*
X74686483Y-45766344D01*
X74697159Y-45774536D01*
X74843238Y-45835044D01*
X75000000Y-45855682D01*
X75156762Y-45835044D01*
X75302841Y-45774536D01*
X75428282Y-45678282D01*
X75524536Y-45552841D01*
X75585044Y-45406762D01*
X75605682Y-45250000D01*
X75585044Y-45093238D01*
X75524536Y-44947159D01*
X75428282Y-44821718D01*
X75374013Y-44780076D01*
X75338288Y-44736545D01*
X75325500Y-44681701D01*
X75325500Y-42780000D01*
X80314659Y-42780000D01*
X80333976Y-42976133D01*
X80391185Y-43164726D01*
X80452126Y-43278738D01*
X80484090Y-43338538D01*
X80609117Y-43490883D01*
X80761462Y-43615910D01*
X80935273Y-43708814D01*
X81123868Y-43766024D01*
X81320000Y-43785341D01*
X81516132Y-43766024D01*
X81704727Y-43708814D01*
X81878538Y-43615910D01*
X82030883Y-43490883D01*
X82155910Y-43338538D01*
X82248814Y-43164727D01*
X82306024Y-42976132D01*
X82325341Y-42780000D01*
X82306024Y-42583868D01*
X82248814Y-42395273D01*
X82155910Y-42221462D01*
X82030883Y-42069117D01*
X81878538Y-41944090D01*
X81811254Y-41908126D01*
X81704726Y-41851185D01*
X81516133Y-41793976D01*
X81320000Y-41774659D01*
X81123866Y-41793976D01*
X80935273Y-41851185D01*
X80761463Y-41944089D01*
X80609117Y-42069117D01*
X80484089Y-42221463D01*
X80391185Y-42395273D01*
X80333976Y-42583866D01*
X80314659Y-42780000D01*
X75325500Y-42780000D01*
X75325500Y-40240000D01*
X80314659Y-40240000D01*
X80333976Y-40436133D01*
X80391185Y-40624726D01*
X80452166Y-40738812D01*
X80484090Y-40798538D01*
X80609117Y-40950883D01*
X80761462Y-41075910D01*
X80935273Y-41168814D01*
X81123868Y-41226024D01*
X81320000Y-41245341D01*
X81516132Y-41226024D01*
X81704727Y-41168814D01*
X81878538Y-41075910D01*
X82030883Y-40950883D01*
X82155910Y-40798538D01*
X82248814Y-40624727D01*
X82306024Y-40436132D01*
X82325341Y-40240000D01*
X82306024Y-40043868D01*
X82248814Y-39855273D01*
X82155910Y-39681462D01*
X82030883Y-39529117D01*
X81878538Y-39404090D01*
X81797163Y-39360594D01*
X81704726Y-39311185D01*
X81516133Y-39253976D01*
X81320000Y-39234659D01*
X81123866Y-39253976D01*
X80935273Y-39311185D01*
X80761463Y-39404089D01*
X80609117Y-39529117D01*
X80484089Y-39681463D01*
X80391185Y-39855273D01*
X80333976Y-40043866D01*
X80314659Y-40240000D01*
X75325500Y-40240000D01*
X75325500Y-39019627D01*
X75325972Y-39008819D01*
X75329264Y-38971192D01*
X75319487Y-38934706D01*
X75317145Y-38924143D01*
X75310400Y-38885891D01*
X75300171Y-38861198D01*
X75299554Y-38860317D01*
X75299554Y-38860316D01*
X75277892Y-38829379D01*
X75272080Y-38820256D01*
X75253194Y-38787544D01*
X75224255Y-38763262D01*
X75216280Y-38755954D01*
X74736819Y-38276493D01*
X74709939Y-38236265D01*
X74700500Y-38188812D01*
X74700500Y-37950000D01*
X80298590Y-37950000D01*
X80345233Y-38103764D01*
X80442731Y-38286171D01*
X80573945Y-38446054D01*
X80733828Y-38577268D01*
X80916235Y-38674766D01*
X81070000Y-38721410D01*
X81070000Y-37950000D01*
X81570000Y-37950000D01*
X81570000Y-38721410D01*
X81723764Y-38674766D01*
X81906171Y-38577268D01*
X82066054Y-38446054D01*
X82197268Y-38286171D01*
X82294766Y-38103764D01*
X82341410Y-37950000D01*
X81570000Y-37950000D01*
X81070000Y-37950000D01*
X80298590Y-37950000D01*
X74700500Y-37950000D01*
X74700500Y-37450000D01*
X80298590Y-37450000D01*
X81070000Y-37450000D01*
X81070000Y-36678590D01*
X81570000Y-36678590D01*
X81570000Y-37450000D01*
X82341410Y-37450000D01*
X82294766Y-37296235D01*
X82197268Y-37113828D01*
X82066054Y-36953945D01*
X81906171Y-36822731D01*
X81723764Y-36725233D01*
X81570000Y-36678590D01*
X81070000Y-36678590D01*
X80916235Y-36725233D01*
X80733828Y-36822731D01*
X80573945Y-36953945D01*
X80442731Y-37113828D01*
X80345233Y-37296235D01*
X80298590Y-37450000D01*
X74700500Y-37450000D01*
X74700500Y-36880251D01*
X74688867Y-36821769D01*
X74644552Y-36755447D01*
X74578230Y-36711132D01*
X74519749Y-36699500D01*
X74519748Y-36699500D01*
X72949500Y-36699500D01*
X72887500Y-36682887D01*
X72842113Y-36637500D01*
X72825500Y-36575500D01*
X72825500Y-34822584D01*
X72834939Y-34775131D01*
X72861819Y-34734903D01*
X74565763Y-33030958D01*
X75216290Y-32380430D01*
X75224258Y-32373130D01*
X75253192Y-32348853D01*
X75253192Y-32348852D01*
X75253194Y-32348851D01*
X75272091Y-32316118D01*
X75277887Y-32307021D01*
X75299554Y-32276080D01*
X75299554Y-32276078D01*
X75300173Y-32275195D01*
X75310399Y-32250508D01*
X75310586Y-32249443D01*
X75310588Y-32249441D01*
X75317149Y-32212226D01*
X75319478Y-32201720D01*
X75329264Y-32165203D01*
X75325971Y-32127576D01*
X75325500Y-32116769D01*
X75325500Y-27020242D01*
X75343383Y-26956093D01*
X75391871Y-26910447D01*
X75400852Y-26905734D01*
X75528183Y-26792929D01*
X75624818Y-26652930D01*
X75685140Y-26493872D01*
X75705645Y-26325000D01*
X75685140Y-26156128D01*
X75624818Y-25997070D01*
X75528183Y-25857071D01*
X75400852Y-25744266D01*
X75291927Y-25687097D01*
X75250224Y-25665209D01*
X75125765Y-25634533D01*
X75085056Y-25624500D01*
X74914944Y-25624500D01*
X74882284Y-25632549D01*
X74749775Y-25665209D01*
X74599145Y-25744267D01*
X74591222Y-25751287D01*
X74528270Y-25780961D01*
X74459247Y-25772050D01*
X74405897Y-25727359D01*
X74378994Y-25687097D01*
X74374552Y-25680448D01*
X74351747Y-25665210D01*
X74308230Y-25636132D01*
X74249749Y-25624500D01*
X74249748Y-25624500D01*
X73210252Y-25624500D01*
X73210251Y-25624500D01*
X73151769Y-25636132D01*
X73085447Y-25680447D01*
X73041132Y-25746769D01*
X73029500Y-25805251D01*
X73029500Y-26844749D01*
X73041132Y-26903230D01*
X73085447Y-26969552D01*
X73151769Y-27013867D01*
X73210251Y-27025500D01*
X73210252Y-27025500D01*
X73280500Y-27025500D01*
X73342500Y-27042113D01*
X73387887Y-27087500D01*
X73404500Y-27149500D01*
X73404500Y-32583812D01*
X73395061Y-32631265D01*
X73368181Y-32671493D01*
X69978714Y-36060958D01*
X69970741Y-36068264D01*
X69941806Y-36092544D01*
X69922914Y-36125264D01*
X69917106Y-36134380D01*
X69894831Y-36166193D01*
X69884597Y-36190899D01*
X69877852Y-36229148D01*
X69875512Y-36239704D01*
X69865735Y-36276192D01*
X69869028Y-36313820D01*
X69869500Y-36324628D01*
X69869500Y-36799667D01*
X69850262Y-36866007D01*
X69798517Y-36911762D01*
X69730321Y-36922734D01*
X69666835Y-36895520D01*
X69648230Y-36880251D01*
X69628538Y-36864090D01*
X69549361Y-36821769D01*
X69454726Y-36771185D01*
X69266133Y-36713976D01*
X69119152Y-36699500D01*
X69070000Y-36694659D01*
X69069999Y-36694659D01*
X68873866Y-36713976D01*
X68685273Y-36771185D01*
X68511463Y-36864089D01*
X68359117Y-36989117D01*
X68234089Y-37141463D01*
X68141185Y-37315273D01*
X68083976Y-37503866D01*
X68064659Y-37700000D01*
X68083976Y-37896133D01*
X68141185Y-38084726D01*
X68198858Y-38192624D01*
X68234090Y-38258538D01*
X68359117Y-38410883D01*
X68511462Y-38535910D01*
X68685273Y-38628814D01*
X68873868Y-38686024D01*
X69070000Y-38705341D01*
X69266132Y-38686024D01*
X69454727Y-38628814D01*
X69628538Y-38535910D01*
X69666835Y-38504479D01*
X69730321Y-38477266D01*
X69798517Y-38488238D01*
X69850262Y-38533993D01*
X69869500Y-38600333D01*
X69869500Y-38928811D01*
X69860061Y-38976264D01*
X69833181Y-39016492D01*
X69571546Y-39278126D01*
X69513994Y-39310729D01*
X69447870Y-39309106D01*
X69266130Y-39253975D01*
X69070000Y-39234659D01*
X68873866Y-39253976D01*
X68685273Y-39311185D01*
X68511463Y-39404089D01*
X68359117Y-39529117D01*
X68234089Y-39681463D01*
X68141185Y-39855273D01*
X68083976Y-40043866D01*
X68064659Y-40240000D01*
X68083976Y-40436133D01*
X68141185Y-40624726D01*
X68202166Y-40738812D01*
X68234090Y-40798538D01*
X68359117Y-40950883D01*
X68511462Y-41075910D01*
X68685273Y-41168814D01*
X68873868Y-41226024D01*
X69070000Y-41245341D01*
X69266132Y-41226024D01*
X69454727Y-41168814D01*
X69628538Y-41075910D01*
X69780883Y-40950883D01*
X69905910Y-40798538D01*
X69998814Y-40624727D01*
X70056024Y-40436132D01*
X70075341Y-40240000D01*
X70056024Y-40043868D01*
X70000892Y-39862126D01*
X69999270Y-39796004D01*
X70031873Y-39738452D01*
X70190610Y-39579715D01*
X70411296Y-39359029D01*
X70419249Y-39351741D01*
X70448194Y-39327455D01*
X70467082Y-39294738D01*
X70472881Y-39285635D01*
X70494554Y-39254684D01*
X70494554Y-39254682D01*
X70495173Y-39253799D01*
X70505398Y-39229112D01*
X70505585Y-39228049D01*
X70505588Y-39228045D01*
X70512150Y-39190822D01*
X70514479Y-39180316D01*
X70524263Y-39143807D01*
X70520971Y-39106188D01*
X70520500Y-39095382D01*
X70520500Y-36491188D01*
X70529939Y-36443735D01*
X70556819Y-36403507D01*
X71962819Y-34997507D01*
X72012182Y-34967257D01*
X72069898Y-34962715D01*
X72123385Y-34984870D01*
X72160985Y-35028893D01*
X72174500Y-35085188D01*
X72174500Y-40754803D01*
X72165061Y-40802256D01*
X72138181Y-40842484D01*
X70271964Y-42708700D01*
X70211451Y-42742006D01*
X70142508Y-42737770D01*
X70086528Y-42697307D01*
X70060880Y-42633173D01*
X70056024Y-42583868D01*
X69998814Y-42395273D01*
X69905910Y-42221462D01*
X69780883Y-42069117D01*
X69628538Y-41944090D01*
X69561254Y-41908126D01*
X69454726Y-41851185D01*
X69266133Y-41793976D01*
X69070000Y-41774659D01*
X68873866Y-41793976D01*
X68685273Y-41851185D01*
X68511463Y-41944089D01*
X68359117Y-42069117D01*
X68234089Y-42221463D01*
X68141185Y-42395273D01*
X68083976Y-42583866D01*
X68064659Y-42780000D01*
X68083976Y-42976133D01*
X68141185Y-43164726D01*
X68202126Y-43278738D01*
X68234090Y-43338538D01*
X68359117Y-43490883D01*
X68511462Y-43615910D01*
X68685273Y-43708814D01*
X68873868Y-43766024D01*
X68919783Y-43770546D01*
X68923172Y-43770880D01*
X68987307Y-43796528D01*
X69027769Y-43852509D01*
X69032005Y-43921452D01*
X68998699Y-43981964D01*
X62258714Y-50721949D01*
X62250741Y-50729255D01*
X62221806Y-50753535D01*
X62202914Y-50786255D01*
X62197106Y-50795371D01*
X62174831Y-50827184D01*
X62164597Y-50851890D01*
X62157852Y-50890139D01*
X62155512Y-50900695D01*
X62145735Y-50937183D01*
X62149028Y-50974811D01*
X62149500Y-50985619D01*
X62149500Y-68938812D01*
X62140061Y-68986265D01*
X62113181Y-69026493D01*
X59321546Y-71818126D01*
X59263994Y-71850729D01*
X59197870Y-71849106D01*
X59192427Y-71847455D01*
X59173714Y-71841778D01*
X59016130Y-71793975D01*
X58820000Y-71774659D01*
X58623866Y-71793976D01*
X58435273Y-71851185D01*
X58261463Y-71944089D01*
X58223165Y-71975520D01*
X58159679Y-72002734D01*
X58091483Y-71991762D01*
X58039738Y-71946007D01*
X58020500Y-71879667D01*
X58020500Y-71551188D01*
X58029939Y-71503735D01*
X58056819Y-71463507D01*
X58318452Y-71201873D01*
X58376004Y-71169270D01*
X58442126Y-71170892D01*
X58623868Y-71226024D01*
X58820000Y-71245341D01*
X59016132Y-71226024D01*
X59204727Y-71168814D01*
X59378538Y-71075910D01*
X59530883Y-70950883D01*
X59655910Y-70798538D01*
X59748814Y-70624727D01*
X59806024Y-70436132D01*
X59825341Y-70240000D01*
X59806024Y-70043868D01*
X59748814Y-69855273D01*
X59655910Y-69681462D01*
X59530883Y-69529117D01*
X59378538Y-69404090D01*
X59317535Y-69371483D01*
X59204726Y-69311185D01*
X59016133Y-69253976D01*
X58820000Y-69234659D01*
X58623866Y-69253976D01*
X58435273Y-69311185D01*
X58261463Y-69404089D01*
X58109117Y-69529117D01*
X57984089Y-69681463D01*
X57891185Y-69855273D01*
X57833976Y-70043866D01*
X57814659Y-70240000D01*
X57833975Y-70436130D01*
X57889106Y-70617870D01*
X57890729Y-70683994D01*
X57858126Y-70741546D01*
X57478714Y-71120958D01*
X57470741Y-71128264D01*
X57441806Y-71152544D01*
X57422914Y-71185264D01*
X57417106Y-71194380D01*
X57394831Y-71226193D01*
X57384597Y-71250899D01*
X57377852Y-71289148D01*
X57375512Y-71299704D01*
X57365735Y-71336192D01*
X57369028Y-71373820D01*
X57369500Y-71384628D01*
X57369500Y-79019229D01*
X57361264Y-79063667D01*
X57337650Y-79102201D01*
X57287804Y-79157559D01*
X57195785Y-79316940D01*
X57138915Y-79491969D01*
X57123321Y-79640343D01*
X57110707Y-79674999D01*
X56889292Y-79674999D01*
X56876679Y-79640343D01*
X56875817Y-79632138D01*
X56861085Y-79491971D01*
X56809315Y-79332639D01*
X56804214Y-79316940D01*
X56712195Y-79157559D01*
X56589049Y-79020791D01*
X56440162Y-78912619D01*
X56272031Y-78837762D01*
X56092020Y-78799500D01*
X56092019Y-78799500D01*
X55907981Y-78799500D01*
X55907980Y-78799500D01*
X55727968Y-78837762D01*
X55559837Y-78912619D01*
X55410950Y-79020791D01*
X55287804Y-79157559D01*
X55195785Y-79316940D01*
X55138915Y-79491969D01*
X55123321Y-79640343D01*
X55110707Y-79674999D01*
X54889292Y-79674999D01*
X54876679Y-79640343D01*
X54875817Y-79632138D01*
X54861085Y-79491971D01*
X54831169Y-79399903D01*
X54828527Y-79332639D01*
X54861418Y-79273907D01*
X54911296Y-79224029D01*
X54919250Y-79216740D01*
X54948194Y-79192455D01*
X54967102Y-79159703D01*
X54972878Y-79150638D01*
X54994553Y-79119684D01*
X54994553Y-79119681D01*
X54995171Y-79118800D01*
X55005400Y-79094105D01*
X55005586Y-79093047D01*
X55005588Y-79093045D01*
X55012150Y-79055824D01*
X55014480Y-79045312D01*
X55024263Y-79008807D01*
X55020971Y-78971188D01*
X55020500Y-78960382D01*
X55020500Y-67700000D01*
X57814659Y-67700000D01*
X57833976Y-67896133D01*
X57891185Y-68084726D01*
X57969221Y-68230720D01*
X57984090Y-68258538D01*
X58109117Y-68410883D01*
X58261462Y-68535910D01*
X58435273Y-68628814D01*
X58623868Y-68686024D01*
X58820000Y-68705341D01*
X59016132Y-68686024D01*
X59204727Y-68628814D01*
X59378538Y-68535910D01*
X59530883Y-68410883D01*
X59655910Y-68258538D01*
X59748814Y-68084727D01*
X59806024Y-67896132D01*
X59825341Y-67700000D01*
X59806024Y-67503868D01*
X59748814Y-67315273D01*
X59655910Y-67141462D01*
X59530883Y-66989117D01*
X59378538Y-66864090D01*
X59299361Y-66821769D01*
X59204726Y-66771185D01*
X59016133Y-66713976D01*
X58820000Y-66694659D01*
X58623866Y-66713976D01*
X58435273Y-66771185D01*
X58261463Y-66864089D01*
X58109117Y-66989117D01*
X57984089Y-67141463D01*
X57891185Y-67315273D01*
X57833976Y-67503866D01*
X57814659Y-67700000D01*
X55020500Y-67700000D01*
X55020500Y-61386941D01*
X55035142Y-61328488D01*
X55075609Y-61283839D01*
X55132345Y-61263538D01*
X55191952Y-61272380D01*
X55279903Y-61308809D01*
X55343238Y-61335044D01*
X55500000Y-61355682D01*
X55656762Y-61335044D01*
X55802841Y-61274536D01*
X55928282Y-61178282D01*
X56024536Y-61052841D01*
X56085044Y-60906762D01*
X56105682Y-60750000D01*
X56085044Y-60593238D01*
X56024536Y-60447159D01*
X55992990Y-60406047D01*
X55928282Y-60321717D01*
X55802840Y-60225463D01*
X55656762Y-60164956D01*
X55578314Y-60154628D01*
X55523376Y-60133264D01*
X55484511Y-60088946D01*
X55470500Y-60031689D01*
X55470500Y-59070000D01*
X56178590Y-59070000D01*
X56225233Y-59223764D01*
X56322731Y-59406171D01*
X56453945Y-59566054D01*
X56613828Y-59697268D01*
X56796235Y-59794766D01*
X56950000Y-59841410D01*
X56950000Y-59070000D01*
X57450000Y-59070000D01*
X57450000Y-59841410D01*
X57603764Y-59794766D01*
X57786171Y-59697268D01*
X57946054Y-59566054D01*
X58077268Y-59406171D01*
X58174766Y-59223764D01*
X58221410Y-59070000D01*
X57450000Y-59070000D01*
X56950000Y-59070000D01*
X56178590Y-59070000D01*
X55470500Y-59070000D01*
X55470500Y-58570000D01*
X56178590Y-58570000D01*
X56950000Y-58570000D01*
X56950000Y-57798590D01*
X57450000Y-57798590D01*
X57450000Y-58570000D01*
X58221410Y-58570000D01*
X58174766Y-58416235D01*
X58077268Y-58233828D01*
X57946054Y-58073945D01*
X57786171Y-57942731D01*
X57603764Y-57845233D01*
X57450000Y-57798590D01*
X56950000Y-57798590D01*
X56796235Y-57845233D01*
X56613828Y-57942731D01*
X56453945Y-58073945D01*
X56322731Y-58233828D01*
X56225233Y-58416235D01*
X56178590Y-58570000D01*
X55470500Y-58570000D01*
X55470500Y-56279999D01*
X56194659Y-56279999D01*
X56213976Y-56476133D01*
X56271185Y-56664726D01*
X56327355Y-56769812D01*
X56364090Y-56838538D01*
X56489117Y-56990883D01*
X56641462Y-57115910D01*
X56815273Y-57208814D01*
X57003868Y-57266024D01*
X57200000Y-57285341D01*
X57396132Y-57266024D01*
X57584727Y-57208814D01*
X57758538Y-57115910D01*
X57910883Y-56990883D01*
X58035910Y-56838538D01*
X58128814Y-56664727D01*
X58186024Y-56476132D01*
X58205341Y-56280000D01*
X58186024Y-56083868D01*
X58128814Y-55895273D01*
X58035910Y-55721462D01*
X57910883Y-55569117D01*
X57758538Y-55444090D01*
X57681161Y-55402731D01*
X57584726Y-55351185D01*
X57396133Y-55293976D01*
X57200000Y-55274659D01*
X57003866Y-55293976D01*
X56815273Y-55351185D01*
X56641463Y-55444089D01*
X56489117Y-55569117D01*
X56364089Y-55721463D01*
X56271185Y-55895273D01*
X56213976Y-56083866D01*
X56194659Y-56279999D01*
X55470500Y-56279999D01*
X55470500Y-53740000D01*
X56194659Y-53740000D01*
X56197738Y-53771265D01*
X56213976Y-53936133D01*
X56271185Y-54124726D01*
X56333627Y-54241546D01*
X56364090Y-54298538D01*
X56489117Y-54450883D01*
X56641462Y-54575910D01*
X56815273Y-54668814D01*
X57003868Y-54726024D01*
X57200000Y-54745341D01*
X57396132Y-54726024D01*
X57584727Y-54668814D01*
X57758538Y-54575910D01*
X57910883Y-54450883D01*
X58035910Y-54298538D01*
X58128814Y-54124727D01*
X58186024Y-53936132D01*
X58205341Y-53740000D01*
X58186024Y-53543868D01*
X58128814Y-53355273D01*
X58035910Y-53181462D01*
X57910883Y-53029117D01*
X57758538Y-52904090D01*
X57674263Y-52859044D01*
X57584726Y-52811185D01*
X57396133Y-52753976D01*
X57200000Y-52734659D01*
X57003866Y-52753976D01*
X56815273Y-52811185D01*
X56641463Y-52904089D01*
X56489117Y-53029117D01*
X56364089Y-53181463D01*
X56271185Y-53355273D01*
X56213976Y-53543866D01*
X56213975Y-53543868D01*
X56213976Y-53543868D01*
X56194659Y-53740000D01*
X55470500Y-53740000D01*
X55470500Y-52019749D01*
X56199500Y-52019749D01*
X56211132Y-52078230D01*
X56255447Y-52144552D01*
X56321769Y-52188867D01*
X56380251Y-52200500D01*
X56380252Y-52200500D01*
X58019748Y-52200500D01*
X58019749Y-52200500D01*
X58048989Y-52194683D01*
X58078231Y-52188867D01*
X58144552Y-52144552D01*
X58188867Y-52078231D01*
X58197285Y-52035910D01*
X58200500Y-52019749D01*
X58200500Y-50711188D01*
X58209939Y-50663735D01*
X58236819Y-50623507D01*
X59042027Y-49818299D01*
X61666290Y-47194034D01*
X61674258Y-47186734D01*
X61703192Y-47162457D01*
X61703192Y-47162456D01*
X61703194Y-47162455D01*
X61722091Y-47129722D01*
X61727887Y-47120625D01*
X61749554Y-47089684D01*
X61749554Y-47089682D01*
X61750173Y-47088799D01*
X61760399Y-47064112D01*
X61760586Y-47063047D01*
X61760588Y-47063045D01*
X61767149Y-47025830D01*
X61769478Y-47015324D01*
X61779264Y-46978807D01*
X61775971Y-46941176D01*
X61775500Y-46930370D01*
X61775500Y-43814795D01*
X61793142Y-43751046D01*
X61841046Y-43705437D01*
X61902460Y-43672609D01*
X62008538Y-43615910D01*
X62160883Y-43490883D01*
X62285910Y-43338538D01*
X62317873Y-43278738D01*
X62352553Y-43238201D01*
X62401054Y-43215986D01*
X62454401Y-43216204D01*
X62502716Y-43238813D01*
X62546289Y-43272248D01*
X62692368Y-43332756D01*
X62849130Y-43353394D01*
X63005892Y-43332756D01*
X63151971Y-43272248D01*
X63277412Y-43175994D01*
X63373666Y-43050553D01*
X63434174Y-42904474D01*
X63454812Y-42747712D01*
X63434174Y-42590950D01*
X63373666Y-42444871D01*
X63277412Y-42319430D01*
X63223143Y-42277788D01*
X63187418Y-42234257D01*
X63174630Y-42179413D01*
X63174630Y-39118757D01*
X63175102Y-39107949D01*
X63175928Y-39098507D01*
X63178394Y-39070323D01*
X63168617Y-39033836D01*
X63166275Y-39023273D01*
X63159530Y-38985021D01*
X63149301Y-38960328D01*
X63148684Y-38959447D01*
X63148684Y-38959446D01*
X63131361Y-38934706D01*
X63127022Y-38928509D01*
X63121210Y-38919386D01*
X63102324Y-38886674D01*
X63073385Y-38862392D01*
X63065410Y-38855084D01*
X62486819Y-38276493D01*
X62459939Y-38236265D01*
X62450500Y-38188812D01*
X62450500Y-36880251D01*
X62438867Y-36821769D01*
X62394552Y-36755447D01*
X62328230Y-36711132D01*
X62269749Y-36699500D01*
X62269748Y-36699500D01*
X60630252Y-36699500D01*
X60630251Y-36699500D01*
X60571769Y-36711132D01*
X60505447Y-36755447D01*
X60461132Y-36821769D01*
X60449500Y-36880251D01*
X60449500Y-38519749D01*
X60461132Y-38578230D01*
X60505447Y-38644552D01*
X60571769Y-38688867D01*
X60630251Y-38700500D01*
X60630252Y-38700500D01*
X61938812Y-38700500D01*
X61986265Y-38709939D01*
X62026493Y-38736819D01*
X62487311Y-39197637D01*
X62514191Y-39237865D01*
X62523630Y-39285318D01*
X62523630Y-39546539D01*
X62508988Y-39604992D01*
X62468521Y-39649641D01*
X62411785Y-39669942D01*
X62352178Y-39661100D01*
X62303777Y-39625204D01*
X62196054Y-39493945D01*
X62036171Y-39362731D01*
X61853764Y-39265233D01*
X61700000Y-39218590D01*
X61700000Y-41261410D01*
X61853764Y-41214766D01*
X62036171Y-41117268D01*
X62196054Y-40986054D01*
X62303777Y-40854796D01*
X62352178Y-40818900D01*
X62411785Y-40810058D01*
X62468521Y-40830359D01*
X62508988Y-40875008D01*
X62523630Y-40933461D01*
X62523630Y-42171169D01*
X62506609Y-42233870D01*
X62460219Y-42279358D01*
X62397196Y-42295145D01*
X62334841Y-42276897D01*
X62290272Y-42229623D01*
X62285910Y-42221462D01*
X62160883Y-42069117D01*
X62008538Y-41944090D01*
X61941254Y-41908126D01*
X61834726Y-41851185D01*
X61646133Y-41793976D01*
X61450000Y-41774659D01*
X61253866Y-41793976D01*
X61065273Y-41851185D01*
X60891463Y-41944089D01*
X60739117Y-42069117D01*
X60614089Y-42221463D01*
X60521185Y-42395273D01*
X60463976Y-42583866D01*
X60444659Y-42780000D01*
X60463976Y-42976133D01*
X60521185Y-43164726D01*
X60582126Y-43278738D01*
X60614090Y-43338538D01*
X60739117Y-43490883D01*
X60891462Y-43615910D01*
X60947098Y-43645648D01*
X61058954Y-43705437D01*
X61106858Y-43751046D01*
X61124500Y-43814795D01*
X61124500Y-46763812D01*
X61115061Y-46811265D01*
X61088181Y-46851493D01*
X57776493Y-50163181D01*
X57736265Y-50190061D01*
X57688812Y-50199500D01*
X56380251Y-50199500D01*
X56321769Y-50211132D01*
X56255447Y-50255447D01*
X56211132Y-50321769D01*
X56199500Y-50380251D01*
X56199500Y-52019749D01*
X55470500Y-52019749D01*
X55470500Y-47435493D01*
X55479939Y-47388040D01*
X55506819Y-47347812D01*
X56142176Y-46712455D01*
X56786296Y-46068334D01*
X56794249Y-46061046D01*
X56823194Y-46036760D01*
X56842082Y-46004043D01*
X56847881Y-45994940D01*
X56869554Y-45963989D01*
X56869554Y-45963987D01*
X56870173Y-45963104D01*
X56880398Y-45938417D01*
X56880585Y-45937354D01*
X56880588Y-45937350D01*
X56887150Y-45900127D01*
X56889479Y-45889621D01*
X56899263Y-45853112D01*
X56895971Y-45815493D01*
X56895500Y-45804687D01*
X56895500Y-43814795D01*
X56913142Y-43751046D01*
X56961046Y-43705437D01*
X57022460Y-43672609D01*
X57128538Y-43615910D01*
X57280883Y-43490883D01*
X57405910Y-43338538D01*
X57498814Y-43164727D01*
X57556024Y-42976132D01*
X57575341Y-42780000D01*
X57556024Y-42583868D01*
X57498814Y-42395273D01*
X57405910Y-42221462D01*
X57280883Y-42069117D01*
X57128538Y-41944090D01*
X57061254Y-41908126D01*
X56954726Y-41851185D01*
X56766133Y-41793976D01*
X56570000Y-41774659D01*
X56373866Y-41793976D01*
X56185273Y-41851185D01*
X56011462Y-41944089D01*
X55947665Y-41996447D01*
X55884179Y-42023661D01*
X55815983Y-42012689D01*
X55764238Y-41966934D01*
X55745000Y-41900594D01*
X55745000Y-41119406D01*
X55764238Y-41053066D01*
X55815983Y-41007311D01*
X55884179Y-40996339D01*
X55947665Y-41023553D01*
X56011462Y-41075910D01*
X56185273Y-41168814D01*
X56373868Y-41226024D01*
X56570000Y-41245341D01*
X56766132Y-41226024D01*
X56954727Y-41168814D01*
X57128538Y-41075910D01*
X57280883Y-40950883D01*
X57405910Y-40798538D01*
X57498814Y-40624727D01*
X57539683Y-40490000D01*
X60428590Y-40490000D01*
X60475233Y-40643764D01*
X60572731Y-40826171D01*
X60703945Y-40986054D01*
X60863828Y-41117268D01*
X61046235Y-41214766D01*
X61200000Y-41261410D01*
X61200000Y-40490000D01*
X60428590Y-40490000D01*
X57539683Y-40490000D01*
X57556024Y-40436132D01*
X57575341Y-40240000D01*
X57556024Y-40043868D01*
X57539683Y-39990000D01*
X60428590Y-39990000D01*
X61200000Y-39990000D01*
X61200000Y-39218590D01*
X61046235Y-39265233D01*
X60863828Y-39362731D01*
X60703945Y-39493945D01*
X60572731Y-39653828D01*
X60475233Y-39836235D01*
X60428590Y-39990000D01*
X57539683Y-39990000D01*
X57500892Y-39862126D01*
X57499270Y-39796004D01*
X57531873Y-39738452D01*
X57844575Y-39425750D01*
X58216296Y-39054029D01*
X58224250Y-39046740D01*
X58253194Y-39022455D01*
X58272102Y-38989703D01*
X58277878Y-38980638D01*
X58299553Y-38949684D01*
X58299553Y-38949681D01*
X58300171Y-38948800D01*
X58310400Y-38924105D01*
X58310586Y-38923047D01*
X58310588Y-38923045D01*
X58317150Y-38885824D01*
X58319480Y-38875312D01*
X58329263Y-38838807D01*
X58325971Y-38801188D01*
X58325500Y-38790382D01*
X58325500Y-31993958D01*
X58334529Y-31947507D01*
X58360302Y-31907820D01*
X58399065Y-31880678D01*
X58400022Y-31880251D01*
X58440161Y-31862381D01*
X58589050Y-31754207D01*
X58712195Y-31617440D01*
X58804214Y-31458059D01*
X58856046Y-31298535D01*
X58889092Y-31246464D01*
X58943138Y-31216752D01*
X59004814Y-31216752D01*
X59058860Y-31246464D01*
X59091907Y-31298538D01*
X59150315Y-31478304D01*
X59247536Y-31646696D01*
X59377643Y-31791193D01*
X59534952Y-31905486D01*
X59712586Y-31984572D01*
X59750000Y-31992525D01*
X59750000Y-31350000D01*
X60250000Y-31350000D01*
X60250000Y-31992525D01*
X60287413Y-31984572D01*
X60465047Y-31905486D01*
X60622356Y-31791193D01*
X60752463Y-31646696D01*
X60849684Y-31478304D01*
X60891372Y-31350000D01*
X60250000Y-31350000D01*
X59750000Y-31350000D01*
X59750000Y-30207474D01*
X60250000Y-30207474D01*
X60250000Y-30850000D01*
X60891372Y-30850000D01*
X60891372Y-30849999D01*
X60849684Y-30721695D01*
X60752463Y-30553303D01*
X60622356Y-30408806D01*
X60465047Y-30294513D01*
X60287413Y-30215427D01*
X60250000Y-30207474D01*
X59750000Y-30207474D01*
X59712585Y-30215427D01*
X59534952Y-30294513D01*
X59377643Y-30408805D01*
X59247536Y-30553303D01*
X59150315Y-30721695D01*
X59091907Y-30901461D01*
X59058860Y-30953535D01*
X59004814Y-30983247D01*
X58943138Y-30983247D01*
X58889092Y-30953535D01*
X58856045Y-30901461D01*
X58839324Y-30850000D01*
X58804214Y-30741941D01*
X58804214Y-30741940D01*
X58712195Y-30582559D01*
X58589049Y-30445791D01*
X58440162Y-30337619D01*
X58272031Y-30262762D01*
X58092020Y-30224500D01*
X58092019Y-30224500D01*
X57907981Y-30224500D01*
X57907980Y-30224500D01*
X57727968Y-30262762D01*
X57559837Y-30337619D01*
X57410950Y-30445791D01*
X57287804Y-30582559D01*
X57195785Y-30741940D01*
X57138915Y-30916969D01*
X57123321Y-31065343D01*
X57110707Y-31099999D01*
X57123320Y-31134653D01*
X57124183Y-31142862D01*
X57138915Y-31283030D01*
X57195785Y-31458059D01*
X57287804Y-31617440D01*
X57410950Y-31754208D01*
X57559837Y-31862380D01*
X57600935Y-31880678D01*
X57639698Y-31907820D01*
X57665471Y-31947507D01*
X57674500Y-31993958D01*
X57674500Y-37148923D01*
X57657479Y-37211625D01*
X57611089Y-37257113D01*
X57548065Y-37272899D01*
X57485710Y-37254650D01*
X57441142Y-37207376D01*
X57409898Y-37148923D01*
X57405910Y-37141462D01*
X57280883Y-36989117D01*
X57128538Y-36864090D01*
X57049361Y-36821769D01*
X56954726Y-36771185D01*
X56766133Y-36713976D01*
X56619152Y-36699500D01*
X56570000Y-36694659D01*
X56569999Y-36694659D01*
X56373866Y-36713976D01*
X56185273Y-36771185D01*
X56011463Y-36864089D01*
X55859117Y-36989117D01*
X55734089Y-37141463D01*
X55641185Y-37315273D01*
X55583976Y-37503866D01*
X55564659Y-37699999D01*
X55583975Y-37896130D01*
X55639106Y-38077870D01*
X55640729Y-38143994D01*
X55608126Y-38201546D01*
X55232181Y-38577492D01*
X55182818Y-38607742D01*
X55125102Y-38612284D01*
X55071615Y-38590129D01*
X55034015Y-38546106D01*
X55020500Y-38489811D01*
X55020500Y-31814616D01*
X55020972Y-31803808D01*
X55024263Y-31766193D01*
X55014486Y-31729706D01*
X55012145Y-31719143D01*
X55005402Y-31680901D01*
X54995169Y-31656195D01*
X54972894Y-31624382D01*
X54967083Y-31615261D01*
X54948194Y-31582545D01*
X54919261Y-31558267D01*
X54911286Y-31550959D01*
X54861420Y-31501093D01*
X54828527Y-31442359D01*
X54831169Y-31375096D01*
X54861085Y-31283029D01*
X54876679Y-31134653D01*
X54889292Y-31099999D01*
X55110707Y-31099999D01*
X55123320Y-31134653D01*
X55124183Y-31142862D01*
X55138915Y-31283030D01*
X55195785Y-31458059D01*
X55287804Y-31617440D01*
X55410950Y-31754208D01*
X55559837Y-31862380D01*
X55727968Y-31937237D01*
X55907980Y-31975500D01*
X55907981Y-31975500D01*
X56092019Y-31975500D01*
X56092020Y-31975500D01*
X56272031Y-31937237D01*
X56272032Y-31937236D01*
X56272034Y-31937236D01*
X56440161Y-31862381D01*
X56589050Y-31754207D01*
X56712195Y-31617440D01*
X56804214Y-31458059D01*
X56861085Y-31283029D01*
X56876679Y-31134653D01*
X56889292Y-31099999D01*
X56876679Y-31065343D01*
X56875817Y-31057138D01*
X56861085Y-30916971D01*
X56804214Y-30741941D01*
X56804214Y-30741940D01*
X56712195Y-30582559D01*
X56589049Y-30445791D01*
X56440162Y-30337619D01*
X56272031Y-30262762D01*
X56092020Y-30224500D01*
X56092019Y-30224500D01*
X55907981Y-30224500D01*
X55907980Y-30224500D01*
X55727968Y-30262762D01*
X55559837Y-30337619D01*
X55410950Y-30445791D01*
X55287804Y-30582559D01*
X55195785Y-30741940D01*
X55138915Y-30916969D01*
X55123321Y-31065343D01*
X55110707Y-31099999D01*
X54889292Y-31099999D01*
X54876679Y-31065343D01*
X54875817Y-31057138D01*
X54861085Y-30916971D01*
X54804214Y-30741941D01*
X54804214Y-30741940D01*
X54712195Y-30582559D01*
X54589049Y-30445791D01*
X54440162Y-30337619D01*
X54272031Y-30262762D01*
X54092020Y-30224500D01*
X54092019Y-30224500D01*
X53907981Y-30224500D01*
X53907980Y-30224500D01*
X53727968Y-30262762D01*
X53559837Y-30337619D01*
X53410950Y-30445791D01*
X53287804Y-30582559D01*
X53195785Y-30741940D01*
X53138915Y-30916969D01*
X53123321Y-31065343D01*
X53110707Y-31099999D01*
X53123320Y-31134653D01*
X53124183Y-31142862D01*
X53138915Y-31283030D01*
X53195785Y-31458059D01*
X53287804Y-31617440D01*
X53410950Y-31754208D01*
X53559837Y-31862380D01*
X53727968Y-31937237D01*
X53907980Y-31975500D01*
X53907981Y-31975500D01*
X54092019Y-31975500D01*
X54219719Y-31948356D01*
X54274447Y-31949072D01*
X54323535Y-31973280D01*
X54357420Y-32016262D01*
X54369500Y-32069646D01*
X54369500Y-39579715D01*
X54354858Y-39638168D01*
X54314391Y-39682817D01*
X54257655Y-39703118D01*
X54198048Y-39694276D01*
X54127262Y-39664956D01*
X53970500Y-39644317D01*
X53813737Y-39664956D01*
X53667659Y-39725463D01*
X53542217Y-39821717D01*
X53445963Y-39947159D01*
X53385456Y-40093237D01*
X53364818Y-40250000D01*
X53373455Y-40315613D01*
X53366086Y-40376737D01*
X53330226Y-40426783D01*
X53316806Y-40438044D01*
X53297914Y-40470764D01*
X53292106Y-40479880D01*
X53269831Y-40511693D01*
X53259597Y-40536399D01*
X53252852Y-40574648D01*
X53250512Y-40585204D01*
X53240735Y-40621692D01*
X53244028Y-40659320D01*
X53244500Y-40670128D01*
X53244500Y-50165205D01*
X53226858Y-50228954D01*
X53178954Y-50274563D01*
X53011461Y-50364090D01*
X52859117Y-50489117D01*
X52734089Y-50641463D01*
X52641185Y-50815273D01*
X52583976Y-51003866D01*
X52568326Y-51162764D01*
X52564659Y-51200000D01*
X52572507Y-51279684D01*
X52583976Y-51396133D01*
X52641185Y-51584726D01*
X52703627Y-51701546D01*
X52734090Y-51758538D01*
X52859117Y-51910883D01*
X53011462Y-52035910D01*
X53185273Y-52128814D01*
X53373868Y-52186024D01*
X53570000Y-52205341D01*
X53766132Y-52186024D01*
X53954727Y-52128814D01*
X54128538Y-52035910D01*
X54166835Y-52004479D01*
X54230321Y-51977266D01*
X54298517Y-51988238D01*
X54350262Y-52033993D01*
X54369500Y-52100333D01*
X54369500Y-52839667D01*
X54350262Y-52906007D01*
X54298517Y-52951762D01*
X54230321Y-52962734D01*
X54166835Y-52935520D01*
X54128538Y-52904090D01*
X54044263Y-52859044D01*
X53954726Y-52811185D01*
X53766133Y-52753976D01*
X53570000Y-52734659D01*
X53373866Y-52753976D01*
X53185273Y-52811185D01*
X53011463Y-52904089D01*
X52859117Y-53029117D01*
X52734089Y-53181463D01*
X52641185Y-53355273D01*
X52583976Y-53543866D01*
X52564659Y-53740000D01*
X52567692Y-53770800D01*
X52554773Y-53839249D01*
X52506990Y-53889933D01*
X52483623Y-53895785D01*
X52502034Y-53894276D01*
X52561611Y-53923899D01*
X52597299Y-53980053D01*
X52629151Y-54085054D01*
X52639106Y-54117870D01*
X52640729Y-54183995D01*
X52608126Y-54241546D01*
X52522795Y-54326877D01*
X52464061Y-54359770D01*
X52396795Y-54357127D01*
X52340823Y-54319727D01*
X52312640Y-54258593D01*
X52320553Y-54191744D01*
X52335044Y-54156762D01*
X52355682Y-54000000D01*
X52355682Y-53999999D01*
X52355700Y-53999864D01*
X52381764Y-53938646D01*
X52430139Y-53903740D01*
X52373387Y-53884682D01*
X52329728Y-53830405D01*
X52324163Y-53816971D01*
X52274536Y-53697159D01*
X52222948Y-53629928D01*
X52178282Y-53571717D01*
X52052840Y-53475463D01*
X51906762Y-53414956D01*
X51750000Y-53394317D01*
X51593237Y-53414956D01*
X51447159Y-53475463D01*
X51321717Y-53571717D01*
X51225463Y-53697159D01*
X51164956Y-53843237D01*
X51144317Y-54000000D01*
X51164956Y-54156762D01*
X51225463Y-54302840D01*
X51311492Y-54414956D01*
X51321718Y-54428282D01*
X51356079Y-54454648D01*
X51375986Y-54469923D01*
X51411712Y-54513455D01*
X51424500Y-54568299D01*
X51424500Y-57980372D01*
X51424028Y-57991180D01*
X51420735Y-58028807D01*
X51430512Y-58065296D01*
X51432853Y-58075852D01*
X51439599Y-58114107D01*
X51449829Y-58138803D01*
X51450446Y-58139684D01*
X51472112Y-58170627D01*
X51477915Y-58179736D01*
X51496806Y-58212455D01*
X51522277Y-58233828D01*
X51525742Y-58236735D01*
X51533718Y-58244044D01*
X52325950Y-59036276D01*
X52333258Y-59044250D01*
X52357545Y-59073194D01*
X52381594Y-59087079D01*
X52390256Y-59092080D01*
X52399379Y-59097892D01*
X52430316Y-59119554D01*
X52430317Y-59119554D01*
X52431198Y-59120171D01*
X52455891Y-59130400D01*
X52456954Y-59130587D01*
X52456955Y-59130588D01*
X52494146Y-59137145D01*
X52504689Y-59139481D01*
X52522402Y-59144227D01*
X52577988Y-59176319D01*
X52610082Y-59231907D01*
X52610083Y-59296095D01*
X52577989Y-59351683D01*
X50983714Y-60945958D01*
X50975741Y-60953264D01*
X50946806Y-60977544D01*
X50927914Y-61010264D01*
X50922106Y-61019380D01*
X50899831Y-61051193D01*
X50889597Y-61075899D01*
X50882852Y-61114148D01*
X50880512Y-61124704D01*
X50870735Y-61161192D01*
X50874028Y-61198820D01*
X50874500Y-61209628D01*
X50874500Y-66575500D01*
X50857887Y-66637500D01*
X50812500Y-66682887D01*
X50750500Y-66699500D01*
X50380251Y-66699500D01*
X50321769Y-66711132D01*
X50255447Y-66755447D01*
X50211132Y-66821769D01*
X50199500Y-66880251D01*
X50199500Y-68188812D01*
X50190061Y-68236265D01*
X50163181Y-68276493D01*
X49783714Y-68655958D01*
X49775741Y-68663264D01*
X49746806Y-68687544D01*
X49727914Y-68720264D01*
X49722106Y-68729380D01*
X49699831Y-68761193D01*
X49689597Y-68785899D01*
X49682852Y-68824148D01*
X49680512Y-68834704D01*
X49670735Y-68871192D01*
X49674028Y-68908820D01*
X49674500Y-68919628D01*
X49674500Y-78675500D01*
X49657887Y-78737500D01*
X49612500Y-78782887D01*
X49550500Y-78799500D01*
X49305251Y-78799500D01*
X49246769Y-78811132D01*
X49180447Y-78855447D01*
X49136132Y-78921769D01*
X49124500Y-78980251D01*
X49124500Y-80369749D01*
X36670075Y-80369749D01*
X32101873Y-75801547D01*
X32069270Y-75743995D01*
X32070894Y-75677870D01*
X32109683Y-75550000D01*
X32126024Y-75496132D01*
X32145341Y-75300000D01*
X32674659Y-75300000D01*
X32693976Y-75496133D01*
X32751185Y-75684726D01*
X32782865Y-75743994D01*
X32844090Y-75858538D01*
X32969117Y-76010883D01*
X33121462Y-76135910D01*
X33295273Y-76228814D01*
X33483868Y-76286024D01*
X33680000Y-76305341D01*
X33876132Y-76286024D01*
X34064727Y-76228814D01*
X34238538Y-76135910D01*
X34390883Y-76010883D01*
X34515910Y-75858538D01*
X34608814Y-75684727D01*
X34666024Y-75496132D01*
X34685341Y-75300000D01*
X35214659Y-75300000D01*
X35233976Y-75496133D01*
X35291185Y-75684726D01*
X35322865Y-75743994D01*
X35384090Y-75858538D01*
X35509117Y-76010883D01*
X35661462Y-76135910D01*
X35835273Y-76228814D01*
X36023868Y-76286024D01*
X36220000Y-76305341D01*
X36416132Y-76286024D01*
X36604727Y-76228814D01*
X36778538Y-76135910D01*
X36930883Y-76010883D01*
X37055910Y-75858538D01*
X37148814Y-75684727D01*
X37206024Y-75496132D01*
X37225341Y-75300000D01*
X37754659Y-75300000D01*
X37773976Y-75496133D01*
X37831185Y-75684726D01*
X37862865Y-75743994D01*
X37924090Y-75858538D01*
X38049117Y-76010883D01*
X38201462Y-76135910D01*
X38375273Y-76228814D01*
X38563868Y-76286024D01*
X38760000Y-76305341D01*
X38956132Y-76286024D01*
X39144727Y-76228814D01*
X39318538Y-76135910D01*
X39470883Y-76010883D01*
X39595910Y-75858538D01*
X39688814Y-75684727D01*
X39746024Y-75496132D01*
X39765341Y-75300000D01*
X40294659Y-75300000D01*
X40313976Y-75496133D01*
X40371185Y-75684726D01*
X40402865Y-75743994D01*
X40464090Y-75858538D01*
X40589117Y-76010883D01*
X40741462Y-76135910D01*
X40915273Y-76228814D01*
X41103868Y-76286024D01*
X41300000Y-76305341D01*
X41496132Y-76286024D01*
X41684727Y-76228814D01*
X41858538Y-76135910D01*
X42010883Y-76010883D01*
X42135910Y-75858538D01*
X42228814Y-75684727D01*
X42286024Y-75496132D01*
X42305341Y-75300000D01*
X42834659Y-75300000D01*
X42853976Y-75496133D01*
X42911185Y-75684726D01*
X42942865Y-75743994D01*
X43004090Y-75858538D01*
X43129117Y-76010883D01*
X43281462Y-76135910D01*
X43455273Y-76228814D01*
X43643868Y-76286024D01*
X43840000Y-76305341D01*
X44036132Y-76286024D01*
X44224727Y-76228814D01*
X44398538Y-76135910D01*
X44550883Y-76010883D01*
X44675910Y-75858538D01*
X44768814Y-75684727D01*
X44809683Y-75550000D01*
X45358590Y-75550000D01*
X45405233Y-75703764D01*
X45502731Y-75886171D01*
X45633945Y-76046054D01*
X45793828Y-76177268D01*
X45976235Y-76274766D01*
X46130000Y-76321410D01*
X46130000Y-75550000D01*
X46630000Y-75550000D01*
X46630000Y-76321410D01*
X46783764Y-76274766D01*
X46966171Y-76177268D01*
X47126054Y-76046054D01*
X47257268Y-75886171D01*
X47354766Y-75703764D01*
X47401410Y-75550000D01*
X46630000Y-75550000D01*
X46130000Y-75550000D01*
X45358590Y-75550000D01*
X44809683Y-75550000D01*
X44826024Y-75496132D01*
X44845341Y-75300000D01*
X44826024Y-75103868D01*
X44809683Y-75050000D01*
X45358590Y-75050000D01*
X46130000Y-75050000D01*
X46130000Y-74278590D01*
X46630000Y-74278590D01*
X46630000Y-75050000D01*
X47401410Y-75050000D01*
X47354766Y-74896235D01*
X47257268Y-74713828D01*
X47126054Y-74553945D01*
X46966171Y-74422731D01*
X46783764Y-74325233D01*
X46630000Y-74278590D01*
X46130000Y-74278590D01*
X45976235Y-74325233D01*
X45793828Y-74422731D01*
X45633945Y-74553945D01*
X45502731Y-74713828D01*
X45405233Y-74896235D01*
X45358590Y-75050000D01*
X44809683Y-75050000D01*
X44768814Y-74915273D01*
X44675910Y-74741462D01*
X44550883Y-74589117D01*
X44398538Y-74464090D01*
X44319361Y-74421769D01*
X44224726Y-74371185D01*
X44036133Y-74313976D01*
X43840000Y-74294659D01*
X43643866Y-74313976D01*
X43455273Y-74371185D01*
X43281463Y-74464089D01*
X43129117Y-74589117D01*
X43004089Y-74741463D01*
X42911185Y-74915273D01*
X42853976Y-75103866D01*
X42834659Y-75300000D01*
X42305341Y-75300000D01*
X42286024Y-75103868D01*
X42228814Y-74915273D01*
X42135910Y-74741462D01*
X42010883Y-74589117D01*
X41858538Y-74464090D01*
X41779361Y-74421769D01*
X41684726Y-74371185D01*
X41496133Y-74313976D01*
X41300000Y-74294659D01*
X41103866Y-74313976D01*
X40915273Y-74371185D01*
X40741463Y-74464089D01*
X40589117Y-74589117D01*
X40464089Y-74741463D01*
X40371185Y-74915273D01*
X40313976Y-75103866D01*
X40294659Y-75300000D01*
X39765341Y-75300000D01*
X39746024Y-75103868D01*
X39688814Y-74915273D01*
X39595910Y-74741462D01*
X39470883Y-74589117D01*
X39318538Y-74464090D01*
X39239361Y-74421769D01*
X39144726Y-74371185D01*
X38956133Y-74313976D01*
X38760000Y-74294659D01*
X38563866Y-74313976D01*
X38375273Y-74371185D01*
X38201463Y-74464089D01*
X38049117Y-74589117D01*
X37924089Y-74741463D01*
X37831185Y-74915273D01*
X37773976Y-75103866D01*
X37754659Y-75300000D01*
X37225341Y-75300000D01*
X37206024Y-75103868D01*
X37148814Y-74915273D01*
X37055910Y-74741462D01*
X36930883Y-74589117D01*
X36778538Y-74464090D01*
X36699361Y-74421769D01*
X36604726Y-74371185D01*
X36416133Y-74313976D01*
X36220000Y-74294659D01*
X36023866Y-74313976D01*
X35835273Y-74371185D01*
X35661463Y-74464089D01*
X35509117Y-74589117D01*
X35384089Y-74741463D01*
X35291185Y-74915273D01*
X35233976Y-75103866D01*
X35214659Y-75300000D01*
X34685341Y-75300000D01*
X34666024Y-75103868D01*
X34608814Y-74915273D01*
X34515910Y-74741462D01*
X34390883Y-74589117D01*
X34238538Y-74464090D01*
X34159361Y-74421769D01*
X34064726Y-74371185D01*
X33876133Y-74313976D01*
X33680000Y-74294659D01*
X33483866Y-74313976D01*
X33295273Y-74371185D01*
X33121463Y-74464089D01*
X32969117Y-74589117D01*
X32844089Y-74741463D01*
X32751185Y-74915273D01*
X32693976Y-75103866D01*
X32674659Y-75300000D01*
X32145341Y-75300000D01*
X32126024Y-75103868D01*
X32068814Y-74915273D01*
X31975910Y-74741462D01*
X31850883Y-74589117D01*
X31698538Y-74464090D01*
X31619361Y-74421769D01*
X31524726Y-74371185D01*
X31336133Y-74313976D01*
X31140000Y-74294659D01*
X30943866Y-74313976D01*
X30755273Y-74371185D01*
X30581463Y-74464089D01*
X30429117Y-74589117D01*
X30304089Y-74741463D01*
X30211185Y-74915273D01*
X30153976Y-75103866D01*
X30134659Y-75300000D01*
X30153976Y-75496133D01*
X30211185Y-75684726D01*
X30242865Y-75743994D01*
X30304090Y-75858538D01*
X30429117Y-76010883D01*
X30581462Y-76135910D01*
X30755273Y-76228814D01*
X30943868Y-76286024D01*
X31140000Y-76305341D01*
X31336132Y-76286024D01*
X31517870Y-76230893D01*
X31583995Y-76229270D01*
X31641547Y-76261873D01*
X37178181Y-81798507D01*
X37205061Y-81838735D01*
X37214500Y-81886188D01*
X37214500Y-82879758D01*
X37196617Y-82943907D01*
X37148128Y-82989552D01*
X37143234Y-82992121D01*
X37139149Y-82994265D01*
X37139147Y-82994266D01*
X37139148Y-82994266D01*
X37011817Y-83107071D01*
X37011816Y-83107072D01*
X37011813Y-83107075D01*
X37007046Y-83113981D01*
X36962620Y-83153336D01*
X36904995Y-83167537D01*
X36847370Y-83153332D01*
X36802949Y-83113975D01*
X36798183Y-83107071D01*
X36670852Y-82994266D01*
X36662519Y-82989892D01*
X36624979Y-82959589D01*
X36601845Y-82917251D01*
X36596620Y-82869291D01*
X36599263Y-82839087D01*
X36589483Y-82802591D01*
X36587144Y-82792034D01*
X36580400Y-82753785D01*
X36570173Y-82729095D01*
X36569554Y-82728211D01*
X36569554Y-82728210D01*
X36547878Y-82697254D01*
X36542085Y-82688160D01*
X36523194Y-82655439D01*
X36494261Y-82631161D01*
X36486286Y-82623853D01*
X33079163Y-79216730D01*
X29636818Y-75774386D01*
X29609939Y-75734159D01*
X29600500Y-75686706D01*
X29600500Y-74480251D01*
X29588867Y-74421769D01*
X29544552Y-74355447D01*
X29478230Y-74311132D01*
X29419749Y-74299500D01*
X29419748Y-74299500D01*
X27924500Y-74299500D01*
X27862500Y-74282887D01*
X27817113Y-74237500D01*
X27800500Y-74175500D01*
X27800500Y-71531188D01*
X27809939Y-71483735D01*
X27836819Y-71443507D01*
X30638452Y-68641873D01*
X30696004Y-68609270D01*
X30762126Y-68610892D01*
X30943868Y-68666024D01*
X31140000Y-68685341D01*
X31336132Y-68666024D01*
X31524727Y-68608814D01*
X31698538Y-68515910D01*
X31850883Y-68390883D01*
X31975910Y-68238538D01*
X32068814Y-68064727D01*
X32126024Y-67876132D01*
X32145341Y-67680000D01*
X32126024Y-67483868D01*
X32068814Y-67295273D01*
X31975910Y-67121462D01*
X31850883Y-66969117D01*
X31698538Y-66844090D01*
X31621161Y-66802731D01*
X31524726Y-66751185D01*
X31336133Y-66693976D01*
X31140000Y-66674659D01*
X30943866Y-66693976D01*
X30755273Y-66751185D01*
X30581463Y-66844089D01*
X30429117Y-66969117D01*
X30304089Y-67121463D01*
X30211185Y-67295273D01*
X30153976Y-67483866D01*
X30134659Y-67680000D01*
X30153975Y-67876130D01*
X30209106Y-68057870D01*
X30210729Y-68123994D01*
X30178126Y-68181546D01*
X27258714Y-71100958D01*
X27250741Y-71108264D01*
X27221806Y-71132544D01*
X27202914Y-71165264D01*
X27197106Y-71174380D01*
X27174831Y-71206193D01*
X27164597Y-71230899D01*
X27157852Y-71269148D01*
X27155512Y-71279704D01*
X27145735Y-71316192D01*
X27149028Y-71353820D01*
X27149500Y-71364628D01*
X27149500Y-76780372D01*
X27149028Y-76791180D01*
X27145735Y-76828807D01*
X25000500Y-76828807D01*
X25000500Y-67680000D01*
X27594659Y-67680000D01*
X27613976Y-67876133D01*
X27671185Y-68064726D01*
X27702865Y-68123994D01*
X27764090Y-68238538D01*
X27889117Y-68390883D01*
X28041462Y-68515910D01*
X28215273Y-68608814D01*
X28403868Y-68666024D01*
X28600000Y-68685341D01*
X28796132Y-68666024D01*
X28984727Y-68608814D01*
X29158538Y-68515910D01*
X29310883Y-68390883D01*
X29435910Y-68238538D01*
X29528814Y-68064727D01*
X29586024Y-67876132D01*
X29605341Y-67680000D01*
X29586024Y-67483868D01*
X29528814Y-67295273D01*
X29435910Y-67121462D01*
X29310883Y-66969117D01*
X29158538Y-66844090D01*
X29158536Y-66844089D01*
X28991046Y-66754563D01*
X28943142Y-66708954D01*
X28925500Y-66645205D01*
X28925500Y-64128807D01*
X29770735Y-64128807D01*
X29780512Y-64165296D01*
X29782853Y-64175852D01*
X29789599Y-64214107D01*
X29799829Y-64238803D01*
X29800446Y-64239684D01*
X29822112Y-64270627D01*
X29827915Y-64279736D01*
X29846806Y-64312455D01*
X29875742Y-64336735D01*
X29883718Y-64344044D01*
X32718126Y-67178452D01*
X32750729Y-67236003D01*
X32749106Y-67302128D01*
X32693975Y-67483869D01*
X32674659Y-67680000D01*
X32693976Y-67876133D01*
X32751185Y-68064726D01*
X32782865Y-68123994D01*
X32844090Y-68238538D01*
X32969117Y-68390883D01*
X33121462Y-68515910D01*
X33295273Y-68608814D01*
X33483868Y-68666024D01*
X33680000Y-68685341D01*
X33876132Y-68666024D01*
X34064727Y-68608814D01*
X34238538Y-68515910D01*
X34390883Y-68390883D01*
X34515910Y-68238538D01*
X34608814Y-68064727D01*
X34649683Y-67930000D01*
X35198590Y-67930000D01*
X35245233Y-68083764D01*
X35342731Y-68266171D01*
X35473945Y-68426054D01*
X35633828Y-68557268D01*
X35816235Y-68654766D01*
X35970000Y-68701410D01*
X35970000Y-67930000D01*
X36470000Y-67930000D01*
X36470000Y-68701410D01*
X36623764Y-68654766D01*
X36806171Y-68557268D01*
X36966054Y-68426054D01*
X37097268Y-68266171D01*
X37194766Y-68083764D01*
X37241410Y-67930000D01*
X36470000Y-67930000D01*
X35970000Y-67930000D01*
X35198590Y-67930000D01*
X34649683Y-67930000D01*
X34666024Y-67876132D01*
X34685341Y-67680000D01*
X37754659Y-67680000D01*
X37773976Y-67876133D01*
X37831185Y-68064726D01*
X37862865Y-68123994D01*
X37924090Y-68238538D01*
X38049117Y-68390883D01*
X38201462Y-68515910D01*
X38375273Y-68608814D01*
X38563868Y-68666024D01*
X38760000Y-68685341D01*
X38956132Y-68666024D01*
X39144727Y-68608814D01*
X39318538Y-68515910D01*
X39470883Y-68390883D01*
X39595910Y-68238538D01*
X39688814Y-68064727D01*
X39746024Y-67876132D01*
X39765341Y-67680000D01*
X39746024Y-67483868D01*
X39688814Y-67295273D01*
X39595910Y-67121462D01*
X39470883Y-66969117D01*
X39318538Y-66844090D01*
X39241161Y-66802731D01*
X39144726Y-66751185D01*
X38956133Y-66693976D01*
X38760000Y-66674659D01*
X38563866Y-66693976D01*
X38375273Y-66751185D01*
X38201463Y-66844089D01*
X38049117Y-66969117D01*
X37924089Y-67121463D01*
X37831185Y-67295273D01*
X37773976Y-67483866D01*
X37754659Y-67680000D01*
X34685341Y-67680000D01*
X34666024Y-67483868D01*
X34649683Y-67430000D01*
X35198590Y-67430000D01*
X35970000Y-67430000D01*
X35970000Y-66658590D01*
X36470000Y-66658590D01*
X36470000Y-67430000D01*
X37241410Y-67430000D01*
X37194766Y-67276235D01*
X37097268Y-67093828D01*
X36966054Y-66933945D01*
X36806171Y-66802731D01*
X36623764Y-66705233D01*
X36470000Y-66658590D01*
X35970000Y-66658590D01*
X35816235Y-66705233D01*
X35633828Y-66802731D01*
X35473945Y-66933945D01*
X35342731Y-67093828D01*
X35245233Y-67276235D01*
X35198590Y-67430000D01*
X34649683Y-67430000D01*
X34608814Y-67295273D01*
X34515910Y-67121462D01*
X34390883Y-66969117D01*
X34238538Y-66844090D01*
X34161161Y-66802731D01*
X34064726Y-66751185D01*
X33876133Y-66693976D01*
X33680000Y-66674659D01*
X33483869Y-66693975D01*
X33302128Y-66749106D01*
X33236003Y-66750729D01*
X33178452Y-66718126D01*
X30461819Y-64001493D01*
X30434939Y-63961265D01*
X30425500Y-63913812D01*
X30425500Y-60999500D01*
X30442113Y-60937500D01*
X30487500Y-60892113D01*
X30549500Y-60875500D01*
X31794749Y-60875500D01*
X31823989Y-60869683D01*
X31853231Y-60863867D01*
X31919552Y-60819552D01*
X31963867Y-60753231D01*
X31975500Y-60694748D01*
X31975500Y-60449500D01*
X31992113Y-60387500D01*
X32037500Y-60342113D01*
X32099500Y-60325500D01*
X33433812Y-60325500D01*
X33481265Y-60334939D01*
X33521493Y-60361819D01*
X40338126Y-67178453D01*
X40370729Y-67236004D01*
X40369106Y-67302129D01*
X40313975Y-67483869D01*
X40294659Y-67680000D01*
X40313976Y-67876133D01*
X40371185Y-68064726D01*
X40402865Y-68123994D01*
X40464090Y-68238538D01*
X40589117Y-68390883D01*
X40741462Y-68515910D01*
X40915273Y-68608814D01*
X41103868Y-68666024D01*
X41300000Y-68685341D01*
X41496132Y-68666024D01*
X41684727Y-68608814D01*
X41858538Y-68515910D01*
X42010883Y-68390883D01*
X42135910Y-68238538D01*
X42228814Y-68064727D01*
X42286024Y-67876132D01*
X42305341Y-67680000D01*
X42286024Y-67483868D01*
X42228814Y-67295273D01*
X42135910Y-67121462D01*
X42010883Y-66969117D01*
X41858538Y-66844090D01*
X41781161Y-66802731D01*
X41684726Y-66751185D01*
X41496133Y-66693976D01*
X41300000Y-66674659D01*
X41103869Y-66693975D01*
X40922129Y-66749106D01*
X40856004Y-66750729D01*
X40798453Y-66718126D01*
X37392600Y-63312273D01*
X33982600Y-59902274D01*
X33949163Y-59841168D01*
X33953946Y-59771676D01*
X33995441Y-59715726D01*
X34060553Y-59690976D01*
X34128735Y-59705236D01*
X34296235Y-59794766D01*
X34450000Y-59841410D01*
X34450000Y-59070000D01*
X34950000Y-59070000D01*
X34950000Y-59841410D01*
X35103764Y-59794766D01*
X35286171Y-59697268D01*
X35446054Y-59566054D01*
X35577268Y-59406171D01*
X35674766Y-59223764D01*
X35721410Y-59070000D01*
X34950000Y-59070000D01*
X34450000Y-59070000D01*
X33678590Y-59070000D01*
X33725233Y-59223764D01*
X33822731Y-59406171D01*
X33905257Y-59506729D01*
X33931328Y-59562798D01*
X33927081Y-59624485D01*
X33893573Y-59676452D01*
X33839136Y-59705777D01*
X33777305Y-59705167D01*
X33761398Y-59700904D01*
X33734107Y-59689599D01*
X33695852Y-59682853D01*
X33685296Y-59680512D01*
X33648807Y-59670735D01*
X33611180Y-59674028D01*
X33600372Y-59674500D01*
X32099500Y-59674500D01*
X32037500Y-59657887D01*
X31992113Y-59612500D01*
X31975500Y-59550500D01*
X31975500Y-59305251D01*
X31963867Y-59246769D01*
X31919552Y-59180447D01*
X31853230Y-59136132D01*
X31794749Y-59124500D01*
X31794748Y-59124500D01*
X30735187Y-59124500D01*
X30678892Y-59110985D01*
X30634869Y-59073386D01*
X30612714Y-59019899D01*
X30617256Y-58962183D01*
X30647505Y-58912820D01*
X30669027Y-58891298D01*
X30695138Y-58865186D01*
X30736368Y-58837897D01*
X30784987Y-58828888D01*
X30815001Y-58835543D01*
X30815218Y-58834527D01*
X31007980Y-58875500D01*
X31007981Y-58875500D01*
X31192019Y-58875500D01*
X31192020Y-58875500D01*
X31372031Y-58837237D01*
X31372032Y-58837236D01*
X31372034Y-58837236D01*
X31540161Y-58762381D01*
X31689050Y-58654207D01*
X31764870Y-58570000D01*
X33678590Y-58570000D01*
X34450000Y-58570000D01*
X34450000Y-57798590D01*
X34950000Y-57798590D01*
X34950000Y-58570000D01*
X35721410Y-58570000D01*
X35674766Y-58416235D01*
X35577268Y-58233828D01*
X35446054Y-58073945D01*
X35286171Y-57942731D01*
X35103764Y-57845233D01*
X34950000Y-57798590D01*
X34450000Y-57798590D01*
X34296235Y-57845233D01*
X34113828Y-57942731D01*
X33953945Y-58073945D01*
X33822731Y-58233828D01*
X33725233Y-58416235D01*
X33678590Y-58570000D01*
X31764870Y-58570000D01*
X31812195Y-58517440D01*
X31904214Y-58358059D01*
X31961085Y-58183029D01*
X31980322Y-58000000D01*
X31961085Y-57816971D01*
X31930579Y-57723085D01*
X31904214Y-57641940D01*
X31812195Y-57482559D01*
X31689049Y-57345791D01*
X31540162Y-57237619D01*
X31372031Y-57162762D01*
X31192020Y-57124500D01*
X31192019Y-57124500D01*
X31007981Y-57124500D01*
X31007980Y-57124500D01*
X30827968Y-57162762D01*
X30659837Y-57237619D01*
X30510950Y-57345791D01*
X30387804Y-57482559D01*
X30295785Y-57641940D01*
X30238915Y-57816969D01*
X30234589Y-57858127D01*
X30219678Y-58000000D01*
X30238915Y-58183029D01*
X30264399Y-58261462D01*
X30268829Y-58275094D01*
X30271472Y-58342359D01*
X30238579Y-58401093D01*
X29883714Y-58755958D01*
X29875741Y-58763264D01*
X29846806Y-58787544D01*
X29827914Y-58820264D01*
X29822106Y-58829380D01*
X29799831Y-58861193D01*
X29789597Y-58885899D01*
X29782852Y-58924148D01*
X29780512Y-58934704D01*
X29770735Y-58971192D01*
X29774028Y-59008820D01*
X29774500Y-59019628D01*
X29774500Y-64080372D01*
X29774028Y-64091180D01*
X29770735Y-64128807D01*
X28925500Y-64128807D01*
X28925500Y-55999999D01*
X30219678Y-55999999D01*
X30238915Y-56183030D01*
X30295785Y-56358059D01*
X30387804Y-56517440D01*
X30510950Y-56654208D01*
X30659837Y-56762380D01*
X30827968Y-56837237D01*
X31007980Y-56875500D01*
X31007981Y-56875500D01*
X31192019Y-56875500D01*
X31192020Y-56875500D01*
X31372031Y-56837237D01*
X31372032Y-56837236D01*
X31372034Y-56837236D01*
X31540161Y-56762381D01*
X31665873Y-56671046D01*
X31689049Y-56654208D01*
X31740430Y-56597144D01*
X31812195Y-56517440D01*
X31904214Y-56358059D01*
X31961085Y-56183029D01*
X31980322Y-56000000D01*
X31961085Y-55816971D01*
X31915637Y-55677097D01*
X31904214Y-55641940D01*
X31812195Y-55482559D01*
X31689049Y-55345791D01*
X31540162Y-55237619D01*
X31372031Y-55162762D01*
X31192020Y-55124500D01*
X31192019Y-55124500D01*
X31007981Y-55124500D01*
X31007980Y-55124500D01*
X30827968Y-55162762D01*
X30659837Y-55237619D01*
X30510950Y-55345791D01*
X30387804Y-55482559D01*
X30295785Y-55641940D01*
X30238915Y-55816969D01*
X30219678Y-55999999D01*
X28925500Y-55999999D01*
X28925500Y-54686188D01*
X28934939Y-54638735D01*
X28961819Y-54598507D01*
X29257486Y-54302840D01*
X30145324Y-53415000D01*
X30195714Y-53384423D01*
X30254534Y-53380568D01*
X30308488Y-53404308D01*
X30345384Y-53450279D01*
X30356884Y-53508092D01*
X30340390Y-53564683D01*
X30295785Y-53641941D01*
X30238915Y-53816969D01*
X30219678Y-53999999D01*
X30238915Y-54183030D01*
X30295785Y-54358059D01*
X30387804Y-54517440D01*
X30510950Y-54654208D01*
X30659837Y-54762380D01*
X30659838Y-54762380D01*
X30659839Y-54762381D01*
X30678519Y-54770698D01*
X30827968Y-54837237D01*
X31007980Y-54875500D01*
X31007981Y-54875500D01*
X31192019Y-54875500D01*
X31192020Y-54875500D01*
X31372031Y-54837237D01*
X31372032Y-54837236D01*
X31372034Y-54837236D01*
X31540161Y-54762381D01*
X31661119Y-54674500D01*
X31689049Y-54654208D01*
X31812195Y-54517440D01*
X31904214Y-54358059D01*
X31906983Y-54349538D01*
X31961085Y-54183029D01*
X31980322Y-54000000D01*
X31961085Y-53816971D01*
X31904214Y-53641941D01*
X31904214Y-53641940D01*
X31812195Y-53482559D01*
X31689049Y-53345791D01*
X31540162Y-53237619D01*
X31372031Y-53162762D01*
X31192020Y-53124500D01*
X31192019Y-53124500D01*
X31007981Y-53124500D01*
X31007980Y-53124500D01*
X30827968Y-53162762D01*
X30663343Y-53236058D01*
X30596079Y-53245631D01*
X30533867Y-53218321D01*
X30495385Y-53162329D01*
X30492184Y-53094462D01*
X30525225Y-53035099D01*
X30695139Y-52865185D01*
X30736369Y-52837897D01*
X30784987Y-52828888D01*
X30815001Y-52835543D01*
X30815218Y-52834527D01*
X31007980Y-52875500D01*
X31007981Y-52875500D01*
X31192019Y-52875500D01*
X31192020Y-52875500D01*
X31372031Y-52837237D01*
X31372032Y-52837236D01*
X31372034Y-52837236D01*
X31540161Y-52762381D01*
X31627674Y-52698799D01*
X31689049Y-52654208D01*
X31732294Y-52606180D01*
X31812195Y-52517440D01*
X31904214Y-52358059D01*
X31961085Y-52183029D01*
X31980322Y-52000000D01*
X31961085Y-51816971D01*
X31949557Y-51781494D01*
X31946474Y-51716129D01*
X31977095Y-51658294D01*
X32032892Y-51624101D01*
X32098325Y-51623073D01*
X32155169Y-51655496D01*
X33738126Y-53238453D01*
X33770729Y-53296004D01*
X33769106Y-53362129D01*
X33713975Y-53543869D01*
X33698878Y-53697159D01*
X33694659Y-53740000D01*
X33697738Y-53771265D01*
X33713976Y-53936133D01*
X33771185Y-54124726D01*
X33833627Y-54241546D01*
X33864090Y-54298538D01*
X33989117Y-54450883D01*
X34141462Y-54575910D01*
X34315273Y-54668814D01*
X34503868Y-54726024D01*
X34700000Y-54745341D01*
X34896132Y-54726024D01*
X35084727Y-54668814D01*
X35258538Y-54575910D01*
X35296835Y-54544479D01*
X35360321Y-54517266D01*
X35428517Y-54528238D01*
X35480262Y-54573993D01*
X35499500Y-54640333D01*
X35499500Y-54968811D01*
X35490061Y-55016264D01*
X35463181Y-55056492D01*
X35201546Y-55318126D01*
X35143994Y-55350729D01*
X35077870Y-55349106D01*
X34896130Y-55293975D01*
X34700000Y-55274659D01*
X34503866Y-55293976D01*
X34315273Y-55351185D01*
X34141463Y-55444089D01*
X33989117Y-55569117D01*
X33864089Y-55721463D01*
X33771185Y-55895273D01*
X33713976Y-56083866D01*
X33694659Y-56280000D01*
X33713976Y-56476133D01*
X33771185Y-56664726D01*
X33827355Y-56769812D01*
X33864090Y-56838538D01*
X33989117Y-56990883D01*
X34141462Y-57115910D01*
X34315273Y-57208814D01*
X34503868Y-57266024D01*
X34700000Y-57285341D01*
X34896132Y-57266024D01*
X35084727Y-57208814D01*
X35258538Y-57115910D01*
X35410883Y-56990883D01*
X35535910Y-56838538D01*
X35628814Y-56664727D01*
X35686024Y-56476132D01*
X35705341Y-56280000D01*
X35686024Y-56083868D01*
X35630892Y-55902126D01*
X35629270Y-55836004D01*
X35661873Y-55778452D01*
X35798385Y-55641940D01*
X36041296Y-55399029D01*
X36049249Y-55391741D01*
X36078194Y-55367455D01*
X36097082Y-55334738D01*
X36102881Y-55325635D01*
X36124554Y-55294684D01*
X36124554Y-55294682D01*
X36125173Y-55293799D01*
X36135398Y-55269112D01*
X36135585Y-55268049D01*
X36135588Y-55268045D01*
X36142150Y-55230822D01*
X36144479Y-55220316D01*
X36154263Y-55183807D01*
X36150971Y-55146188D01*
X36150500Y-55135382D01*
X36150500Y-48880618D01*
X36150972Y-48869810D01*
X36154264Y-48832183D01*
X36144487Y-48795697D01*
X36142145Y-48785134D01*
X36135400Y-48746882D01*
X36125171Y-48722189D01*
X36124554Y-48721308D01*
X36124554Y-48721307D01*
X36102892Y-48690370D01*
X36097080Y-48681247D01*
X36078194Y-48648535D01*
X36049255Y-48624253D01*
X36041280Y-48616945D01*
X31496299Y-44071964D01*
X31462993Y-44011451D01*
X31467229Y-43942508D01*
X31507692Y-43886528D01*
X31571825Y-43860880D01*
X31621132Y-43856024D01*
X31802870Y-43800893D01*
X31868995Y-43799270D01*
X31926547Y-43831873D01*
X39688181Y-51593507D01*
X39715061Y-51633735D01*
X39724500Y-51681188D01*
X39724500Y-63870372D01*
X39724028Y-63881180D01*
X39720735Y-63918807D01*
X39730512Y-63955296D01*
X39732853Y-63965852D01*
X39739599Y-64004107D01*
X39749829Y-64028803D01*
X39750446Y-64029684D01*
X39772112Y-64060627D01*
X39777915Y-64069736D01*
X39796806Y-64102455D01*
X39825742Y-64126735D01*
X39833718Y-64134044D01*
X42878126Y-67178453D01*
X42910729Y-67236004D01*
X42909106Y-67302129D01*
X42853975Y-67483869D01*
X42834659Y-67680000D01*
X42853976Y-67876133D01*
X42911185Y-68064726D01*
X42942865Y-68123994D01*
X43004090Y-68238538D01*
X43129117Y-68390883D01*
X43281462Y-68515910D01*
X43455273Y-68608814D01*
X43643868Y-68666024D01*
X43840000Y-68685341D01*
X44036132Y-68666024D01*
X44224727Y-68608814D01*
X44398538Y-68515910D01*
X44550883Y-68390883D01*
X44675910Y-68238538D01*
X44768814Y-68064727D01*
X44826024Y-67876132D01*
X44845341Y-67680000D01*
X45374659Y-67680000D01*
X45393976Y-67876133D01*
X45451185Y-68064726D01*
X45482865Y-68123994D01*
X45544090Y-68238538D01*
X45669117Y-68390883D01*
X45821462Y-68515910D01*
X45995273Y-68608814D01*
X46183868Y-68666024D01*
X46380000Y-68685341D01*
X46576132Y-68666024D01*
X46764727Y-68608814D01*
X46938538Y-68515910D01*
X47090883Y-68390883D01*
X47215910Y-68238538D01*
X47308814Y-68064727D01*
X47366024Y-67876132D01*
X47385341Y-67680000D01*
X47366024Y-67483868D01*
X47308814Y-67295273D01*
X47215910Y-67121462D01*
X47090883Y-66969117D01*
X46938538Y-66844090D01*
X46861161Y-66802731D01*
X46764726Y-66751185D01*
X46576133Y-66693976D01*
X46380000Y-66674659D01*
X46183866Y-66693976D01*
X45995273Y-66751185D01*
X45821463Y-66844089D01*
X45669117Y-66969117D01*
X45544089Y-67121463D01*
X45451185Y-67295273D01*
X45393976Y-67483866D01*
X45374659Y-67680000D01*
X44845341Y-67680000D01*
X44826024Y-67483868D01*
X44768814Y-67295273D01*
X44675910Y-67121462D01*
X44550883Y-66969117D01*
X44398538Y-66844090D01*
X44321161Y-66802731D01*
X44224726Y-66751185D01*
X44036133Y-66693976D01*
X43840000Y-66674659D01*
X43643869Y-66693975D01*
X43462129Y-66749106D01*
X43396004Y-66750729D01*
X43338453Y-66718126D01*
X40411819Y-63791493D01*
X40384939Y-63751265D01*
X40375500Y-63703812D01*
X40375500Y-58820000D01*
X41314659Y-58820000D01*
X41333976Y-59016133D01*
X41391185Y-59204726D01*
X41450020Y-59314798D01*
X41484090Y-59378538D01*
X41609117Y-59530883D01*
X41761462Y-59655910D01*
X41935273Y-59748814D01*
X42123868Y-59806024D01*
X42320000Y-59825341D01*
X42516132Y-59806024D01*
X42704727Y-59748814D01*
X42878538Y-59655910D01*
X43030883Y-59530883D01*
X43155910Y-59378538D01*
X43248814Y-59204727D01*
X43289683Y-59070000D01*
X44928590Y-59070000D01*
X44975233Y-59223764D01*
X45072731Y-59406171D01*
X45203945Y-59566054D01*
X45363828Y-59697268D01*
X45546235Y-59794766D01*
X45700000Y-59841410D01*
X45700000Y-59070000D01*
X46200000Y-59070000D01*
X46200000Y-59841410D01*
X46353764Y-59794766D01*
X46536171Y-59697268D01*
X46696054Y-59566054D01*
X46827268Y-59406171D01*
X46924766Y-59223764D01*
X46971410Y-59070000D01*
X46200000Y-59070000D01*
X45700000Y-59070000D01*
X44928590Y-59070000D01*
X43289683Y-59070000D01*
X43306024Y-59016132D01*
X43325341Y-58820000D01*
X43306024Y-58623868D01*
X43289683Y-58570000D01*
X44928590Y-58570000D01*
X45700000Y-58570000D01*
X45700000Y-57798590D01*
X46200000Y-57798590D01*
X46200000Y-58570000D01*
X46971410Y-58570000D01*
X46924766Y-58416235D01*
X46827268Y-58233828D01*
X46696054Y-58073945D01*
X46536171Y-57942731D01*
X46353764Y-57845233D01*
X46200000Y-57798590D01*
X45700000Y-57798590D01*
X45546235Y-57845233D01*
X45363828Y-57942731D01*
X45203945Y-58073945D01*
X45072731Y-58233828D01*
X44975233Y-58416235D01*
X44928590Y-58570000D01*
X43289683Y-58570000D01*
X43248814Y-58435273D01*
X43155910Y-58261462D01*
X43030883Y-58109117D01*
X42878538Y-57984090D01*
X42817535Y-57951483D01*
X42704726Y-57891185D01*
X42516133Y-57833976D01*
X42320000Y-57814659D01*
X42123866Y-57833976D01*
X41935273Y-57891185D01*
X41761463Y-57984089D01*
X41609117Y-58109117D01*
X41484089Y-58261463D01*
X41391185Y-58435273D01*
X41333976Y-58623866D01*
X41314659Y-58820000D01*
X40375500Y-58820000D01*
X40375500Y-55095188D01*
X40389015Y-55038893D01*
X40426615Y-54994870D01*
X40480102Y-54972715D01*
X40537818Y-54977257D01*
X40587181Y-55007507D01*
X41358126Y-55778452D01*
X41390729Y-55836003D01*
X41389106Y-55902128D01*
X41333975Y-56083869D01*
X41314659Y-56279999D01*
X41333976Y-56476133D01*
X41391185Y-56664726D01*
X41447355Y-56769812D01*
X41484090Y-56838538D01*
X41609117Y-56990883D01*
X41761462Y-57115910D01*
X41935273Y-57208814D01*
X42123868Y-57266024D01*
X42320000Y-57285341D01*
X42516132Y-57266024D01*
X42704727Y-57208814D01*
X42878538Y-57115910D01*
X43030883Y-56990883D01*
X43155910Y-56838538D01*
X43248814Y-56664727D01*
X43306024Y-56476132D01*
X43325341Y-56280000D01*
X43306024Y-56083868D01*
X43293178Y-56041523D01*
X43291265Y-55976583D01*
X43322452Y-55919587D01*
X43378180Y-55886185D01*
X43443148Y-55885547D01*
X43499520Y-55917848D01*
X44077954Y-56496282D01*
X44085262Y-56504256D01*
X44109544Y-56533194D01*
X44142265Y-56552085D01*
X44151359Y-56557878D01*
X44182315Y-56579554D01*
X44182316Y-56579554D01*
X44183200Y-56580173D01*
X44207890Y-56590400D01*
X44208953Y-56590587D01*
X44208954Y-56590588D01*
X44246145Y-56597145D01*
X44256703Y-56599486D01*
X44293190Y-56609263D01*
X44293191Y-56609262D01*
X44293192Y-56609263D01*
X44330810Y-56605971D01*
X44341617Y-56605500D01*
X44915205Y-56605500D01*
X44978954Y-56623142D01*
X45024563Y-56671046D01*
X45083697Y-56781677D01*
X45114090Y-56838538D01*
X45239117Y-56990883D01*
X45391462Y-57115910D01*
X45565273Y-57208814D01*
X45753868Y-57266024D01*
X45950000Y-57285341D01*
X46146132Y-57266024D01*
X46334727Y-57208814D01*
X46508538Y-57115910D01*
X46660883Y-56990883D01*
X46785910Y-56838538D01*
X46878814Y-56664727D01*
X46936024Y-56476132D01*
X46955341Y-56280000D01*
X46936024Y-56083868D01*
X46878814Y-55895273D01*
X46810187Y-55766882D01*
X46795550Y-55709444D01*
X46809247Y-55651772D01*
X46848148Y-55607048D01*
X46903358Y-55585492D01*
X46906762Y-55585044D01*
X47052841Y-55524536D01*
X47178282Y-55428282D01*
X47274536Y-55302841D01*
X47335044Y-55156762D01*
X47355682Y-55000000D01*
X47335044Y-54843238D01*
X47274536Y-54697159D01*
X47254382Y-54670894D01*
X47178282Y-54571717D01*
X47052840Y-54475463D01*
X46891680Y-54408709D01*
X46892159Y-54407550D01*
X46858131Y-54394263D01*
X46819232Y-54349538D01*
X46805537Y-54291868D01*
X46820173Y-54234435D01*
X46878814Y-54124727D01*
X46936024Y-53936132D01*
X46955341Y-53740000D01*
X46936024Y-53543868D01*
X46878814Y-53355273D01*
X46785910Y-53181462D01*
X46660883Y-53029117D01*
X46508538Y-52904090D01*
X46424263Y-52859044D01*
X46334726Y-52811185D01*
X46146133Y-52753976D01*
X45950000Y-52734659D01*
X45753869Y-52753975D01*
X45572128Y-52809106D01*
X45506003Y-52810729D01*
X45448452Y-52778126D01*
X45186819Y-52516493D01*
X45159939Y-52476265D01*
X45150500Y-52428812D01*
X45150500Y-52324500D01*
X45167113Y-52262500D01*
X45212500Y-52217113D01*
X45274500Y-52200500D01*
X46769749Y-52200500D01*
X46798989Y-52194683D01*
X46828231Y-52188867D01*
X46894552Y-52144552D01*
X46938867Y-52078231D01*
X46947285Y-52035910D01*
X46950500Y-52019749D01*
X46950500Y-51649500D01*
X46967113Y-51587500D01*
X47012500Y-51542113D01*
X47074500Y-51525500D01*
X47280373Y-51525500D01*
X47291180Y-51525971D01*
X47328807Y-51529264D01*
X47365324Y-51519478D01*
X47375830Y-51517149D01*
X47413045Y-51510588D01*
X47413047Y-51510586D01*
X47414112Y-51510399D01*
X47438799Y-51500173D01*
X47439682Y-51499554D01*
X47439684Y-51499554D01*
X47470625Y-51477887D01*
X47479722Y-51472091D01*
X47512455Y-51453194D01*
X47536748Y-51424241D01*
X47544036Y-51416288D01*
X52216290Y-46744034D01*
X52224258Y-46736734D01*
X52253192Y-46712457D01*
X52253192Y-46712456D01*
X52253194Y-46712455D01*
X52272091Y-46679722D01*
X52277887Y-46670625D01*
X52299554Y-46639684D01*
X52299554Y-46639682D01*
X52300173Y-46638799D01*
X52310399Y-46614112D01*
X52310586Y-46613047D01*
X52310588Y-46613045D01*
X52317149Y-46575830D01*
X52319478Y-46565324D01*
X52329264Y-46528807D01*
X52325971Y-46491176D01*
X52325500Y-46480370D01*
X52325500Y-45068299D01*
X52338288Y-45013455D01*
X52374014Y-44969923D01*
X52428282Y-44928282D01*
X52524536Y-44802841D01*
X52585044Y-44656762D01*
X52605682Y-44500000D01*
X52585044Y-44343238D01*
X52524536Y-44197159D01*
X52428282Y-44071718D01*
X52374013Y-44030076D01*
X52338288Y-43986545D01*
X52325500Y-43931701D01*
X52325500Y-31993958D01*
X52334529Y-31947507D01*
X52360302Y-31907820D01*
X52399065Y-31880678D01*
X52400022Y-31880251D01*
X52440161Y-31862381D01*
X52589050Y-31754207D01*
X52712195Y-31617440D01*
X52804214Y-31458059D01*
X52861085Y-31283029D01*
X52876679Y-31134653D01*
X52889292Y-31099999D01*
X52876679Y-31065343D01*
X52875817Y-31057138D01*
X52861085Y-30916971D01*
X52804214Y-30741941D01*
X52804214Y-30741940D01*
X52712195Y-30582559D01*
X52589049Y-30445791D01*
X52440162Y-30337619D01*
X52272031Y-30262762D01*
X52092020Y-30224500D01*
X52092019Y-30224500D01*
X51907981Y-30224500D01*
X51907980Y-30224500D01*
X51727968Y-30262762D01*
X51559837Y-30337619D01*
X51410950Y-30445791D01*
X51287804Y-30582559D01*
X51195785Y-30741940D01*
X51138915Y-30916969D01*
X51122821Y-31070100D01*
X51111641Y-31100000D01*
X51122820Y-31129898D01*
X51124183Y-31142862D01*
X51138915Y-31283030D01*
X51195785Y-31458059D01*
X51287804Y-31617440D01*
X51410950Y-31754208D01*
X51559837Y-31862380D01*
X51600935Y-31880678D01*
X51639698Y-31907820D01*
X51665471Y-31947507D01*
X51674500Y-31993958D01*
X51674500Y-43931701D01*
X51661712Y-43986545D01*
X51625986Y-44030077D01*
X51571717Y-44071718D01*
X51475463Y-44197159D01*
X51414956Y-44343237D01*
X51394317Y-44500000D01*
X51414956Y-44656762D01*
X51475463Y-44802840D01*
X51571717Y-44928281D01*
X51625986Y-44969923D01*
X51661712Y-45013455D01*
X51674500Y-45068299D01*
X51674500Y-46313812D01*
X51665061Y-46361265D01*
X51638181Y-46401493D01*
X50756362Y-47283310D01*
X50704676Y-47314290D01*
X50644489Y-47317246D01*
X50590016Y-47291482D01*
X50554120Y-47243081D01*
X50524536Y-47171659D01*
X50426124Y-47043405D01*
X50407081Y-47007777D01*
X50400500Y-46967919D01*
X50400500Y-38844619D01*
X50400972Y-38833812D01*
X50404263Y-38796191D01*
X50394486Y-38759704D01*
X50392144Y-38749140D01*
X50389972Y-38736819D01*
X50385588Y-38711955D01*
X50385587Y-38711954D01*
X50385400Y-38710891D01*
X50375173Y-38686201D01*
X50374554Y-38685317D01*
X50374554Y-38685316D01*
X50352878Y-38654360D01*
X50347085Y-38645266D01*
X50328194Y-38612545D01*
X50313640Y-38600333D01*
X50299261Y-38588267D01*
X50291286Y-38580959D01*
X49986819Y-38276492D01*
X49959939Y-38236264D01*
X49950500Y-38188811D01*
X49950500Y-36880251D01*
X49938867Y-36821769D01*
X49894552Y-36755447D01*
X49828230Y-36711132D01*
X49769749Y-36699500D01*
X49769748Y-36699500D01*
X48274500Y-36699500D01*
X48212500Y-36682887D01*
X48167113Y-36637500D01*
X48150500Y-36575500D01*
X48150500Y-33461188D01*
X48159939Y-33413735D01*
X48186819Y-33373507D01*
X49548508Y-32011819D01*
X49588736Y-31984939D01*
X49636189Y-31975500D01*
X50694749Y-31975500D01*
X50723989Y-31969683D01*
X50753231Y-31963867D01*
X50819552Y-31919552D01*
X50863867Y-31853231D01*
X50875500Y-31794748D01*
X50875500Y-31142862D01*
X50886584Y-31100000D01*
X50875500Y-31057138D01*
X50875500Y-30405251D01*
X50863867Y-30346769D01*
X50819552Y-30280447D01*
X50753230Y-30236132D01*
X50694749Y-30224500D01*
X50694748Y-30224500D01*
X49305252Y-30224500D01*
X49305251Y-30224500D01*
X49246769Y-30236132D01*
X49180447Y-30280447D01*
X49136132Y-30346769D01*
X49124500Y-30405251D01*
X49124500Y-31463811D01*
X49115061Y-31511264D01*
X49088181Y-31551492D01*
X47608714Y-33030958D01*
X47600741Y-33038264D01*
X47571806Y-33062544D01*
X47552914Y-33095264D01*
X47547106Y-33104380D01*
X47524831Y-33136193D01*
X47514597Y-33160899D01*
X47507852Y-33199148D01*
X47505512Y-33209704D01*
X47495735Y-33246192D01*
X47499028Y-33283820D01*
X47499500Y-33294628D01*
X47499500Y-40738812D01*
X47490061Y-40786265D01*
X47463181Y-40826493D01*
X45341668Y-42948004D01*
X45281155Y-42981310D01*
X45212212Y-42977074D01*
X45156232Y-42936611D01*
X45130584Y-42872476D01*
X45130340Y-42870004D01*
X45130341Y-42870000D01*
X45111024Y-42673868D01*
X45053814Y-42485273D01*
X44960910Y-42311462D01*
X44835883Y-42159117D01*
X44683538Y-42034090D01*
X44604348Y-41991762D01*
X44509726Y-41941185D01*
X44321133Y-41883976D01*
X44223066Y-41874317D01*
X44125000Y-41864659D01*
X44124999Y-41864659D01*
X43928866Y-41883976D01*
X43740273Y-41941185D01*
X43566463Y-42034089D01*
X43528165Y-42065520D01*
X43464679Y-42092734D01*
X43396483Y-42081762D01*
X43344738Y-42036007D01*
X43325500Y-41969667D01*
X43325500Y-36561188D01*
X43334939Y-36513735D01*
X43361819Y-36473507D01*
X43548507Y-36286819D01*
X43588735Y-36259939D01*
X43636188Y-36250500D01*
X44944749Y-36250500D01*
X44973989Y-36244683D01*
X45003231Y-36238867D01*
X45069552Y-36194552D01*
X45113867Y-36128231D01*
X45125500Y-36069748D01*
X45125500Y-34430252D01*
X45113867Y-34371769D01*
X45080068Y-34321186D01*
X45069552Y-34305447D01*
X45003230Y-34261132D01*
X44944749Y-34249500D01*
X44944748Y-34249500D01*
X43305252Y-34249500D01*
X43305251Y-34249500D01*
X43246769Y-34261132D01*
X43180447Y-34305447D01*
X43136132Y-34371769D01*
X43124500Y-34430251D01*
X43124500Y-35738812D01*
X43115061Y-35786265D01*
X43088183Y-35826490D01*
X42853715Y-36060958D01*
X42783714Y-36130959D01*
X42775741Y-36138264D01*
X42746806Y-36162544D01*
X42727914Y-36195264D01*
X42722106Y-36204380D01*
X42699831Y-36236193D01*
X42689597Y-36260899D01*
X42682852Y-36299148D01*
X42680512Y-36309704D01*
X42670735Y-36346192D01*
X42674028Y-36383820D01*
X42674500Y-36394628D01*
X42674500Y-42290860D01*
X42657479Y-42353562D01*
X42611089Y-42399050D01*
X42548065Y-42414836D01*
X42485710Y-42396587D01*
X42441142Y-42349313D01*
X42429948Y-42328371D01*
X42420910Y-42311462D01*
X42295883Y-42159117D01*
X42143538Y-42034090D01*
X42064348Y-41991762D01*
X41969726Y-41941185D01*
X41781133Y-41883976D01*
X41683066Y-41874317D01*
X41585000Y-41864659D01*
X41584999Y-41864659D01*
X41388866Y-41883976D01*
X41200273Y-41941185D01*
X41026463Y-42034089D01*
X40970595Y-42079939D01*
X40874117Y-42159117D01*
X40795978Y-42254330D01*
X40795353Y-42255091D01*
X40746952Y-42290987D01*
X40687345Y-42299829D01*
X40630609Y-42279528D01*
X40590142Y-42234879D01*
X40575500Y-42176426D01*
X40575500Y-41554619D01*
X40575972Y-41543812D01*
X40576432Y-41538553D01*
X40579263Y-41506193D01*
X40579262Y-41506192D01*
X40579263Y-41506191D01*
X40569486Y-41469704D01*
X40567144Y-41459140D01*
X40560588Y-41421955D01*
X40560587Y-41421954D01*
X40560400Y-41420891D01*
X40550173Y-41396201D01*
X40549554Y-41395317D01*
X40549554Y-41395316D01*
X40527878Y-41364360D01*
X40522085Y-41355266D01*
X40503194Y-41322545D01*
X40474261Y-41298267D01*
X40466286Y-41290959D01*
X37709320Y-38533993D01*
X34926872Y-35751546D01*
X34894270Y-35693995D01*
X34895894Y-35627870D01*
X34934683Y-35500000D01*
X35483590Y-35500000D01*
X35530233Y-35653764D01*
X35627731Y-35836171D01*
X35758945Y-35996054D01*
X35918828Y-36127268D01*
X36101235Y-36224766D01*
X36255000Y-36271410D01*
X36255000Y-35500000D01*
X36755000Y-35500000D01*
X36755000Y-36271410D01*
X36908764Y-36224766D01*
X37091171Y-36127268D01*
X37251054Y-35996054D01*
X37382268Y-35836171D01*
X37479766Y-35653764D01*
X37526410Y-35500000D01*
X36755000Y-35500000D01*
X36255000Y-35500000D01*
X35483590Y-35500000D01*
X34934683Y-35500000D01*
X34951024Y-35446132D01*
X34970341Y-35250000D01*
X34970341Y-35249999D01*
X38039659Y-35249999D01*
X38058976Y-35446133D01*
X38116185Y-35634726D01*
X38178628Y-35751547D01*
X38209090Y-35808538D01*
X38334117Y-35960883D01*
X38486462Y-36085910D01*
X38660273Y-36178814D01*
X38848868Y-36236024D01*
X39045000Y-36255341D01*
X39241132Y-36236024D01*
X39429727Y-36178814D01*
X39603538Y-36085910D01*
X39755883Y-35960883D01*
X39880910Y-35808538D01*
X39973814Y-35634727D01*
X40031024Y-35446132D01*
X40050341Y-35250000D01*
X40050341Y-35249999D01*
X40579659Y-35249999D01*
X40598976Y-35446133D01*
X40656185Y-35634726D01*
X40718628Y-35751547D01*
X40749090Y-35808538D01*
X40874117Y-35960883D01*
X41026462Y-36085910D01*
X41200273Y-36178814D01*
X41388868Y-36236024D01*
X41585000Y-36255341D01*
X41781132Y-36236024D01*
X41969727Y-36178814D01*
X42143538Y-36085910D01*
X42295883Y-35960883D01*
X42420910Y-35808538D01*
X42513814Y-35634727D01*
X42571024Y-35446132D01*
X42590341Y-35250000D01*
X42571024Y-35053868D01*
X42513814Y-34865273D01*
X42420910Y-34691462D01*
X42295883Y-34539117D01*
X42143538Y-34414090D01*
X42064361Y-34371769D01*
X41969726Y-34321185D01*
X41781133Y-34263976D01*
X41585000Y-34244659D01*
X41388866Y-34263976D01*
X41200273Y-34321185D01*
X41026463Y-34414089D01*
X40874117Y-34539117D01*
X40749089Y-34691463D01*
X40656185Y-34865273D01*
X40598976Y-35053866D01*
X40579659Y-35249999D01*
X40050341Y-35249999D01*
X40031024Y-35053868D01*
X39973814Y-34865273D01*
X39880910Y-34691462D01*
X39755883Y-34539117D01*
X39603538Y-34414090D01*
X39524361Y-34371769D01*
X39429726Y-34321185D01*
X39241133Y-34263976D01*
X39045000Y-34244659D01*
X38848866Y-34263976D01*
X38660273Y-34321185D01*
X38486463Y-34414089D01*
X38334117Y-34539117D01*
X38209089Y-34691463D01*
X38116185Y-34865273D01*
X38058976Y-35053866D01*
X38039659Y-35249999D01*
X34970341Y-35249999D01*
X34951024Y-35053868D01*
X34934683Y-35000000D01*
X35483590Y-35000000D01*
X36255000Y-35000000D01*
X36255000Y-34228590D01*
X36755000Y-34228590D01*
X36755000Y-35000000D01*
X37526410Y-35000000D01*
X37479766Y-34846235D01*
X37382268Y-34663828D01*
X37251054Y-34503945D01*
X37091171Y-34372731D01*
X36908764Y-34275233D01*
X36755000Y-34228590D01*
X36255000Y-34228590D01*
X36101235Y-34275233D01*
X35918828Y-34372731D01*
X35758945Y-34503945D01*
X35627731Y-34663828D01*
X35530233Y-34846235D01*
X35483590Y-35000000D01*
X34934683Y-35000000D01*
X34893814Y-34865273D01*
X34800910Y-34691462D01*
X34675883Y-34539117D01*
X34523538Y-34414090D01*
X34444361Y-34371769D01*
X34349726Y-34321185D01*
X34161133Y-34263976D01*
X33965000Y-34244659D01*
X33768866Y-34263976D01*
X33580273Y-34321185D01*
X33406463Y-34414089D01*
X33254117Y-34539117D01*
X33129089Y-34691463D01*
X33036185Y-34865273D01*
X32978976Y-35053866D01*
X32959659Y-35249999D01*
X32978976Y-35446133D01*
X33036185Y-35634726D01*
X33098628Y-35751547D01*
X33129090Y-35808538D01*
X33254117Y-35960883D01*
X33406462Y-36085910D01*
X33580273Y-36178814D01*
X33768868Y-36236024D01*
X33965000Y-36255341D01*
X34161132Y-36236024D01*
X34342870Y-36180893D01*
X34408995Y-36179270D01*
X34466546Y-36211872D01*
X37177718Y-38923045D01*
X39888181Y-41633508D01*
X39915061Y-41673736D01*
X39924500Y-41721189D01*
X39924500Y-41971285D01*
X39905262Y-42037625D01*
X39853517Y-42083380D01*
X39785321Y-42094352D01*
X39721835Y-42067138D01*
X39631170Y-41992731D01*
X39448764Y-41895233D01*
X39295000Y-41848590D01*
X39295000Y-43891410D01*
X39448764Y-43844766D01*
X39631170Y-43747268D01*
X39721835Y-43672862D01*
X39785321Y-43645648D01*
X39853517Y-43656620D01*
X39905262Y-43702375D01*
X39924500Y-43768715D01*
X39924500Y-43931701D01*
X39911712Y-43986545D01*
X39875986Y-44030077D01*
X39821717Y-44071718D01*
X39725463Y-44197159D01*
X39664956Y-44343237D01*
X39644317Y-44500000D01*
X39664956Y-44656762D01*
X39725463Y-44802840D01*
X39821717Y-44928281D01*
X39875986Y-44969923D01*
X39911712Y-45013455D01*
X39924500Y-45068299D01*
X39924500Y-50609812D01*
X39910985Y-50666107D01*
X39873385Y-50710130D01*
X39819898Y-50732285D01*
X39762182Y-50727743D01*
X39712819Y-50697493D01*
X32386873Y-43371547D01*
X32354270Y-43313995D01*
X32355894Y-43247870D01*
X32358827Y-43238201D01*
X32411024Y-43066132D01*
X32430341Y-42870000D01*
X32411024Y-42673868D01*
X32353814Y-42485273D01*
X32260910Y-42311462D01*
X32229479Y-42273164D01*
X32202266Y-42209679D01*
X32213238Y-42141483D01*
X32258993Y-42089738D01*
X32325333Y-42070500D01*
X32653812Y-42070500D01*
X32701265Y-42079939D01*
X32741493Y-42106819D01*
X33003126Y-42368452D01*
X33035729Y-42426003D01*
X33034106Y-42492128D01*
X32978975Y-42673869D01*
X32959659Y-42870000D01*
X32978976Y-43066133D01*
X33036185Y-43254726D01*
X33109997Y-43392818D01*
X33129090Y-43428538D01*
X33254117Y-43580883D01*
X33406462Y-43705910D01*
X33580273Y-43798814D01*
X33768868Y-43856024D01*
X33965000Y-43875341D01*
X34161132Y-43856024D01*
X34349727Y-43798814D01*
X34523538Y-43705910D01*
X34675883Y-43580883D01*
X34800910Y-43428538D01*
X34893814Y-43254727D01*
X34934683Y-43120000D01*
X35483590Y-43120000D01*
X35530233Y-43273764D01*
X35627731Y-43456171D01*
X35758945Y-43616054D01*
X35918828Y-43747268D01*
X36101235Y-43844766D01*
X36255000Y-43891410D01*
X36255000Y-43120000D01*
X35483590Y-43120000D01*
X34934683Y-43120000D01*
X34951024Y-43066132D01*
X34970341Y-42870000D01*
X34951024Y-42673868D01*
X34934683Y-42620000D01*
X35483590Y-42620000D01*
X36255000Y-42620000D01*
X36255000Y-41848590D01*
X36101235Y-41895233D01*
X35918828Y-41992731D01*
X35758945Y-42123945D01*
X35627731Y-42283828D01*
X35530233Y-42466235D01*
X35483590Y-42620000D01*
X34934683Y-42620000D01*
X34893814Y-42485273D01*
X34800910Y-42311462D01*
X34675883Y-42159117D01*
X34523538Y-42034090D01*
X34444348Y-41991762D01*
X34349726Y-41941185D01*
X34161133Y-41883976D01*
X34063066Y-41874317D01*
X33965000Y-41864659D01*
X33964999Y-41864659D01*
X33768869Y-41883975D01*
X33587128Y-41939106D01*
X33521003Y-41940729D01*
X33463452Y-41908126D01*
X33084043Y-41528717D01*
X33076734Y-41520741D01*
X33052454Y-41491805D01*
X33019736Y-41472915D01*
X33010627Y-41467112D01*
X32979684Y-41445446D01*
X32978803Y-41444829D01*
X32954107Y-41434599D01*
X32915852Y-41427853D01*
X32905296Y-41425512D01*
X32868807Y-41415735D01*
X32831180Y-41419028D01*
X32820372Y-41419500D01*
X30978628Y-41419500D01*
X30967821Y-41419028D01*
X30965307Y-41418808D01*
X30930200Y-41415736D01*
X30893719Y-41425511D01*
X30883164Y-41427852D01*
X30871823Y-41429851D01*
X30845964Y-41434412D01*
X30845962Y-41434412D01*
X30844906Y-41434599D01*
X30820201Y-41444831D01*
X30788389Y-41467106D01*
X30779273Y-41472914D01*
X30746554Y-41491805D01*
X30722271Y-41520744D01*
X30714965Y-41528716D01*
X30033714Y-42209967D01*
X30025741Y-42217273D01*
X29996806Y-42241553D01*
X29977914Y-42274273D01*
X29972106Y-42283389D01*
X29937908Y-42332232D01*
X29936057Y-42330936D01*
X29927327Y-42346875D01*
X29878639Y-42379616D01*
X29820349Y-42386309D01*
X29765508Y-42365454D01*
X29726394Y-42321722D01*
X29720910Y-42311462D01*
X29720909Y-42311460D01*
X29662724Y-42240563D01*
X29595883Y-42159117D01*
X29443538Y-42034090D01*
X29364348Y-41991762D01*
X29269726Y-41941185D01*
X29081133Y-41883976D01*
X28983066Y-41874317D01*
X28885000Y-41864659D01*
X28884999Y-41864659D01*
X28688866Y-41883976D01*
X28500273Y-41941185D01*
X28326463Y-42034089D01*
X28174117Y-42159117D01*
X28049089Y-42311463D01*
X27956185Y-42485273D01*
X27898976Y-42673866D01*
X27898975Y-42673868D01*
X27898976Y-42673868D01*
X27879659Y-42870000D01*
X27886220Y-42936611D01*
X27898976Y-43066133D01*
X27956185Y-43254726D01*
X28029997Y-43392818D01*
X28049090Y-43428538D01*
X28174117Y-43580883D01*
X28326462Y-43705910D01*
X28500273Y-43798814D01*
X28688868Y-43856024D01*
X28885000Y-43875341D01*
X29081132Y-43856024D01*
X29262870Y-43800893D01*
X29328995Y-43799270D01*
X29386547Y-43831873D01*
X31738181Y-46183507D01*
X31765061Y-46223735D01*
X31774500Y-46271188D01*
X31774500Y-49103326D01*
X31756227Y-49168116D01*
X31706794Y-49213811D01*
X31640769Y-49226944D01*
X31577613Y-49203643D01*
X31565048Y-49194513D01*
X31387413Y-49115427D01*
X31350000Y-49107474D01*
X31350000Y-50126000D01*
X31333387Y-50188000D01*
X31288000Y-50233387D01*
X31226000Y-50250000D01*
X30208628Y-50250000D01*
X30250315Y-50378304D01*
X30347536Y-50546696D01*
X30477643Y-50691193D01*
X30634952Y-50805486D01*
X30812587Y-50884574D01*
X30904040Y-50904013D01*
X30963143Y-50934911D01*
X30997691Y-50991957D01*
X30997691Y-51058649D01*
X30963143Y-51115695D01*
X30904040Y-51146593D01*
X30827968Y-51162762D01*
X30659837Y-51237619D01*
X30510950Y-51345791D01*
X30387804Y-51482559D01*
X30295785Y-51641940D01*
X30238915Y-51816969D01*
X30219678Y-52000000D01*
X30238915Y-52183030D01*
X30268829Y-52275094D01*
X30271472Y-52342359D01*
X30238579Y-52401093D01*
X28383714Y-54255958D01*
X28375741Y-54263264D01*
X28346806Y-54287544D01*
X28327914Y-54320264D01*
X28322106Y-54329380D01*
X28299831Y-54361193D01*
X28289597Y-54385899D01*
X28282852Y-54424148D01*
X28280512Y-54434704D01*
X28270735Y-54471192D01*
X28274028Y-54508820D01*
X28274500Y-54519628D01*
X28274500Y-66645205D01*
X28256858Y-66708954D01*
X28208954Y-66754563D01*
X28041461Y-66844090D01*
X27889117Y-66969117D01*
X27764089Y-67121463D01*
X27671185Y-67295273D01*
X27613976Y-67483866D01*
X27594659Y-67680000D01*
X25000500Y-67680000D01*
X25000500Y-49749999D01*
X30208627Y-49749999D01*
X30208628Y-49750000D01*
X30850000Y-49750000D01*
X30850000Y-49107474D01*
X30812585Y-49115427D01*
X30634952Y-49194513D01*
X30477643Y-49308805D01*
X30347536Y-49453303D01*
X30250315Y-49621695D01*
X30208627Y-49749999D01*
X25000500Y-49749999D01*
X25000500Y-35500000D01*
X27863590Y-35500000D01*
X27910233Y-35653764D01*
X28007731Y-35836171D01*
X28138945Y-35996054D01*
X28298828Y-36127268D01*
X28481235Y-36224766D01*
X28635000Y-36271410D01*
X28635000Y-35500000D01*
X29135000Y-35500000D01*
X29135000Y-36271410D01*
X29288764Y-36224766D01*
X29471171Y-36127268D01*
X29631054Y-35996054D01*
X29762268Y-35836171D01*
X29859766Y-35653764D01*
X29906410Y-35500000D01*
X29135000Y-35500000D01*
X28635000Y-35500000D01*
X27863590Y-35500000D01*
X25000500Y-35500000D01*
X25000500Y-35249999D01*
X30419659Y-35249999D01*
X30438976Y-35446133D01*
X30496185Y-35634726D01*
X30558628Y-35751547D01*
X30589090Y-35808538D01*
X30714117Y-35960883D01*
X30866462Y-36085910D01*
X31040273Y-36178814D01*
X31228868Y-36236024D01*
X31425000Y-36255341D01*
X31621132Y-36236024D01*
X31802870Y-36180893D01*
X31868995Y-36179270D01*
X31926546Y-36211872D01*
X34600523Y-38885850D01*
X37268181Y-41553508D01*
X37295061Y-41593736D01*
X37304500Y-41641189D01*
X37304500Y-41905630D01*
X37285262Y-41971970D01*
X37233517Y-42017725D01*
X37165321Y-42028697D01*
X37101835Y-42001483D01*
X37091171Y-41992731D01*
X36908764Y-41895233D01*
X36755000Y-41848590D01*
X36755000Y-43891410D01*
X36908764Y-43844766D01*
X37091171Y-43747268D01*
X37101835Y-43738517D01*
X37165321Y-43711303D01*
X37233517Y-43722275D01*
X37285262Y-43768030D01*
X37304500Y-43834370D01*
X37304500Y-44110372D01*
X37304028Y-44121180D01*
X37300735Y-44158807D01*
X37310512Y-44195296D01*
X37312853Y-44205852D01*
X37319599Y-44244107D01*
X37329829Y-44268803D01*
X37330446Y-44269684D01*
X37352112Y-44300627D01*
X37357915Y-44309736D01*
X37376806Y-44342455D01*
X37405742Y-44366735D01*
X37413718Y-44374044D01*
X37617988Y-44578314D01*
X37647726Y-44626136D01*
X37653246Y-44682180D01*
X37644317Y-44749999D01*
X37664956Y-44906762D01*
X37725463Y-45052840D01*
X37821717Y-45178282D01*
X37915183Y-45250000D01*
X37947159Y-45274536D01*
X38093238Y-45335044D01*
X38250000Y-45355682D01*
X38406762Y-45335044D01*
X38552841Y-45274536D01*
X38678282Y-45178282D01*
X38774536Y-45052841D01*
X38835044Y-44906762D01*
X38855682Y-44750000D01*
X38835044Y-44593238D01*
X38774536Y-44447159D01*
X38694795Y-44343238D01*
X38678282Y-44321717D01*
X38552840Y-44225463D01*
X38406762Y-44164956D01*
X38249999Y-44144317D01*
X38182180Y-44153246D01*
X38126136Y-44147726D01*
X38078314Y-44117988D01*
X37991819Y-44031493D01*
X37964939Y-43991265D01*
X37955500Y-43943812D01*
X37955500Y-43544123D01*
X37970142Y-43485670D01*
X38010609Y-43441021D01*
X38067346Y-43420720D01*
X38126952Y-43429562D01*
X38175353Y-43465458D01*
X38298945Y-43616054D01*
X38458828Y-43747268D01*
X38641235Y-43844766D01*
X38795000Y-43891410D01*
X38795000Y-41848590D01*
X38641235Y-41895233D01*
X38458828Y-41992731D01*
X38298945Y-42123945D01*
X38175353Y-42274542D01*
X38126952Y-42310438D01*
X38067346Y-42319280D01*
X38010609Y-42298979D01*
X37970142Y-42254330D01*
X37955500Y-42195877D01*
X37955500Y-41474619D01*
X37955972Y-41463812D01*
X37957908Y-41441682D01*
X37959263Y-41426193D01*
X37959262Y-41426192D01*
X37959263Y-41426191D01*
X37949486Y-41389704D01*
X37947144Y-41379140D01*
X37940588Y-41341955D01*
X37940587Y-41341954D01*
X37940400Y-41340891D01*
X37930173Y-41316201D01*
X37929554Y-41315317D01*
X37929554Y-41315316D01*
X37907878Y-41284360D01*
X37902085Y-41275266D01*
X37883194Y-41242545D01*
X37854261Y-41218267D01*
X37846286Y-41210959D01*
X35123565Y-38488238D01*
X32386872Y-35751546D01*
X32354270Y-35693995D01*
X32355894Y-35627870D01*
X32394683Y-35500000D01*
X32411024Y-35446132D01*
X32430341Y-35250000D01*
X32411024Y-35053868D01*
X32353814Y-34865273D01*
X32260910Y-34691462D01*
X32135883Y-34539117D01*
X31983538Y-34414090D01*
X31904361Y-34371769D01*
X31809726Y-34321185D01*
X31621133Y-34263976D01*
X31425000Y-34244659D01*
X31228866Y-34263976D01*
X31040273Y-34321185D01*
X30866463Y-34414089D01*
X30714117Y-34539117D01*
X30589089Y-34691463D01*
X30496185Y-34865273D01*
X30438976Y-35053866D01*
X30419659Y-35249999D01*
X25000500Y-35249999D01*
X25000500Y-35000000D01*
X27863590Y-35000000D01*
X28635000Y-35000000D01*
X28635000Y-34228590D01*
X29135000Y-34228590D01*
X29135000Y-35000000D01*
X29906410Y-35000000D01*
X29859766Y-34846235D01*
X29762268Y-34663828D01*
X29631054Y-34503945D01*
X29471171Y-34372731D01*
X29288764Y-34275233D01*
X29135000Y-34228590D01*
X28635000Y-34228590D01*
X28481235Y-34275233D01*
X28298828Y-34372731D01*
X28138945Y-34503945D01*
X28007731Y-34663828D01*
X27910233Y-34846235D01*
X27863590Y-35000000D01*
X25000500Y-35000000D01*
X25000500Y-26844749D01*
X34299500Y-26844749D01*
X34311132Y-26903230D01*
X34355447Y-26969552D01*
X34421769Y-27013867D01*
X34480251Y-27025500D01*
X34480252Y-27025500D01*
X35519748Y-27025500D01*
X35519749Y-27025500D01*
X35548989Y-27019683D01*
X35578231Y-27013867D01*
X35644552Y-26969552D01*
X35648995Y-26962901D01*
X35696215Y-26921099D01*
X35757892Y-26907928D01*
X35818069Y-26926800D01*
X35942527Y-27005003D01*
X36019999Y-27032111D01*
X36020000Y-27032112D01*
X36020000Y-26575000D01*
X36520000Y-26575000D01*
X36520000Y-27032111D01*
X36597470Y-27005003D01*
X36740576Y-26915083D01*
X36860083Y-26795576D01*
X36950003Y-26652470D01*
X36977111Y-26575000D01*
X36520000Y-26575000D01*
X36020000Y-26575000D01*
X36020000Y-25617889D01*
X36019999Y-25617888D01*
X36520000Y-25617888D01*
X36520000Y-26075000D01*
X36977112Y-26075000D01*
X36977111Y-26074999D01*
X36950003Y-25997529D01*
X36860083Y-25854423D01*
X36740576Y-25734916D01*
X36597470Y-25644996D01*
X36520000Y-25617888D01*
X36019999Y-25617888D01*
X35942530Y-25644995D01*
X35818069Y-25723200D01*
X35757892Y-25742071D01*
X35696216Y-25728901D01*
X35648995Y-25687097D01*
X35644552Y-25680447D01*
X35578230Y-25636132D01*
X35519749Y-25624500D01*
X35519748Y-25624500D01*
X34480252Y-25624500D01*
X34480251Y-25624500D01*
X34421769Y-25636132D01*
X34355447Y-25680447D01*
X34311132Y-25746769D01*
X34299500Y-25805251D01*
X34299500Y-26844749D01*
X25000500Y-26844749D01*
X25000500Y-25124500D01*
X25017113Y-25062500D01*
X25062500Y-25017113D01*
X25124500Y-25000500D01*
X84775500Y-25000500D01*
X84837500Y-25017113D01*
G37*
%TD.AperFunction*%
%TD*%
M02*
