%TF.GenerationSoftware,KiCad,Pcbnew,7.0.1*%
%TF.CreationDate,2023-08-30T09:27:46-04:00*%
%TF.ProjectId,TacTile-D,54616354-696c-4652-9d44-2e6b69636164,rev?*%
%TF.SameCoordinates,Original*%
%TF.FileFunction,Copper,L1,Top*%
%TF.FilePolarity,Positive*%
%FSLAX46Y46*%
G04 Gerber Fmt 4.6, Leading zero omitted, Abs format (unit mm)*
G04 Created by KiCad (PCBNEW 7.0.1) date 2023-08-30 09:27:46*
%MOMM*%
%LPD*%
G01*
G04 APERTURE LIST*
%TA.AperFunction,ComponentPad*%
%ADD10R,1.700000X1.700000*%
%TD*%
%TA.AperFunction,ComponentPad*%
%ADD11O,1.700000X1.700000*%
%TD*%
%TA.AperFunction,ComponentPad*%
%ADD12R,1.600000X1.600000*%
%TD*%
%TA.AperFunction,ComponentPad*%
%ADD13O,1.600000X1.600000*%
%TD*%
%TA.AperFunction,ViaPad*%
%ADD14C,0.800000*%
%TD*%
%TA.AperFunction,Conductor*%
%ADD15C,0.250000*%
%TD*%
%TA.AperFunction,Conductor*%
%ADD16C,2.000000*%
%TD*%
G04 APERTURE END LIST*
D10*
%TO.P,J1,1,Pin_1*%
%TO.N,GND*%
X32200000Y-48675000D03*
D11*
%TO.P,J1,2,Pin_2*%
%TO.N,VCC*%
X32200000Y-51215000D03*
%TO.P,J1,3,Pin_3*%
%TO.N,VIN*%
X32200000Y-53755000D03*
%TO.P,J1,4,Pin_4*%
%TO.N,SS*%
X32200000Y-56295000D03*
%TO.P,J1,5,Pin_5*%
%TO.N,MOSI*%
X32200000Y-58835000D03*
%TO.P,J1,6,Pin_6*%
%TO.N,CLK*%
X32200000Y-61375000D03*
%TD*%
D12*
%TO.P,U7,1*%
%TO.N,Net-(U6B-~{R})*%
X35450000Y-51250000D03*
D13*
%TO.P,U7,2*%
%TO.N,Net-(U6B-~{Q})*%
X35450000Y-53790000D03*
%TO.P,U7,3*%
%TO.N,Net-(U6B-~{S})*%
X35450000Y-56330000D03*
%TO.P,U7,4,GND*%
%TO.N,GND*%
X35450000Y-58870000D03*
%TO.P,U7,5*%
%TO.N,Net-(U5-Pad7)*%
X43070000Y-58870000D03*
%TO.P,U7,6*%
%TO.N,Net-(U10-LE)*%
X43070000Y-56330000D03*
%TO.P,U7,7*%
%TO.N,Net-(U6A-~{R})*%
X43070000Y-53790000D03*
%TO.P,U7,8,VCC*%
%TO.N,VCC*%
X43070000Y-51250000D03*
%TD*%
D10*
%TO.P,J2,1,Pin_1*%
%TO.N,GND*%
X61325000Y-33200000D03*
D11*
%TO.P,J2,2,Pin_2*%
%TO.N,VCC*%
X58785000Y-33200000D03*
%TO.P,J2,3,Pin_3*%
%TO.N,VIN*%
X56245000Y-33200000D03*
%TO.P,J2,4,Pin_4*%
%TO.N,SS*%
X53705000Y-33200000D03*
%TO.P,J2,5,Pin_5*%
%TO.N,MOSI*%
X51165000Y-33200000D03*
%TO.P,J2,6,Pin_6*%
%TO.N,CLK*%
X48625000Y-33200000D03*
%TD*%
D12*
%TO.P,U3,1,QB*%
%TO.N,LS1*%
X28650000Y-75350000D03*
D13*
%TO.P,U3,2,QC*%
%TO.N,LS2*%
X31190000Y-75350000D03*
%TO.P,U3,3,QD*%
%TO.N,Net-(U3-QD)*%
X33730000Y-75350000D03*
%TO.P,U3,4,QE*%
%TO.N,unconnected-(U3-QE-Pad4)*%
X36270000Y-75350000D03*
%TO.P,U3,5,QF*%
%TO.N,unconnected-(U3-QF-Pad5)*%
X38810000Y-75350000D03*
%TO.P,U3,6,QG*%
%TO.N,unconnected-(U3-QG-Pad6)*%
X41350000Y-75350000D03*
%TO.P,U3,7,QH*%
%TO.N,unconnected-(U3-QH-Pad7)*%
X43890000Y-75350000D03*
%TO.P,U3,8,GND*%
%TO.N,GND*%
X46430000Y-75350000D03*
%TO.P,U3,9,QH'*%
%TO.N,unconnected-(U3-QH'-Pad9)*%
X46430000Y-67730000D03*
%TO.P,U3,10,~{SRCLR}*%
%TO.N,SEN*%
X43890000Y-67730000D03*
%TO.P,U3,11,SRCLK*%
%TO.N,CLK*%
X41350000Y-67730000D03*
%TO.P,U3,12,RCLK*%
%TO.N,Net-(U3-RCLK)*%
X38810000Y-67730000D03*
%TO.P,U3,13,~{OE}*%
%TO.N,Net-(U3-~{OE})*%
X36270000Y-67730000D03*
%TO.P,U3,14,SER*%
%TO.N,MOSI*%
X33730000Y-67730000D03*
%TO.P,U3,15,QA*%
%TO.N,LS0*%
X31190000Y-67730000D03*
%TO.P,U3,16,VCC*%
%TO.N,VCC*%
X28650000Y-67730000D03*
%TD*%
D10*
%TO.P,J3,1,Pin_1*%
%TO.N,GND*%
X77825000Y-48650000D03*
D11*
%TO.P,J3,2,Pin_2*%
%TO.N,VCC*%
X77825000Y-51190000D03*
%TO.P,J3,3,Pin_3*%
%TO.N,VIN*%
X77825000Y-53730000D03*
%TO.P,J3,4,Pin_4*%
%TO.N,SS*%
X77825000Y-56270000D03*
%TO.P,J3,5,Pin_5*%
%TO.N,MISO0*%
X77825000Y-58810000D03*
%TO.P,J3,6,Pin_6*%
%TO.N,CLK*%
X77825000Y-61350000D03*
%TD*%
D10*
%TO.P,J7,1,Pin_1*%
%TO.N,VIN*%
X35000000Y-26375000D03*
D11*
%TO.P,J7,2,Pin_2*%
%TO.N,GND*%
X37540000Y-26375000D03*
%TD*%
D12*
%TO.P,U1,1*%
%TO.N,Net-(U4-Q0)*%
X66950000Y-51200000D03*
D13*
%TO.P,U1,2*%
%TO.N,Net-(U4-Q1)*%
X66950000Y-53740000D03*
%TO.P,U1,3*%
%TO.N,Net-(U11-C)*%
X66950000Y-56280000D03*
%TO.P,U1,4,GND*%
%TO.N,GND*%
X66950000Y-58820000D03*
%TO.P,U1,5*%
%TO.N,Net-(U6A-~{Q})*%
X74570000Y-58820000D03*
%TO.P,U1,6*%
%TO.N,MOSI*%
X74570000Y-56280000D03*
%TO.P,U1,7*%
%TO.N,Net-(U3-RCLK)*%
X74570000Y-53740000D03*
%TO.P,U1,8,VCC*%
%TO.N,VCC*%
X74570000Y-51200000D03*
%TD*%
D12*
%TO.P,U6,1,~{R}*%
%TO.N,Net-(U6A-~{R})*%
X44175000Y-35300000D03*
D13*
%TO.P,U6,2,D*%
%TO.N,Net-(U6A-D)*%
X41635000Y-35300000D03*
%TO.P,U6,3,C*%
%TO.N,Net-(U6A-C)*%
X39095000Y-35300000D03*
%TO.P,U6,4,~{S}*%
%TO.N,GND*%
X36555000Y-35300000D03*
%TO.P,U6,5,Q*%
%TO.N,Net-(U10-LE)*%
X34015000Y-35300000D03*
%TO.P,U6,6,~{Q}*%
%TO.N,Net-(U6A-~{Q})*%
X31475000Y-35300000D03*
%TO.P,U6,7,GND*%
%TO.N,GND*%
X28935000Y-35300000D03*
%TO.P,U6,8,~{Q}*%
%TO.N,Net-(U6B-~{Q})*%
X28935000Y-42920000D03*
%TO.P,U6,9,Q*%
%TO.N,SEN*%
X31475000Y-42920000D03*
%TO.P,U6,10,~{S}*%
%TO.N,Net-(U6B-~{S})*%
X34015000Y-42920000D03*
%TO.P,U6,11,C*%
%TO.N,GND*%
X36555000Y-42920000D03*
%TO.P,U6,12,D*%
X39095000Y-42920000D03*
%TO.P,U6,13,~{R}*%
%TO.N,Net-(U6B-~{R})*%
X41635000Y-42920000D03*
%TO.P,U6,14,VCC*%
%TO.N,VCC*%
X44175000Y-42920000D03*
%TD*%
D10*
%TO.P,J5,1,Pin_1*%
%TO.N,LS0*%
X34000000Y-83625000D03*
D11*
%TO.P,J5,2,Pin_2*%
%TO.N,LS1*%
X36540000Y-83625000D03*
%TO.P,J5,3,Pin_3*%
%TO.N,LS2*%
X39080000Y-83625000D03*
%TO.P,J5,4,Pin_4*%
%TO.N,LS3*%
X41620000Y-83625000D03*
%TD*%
D10*
%TO.P,J8,1,Pin_1*%
%TO.N,VCC*%
X72460000Y-26375000D03*
D11*
%TO.P,J8,2,Pin_2*%
%TO.N,LEN*%
X75000000Y-26375000D03*
%TD*%
D12*
%TO.P,U8,1*%
%TO.N,Net-(U11-Q)*%
X49000000Y-37750000D03*
D13*
%TO.P,U8,2,GND*%
%TO.N,GND*%
X49000000Y-40290000D03*
%TO.P,U8,3*%
%TO.N,Net-(U10-Q)*%
X49000000Y-42830000D03*
%TO.P,U8,4*%
%TO.N,MISO1*%
X56620000Y-42830000D03*
%TO.P,U8,5,VCC*%
%TO.N,VCC*%
X56620000Y-40290000D03*
%TO.P,U8,6*%
%TO.N,MISO0*%
X56620000Y-37750000D03*
%TD*%
D12*
%TO.P,U5,1*%
%TO.N,MOSI*%
X46000000Y-51250000D03*
D13*
%TO.P,U5,2*%
%TO.N,CLK*%
X46000000Y-53790000D03*
%TO.P,U5,3*%
%TO.N,Net-(U6B-~{R})*%
X46000000Y-56330000D03*
%TO.P,U5,4,GND*%
%TO.N,GND*%
X46000000Y-58870000D03*
%TO.P,U5,5*%
%TO.N,CLK*%
X53620000Y-58870000D03*
%TO.P,U5,6*%
%TO.N,SS*%
X53620000Y-56330000D03*
%TO.P,U5,7*%
%TO.N,Net-(U5-Pad7)*%
X53620000Y-53790000D03*
%TO.P,U5,8,VCC*%
%TO.N,VCC*%
X53620000Y-51250000D03*
%TD*%
D10*
%TO.P,J4,1,Pin_1*%
%TO.N,GND*%
X61350000Y-78825000D03*
D11*
%TO.P,J4,2,Pin_2*%
%TO.N,VCC*%
X58810000Y-78825000D03*
%TO.P,J4,3,Pin_3*%
%TO.N,VIN*%
X56270000Y-78825000D03*
%TO.P,J4,4,Pin_4*%
%TO.N,SS*%
X53730000Y-78825000D03*
%TO.P,J4,5,Pin_5*%
%TO.N,MISO1*%
X51190000Y-78825000D03*
%TO.P,J4,6,Pin_6*%
%TO.N,CLK*%
X48650000Y-78825000D03*
%TD*%
D12*
%TO.P,U2,1*%
%TO.N,CLK*%
X51250000Y-67750000D03*
D13*
%TO.P,U2,2*%
%TO.N,LEN*%
X51250000Y-70290000D03*
%TO.P,U2,3*%
%TO.N,SEN*%
X51250000Y-72830000D03*
%TO.P,U2,4,GND*%
%TO.N,GND*%
X51250000Y-75370000D03*
%TO.P,U2,5*%
%TO.N,Net-(U3-~{OE})*%
X58870000Y-75370000D03*
%TO.P,U2,6*%
%TO.N,Net-(U3-QD)*%
X58870000Y-72830000D03*
%TO.P,U2,7*%
%TO.N,Net-(U4-CPR)*%
X58870000Y-70290000D03*
%TO.P,U2,8,VCC*%
%TO.N,VCC*%
X58870000Y-67750000D03*
%TD*%
D10*
%TO.P,J6,1,Pin_1*%
%TO.N,LS4*%
X65840000Y-83625000D03*
D11*
%TO.P,J6,2,Pin_2*%
%TO.N,LS5*%
X68380000Y-83625000D03*
%TO.P,J6,3,Pin_3*%
%TO.N,LS6*%
X70920000Y-83625000D03*
%TO.P,J6,4,Pin_4*%
%TO.N,LS7*%
X73460000Y-83625000D03*
%TO.P,J6,5,Pin_5*%
%TO.N,LS8*%
X76000000Y-83625000D03*
%TD*%
D12*
%TO.P,U10,1,LE*%
%TO.N,Net-(U10-LE)*%
X73750000Y-37750000D03*
D13*
%TO.P,U10,2,GND*%
%TO.N,GND*%
X73750000Y-40290000D03*
%TO.P,U10,3,D*%
%TO.N,MOSI*%
X73750000Y-42830000D03*
%TO.P,U10,4,Q*%
%TO.N,Net-(U10-Q)*%
X81370000Y-42830000D03*
%TO.P,U10,5,VCC*%
%TO.N,VCC*%
X81370000Y-40290000D03*
%TO.P,U10,6,~{OE}*%
%TO.N,GND*%
X81370000Y-37750000D03*
%TD*%
D12*
%TO.P,U4,1,Q1*%
%TO.N,Net-(U4-Q1)*%
X63650000Y-75350000D03*
D13*
%TO.P,U4,2,Q2*%
%TO.N,LS3*%
X66190000Y-75350000D03*
%TO.P,U4,3,Q3*%
%TO.N,LS4*%
X68730000Y-75350000D03*
%TO.P,U4,4,Q4*%
%TO.N,LS5*%
X71270000Y-75350000D03*
%TO.P,U4,5,Q5*%
%TO.N,LS6*%
X73810000Y-75350000D03*
%TO.P,U4,6,Q6*%
%TO.N,LS7*%
X76350000Y-75350000D03*
%TO.P,U4,7,Q7*%
%TO.N,LS8*%
X78890000Y-75350000D03*
%TO.P,U4,8,GND*%
%TO.N,GND*%
X81430000Y-75350000D03*
%TO.P,U4,9,~{RCO}*%
%TO.N,unconnected-(U4-~{RCO}-Pad9)*%
X81430000Y-67730000D03*
%TO.P,U4,10,~{MRC}*%
%TO.N,SEN*%
X78890000Y-67730000D03*
%TO.P,U4,11,CPC*%
%TO.N,CLK*%
X76350000Y-67730000D03*
%TO.P,U4,12,~{CE}*%
%TO.N,GND*%
X73810000Y-67730000D03*
%TO.P,U4,13,CPR*%
%TO.N,Net-(U4-CPR)*%
X71270000Y-67730000D03*
%TO.P,U4,14,~{OE}*%
%TO.N,Net-(U3-~{OE})*%
X68730000Y-67730000D03*
%TO.P,U4,15,Q0*%
%TO.N,Net-(U4-Q0)*%
X66190000Y-67730000D03*
%TO.P,U4,16,VCC*%
%TO.N,VCC*%
X63650000Y-67730000D03*
%TD*%
D12*
%TO.P,U9,1*%
%TO.N,Net-(U6A-C)*%
X61500000Y-37750000D03*
D13*
%TO.P,U9,2,GND*%
%TO.N,GND*%
X61500000Y-40290000D03*
%TO.P,U9,3*%
%TO.N,Net-(U11-C)*%
X61500000Y-42830000D03*
%TO.P,U9,4*%
%TO.N,Net-(U6A-C)*%
X69120000Y-42830000D03*
%TO.P,U9,5,VCC*%
%TO.N,VCC*%
X69120000Y-40290000D03*
%TO.P,U9,6*%
%TO.N,Net-(U6A-D)*%
X69120000Y-37750000D03*
%TD*%
D12*
%TO.P,U11,1,C*%
%TO.N,Net-(U11-C)*%
X56450000Y-51250000D03*
D13*
%TO.P,U11,2,D*%
%TO.N,SS*%
X56450000Y-53790000D03*
%TO.P,U11,3,~{Q}*%
%TO.N,unconnected-(U11-~{Q}-Pad3)*%
X56450000Y-56330000D03*
%TO.P,U11,4,GND*%
%TO.N,GND*%
X56450000Y-58870000D03*
%TO.P,U11,5,Q*%
%TO.N,Net-(U11-Q)*%
X64070000Y-58870000D03*
%TO.P,U11,6,~{CLR}*%
%TO.N,GND*%
X64070000Y-56330000D03*
%TO.P,U11,7,~{PRE}*%
X64070000Y-53790000D03*
%TO.P,U11,8,VCC*%
%TO.N,VCC*%
X64070000Y-51250000D03*
%TD*%
D14*
%TO.N,CLK*%
X51800000Y-54050000D03*
%TO.N,MOSI*%
X52050000Y-44550000D03*
%TO.N,SS*%
X44625500Y-55050000D03*
X46800000Y-55050000D03*
%TO.N,VCC*%
X54020500Y-40300000D03*
%TO.N,MISO0*%
X55469500Y-45999500D03*
X76050000Y-46050000D03*
%TO.N,MISO1*%
X54020500Y-60800000D03*
X55550000Y-60800000D03*
%TO.N,LEN*%
X59800000Y-69050000D03*
%TO.N,Net-(U11-C)*%
X68275010Y-54190500D03*
%TO.N,Net-(U6A-~{Q})*%
X38300000Y-44800000D03*
X64750000Y-46800000D03*
%TO.N,Net-(U3-RCLK)*%
X69800000Y-65300000D03*
%TO.N,Net-(U6B-~{R})*%
X41050000Y-49797701D03*
%TO.N,Net-(U5-Pad7)*%
X52562299Y-57787701D03*
%TO.N,Net-(U6A-C)*%
X62899130Y-42797712D03*
%TO.N,Net-(U10-LE)*%
X40300000Y-44550000D03*
X75050000Y-45300000D03*
%TO.N,Net-(U11-Q)*%
X50050000Y-47524500D03*
X65050000Y-49200000D03*
%TD*%
D15*
%TO.N,CLK*%
X51800000Y-54050000D02*
X51540000Y-53790000D01*
X76550000Y-60075000D02*
X54825000Y-60075000D01*
X51540000Y-53790000D02*
X46000000Y-53790000D01*
X42475000Y-68855000D02*
X50145000Y-68855000D01*
X54825000Y-60075000D02*
X53620000Y-58870000D01*
X50145000Y-68855000D02*
X51250000Y-67750000D01*
X77825000Y-61350000D02*
X76550000Y-60075000D01*
X41350000Y-67730000D02*
X42475000Y-68855000D01*
%TO.N,MOSI*%
X46000000Y-50600000D02*
X46000000Y-51250000D01*
X43245991Y-57745000D02*
X44875000Y-56115991D01*
X73750000Y-42830000D02*
X72030000Y-44550000D01*
X44875000Y-55864009D02*
X45350000Y-55389009D01*
X45350000Y-55389009D02*
X45350000Y-54730991D01*
X45350000Y-54730991D02*
X44875000Y-54255991D01*
X44875000Y-54255991D02*
X44875000Y-52375000D01*
X32200000Y-58835000D02*
X33290000Y-57745000D01*
X44875000Y-56115991D02*
X44875000Y-55864009D01*
X72030000Y-44550000D02*
X52050000Y-44550000D01*
X33290000Y-57745000D02*
X43245991Y-57745000D01*
X44875000Y-52375000D02*
X46000000Y-51250000D01*
%TO.N,SS*%
X56450000Y-53790000D02*
X57575000Y-54915000D01*
X56160000Y-53790000D02*
X56450000Y-53790000D01*
X57575000Y-54915000D02*
X76470000Y-54915000D01*
X33290000Y-55205000D02*
X32200000Y-56295000D01*
X44470500Y-55205000D02*
X33290000Y-55205000D01*
X53620000Y-56330000D02*
X48080000Y-56330000D01*
X53620000Y-56330000D02*
X56160000Y-53790000D01*
X44625500Y-55050000D02*
X44470500Y-55205000D01*
X48080000Y-56330000D02*
X46800000Y-55050000D01*
X76470000Y-54915000D02*
X77825000Y-56270000D01*
D16*
%TO.N,VIN*%
X30997919Y-53755000D02*
X26935000Y-49692081D01*
X57092919Y-31150000D02*
X77600000Y-31150000D01*
X77600000Y-31150000D02*
X83370000Y-36920000D01*
X83370000Y-48880000D02*
X78520000Y-53730000D01*
X78520000Y-53730000D02*
X77825000Y-53730000D01*
X39415862Y-31150000D02*
X54554138Y-31150000D01*
X78825000Y-80875000D02*
X57960862Y-80875000D01*
X77825000Y-53730000D02*
X79027081Y-53730000D01*
X26650000Y-77350000D02*
X26650000Y-58850000D01*
X26650000Y-58850000D02*
X31745000Y-53755000D01*
X56270000Y-80027081D02*
X55247081Y-81050000D01*
X56245000Y-32840862D02*
X56245000Y-33200000D01*
X56245000Y-31997919D02*
X57092919Y-31150000D01*
X32200000Y-53755000D02*
X30997919Y-53755000D01*
X79027081Y-53730000D02*
X83430000Y-58132919D01*
X55247081Y-81050000D02*
X30350000Y-81050000D01*
X83430000Y-58132919D02*
X83430000Y-76270000D01*
X35000000Y-26734138D02*
X39415862Y-31150000D01*
X83370000Y-36920000D02*
X83370000Y-48880000D01*
X57960862Y-80875000D02*
X56270000Y-79184138D01*
X56270000Y-79184138D02*
X56270000Y-78825000D01*
X54554138Y-31150000D02*
X56245000Y-32840862D01*
X26935000Y-49692081D02*
X26935000Y-34440000D01*
X56245000Y-33200000D02*
X56245000Y-31997919D01*
X83430000Y-76270000D02*
X78825000Y-80875000D01*
X35000000Y-26375000D02*
X35000000Y-26734138D01*
X31745000Y-53755000D02*
X32200000Y-53755000D01*
X30350000Y-81050000D02*
X26650000Y-77350000D01*
X56270000Y-78825000D02*
X56270000Y-80027081D01*
X26935000Y-34440000D02*
X35000000Y-26375000D01*
D15*
%TO.N,VCC*%
X64070000Y-51250000D02*
X65245000Y-50075000D01*
X45680000Y-41415000D02*
X44175000Y-42920000D01*
X69120000Y-40290000D02*
X70245000Y-39165000D01*
X70245000Y-39165000D02*
X80245000Y-39165000D01*
X73445000Y-50075000D02*
X74570000Y-51200000D01*
X80245000Y-39165000D02*
X81370000Y-40290000D01*
X57745000Y-39165000D02*
X67995000Y-39165000D01*
X52905500Y-41415000D02*
X45680000Y-41415000D01*
X54020500Y-40300000D02*
X52905500Y-41415000D01*
X58870000Y-67750000D02*
X63630000Y-67750000D01*
X44195000Y-50125000D02*
X52495000Y-50125000D01*
X33360000Y-52375000D02*
X41945000Y-52375000D01*
X62945000Y-50125000D02*
X64070000Y-51250000D01*
X43070000Y-51250000D02*
X44195000Y-50125000D01*
X52495000Y-50125000D02*
X53620000Y-51250000D01*
X41945000Y-52375000D02*
X43070000Y-51250000D01*
X74570000Y-51200000D02*
X77815000Y-51200000D01*
X67995000Y-39165000D02*
X69120000Y-40290000D01*
X32200000Y-51215000D02*
X33360000Y-52375000D01*
X77815000Y-51200000D02*
X77825000Y-51190000D01*
X63630000Y-67750000D02*
X63650000Y-67730000D01*
X53620000Y-51250000D02*
X54745000Y-50125000D01*
X65245000Y-50075000D02*
X73445000Y-50075000D01*
X54745000Y-50125000D02*
X62945000Y-50125000D01*
X56620000Y-40290000D02*
X57745000Y-39165000D01*
X56620000Y-40290000D02*
X54030500Y-40290000D01*
X54030500Y-40290000D02*
X54020500Y-40300000D01*
%TO.N,MISO0*%
X55520000Y-46050000D02*
X55469500Y-45999500D01*
X76050000Y-46050000D02*
X55520000Y-46050000D01*
%TO.N,MISO1*%
X54020500Y-60800000D02*
X55550000Y-60800000D01*
%TO.N,LEN*%
X52490000Y-69050000D02*
X51250000Y-70290000D01*
X59800000Y-69050000D02*
X52490000Y-69050000D01*
%TO.N,Net-(U11-C)*%
X68275010Y-53474019D02*
X67415991Y-52615000D01*
X68275010Y-54190500D02*
X68275010Y-53474019D01*
X67415991Y-52615000D02*
X57815000Y-52615000D01*
X57815000Y-52615000D02*
X56450000Y-51250000D01*
%TO.N,Net-(U6A-~{Q})*%
X40300000Y-46800000D02*
X38300000Y-44800000D01*
X64750000Y-46800000D02*
X40300000Y-46800000D01*
%TO.N,Net-(U3-RCLK)*%
X69800000Y-65300000D02*
X41300000Y-65300000D01*
X38870000Y-67730000D02*
X38810000Y-67730000D01*
X41300000Y-65300000D02*
X38870000Y-67730000D01*
%TO.N,Net-(U3-QD)*%
X58870000Y-72830000D02*
X59995000Y-73955000D01*
X59995000Y-75835991D02*
X59335991Y-76495000D01*
X59995000Y-73955000D02*
X59995000Y-75835991D01*
X34875000Y-76495000D02*
X33730000Y-75350000D01*
X59335991Y-76495000D02*
X34875000Y-76495000D01*
%TO.N,Net-(U4-CPR)*%
X68710000Y-70290000D02*
X71270000Y-67730000D01*
X58870000Y-70290000D02*
X68710000Y-70290000D01*
%TO.N,SEN*%
X70325305Y-65800000D02*
X70100305Y-66025000D01*
X69274695Y-65800000D02*
X45820000Y-65800000D01*
X76960000Y-65800000D02*
X70325305Y-65800000D01*
X78890000Y-67730000D02*
X76960000Y-65800000D01*
X70100305Y-66025000D02*
X69499695Y-66025000D01*
X69499695Y-66025000D02*
X69274695Y-65800000D01*
X45820000Y-65800000D02*
X43890000Y-67730000D01*
%TO.N,Net-(U6B-~{R})*%
X41050000Y-49797701D02*
X36202299Y-49797701D01*
X36202299Y-49797701D02*
X34750000Y-51250000D01*
%TO.N,Net-(U5-Pad7)*%
X52519598Y-57745000D02*
X52562299Y-57787701D01*
X44195000Y-57745000D02*
X52519598Y-57745000D01*
X43070000Y-58870000D02*
X44195000Y-57745000D01*
%TO.N,Net-(U6A-D)*%
X47100000Y-35975000D02*
X45275000Y-34150000D01*
X69120000Y-37750000D02*
X67345000Y-35975000D01*
X67345000Y-35975000D02*
X47100000Y-35975000D01*
X42785000Y-34150000D02*
X41635000Y-35300000D01*
X45275000Y-34150000D02*
X42785000Y-34150000D01*
%TO.N,Net-(U6A-C)*%
X62899130Y-42797712D02*
X62931418Y-42830000D01*
X39095000Y-35300000D02*
X40220000Y-36425000D01*
X40220000Y-36425000D02*
X60175000Y-36425000D01*
X62931418Y-42830000D02*
X69120000Y-42830000D01*
X60175000Y-36425000D02*
X61500000Y-37750000D01*
%TO.N,Net-(U10-LE)*%
X75025000Y-45275000D02*
X75050000Y-45300000D01*
X41025000Y-45275000D02*
X75025000Y-45275000D01*
X40300000Y-44550000D02*
X41025000Y-45275000D01*
%TO.N,Net-(U11-Q)*%
X65050000Y-49200000D02*
X63374500Y-47524500D01*
X63374500Y-47524500D02*
X50050000Y-47524500D01*
%TO.N,Net-(U10-Q)*%
X81150000Y-43050000D02*
X75560991Y-43050000D01*
X74215991Y-41705000D02*
X53251896Y-41705000D01*
X81370000Y-42830000D02*
X81150000Y-43050000D01*
X53251896Y-41705000D02*
X52126896Y-42830000D01*
X52126896Y-42830000D02*
X49000000Y-42830000D01*
X75560991Y-43050000D02*
X74215991Y-41705000D01*
%TO.N,Net-(U3-~{OE})*%
X40090000Y-71550000D02*
X36270000Y-67730000D01*
X58870000Y-75370000D02*
X55050000Y-71550000D01*
X55050000Y-71550000D02*
X40090000Y-71550000D01*
%TD*%
%TA.AperFunction,Conductor*%
%TO.N,GND*%
G36*
X34626671Y-25019074D02*
G01*
X34672393Y-25069230D01*
X34684863Y-25135945D01*
X34660343Y-25199230D01*
X34606181Y-25240128D01*
X34600665Y-25242265D01*
X34594845Y-25244520D01*
X34589462Y-25246463D01*
X34513014Y-25272085D01*
X34496147Y-25281481D01*
X34480608Y-25288775D01*
X34473603Y-25291489D01*
X34462600Y-25295752D01*
X34462597Y-25295754D01*
X34446164Y-25305928D01*
X34380890Y-25324500D01*
X34130251Y-25324500D01*
X34071769Y-25336132D01*
X34005447Y-25380447D01*
X33961132Y-25446769D01*
X33949500Y-25505251D01*
X33949500Y-25676375D01*
X33940061Y-25723828D01*
X33913181Y-25764056D01*
X26107756Y-33569479D01*
X26103614Y-33573434D01*
X26044019Y-33627763D01*
X25995426Y-33692109D01*
X25991872Y-33696596D01*
X25940348Y-33758646D01*
X25930950Y-33775518D01*
X25921581Y-33789897D01*
X25909941Y-33805311D01*
X25873988Y-33877512D01*
X25871319Y-33882576D01*
X25832084Y-33953016D01*
X25825948Y-33971324D01*
X25819379Y-33987183D01*
X25810771Y-34004471D01*
X25788697Y-34082049D01*
X25787004Y-34087517D01*
X25761381Y-34163969D01*
X25758713Y-34183091D01*
X25755171Y-34199881D01*
X25749884Y-34218462D01*
X25742442Y-34298778D01*
X25741782Y-34304466D01*
X25730644Y-34384316D01*
X25734368Y-34464869D01*
X25734500Y-34470595D01*
X25734500Y-49661486D01*
X25734368Y-49667212D01*
X25730644Y-49747763D01*
X25741782Y-49827613D01*
X25742442Y-49833301D01*
X25749885Y-49913619D01*
X25755171Y-49932199D01*
X25758714Y-49948994D01*
X25761381Y-49968109D01*
X25761382Y-49968114D01*
X25761812Y-49969396D01*
X25787004Y-50044562D01*
X25788697Y-50050031D01*
X25810769Y-50127606D01*
X25819375Y-50144888D01*
X25825944Y-50160748D01*
X25832083Y-50179061D01*
X25832085Y-50179066D01*
X25858218Y-50225983D01*
X25871328Y-50249521D01*
X25873998Y-50254587D01*
X25909940Y-50326768D01*
X25921579Y-50342180D01*
X25930949Y-50356561D01*
X25939421Y-50371769D01*
X25940349Y-50373435D01*
X25991866Y-50435475D01*
X25995423Y-50439966D01*
X26044017Y-50504316D01*
X26103615Y-50558646D01*
X26107758Y-50562602D01*
X29586015Y-54040859D01*
X29618109Y-54096446D01*
X29618109Y-54160634D01*
X29586015Y-54216221D01*
X25822756Y-57979479D01*
X25818614Y-57983434D01*
X25759019Y-58037763D01*
X25710426Y-58102109D01*
X25706872Y-58106596D01*
X25655348Y-58168646D01*
X25645950Y-58185518D01*
X25636581Y-58199897D01*
X25624941Y-58215311D01*
X25588988Y-58287512D01*
X25586319Y-58292576D01*
X25547084Y-58363016D01*
X25540948Y-58381324D01*
X25534379Y-58397183D01*
X25525771Y-58414471D01*
X25503697Y-58492049D01*
X25502004Y-58497517D01*
X25476381Y-58573969D01*
X25473713Y-58593091D01*
X25470171Y-58609881D01*
X25464884Y-58628462D01*
X25457442Y-58708778D01*
X25456782Y-58714466D01*
X25445644Y-58794316D01*
X25449368Y-58874869D01*
X25449500Y-58880595D01*
X25449500Y-77319405D01*
X25449368Y-77325131D01*
X25445644Y-77405682D01*
X25456782Y-77485532D01*
X25457442Y-77491220D01*
X25464885Y-77571538D01*
X25470171Y-77590118D01*
X25473714Y-77606913D01*
X25476168Y-77624500D01*
X25476382Y-77626033D01*
X25489570Y-77665382D01*
X25502004Y-77702481D01*
X25503697Y-77707950D01*
X25525769Y-77785525D01*
X25534375Y-77802807D01*
X25540944Y-77818667D01*
X25547083Y-77836980D01*
X25547085Y-77836985D01*
X25569627Y-77877456D01*
X25586328Y-77907440D01*
X25588998Y-77912506D01*
X25624940Y-77984687D01*
X25636579Y-78000099D01*
X25645949Y-78014480D01*
X25655348Y-78031353D01*
X25655349Y-78031354D01*
X25706866Y-78093394D01*
X25710423Y-78097885D01*
X25759017Y-78162235D01*
X25818615Y-78216565D01*
X25822758Y-78220521D01*
X29479477Y-81877240D01*
X29483433Y-81881383D01*
X29537761Y-81940979D01*
X29537764Y-81940981D01*
X29594796Y-81984049D01*
X29602113Y-81989574D01*
X29606604Y-81993132D01*
X29640521Y-82021296D01*
X29668647Y-82044652D01*
X29680550Y-82051282D01*
X29685514Y-82054047D01*
X29699901Y-82063421D01*
X29715311Y-82075058D01*
X29787501Y-82111004D01*
X29792542Y-82113662D01*
X29863013Y-82152914D01*
X29863015Y-82152915D01*
X29881326Y-82159052D01*
X29897191Y-82165624D01*
X29914472Y-82174229D01*
X29992062Y-82196305D01*
X29997495Y-82197987D01*
X30073967Y-82223618D01*
X30093089Y-82226285D01*
X30109886Y-82229828D01*
X30111380Y-82230253D01*
X30128463Y-82235115D01*
X30136653Y-82235873D01*
X30208804Y-82242559D01*
X30214417Y-82243209D01*
X30294319Y-82254356D01*
X30374868Y-82250632D01*
X30380595Y-82250500D01*
X55216486Y-82250500D01*
X55222212Y-82250632D01*
X55302762Y-82254356D01*
X55382667Y-82243209D01*
X55388270Y-82242559D01*
X55468617Y-82235115D01*
X55487198Y-82229827D01*
X55503990Y-82226285D01*
X55523114Y-82223618D01*
X55599583Y-82197987D01*
X55605019Y-82196304D01*
X55682609Y-82174229D01*
X55699888Y-82165624D01*
X55715763Y-82159049D01*
X55716801Y-82158701D01*
X55734066Y-82152915D01*
X55804537Y-82113662D01*
X55809573Y-82111008D01*
X55881766Y-82075060D01*
X55881766Y-82075059D01*
X55881770Y-82075058D01*
X55897186Y-82063415D01*
X55911550Y-82054055D01*
X55928434Y-82044652D01*
X55990506Y-81993106D01*
X55994944Y-81989591D01*
X56059317Y-81940981D01*
X56113657Y-81881371D01*
X56117591Y-81877251D01*
X56603789Y-81391053D01*
X56659378Y-81358959D01*
X56723565Y-81358959D01*
X56779152Y-81391053D01*
X57090339Y-81702240D01*
X57094295Y-81706383D01*
X57148623Y-81765979D01*
X57212975Y-81814574D01*
X57217466Y-81818132D01*
X57217470Y-81818135D01*
X57279509Y-81869652D01*
X57291875Y-81876539D01*
X57296376Y-81879047D01*
X57310763Y-81888421D01*
X57326173Y-81900058D01*
X57398363Y-81936004D01*
X57403404Y-81938662D01*
X57473875Y-81977914D01*
X57473877Y-81977915D01*
X57492188Y-81984052D01*
X57508053Y-81990624D01*
X57525334Y-81999229D01*
X57602924Y-82021305D01*
X57608357Y-82022987D01*
X57684829Y-82048618D01*
X57703951Y-82051285D01*
X57720748Y-82054828D01*
X57722242Y-82055253D01*
X57739325Y-82060115D01*
X57747515Y-82060873D01*
X57819666Y-82067559D01*
X57825279Y-82068209D01*
X57905181Y-82079356D01*
X57985731Y-82075632D01*
X57991458Y-82075500D01*
X78794405Y-82075500D01*
X78800131Y-82075632D01*
X78880681Y-82079356D01*
X78960586Y-82068209D01*
X78966189Y-82067559D01*
X79046536Y-82060115D01*
X79065117Y-82054827D01*
X79081909Y-82051285D01*
X79101033Y-82048618D01*
X79177502Y-82022987D01*
X79182938Y-82021304D01*
X79260528Y-81999229D01*
X79277807Y-81990624D01*
X79293682Y-81984049D01*
X79294720Y-81983701D01*
X79311985Y-81977915D01*
X79382456Y-81938662D01*
X79387492Y-81936008D01*
X79459685Y-81900060D01*
X79459685Y-81900059D01*
X79459689Y-81900058D01*
X79475105Y-81888415D01*
X79489469Y-81879055D01*
X79506353Y-81869652D01*
X79568425Y-81818106D01*
X79572863Y-81814591D01*
X79637236Y-81765981D01*
X79691576Y-81706371D01*
X79695510Y-81702251D01*
X84257251Y-77140510D01*
X84261373Y-77136575D01*
X84320981Y-77082236D01*
X84369585Y-77017872D01*
X84373104Y-77013428D01*
X84424652Y-76951354D01*
X84434048Y-76934484D01*
X84443428Y-76920088D01*
X84455058Y-76904689D01*
X84491021Y-76832464D01*
X84493636Y-76827502D01*
X84532914Y-76756985D01*
X84539050Y-76738673D01*
X84545621Y-76722814D01*
X84554228Y-76705530D01*
X84576301Y-76627949D01*
X84577997Y-76622474D01*
X84603617Y-76546036D01*
X84603617Y-76546035D01*
X84603618Y-76546033D01*
X84606284Y-76526911D01*
X84609827Y-76510117D01*
X84615115Y-76491536D01*
X84622559Y-76411189D01*
X84623209Y-76405586D01*
X84634356Y-76325681D01*
X84630632Y-76245131D01*
X84630500Y-76239405D01*
X84630500Y-58163515D01*
X84630632Y-58157789D01*
X84631386Y-58141483D01*
X84634356Y-58077238D01*
X84623208Y-57997329D01*
X84622558Y-57991716D01*
X84615115Y-57911383D01*
X84609831Y-57892812D01*
X84606286Y-57876006D01*
X84604297Y-57861751D01*
X84603619Y-57856887D01*
X84577981Y-57780394D01*
X84576306Y-57774985D01*
X84554229Y-57697391D01*
X84545625Y-57680113D01*
X84539051Y-57664243D01*
X84532915Y-57645935D01*
X84532915Y-57645934D01*
X84493648Y-57575437D01*
X84491014Y-57570440D01*
X84455058Y-57498230D01*
X84443426Y-57482827D01*
X84434048Y-57468434D01*
X84424652Y-57451565D01*
X84373127Y-57389515D01*
X84369570Y-57385025D01*
X84320980Y-57320681D01*
X84261383Y-57266352D01*
X84257240Y-57262396D01*
X80558984Y-53564140D01*
X80526890Y-53508553D01*
X80526890Y-53444365D01*
X80558984Y-53388778D01*
X82363036Y-51584726D01*
X84197251Y-49750510D01*
X84201373Y-49746575D01*
X84202293Y-49745736D01*
X84260981Y-49692236D01*
X84309591Y-49627863D01*
X84313095Y-49623439D01*
X84364653Y-49561353D01*
X84374048Y-49544483D01*
X84383422Y-49530095D01*
X84395058Y-49514689D01*
X84431001Y-49442503D01*
X84433669Y-49437444D01*
X84472912Y-49366990D01*
X84472911Y-49366990D01*
X84472915Y-49366985D01*
X84479053Y-49348669D01*
X84485624Y-49332807D01*
X84494229Y-49315528D01*
X84516306Y-49237932D01*
X84517981Y-49232523D01*
X84543619Y-49156032D01*
X84546286Y-49136904D01*
X84549829Y-49120112D01*
X84555115Y-49101536D01*
X84562558Y-49021201D01*
X84563208Y-49015593D01*
X84574356Y-48935681D01*
X84570632Y-48855130D01*
X84570500Y-48849404D01*
X84570500Y-36950595D01*
X84570632Y-36944869D01*
X84572055Y-36914089D01*
X84574356Y-36864319D01*
X84563209Y-36784417D01*
X84562559Y-36778804D01*
X84555115Y-36698464D01*
X84554720Y-36697077D01*
X84549829Y-36679887D01*
X84546285Y-36663089D01*
X84543618Y-36643967D01*
X84517987Y-36567495D01*
X84516305Y-36562062D01*
X84494229Y-36484472D01*
X84485625Y-36467194D01*
X84479051Y-36451324D01*
X84472914Y-36433013D01*
X84433662Y-36362542D01*
X84431004Y-36357501D01*
X84395058Y-36285311D01*
X84383421Y-36269901D01*
X84374047Y-36255514D01*
X84364651Y-36238646D01*
X84313132Y-36176604D01*
X84309574Y-36172113D01*
X84294593Y-36152275D01*
X84286308Y-36141303D01*
X84260979Y-36107761D01*
X84201383Y-36053433D01*
X84197240Y-36049477D01*
X78470521Y-30322758D01*
X78466565Y-30318615D01*
X78412235Y-30259017D01*
X78347885Y-30210423D01*
X78343394Y-30206866D01*
X78281354Y-30155349D01*
X78281353Y-30155348D01*
X78264480Y-30145949D01*
X78250099Y-30136579D01*
X78234687Y-30124940D01*
X78162506Y-30088998D01*
X78157440Y-30086328D01*
X78139032Y-30076075D01*
X78086985Y-30047085D01*
X78086981Y-30047083D01*
X78086980Y-30047083D01*
X78068667Y-30040944D01*
X78052807Y-30034375D01*
X78035525Y-30025769D01*
X77957950Y-30003697D01*
X77952481Y-30002004D01*
X77947746Y-30000417D01*
X77876033Y-29976382D01*
X77876029Y-29976381D01*
X77876028Y-29976381D01*
X77856913Y-29973714D01*
X77840118Y-29970171D01*
X77821538Y-29964885D01*
X77741220Y-29957442D01*
X77735532Y-29956782D01*
X77655682Y-29945644D01*
X77655681Y-29945644D01*
X77585662Y-29948881D01*
X77575131Y-29949368D01*
X77569405Y-29949500D01*
X57123536Y-29949500D01*
X57117810Y-29949368D01*
X57113655Y-29949175D01*
X57037237Y-29945643D01*
X57037235Y-29945643D01*
X56957364Y-29956784D01*
X56951676Y-29957444D01*
X56871381Y-29964885D01*
X56852805Y-29970170D01*
X56836018Y-29973711D01*
X56816887Y-29976381D01*
X56816886Y-29976381D01*
X56816881Y-29976382D01*
X56740433Y-30002004D01*
X56734965Y-30003698D01*
X56657389Y-30025771D01*
X56640102Y-30034379D01*
X56624243Y-30040948D01*
X56605932Y-30047085D01*
X56535471Y-30086331D01*
X56530408Y-30089000D01*
X56458229Y-30124942D01*
X56442823Y-30136576D01*
X56428443Y-30145945D01*
X56411568Y-30155344D01*
X56349512Y-30206874D01*
X56345025Y-30210428D01*
X56280682Y-30259018D01*
X56226363Y-30318603D01*
X56222408Y-30322745D01*
X55911208Y-30633945D01*
X55855621Y-30666039D01*
X55791433Y-30666039D01*
X55735846Y-30633945D01*
X55424659Y-30322758D01*
X55420703Y-30318615D01*
X55366373Y-30259017D01*
X55302023Y-30210423D01*
X55297532Y-30206866D01*
X55235492Y-30155349D01*
X55235491Y-30155348D01*
X55218618Y-30145949D01*
X55204237Y-30136579D01*
X55188825Y-30124940D01*
X55116644Y-30088998D01*
X55111578Y-30086328D01*
X55093170Y-30076075D01*
X55041123Y-30047085D01*
X55041119Y-30047083D01*
X55041118Y-30047083D01*
X55022805Y-30040944D01*
X55006945Y-30034375D01*
X54989663Y-30025769D01*
X54912088Y-30003697D01*
X54906619Y-30002004D01*
X54901884Y-30000417D01*
X54830171Y-29976382D01*
X54830167Y-29976381D01*
X54830166Y-29976381D01*
X54811051Y-29973714D01*
X54794256Y-29970171D01*
X54775676Y-29964885D01*
X54695358Y-29957442D01*
X54689670Y-29956782D01*
X54609820Y-29945644D01*
X54609819Y-29945644D01*
X54539800Y-29948881D01*
X54529269Y-29949368D01*
X54523543Y-29949500D01*
X39964487Y-29949500D01*
X39917034Y-29940061D01*
X39876806Y-29913181D01*
X37636987Y-27673362D01*
X37604298Y-27615463D01*
X37606217Y-27549001D01*
X37642194Y-27493085D01*
X37701883Y-27463792D01*
X37842320Y-27437539D01*
X38032411Y-27363899D01*
X38205740Y-27256578D01*
X38218716Y-27244749D01*
X71409500Y-27244749D01*
X71421132Y-27303230D01*
X71465447Y-27369552D01*
X71531769Y-27413867D01*
X71590251Y-27425500D01*
X71590252Y-27425500D01*
X73329748Y-27425500D01*
X73329749Y-27425500D01*
X73358989Y-27419683D01*
X73388231Y-27413867D01*
X73454552Y-27369552D01*
X73498867Y-27303231D01*
X73510500Y-27244748D01*
X73510500Y-26375000D01*
X73944417Y-26375000D01*
X73964699Y-26580932D01*
X73978067Y-26625000D01*
X74024768Y-26778954D01*
X74122315Y-26961450D01*
X74173609Y-27023952D01*
X74253589Y-27121410D01*
X74333569Y-27187047D01*
X74413550Y-27252685D01*
X74596046Y-27350232D01*
X74794066Y-27410300D01*
X75000000Y-27430583D01*
X75205934Y-27410300D01*
X75403954Y-27350232D01*
X75586450Y-27252685D01*
X75746410Y-27121410D01*
X75877685Y-26961450D01*
X75975232Y-26778954D01*
X76035300Y-26580934D01*
X76055583Y-26375000D01*
X76035300Y-26169066D01*
X75975232Y-25971046D01*
X75877685Y-25788550D01*
X75785626Y-25676375D01*
X75746410Y-25628589D01*
X75596121Y-25505252D01*
X75586450Y-25497315D01*
X75403954Y-25399768D01*
X75304944Y-25369734D01*
X75205932Y-25339699D01*
X75000000Y-25319417D01*
X74794067Y-25339699D01*
X74596043Y-25399769D01*
X74413551Y-25497314D01*
X74253589Y-25628589D01*
X74122314Y-25788551D01*
X74024769Y-25971043D01*
X74024768Y-25971045D01*
X74024768Y-25971046D01*
X74023286Y-25975931D01*
X73964699Y-26169067D01*
X73944417Y-26375000D01*
X73510500Y-26375000D01*
X73510500Y-25505252D01*
X73498867Y-25446769D01*
X73498866Y-25446768D01*
X73454552Y-25380447D01*
X73388230Y-25336132D01*
X73329749Y-25324500D01*
X73329748Y-25324500D01*
X71590252Y-25324500D01*
X71590251Y-25324500D01*
X71531769Y-25336132D01*
X71465447Y-25380447D01*
X71421132Y-25446769D01*
X71409500Y-25505251D01*
X71409500Y-27244749D01*
X38218716Y-27244749D01*
X38356392Y-27119241D01*
X38479248Y-26956553D01*
X38570113Y-26774069D01*
X38612528Y-26625000D01*
X37414000Y-26625000D01*
X37352000Y-26608387D01*
X37306613Y-26563000D01*
X37290000Y-26501000D01*
X37290000Y-25302680D01*
X37790000Y-25302680D01*
X37790000Y-26125000D01*
X38612528Y-26125000D01*
X38612528Y-26124999D01*
X38570113Y-25975930D01*
X38479248Y-25793446D01*
X38356392Y-25630758D01*
X38205740Y-25493421D01*
X38032411Y-25386100D01*
X37842320Y-25312460D01*
X37790000Y-25302680D01*
X37290000Y-25302680D01*
X37237679Y-25312460D01*
X37047588Y-25386100D01*
X36874259Y-25493421D01*
X36723607Y-25630758D01*
X36600751Y-25793446D01*
X36509885Y-25975931D01*
X36454096Y-26172007D01*
X36451461Y-26200447D01*
X36426073Y-26264869D01*
X36370100Y-26305634D01*
X36300995Y-26310029D01*
X36240309Y-26276684D01*
X36225801Y-26262176D01*
X36192776Y-26202885D01*
X36189662Y-26189645D01*
X36186897Y-26172695D01*
X36185115Y-26153464D01*
X36177016Y-26124999D01*
X36163031Y-26075848D01*
X36161599Y-26070332D01*
X36143142Y-25991858D01*
X36135347Y-25974204D01*
X36129514Y-25958049D01*
X36124229Y-25939472D01*
X36088275Y-25867268D01*
X36085845Y-25862090D01*
X36061066Y-25805971D01*
X36050500Y-25755885D01*
X36050500Y-25505251D01*
X36038867Y-25446769D01*
X35994552Y-25380447D01*
X35928230Y-25336132D01*
X35869749Y-25324500D01*
X35869748Y-25324500D01*
X35619116Y-25324500D01*
X35567804Y-25313385D01*
X35567782Y-25313375D01*
X35553824Y-25305921D01*
X35537401Y-25295753D01*
X35462162Y-25266605D01*
X35456918Y-25264432D01*
X35396906Y-25237934D01*
X35345344Y-25195519D01*
X35323251Y-25132515D01*
X35337032Y-25067187D01*
X35382691Y-25018474D01*
X35446992Y-25000500D01*
X84875500Y-25000500D01*
X84937500Y-25017113D01*
X84982887Y-25062500D01*
X84999500Y-25124500D01*
X84999500Y-84875500D01*
X84982887Y-84937500D01*
X84937500Y-84982887D01*
X84875500Y-84999500D01*
X25124500Y-84999500D01*
X25062500Y-84982887D01*
X25017113Y-84937500D01*
X25000500Y-84875500D01*
X25000500Y-84494749D01*
X32949500Y-84494749D01*
X32961132Y-84553230D01*
X33005447Y-84619552D01*
X33071769Y-84663867D01*
X33130251Y-84675500D01*
X33130252Y-84675500D01*
X34869748Y-84675500D01*
X34869749Y-84675500D01*
X34898989Y-84669683D01*
X34928231Y-84663867D01*
X34994552Y-84619552D01*
X35038867Y-84553231D01*
X35050500Y-84494748D01*
X35050500Y-83625000D01*
X35484417Y-83625000D01*
X35504699Y-83830932D01*
X35504700Y-83830934D01*
X35564768Y-84028954D01*
X35662315Y-84211450D01*
X35713609Y-84273952D01*
X35793589Y-84371410D01*
X35873570Y-84437047D01*
X35953550Y-84502685D01*
X36136046Y-84600232D01*
X36334066Y-84660300D01*
X36540000Y-84680583D01*
X36745934Y-84660300D01*
X36943954Y-84600232D01*
X37126450Y-84502685D01*
X37286410Y-84371410D01*
X37417685Y-84211450D01*
X37515232Y-84028954D01*
X37575300Y-83830934D01*
X37595583Y-83625000D01*
X38024417Y-83625000D01*
X38044699Y-83830932D01*
X38044700Y-83830934D01*
X38104768Y-84028954D01*
X38202315Y-84211450D01*
X38253609Y-84273952D01*
X38333589Y-84371410D01*
X38413570Y-84437047D01*
X38493550Y-84502685D01*
X38676046Y-84600232D01*
X38874066Y-84660300D01*
X39080000Y-84680583D01*
X39285934Y-84660300D01*
X39483954Y-84600232D01*
X39666450Y-84502685D01*
X39826410Y-84371410D01*
X39957685Y-84211450D01*
X40055232Y-84028954D01*
X40115300Y-83830934D01*
X40135583Y-83625000D01*
X40564417Y-83625000D01*
X40584699Y-83830932D01*
X40584700Y-83830934D01*
X40644768Y-84028954D01*
X40742315Y-84211450D01*
X40793609Y-84273952D01*
X40873589Y-84371410D01*
X40953570Y-84437047D01*
X41033550Y-84502685D01*
X41216046Y-84600232D01*
X41414066Y-84660300D01*
X41620000Y-84680583D01*
X41825934Y-84660300D01*
X42023954Y-84600232D01*
X42206450Y-84502685D01*
X42216120Y-84494749D01*
X64789500Y-84494749D01*
X64801132Y-84553230D01*
X64845447Y-84619552D01*
X64911769Y-84663867D01*
X64970251Y-84675500D01*
X64970252Y-84675500D01*
X66709748Y-84675500D01*
X66709749Y-84675500D01*
X66738989Y-84669683D01*
X66768231Y-84663867D01*
X66834552Y-84619552D01*
X66878867Y-84553231D01*
X66890500Y-84494748D01*
X66890500Y-83624999D01*
X67324417Y-83624999D01*
X67344699Y-83830932D01*
X67344700Y-83830934D01*
X67404768Y-84028954D01*
X67502315Y-84211450D01*
X67553609Y-84273952D01*
X67633589Y-84371410D01*
X67713570Y-84437047D01*
X67793550Y-84502685D01*
X67976046Y-84600232D01*
X68174066Y-84660300D01*
X68380000Y-84680583D01*
X68585934Y-84660300D01*
X68783954Y-84600232D01*
X68966450Y-84502685D01*
X69126410Y-84371410D01*
X69257685Y-84211450D01*
X69355232Y-84028954D01*
X69415300Y-83830934D01*
X69435583Y-83625000D01*
X69435583Y-83624999D01*
X69864417Y-83624999D01*
X69884699Y-83830932D01*
X69884700Y-83830934D01*
X69944768Y-84028954D01*
X70042315Y-84211450D01*
X70093609Y-84273952D01*
X70173589Y-84371410D01*
X70253570Y-84437047D01*
X70333550Y-84502685D01*
X70516046Y-84600232D01*
X70714066Y-84660300D01*
X70920000Y-84680583D01*
X71125934Y-84660300D01*
X71323954Y-84600232D01*
X71506450Y-84502685D01*
X71666410Y-84371410D01*
X71797685Y-84211450D01*
X71895232Y-84028954D01*
X71955300Y-83830934D01*
X71975583Y-83625000D01*
X71975583Y-83624999D01*
X72404417Y-83624999D01*
X72424699Y-83830932D01*
X72424700Y-83830934D01*
X72484768Y-84028954D01*
X72582315Y-84211450D01*
X72633609Y-84273952D01*
X72713589Y-84371410D01*
X72793570Y-84437047D01*
X72873550Y-84502685D01*
X73056046Y-84600232D01*
X73254066Y-84660300D01*
X73460000Y-84680583D01*
X73665934Y-84660300D01*
X73863954Y-84600232D01*
X74046450Y-84502685D01*
X74206410Y-84371410D01*
X74337685Y-84211450D01*
X74435232Y-84028954D01*
X74495300Y-83830934D01*
X74515583Y-83625000D01*
X74515583Y-83624999D01*
X74944417Y-83624999D01*
X74964699Y-83830932D01*
X74964700Y-83830934D01*
X75024768Y-84028954D01*
X75122315Y-84211450D01*
X75173609Y-84273952D01*
X75253589Y-84371410D01*
X75333570Y-84437047D01*
X75413550Y-84502685D01*
X75596046Y-84600232D01*
X75794066Y-84660300D01*
X76000000Y-84680583D01*
X76205934Y-84660300D01*
X76403954Y-84600232D01*
X76586450Y-84502685D01*
X76746410Y-84371410D01*
X76877685Y-84211450D01*
X76975232Y-84028954D01*
X77035300Y-83830934D01*
X77055583Y-83625000D01*
X77035300Y-83419066D01*
X76975232Y-83221046D01*
X76877685Y-83038550D01*
X76812047Y-82958569D01*
X76746410Y-82878589D01*
X76596121Y-82755252D01*
X76586450Y-82747315D01*
X76403954Y-82649768D01*
X76304944Y-82619734D01*
X76205932Y-82589699D01*
X76000000Y-82569417D01*
X75794067Y-82589699D01*
X75596043Y-82649769D01*
X75413551Y-82747314D01*
X75253589Y-82878589D01*
X75122314Y-83038551D01*
X75024769Y-83221043D01*
X74964699Y-83419067D01*
X74944417Y-83624999D01*
X74515583Y-83624999D01*
X74495300Y-83419066D01*
X74435232Y-83221046D01*
X74337685Y-83038550D01*
X74272047Y-82958569D01*
X74206410Y-82878589D01*
X74056121Y-82755252D01*
X74046450Y-82747315D01*
X73863954Y-82649768D01*
X73764944Y-82619734D01*
X73665932Y-82589699D01*
X73460000Y-82569417D01*
X73254067Y-82589699D01*
X73056043Y-82649769D01*
X72873551Y-82747314D01*
X72713589Y-82878589D01*
X72582314Y-83038551D01*
X72484769Y-83221043D01*
X72424699Y-83419067D01*
X72404417Y-83624999D01*
X71975583Y-83624999D01*
X71955300Y-83419066D01*
X71895232Y-83221046D01*
X71797685Y-83038550D01*
X71732047Y-82958569D01*
X71666410Y-82878589D01*
X71516121Y-82755252D01*
X71506450Y-82747315D01*
X71323954Y-82649768D01*
X71224944Y-82619734D01*
X71125932Y-82589699D01*
X70920000Y-82569417D01*
X70714067Y-82589699D01*
X70516043Y-82649769D01*
X70333551Y-82747314D01*
X70173589Y-82878589D01*
X70042314Y-83038551D01*
X69944769Y-83221043D01*
X69884699Y-83419067D01*
X69864417Y-83624999D01*
X69435583Y-83624999D01*
X69415300Y-83419066D01*
X69355232Y-83221046D01*
X69257685Y-83038550D01*
X69192047Y-82958569D01*
X69126410Y-82878589D01*
X68976121Y-82755252D01*
X68966450Y-82747315D01*
X68783954Y-82649768D01*
X68684944Y-82619734D01*
X68585932Y-82589699D01*
X68380000Y-82569417D01*
X68174067Y-82589699D01*
X67976043Y-82649769D01*
X67793551Y-82747314D01*
X67633589Y-82878589D01*
X67502314Y-83038551D01*
X67404769Y-83221043D01*
X67344699Y-83419067D01*
X67324417Y-83624999D01*
X66890500Y-83624999D01*
X66890500Y-82755252D01*
X66878867Y-82696769D01*
X66834552Y-82630447D01*
X66768230Y-82586132D01*
X66709749Y-82574500D01*
X66709748Y-82574500D01*
X64970252Y-82574500D01*
X64970251Y-82574500D01*
X64911769Y-82586132D01*
X64845447Y-82630447D01*
X64801132Y-82696769D01*
X64789500Y-82755251D01*
X64789500Y-84494749D01*
X42216120Y-84494749D01*
X42366410Y-84371410D01*
X42497685Y-84211450D01*
X42595232Y-84028954D01*
X42655300Y-83830934D01*
X42675583Y-83625000D01*
X42655300Y-83419066D01*
X42595232Y-83221046D01*
X42497685Y-83038550D01*
X42432047Y-82958569D01*
X42366410Y-82878589D01*
X42216121Y-82755252D01*
X42206450Y-82747315D01*
X42023954Y-82649768D01*
X41924944Y-82619734D01*
X41825932Y-82589699D01*
X41620000Y-82569417D01*
X41414067Y-82589699D01*
X41216043Y-82649769D01*
X41033551Y-82747314D01*
X40873589Y-82878589D01*
X40742314Y-83038551D01*
X40644769Y-83221043D01*
X40584699Y-83419067D01*
X40564417Y-83625000D01*
X40135583Y-83625000D01*
X40115300Y-83419066D01*
X40055232Y-83221046D01*
X39957685Y-83038550D01*
X39892047Y-82958569D01*
X39826410Y-82878589D01*
X39676121Y-82755252D01*
X39666450Y-82747315D01*
X39483954Y-82649768D01*
X39384944Y-82619734D01*
X39285932Y-82589699D01*
X39080000Y-82569417D01*
X38874067Y-82589699D01*
X38676043Y-82649769D01*
X38493551Y-82747314D01*
X38333589Y-82878589D01*
X38202314Y-83038551D01*
X38104769Y-83221043D01*
X38044699Y-83419067D01*
X38024417Y-83625000D01*
X37595583Y-83625000D01*
X37575300Y-83419066D01*
X37515232Y-83221046D01*
X37417685Y-83038550D01*
X37352047Y-82958569D01*
X37286410Y-82878589D01*
X37136121Y-82755252D01*
X37126450Y-82747315D01*
X36943954Y-82649768D01*
X36844944Y-82619734D01*
X36745932Y-82589699D01*
X36540000Y-82569417D01*
X36334067Y-82589699D01*
X36136043Y-82649769D01*
X35953551Y-82747314D01*
X35793589Y-82878589D01*
X35662314Y-83038551D01*
X35564769Y-83221043D01*
X35504699Y-83419067D01*
X35484417Y-83625000D01*
X35050500Y-83625000D01*
X35050500Y-82755252D01*
X35038867Y-82696769D01*
X34994552Y-82630447D01*
X34928230Y-82586132D01*
X34869749Y-82574500D01*
X34869748Y-82574500D01*
X33130252Y-82574500D01*
X33130251Y-82574500D01*
X33071769Y-82586132D01*
X33005447Y-82630447D01*
X32961132Y-82696769D01*
X32949500Y-82755251D01*
X32949500Y-84494749D01*
X25000500Y-84494749D01*
X25000500Y-25124500D01*
X25017113Y-25062500D01*
X25062500Y-25017113D01*
X25124500Y-25000500D01*
X34561392Y-25000500D01*
X34626671Y-25019074D01*
G37*
%TD.AperFunction*%
%TA.AperFunction,Conductor*%
G36*
X73306265Y-50409939D02*
G01*
X73346493Y-50436819D01*
X73608126Y-50698452D01*
X73640729Y-50756003D01*
X73639106Y-50822128D01*
X73583975Y-51003869D01*
X73579051Y-51053869D01*
X73564659Y-51200000D01*
X73574317Y-51298066D01*
X73583976Y-51396133D01*
X73641185Y-51584726D01*
X73681676Y-51660478D01*
X73734090Y-51758538D01*
X73859117Y-51910883D01*
X74011462Y-52035910D01*
X74185273Y-52128814D01*
X74373868Y-52186024D01*
X74570000Y-52205341D01*
X74766132Y-52186024D01*
X74954727Y-52128814D01*
X75128538Y-52035910D01*
X75280883Y-51910883D01*
X75405910Y-51758538D01*
X75462609Y-51652460D01*
X75495437Y-51591046D01*
X75541046Y-51543142D01*
X75604795Y-51525500D01*
X76738856Y-51525500D01*
X76802605Y-51543142D01*
X76848214Y-51591046D01*
X76849767Y-51593952D01*
X76849768Y-51593954D01*
X76871562Y-51634727D01*
X76947315Y-51776450D01*
X77078589Y-51936410D01*
X77158570Y-52002047D01*
X77238550Y-52067685D01*
X77421046Y-52165232D01*
X77619066Y-52225300D01*
X77825000Y-52245583D01*
X78014390Y-52226929D01*
X78073994Y-52235771D01*
X78122395Y-52271667D01*
X78148159Y-52326140D01*
X78145203Y-52386326D01*
X78114224Y-52438012D01*
X78059057Y-52493180D01*
X78018828Y-52520061D01*
X77971375Y-52529500D01*
X77769496Y-52529500D01*
X77603462Y-52544884D01*
X77389473Y-52605769D01*
X77190311Y-52704941D01*
X77012762Y-52839019D01*
X76862875Y-53003437D01*
X76745754Y-53192595D01*
X76680936Y-53359910D01*
X76665382Y-53400060D01*
X76624500Y-53618757D01*
X76624500Y-53841243D01*
X76665382Y-54059940D01*
X76709851Y-54174727D01*
X76745754Y-54267404D01*
X76862875Y-54456562D01*
X77012762Y-54620980D01*
X77190311Y-54755058D01*
X77389473Y-54854230D01*
X77603462Y-54915115D01*
X77769496Y-54930500D01*
X77769497Y-54930500D01*
X78478456Y-54930500D01*
X78525909Y-54939939D01*
X78566137Y-54966819D01*
X82193181Y-58593863D01*
X82220061Y-58634091D01*
X82229500Y-58681544D01*
X82229500Y-66829667D01*
X82210262Y-66896007D01*
X82158517Y-66941762D01*
X82090321Y-66952734D01*
X82026835Y-66925520D01*
X81988538Y-66894090D01*
X81908411Y-66851261D01*
X81814726Y-66801185D01*
X81626133Y-66743976D01*
X81430000Y-66724659D01*
X81233866Y-66743976D01*
X81045273Y-66801185D01*
X80871463Y-66894089D01*
X80719117Y-67019117D01*
X80594089Y-67171463D01*
X80501185Y-67345273D01*
X80443976Y-67533866D01*
X80424659Y-67730000D01*
X80443976Y-67926133D01*
X80501185Y-68114726D01*
X80532865Y-68173994D01*
X80594090Y-68288538D01*
X80719117Y-68440883D01*
X80871462Y-68565910D01*
X81045273Y-68658814D01*
X81233868Y-68716024D01*
X81430000Y-68735341D01*
X81626132Y-68716024D01*
X81814727Y-68658814D01*
X81988538Y-68565910D01*
X82026835Y-68534479D01*
X82090321Y-68507266D01*
X82158517Y-68518238D01*
X82210262Y-68563993D01*
X82229500Y-68630333D01*
X82229500Y-74385630D01*
X82210262Y-74451970D01*
X82158517Y-74497725D01*
X82090321Y-74508697D01*
X82026835Y-74481483D01*
X82016171Y-74472731D01*
X81833764Y-74375233D01*
X81680000Y-74328590D01*
X81680000Y-75476000D01*
X81663387Y-75538000D01*
X81618000Y-75583387D01*
X81556000Y-75600000D01*
X80408590Y-75600000D01*
X80455233Y-75753764D01*
X80552731Y-75936171D01*
X80683945Y-76096054D01*
X80843828Y-76227268D01*
X81026235Y-76324766D01*
X81224165Y-76384808D01*
X81321253Y-76394370D01*
X81385388Y-76420018D01*
X81425851Y-76475998D01*
X81430087Y-76544941D01*
X81396781Y-76605454D01*
X78364056Y-79638181D01*
X78323828Y-79665061D01*
X78276375Y-79674500D01*
X62574000Y-79674500D01*
X62512000Y-79657887D01*
X62466613Y-79612500D01*
X62450000Y-79550500D01*
X62450000Y-79075000D01*
X60250000Y-79075000D01*
X60250000Y-79550500D01*
X60233387Y-79612500D01*
X60188000Y-79657887D01*
X60126000Y-79674500D01*
X59733982Y-79674500D01*
X59667642Y-79655262D01*
X59621887Y-79603517D01*
X59610914Y-79535322D01*
X59638128Y-79471836D01*
X59643873Y-79464834D01*
X59687685Y-79411450D01*
X59785232Y-79228954D01*
X59845300Y-79030934D01*
X59865583Y-78825000D01*
X59845300Y-78619066D01*
X59831933Y-78575000D01*
X60250000Y-78575000D01*
X61100000Y-78575000D01*
X61100000Y-77725000D01*
X61600000Y-77725000D01*
X61600000Y-78575000D01*
X62450000Y-78575000D01*
X62450000Y-77950375D01*
X62435495Y-77877456D01*
X62380239Y-77794760D01*
X62297543Y-77739504D01*
X62224625Y-77725000D01*
X61600000Y-77725000D01*
X61100000Y-77725000D01*
X60475375Y-77725000D01*
X60402456Y-77739504D01*
X60319760Y-77794760D01*
X60264504Y-77877456D01*
X60250000Y-77950375D01*
X60250000Y-78575000D01*
X59831933Y-78575000D01*
X59785232Y-78421046D01*
X59687685Y-78238550D01*
X59622047Y-78158570D01*
X59556410Y-78078589D01*
X59458952Y-77998609D01*
X59396450Y-77947315D01*
X59213954Y-77849768D01*
X59084553Y-77810515D01*
X59015932Y-77789699D01*
X58810000Y-77769417D01*
X58604067Y-77789699D01*
X58406043Y-77849769D01*
X58223551Y-77947314D01*
X58063589Y-78078589D01*
X57932314Y-78238551D01*
X57834769Y-78421043D01*
X57774699Y-78619067D01*
X57767043Y-78696807D01*
X57741395Y-78760942D01*
X57685414Y-78801404D01*
X57616471Y-78805640D01*
X57555959Y-78772334D01*
X57493721Y-78710096D01*
X57469154Y-78675107D01*
X57457931Y-78633855D01*
X57455115Y-78603462D01*
X57394230Y-78389473D01*
X57295058Y-78190311D01*
X57160980Y-78012762D01*
X56996562Y-77862875D01*
X56807404Y-77745754D01*
X56695703Y-77702481D01*
X56599940Y-77665382D01*
X56381243Y-77624500D01*
X56158757Y-77624500D01*
X55940059Y-77665382D01*
X55940060Y-77665382D01*
X55732595Y-77745754D01*
X55543437Y-77862875D01*
X55379019Y-78012762D01*
X55244941Y-78190311D01*
X55145769Y-78389473D01*
X55084884Y-78603462D01*
X55069500Y-78769496D01*
X55069500Y-79153543D01*
X55069368Y-79159269D01*
X55065644Y-79239821D01*
X55068311Y-79258939D01*
X55069500Y-79276069D01*
X55069500Y-79478456D01*
X55060061Y-79525909D01*
X55033181Y-79566137D01*
X54786137Y-79813181D01*
X54745909Y-79840061D01*
X54698456Y-79849500D01*
X54484113Y-79849500D01*
X54425660Y-79834858D01*
X54381011Y-79794390D01*
X54360710Y-79737654D01*
X54369552Y-79678047D01*
X54405449Y-79629646D01*
X54476410Y-79571410D01*
X54513751Y-79525909D01*
X54607685Y-79411450D01*
X54705232Y-79228954D01*
X54765300Y-79030934D01*
X54785583Y-78825000D01*
X54765300Y-78619066D01*
X54705232Y-78421046D01*
X54607685Y-78238550D01*
X54542047Y-78158570D01*
X54476410Y-78078589D01*
X54378952Y-77998609D01*
X54316450Y-77947315D01*
X54133954Y-77849768D01*
X54004553Y-77810515D01*
X53935932Y-77789699D01*
X53730000Y-77769417D01*
X53524067Y-77789699D01*
X53326043Y-77849769D01*
X53143551Y-77947314D01*
X52983589Y-78078589D01*
X52852314Y-78238551D01*
X52754769Y-78421043D01*
X52694699Y-78619067D01*
X52674417Y-78825000D01*
X52694699Y-79030932D01*
X52694700Y-79030934D01*
X52732763Y-79156414D01*
X52754769Y-79228956D01*
X52760577Y-79239821D01*
X52852315Y-79411450D01*
X52901872Y-79471836D01*
X52983589Y-79571410D01*
X53054551Y-79629646D01*
X53090448Y-79678047D01*
X53099290Y-79737654D01*
X53078989Y-79794390D01*
X53034340Y-79834858D01*
X52975887Y-79849500D01*
X51944113Y-79849500D01*
X51885660Y-79834858D01*
X51841011Y-79794390D01*
X51820710Y-79737654D01*
X51829552Y-79678047D01*
X51865449Y-79629646D01*
X51936410Y-79571410D01*
X51973751Y-79525909D01*
X52067685Y-79411450D01*
X52165232Y-79228954D01*
X52225300Y-79030934D01*
X52245583Y-78825000D01*
X52225300Y-78619066D01*
X52165232Y-78421046D01*
X52067685Y-78238550D01*
X52002047Y-78158570D01*
X51936410Y-78078589D01*
X51838952Y-77998609D01*
X51776450Y-77947315D01*
X51593954Y-77849768D01*
X51464553Y-77810515D01*
X51395932Y-77789699D01*
X51190000Y-77769417D01*
X50984067Y-77789699D01*
X50786043Y-77849769D01*
X50603551Y-77947314D01*
X50443589Y-78078589D01*
X50312314Y-78238551D01*
X50214769Y-78421043D01*
X50154699Y-78619067D01*
X50134417Y-78825000D01*
X50154699Y-79030932D01*
X50154700Y-79030934D01*
X50192763Y-79156414D01*
X50214769Y-79228956D01*
X50220577Y-79239821D01*
X50312315Y-79411450D01*
X50361872Y-79471836D01*
X50443589Y-79571410D01*
X50514551Y-79629646D01*
X50550448Y-79678047D01*
X50559290Y-79737654D01*
X50538989Y-79794390D01*
X50494340Y-79834858D01*
X50435887Y-79849500D01*
X49404113Y-79849500D01*
X49345660Y-79834858D01*
X49301011Y-79794390D01*
X49280710Y-79737654D01*
X49289552Y-79678047D01*
X49325449Y-79629646D01*
X49396410Y-79571410D01*
X49433751Y-79525909D01*
X49527685Y-79411450D01*
X49625232Y-79228954D01*
X49685300Y-79030934D01*
X49705583Y-78825000D01*
X49685300Y-78619066D01*
X49625232Y-78421046D01*
X49527685Y-78238550D01*
X49462047Y-78158570D01*
X49396410Y-78078589D01*
X49298952Y-77998609D01*
X49236450Y-77947315D01*
X49053954Y-77849768D01*
X48924553Y-77810515D01*
X48855932Y-77789699D01*
X48650000Y-77769417D01*
X48444067Y-77789699D01*
X48246043Y-77849769D01*
X48063551Y-77947314D01*
X47903589Y-78078589D01*
X47772314Y-78238551D01*
X47674769Y-78421043D01*
X47614699Y-78619067D01*
X47594417Y-78825000D01*
X47614699Y-79030932D01*
X47614700Y-79030934D01*
X47652763Y-79156414D01*
X47674769Y-79228956D01*
X47680577Y-79239821D01*
X47772315Y-79411450D01*
X47821872Y-79471836D01*
X47903589Y-79571410D01*
X47974551Y-79629646D01*
X48010448Y-79678047D01*
X48019290Y-79737654D01*
X47998989Y-79794390D01*
X47954340Y-79834858D01*
X47895887Y-79849500D01*
X30898625Y-79849500D01*
X30851172Y-79840061D01*
X30810944Y-79813181D01*
X27886819Y-76889056D01*
X27859939Y-76848828D01*
X27850500Y-76801375D01*
X27850500Y-76474500D01*
X27867113Y-76412500D01*
X27912500Y-76367113D01*
X27974500Y-76350500D01*
X29469749Y-76350500D01*
X29498989Y-76344683D01*
X29528231Y-76338867D01*
X29594552Y-76294552D01*
X29638867Y-76228231D01*
X29650500Y-76169748D01*
X29650500Y-75350000D01*
X30184659Y-75350000D01*
X30203976Y-75546133D01*
X30261185Y-75734726D01*
X30310604Y-75827181D01*
X30354090Y-75908538D01*
X30479117Y-76060883D01*
X30631462Y-76185910D01*
X30805273Y-76278814D01*
X30993868Y-76336024D01*
X31190000Y-76355341D01*
X31386132Y-76336024D01*
X31574727Y-76278814D01*
X31748538Y-76185910D01*
X31900883Y-76060883D01*
X32025910Y-75908538D01*
X32118814Y-75734727D01*
X32176024Y-75546132D01*
X32195341Y-75350000D01*
X32724659Y-75350000D01*
X32743976Y-75546133D01*
X32801185Y-75734726D01*
X32850604Y-75827181D01*
X32894090Y-75908538D01*
X33019117Y-76060883D01*
X33171462Y-76185910D01*
X33345273Y-76278814D01*
X33533868Y-76336024D01*
X33730000Y-76355341D01*
X33926132Y-76336024D01*
X34107870Y-76280893D01*
X34173995Y-76279270D01*
X34231547Y-76311873D01*
X34630950Y-76711276D01*
X34638258Y-76719250D01*
X34662545Y-76748194D01*
X34686594Y-76762079D01*
X34695256Y-76767080D01*
X34704379Y-76772892D01*
X34736201Y-76795174D01*
X34760891Y-76805400D01*
X34761953Y-76805587D01*
X34761955Y-76805588D01*
X34799161Y-76812147D01*
X34809676Y-76814478D01*
X34846194Y-76824264D01*
X34883824Y-76820971D01*
X34894631Y-76820500D01*
X59316364Y-76820500D01*
X59327171Y-76820971D01*
X59364798Y-76824264D01*
X59401315Y-76814478D01*
X59411821Y-76812149D01*
X59449036Y-76805588D01*
X59449038Y-76805586D01*
X59450103Y-76805399D01*
X59474790Y-76795173D01*
X59475673Y-76794554D01*
X59475675Y-76794554D01*
X59506616Y-76772887D01*
X59515713Y-76767091D01*
X59548446Y-76748194D01*
X59572739Y-76719241D01*
X59580026Y-76711289D01*
X60121567Y-76169749D01*
X62649500Y-76169749D01*
X62661132Y-76228230D01*
X62705447Y-76294552D01*
X62771769Y-76338867D01*
X62830251Y-76350500D01*
X62830252Y-76350500D01*
X64469748Y-76350500D01*
X64469749Y-76350500D01*
X64498989Y-76344683D01*
X64528231Y-76338867D01*
X64594552Y-76294552D01*
X64638867Y-76228231D01*
X64650500Y-76169748D01*
X64650500Y-75350000D01*
X65184659Y-75350000D01*
X65203976Y-75546133D01*
X65261185Y-75734726D01*
X65310604Y-75827181D01*
X65354090Y-75908538D01*
X65479117Y-76060883D01*
X65631462Y-76185910D01*
X65805273Y-76278814D01*
X65993868Y-76336024D01*
X66190000Y-76355341D01*
X66386132Y-76336024D01*
X66574727Y-76278814D01*
X66748538Y-76185910D01*
X66900883Y-76060883D01*
X67025910Y-75908538D01*
X67118814Y-75734727D01*
X67176024Y-75546132D01*
X67195341Y-75350000D01*
X67724659Y-75350000D01*
X67743976Y-75546133D01*
X67801185Y-75734726D01*
X67850604Y-75827181D01*
X67894090Y-75908538D01*
X68019117Y-76060883D01*
X68171462Y-76185910D01*
X68345273Y-76278814D01*
X68533868Y-76336024D01*
X68730000Y-76355341D01*
X68926132Y-76336024D01*
X69114727Y-76278814D01*
X69288538Y-76185910D01*
X69440883Y-76060883D01*
X69565910Y-75908538D01*
X69658814Y-75734727D01*
X69716024Y-75546132D01*
X69735341Y-75350000D01*
X70264659Y-75350000D01*
X70283976Y-75546133D01*
X70341185Y-75734726D01*
X70390604Y-75827181D01*
X70434090Y-75908538D01*
X70559117Y-76060883D01*
X70711462Y-76185910D01*
X70885273Y-76278814D01*
X71073868Y-76336024D01*
X71270000Y-76355341D01*
X71466132Y-76336024D01*
X71654727Y-76278814D01*
X71828538Y-76185910D01*
X71980883Y-76060883D01*
X72105910Y-75908538D01*
X72198814Y-75734727D01*
X72256024Y-75546132D01*
X72275341Y-75350000D01*
X72804659Y-75350000D01*
X72823976Y-75546133D01*
X72881185Y-75734726D01*
X72930604Y-75827181D01*
X72974090Y-75908538D01*
X73099117Y-76060883D01*
X73251462Y-76185910D01*
X73425273Y-76278814D01*
X73613868Y-76336024D01*
X73810000Y-76355341D01*
X74006132Y-76336024D01*
X74194727Y-76278814D01*
X74368538Y-76185910D01*
X74520883Y-76060883D01*
X74645910Y-75908538D01*
X74738814Y-75734727D01*
X74796024Y-75546132D01*
X74815341Y-75350000D01*
X74815341Y-75349999D01*
X75344659Y-75349999D01*
X75363976Y-75546133D01*
X75421185Y-75734726D01*
X75470604Y-75827181D01*
X75514090Y-75908538D01*
X75639117Y-76060883D01*
X75791462Y-76185910D01*
X75965273Y-76278814D01*
X76153868Y-76336024D01*
X76350000Y-76355341D01*
X76546132Y-76336024D01*
X76734727Y-76278814D01*
X76908538Y-76185910D01*
X77060883Y-76060883D01*
X77185910Y-75908538D01*
X77278814Y-75734727D01*
X77336024Y-75546132D01*
X77355341Y-75350000D01*
X77355341Y-75349999D01*
X77884659Y-75349999D01*
X77903976Y-75546133D01*
X77961185Y-75734726D01*
X78010604Y-75827181D01*
X78054090Y-75908538D01*
X78179117Y-76060883D01*
X78331462Y-76185910D01*
X78505273Y-76278814D01*
X78693868Y-76336024D01*
X78890000Y-76355341D01*
X79086132Y-76336024D01*
X79274727Y-76278814D01*
X79448538Y-76185910D01*
X79600883Y-76060883D01*
X79725910Y-75908538D01*
X79818814Y-75734727D01*
X79876024Y-75546132D01*
X79895341Y-75350000D01*
X79876024Y-75153868D01*
X79859683Y-75100000D01*
X80408590Y-75100000D01*
X81180000Y-75100000D01*
X81180000Y-74328590D01*
X81026235Y-74375233D01*
X80843828Y-74472731D01*
X80683945Y-74603945D01*
X80552731Y-74763828D01*
X80455233Y-74946235D01*
X80408590Y-75100000D01*
X79859683Y-75100000D01*
X79818814Y-74965273D01*
X79725910Y-74791462D01*
X79600883Y-74639117D01*
X79448538Y-74514090D01*
X79366729Y-74470362D01*
X79274726Y-74421185D01*
X79086133Y-74363976D01*
X78890000Y-74344659D01*
X78693866Y-74363976D01*
X78505273Y-74421185D01*
X78331463Y-74514089D01*
X78179117Y-74639117D01*
X78054089Y-74791463D01*
X77961185Y-74965273D01*
X77903976Y-75153866D01*
X77884659Y-75349999D01*
X77355341Y-75349999D01*
X77336024Y-75153868D01*
X77278814Y-74965273D01*
X77185910Y-74791462D01*
X77060883Y-74639117D01*
X76908538Y-74514090D01*
X76826729Y-74470362D01*
X76734726Y-74421185D01*
X76546133Y-74363976D01*
X76350000Y-74344659D01*
X76153866Y-74363976D01*
X75965273Y-74421185D01*
X75791463Y-74514089D01*
X75639117Y-74639117D01*
X75514089Y-74791463D01*
X75421185Y-74965273D01*
X75363976Y-75153866D01*
X75344659Y-75349999D01*
X74815341Y-75349999D01*
X74796024Y-75153868D01*
X74738814Y-74965273D01*
X74645910Y-74791462D01*
X74520883Y-74639117D01*
X74368538Y-74514090D01*
X74286729Y-74470362D01*
X74194726Y-74421185D01*
X74006133Y-74363976D01*
X73810000Y-74344659D01*
X73613866Y-74363976D01*
X73425273Y-74421185D01*
X73251463Y-74514089D01*
X73099117Y-74639117D01*
X72974089Y-74791463D01*
X72881185Y-74965273D01*
X72823976Y-75153866D01*
X72804659Y-75350000D01*
X72275341Y-75350000D01*
X72256024Y-75153868D01*
X72198814Y-74965273D01*
X72105910Y-74791462D01*
X71980883Y-74639117D01*
X71828538Y-74514090D01*
X71746729Y-74470362D01*
X71654726Y-74421185D01*
X71466133Y-74363976D01*
X71270000Y-74344659D01*
X71073866Y-74363976D01*
X70885273Y-74421185D01*
X70711463Y-74514089D01*
X70559117Y-74639117D01*
X70434089Y-74791463D01*
X70341185Y-74965273D01*
X70283976Y-75153866D01*
X70264659Y-75350000D01*
X69735341Y-75350000D01*
X69716024Y-75153868D01*
X69658814Y-74965273D01*
X69565910Y-74791462D01*
X69440883Y-74639117D01*
X69288538Y-74514090D01*
X69206729Y-74470362D01*
X69114726Y-74421185D01*
X68926133Y-74363976D01*
X68730000Y-74344659D01*
X68533866Y-74363976D01*
X68345273Y-74421185D01*
X68171463Y-74514089D01*
X68019117Y-74639117D01*
X67894089Y-74791463D01*
X67801185Y-74965273D01*
X67743976Y-75153866D01*
X67724659Y-75350000D01*
X67195341Y-75350000D01*
X67176024Y-75153868D01*
X67118814Y-74965273D01*
X67025910Y-74791462D01*
X66900883Y-74639117D01*
X66748538Y-74514090D01*
X66666729Y-74470362D01*
X66574726Y-74421185D01*
X66386133Y-74363976D01*
X66190000Y-74344659D01*
X65993866Y-74363976D01*
X65805273Y-74421185D01*
X65631463Y-74514089D01*
X65479117Y-74639117D01*
X65354089Y-74791463D01*
X65261185Y-74965273D01*
X65203976Y-75153866D01*
X65184659Y-75350000D01*
X64650500Y-75350000D01*
X64650500Y-74530252D01*
X64646212Y-74508697D01*
X64638867Y-74471769D01*
X64594552Y-74405447D01*
X64528230Y-74361132D01*
X64469749Y-74349500D01*
X64469748Y-74349500D01*
X62830252Y-74349500D01*
X62830251Y-74349500D01*
X62771769Y-74361132D01*
X62705447Y-74405447D01*
X62661132Y-74471769D01*
X62649500Y-74530251D01*
X62649500Y-76169749D01*
X60121567Y-76169749D01*
X60211296Y-76080020D01*
X60219250Y-76072731D01*
X60248194Y-76048446D01*
X60267102Y-76015694D01*
X60272878Y-76006629D01*
X60294553Y-75975675D01*
X60294553Y-75975672D01*
X60295171Y-75974791D01*
X60305400Y-75950096D01*
X60305586Y-75949038D01*
X60305588Y-75949036D01*
X60312150Y-75911815D01*
X60314480Y-75901303D01*
X60324263Y-75864798D01*
X60320971Y-75827179D01*
X60320500Y-75816373D01*
X60320500Y-73974619D01*
X60320972Y-73963812D01*
X60324263Y-73926191D01*
X60314486Y-73889704D01*
X60312144Y-73879140D01*
X60305400Y-73840891D01*
X60295173Y-73816201D01*
X60294554Y-73815317D01*
X60294554Y-73815316D01*
X60272878Y-73784360D01*
X60267085Y-73775266D01*
X60248194Y-73742545D01*
X60219261Y-73718267D01*
X60211286Y-73710959D01*
X59831873Y-73331547D01*
X59799270Y-73273995D01*
X59800894Y-73207870D01*
X59856024Y-73026132D01*
X59875341Y-72830000D01*
X59856024Y-72633868D01*
X59798814Y-72445273D01*
X59705910Y-72271462D01*
X59580883Y-72119117D01*
X59428538Y-71994090D01*
X59309774Y-71930609D01*
X59254726Y-71901185D01*
X59066133Y-71843976D01*
X58870000Y-71824659D01*
X58673866Y-71843976D01*
X58485273Y-71901185D01*
X58311463Y-71994089D01*
X58159117Y-72119117D01*
X58034089Y-72271463D01*
X57941185Y-72445273D01*
X57883976Y-72633866D01*
X57864659Y-72829999D01*
X57883976Y-73026133D01*
X57941185Y-73214726D01*
X57972865Y-73273995D01*
X58034090Y-73388538D01*
X58159117Y-73540883D01*
X58311462Y-73665910D01*
X58485273Y-73758814D01*
X58673868Y-73816024D01*
X58870000Y-73835341D01*
X59066132Y-73816024D01*
X59247870Y-73760893D01*
X59313995Y-73759270D01*
X59371547Y-73791873D01*
X59633181Y-74053508D01*
X59660061Y-74093736D01*
X59669500Y-74141189D01*
X59669500Y-74469667D01*
X59650262Y-74536007D01*
X59598517Y-74581762D01*
X59530321Y-74592734D01*
X59466835Y-74565520D01*
X59428538Y-74534090D01*
X59351161Y-74492731D01*
X59254726Y-74441185D01*
X59066133Y-74383976D01*
X58870000Y-74364659D01*
X58673869Y-74383975D01*
X58492128Y-74439106D01*
X58426003Y-74440729D01*
X58368452Y-74408126D01*
X55294043Y-71333717D01*
X55286734Y-71325741D01*
X55262454Y-71296805D01*
X55229736Y-71277915D01*
X55220627Y-71272112D01*
X55189684Y-71250446D01*
X55188803Y-71249829D01*
X55164107Y-71239599D01*
X55125852Y-71232853D01*
X55115296Y-71230512D01*
X55078807Y-71220735D01*
X55041180Y-71224028D01*
X55030372Y-71224500D01*
X52034961Y-71224500D01*
X51976508Y-71209858D01*
X51931859Y-71169391D01*
X51911558Y-71112655D01*
X51920399Y-71053049D01*
X51956295Y-71004648D01*
X51960883Y-71000883D01*
X52085910Y-70848538D01*
X52178814Y-70674727D01*
X52236024Y-70486132D01*
X52255341Y-70290000D01*
X52236024Y-70093868D01*
X52180892Y-69912126D01*
X52179270Y-69846004D01*
X52211873Y-69788452D01*
X52588507Y-69411819D01*
X52628735Y-69384939D01*
X52676188Y-69375500D01*
X58064046Y-69375500D01*
X58130386Y-69394738D01*
X58176141Y-69446483D01*
X58187113Y-69514679D01*
X58159899Y-69578165D01*
X58159119Y-69579115D01*
X58159117Y-69579117D01*
X58084195Y-69670409D01*
X58034089Y-69731463D01*
X57941185Y-69905273D01*
X57883976Y-70093866D01*
X57864659Y-70289999D01*
X57883976Y-70486133D01*
X57941185Y-70674726D01*
X58022091Y-70826091D01*
X58034090Y-70848538D01*
X58159117Y-71000883D01*
X58311462Y-71125910D01*
X58485273Y-71218814D01*
X58673868Y-71276024D01*
X58870000Y-71295341D01*
X59066132Y-71276024D01*
X59254727Y-71218814D01*
X59428538Y-71125910D01*
X59580883Y-71000883D01*
X59705910Y-70848538D01*
X59762609Y-70742460D01*
X59795437Y-70681046D01*
X59841046Y-70633142D01*
X59904795Y-70615500D01*
X68690373Y-70615500D01*
X68701180Y-70615971D01*
X68738807Y-70619264D01*
X68775324Y-70609478D01*
X68785830Y-70607149D01*
X68823045Y-70600588D01*
X68823047Y-70600586D01*
X68824112Y-70600399D01*
X68848799Y-70590173D01*
X68849682Y-70589554D01*
X68849684Y-70589554D01*
X68880625Y-70567887D01*
X68889722Y-70562091D01*
X68922455Y-70543194D01*
X68946748Y-70514241D01*
X68954036Y-70506288D01*
X70768453Y-68691871D01*
X70826003Y-68659270D01*
X70892126Y-68660892D01*
X71073868Y-68716024D01*
X71270000Y-68735341D01*
X71466132Y-68716024D01*
X71654727Y-68658814D01*
X71828538Y-68565910D01*
X71980883Y-68440883D01*
X72105910Y-68288538D01*
X72198814Y-68114727D01*
X72239683Y-67980000D01*
X72788590Y-67980000D01*
X72835233Y-68133764D01*
X72932731Y-68316171D01*
X73063945Y-68476054D01*
X73223828Y-68607268D01*
X73406235Y-68704766D01*
X73560000Y-68751410D01*
X73560000Y-67980000D01*
X74060000Y-67980000D01*
X74060000Y-68751410D01*
X74213764Y-68704766D01*
X74396171Y-68607268D01*
X74556054Y-68476054D01*
X74687268Y-68316171D01*
X74784766Y-68133764D01*
X74831410Y-67980000D01*
X74060000Y-67980000D01*
X73560000Y-67980000D01*
X72788590Y-67980000D01*
X72239683Y-67980000D01*
X72256024Y-67926132D01*
X72275341Y-67730000D01*
X75344659Y-67730000D01*
X75363976Y-67926133D01*
X75421185Y-68114726D01*
X75452865Y-68173994D01*
X75514090Y-68288538D01*
X75639117Y-68440883D01*
X75791462Y-68565910D01*
X75965273Y-68658814D01*
X76153868Y-68716024D01*
X76350000Y-68735341D01*
X76546132Y-68716024D01*
X76734727Y-68658814D01*
X76908538Y-68565910D01*
X77060883Y-68440883D01*
X77185910Y-68288538D01*
X77278814Y-68114727D01*
X77336024Y-67926132D01*
X77355341Y-67730000D01*
X77336024Y-67533868D01*
X77278814Y-67345273D01*
X77185910Y-67171462D01*
X77060883Y-67019117D01*
X76908538Y-66894090D01*
X76828411Y-66851261D01*
X76734726Y-66801185D01*
X76546133Y-66743976D01*
X76350000Y-66724659D01*
X76153866Y-66743976D01*
X75965273Y-66801185D01*
X75791463Y-66894089D01*
X75639117Y-67019117D01*
X75514089Y-67171463D01*
X75421185Y-67345273D01*
X75363976Y-67533866D01*
X75344659Y-67730000D01*
X72275341Y-67730000D01*
X72256024Y-67533868D01*
X72239683Y-67480000D01*
X72788590Y-67480000D01*
X73560000Y-67480000D01*
X73560000Y-66708590D01*
X74060000Y-66708590D01*
X74060000Y-67480000D01*
X74831410Y-67480000D01*
X74784766Y-67326235D01*
X74687268Y-67143828D01*
X74556054Y-66983945D01*
X74396171Y-66852731D01*
X74213764Y-66755233D01*
X74060000Y-66708590D01*
X73560000Y-66708590D01*
X73406235Y-66755233D01*
X73223828Y-66852731D01*
X73063945Y-66983945D01*
X72932731Y-67143828D01*
X72835233Y-67326235D01*
X72788590Y-67480000D01*
X72239683Y-67480000D01*
X72198814Y-67345273D01*
X72105910Y-67171462D01*
X71980883Y-67019117D01*
X71828538Y-66894090D01*
X71748411Y-66851261D01*
X71654726Y-66801185D01*
X71466133Y-66743976D01*
X71270000Y-66724659D01*
X71073866Y-66743976D01*
X70885273Y-66801185D01*
X70711463Y-66894089D01*
X70559117Y-67019117D01*
X70434089Y-67171463D01*
X70341185Y-67345273D01*
X70283976Y-67533866D01*
X70264659Y-67730000D01*
X70283975Y-67926130D01*
X70339106Y-68107870D01*
X70340729Y-68173994D01*
X70308126Y-68231546D01*
X68611493Y-69928181D01*
X68571265Y-69955061D01*
X68523812Y-69964500D01*
X59904795Y-69964500D01*
X59841047Y-69946859D01*
X59795437Y-69898954D01*
X59758710Y-69830244D01*
X59744072Y-69772805D01*
X59757768Y-69715134D01*
X59796668Y-69670409D01*
X59851881Y-69648851D01*
X59956762Y-69635044D01*
X60102841Y-69574536D01*
X60228282Y-69478282D01*
X60324536Y-69352841D01*
X60385044Y-69206762D01*
X60405682Y-69050000D01*
X60385044Y-68893238D01*
X60324536Y-68747159D01*
X60304260Y-68720735D01*
X60228282Y-68621717D01*
X60102840Y-68525463D01*
X59956762Y-68464956D01*
X59821920Y-68447203D01*
X59766705Y-68425644D01*
X59727806Y-68380919D01*
X59714110Y-68323249D01*
X59728747Y-68265812D01*
X59777825Y-68173995D01*
X59795437Y-68141046D01*
X59841047Y-68093141D01*
X59904795Y-68075500D01*
X62625896Y-68075500D01*
X62689645Y-68093142D01*
X62735254Y-68141047D01*
X62814090Y-68288538D01*
X62939117Y-68440883D01*
X63091462Y-68565910D01*
X63265273Y-68658814D01*
X63453868Y-68716024D01*
X63650000Y-68735341D01*
X63846132Y-68716024D01*
X64034727Y-68658814D01*
X64208538Y-68565910D01*
X64360883Y-68440883D01*
X64485910Y-68288538D01*
X64578814Y-68114727D01*
X64636024Y-67926132D01*
X64655341Y-67730000D01*
X65184659Y-67730000D01*
X65203976Y-67926133D01*
X65261185Y-68114726D01*
X65292865Y-68173994D01*
X65354090Y-68288538D01*
X65479117Y-68440883D01*
X65631462Y-68565910D01*
X65805273Y-68658814D01*
X65993868Y-68716024D01*
X66190000Y-68735341D01*
X66386132Y-68716024D01*
X66574727Y-68658814D01*
X66748538Y-68565910D01*
X66900883Y-68440883D01*
X67025910Y-68288538D01*
X67118814Y-68114727D01*
X67176024Y-67926132D01*
X67195341Y-67730000D01*
X67724659Y-67730000D01*
X67743976Y-67926133D01*
X67801185Y-68114726D01*
X67832865Y-68173994D01*
X67894090Y-68288538D01*
X68019117Y-68440883D01*
X68171462Y-68565910D01*
X68345273Y-68658814D01*
X68533868Y-68716024D01*
X68730000Y-68735341D01*
X68926132Y-68716024D01*
X69114727Y-68658814D01*
X69288538Y-68565910D01*
X69440883Y-68440883D01*
X69565910Y-68288538D01*
X69658814Y-68114727D01*
X69716024Y-67926132D01*
X69735341Y-67730000D01*
X69716024Y-67533868D01*
X69658814Y-67345273D01*
X69565910Y-67171462D01*
X69440883Y-67019117D01*
X69288538Y-66894090D01*
X69208411Y-66851261D01*
X69114726Y-66801185D01*
X68926133Y-66743976D01*
X68730000Y-66724659D01*
X68533866Y-66743976D01*
X68345273Y-66801185D01*
X68171463Y-66894089D01*
X68019117Y-67019117D01*
X67894089Y-67171463D01*
X67801185Y-67345273D01*
X67743976Y-67533866D01*
X67724659Y-67730000D01*
X67195341Y-67730000D01*
X67176024Y-67533868D01*
X67118814Y-67345273D01*
X67025910Y-67171462D01*
X66900883Y-67019117D01*
X66748538Y-66894090D01*
X66668411Y-66851261D01*
X66574726Y-66801185D01*
X66386133Y-66743976D01*
X66190000Y-66724659D01*
X65993866Y-66743976D01*
X65805273Y-66801185D01*
X65631463Y-66894089D01*
X65479117Y-67019117D01*
X65354089Y-67171463D01*
X65261185Y-67345273D01*
X65203976Y-67533866D01*
X65184659Y-67730000D01*
X64655341Y-67730000D01*
X64636024Y-67533868D01*
X64578814Y-67345273D01*
X64485910Y-67171462D01*
X64360883Y-67019117D01*
X64208538Y-66894090D01*
X64128411Y-66851261D01*
X64034726Y-66801185D01*
X63846133Y-66743976D01*
X63650000Y-66724659D01*
X63453866Y-66743976D01*
X63265273Y-66801185D01*
X63091463Y-66894089D01*
X62939117Y-67019117D01*
X62814089Y-67171463D01*
X62715429Y-67356044D01*
X62713544Y-67355036D01*
X62698425Y-67382250D01*
X62656370Y-67413445D01*
X62605189Y-67424500D01*
X59904795Y-67424500D01*
X59841046Y-67406858D01*
X59795437Y-67358954D01*
X59725682Y-67228453D01*
X59705910Y-67191462D01*
X59580883Y-67039117D01*
X59428538Y-66914090D01*
X59349361Y-66871769D01*
X59254726Y-66821185D01*
X59066133Y-66763976D01*
X58870000Y-66744659D01*
X58673866Y-66763976D01*
X58485273Y-66821185D01*
X58311463Y-66914089D01*
X58159117Y-67039117D01*
X58034089Y-67191463D01*
X57941185Y-67365273D01*
X57883976Y-67553866D01*
X57864659Y-67749999D01*
X57883976Y-67946133D01*
X57941185Y-68134726D01*
X58011251Y-68265810D01*
X58034090Y-68308538D01*
X58159117Y-68460883D01*
X58212445Y-68504648D01*
X58248340Y-68553048D01*
X58257182Y-68612654D01*
X58236881Y-68669391D01*
X58192232Y-68709858D01*
X58133779Y-68724500D01*
X52509628Y-68724500D01*
X52498820Y-68724028D01*
X52461192Y-68720735D01*
X52424704Y-68730512D01*
X52414145Y-68732853D01*
X52389442Y-68737209D01*
X52329977Y-68733149D01*
X52279276Y-68701812D01*
X52249053Y-68650439D01*
X52246292Y-68590902D01*
X52250500Y-68569748D01*
X52250500Y-66930252D01*
X52238867Y-66871769D01*
X52225164Y-66851261D01*
X52194552Y-66805447D01*
X52128230Y-66761132D01*
X52069749Y-66749500D01*
X52069748Y-66749500D01*
X50430252Y-66749500D01*
X50430251Y-66749500D01*
X50371769Y-66761132D01*
X50305447Y-66805447D01*
X50261132Y-66871769D01*
X50249500Y-66930251D01*
X50249500Y-68238812D01*
X50240061Y-68286265D01*
X50213181Y-68326493D01*
X50046493Y-68493181D01*
X50006265Y-68520061D01*
X49958812Y-68529500D01*
X47330333Y-68529500D01*
X47263993Y-68510262D01*
X47218238Y-68458517D01*
X47207266Y-68390321D01*
X47234480Y-68326835D01*
X47237423Y-68323249D01*
X47265910Y-68288538D01*
X47358814Y-68114727D01*
X47416024Y-67926132D01*
X47435341Y-67730000D01*
X47416024Y-67533868D01*
X47358814Y-67345273D01*
X47265910Y-67171462D01*
X47140883Y-67019117D01*
X46988538Y-66894090D01*
X46908411Y-66851261D01*
X46814726Y-66801185D01*
X46626133Y-66743976D01*
X46430000Y-66724659D01*
X46233866Y-66743976D01*
X46045273Y-66801185D01*
X45871463Y-66894089D01*
X45719117Y-67019117D01*
X45594089Y-67171463D01*
X45501185Y-67345273D01*
X45443976Y-67533866D01*
X45424659Y-67730000D01*
X45443976Y-67926133D01*
X45501185Y-68114726D01*
X45532865Y-68173994D01*
X45594090Y-68288538D01*
X45595433Y-68290174D01*
X45625520Y-68326835D01*
X45652734Y-68390321D01*
X45641762Y-68458517D01*
X45596007Y-68510262D01*
X45529667Y-68529500D01*
X44790333Y-68529500D01*
X44723993Y-68510262D01*
X44678238Y-68458517D01*
X44667266Y-68390321D01*
X44694480Y-68326835D01*
X44697423Y-68323249D01*
X44725910Y-68288538D01*
X44818814Y-68114727D01*
X44876024Y-67926132D01*
X44895341Y-67730000D01*
X44876024Y-67533868D01*
X44820892Y-67352126D01*
X44819270Y-67286004D01*
X44851873Y-67228452D01*
X45096381Y-66983945D01*
X45918509Y-66161818D01*
X45958736Y-66134939D01*
X46006189Y-66125500D01*
X69088507Y-66125500D01*
X69135960Y-66134939D01*
X69176188Y-66161819D01*
X69255645Y-66241276D01*
X69262953Y-66249250D01*
X69287240Y-66278194D01*
X69311289Y-66292079D01*
X69319951Y-66297080D01*
X69329074Y-66302892D01*
X69360011Y-66324554D01*
X69360012Y-66324554D01*
X69360893Y-66325171D01*
X69385586Y-66335400D01*
X69386649Y-66335587D01*
X69386650Y-66335588D01*
X69423838Y-66342145D01*
X69434401Y-66344487D01*
X69470887Y-66354264D01*
X69470887Y-66354263D01*
X69470888Y-66354264D01*
X69508514Y-66350971D01*
X69519322Y-66350500D01*
X70080678Y-66350500D01*
X70091485Y-66350971D01*
X70129112Y-66354264D01*
X70165629Y-66344478D01*
X70176135Y-66342149D01*
X70213350Y-66335588D01*
X70213352Y-66335586D01*
X70214417Y-66335399D01*
X70239104Y-66325173D01*
X70239987Y-66324554D01*
X70239989Y-66324554D01*
X70270930Y-66302887D01*
X70280027Y-66297091D01*
X70312760Y-66278194D01*
X70337048Y-66249247D01*
X70344347Y-66241283D01*
X70423814Y-66161818D01*
X70464042Y-66134939D01*
X70511494Y-66125500D01*
X76773812Y-66125500D01*
X76821265Y-66134939D01*
X76861493Y-66161819D01*
X77928126Y-67228453D01*
X77960729Y-67286004D01*
X77959106Y-67352129D01*
X77903975Y-67533869D01*
X77884659Y-67730000D01*
X77903976Y-67926133D01*
X77961185Y-68114726D01*
X77992865Y-68173994D01*
X78054090Y-68288538D01*
X78179117Y-68440883D01*
X78331462Y-68565910D01*
X78505273Y-68658814D01*
X78693868Y-68716024D01*
X78890000Y-68735341D01*
X79086132Y-68716024D01*
X79274727Y-68658814D01*
X79448538Y-68565910D01*
X79600883Y-68440883D01*
X79725910Y-68288538D01*
X79818814Y-68114727D01*
X79876024Y-67926132D01*
X79895341Y-67730000D01*
X79876024Y-67533868D01*
X79818814Y-67345273D01*
X79725910Y-67171462D01*
X79600883Y-67019117D01*
X79448538Y-66894090D01*
X79368411Y-66851261D01*
X79274726Y-66801185D01*
X79086133Y-66743976D01*
X78890000Y-66724659D01*
X78693869Y-66743975D01*
X78512129Y-66799106D01*
X78446004Y-66800729D01*
X78388453Y-66768126D01*
X77204043Y-65583717D01*
X77196734Y-65575741D01*
X77172454Y-65546805D01*
X77139736Y-65527915D01*
X77130627Y-65522112D01*
X77099684Y-65500446D01*
X77098803Y-65499829D01*
X77074107Y-65489599D01*
X77035852Y-65482853D01*
X77025296Y-65480512D01*
X76988807Y-65470735D01*
X76951180Y-65474028D01*
X76940372Y-65474500D01*
X70524103Y-65474500D01*
X70457477Y-65455080D01*
X70411720Y-65402904D01*
X70401164Y-65334315D01*
X70405682Y-65300000D01*
X70385044Y-65143238D01*
X70324536Y-64997159D01*
X70324170Y-64996682D01*
X70228282Y-64871717D01*
X70102840Y-64775463D01*
X69956762Y-64714956D01*
X69799999Y-64694317D01*
X69643237Y-64714956D01*
X69497159Y-64775463D01*
X69371718Y-64871717D01*
X69330077Y-64925986D01*
X69286545Y-64961712D01*
X69231701Y-64974500D01*
X41319628Y-64974500D01*
X41308820Y-64974028D01*
X41271192Y-64970735D01*
X41234704Y-64980512D01*
X41224148Y-64982852D01*
X41185899Y-64989597D01*
X41161193Y-64999831D01*
X41129380Y-65022106D01*
X41120264Y-65027914D01*
X41087545Y-65046805D01*
X41063262Y-65075744D01*
X41055956Y-65083716D01*
X39353440Y-66786232D01*
X39309439Y-66814603D01*
X39257651Y-66822286D01*
X39207309Y-66807911D01*
X39194726Y-66801185D01*
X39006133Y-66743976D01*
X38810000Y-66724659D01*
X38613866Y-66743976D01*
X38425273Y-66801185D01*
X38251463Y-66894089D01*
X38099117Y-67019117D01*
X37974089Y-67171463D01*
X37881185Y-67345273D01*
X37823976Y-67533866D01*
X37804659Y-67730000D01*
X37823976Y-67926133D01*
X37881185Y-68114726D01*
X37912865Y-68173994D01*
X37974090Y-68288538D01*
X38099117Y-68440883D01*
X38251462Y-68565910D01*
X38425273Y-68658814D01*
X38613868Y-68716024D01*
X38810000Y-68735341D01*
X39006132Y-68716024D01*
X39194727Y-68658814D01*
X39368538Y-68565910D01*
X39520883Y-68440883D01*
X39645910Y-68288538D01*
X39738814Y-68114727D01*
X39796024Y-67926132D01*
X39815341Y-67730000D01*
X39796024Y-67533868D01*
X39754857Y-67398162D01*
X39753234Y-67332039D01*
X39785835Y-67274489D01*
X41398506Y-65661819D01*
X41438735Y-65634939D01*
X41486188Y-65625500D01*
X45234811Y-65625500D01*
X45291106Y-65639015D01*
X45335129Y-65676615D01*
X45357284Y-65730102D01*
X45352742Y-65787818D01*
X45322492Y-65837181D01*
X44391546Y-66768126D01*
X44333994Y-66800729D01*
X44267870Y-66799106D01*
X44086130Y-66743975D01*
X43890000Y-66724659D01*
X43693866Y-66743976D01*
X43505273Y-66801185D01*
X43331463Y-66894089D01*
X43179117Y-67019117D01*
X43054089Y-67171463D01*
X42961185Y-67345273D01*
X42903976Y-67533866D01*
X42884659Y-67730000D01*
X42903976Y-67926133D01*
X42961185Y-68114726D01*
X42992865Y-68173994D01*
X43054090Y-68288538D01*
X43055433Y-68290174D01*
X43085520Y-68326835D01*
X43112734Y-68390321D01*
X43101762Y-68458517D01*
X43056007Y-68510262D01*
X42989667Y-68529500D01*
X42661189Y-68529500D01*
X42613736Y-68520061D01*
X42573508Y-68493181D01*
X42311873Y-68231547D01*
X42279270Y-68173995D01*
X42280894Y-68107870D01*
X42319683Y-67980000D01*
X42336024Y-67926132D01*
X42355341Y-67730000D01*
X42336024Y-67533868D01*
X42278814Y-67345273D01*
X42185910Y-67171462D01*
X42060883Y-67019117D01*
X41908538Y-66894090D01*
X41828411Y-66851261D01*
X41734726Y-66801185D01*
X41546133Y-66743976D01*
X41350000Y-66724659D01*
X41153866Y-66743976D01*
X40965273Y-66801185D01*
X40791463Y-66894089D01*
X40639117Y-67019117D01*
X40514089Y-67171463D01*
X40421185Y-67345273D01*
X40363976Y-67533866D01*
X40344659Y-67730000D01*
X40363976Y-67926133D01*
X40421185Y-68114726D01*
X40452865Y-68173994D01*
X40514090Y-68288538D01*
X40639117Y-68440883D01*
X40791462Y-68565910D01*
X40965273Y-68658814D01*
X41153868Y-68716024D01*
X41350000Y-68735341D01*
X41546132Y-68716024D01*
X41727870Y-68660893D01*
X41793995Y-68659270D01*
X41851546Y-68691872D01*
X42052910Y-68893237D01*
X42230955Y-69071282D01*
X42238262Y-69079255D01*
X42262545Y-69108194D01*
X42295266Y-69127085D01*
X42304360Y-69132878D01*
X42335316Y-69154554D01*
X42335317Y-69154554D01*
X42336201Y-69155173D01*
X42360891Y-69165400D01*
X42361954Y-69165587D01*
X42361955Y-69165588D01*
X42399146Y-69172145D01*
X42409704Y-69174486D01*
X42446191Y-69184263D01*
X42446192Y-69184262D01*
X42446193Y-69184263D01*
X42483811Y-69180971D01*
X42494618Y-69180500D01*
X50125373Y-69180500D01*
X50136180Y-69180971D01*
X50173807Y-69184264D01*
X50210324Y-69174478D01*
X50220830Y-69172149D01*
X50258045Y-69165588D01*
X50258047Y-69165586D01*
X50259112Y-69165399D01*
X50283799Y-69155173D01*
X50284682Y-69154554D01*
X50284684Y-69154554D01*
X50315625Y-69132887D01*
X50324722Y-69127091D01*
X50357455Y-69108194D01*
X50381748Y-69079241D01*
X50389024Y-69071300D01*
X50673509Y-68786816D01*
X50713735Y-68759939D01*
X50761188Y-68750500D01*
X52029811Y-68750500D01*
X52086106Y-68764015D01*
X52130129Y-68801615D01*
X52152284Y-68855102D01*
X52147742Y-68912818D01*
X52117492Y-68962181D01*
X51751546Y-69328126D01*
X51693994Y-69360729D01*
X51627870Y-69359106D01*
X51446130Y-69303975D01*
X51250000Y-69284659D01*
X51053866Y-69303976D01*
X50865273Y-69361185D01*
X50691463Y-69454089D01*
X50539117Y-69579117D01*
X50414089Y-69731463D01*
X50321185Y-69905273D01*
X50263976Y-70093866D01*
X50244659Y-70289999D01*
X50263976Y-70486133D01*
X50321185Y-70674726D01*
X50402091Y-70826091D01*
X50414090Y-70848538D01*
X50539117Y-71000883D01*
X50543705Y-71004648D01*
X50579601Y-71053049D01*
X50588442Y-71112655D01*
X50568141Y-71169391D01*
X50523492Y-71209858D01*
X50465039Y-71224500D01*
X40276188Y-71224500D01*
X40228735Y-71215061D01*
X40188507Y-71188181D01*
X37231873Y-68231547D01*
X37199270Y-68173995D01*
X37200894Y-68107870D01*
X37239683Y-67980000D01*
X37256024Y-67926132D01*
X37275341Y-67730000D01*
X37256024Y-67533868D01*
X37198814Y-67345273D01*
X37105910Y-67171462D01*
X36980883Y-67019117D01*
X36828538Y-66894090D01*
X36748411Y-66851261D01*
X36654726Y-66801185D01*
X36466133Y-66743976D01*
X36270000Y-66724659D01*
X36073866Y-66743976D01*
X35885273Y-66801185D01*
X35711463Y-66894089D01*
X35559117Y-67019117D01*
X35434089Y-67171463D01*
X35341185Y-67345273D01*
X35283976Y-67533866D01*
X35264659Y-67730000D01*
X35283976Y-67926133D01*
X35341185Y-68114726D01*
X35372865Y-68173994D01*
X35434090Y-68288538D01*
X35559117Y-68440883D01*
X35711462Y-68565910D01*
X35885273Y-68658814D01*
X36073868Y-68716024D01*
X36270000Y-68735341D01*
X36466132Y-68716024D01*
X36647870Y-68660893D01*
X36713995Y-68659270D01*
X36771547Y-68691873D01*
X39845950Y-71766276D01*
X39853258Y-71774250D01*
X39877545Y-71803194D01*
X39901594Y-71817079D01*
X39910256Y-71822080D01*
X39919379Y-71827892D01*
X39950316Y-71849554D01*
X39950317Y-71849554D01*
X39951198Y-71850171D01*
X39975891Y-71860400D01*
X39976954Y-71860587D01*
X39976955Y-71860588D01*
X40014143Y-71867145D01*
X40024701Y-71869485D01*
X40061193Y-71879264D01*
X40098823Y-71875971D01*
X40109630Y-71875500D01*
X50489409Y-71875500D01*
X50547862Y-71890142D01*
X50592511Y-71930609D01*
X50612812Y-71987345D01*
X50603970Y-72046952D01*
X50568074Y-72095351D01*
X50539117Y-72119116D01*
X50539117Y-72119117D01*
X50414089Y-72271463D01*
X50321185Y-72445273D01*
X50263976Y-72633866D01*
X50244659Y-72829999D01*
X50263976Y-73026133D01*
X50321185Y-73214726D01*
X50352865Y-73273995D01*
X50414090Y-73388538D01*
X50539117Y-73540883D01*
X50691462Y-73665910D01*
X50865273Y-73758814D01*
X51053868Y-73816024D01*
X51250000Y-73835341D01*
X51446132Y-73816024D01*
X51634727Y-73758814D01*
X51808538Y-73665910D01*
X51960883Y-73540883D01*
X52085910Y-73388538D01*
X52178814Y-73214727D01*
X52236024Y-73026132D01*
X52255341Y-72830000D01*
X52236024Y-72633868D01*
X52178814Y-72445273D01*
X52085910Y-72271462D01*
X51960883Y-72119117D01*
X51931925Y-72095351D01*
X51896030Y-72046952D01*
X51887188Y-71987345D01*
X51907489Y-71930609D01*
X51952138Y-71890142D01*
X52010591Y-71875500D01*
X54863812Y-71875500D01*
X54911265Y-71884939D01*
X54951493Y-71911819D01*
X57908126Y-74868452D01*
X57940729Y-74926003D01*
X57939106Y-74992128D01*
X57883975Y-75173869D01*
X57864659Y-75369999D01*
X57883976Y-75566133D01*
X57941185Y-75754726D01*
X58000020Y-75864798D01*
X58034090Y-75928538D01*
X58056768Y-75956171D01*
X58065520Y-75966835D01*
X58092734Y-76030321D01*
X58081762Y-76098517D01*
X58036007Y-76150262D01*
X57969667Y-76169500D01*
X52214370Y-76169500D01*
X52148030Y-76150262D01*
X52102275Y-76098517D01*
X52091303Y-76030321D01*
X52118517Y-75966835D01*
X52127268Y-75956171D01*
X52224766Y-75773764D01*
X52271410Y-75620000D01*
X50228590Y-75620000D01*
X50275233Y-75773764D01*
X50372731Y-75956171D01*
X50381483Y-75966835D01*
X50408697Y-76030321D01*
X50397725Y-76098517D01*
X50351970Y-76150262D01*
X50285630Y-76169500D01*
X47377956Y-76169500D01*
X47311616Y-76150262D01*
X47265861Y-76098516D01*
X47254889Y-76030320D01*
X47282103Y-75966835D01*
X47307268Y-75936170D01*
X47404766Y-75753764D01*
X47451410Y-75600000D01*
X45408590Y-75600000D01*
X45455233Y-75753764D01*
X45552731Y-75936170D01*
X45577897Y-75966835D01*
X45605111Y-76030320D01*
X45594139Y-76098516D01*
X45548384Y-76150262D01*
X45482044Y-76169500D01*
X44773920Y-76169500D01*
X44707580Y-76150262D01*
X44661825Y-76098517D01*
X44650853Y-76030321D01*
X44678067Y-75966835D01*
X44723199Y-75911841D01*
X44725910Y-75908538D01*
X44818814Y-75734727D01*
X44876024Y-75546132D01*
X44895341Y-75350000D01*
X44876024Y-75153868D01*
X44865750Y-75120000D01*
X50228590Y-75120000D01*
X51000000Y-75120000D01*
X51000000Y-74348590D01*
X51500000Y-74348590D01*
X51500000Y-75120000D01*
X52271410Y-75120000D01*
X52224766Y-74966235D01*
X52127268Y-74783828D01*
X51996054Y-74623945D01*
X51836171Y-74492731D01*
X51653764Y-74395233D01*
X51500000Y-74348590D01*
X51000000Y-74348590D01*
X50846235Y-74395233D01*
X50663828Y-74492731D01*
X50503945Y-74623945D01*
X50372731Y-74783828D01*
X50275233Y-74966235D01*
X50228590Y-75120000D01*
X44865750Y-75120000D01*
X44859683Y-75100000D01*
X45408590Y-75100000D01*
X46180000Y-75100000D01*
X46180000Y-74328590D01*
X46680000Y-74328590D01*
X46680000Y-75100000D01*
X47451410Y-75100000D01*
X47404766Y-74946235D01*
X47307268Y-74763828D01*
X47176054Y-74603945D01*
X47016171Y-74472731D01*
X46833764Y-74375233D01*
X46680000Y-74328590D01*
X46180000Y-74328590D01*
X46026235Y-74375233D01*
X45843828Y-74472731D01*
X45683945Y-74603945D01*
X45552731Y-74763828D01*
X45455233Y-74946235D01*
X45408590Y-75100000D01*
X44859683Y-75100000D01*
X44818814Y-74965273D01*
X44725910Y-74791462D01*
X44600883Y-74639117D01*
X44448538Y-74514090D01*
X44366729Y-74470362D01*
X44274726Y-74421185D01*
X44086133Y-74363976D01*
X43890000Y-74344659D01*
X43693866Y-74363976D01*
X43505273Y-74421185D01*
X43331463Y-74514089D01*
X43179117Y-74639117D01*
X43054089Y-74791463D01*
X42961185Y-74965273D01*
X42903976Y-75153866D01*
X42884659Y-75350000D01*
X42903976Y-75546133D01*
X42961185Y-75734726D01*
X43054089Y-75908537D01*
X43101933Y-75966835D01*
X43129147Y-76030321D01*
X43118175Y-76098517D01*
X43072420Y-76150262D01*
X43006080Y-76169500D01*
X42233920Y-76169500D01*
X42167580Y-76150262D01*
X42121825Y-76098517D01*
X42110853Y-76030321D01*
X42138067Y-75966835D01*
X42183199Y-75911841D01*
X42185910Y-75908538D01*
X42278814Y-75734727D01*
X42336024Y-75546132D01*
X42355341Y-75350000D01*
X42336024Y-75153868D01*
X42278814Y-74965273D01*
X42185910Y-74791462D01*
X42060883Y-74639117D01*
X41908538Y-74514090D01*
X41826729Y-74470362D01*
X41734726Y-74421185D01*
X41546133Y-74363976D01*
X41350000Y-74344659D01*
X41153866Y-74363976D01*
X40965273Y-74421185D01*
X40791463Y-74514089D01*
X40639117Y-74639117D01*
X40514089Y-74791463D01*
X40421185Y-74965273D01*
X40363976Y-75153866D01*
X40344659Y-75350000D01*
X40363976Y-75546133D01*
X40421185Y-75734726D01*
X40514089Y-75908537D01*
X40561933Y-75966835D01*
X40589147Y-76030321D01*
X40578175Y-76098517D01*
X40532420Y-76150262D01*
X40466080Y-76169500D01*
X39693920Y-76169500D01*
X39627580Y-76150262D01*
X39581825Y-76098517D01*
X39570853Y-76030321D01*
X39598067Y-75966835D01*
X39643199Y-75911841D01*
X39645910Y-75908538D01*
X39738814Y-75734727D01*
X39796024Y-75546132D01*
X39815341Y-75350000D01*
X39796024Y-75153868D01*
X39738814Y-74965273D01*
X39645910Y-74791462D01*
X39520883Y-74639117D01*
X39368538Y-74514090D01*
X39286729Y-74470362D01*
X39194726Y-74421185D01*
X39006133Y-74363976D01*
X38810000Y-74344659D01*
X38613866Y-74363976D01*
X38425273Y-74421185D01*
X38251463Y-74514089D01*
X38099117Y-74639117D01*
X37974089Y-74791463D01*
X37881185Y-74965273D01*
X37823976Y-75153866D01*
X37804659Y-75350000D01*
X37823976Y-75546133D01*
X37881185Y-75734726D01*
X37974089Y-75908537D01*
X38021933Y-75966835D01*
X38049147Y-76030321D01*
X38038175Y-76098517D01*
X37992420Y-76150262D01*
X37926080Y-76169500D01*
X37153920Y-76169500D01*
X37087580Y-76150262D01*
X37041825Y-76098517D01*
X37030853Y-76030321D01*
X37058067Y-75966835D01*
X37103199Y-75911841D01*
X37105910Y-75908538D01*
X37198814Y-75734727D01*
X37256024Y-75546132D01*
X37275341Y-75350000D01*
X37256024Y-75153868D01*
X37198814Y-74965273D01*
X37105910Y-74791462D01*
X36980883Y-74639117D01*
X36828538Y-74514090D01*
X36746729Y-74470362D01*
X36654726Y-74421185D01*
X36466133Y-74363976D01*
X36270000Y-74344659D01*
X36073866Y-74363976D01*
X35885273Y-74421185D01*
X35711463Y-74514089D01*
X35559117Y-74639117D01*
X35434089Y-74791463D01*
X35341185Y-74965273D01*
X35283976Y-75153866D01*
X35264659Y-75350000D01*
X35283976Y-75546133D01*
X35341185Y-75734726D01*
X35434089Y-75908537D01*
X35481933Y-75966835D01*
X35509147Y-76030321D01*
X35498175Y-76098517D01*
X35452420Y-76150262D01*
X35386080Y-76169500D01*
X35061188Y-76169500D01*
X35013735Y-76160061D01*
X34973507Y-76133181D01*
X34691873Y-75851547D01*
X34659270Y-75793995D01*
X34660894Y-75727870D01*
X34699683Y-75600000D01*
X34716024Y-75546132D01*
X34735341Y-75350000D01*
X34716024Y-75153868D01*
X34658814Y-74965273D01*
X34565910Y-74791462D01*
X34440883Y-74639117D01*
X34288538Y-74514090D01*
X34206729Y-74470362D01*
X34114726Y-74421185D01*
X33926133Y-74363976D01*
X33730000Y-74344659D01*
X33533866Y-74363976D01*
X33345273Y-74421185D01*
X33171463Y-74514089D01*
X33019117Y-74639117D01*
X32894089Y-74791463D01*
X32801185Y-74965273D01*
X32743976Y-75153866D01*
X32724659Y-75350000D01*
X32195341Y-75350000D01*
X32176024Y-75153868D01*
X32118814Y-74965273D01*
X32025910Y-74791462D01*
X31900883Y-74639117D01*
X31748538Y-74514090D01*
X31666729Y-74470362D01*
X31574726Y-74421185D01*
X31386133Y-74363976D01*
X31190000Y-74344659D01*
X30993866Y-74363976D01*
X30805273Y-74421185D01*
X30631463Y-74514089D01*
X30479117Y-74639117D01*
X30354089Y-74791463D01*
X30261185Y-74965273D01*
X30203976Y-75153866D01*
X30184659Y-75350000D01*
X29650500Y-75350000D01*
X29650500Y-74530252D01*
X29646212Y-74508697D01*
X29638867Y-74471769D01*
X29594552Y-74405447D01*
X29528230Y-74361132D01*
X29469749Y-74349500D01*
X29469748Y-74349500D01*
X27974500Y-74349500D01*
X27912500Y-74332887D01*
X27867113Y-74287500D01*
X27850500Y-74225500D01*
X27850500Y-68630333D01*
X27869738Y-68563993D01*
X27921483Y-68518238D01*
X27989679Y-68507266D01*
X28053164Y-68534479D01*
X28091462Y-68565910D01*
X28265273Y-68658814D01*
X28453868Y-68716024D01*
X28650000Y-68735341D01*
X28846132Y-68716024D01*
X29034727Y-68658814D01*
X29208538Y-68565910D01*
X29360883Y-68440883D01*
X29485910Y-68288538D01*
X29578814Y-68114727D01*
X29636024Y-67926132D01*
X29655341Y-67730000D01*
X30184659Y-67730000D01*
X30203976Y-67926133D01*
X30261185Y-68114726D01*
X30292865Y-68173994D01*
X30354090Y-68288538D01*
X30479117Y-68440883D01*
X30631462Y-68565910D01*
X30805273Y-68658814D01*
X30993868Y-68716024D01*
X31190000Y-68735341D01*
X31386132Y-68716024D01*
X31574727Y-68658814D01*
X31748538Y-68565910D01*
X31900883Y-68440883D01*
X32025910Y-68288538D01*
X32118814Y-68114727D01*
X32176024Y-67926132D01*
X32195341Y-67730000D01*
X32724659Y-67730000D01*
X32743976Y-67926133D01*
X32801185Y-68114726D01*
X32832865Y-68173994D01*
X32894090Y-68288538D01*
X33019117Y-68440883D01*
X33171462Y-68565910D01*
X33345273Y-68658814D01*
X33533868Y-68716024D01*
X33730000Y-68735341D01*
X33926132Y-68716024D01*
X34114727Y-68658814D01*
X34288538Y-68565910D01*
X34440883Y-68440883D01*
X34565910Y-68288538D01*
X34658814Y-68114727D01*
X34716024Y-67926132D01*
X34735341Y-67730000D01*
X34716024Y-67533868D01*
X34658814Y-67345273D01*
X34565910Y-67171462D01*
X34440883Y-67019117D01*
X34288538Y-66894090D01*
X34208411Y-66851261D01*
X34114726Y-66801185D01*
X33926133Y-66743976D01*
X33730000Y-66724659D01*
X33533866Y-66743976D01*
X33345273Y-66801185D01*
X33171463Y-66894089D01*
X33019117Y-67019117D01*
X32894089Y-67171463D01*
X32801185Y-67345273D01*
X32743976Y-67533866D01*
X32724659Y-67730000D01*
X32195341Y-67730000D01*
X32176024Y-67533868D01*
X32118814Y-67345273D01*
X32025910Y-67171462D01*
X31900883Y-67019117D01*
X31748538Y-66894090D01*
X31668411Y-66851261D01*
X31574726Y-66801185D01*
X31386133Y-66743976D01*
X31190000Y-66724659D01*
X30993866Y-66743976D01*
X30805273Y-66801185D01*
X30631463Y-66894089D01*
X30479117Y-67019117D01*
X30354089Y-67171463D01*
X30261185Y-67345273D01*
X30203976Y-67533866D01*
X30184659Y-67730000D01*
X29655341Y-67730000D01*
X29636024Y-67533868D01*
X29578814Y-67345273D01*
X29485910Y-67171462D01*
X29360883Y-67019117D01*
X29208538Y-66894090D01*
X29128411Y-66851261D01*
X29034726Y-66801185D01*
X28846133Y-66743976D01*
X28650000Y-66724659D01*
X28453866Y-66743976D01*
X28265273Y-66801185D01*
X28091463Y-66894089D01*
X28053165Y-66925520D01*
X27989679Y-66952734D01*
X27921483Y-66941762D01*
X27869738Y-66896007D01*
X27850500Y-66829667D01*
X27850500Y-61375000D01*
X31144417Y-61375000D01*
X31164699Y-61580932D01*
X31164700Y-61580934D01*
X31224768Y-61778954D01*
X31322315Y-61961450D01*
X31373608Y-62023952D01*
X31453589Y-62121410D01*
X31533570Y-62187047D01*
X31613550Y-62252685D01*
X31796046Y-62350232D01*
X31994066Y-62410300D01*
X32200000Y-62430583D01*
X32405934Y-62410300D01*
X32603954Y-62350232D01*
X32786450Y-62252685D01*
X32946410Y-62121410D01*
X33077685Y-61961450D01*
X33175232Y-61778954D01*
X33235300Y-61580934D01*
X33255583Y-61375000D01*
X33235300Y-61169066D01*
X33175232Y-60971046D01*
X33077685Y-60788550D01*
X33012047Y-60708570D01*
X32946410Y-60628589D01*
X32804764Y-60512345D01*
X32786450Y-60497315D01*
X32673271Y-60436819D01*
X32603956Y-60399769D01*
X32603955Y-60399768D01*
X32603954Y-60399768D01*
X32504943Y-60369733D01*
X32405932Y-60339699D01*
X32200000Y-60319417D01*
X31994067Y-60339699D01*
X31796043Y-60399769D01*
X31613551Y-60497314D01*
X31453589Y-60628589D01*
X31322314Y-60788551D01*
X31224769Y-60971043D01*
X31164699Y-61169067D01*
X31144417Y-61375000D01*
X27850500Y-61375000D01*
X27850500Y-59398625D01*
X27859939Y-59351172D01*
X27886819Y-59310944D01*
X28644677Y-58553086D01*
X30937365Y-56260396D01*
X30997875Y-56227092D01*
X31066818Y-56231327D01*
X31122799Y-56271790D01*
X31148447Y-56335924D01*
X31164699Y-56500932D01*
X31180875Y-56554256D01*
X31217184Y-56673954D01*
X31224769Y-56698956D01*
X31243374Y-56733764D01*
X31322315Y-56881450D01*
X31350810Y-56916171D01*
X31453589Y-57041410D01*
X31495804Y-57076054D01*
X31613550Y-57172685D01*
X31796046Y-57270232D01*
X31994066Y-57330300D01*
X32200000Y-57350583D01*
X32405934Y-57330300D01*
X32603954Y-57270232D01*
X32786450Y-57172685D01*
X32946410Y-57041410D01*
X33077685Y-56881450D01*
X33175232Y-56698954D01*
X33235300Y-56500934D01*
X33255583Y-56295000D01*
X33235300Y-56089066D01*
X33175232Y-55891046D01*
X33175230Y-55891042D01*
X33171686Y-55879359D01*
X33173894Y-55878688D01*
X33165560Y-55849518D01*
X33173238Y-55797721D01*
X33201607Y-55753717D01*
X33388509Y-55566816D01*
X33428736Y-55539939D01*
X33476188Y-55530500D01*
X34549667Y-55530500D01*
X34616007Y-55549738D01*
X34661762Y-55601483D01*
X34672734Y-55669679D01*
X34645520Y-55733165D01*
X34614089Y-55771463D01*
X34521185Y-55945273D01*
X34463976Y-56133866D01*
X34444659Y-56330000D01*
X34463976Y-56526133D01*
X34521185Y-56714726D01*
X34596939Y-56856450D01*
X34614090Y-56888538D01*
X34739117Y-57040883D01*
X34891462Y-57165910D01*
X34918988Y-57180623D01*
X34929313Y-57186142D01*
X34976587Y-57230710D01*
X34994836Y-57293065D01*
X34979050Y-57356089D01*
X34933562Y-57402479D01*
X34870860Y-57419500D01*
X33309628Y-57419500D01*
X33298820Y-57419028D01*
X33261192Y-57415735D01*
X33224704Y-57425512D01*
X33214148Y-57427852D01*
X33175899Y-57434597D01*
X33151193Y-57444831D01*
X33119380Y-57467106D01*
X33110264Y-57472914D01*
X33077545Y-57491805D01*
X33053262Y-57520744D01*
X33045956Y-57528716D01*
X32741287Y-57833385D01*
X32697300Y-57861751D01*
X32645528Y-57869441D01*
X32616310Y-57861107D01*
X32615641Y-57863313D01*
X32405932Y-57799699D01*
X32200000Y-57779417D01*
X31994067Y-57799699D01*
X31864625Y-57838965D01*
X31805544Y-57856887D01*
X31796043Y-57859769D01*
X31613551Y-57957314D01*
X31453589Y-58088589D01*
X31322314Y-58248551D01*
X31224769Y-58431043D01*
X31164699Y-58629067D01*
X31144417Y-58835000D01*
X31164699Y-59040932D01*
X31172344Y-59066133D01*
X31224768Y-59238954D01*
X31322315Y-59421450D01*
X31350809Y-59456170D01*
X31453589Y-59581410D01*
X31488818Y-59610321D01*
X31613550Y-59712685D01*
X31796046Y-59810232D01*
X31994066Y-59870300D01*
X32200000Y-59890583D01*
X32405934Y-59870300D01*
X32603954Y-59810232D01*
X32786450Y-59712685D01*
X32946410Y-59581410D01*
X33077685Y-59421450D01*
X33175232Y-59238954D01*
X33211316Y-59120000D01*
X34428590Y-59120000D01*
X34475233Y-59273764D01*
X34572731Y-59456171D01*
X34703945Y-59616054D01*
X34863828Y-59747268D01*
X35046235Y-59844766D01*
X35200000Y-59891410D01*
X35200000Y-59120000D01*
X35700000Y-59120000D01*
X35700000Y-59891410D01*
X35853764Y-59844766D01*
X36036171Y-59747268D01*
X36196054Y-59616054D01*
X36327268Y-59456171D01*
X36424766Y-59273764D01*
X36471410Y-59120000D01*
X35700000Y-59120000D01*
X35200000Y-59120000D01*
X34428590Y-59120000D01*
X33211316Y-59120000D01*
X33235300Y-59040934D01*
X33255583Y-58835000D01*
X33235300Y-58629066D01*
X33175232Y-58431046D01*
X33175230Y-58431042D01*
X33171686Y-58419359D01*
X33173894Y-58418688D01*
X33165560Y-58389518D01*
X33173238Y-58337721D01*
X33201607Y-58293717D01*
X33388509Y-58106816D01*
X33428736Y-58079939D01*
X33476188Y-58070500D01*
X34485630Y-58070500D01*
X34551970Y-58089738D01*
X34597725Y-58141483D01*
X34608697Y-58209679D01*
X34581483Y-58273165D01*
X34572731Y-58283828D01*
X34475233Y-58466235D01*
X34428590Y-58620000D01*
X36471410Y-58620000D01*
X36424766Y-58466235D01*
X36327268Y-58283828D01*
X36318517Y-58273165D01*
X36291303Y-58209679D01*
X36302275Y-58141483D01*
X36348030Y-58089738D01*
X36414370Y-58070500D01*
X42169667Y-58070500D01*
X42236007Y-58089738D01*
X42281762Y-58141483D01*
X42292734Y-58209679D01*
X42265520Y-58273165D01*
X42234089Y-58311463D01*
X42141185Y-58485273D01*
X42083976Y-58673866D01*
X42064659Y-58870000D01*
X42083976Y-59066133D01*
X42141185Y-59254726D01*
X42216939Y-59396450D01*
X42234090Y-59428538D01*
X42359117Y-59580883D01*
X42511462Y-59705910D01*
X42685273Y-59798814D01*
X42873868Y-59856024D01*
X43070000Y-59875341D01*
X43266132Y-59856024D01*
X43454727Y-59798814D01*
X43628538Y-59705910D01*
X43780883Y-59580883D01*
X43905910Y-59428538D01*
X43998814Y-59254727D01*
X44039683Y-59120000D01*
X44978590Y-59120000D01*
X45025233Y-59273764D01*
X45122731Y-59456171D01*
X45253945Y-59616054D01*
X45413828Y-59747268D01*
X45596235Y-59844766D01*
X45750000Y-59891410D01*
X45750000Y-59120000D01*
X46250000Y-59120000D01*
X46250000Y-59891410D01*
X46403764Y-59844766D01*
X46586171Y-59747268D01*
X46746054Y-59616054D01*
X46877268Y-59456171D01*
X46974766Y-59273764D01*
X47021410Y-59120000D01*
X46250000Y-59120000D01*
X45750000Y-59120000D01*
X44978590Y-59120000D01*
X44039683Y-59120000D01*
X44056024Y-59066132D01*
X44075341Y-58870000D01*
X44056024Y-58673868D01*
X44000892Y-58492126D01*
X43999270Y-58426003D01*
X44031871Y-58368454D01*
X44293510Y-58106816D01*
X44333736Y-58079939D01*
X44381189Y-58070500D01*
X45035630Y-58070500D01*
X45101970Y-58089738D01*
X45147725Y-58141483D01*
X45158697Y-58209679D01*
X45131483Y-58273165D01*
X45122731Y-58283828D01*
X45025233Y-58466235D01*
X44978590Y-58620000D01*
X47021410Y-58620000D01*
X46974766Y-58466235D01*
X46877268Y-58283828D01*
X46868517Y-58273165D01*
X46841303Y-58209679D01*
X46852275Y-58141483D01*
X46898030Y-58089738D01*
X46964370Y-58070500D01*
X51961234Y-58070500D01*
X52016078Y-58083288D01*
X52059610Y-58119014D01*
X52134016Y-58215983D01*
X52230550Y-58290055D01*
X52259458Y-58312237D01*
X52405537Y-58372745D01*
X52543717Y-58390936D01*
X52568139Y-58394152D01*
X52618294Y-58412329D01*
X52656170Y-58449897D01*
X52674757Y-58499901D01*
X52670615Y-58553086D01*
X52633975Y-58673869D01*
X52614659Y-58870000D01*
X52633976Y-59066133D01*
X52691185Y-59254726D01*
X52766939Y-59396450D01*
X52784090Y-59428538D01*
X52909117Y-59580883D01*
X53061462Y-59705910D01*
X53235273Y-59798814D01*
X53423868Y-59856024D01*
X53620000Y-59875341D01*
X53816132Y-59856024D01*
X53997870Y-59800893D01*
X54063995Y-59799270D01*
X54121547Y-59831873D01*
X54295962Y-60006289D01*
X54327175Y-60058752D01*
X54329571Y-60119751D01*
X54302571Y-60174502D01*
X54252718Y-60209734D01*
X54192096Y-60216909D01*
X54020500Y-60194317D01*
X53863737Y-60214956D01*
X53717659Y-60275463D01*
X53592217Y-60371717D01*
X53495963Y-60497159D01*
X53435456Y-60643237D01*
X53414817Y-60799999D01*
X53435456Y-60956762D01*
X53495963Y-61102840D01*
X53592217Y-61228282D01*
X53717659Y-61324536D01*
X53863738Y-61385044D01*
X54020500Y-61405682D01*
X54177262Y-61385044D01*
X54323341Y-61324536D01*
X54448782Y-61228282D01*
X54490423Y-61174013D01*
X54533955Y-61138288D01*
X54588799Y-61125500D01*
X54981701Y-61125500D01*
X55036545Y-61138288D01*
X55080076Y-61174013D01*
X55121718Y-61228282D01*
X55247159Y-61324536D01*
X55393238Y-61385044D01*
X55550000Y-61405682D01*
X55706762Y-61385044D01*
X55852841Y-61324536D01*
X55978282Y-61228282D01*
X56074536Y-61102841D01*
X56135044Y-60956762D01*
X56155682Y-60800000D01*
X56135044Y-60643238D01*
X56118621Y-60603589D01*
X56105517Y-60571952D01*
X56096675Y-60512345D01*
X56116976Y-60455609D01*
X56161625Y-60415142D01*
X56220078Y-60400500D01*
X76363812Y-60400500D01*
X76411265Y-60409939D01*
X76451492Y-60436818D01*
X76823387Y-60808714D01*
X76851754Y-60852706D01*
X76859441Y-60904486D01*
X76851106Y-60933689D01*
X76853313Y-60934359D01*
X76789699Y-61144067D01*
X76769417Y-61350000D01*
X76789699Y-61555932D01*
X76819734Y-61654944D01*
X76849768Y-61753954D01*
X76947315Y-61936450D01*
X76967832Y-61961450D01*
X77078589Y-62096410D01*
X77158570Y-62162047D01*
X77238550Y-62227685D01*
X77421046Y-62325232D01*
X77619066Y-62385300D01*
X77825000Y-62405583D01*
X78030934Y-62385300D01*
X78228954Y-62325232D01*
X78411450Y-62227685D01*
X78571410Y-62096410D01*
X78702685Y-61936450D01*
X78800232Y-61753954D01*
X78860300Y-61555934D01*
X78880583Y-61350000D01*
X78860300Y-61144066D01*
X78800232Y-60946046D01*
X78702685Y-60763550D01*
X78603948Y-60643238D01*
X78571410Y-60603589D01*
X78460227Y-60512345D01*
X78411450Y-60472315D01*
X78228954Y-60374768D01*
X78113346Y-60339699D01*
X78030932Y-60314699D01*
X77825000Y-60294417D01*
X77619067Y-60314699D01*
X77409359Y-60378313D01*
X77408689Y-60376106D01*
X77379486Y-60384441D01*
X77327706Y-60376754D01*
X77283714Y-60348387D01*
X76794042Y-59858716D01*
X76786734Y-59850741D01*
X76762455Y-59821806D01*
X76762454Y-59821805D01*
X76729736Y-59802915D01*
X76720627Y-59797112D01*
X76689684Y-59775446D01*
X76688803Y-59774829D01*
X76664107Y-59764599D01*
X76625852Y-59757853D01*
X76615296Y-59755512D01*
X76578807Y-59745735D01*
X76541180Y-59749028D01*
X76530372Y-59749500D01*
X75361053Y-59749500D01*
X75302600Y-59734858D01*
X75257951Y-59694390D01*
X75237650Y-59637654D01*
X75246492Y-59578047D01*
X75273965Y-59541004D01*
X75273135Y-59540323D01*
X75280880Y-59530885D01*
X75280883Y-59530883D01*
X75405910Y-59378538D01*
X75498814Y-59204727D01*
X75556024Y-59016132D01*
X75575341Y-58820000D01*
X75574356Y-58809999D01*
X76769417Y-58809999D01*
X76789699Y-59015932D01*
X76819734Y-59114944D01*
X76849768Y-59213954D01*
X76947315Y-59396450D01*
X76967832Y-59421450D01*
X77078589Y-59556410D01*
X77144281Y-59610321D01*
X77238550Y-59687685D01*
X77421046Y-59785232D01*
X77619066Y-59845300D01*
X77825000Y-59865583D01*
X78030934Y-59845300D01*
X78228954Y-59785232D01*
X78411450Y-59687685D01*
X78571410Y-59556410D01*
X78702685Y-59396450D01*
X78800232Y-59213954D01*
X78860300Y-59015934D01*
X78880583Y-58810000D01*
X78860300Y-58604066D01*
X78800232Y-58406046D01*
X78702685Y-58223550D01*
X78593529Y-58090542D01*
X78571410Y-58063589D01*
X78468920Y-57979479D01*
X78411450Y-57932315D01*
X78284876Y-57864659D01*
X78228956Y-57834769D01*
X78228955Y-57834768D01*
X78228954Y-57834768D01*
X78129943Y-57804733D01*
X78030932Y-57774699D01*
X77825000Y-57754417D01*
X77619067Y-57774699D01*
X77421043Y-57834769D01*
X77238551Y-57932314D01*
X77078589Y-58063589D01*
X76947314Y-58223551D01*
X76849769Y-58406043D01*
X76789699Y-58604067D01*
X76769417Y-58809999D01*
X75574356Y-58809999D01*
X75556024Y-58623868D01*
X75498814Y-58435273D01*
X75405910Y-58261462D01*
X75280883Y-58109117D01*
X75128538Y-57984090D01*
X75051161Y-57942731D01*
X74954726Y-57891185D01*
X74766133Y-57833976D01*
X74570000Y-57814659D01*
X74373866Y-57833976D01*
X74185273Y-57891185D01*
X74011463Y-57984089D01*
X73859117Y-58109117D01*
X73734089Y-58261463D01*
X73641185Y-58435273D01*
X73583976Y-58623866D01*
X73564659Y-58820000D01*
X73583976Y-59016133D01*
X73641185Y-59204726D01*
X73678087Y-59273764D01*
X73734090Y-59378538D01*
X73859117Y-59530883D01*
X73859119Y-59530884D01*
X73866865Y-59540323D01*
X73866034Y-59541004D01*
X73893508Y-59578047D01*
X73902350Y-59637654D01*
X73882049Y-59694390D01*
X73837400Y-59734858D01*
X73778947Y-59749500D01*
X67807681Y-59749500D01*
X67741341Y-59730262D01*
X67695586Y-59678517D01*
X67684614Y-59610321D01*
X67711828Y-59546835D01*
X67827268Y-59406171D01*
X67924766Y-59223764D01*
X67971410Y-59070000D01*
X65928590Y-59070000D01*
X65975233Y-59223764D01*
X66072731Y-59406171D01*
X66188172Y-59546835D01*
X66215386Y-59610321D01*
X66204414Y-59678517D01*
X66158659Y-59730262D01*
X66092319Y-59749500D01*
X64904678Y-59749500D01*
X64838338Y-59730262D01*
X64792583Y-59678517D01*
X64781611Y-59610321D01*
X64808824Y-59546836D01*
X64905910Y-59428538D01*
X64998814Y-59254727D01*
X65056024Y-59066132D01*
X65075341Y-58870000D01*
X65056024Y-58673868D01*
X65024516Y-58570000D01*
X65928590Y-58570000D01*
X66700000Y-58570000D01*
X66700000Y-57798590D01*
X67200000Y-57798590D01*
X67200000Y-58570000D01*
X67971410Y-58570000D01*
X67924766Y-58416235D01*
X67827268Y-58233828D01*
X67696054Y-58073945D01*
X67536171Y-57942731D01*
X67353764Y-57845233D01*
X67200000Y-57798590D01*
X66700000Y-57798590D01*
X66546235Y-57845233D01*
X66363828Y-57942731D01*
X66203945Y-58073945D01*
X66072731Y-58233828D01*
X65975233Y-58416235D01*
X65928590Y-58570000D01*
X65024516Y-58570000D01*
X64998814Y-58485273D01*
X64905910Y-58311462D01*
X64780883Y-58159117D01*
X64628538Y-58034090D01*
X64606091Y-58022092D01*
X64454726Y-57941185D01*
X64266133Y-57883976D01*
X64070000Y-57864659D01*
X63873866Y-57883976D01*
X63685273Y-57941185D01*
X63511463Y-58034089D01*
X63359117Y-58159117D01*
X63234089Y-58311463D01*
X63141185Y-58485273D01*
X63083976Y-58673866D01*
X63064659Y-58870000D01*
X63083976Y-59066133D01*
X63141185Y-59254726D01*
X63216939Y-59396450D01*
X63234090Y-59428538D01*
X63331175Y-59546836D01*
X63358389Y-59610321D01*
X63347417Y-59678517D01*
X63301662Y-59730262D01*
X63235322Y-59749500D01*
X57348715Y-59749500D01*
X57282375Y-59730262D01*
X57236620Y-59678517D01*
X57225648Y-59610321D01*
X57252862Y-59546835D01*
X57327268Y-59456170D01*
X57424766Y-59273764D01*
X57471410Y-59120000D01*
X55428590Y-59120000D01*
X55475233Y-59273764D01*
X55572731Y-59456170D01*
X55647138Y-59546835D01*
X55674352Y-59610321D01*
X55663380Y-59678517D01*
X55617625Y-59730262D01*
X55551285Y-59749500D01*
X55011189Y-59749500D01*
X54963736Y-59740061D01*
X54923508Y-59713181D01*
X54757162Y-59546835D01*
X54581872Y-59371546D01*
X54549270Y-59313995D01*
X54550894Y-59247870D01*
X54553599Y-59238954D01*
X54606024Y-59066132D01*
X54625341Y-58870000D01*
X54606024Y-58673868D01*
X54589683Y-58620000D01*
X55428590Y-58620000D01*
X56200000Y-58620000D01*
X56200000Y-57848590D01*
X56700000Y-57848590D01*
X56700000Y-58620000D01*
X57471410Y-58620000D01*
X57424766Y-58466235D01*
X57327268Y-58283828D01*
X57196054Y-58123945D01*
X57036171Y-57992731D01*
X56853764Y-57895233D01*
X56700000Y-57848590D01*
X56200000Y-57848590D01*
X56046235Y-57895233D01*
X55863828Y-57992731D01*
X55703945Y-58123945D01*
X55572731Y-58283828D01*
X55475233Y-58466235D01*
X55428590Y-58620000D01*
X54589683Y-58620000D01*
X54548814Y-58485273D01*
X54455910Y-58311462D01*
X54330883Y-58159117D01*
X54178538Y-58034090D01*
X54156091Y-58022092D01*
X54004726Y-57941185D01*
X53816133Y-57883976D01*
X53620000Y-57864659D01*
X53423868Y-57883975D01*
X53328171Y-57913005D01*
X53266988Y-57915759D01*
X53211950Y-57888895D01*
X53176483Y-57838965D01*
X53172270Y-57803601D01*
X53170112Y-57803886D01*
X53163599Y-57754417D01*
X53147343Y-57630939D01*
X53086835Y-57484860D01*
X53056120Y-57444831D01*
X53039071Y-57422612D01*
X53014214Y-57360894D01*
X53024837Y-57295212D01*
X53067883Y-57244477D01*
X53130958Y-57223296D01*
X53195897Y-57237767D01*
X53235273Y-57258814D01*
X53235275Y-57258814D01*
X53235276Y-57258815D01*
X53259038Y-57266023D01*
X53423868Y-57316024D01*
X53620000Y-57335341D01*
X53816132Y-57316024D01*
X54004727Y-57258814D01*
X54178538Y-57165910D01*
X54330883Y-57040883D01*
X54455910Y-56888538D01*
X54548814Y-56714727D01*
X54606024Y-56526132D01*
X54625341Y-56330000D01*
X55444659Y-56330000D01*
X55463976Y-56526133D01*
X55521185Y-56714726D01*
X55596939Y-56856450D01*
X55614090Y-56888538D01*
X55739117Y-57040883D01*
X55891462Y-57165910D01*
X56065273Y-57258814D01*
X56253868Y-57316024D01*
X56450000Y-57335341D01*
X56646132Y-57316024D01*
X56834727Y-57258814D01*
X57008538Y-57165910D01*
X57160883Y-57040883D01*
X57285910Y-56888538D01*
X57378814Y-56714727D01*
X57419683Y-56580000D01*
X63048590Y-56580000D01*
X63095233Y-56733764D01*
X63192731Y-56916171D01*
X63323945Y-57076054D01*
X63483828Y-57207268D01*
X63666235Y-57304766D01*
X63820000Y-57351410D01*
X63820000Y-56580000D01*
X64320000Y-56580000D01*
X64320000Y-57351410D01*
X64473764Y-57304766D01*
X64656171Y-57207268D01*
X64816054Y-57076054D01*
X64947268Y-56916171D01*
X65044766Y-56733764D01*
X65091410Y-56580000D01*
X64320000Y-56580000D01*
X63820000Y-56580000D01*
X63048590Y-56580000D01*
X57419683Y-56580000D01*
X57436024Y-56526132D01*
X57455341Y-56330000D01*
X57436024Y-56133868D01*
X57378814Y-55945273D01*
X57285910Y-55771462D01*
X57160883Y-55619117D01*
X57008538Y-55494090D01*
X56914995Y-55444090D01*
X56834726Y-55401185D01*
X56646133Y-55343976D01*
X56450000Y-55324659D01*
X56253866Y-55343976D01*
X56065273Y-55401185D01*
X55891463Y-55494089D01*
X55739117Y-55619117D01*
X55614089Y-55771463D01*
X55521185Y-55945273D01*
X55463976Y-56133866D01*
X55444659Y-56330000D01*
X54625341Y-56330000D01*
X54606024Y-56133868D01*
X54550892Y-55952126D01*
X54549270Y-55886004D01*
X54581873Y-55828452D01*
X55175839Y-55234486D01*
X55756675Y-54653650D01*
X55800675Y-54625281D01*
X55852464Y-54617598D01*
X55902806Y-54631973D01*
X56065273Y-54718814D01*
X56253868Y-54776024D01*
X56450000Y-54795341D01*
X56646132Y-54776024D01*
X56827870Y-54720893D01*
X56893995Y-54719270D01*
X56951546Y-54751872D01*
X57151478Y-54951805D01*
X57330955Y-55131282D01*
X57338263Y-55139256D01*
X57362545Y-55168194D01*
X57395266Y-55187085D01*
X57404360Y-55192878D01*
X57435316Y-55214554D01*
X57435317Y-55214554D01*
X57436201Y-55215173D01*
X57460891Y-55225400D01*
X57461954Y-55225587D01*
X57461955Y-55225588D01*
X57499146Y-55232145D01*
X57509704Y-55234486D01*
X57546191Y-55244263D01*
X57546192Y-55244262D01*
X57546193Y-55244263D01*
X57583811Y-55240971D01*
X57594618Y-55240500D01*
X63395877Y-55240500D01*
X63454330Y-55255142D01*
X63498979Y-55295609D01*
X63519280Y-55352346D01*
X63510438Y-55411952D01*
X63474542Y-55460353D01*
X63323945Y-55583945D01*
X63192731Y-55743828D01*
X63095233Y-55926235D01*
X63048590Y-56080000D01*
X65091410Y-56080000D01*
X65044766Y-55926235D01*
X64947268Y-55743828D01*
X64816054Y-55583945D01*
X64665458Y-55460353D01*
X64629562Y-55411952D01*
X64620720Y-55352346D01*
X64641021Y-55295609D01*
X64685670Y-55255142D01*
X64744123Y-55240500D01*
X66292981Y-55240500D01*
X66351434Y-55255142D01*
X66396083Y-55295609D01*
X66416384Y-55352346D01*
X66407542Y-55411952D01*
X66371646Y-55460352D01*
X66330537Y-55494090D01*
X66239117Y-55569117D01*
X66114089Y-55721463D01*
X66021185Y-55895273D01*
X65963976Y-56083866D01*
X65944659Y-56279999D01*
X65944659Y-56280000D01*
X65950167Y-56335924D01*
X65963976Y-56476133D01*
X66021185Y-56664726D01*
X66051289Y-56721046D01*
X66114090Y-56838538D01*
X66239117Y-56990883D01*
X66391462Y-57115910D01*
X66565273Y-57208814D01*
X66753868Y-57266024D01*
X66950000Y-57285341D01*
X67146132Y-57266024D01*
X67334727Y-57208814D01*
X67508538Y-57115910D01*
X67660883Y-56990883D01*
X67785910Y-56838538D01*
X67878814Y-56664727D01*
X67936024Y-56476132D01*
X67955341Y-56280000D01*
X67936024Y-56083868D01*
X67878814Y-55895273D01*
X67785910Y-55721462D01*
X67660883Y-55569117D01*
X67528353Y-55460352D01*
X67492458Y-55411952D01*
X67483616Y-55352346D01*
X67503917Y-55295609D01*
X67548566Y-55255142D01*
X67607019Y-55240500D01*
X73912981Y-55240500D01*
X73971434Y-55255142D01*
X74016083Y-55295609D01*
X74036384Y-55352346D01*
X74027542Y-55411952D01*
X73991646Y-55460352D01*
X73950537Y-55494090D01*
X73859117Y-55569117D01*
X73734089Y-55721463D01*
X73641185Y-55895273D01*
X73583976Y-56083866D01*
X73564659Y-56280000D01*
X73583976Y-56476133D01*
X73641185Y-56664726D01*
X73671289Y-56721046D01*
X73734090Y-56838538D01*
X73859117Y-56990883D01*
X74011462Y-57115910D01*
X74185273Y-57208814D01*
X74373868Y-57266024D01*
X74570000Y-57285341D01*
X74766132Y-57266024D01*
X74954727Y-57208814D01*
X75128538Y-57115910D01*
X75280883Y-56990883D01*
X75405910Y-56838538D01*
X75498814Y-56664727D01*
X75556024Y-56476132D01*
X75575341Y-56280000D01*
X75556024Y-56083868D01*
X75498814Y-55895273D01*
X75405910Y-55721462D01*
X75280883Y-55569117D01*
X75148353Y-55460352D01*
X75112458Y-55411952D01*
X75103616Y-55352346D01*
X75123917Y-55295609D01*
X75168566Y-55255142D01*
X75227019Y-55240500D01*
X76283812Y-55240500D01*
X76331265Y-55249939D01*
X76371492Y-55276818D01*
X76823387Y-55728714D01*
X76851754Y-55772706D01*
X76859441Y-55824486D01*
X76851106Y-55853689D01*
X76853313Y-55854359D01*
X76789699Y-56064067D01*
X76769417Y-56269999D01*
X76789699Y-56475932D01*
X76812203Y-56550118D01*
X76849768Y-56673954D01*
X76947315Y-56856450D01*
X76967832Y-56881450D01*
X77078589Y-57016410D01*
X77151267Y-57076054D01*
X77238550Y-57147685D01*
X77421046Y-57245232D01*
X77619066Y-57305300D01*
X77825000Y-57325583D01*
X78030934Y-57305300D01*
X78228954Y-57245232D01*
X78411450Y-57147685D01*
X78571410Y-57016410D01*
X78702685Y-56856450D01*
X78800232Y-56673954D01*
X78860300Y-56475934D01*
X78880583Y-56270000D01*
X78860300Y-56064066D01*
X78800232Y-55866046D01*
X78702685Y-55683550D01*
X78598111Y-55556125D01*
X78571410Y-55523589D01*
X78473952Y-55443609D01*
X78411450Y-55392315D01*
X78284876Y-55324659D01*
X78228956Y-55294769D01*
X78228955Y-55294768D01*
X78228954Y-55294768D01*
X78081171Y-55249939D01*
X78030932Y-55234699D01*
X77825000Y-55214417D01*
X77619067Y-55234699D01*
X77409359Y-55298313D01*
X77408689Y-55296106D01*
X77379486Y-55304441D01*
X77327706Y-55296754D01*
X77283714Y-55268387D01*
X76714042Y-54698716D01*
X76706734Y-54690741D01*
X76682454Y-54661805D01*
X76649736Y-54642915D01*
X76640627Y-54637112D01*
X76609684Y-54615446D01*
X76608803Y-54614829D01*
X76584107Y-54604599D01*
X76545852Y-54597853D01*
X76535296Y-54595512D01*
X76498807Y-54585735D01*
X76461180Y-54589028D01*
X76450372Y-54589500D01*
X75429299Y-54589500D01*
X75362959Y-54570262D01*
X75317204Y-54518517D01*
X75306232Y-54450321D01*
X75333446Y-54386835D01*
X75342198Y-54376171D01*
X75405910Y-54298538D01*
X75498814Y-54124727D01*
X75556024Y-53936132D01*
X75575341Y-53740000D01*
X75556024Y-53543868D01*
X75498814Y-53355273D01*
X75405910Y-53181462D01*
X75280883Y-53029117D01*
X75128538Y-52904090D01*
X75101779Y-52889787D01*
X74954726Y-52811185D01*
X74766133Y-52753976D01*
X74570000Y-52734659D01*
X74373866Y-52753976D01*
X74185273Y-52811185D01*
X74011463Y-52904089D01*
X73859117Y-53029117D01*
X73734089Y-53181463D01*
X73641185Y-53355273D01*
X73583976Y-53543866D01*
X73576261Y-53622201D01*
X73564659Y-53740000D01*
X73572617Y-53820800D01*
X73583976Y-53936133D01*
X73641185Y-54124726D01*
X73734089Y-54298537D01*
X73806554Y-54386835D01*
X73833768Y-54450321D01*
X73822796Y-54518517D01*
X73777041Y-54570262D01*
X73710701Y-54589500D01*
X68945295Y-54589500D01*
X68886842Y-54574858D01*
X68842193Y-54534391D01*
X68821892Y-54477655D01*
X68830734Y-54418048D01*
X68848079Y-54376171D01*
X68860054Y-54347262D01*
X68880692Y-54190500D01*
X68860054Y-54033738D01*
X68799546Y-53887659D01*
X68703292Y-53762218D01*
X68649023Y-53720576D01*
X68613298Y-53677045D01*
X68600510Y-53622201D01*
X68600510Y-53493635D01*
X68600982Y-53482827D01*
X68604273Y-53445213D01*
X68594495Y-53408722D01*
X68592154Y-53398159D01*
X68585410Y-53359910D01*
X68575183Y-53335220D01*
X68574564Y-53334336D01*
X68574564Y-53334335D01*
X68552888Y-53303379D01*
X68547095Y-53294285D01*
X68528204Y-53261564D01*
X68499271Y-53237286D01*
X68491296Y-53229978D01*
X67673498Y-52412181D01*
X67643248Y-52362818D01*
X67638706Y-52305102D01*
X67660861Y-52251615D01*
X67704884Y-52214015D01*
X67761179Y-52200500D01*
X67769749Y-52200500D01*
X67799651Y-52194552D01*
X67828231Y-52188867D01*
X67894552Y-52144552D01*
X67938867Y-52078231D01*
X67944683Y-52048989D01*
X67950500Y-52019749D01*
X67950500Y-50524500D01*
X67967113Y-50462500D01*
X68012500Y-50417113D01*
X68074500Y-50400500D01*
X73258812Y-50400500D01*
X73306265Y-50409939D01*
G37*
%TD.AperFunction*%
%TA.AperFunction,Conductor*%
G36*
X52356265Y-50459939D02*
G01*
X52396493Y-50486819D01*
X52658126Y-50748452D01*
X52690729Y-50806003D01*
X52689106Y-50872128D01*
X52633975Y-51053869D01*
X52614659Y-51250000D01*
X52633976Y-51446133D01*
X52691185Y-51634726D01*
X52753627Y-51751546D01*
X52784090Y-51808538D01*
X52909117Y-51960883D01*
X53061462Y-52085910D01*
X53235273Y-52178814D01*
X53423868Y-52236024D01*
X53620000Y-52255341D01*
X53816132Y-52236024D01*
X54004727Y-52178814D01*
X54178538Y-52085910D01*
X54330883Y-51960883D01*
X54455910Y-51808538D01*
X54548814Y-51634727D01*
X54606024Y-51446132D01*
X54625341Y-51250000D01*
X54606024Y-51053868D01*
X54550892Y-50872126D01*
X54549270Y-50806003D01*
X54581871Y-50748454D01*
X54843510Y-50486816D01*
X54883736Y-50459939D01*
X54931189Y-50450500D01*
X55325500Y-50450500D01*
X55387500Y-50467113D01*
X55432887Y-50512500D01*
X55449500Y-50574500D01*
X55449500Y-52069749D01*
X55461132Y-52128230D01*
X55505447Y-52194552D01*
X55571769Y-52238867D01*
X55630251Y-52250500D01*
X55630252Y-52250500D01*
X56938812Y-52250500D01*
X56986265Y-52259939D01*
X57026493Y-52286819D01*
X57570950Y-52831276D01*
X57578258Y-52839250D01*
X57602545Y-52868194D01*
X57626594Y-52882079D01*
X57635256Y-52887080D01*
X57644379Y-52892892D01*
X57676201Y-52915174D01*
X57700891Y-52925400D01*
X57701953Y-52925587D01*
X57701955Y-52925588D01*
X57739161Y-52932147D01*
X57749676Y-52934478D01*
X57786194Y-52944264D01*
X57823824Y-52940971D01*
X57834631Y-52940500D01*
X63146664Y-52940500D01*
X63213004Y-52959738D01*
X63258759Y-53011483D01*
X63269731Y-53079679D01*
X63242517Y-53143165D01*
X63192731Y-53203828D01*
X63095233Y-53386235D01*
X63048590Y-53540000D01*
X65091410Y-53540000D01*
X65044766Y-53386235D01*
X64947268Y-53203828D01*
X64897483Y-53143165D01*
X64870269Y-53079679D01*
X64881241Y-53011483D01*
X64926996Y-52959738D01*
X64993336Y-52940500D01*
X66049667Y-52940500D01*
X66116007Y-52959738D01*
X66161762Y-53011483D01*
X66172734Y-53079679D01*
X66145520Y-53143165D01*
X66114089Y-53181463D01*
X66021185Y-53355273D01*
X65963976Y-53543866D01*
X65944659Y-53740000D01*
X65963976Y-53936133D01*
X66021185Y-54124726D01*
X66114089Y-54298537D01*
X66186554Y-54386835D01*
X66213768Y-54450321D01*
X66202796Y-54518517D01*
X66157041Y-54570262D01*
X66090701Y-54589500D01*
X65034370Y-54589500D01*
X64968030Y-54570262D01*
X64922275Y-54518517D01*
X64911303Y-54450321D01*
X64938517Y-54386835D01*
X64947268Y-54376171D01*
X65044766Y-54193764D01*
X65091410Y-54040000D01*
X63048590Y-54040000D01*
X63095233Y-54193764D01*
X63192731Y-54376171D01*
X63201483Y-54386835D01*
X63228697Y-54450321D01*
X63217725Y-54518517D01*
X63171970Y-54570262D01*
X63105630Y-54589500D01*
X57761189Y-54589500D01*
X57713736Y-54580061D01*
X57673508Y-54553181D01*
X57545337Y-54425010D01*
X57411872Y-54291546D01*
X57379270Y-54233995D01*
X57380894Y-54167870D01*
X57402560Y-54096446D01*
X57436024Y-53986132D01*
X57455341Y-53790000D01*
X57436024Y-53593868D01*
X57378814Y-53405273D01*
X57285910Y-53231462D01*
X57160883Y-53079117D01*
X57008538Y-52954090D01*
X56970687Y-52933858D01*
X56834726Y-52861185D01*
X56646133Y-52803976D01*
X56450000Y-52784659D01*
X56253866Y-52803976D01*
X56065273Y-52861185D01*
X55891463Y-52954089D01*
X55739117Y-53079117D01*
X55614089Y-53231463D01*
X55521185Y-53405273D01*
X55463976Y-53593866D01*
X55449583Y-53740000D01*
X55444659Y-53790000D01*
X55449706Y-53841241D01*
X55461775Y-53963784D01*
X55455123Y-54017712D01*
X55426053Y-54063619D01*
X54121546Y-55368126D01*
X54063994Y-55400729D01*
X53997870Y-55399106D01*
X53816130Y-55343975D01*
X53620000Y-55324659D01*
X53423866Y-55343976D01*
X53235273Y-55401185D01*
X53061463Y-55494089D01*
X52909117Y-55619117D01*
X52784090Y-55771461D01*
X52694563Y-55938954D01*
X52648954Y-55986858D01*
X52585205Y-56004500D01*
X48266189Y-56004500D01*
X48218736Y-55995061D01*
X48178508Y-55968181D01*
X47432011Y-55221685D01*
X47402273Y-55173862D01*
X47396753Y-55117818D01*
X47405682Y-55049999D01*
X47397614Y-54988716D01*
X47385044Y-54893238D01*
X47324536Y-54747159D01*
X47302786Y-54718814D01*
X47228282Y-54621717D01*
X47102840Y-54525463D01*
X46941680Y-54458709D01*
X46942159Y-54457550D01*
X46908130Y-54444262D01*
X46869233Y-54399537D01*
X46855538Y-54341868D01*
X46870176Y-54284430D01*
X46879279Y-54267401D01*
X46918639Y-54193764D01*
X46925437Y-54181046D01*
X46971047Y-54133141D01*
X47034795Y-54115500D01*
X51094300Y-54115500D01*
X51141753Y-54124939D01*
X51181981Y-54151819D01*
X51208861Y-54192047D01*
X51275464Y-54352841D01*
X51371717Y-54478282D01*
X51491589Y-54570262D01*
X51497159Y-54574536D01*
X51643238Y-54635044D01*
X51800000Y-54655682D01*
X51956762Y-54635044D01*
X52102841Y-54574536D01*
X52228282Y-54478282D01*
X52324536Y-54352841D01*
X52385044Y-54206762D01*
X52405682Y-54050000D01*
X52405700Y-54049864D01*
X52431764Y-53988646D01*
X52480138Y-53953740D01*
X52456450Y-53945785D01*
X52533624Y-53945785D01*
X52552033Y-53944276D01*
X52611611Y-53973899D01*
X52647299Y-54030053D01*
X52691185Y-54174726D01*
X52750020Y-54284797D01*
X52784090Y-54348538D01*
X52909117Y-54500883D01*
X53061462Y-54625910D01*
X53235273Y-54718814D01*
X53423868Y-54776024D01*
X53620000Y-54795341D01*
X53816132Y-54776024D01*
X54004727Y-54718814D01*
X54178538Y-54625910D01*
X54330883Y-54500883D01*
X54455910Y-54348538D01*
X54548814Y-54174727D01*
X54606024Y-53986132D01*
X54625341Y-53790000D01*
X54606024Y-53593868D01*
X54548814Y-53405273D01*
X54455910Y-53231462D01*
X54330883Y-53079117D01*
X54178538Y-52954090D01*
X54140687Y-52933858D01*
X54004726Y-52861185D01*
X53816133Y-52803976D01*
X53620000Y-52784659D01*
X53423866Y-52803976D01*
X53235273Y-52861185D01*
X53061463Y-52954089D01*
X52909117Y-53079117D01*
X52784089Y-53231463D01*
X52691185Y-53405273D01*
X52633976Y-53593866D01*
X52614659Y-53790000D01*
X52617692Y-53820800D01*
X52604773Y-53889249D01*
X52556990Y-53939933D01*
X52533624Y-53945785D01*
X52456450Y-53945785D01*
X52423387Y-53934682D01*
X52379728Y-53880405D01*
X52324536Y-53747159D01*
X52228282Y-53621717D01*
X52102840Y-53525463D01*
X51956762Y-53464956D01*
X51799999Y-53444317D01*
X51628342Y-53466916D01*
X51580065Y-53463752D01*
X51568807Y-53460735D01*
X51531180Y-53464028D01*
X51520372Y-53464500D01*
X47034795Y-53464500D01*
X46971046Y-53446858D01*
X46925437Y-53398954D01*
X46837164Y-53233808D01*
X46835910Y-53231462D01*
X46710883Y-53079117D01*
X46558538Y-52954090D01*
X46520687Y-52933858D01*
X46384726Y-52861185D01*
X46196133Y-52803976D01*
X46000000Y-52784659D01*
X45803866Y-52803976D01*
X45615273Y-52861185D01*
X45441463Y-52954089D01*
X45403165Y-52985520D01*
X45339679Y-53012734D01*
X45271483Y-53001762D01*
X45219738Y-52956007D01*
X45200500Y-52889667D01*
X45200500Y-52561188D01*
X45209939Y-52513735D01*
X45236819Y-52473507D01*
X45423507Y-52286819D01*
X45463735Y-52259939D01*
X45511188Y-52250500D01*
X46819749Y-52250500D01*
X46848989Y-52244683D01*
X46878231Y-52238867D01*
X46944552Y-52194552D01*
X46988867Y-52128231D01*
X47000500Y-52069748D01*
X47000500Y-50574500D01*
X47017113Y-50512500D01*
X47062500Y-50467113D01*
X47124500Y-50450500D01*
X52308812Y-50450500D01*
X52356265Y-50459939D01*
G37*
%TD.AperFunction*%
%TA.AperFunction,Conductor*%
G36*
X34908111Y-28340012D02*
G01*
X38545339Y-31977240D01*
X38549295Y-31981383D01*
X38603624Y-32040980D01*
X38667968Y-32089570D01*
X38672458Y-32093127D01*
X38728004Y-32139251D01*
X38734509Y-32144653D01*
X38747173Y-32151706D01*
X38751377Y-32154048D01*
X38765770Y-32163426D01*
X38781173Y-32175058D01*
X38853383Y-32211014D01*
X38858380Y-32213648D01*
X38928877Y-32252915D01*
X38947188Y-32259052D01*
X38963056Y-32265625D01*
X38980334Y-32274229D01*
X39057924Y-32296305D01*
X39063357Y-32297987D01*
X39139829Y-32323618D01*
X39158951Y-32326285D01*
X39175749Y-32329829D01*
X39194325Y-32335115D01*
X39202515Y-32335873D01*
X39274666Y-32342559D01*
X39280279Y-32343209D01*
X39360181Y-32354356D01*
X39440731Y-32350632D01*
X39446458Y-32350500D01*
X47701018Y-32350500D01*
X47767358Y-32369738D01*
X47813113Y-32421483D01*
X47824086Y-32489678D01*
X47796872Y-32553164D01*
X47747314Y-32613551D01*
X47649769Y-32796043D01*
X47589699Y-32994067D01*
X47569417Y-33199999D01*
X47589699Y-33405932D01*
X47594433Y-33421537D01*
X47649768Y-33603954D01*
X47747315Y-33786450D01*
X47790780Y-33839412D01*
X47878589Y-33946410D01*
X47918891Y-33979484D01*
X48038550Y-34077685D01*
X48221046Y-34175232D01*
X48419066Y-34235300D01*
X48625000Y-34255583D01*
X48830934Y-34235300D01*
X49028954Y-34175232D01*
X49211450Y-34077685D01*
X49371410Y-33946410D01*
X49502685Y-33786450D01*
X49600232Y-33603954D01*
X49660300Y-33405934D01*
X49680583Y-33200000D01*
X49660300Y-32994066D01*
X49600232Y-32796046D01*
X49502685Y-32613550D01*
X49453128Y-32553164D01*
X49425914Y-32489678D01*
X49436887Y-32421483D01*
X49482642Y-32369738D01*
X49548982Y-32350500D01*
X50241018Y-32350500D01*
X50307358Y-32369738D01*
X50353113Y-32421483D01*
X50364086Y-32489678D01*
X50336872Y-32553164D01*
X50287314Y-32613551D01*
X50189769Y-32796043D01*
X50129699Y-32994067D01*
X50109417Y-33199999D01*
X50129699Y-33405932D01*
X50134433Y-33421537D01*
X50189768Y-33603954D01*
X50287315Y-33786450D01*
X50330780Y-33839412D01*
X50418589Y-33946410D01*
X50458891Y-33979484D01*
X50578550Y-34077685D01*
X50761046Y-34175232D01*
X50959066Y-34235300D01*
X51165000Y-34255583D01*
X51370934Y-34235300D01*
X51568954Y-34175232D01*
X51751450Y-34077685D01*
X51911410Y-33946410D01*
X52042685Y-33786450D01*
X52140232Y-33603954D01*
X52200300Y-33405934D01*
X52220583Y-33200000D01*
X52200300Y-32994066D01*
X52140232Y-32796046D01*
X52042685Y-32613550D01*
X51993128Y-32553164D01*
X51965914Y-32489678D01*
X51976887Y-32421483D01*
X52022642Y-32369738D01*
X52088982Y-32350500D01*
X52781018Y-32350500D01*
X52847358Y-32369738D01*
X52893113Y-32421483D01*
X52904086Y-32489678D01*
X52876872Y-32553164D01*
X52827314Y-32613551D01*
X52729769Y-32796043D01*
X52669699Y-32994067D01*
X52649417Y-33199999D01*
X52669699Y-33405932D01*
X52674433Y-33421537D01*
X52729768Y-33603954D01*
X52827315Y-33786450D01*
X52870780Y-33839412D01*
X52958589Y-33946410D01*
X52998891Y-33979484D01*
X53118550Y-34077685D01*
X53301046Y-34175232D01*
X53499066Y-34235300D01*
X53705000Y-34255583D01*
X53910934Y-34235300D01*
X54108954Y-34175232D01*
X54291450Y-34077685D01*
X54451410Y-33946410D01*
X54582685Y-33786450D01*
X54680232Y-33603954D01*
X54740300Y-33405934D01*
X54747957Y-33328189D01*
X54773603Y-33264058D01*
X54829584Y-33223595D01*
X54898527Y-33219359D01*
X54959040Y-33252665D01*
X55021278Y-33314903D01*
X55045844Y-33349891D01*
X55057068Y-33391142D01*
X55059884Y-33421538D01*
X55120769Y-33635526D01*
X55219941Y-33834688D01*
X55354019Y-34012237D01*
X55518437Y-34162124D01*
X55707595Y-34279245D01*
X55707597Y-34279245D01*
X55707599Y-34279247D01*
X55915060Y-34359618D01*
X56133757Y-34400500D01*
X56356241Y-34400500D01*
X56356243Y-34400500D01*
X56574940Y-34359618D01*
X56782401Y-34279247D01*
X56971562Y-34162124D01*
X57135981Y-34012236D01*
X57270058Y-33834689D01*
X57369229Y-33635528D01*
X57371439Y-33627763D01*
X57430115Y-33421537D01*
X57445500Y-33255504D01*
X57445500Y-32871458D01*
X57445632Y-32865732D01*
X57445659Y-32865132D01*
X57449356Y-32785181D01*
X57446689Y-32766061D01*
X57445500Y-32748931D01*
X57445500Y-32546545D01*
X57454939Y-32499092D01*
X57481819Y-32458863D01*
X57553865Y-32386818D01*
X57594094Y-32359939D01*
X57641546Y-32350500D01*
X57861018Y-32350500D01*
X57927358Y-32369738D01*
X57973113Y-32421483D01*
X57984086Y-32489678D01*
X57956872Y-32553164D01*
X57907314Y-32613551D01*
X57809769Y-32796043D01*
X57749699Y-32994067D01*
X57729417Y-33199999D01*
X57749699Y-33405932D01*
X57754433Y-33421537D01*
X57809768Y-33603954D01*
X57907315Y-33786450D01*
X57950780Y-33839412D01*
X58038589Y-33946410D01*
X58078891Y-33979484D01*
X58198550Y-34077685D01*
X58381046Y-34175232D01*
X58579066Y-34235300D01*
X58785000Y-34255583D01*
X58990934Y-34235300D01*
X59188954Y-34175232D01*
X59371450Y-34077685D01*
X59531410Y-33946410D01*
X59662685Y-33786450D01*
X59760232Y-33603954D01*
X59806933Y-33450000D01*
X60225000Y-33450000D01*
X60225000Y-34074625D01*
X60239504Y-34147543D01*
X60294760Y-34230239D01*
X60377456Y-34285495D01*
X60450375Y-34300000D01*
X61075000Y-34300000D01*
X61075000Y-33450000D01*
X61575000Y-33450000D01*
X61575000Y-34300000D01*
X62199625Y-34300000D01*
X62272543Y-34285495D01*
X62355239Y-34230239D01*
X62410495Y-34147543D01*
X62425000Y-34074625D01*
X62425000Y-33450000D01*
X61575000Y-33450000D01*
X61075000Y-33450000D01*
X60225000Y-33450000D01*
X59806933Y-33450000D01*
X59820300Y-33405934D01*
X59840583Y-33200000D01*
X59820300Y-32994066D01*
X59760232Y-32796046D01*
X59662685Y-32613550D01*
X59613128Y-32553164D01*
X59585914Y-32489678D01*
X59596887Y-32421483D01*
X59642642Y-32369738D01*
X59708982Y-32350500D01*
X60101000Y-32350500D01*
X60163000Y-32367113D01*
X60208387Y-32412500D01*
X60225000Y-32474500D01*
X60225000Y-32950000D01*
X62425000Y-32950000D01*
X62425000Y-32474500D01*
X62441613Y-32412500D01*
X62487000Y-32367113D01*
X62549000Y-32350500D01*
X77051375Y-32350500D01*
X77098828Y-32359939D01*
X77139056Y-32386819D01*
X81254851Y-36502614D01*
X81288157Y-36563126D01*
X81283922Y-36632068D01*
X81243461Y-36688048D01*
X81179328Y-36713698D01*
X81164165Y-36715191D01*
X80966235Y-36775233D01*
X80783828Y-36872731D01*
X80623945Y-37003945D01*
X80492731Y-37163828D01*
X80395233Y-37346235D01*
X80348590Y-37500000D01*
X81496000Y-37500000D01*
X81558000Y-37516613D01*
X81603387Y-37562000D01*
X81620000Y-37624000D01*
X81620000Y-38771410D01*
X81773764Y-38724766D01*
X81956171Y-38627268D01*
X81966835Y-38618517D01*
X82030321Y-38591303D01*
X82098517Y-38602275D01*
X82150262Y-38648030D01*
X82169500Y-38714370D01*
X82169500Y-39389667D01*
X82150262Y-39456007D01*
X82098517Y-39501762D01*
X82030321Y-39512734D01*
X81966835Y-39485520D01*
X81928538Y-39454090D01*
X81851161Y-39412731D01*
X81754726Y-39361185D01*
X81566133Y-39303976D01*
X81370000Y-39284659D01*
X81173869Y-39303975D01*
X80992128Y-39359106D01*
X80926003Y-39360729D01*
X80868452Y-39328126D01*
X80489043Y-38948717D01*
X80481734Y-38940741D01*
X80457454Y-38911805D01*
X80424736Y-38892915D01*
X80415627Y-38887112D01*
X80384684Y-38865446D01*
X80383803Y-38864829D01*
X80359107Y-38854599D01*
X80320852Y-38847853D01*
X80310296Y-38845512D01*
X80273807Y-38835735D01*
X80236180Y-38839028D01*
X80225372Y-38839500D01*
X74829689Y-38839500D01*
X74765940Y-38821858D01*
X74720331Y-38773953D01*
X74705838Y-38709415D01*
X74726587Y-38646609D01*
X74738867Y-38628231D01*
X74750500Y-38569748D01*
X74750500Y-38000000D01*
X80348590Y-38000000D01*
X80395233Y-38153764D01*
X80492731Y-38336171D01*
X80623945Y-38496054D01*
X80783828Y-38627268D01*
X80966235Y-38724766D01*
X81120000Y-38771410D01*
X81120000Y-38000000D01*
X80348590Y-38000000D01*
X74750500Y-38000000D01*
X74750500Y-36930252D01*
X74738867Y-36871769D01*
X74705068Y-36821186D01*
X74694552Y-36805447D01*
X74628230Y-36761132D01*
X74569749Y-36749500D01*
X74569748Y-36749500D01*
X72930252Y-36749500D01*
X72930251Y-36749500D01*
X72871769Y-36761132D01*
X72805447Y-36805447D01*
X72761132Y-36871769D01*
X72749500Y-36930251D01*
X72749500Y-38569749D01*
X72761132Y-38628230D01*
X72773413Y-38646609D01*
X72794162Y-38709415D01*
X72779669Y-38773953D01*
X72734060Y-38821858D01*
X72670311Y-38839500D01*
X70264619Y-38839500D01*
X70253812Y-38839028D01*
X70251298Y-38838808D01*
X70216191Y-38835736D01*
X70179710Y-38845511D01*
X70169155Y-38847852D01*
X70157814Y-38849851D01*
X70131955Y-38854412D01*
X70131953Y-38854412D01*
X70130897Y-38854599D01*
X70106192Y-38864832D01*
X70074378Y-38887107D01*
X70065261Y-38892915D01*
X70032545Y-38911804D01*
X70008262Y-38940743D01*
X70000956Y-38948715D01*
X69621546Y-39328126D01*
X69563995Y-39360729D01*
X69497870Y-39359106D01*
X69316130Y-39303975D01*
X69120000Y-39284659D01*
X68923869Y-39303975D01*
X68742128Y-39359106D01*
X68676003Y-39360729D01*
X68618452Y-39328126D01*
X68239043Y-38948717D01*
X68231734Y-38940741D01*
X68207454Y-38911805D01*
X68174736Y-38892915D01*
X68165627Y-38887112D01*
X68134684Y-38865446D01*
X68133803Y-38864829D01*
X68109107Y-38854599D01*
X68070852Y-38847853D01*
X68060296Y-38845512D01*
X68023807Y-38835735D01*
X67986180Y-38839028D01*
X67975372Y-38839500D01*
X62579689Y-38839500D01*
X62515940Y-38821858D01*
X62470331Y-38773953D01*
X62455838Y-38709415D01*
X62476587Y-38646609D01*
X62488867Y-38628231D01*
X62500500Y-38569748D01*
X62500500Y-36930252D01*
X62488867Y-36871769D01*
X62455068Y-36821186D01*
X62444552Y-36805447D01*
X62378230Y-36761132D01*
X62319749Y-36749500D01*
X62319748Y-36749500D01*
X61011188Y-36749500D01*
X60963735Y-36740061D01*
X60923507Y-36713181D01*
X60722507Y-36512181D01*
X60692257Y-36462818D01*
X60687715Y-36405102D01*
X60709870Y-36351615D01*
X60753893Y-36314015D01*
X60810188Y-36300500D01*
X67158812Y-36300500D01*
X67206265Y-36309939D01*
X67246493Y-36336819D01*
X68158126Y-37248452D01*
X68190729Y-37306003D01*
X68189106Y-37372128D01*
X68133975Y-37553869D01*
X68114659Y-37750000D01*
X68133976Y-37946133D01*
X68191185Y-38134726D01*
X68191186Y-38134727D01*
X68284090Y-38308538D01*
X68409117Y-38460883D01*
X68561462Y-38585910D01*
X68735273Y-38678814D01*
X68923868Y-38736024D01*
X69120000Y-38755341D01*
X69316132Y-38736024D01*
X69504727Y-38678814D01*
X69678538Y-38585910D01*
X69830883Y-38460883D01*
X69955910Y-38308538D01*
X70048814Y-38134727D01*
X70106024Y-37946132D01*
X70125341Y-37750000D01*
X70106024Y-37553868D01*
X70048814Y-37365273D01*
X69955910Y-37191462D01*
X69830883Y-37039117D01*
X69678538Y-36914090D01*
X69599361Y-36871769D01*
X69504726Y-36821185D01*
X69316133Y-36763976D01*
X69120000Y-36744659D01*
X68923869Y-36763975D01*
X68742128Y-36819106D01*
X68676003Y-36820729D01*
X68618452Y-36788126D01*
X67589043Y-35758717D01*
X67581734Y-35750741D01*
X67557455Y-35721806D01*
X67557454Y-35721805D01*
X67524736Y-35702915D01*
X67515627Y-35697112D01*
X67484684Y-35675446D01*
X67483803Y-35674829D01*
X67459107Y-35664599D01*
X67420852Y-35657853D01*
X67410296Y-35655512D01*
X67373807Y-35645735D01*
X67336180Y-35649028D01*
X67325372Y-35649500D01*
X47286188Y-35649500D01*
X47238735Y-35640061D01*
X47198507Y-35613181D01*
X45519043Y-33933717D01*
X45511734Y-33925741D01*
X45487454Y-33896805D01*
X45454736Y-33877915D01*
X45445627Y-33872112D01*
X45414684Y-33850446D01*
X45413803Y-33849829D01*
X45389107Y-33839599D01*
X45350852Y-33832853D01*
X45340296Y-33830512D01*
X45303807Y-33820735D01*
X45266180Y-33824028D01*
X45255372Y-33824500D01*
X42804628Y-33824500D01*
X42793820Y-33824028D01*
X42756192Y-33820735D01*
X42719704Y-33830512D01*
X42709148Y-33832852D01*
X42670899Y-33839597D01*
X42646193Y-33849831D01*
X42614380Y-33872106D01*
X42605264Y-33877914D01*
X42572545Y-33896805D01*
X42548262Y-33925744D01*
X42540956Y-33933716D01*
X42136546Y-34338126D01*
X42078994Y-34370729D01*
X42012870Y-34369106D01*
X41831130Y-34313975D01*
X41635000Y-34294659D01*
X41438866Y-34313976D01*
X41250273Y-34371185D01*
X41076463Y-34464089D01*
X40924117Y-34589117D01*
X40799089Y-34741463D01*
X40706185Y-34915273D01*
X40648976Y-35103866D01*
X40629659Y-35300000D01*
X40648976Y-35496133D01*
X40706185Y-35684726D01*
X40768628Y-35801547D01*
X40799090Y-35858538D01*
X40830520Y-35896835D01*
X40857734Y-35960321D01*
X40846762Y-36028517D01*
X40801007Y-36080262D01*
X40734667Y-36099500D01*
X40406189Y-36099500D01*
X40358736Y-36090061D01*
X40318508Y-36063181D01*
X40056873Y-35801547D01*
X40024270Y-35743995D01*
X40025894Y-35677870D01*
X40026629Y-35675446D01*
X40081024Y-35496132D01*
X40100341Y-35300000D01*
X40081024Y-35103868D01*
X40023814Y-34915273D01*
X39930910Y-34741462D01*
X39805883Y-34589117D01*
X39653538Y-34464090D01*
X39534570Y-34400500D01*
X39479726Y-34371185D01*
X39291133Y-34313976D01*
X39095000Y-34294659D01*
X38898866Y-34313976D01*
X38710273Y-34371185D01*
X38536463Y-34464089D01*
X38384117Y-34589117D01*
X38259089Y-34741463D01*
X38166185Y-34915273D01*
X38108976Y-35103866D01*
X38089659Y-35300000D01*
X38108976Y-35496133D01*
X38166185Y-35684726D01*
X38228628Y-35801547D01*
X38259090Y-35858538D01*
X38384117Y-36010883D01*
X38536462Y-36135910D01*
X38710273Y-36228814D01*
X38898868Y-36286024D01*
X39095000Y-36305341D01*
X39291132Y-36286024D01*
X39472870Y-36230893D01*
X39538995Y-36229270D01*
X39596546Y-36261872D01*
X39794157Y-36459484D01*
X39975955Y-36641282D01*
X39983263Y-36649256D01*
X40007545Y-36678194D01*
X40040266Y-36697085D01*
X40049360Y-36702878D01*
X40080316Y-36724554D01*
X40080317Y-36724554D01*
X40081201Y-36725173D01*
X40105891Y-36735400D01*
X40106954Y-36735587D01*
X40106955Y-36735588D01*
X40144146Y-36742145D01*
X40154704Y-36744486D01*
X40191191Y-36754263D01*
X40191192Y-36754262D01*
X40191193Y-36754263D01*
X40228811Y-36750971D01*
X40239618Y-36750500D01*
X47884161Y-36750500D01*
X47937178Y-36762405D01*
X47980015Y-36795836D01*
X48004445Y-36844372D01*
X48005777Y-36898690D01*
X48002715Y-36914089D01*
X47999500Y-36930253D01*
X47999500Y-38569749D01*
X48011132Y-38628230D01*
X48055447Y-38694552D01*
X48121769Y-38738867D01*
X48180251Y-38750500D01*
X48180252Y-38750500D01*
X49819748Y-38750500D01*
X49819749Y-38750500D01*
X49848989Y-38744683D01*
X49878231Y-38738867D01*
X49944552Y-38694552D01*
X49988867Y-38628231D01*
X50000500Y-38569748D01*
X50000500Y-36930252D01*
X49994222Y-36898690D01*
X49995555Y-36844372D01*
X50019985Y-36795836D01*
X50062822Y-36762405D01*
X50115839Y-36750500D01*
X55914241Y-36750500D01*
X55972694Y-36765142D01*
X56017343Y-36805609D01*
X56037644Y-36862345D01*
X56028802Y-36921952D01*
X55992906Y-36970353D01*
X55909117Y-37039117D01*
X55784089Y-37191463D01*
X55691185Y-37365273D01*
X55633976Y-37553866D01*
X55614659Y-37750000D01*
X55633976Y-37946133D01*
X55691185Y-38134726D01*
X55691186Y-38134727D01*
X55784090Y-38308538D01*
X55909117Y-38460883D01*
X56061462Y-38585910D01*
X56235273Y-38678814D01*
X56423868Y-38736024D01*
X56620000Y-38755341D01*
X56816132Y-38736024D01*
X57004727Y-38678814D01*
X57178538Y-38585910D01*
X57330883Y-38460883D01*
X57455910Y-38308538D01*
X57548814Y-38134727D01*
X57606024Y-37946132D01*
X57625341Y-37750000D01*
X57606024Y-37553868D01*
X57548814Y-37365273D01*
X57455910Y-37191462D01*
X57330883Y-37039117D01*
X57247093Y-36970352D01*
X57211198Y-36921952D01*
X57202356Y-36862345D01*
X57222657Y-36805609D01*
X57267306Y-36765142D01*
X57325759Y-36750500D01*
X59988812Y-36750500D01*
X60036265Y-36759939D01*
X60076493Y-36786819D01*
X60463181Y-37173507D01*
X60490061Y-37213735D01*
X60499500Y-37261188D01*
X60499500Y-38569749D01*
X60511132Y-38628230D01*
X60523413Y-38646609D01*
X60544162Y-38709415D01*
X60529669Y-38773953D01*
X60484060Y-38821858D01*
X60420311Y-38839500D01*
X57764619Y-38839500D01*
X57753812Y-38839028D01*
X57751298Y-38838808D01*
X57716191Y-38835736D01*
X57679710Y-38845511D01*
X57669155Y-38847852D01*
X57657814Y-38849851D01*
X57631955Y-38854412D01*
X57631953Y-38854412D01*
X57630897Y-38854599D01*
X57606192Y-38864832D01*
X57574378Y-38887107D01*
X57565261Y-38892915D01*
X57532545Y-38911804D01*
X57508262Y-38940743D01*
X57500956Y-38948715D01*
X57121546Y-39328126D01*
X57063995Y-39360729D01*
X56997870Y-39359106D01*
X56816130Y-39303975D01*
X56620000Y-39284659D01*
X56423866Y-39303976D01*
X56235273Y-39361185D01*
X56061463Y-39454089D01*
X55909117Y-39579117D01*
X55784090Y-39731461D01*
X55694563Y-39898954D01*
X55648954Y-39946858D01*
X55585205Y-39964500D01*
X54581126Y-39964500D01*
X54526282Y-39951712D01*
X54482750Y-39915986D01*
X54448782Y-39871717D01*
X54323340Y-39775463D01*
X54177262Y-39714956D01*
X54020500Y-39694317D01*
X53863737Y-39714956D01*
X53717659Y-39775463D01*
X53592217Y-39871717D01*
X53495963Y-39997159D01*
X53435456Y-40143237D01*
X53414817Y-40300000D01*
X53423746Y-40367818D01*
X53418226Y-40423862D01*
X53388488Y-40471684D01*
X52806993Y-41053181D01*
X52766765Y-41080061D01*
X52719312Y-41089500D01*
X49964370Y-41089500D01*
X49898030Y-41070262D01*
X49852275Y-41018517D01*
X49841303Y-40950321D01*
X49868517Y-40886835D01*
X49877268Y-40876171D01*
X49974766Y-40693764D01*
X50021410Y-40540000D01*
X47978590Y-40540000D01*
X48025233Y-40693764D01*
X48122731Y-40876171D01*
X48131483Y-40886835D01*
X48158697Y-40950321D01*
X48147725Y-41018517D01*
X48101970Y-41070262D01*
X48035630Y-41089500D01*
X45699616Y-41089500D01*
X45688808Y-41089028D01*
X45651193Y-41085736D01*
X45614716Y-41095510D01*
X45604162Y-41097849D01*
X45565905Y-41104595D01*
X45541190Y-41114834D01*
X45509377Y-41137108D01*
X45500261Y-41142915D01*
X45467545Y-41161804D01*
X45443262Y-41190743D01*
X45435956Y-41198715D01*
X44676546Y-41958126D01*
X44618995Y-41990729D01*
X44552870Y-41989106D01*
X44371130Y-41933975D01*
X44175000Y-41914659D01*
X43978866Y-41933976D01*
X43790273Y-41991185D01*
X43616463Y-42084089D01*
X43464117Y-42209117D01*
X43339089Y-42361463D01*
X43246185Y-42535273D01*
X43188976Y-42723866D01*
X43169659Y-42919999D01*
X43188976Y-43116133D01*
X43246185Y-43304726D01*
X43327091Y-43456091D01*
X43339090Y-43478538D01*
X43464117Y-43630883D01*
X43616462Y-43755910D01*
X43790273Y-43848814D01*
X43978868Y-43906024D01*
X44175000Y-43925341D01*
X44371132Y-43906024D01*
X44559727Y-43848814D01*
X44733538Y-43755910D01*
X44885883Y-43630883D01*
X45010910Y-43478538D01*
X45103814Y-43304727D01*
X45161024Y-43116132D01*
X45180341Y-42920000D01*
X45161024Y-42723868D01*
X45105892Y-42542126D01*
X45104270Y-42476004D01*
X45136873Y-42418452D01*
X45269859Y-42285467D01*
X45610093Y-41945233D01*
X45778508Y-41776819D01*
X45818736Y-41749939D01*
X45866189Y-41740500D01*
X48420860Y-41740500D01*
X48483562Y-41757521D01*
X48529050Y-41803911D01*
X48544836Y-41866935D01*
X48526587Y-41929290D01*
X48479313Y-41973858D01*
X48441463Y-41994089D01*
X48289117Y-42119117D01*
X48164089Y-42271463D01*
X48071185Y-42445273D01*
X48013976Y-42633866D01*
X47994659Y-42830000D01*
X48013976Y-43026133D01*
X48071185Y-43214726D01*
X48130013Y-43324785D01*
X48164090Y-43388538D01*
X48289117Y-43540883D01*
X48441462Y-43665910D01*
X48615273Y-43758814D01*
X48803868Y-43816024D01*
X49000000Y-43835341D01*
X49196132Y-43816024D01*
X49384727Y-43758814D01*
X49558538Y-43665910D01*
X49710883Y-43540883D01*
X49835910Y-43388538D01*
X49901299Y-43266204D01*
X49925437Y-43221046D01*
X49971046Y-43173142D01*
X50034795Y-43155500D01*
X52107269Y-43155500D01*
X52118076Y-43155971D01*
X52155703Y-43159264D01*
X52192220Y-43149478D01*
X52202726Y-43147149D01*
X52239941Y-43140588D01*
X52239943Y-43140586D01*
X52241008Y-43140399D01*
X52265695Y-43130173D01*
X52266578Y-43129554D01*
X52266580Y-43129554D01*
X52297521Y-43107887D01*
X52306618Y-43102091D01*
X52339351Y-43083194D01*
X52363644Y-43054241D01*
X52370931Y-43046289D01*
X53350403Y-42066819D01*
X53390632Y-42039939D01*
X53438085Y-42030500D01*
X55719667Y-42030500D01*
X55786007Y-42049738D01*
X55831762Y-42101483D01*
X55842734Y-42169679D01*
X55815520Y-42233165D01*
X55784089Y-42271463D01*
X55691185Y-42445273D01*
X55633976Y-42633866D01*
X55614659Y-42830000D01*
X55633976Y-43026133D01*
X55691185Y-43214726D01*
X55750013Y-43324785D01*
X55784090Y-43388538D01*
X55909117Y-43540883D01*
X56061462Y-43665910D01*
X56235273Y-43758814D01*
X56423868Y-43816024D01*
X56620000Y-43835341D01*
X56816132Y-43816024D01*
X57004727Y-43758814D01*
X57178538Y-43665910D01*
X57330883Y-43540883D01*
X57455910Y-43388538D01*
X57548814Y-43214727D01*
X57606024Y-43026132D01*
X57625341Y-42830000D01*
X57606024Y-42633868D01*
X57548814Y-42445273D01*
X57455910Y-42271462D01*
X57424479Y-42233164D01*
X57397266Y-42169679D01*
X57408238Y-42101483D01*
X57453993Y-42049738D01*
X57520333Y-42030500D01*
X60599667Y-42030500D01*
X60666007Y-42049738D01*
X60711762Y-42101483D01*
X60722734Y-42169679D01*
X60695520Y-42233165D01*
X60664089Y-42271463D01*
X60571185Y-42445273D01*
X60513976Y-42633866D01*
X60494659Y-42830000D01*
X60513976Y-43026133D01*
X60571185Y-43214726D01*
X60630013Y-43324785D01*
X60664090Y-43388538D01*
X60789117Y-43540883D01*
X60941462Y-43665910D01*
X61115273Y-43758814D01*
X61303868Y-43816024D01*
X61500000Y-43835341D01*
X61696132Y-43816024D01*
X61884727Y-43758814D01*
X62058538Y-43665910D01*
X62210883Y-43540883D01*
X62335910Y-43388538D01*
X62367873Y-43328738D01*
X62402553Y-43288201D01*
X62451054Y-43265986D01*
X62504401Y-43266204D01*
X62552716Y-43288813D01*
X62596289Y-43322248D01*
X62742368Y-43382756D01*
X62899130Y-43403394D01*
X63055892Y-43382756D01*
X63201971Y-43322248D01*
X63327412Y-43225994D01*
X63331209Y-43221046D01*
X63344278Y-43204014D01*
X63387810Y-43168288D01*
X63442654Y-43155500D01*
X68085205Y-43155500D01*
X68148954Y-43173142D01*
X68194563Y-43221046D01*
X68263583Y-43350173D01*
X68284090Y-43388538D01*
X68409117Y-43540883D01*
X68561462Y-43665910D01*
X68735273Y-43758814D01*
X68923868Y-43816024D01*
X69120000Y-43835341D01*
X69316132Y-43816024D01*
X69504727Y-43758814D01*
X69678538Y-43665910D01*
X69830883Y-43540883D01*
X69955910Y-43388538D01*
X70048814Y-43214727D01*
X70106024Y-43026132D01*
X70125341Y-42830000D01*
X70106024Y-42633868D01*
X70048814Y-42445273D01*
X69955910Y-42271462D01*
X69924479Y-42233164D01*
X69897266Y-42169679D01*
X69908238Y-42101483D01*
X69953993Y-42049738D01*
X70020333Y-42030500D01*
X72849667Y-42030500D01*
X72916007Y-42049738D01*
X72961762Y-42101483D01*
X72972734Y-42169679D01*
X72945520Y-42233165D01*
X72914089Y-42271463D01*
X72821185Y-42445273D01*
X72763976Y-42633866D01*
X72744659Y-42830000D01*
X72763975Y-43026131D01*
X72819105Y-43207870D01*
X72820728Y-43273995D01*
X72788125Y-43331546D01*
X71931493Y-44188181D01*
X71891265Y-44215061D01*
X71843812Y-44224500D01*
X52618299Y-44224500D01*
X52563455Y-44211712D01*
X52519923Y-44175986D01*
X52478281Y-44121717D01*
X52352840Y-44025463D01*
X52206762Y-43964956D01*
X52050000Y-43944317D01*
X51893237Y-43964956D01*
X51747159Y-44025463D01*
X51621717Y-44121717D01*
X51525463Y-44247159D01*
X51464956Y-44393237D01*
X51444317Y-44549999D01*
X51464956Y-44706762D01*
X51494483Y-44778048D01*
X51503325Y-44837655D01*
X51483024Y-44894391D01*
X51438375Y-44934858D01*
X51379922Y-44949500D01*
X41211188Y-44949500D01*
X41163735Y-44940061D01*
X41123507Y-44913181D01*
X40932011Y-44721685D01*
X40902273Y-44673862D01*
X40896753Y-44617818D01*
X40905682Y-44549999D01*
X40898725Y-44497159D01*
X40885044Y-44393238D01*
X40824536Y-44247159D01*
X40807149Y-44224500D01*
X40728282Y-44121717D01*
X40602840Y-44025463D01*
X40456762Y-43964956D01*
X40300000Y-43944317D01*
X40143237Y-43964956D01*
X39997159Y-44025463D01*
X39871717Y-44121717D01*
X39775463Y-44247159D01*
X39714956Y-44393237D01*
X39694317Y-44549999D01*
X39714956Y-44706762D01*
X39775463Y-44852840D01*
X39871717Y-44978282D01*
X39997158Y-45074535D01*
X39997159Y-45074536D01*
X40143238Y-45135044D01*
X40274106Y-45152273D01*
X40299999Y-45155682D01*
X40299999Y-45155681D01*
X40300000Y-45155682D01*
X40367818Y-45146753D01*
X40423862Y-45152273D01*
X40471685Y-45182011D01*
X40780950Y-45491276D01*
X40788258Y-45499250D01*
X40812545Y-45528194D01*
X40836594Y-45542079D01*
X40845256Y-45547080D01*
X40854379Y-45552892D01*
X40885316Y-45574554D01*
X40885317Y-45574554D01*
X40886198Y-45575171D01*
X40910891Y-45585400D01*
X40911954Y-45585587D01*
X40911955Y-45585588D01*
X40949143Y-45592145D01*
X40959701Y-45594485D01*
X40996193Y-45604264D01*
X41033823Y-45600971D01*
X41044630Y-45600500D01*
X54799215Y-45600500D01*
X54857668Y-45615142D01*
X54902317Y-45655609D01*
X54922618Y-45712345D01*
X54913776Y-45771952D01*
X54884456Y-45842737D01*
X54863817Y-45999499D01*
X54884456Y-46156262D01*
X54945256Y-46303048D01*
X54954098Y-46362655D01*
X54933797Y-46419391D01*
X54889148Y-46459858D01*
X54830695Y-46474500D01*
X40486188Y-46474500D01*
X40438735Y-46465061D01*
X40398507Y-46438181D01*
X38932011Y-44971685D01*
X38902273Y-44923862D01*
X38896753Y-44867818D01*
X38900724Y-44837655D01*
X38905682Y-44800000D01*
X38903994Y-44787182D01*
X38901747Y-44770110D01*
X38885044Y-44643238D01*
X38824536Y-44497159D01*
X38744795Y-44393238D01*
X38728282Y-44371717D01*
X38602840Y-44275463D01*
X38456762Y-44214956D01*
X38300000Y-44194317D01*
X38143237Y-44214956D01*
X37997159Y-44275463D01*
X37871717Y-44371717D01*
X37775463Y-44497159D01*
X37714956Y-44643237D01*
X37694317Y-44799999D01*
X37714956Y-44956762D01*
X37775463Y-45102840D01*
X37871717Y-45228282D01*
X37965183Y-45300000D01*
X37997159Y-45324536D01*
X38143238Y-45385044D01*
X38274106Y-45402273D01*
X38299999Y-45405682D01*
X38299999Y-45405681D01*
X38300000Y-45405682D01*
X38367818Y-45396753D01*
X38423862Y-45402273D01*
X38471685Y-45432011D01*
X40055950Y-47016276D01*
X40063258Y-47024250D01*
X40087545Y-47053194D01*
X40111594Y-47067079D01*
X40120256Y-47072080D01*
X40129379Y-47077892D01*
X40160316Y-47099554D01*
X40160317Y-47099554D01*
X40161198Y-47100171D01*
X40185891Y-47110400D01*
X40186954Y-47110587D01*
X40186955Y-47110588D01*
X40224146Y-47117145D01*
X40234704Y-47119486D01*
X40271191Y-47129263D01*
X40271192Y-47129262D01*
X40271193Y-47129263D01*
X40308811Y-47125971D01*
X40319618Y-47125500D01*
X49379715Y-47125500D01*
X49438168Y-47140142D01*
X49482817Y-47180609D01*
X49503118Y-47237345D01*
X49494276Y-47296952D01*
X49464956Y-47367737D01*
X49444317Y-47524500D01*
X49464956Y-47681262D01*
X49525463Y-47827340D01*
X49621717Y-47952782D01*
X49747159Y-48049036D01*
X49893238Y-48109544D01*
X50050000Y-48130182D01*
X50206762Y-48109544D01*
X50352841Y-48049036D01*
X50478282Y-47952782D01*
X50519923Y-47898513D01*
X50563455Y-47862788D01*
X50618299Y-47850000D01*
X63188312Y-47850000D01*
X63235765Y-47859439D01*
X63275993Y-47886319D01*
X64417988Y-49028314D01*
X64447726Y-49076136D01*
X64453246Y-49132180D01*
X64444317Y-49199999D01*
X64464956Y-49356762D01*
X64525463Y-49502840D01*
X64621717Y-49628282D01*
X64705065Y-49692236D01*
X64747159Y-49724536D01*
X64850048Y-49767154D01*
X64898448Y-49803050D01*
X64924212Y-49857524D01*
X64921256Y-49917710D01*
X64890276Y-49969396D01*
X64571546Y-50288126D01*
X64513994Y-50320729D01*
X64447870Y-50319106D01*
X64266130Y-50263975D01*
X64091426Y-50246769D01*
X64070000Y-50244659D01*
X64069999Y-50244659D01*
X63873869Y-50263975D01*
X63692128Y-50319106D01*
X63626003Y-50320729D01*
X63568452Y-50288126D01*
X63189043Y-49908717D01*
X63181734Y-49900741D01*
X63157454Y-49871805D01*
X63124736Y-49852915D01*
X63115627Y-49847112D01*
X63084684Y-49825446D01*
X63083803Y-49824829D01*
X63059107Y-49814599D01*
X63020852Y-49807853D01*
X63010296Y-49805512D01*
X62973807Y-49795735D01*
X62936180Y-49799028D01*
X62925372Y-49799500D01*
X54764619Y-49799500D01*
X54753812Y-49799028D01*
X54751298Y-49798808D01*
X54716191Y-49795736D01*
X54679710Y-49805511D01*
X54669155Y-49807852D01*
X54657814Y-49809851D01*
X54631955Y-49814412D01*
X54631953Y-49814412D01*
X54630897Y-49814599D01*
X54606192Y-49824832D01*
X54574378Y-49847107D01*
X54565261Y-49852915D01*
X54532545Y-49871804D01*
X54508262Y-49900743D01*
X54500956Y-49908715D01*
X54121546Y-50288126D01*
X54063995Y-50320729D01*
X53997870Y-50319106D01*
X53816130Y-50263975D01*
X53641426Y-50246769D01*
X53620000Y-50244659D01*
X53619999Y-50244659D01*
X53423869Y-50263975D01*
X53242128Y-50319106D01*
X53176003Y-50320729D01*
X53118452Y-50288126D01*
X52739043Y-49908717D01*
X52731734Y-49900741D01*
X52707454Y-49871805D01*
X52674736Y-49852915D01*
X52665627Y-49847112D01*
X52634684Y-49825446D01*
X52633803Y-49824829D01*
X52609107Y-49814599D01*
X52570852Y-49807853D01*
X52560296Y-49805512D01*
X52523807Y-49795735D01*
X52486180Y-49799028D01*
X52475372Y-49799500D01*
X44214619Y-49799500D01*
X44203812Y-49799028D01*
X44201298Y-49798808D01*
X44166191Y-49795736D01*
X44129710Y-49805511D01*
X44119155Y-49807852D01*
X44107814Y-49809851D01*
X44081955Y-49814412D01*
X44081953Y-49814412D01*
X44080897Y-49814599D01*
X44056192Y-49824832D01*
X44024378Y-49847107D01*
X44015261Y-49852915D01*
X43982545Y-49871804D01*
X43958262Y-49900743D01*
X43950956Y-49908715D01*
X43571546Y-50288126D01*
X43513995Y-50320729D01*
X43447870Y-50319106D01*
X43266130Y-50263975D01*
X43091426Y-50246769D01*
X43070000Y-50244659D01*
X43069999Y-50244659D01*
X42873866Y-50263976D01*
X42685273Y-50321185D01*
X42511463Y-50414089D01*
X42359117Y-50539117D01*
X42234089Y-50691463D01*
X42141185Y-50865273D01*
X42083976Y-51053866D01*
X42064659Y-51250000D01*
X42083975Y-51446130D01*
X42139106Y-51627870D01*
X42140729Y-51693994D01*
X42108126Y-51751546D01*
X41846490Y-52013183D01*
X41806265Y-52040061D01*
X41758812Y-52049500D01*
X36574500Y-52049500D01*
X36512500Y-52032887D01*
X36467113Y-51987500D01*
X36450500Y-51925500D01*
X36450500Y-50430251D01*
X36438867Y-50371769D01*
X36415845Y-50337315D01*
X36401663Y-50316091D01*
X36380915Y-50253286D01*
X36395408Y-50188748D01*
X36441017Y-50140843D01*
X36504766Y-50123201D01*
X40481701Y-50123201D01*
X40536545Y-50135989D01*
X40580076Y-50171714D01*
X40621718Y-50225983D01*
X40747159Y-50322237D01*
X40893238Y-50382745D01*
X41050000Y-50403383D01*
X41206762Y-50382745D01*
X41352841Y-50322237D01*
X41478282Y-50225983D01*
X41574536Y-50100542D01*
X41635044Y-49954463D01*
X41655682Y-49797701D01*
X41635044Y-49640939D01*
X41574536Y-49494860D01*
X41574170Y-49494383D01*
X41478282Y-49369418D01*
X41352840Y-49273164D01*
X41206762Y-49212657D01*
X41050000Y-49192018D01*
X40893237Y-49212657D01*
X40747159Y-49273164D01*
X40621718Y-49369418D01*
X40580077Y-49423687D01*
X40536545Y-49459413D01*
X40481701Y-49472201D01*
X36221927Y-49472201D01*
X36211119Y-49471729D01*
X36173491Y-49468436D01*
X36137003Y-49478213D01*
X36126447Y-49480553D01*
X36088198Y-49487298D01*
X36063492Y-49497532D01*
X36031679Y-49519807D01*
X36022563Y-49525615D01*
X35989844Y-49544506D01*
X35965561Y-49573445D01*
X35958255Y-49581417D01*
X35326493Y-50213181D01*
X35286265Y-50240061D01*
X35238812Y-50249500D01*
X34630251Y-50249500D01*
X34571769Y-50261132D01*
X34505447Y-50305447D01*
X34461132Y-50371769D01*
X34449500Y-50430251D01*
X34449500Y-51097520D01*
X34445275Y-51129614D01*
X34420735Y-51221193D01*
X34430741Y-51335544D01*
X34437882Y-51350858D01*
X34449500Y-51403263D01*
X34449500Y-51925500D01*
X34432887Y-51987500D01*
X34387500Y-52032887D01*
X34325500Y-52049500D01*
X33546188Y-52049500D01*
X33498735Y-52040061D01*
X33458507Y-52013181D01*
X33201613Y-51756287D01*
X33173239Y-51712277D01*
X33165561Y-51660478D01*
X33173895Y-51631312D01*
X33171686Y-51630642D01*
X33175230Y-51618956D01*
X33175232Y-51618954D01*
X33235300Y-51420934D01*
X33255583Y-51215000D01*
X33235300Y-51009066D01*
X33175232Y-50811046D01*
X33077685Y-50628550D01*
X32982446Y-50512500D01*
X32946410Y-50468589D01*
X32841806Y-50382744D01*
X32786450Y-50337315D01*
X32626885Y-50252025D01*
X32603956Y-50239769D01*
X32603955Y-50239768D01*
X32603954Y-50239768D01*
X32455248Y-50194659D01*
X32405932Y-50179699D01*
X32200000Y-50159417D01*
X31994067Y-50179699D01*
X31796043Y-50239769D01*
X31613551Y-50337314D01*
X31453589Y-50468589D01*
X31322314Y-50628551D01*
X31224769Y-50811043D01*
X31164699Y-51009067D01*
X31144417Y-51215000D01*
X31164699Y-51420932D01*
X31184860Y-51487395D01*
X31217184Y-51593954D01*
X31224769Y-51618956D01*
X31233198Y-51634726D01*
X31322315Y-51801450D01*
X31342868Y-51826494D01*
X31453589Y-51961410D01*
X31524675Y-52019748D01*
X31613550Y-52092685D01*
X31796046Y-52190232D01*
X31994066Y-52250300D01*
X32200000Y-52270583D01*
X32405934Y-52250300D01*
X32603954Y-52190232D01*
X32603956Y-52190230D01*
X32615642Y-52186686D01*
X32616312Y-52188895D01*
X32645478Y-52180561D01*
X32697277Y-52188239D01*
X32741287Y-52216613D01*
X33115950Y-52591276D01*
X33123258Y-52599250D01*
X33147545Y-52628194D01*
X33171594Y-52642079D01*
X33180256Y-52647080D01*
X33189379Y-52652892D01*
X33220316Y-52674554D01*
X33220317Y-52674554D01*
X33221198Y-52675171D01*
X33245891Y-52685400D01*
X33246954Y-52685587D01*
X33246955Y-52685588D01*
X33284143Y-52692145D01*
X33294701Y-52694485D01*
X33331193Y-52704264D01*
X33368823Y-52700971D01*
X33379630Y-52700500D01*
X34870860Y-52700500D01*
X34933562Y-52717521D01*
X34979050Y-52763911D01*
X34994836Y-52826935D01*
X34976587Y-52889290D01*
X34929313Y-52933858D01*
X34891463Y-52954089D01*
X34739117Y-53079117D01*
X34614089Y-53231463D01*
X34521185Y-53405273D01*
X34463976Y-53593866D01*
X34444659Y-53790000D01*
X34463976Y-53986133D01*
X34521185Y-54174726D01*
X34580020Y-54284797D01*
X34614090Y-54348538D01*
X34739117Y-54500883D01*
X34891462Y-54625910D01*
X34918219Y-54640212D01*
X34929313Y-54646142D01*
X34976587Y-54690710D01*
X34994836Y-54753065D01*
X34979050Y-54816089D01*
X34933562Y-54862479D01*
X34870860Y-54879500D01*
X33309628Y-54879500D01*
X33298820Y-54879028D01*
X33261192Y-54875735D01*
X33224704Y-54885512D01*
X33214148Y-54887852D01*
X33175899Y-54894597D01*
X33151193Y-54904831D01*
X33119380Y-54927106D01*
X33110264Y-54932914D01*
X33077545Y-54951805D01*
X33053262Y-54980744D01*
X33045956Y-54988716D01*
X32741287Y-55293385D01*
X32697300Y-55321751D01*
X32645528Y-55329441D01*
X32616310Y-55321107D01*
X32615641Y-55323313D01*
X32405933Y-55259699D01*
X32240924Y-55243447D01*
X32176790Y-55217798D01*
X32136327Y-55161817D01*
X32132092Y-55092874D01*
X32165396Y-55032365D01*
X32209255Y-54988507D01*
X32244240Y-54963944D01*
X32285489Y-54952721D01*
X32421536Y-54940115D01*
X32561844Y-54900194D01*
X32635526Y-54879230D01*
X32685734Y-54854229D01*
X32834689Y-54780058D01*
X33012236Y-54645981D01*
X33020329Y-54637104D01*
X33162124Y-54481562D01*
X33181283Y-54450619D01*
X33279247Y-54292401D01*
X33359618Y-54084940D01*
X33400500Y-53866243D01*
X33400500Y-53643757D01*
X33359618Y-53425060D01*
X33279247Y-53217599D01*
X33279245Y-53217595D01*
X33162124Y-53028437D01*
X33012237Y-52864019D01*
X32834688Y-52729941D01*
X32635526Y-52630769D01*
X32421537Y-52569884D01*
X32255504Y-52554500D01*
X32255503Y-52554500D01*
X31775595Y-52554500D01*
X31769869Y-52554368D01*
X31766023Y-52554190D01*
X31689318Y-52550644D01*
X31689316Y-52550644D01*
X31670199Y-52553311D01*
X31653069Y-52554500D01*
X31546544Y-52554500D01*
X31499091Y-52545061D01*
X31458863Y-52518181D01*
X28171819Y-49231137D01*
X28144939Y-49190909D01*
X28135500Y-49143456D01*
X28135500Y-48925000D01*
X31100000Y-48925000D01*
X31100000Y-49549625D01*
X31114504Y-49622543D01*
X31169760Y-49705239D01*
X31252456Y-49760495D01*
X31325375Y-49775000D01*
X31950000Y-49775000D01*
X31950000Y-48925000D01*
X32450000Y-48925000D01*
X32450000Y-49775000D01*
X33074625Y-49775000D01*
X33147543Y-49760495D01*
X33230239Y-49705239D01*
X33285495Y-49622543D01*
X33300000Y-49549625D01*
X33300000Y-48925000D01*
X32450000Y-48925000D01*
X31950000Y-48925000D01*
X31100000Y-48925000D01*
X28135500Y-48925000D01*
X28135500Y-48425000D01*
X31100000Y-48425000D01*
X31950000Y-48425000D01*
X31950000Y-47575000D01*
X32450000Y-47575000D01*
X32450000Y-48425000D01*
X33300000Y-48425000D01*
X33300000Y-47800375D01*
X33285495Y-47727456D01*
X33230239Y-47644760D01*
X33147543Y-47589504D01*
X33074625Y-47575000D01*
X32450000Y-47575000D01*
X31950000Y-47575000D01*
X31325375Y-47575000D01*
X31252456Y-47589504D01*
X31169760Y-47644760D01*
X31114504Y-47727456D01*
X31100000Y-47800375D01*
X31100000Y-48425000D01*
X28135500Y-48425000D01*
X28135500Y-43820333D01*
X28154738Y-43753993D01*
X28206483Y-43708238D01*
X28274679Y-43697266D01*
X28338164Y-43724479D01*
X28376462Y-43755910D01*
X28550273Y-43848814D01*
X28738868Y-43906024D01*
X28935000Y-43925341D01*
X29131132Y-43906024D01*
X29319727Y-43848814D01*
X29493538Y-43755910D01*
X29645883Y-43630883D01*
X29770910Y-43478538D01*
X29863814Y-43304727D01*
X29921024Y-43116132D01*
X29940341Y-42920000D01*
X29940341Y-42919999D01*
X30469659Y-42919999D01*
X30488976Y-43116133D01*
X30546185Y-43304726D01*
X30627091Y-43456091D01*
X30639090Y-43478538D01*
X30764117Y-43630883D01*
X30916462Y-43755910D01*
X31090273Y-43848814D01*
X31278868Y-43906024D01*
X31475000Y-43925341D01*
X31671132Y-43906024D01*
X31859727Y-43848814D01*
X32033538Y-43755910D01*
X32185883Y-43630883D01*
X32310910Y-43478538D01*
X32403814Y-43304727D01*
X32461024Y-43116132D01*
X32480341Y-42920000D01*
X32480341Y-42919999D01*
X33009659Y-42919999D01*
X33028976Y-43116133D01*
X33086185Y-43304726D01*
X33167091Y-43456091D01*
X33179090Y-43478538D01*
X33304117Y-43630883D01*
X33456462Y-43755910D01*
X33630273Y-43848814D01*
X33818868Y-43906024D01*
X34015000Y-43925341D01*
X34211132Y-43906024D01*
X34399727Y-43848814D01*
X34573538Y-43755910D01*
X34725883Y-43630883D01*
X34850910Y-43478538D01*
X34943814Y-43304727D01*
X34984683Y-43170000D01*
X35533590Y-43170000D01*
X35580233Y-43323764D01*
X35677731Y-43506171D01*
X35808945Y-43666054D01*
X35968828Y-43797268D01*
X36151235Y-43894766D01*
X36305000Y-43941410D01*
X36305000Y-43170000D01*
X36805000Y-43170000D01*
X36805000Y-43941410D01*
X36958764Y-43894766D01*
X37141171Y-43797268D01*
X37301054Y-43666054D01*
X37432268Y-43506171D01*
X37529766Y-43323764D01*
X37576410Y-43170000D01*
X38073590Y-43170000D01*
X38120233Y-43323764D01*
X38217731Y-43506171D01*
X38348945Y-43666054D01*
X38508828Y-43797268D01*
X38691235Y-43894766D01*
X38845000Y-43941410D01*
X38845000Y-43170000D01*
X39345000Y-43170000D01*
X39345000Y-43941410D01*
X39498764Y-43894766D01*
X39681171Y-43797268D01*
X39841054Y-43666054D01*
X39972268Y-43506171D01*
X40069766Y-43323764D01*
X40116410Y-43170000D01*
X39345000Y-43170000D01*
X38845000Y-43170000D01*
X38073590Y-43170000D01*
X37576410Y-43170000D01*
X36805000Y-43170000D01*
X36305000Y-43170000D01*
X35533590Y-43170000D01*
X34984683Y-43170000D01*
X35001024Y-43116132D01*
X35020341Y-42920000D01*
X35020341Y-42919999D01*
X40629659Y-42919999D01*
X40648976Y-43116133D01*
X40706185Y-43304726D01*
X40787091Y-43456091D01*
X40799090Y-43478538D01*
X40924117Y-43630883D01*
X41076462Y-43755910D01*
X41250273Y-43848814D01*
X41438868Y-43906024D01*
X41635000Y-43925341D01*
X41831132Y-43906024D01*
X42019727Y-43848814D01*
X42193538Y-43755910D01*
X42345883Y-43630883D01*
X42470910Y-43478538D01*
X42563814Y-43304727D01*
X42621024Y-43116132D01*
X42640341Y-42920000D01*
X42621024Y-42723868D01*
X42563814Y-42535273D01*
X42470910Y-42361462D01*
X42345883Y-42209117D01*
X42193538Y-42084090D01*
X42114348Y-42041762D01*
X42019726Y-41991185D01*
X41831133Y-41933976D01*
X41635000Y-41914659D01*
X41438866Y-41933976D01*
X41250273Y-41991185D01*
X41076463Y-42084089D01*
X40924117Y-42209117D01*
X40799089Y-42361463D01*
X40706185Y-42535273D01*
X40648976Y-42723866D01*
X40629659Y-42919999D01*
X35020341Y-42919999D01*
X35001024Y-42723868D01*
X34984683Y-42670000D01*
X35533590Y-42670000D01*
X36305000Y-42670000D01*
X36305000Y-41898590D01*
X36805000Y-41898590D01*
X36805000Y-42670000D01*
X37576410Y-42670000D01*
X38073590Y-42670000D01*
X38845000Y-42670000D01*
X38845000Y-41898590D01*
X39345000Y-41898590D01*
X39345000Y-42670000D01*
X40116410Y-42670000D01*
X40069766Y-42516235D01*
X39972268Y-42333828D01*
X39841054Y-42173945D01*
X39681171Y-42042731D01*
X39498764Y-41945233D01*
X39345000Y-41898590D01*
X38845000Y-41898590D01*
X38691235Y-41945233D01*
X38508828Y-42042731D01*
X38348945Y-42173945D01*
X38217731Y-42333828D01*
X38120233Y-42516235D01*
X38073590Y-42670000D01*
X37576410Y-42670000D01*
X37529766Y-42516235D01*
X37432268Y-42333828D01*
X37301054Y-42173945D01*
X37141171Y-42042731D01*
X36958764Y-41945233D01*
X36805000Y-41898590D01*
X36305000Y-41898590D01*
X36151235Y-41945233D01*
X35968828Y-42042731D01*
X35808945Y-42173945D01*
X35677731Y-42333828D01*
X35580233Y-42516235D01*
X35533590Y-42670000D01*
X34984683Y-42670000D01*
X34943814Y-42535273D01*
X34850910Y-42361462D01*
X34725883Y-42209117D01*
X34573538Y-42084090D01*
X34494348Y-42041762D01*
X34399726Y-41991185D01*
X34211133Y-41933976D01*
X34015000Y-41914659D01*
X33818866Y-41933976D01*
X33630273Y-41991185D01*
X33456463Y-42084089D01*
X33304117Y-42209117D01*
X33179089Y-42361463D01*
X33086185Y-42535273D01*
X33028976Y-42723866D01*
X33009659Y-42919999D01*
X32480341Y-42919999D01*
X32461024Y-42723868D01*
X32403814Y-42535273D01*
X32310910Y-42361462D01*
X32185883Y-42209117D01*
X32033538Y-42084090D01*
X31954348Y-42041762D01*
X31859726Y-41991185D01*
X31671133Y-41933976D01*
X31475000Y-41914659D01*
X31278866Y-41933976D01*
X31090273Y-41991185D01*
X30916463Y-42084089D01*
X30764117Y-42209117D01*
X30639089Y-42361463D01*
X30546185Y-42535273D01*
X30488976Y-42723866D01*
X30469659Y-42919999D01*
X29940341Y-42919999D01*
X29921024Y-42723868D01*
X29863814Y-42535273D01*
X29770910Y-42361462D01*
X29645883Y-42209117D01*
X29493538Y-42084090D01*
X29414348Y-42041762D01*
X29319726Y-41991185D01*
X29131133Y-41933976D01*
X28935000Y-41914659D01*
X28738866Y-41933976D01*
X28550273Y-41991185D01*
X28376463Y-42084089D01*
X28338165Y-42115520D01*
X28274679Y-42142734D01*
X28206483Y-42131762D01*
X28154738Y-42086007D01*
X28135500Y-42019667D01*
X28135500Y-40040000D01*
X47978590Y-40040000D01*
X48750000Y-40040000D01*
X48750000Y-39268590D01*
X49250000Y-39268590D01*
X49250000Y-40040000D01*
X50021410Y-40040000D01*
X49974766Y-39886235D01*
X49877268Y-39703828D01*
X49746054Y-39543945D01*
X49586171Y-39412731D01*
X49403764Y-39315233D01*
X49250000Y-39268590D01*
X48750000Y-39268590D01*
X48596235Y-39315233D01*
X48413828Y-39412731D01*
X48253945Y-39543945D01*
X48122731Y-39703828D01*
X48025233Y-39886235D01*
X47978590Y-40040000D01*
X28135500Y-40040000D01*
X28135500Y-36264370D01*
X28154738Y-36198030D01*
X28206483Y-36152275D01*
X28274679Y-36141303D01*
X28338165Y-36168517D01*
X28348828Y-36177268D01*
X28531235Y-36274766D01*
X28685000Y-36321410D01*
X28685000Y-35550000D01*
X29185000Y-35550000D01*
X29185000Y-36321410D01*
X29338764Y-36274766D01*
X29521171Y-36177268D01*
X29681054Y-36046054D01*
X29812268Y-35886171D01*
X29909766Y-35703764D01*
X29956410Y-35550000D01*
X29185000Y-35550000D01*
X28685000Y-35550000D01*
X28685000Y-35300000D01*
X30469659Y-35300000D01*
X30488976Y-35496133D01*
X30546185Y-35684726D01*
X30608628Y-35801547D01*
X30639090Y-35858538D01*
X30764117Y-36010883D01*
X30916462Y-36135910D01*
X31090273Y-36228814D01*
X31278868Y-36286024D01*
X31475000Y-36305341D01*
X31671132Y-36286024D01*
X31859727Y-36228814D01*
X32033538Y-36135910D01*
X32185883Y-36010883D01*
X32310910Y-35858538D01*
X32403814Y-35684727D01*
X32461024Y-35496132D01*
X32480341Y-35300000D01*
X33009659Y-35300000D01*
X33028976Y-35496133D01*
X33086185Y-35684726D01*
X33148628Y-35801547D01*
X33179090Y-35858538D01*
X33304117Y-36010883D01*
X33456462Y-36135910D01*
X33630273Y-36228814D01*
X33818868Y-36286024D01*
X34015000Y-36305341D01*
X34211132Y-36286024D01*
X34399727Y-36228814D01*
X34573538Y-36135910D01*
X34725883Y-36010883D01*
X34850910Y-35858538D01*
X34943814Y-35684727D01*
X34984683Y-35550000D01*
X35533590Y-35550000D01*
X35580233Y-35703764D01*
X35677731Y-35886171D01*
X35808945Y-36046054D01*
X35968828Y-36177268D01*
X36151235Y-36274766D01*
X36305000Y-36321410D01*
X36305000Y-35550000D01*
X36805000Y-35550000D01*
X36805000Y-36321410D01*
X36958764Y-36274766D01*
X37141171Y-36177268D01*
X37301054Y-36046054D01*
X37432268Y-35886171D01*
X37529766Y-35703764D01*
X37576410Y-35550000D01*
X36805000Y-35550000D01*
X36305000Y-35550000D01*
X35533590Y-35550000D01*
X34984683Y-35550000D01*
X35001024Y-35496132D01*
X35020341Y-35300000D01*
X35001024Y-35103868D01*
X34984683Y-35050000D01*
X35533590Y-35050000D01*
X36305000Y-35050000D01*
X36305000Y-34278590D01*
X36805000Y-34278590D01*
X36805000Y-35050000D01*
X37576410Y-35050000D01*
X37529766Y-34896235D01*
X37432268Y-34713828D01*
X37301054Y-34553945D01*
X37141171Y-34422731D01*
X36958764Y-34325233D01*
X36805000Y-34278590D01*
X36305000Y-34278590D01*
X36151235Y-34325233D01*
X35968828Y-34422731D01*
X35808945Y-34553945D01*
X35677731Y-34713828D01*
X35580233Y-34896235D01*
X35533590Y-35050000D01*
X34984683Y-35050000D01*
X34943814Y-34915273D01*
X34850910Y-34741462D01*
X34725883Y-34589117D01*
X34573538Y-34464090D01*
X34454570Y-34400500D01*
X34399726Y-34371185D01*
X34211133Y-34313976D01*
X34015000Y-34294659D01*
X33818866Y-34313976D01*
X33630273Y-34371185D01*
X33456463Y-34464089D01*
X33304117Y-34589117D01*
X33179089Y-34741463D01*
X33086185Y-34915273D01*
X33028976Y-35103866D01*
X33009659Y-35300000D01*
X32480341Y-35300000D01*
X32461024Y-35103868D01*
X32403814Y-34915273D01*
X32310910Y-34741462D01*
X32185883Y-34589117D01*
X32033538Y-34464090D01*
X31914570Y-34400500D01*
X31859726Y-34371185D01*
X31671133Y-34313976D01*
X31475000Y-34294659D01*
X31278866Y-34313976D01*
X31090273Y-34371185D01*
X30916463Y-34464089D01*
X30764117Y-34589117D01*
X30639089Y-34741463D01*
X30546185Y-34915273D01*
X30488976Y-35103866D01*
X30469659Y-35300000D01*
X28685000Y-35300000D01*
X28685000Y-35174000D01*
X28701613Y-35112000D01*
X28747000Y-35066613D01*
X28809000Y-35050000D01*
X29956410Y-35050000D01*
X29909766Y-34896235D01*
X29812268Y-34713828D01*
X29681054Y-34553945D01*
X29521171Y-34422731D01*
X29338764Y-34325233D01*
X29140834Y-34265191D01*
X29098362Y-34261008D01*
X29034228Y-34235359D01*
X28993766Y-34179378D01*
X28989531Y-34110436D01*
X29022834Y-34049928D01*
X34732753Y-28340009D01*
X34788336Y-28307918D01*
X34852524Y-28307918D01*
X34908111Y-28340012D01*
G37*
%TD.AperFunction*%
%TA.AperFunction,Conductor*%
G36*
X74951964Y-42901300D02*
G01*
X75316946Y-43266282D01*
X75324254Y-43274256D01*
X75348535Y-43303193D01*
X75348536Y-43303194D01*
X75381257Y-43322085D01*
X75390351Y-43327878D01*
X75421307Y-43349554D01*
X75421308Y-43349554D01*
X75422192Y-43350173D01*
X75446882Y-43360400D01*
X75447945Y-43360587D01*
X75447946Y-43360588D01*
X75485137Y-43367145D01*
X75495695Y-43369486D01*
X75532182Y-43379263D01*
X75532183Y-43379262D01*
X75532184Y-43379263D01*
X75569802Y-43375971D01*
X75580609Y-43375500D01*
X80464743Y-43375500D01*
X80517760Y-43387405D01*
X80560594Y-43420834D01*
X80659117Y-43540883D01*
X80811462Y-43665910D01*
X80985273Y-43758814D01*
X81173868Y-43816024D01*
X81370000Y-43835341D01*
X81566132Y-43816024D01*
X81754727Y-43758814D01*
X81928538Y-43665910D01*
X81966835Y-43634479D01*
X82030321Y-43607266D01*
X82098517Y-43618238D01*
X82150262Y-43663993D01*
X82169500Y-43730333D01*
X82169500Y-48331375D01*
X82160061Y-48378828D01*
X82133181Y-48419056D01*
X79073013Y-51479223D01*
X79021327Y-51510203D01*
X78961141Y-51513159D01*
X78906667Y-51487395D01*
X78870771Y-51438994D01*
X78861929Y-51379390D01*
X78880583Y-51190000D01*
X78860300Y-50984066D01*
X78800232Y-50786046D01*
X78702685Y-50603550D01*
X78591927Y-50468590D01*
X78571410Y-50443589D01*
X78465373Y-50356568D01*
X78411450Y-50312315D01*
X78303449Y-50254587D01*
X78228956Y-50214769D01*
X78228955Y-50214768D01*
X78228954Y-50214768D01*
X78111259Y-50179066D01*
X78030932Y-50154699D01*
X77825000Y-50134417D01*
X77619067Y-50154699D01*
X77421043Y-50214769D01*
X77238551Y-50312314D01*
X77078589Y-50443589D01*
X76947314Y-50603551D01*
X76849770Y-50786041D01*
X76849769Y-50786043D01*
X76849768Y-50786046D01*
X76849631Y-50786497D01*
X76846903Y-50791405D01*
X76844011Y-50796817D01*
X76843922Y-50796769D01*
X76824202Y-50832257D01*
X76782149Y-50863447D01*
X76730972Y-50874500D01*
X75604795Y-50874500D01*
X75541046Y-50856858D01*
X75495437Y-50808954D01*
X75432636Y-50691463D01*
X75405910Y-50641462D01*
X75280883Y-50489117D01*
X75128538Y-50364090D01*
X75078444Y-50337314D01*
X74954726Y-50271185D01*
X74766133Y-50213976D01*
X74668066Y-50204317D01*
X74570000Y-50194659D01*
X74569999Y-50194659D01*
X74373869Y-50213975D01*
X74192128Y-50269106D01*
X74126003Y-50270729D01*
X74068452Y-50238126D01*
X73689043Y-49858717D01*
X73681734Y-49850741D01*
X73664707Y-49830449D01*
X73657455Y-49821806D01*
X73657454Y-49821805D01*
X73624736Y-49802915D01*
X73615627Y-49797112D01*
X73584684Y-49775446D01*
X73583803Y-49774829D01*
X73559107Y-49764599D01*
X73520852Y-49757853D01*
X73510296Y-49755512D01*
X73473807Y-49745735D01*
X73436180Y-49749028D01*
X73425372Y-49749500D01*
X65636715Y-49749500D01*
X65571235Y-49730801D01*
X65525503Y-49680344D01*
X65513312Y-49613346D01*
X65538338Y-49550015D01*
X65574536Y-49502841D01*
X65635044Y-49356762D01*
X65655682Y-49200000D01*
X65635044Y-49043238D01*
X65575713Y-48900000D01*
X76725000Y-48900000D01*
X76725000Y-49524625D01*
X76739504Y-49597543D01*
X76794760Y-49680239D01*
X76877456Y-49735495D01*
X76950375Y-49750000D01*
X77575000Y-49750000D01*
X77575000Y-48900000D01*
X78075000Y-48900000D01*
X78075000Y-49750000D01*
X78699625Y-49750000D01*
X78772543Y-49735495D01*
X78855239Y-49680239D01*
X78910495Y-49597543D01*
X78925000Y-49524625D01*
X78925000Y-48900000D01*
X78075000Y-48900000D01*
X77575000Y-48900000D01*
X76725000Y-48900000D01*
X65575713Y-48900000D01*
X65574536Y-48897159D01*
X65542286Y-48855130D01*
X65478282Y-48771717D01*
X65352840Y-48675463D01*
X65206762Y-48614956D01*
X65049999Y-48594317D01*
X64982180Y-48603246D01*
X64926136Y-48597726D01*
X64878314Y-48567988D01*
X64710326Y-48400000D01*
X76725000Y-48400000D01*
X77575000Y-48400000D01*
X77575000Y-47550000D01*
X78075000Y-47550000D01*
X78075000Y-48400000D01*
X78925000Y-48400000D01*
X78925000Y-47775375D01*
X78910495Y-47702456D01*
X78855239Y-47619760D01*
X78772543Y-47564504D01*
X78699625Y-47550000D01*
X78075000Y-47550000D01*
X77575000Y-47550000D01*
X76950375Y-47550000D01*
X76877456Y-47564504D01*
X76794760Y-47619760D01*
X76739504Y-47702456D01*
X76725000Y-47775375D01*
X76725000Y-48400000D01*
X64710326Y-48400000D01*
X63647507Y-47337181D01*
X63617257Y-47287818D01*
X63612715Y-47230102D01*
X63634870Y-47176615D01*
X63678893Y-47139015D01*
X63735188Y-47125500D01*
X64181701Y-47125500D01*
X64236545Y-47138288D01*
X64280076Y-47174013D01*
X64321718Y-47228282D01*
X64447159Y-47324536D01*
X64593238Y-47385044D01*
X64750000Y-47405682D01*
X64906762Y-47385044D01*
X65052841Y-47324536D01*
X65178282Y-47228282D01*
X65274536Y-47102841D01*
X65335044Y-46956762D01*
X65355682Y-46800000D01*
X65335044Y-46643238D01*
X65295160Y-46546951D01*
X65286319Y-46487346D01*
X65306620Y-46430609D01*
X65351269Y-46390142D01*
X65409722Y-46375500D01*
X75481701Y-46375500D01*
X75536545Y-46388288D01*
X75580076Y-46424013D01*
X75621718Y-46478282D01*
X75747159Y-46574536D01*
X75893238Y-46635044D01*
X76050000Y-46655682D01*
X76206762Y-46635044D01*
X76352841Y-46574536D01*
X76478282Y-46478282D01*
X76574536Y-46352841D01*
X76635044Y-46206762D01*
X76655682Y-46050000D01*
X76635044Y-45893238D01*
X76574536Y-45747159D01*
X76557149Y-45724500D01*
X76478282Y-45621717D01*
X76352840Y-45525463D01*
X76206762Y-45464956D01*
X76050000Y-45444317D01*
X75893237Y-45464956D01*
X75817435Y-45496354D01*
X75753797Y-45504732D01*
X75694496Y-45480168D01*
X75655422Y-45429245D01*
X75647044Y-45365609D01*
X75655682Y-45300000D01*
X75635044Y-45143238D01*
X75574536Y-44997159D01*
X75554989Y-44971685D01*
X75478282Y-44871717D01*
X75352840Y-44775463D01*
X75206762Y-44714956D01*
X75050000Y-44694317D01*
X74893237Y-44714956D01*
X74747159Y-44775463D01*
X74621718Y-44871717D01*
X74599260Y-44900986D01*
X74555728Y-44936712D01*
X74500884Y-44949500D01*
X72390187Y-44949500D01*
X72333892Y-44935985D01*
X72289869Y-44898385D01*
X72267714Y-44844898D01*
X72272256Y-44787182D01*
X72302506Y-44737819D01*
X72764862Y-44275463D01*
X73248454Y-43791871D01*
X73306004Y-43759270D01*
X73372126Y-43760892D01*
X73553868Y-43816024D01*
X73750000Y-43835341D01*
X73946132Y-43816024D01*
X74134727Y-43758814D01*
X74308538Y-43665910D01*
X74460883Y-43540883D01*
X74585910Y-43388538D01*
X74678814Y-43214727D01*
X74736024Y-43026132D01*
X74740880Y-42976826D01*
X74766528Y-42912692D01*
X74822508Y-42872230D01*
X74891451Y-42867994D01*
X74951964Y-42901300D01*
G37*
%TD.AperFunction*%
%TA.AperFunction,Conductor*%
G36*
X72851970Y-39509738D02*
G01*
X72897725Y-39561483D01*
X72908697Y-39629679D01*
X72881483Y-39693165D01*
X72872731Y-39703828D01*
X72775233Y-39886235D01*
X72728590Y-40040000D01*
X74771410Y-40040000D01*
X74724766Y-39886235D01*
X74627268Y-39703828D01*
X74618517Y-39693165D01*
X74591303Y-39629679D01*
X74602275Y-39561483D01*
X74648030Y-39509738D01*
X74714370Y-39490500D01*
X80058812Y-39490500D01*
X80106265Y-39499939D01*
X80146493Y-39526819D01*
X80408126Y-39788452D01*
X80440729Y-39846003D01*
X80439106Y-39912128D01*
X80383975Y-40093869D01*
X80364659Y-40290000D01*
X80383976Y-40486133D01*
X80441185Y-40674726D01*
X80521261Y-40824536D01*
X80534090Y-40848538D01*
X80659117Y-41000883D01*
X80811462Y-41125910D01*
X80985273Y-41218814D01*
X81173868Y-41276024D01*
X81370000Y-41295341D01*
X81566132Y-41276024D01*
X81754727Y-41218814D01*
X81928538Y-41125910D01*
X81966835Y-41094479D01*
X82030321Y-41067266D01*
X82098517Y-41078238D01*
X82150262Y-41123993D01*
X82169500Y-41190333D01*
X82169500Y-41929667D01*
X82150262Y-41996007D01*
X82098517Y-42041762D01*
X82030321Y-42052734D01*
X81966835Y-42025520D01*
X81959703Y-42019667D01*
X81928538Y-41994090D01*
X81816071Y-41933975D01*
X81754726Y-41901185D01*
X81566133Y-41843976D01*
X81370000Y-41824659D01*
X81173866Y-41843976D01*
X80985273Y-41901185D01*
X80811463Y-41994089D01*
X80659117Y-42119117D01*
X80534089Y-42271463D01*
X80441185Y-42445273D01*
X80383178Y-42636496D01*
X80357746Y-42682259D01*
X80315693Y-42713447D01*
X80264518Y-42724500D01*
X75747180Y-42724500D01*
X75699727Y-42715061D01*
X75659499Y-42688181D01*
X74460034Y-41488717D01*
X74452725Y-41480741D01*
X74428445Y-41451805D01*
X74395727Y-41432915D01*
X74386618Y-41427112D01*
X74355675Y-41405446D01*
X74354794Y-41404829D01*
X74327492Y-41393520D01*
X74321412Y-41390010D01*
X74275518Y-41343742D01*
X74259425Y-41280593D01*
X74277576Y-41218003D01*
X74324958Y-41173261D01*
X74336173Y-41167266D01*
X74496054Y-41036054D01*
X74627268Y-40876171D01*
X74724766Y-40693764D01*
X74771410Y-40540000D01*
X72728590Y-40540000D01*
X72775233Y-40693764D01*
X72872731Y-40876171D01*
X73003945Y-41036054D01*
X73154542Y-41159647D01*
X73190438Y-41208048D01*
X73199280Y-41267654D01*
X73178979Y-41324391D01*
X73134330Y-41364858D01*
X73075877Y-41379500D01*
X69699140Y-41379500D01*
X69636438Y-41362479D01*
X69590950Y-41316089D01*
X69575164Y-41253065D01*
X69593413Y-41190710D01*
X69640687Y-41146142D01*
X69651781Y-41140212D01*
X69678538Y-41125910D01*
X69830883Y-41000883D01*
X69955910Y-40848538D01*
X70048814Y-40674727D01*
X70106024Y-40486132D01*
X70125341Y-40290000D01*
X70106024Y-40093868D01*
X70050892Y-39912126D01*
X70049270Y-39846003D01*
X70081871Y-39788454D01*
X70343510Y-39526816D01*
X70383736Y-39499939D01*
X70431189Y-39490500D01*
X72785630Y-39490500D01*
X72851970Y-39509738D01*
G37*
%TD.AperFunction*%
%TA.AperFunction,Conductor*%
G36*
X60601970Y-39509738D02*
G01*
X60647725Y-39561483D01*
X60658697Y-39629679D01*
X60631483Y-39693165D01*
X60622731Y-39703828D01*
X60525233Y-39886235D01*
X60478590Y-40040000D01*
X62521410Y-40040000D01*
X62474766Y-39886235D01*
X62377268Y-39703828D01*
X62368517Y-39693165D01*
X62341303Y-39629679D01*
X62352275Y-39561483D01*
X62398030Y-39509738D01*
X62464370Y-39490500D01*
X67808812Y-39490500D01*
X67856265Y-39499939D01*
X67896493Y-39526819D01*
X68158126Y-39788452D01*
X68190729Y-39846003D01*
X68189106Y-39912128D01*
X68133975Y-40093869D01*
X68114659Y-40290000D01*
X68133976Y-40486133D01*
X68191185Y-40674726D01*
X68271261Y-40824536D01*
X68284090Y-40848538D01*
X68409117Y-41000883D01*
X68561462Y-41125910D01*
X68582412Y-41137108D01*
X68599313Y-41146142D01*
X68646587Y-41190710D01*
X68664836Y-41253065D01*
X68649050Y-41316089D01*
X68603562Y-41362479D01*
X68540860Y-41379500D01*
X62174123Y-41379500D01*
X62115670Y-41364858D01*
X62071021Y-41324391D01*
X62050720Y-41267654D01*
X62059562Y-41208048D01*
X62095458Y-41159647D01*
X62246054Y-41036054D01*
X62377268Y-40876171D01*
X62474766Y-40693764D01*
X62521410Y-40540000D01*
X60478590Y-40540000D01*
X60525233Y-40693764D01*
X60622731Y-40876171D01*
X60753945Y-41036054D01*
X60904542Y-41159647D01*
X60940438Y-41208048D01*
X60949280Y-41267654D01*
X60928979Y-41324391D01*
X60884330Y-41364858D01*
X60825877Y-41379500D01*
X57199140Y-41379500D01*
X57136438Y-41362479D01*
X57090950Y-41316089D01*
X57075164Y-41253065D01*
X57093413Y-41190710D01*
X57140687Y-41146142D01*
X57151781Y-41140212D01*
X57178538Y-41125910D01*
X57330883Y-41000883D01*
X57455910Y-40848538D01*
X57548814Y-40674727D01*
X57606024Y-40486132D01*
X57625341Y-40290000D01*
X57606024Y-40093868D01*
X57550892Y-39912126D01*
X57549270Y-39846003D01*
X57581871Y-39788454D01*
X57843510Y-39526816D01*
X57883736Y-39499939D01*
X57931189Y-39490500D01*
X60535630Y-39490500D01*
X60601970Y-39509738D01*
G37*
%TD.AperFunction*%
%TD*%
M02*
