%TF.GenerationSoftware,KiCad,Pcbnew,7.0.1*%
%TF.CreationDate,2023-12-30T23:01:10-05:00*%
%TF.ProjectId,TacTile-D,54616354-696c-4652-9d44-2e6b69636164,rev?*%
%TF.SameCoordinates,Original*%
%TF.FileFunction,Copper,L1,Top*%
%TF.FilePolarity,Positive*%
%FSLAX46Y46*%
G04 Gerber Fmt 4.6, Leading zero omitted, Abs format (unit mm)*
G04 Created by KiCad (PCBNEW 7.0.1) date 2023-12-30 23:01:10*
%MOMM*%
%LPD*%
G01*
G04 APERTURE LIST*
%TA.AperFunction,ComponentPad*%
%ADD10R,1.700000X1.700000*%
%TD*%
%TA.AperFunction,ComponentPad*%
%ADD11O,1.700000X1.700000*%
%TD*%
%TA.AperFunction,ComponentPad*%
%ADD12R,1.600000X1.600000*%
%TD*%
%TA.AperFunction,ComponentPad*%
%ADD13O,1.600000X1.600000*%
%TD*%
%TA.AperFunction,ViaPad*%
%ADD14C,0.800000*%
%TD*%
%TA.AperFunction,Conductor*%
%ADD15C,0.250000*%
%TD*%
%TA.AperFunction,Conductor*%
%ADD16C,2.000000*%
%TD*%
G04 APERTURE END LIST*
D10*
%TO.P,J1,1,Pin_1*%
%TO.N,GND*%
X32200000Y-48675000D03*
D11*
%TO.P,J1,2,Pin_2*%
%TO.N,VCC*%
X32200000Y-51215000D03*
%TO.P,J1,3,Pin_3*%
%TO.N,VIN*%
X32200000Y-53755000D03*
%TO.P,J1,4,Pin_4*%
%TO.N,SS*%
X32200000Y-56295000D03*
%TO.P,J1,5,Pin_5*%
%TO.N,MOSI*%
X32200000Y-58835000D03*
%TO.P,J1,6,Pin_6*%
%TO.N,CLK*%
X32200000Y-61375000D03*
%TD*%
D12*
%TO.P,U9,1,A4*%
%TO.N,unconnected-(U9-A4-Pad1)*%
X36125000Y-64800000D03*
D13*
%TO.P,U9,2,A6*%
%TO.N,unconnected-(U9-A6-Pad2)*%
X38665000Y-64800000D03*
%TO.P,U9,3,A*%
%TO.N,Net-(U9-A)*%
X41205000Y-64800000D03*
%TO.P,U9,4,A7*%
%TO.N,unconnected-(U9-A7-Pad4)*%
X43745000Y-64800000D03*
%TO.P,U9,5,A5*%
%TO.N,unconnected-(U9-A5-Pad5)*%
X46285000Y-64800000D03*
%TO.P,U9,6,~{E}*%
%TO.N,GND*%
X48825000Y-64800000D03*
%TO.P,U9,7,VEE*%
X51365000Y-64800000D03*
%TO.P,U9,8,GND*%
X53905000Y-64800000D03*
%TO.P,U9,9,S2*%
X53905000Y-57180000D03*
%TO.P,U9,10,S1*%
X51365000Y-57180000D03*
%TO.P,U9,11,S0*%
%TO.N,Net-(U7A-Q)*%
X48825000Y-57180000D03*
%TO.P,U9,12,A3*%
%TO.N,unconnected-(U9-A3-Pad12)*%
X46285000Y-57180000D03*
%TO.P,U9,13,A0*%
%TO.N,MISO0*%
X43745000Y-57180000D03*
%TO.P,U9,14,A1*%
%TO.N,MISO1*%
X41205000Y-57180000D03*
%TO.P,U9,15,A2*%
%TO.N,unconnected-(U9-A2-Pad15)*%
X38665000Y-57180000D03*
%TO.P,U9,16,VCC*%
%TO.N,VCC*%
X36125000Y-57180000D03*
%TD*%
D10*
%TO.P,J2,1,Pin_1*%
%TO.N,GND*%
X61325000Y-33200000D03*
D11*
%TO.P,J2,2,Pin_2*%
%TO.N,VCC*%
X58785000Y-33200000D03*
%TO.P,J2,3,Pin_3*%
%TO.N,VIN*%
X56245000Y-33200000D03*
%TO.P,J2,4,Pin_4*%
%TO.N,SS*%
X53705000Y-33200000D03*
%TO.P,J2,5,Pin_5*%
%TO.N,MOSI*%
X51165000Y-33200000D03*
%TO.P,J2,6,Pin_6*%
%TO.N,CLK*%
X48625000Y-33200000D03*
%TD*%
D12*
%TO.P,U3,1,QB*%
%TO.N,LS1*%
X28125000Y-75400000D03*
D13*
%TO.P,U3,2,QC*%
%TO.N,LS0*%
X30665000Y-75400000D03*
%TO.P,U3,3,QD*%
%TO.N,Net-(U3-QD)*%
X33205000Y-75400000D03*
%TO.P,U3,4,QE*%
%TO.N,unconnected-(U3-QE-Pad4)*%
X35745000Y-75400000D03*
%TO.P,U3,5,QF*%
%TO.N,unconnected-(U3-QF-Pad5)*%
X38285000Y-75400000D03*
%TO.P,U3,6,QG*%
%TO.N,unconnected-(U3-QG-Pad6)*%
X40825000Y-75400000D03*
%TO.P,U3,7,QH*%
%TO.N,unconnected-(U3-QH-Pad7)*%
X43365000Y-75400000D03*
%TO.P,U3,8,GND*%
%TO.N,GND*%
X45905000Y-75400000D03*
%TO.P,U3,9,QH'*%
%TO.N,unconnected-(U3-QH'-Pad9)*%
X45905000Y-67780000D03*
%TO.P,U3,10,~{SRCLR}*%
%TO.N,SEN*%
X43365000Y-67780000D03*
%TO.P,U3,11,SRCLK*%
%TO.N,CLK*%
X40825000Y-67780000D03*
%TO.P,U3,12,RCLK*%
%TO.N,Net-(U3-RCLK)*%
X38285000Y-67780000D03*
%TO.P,U3,13,~{OE}*%
%TO.N,Net-(U3-~{OE})*%
X35745000Y-67780000D03*
%TO.P,U3,14,SER*%
%TO.N,MOSI*%
X33205000Y-67780000D03*
%TO.P,U3,15,QA*%
%TO.N,LS2*%
X30665000Y-67780000D03*
%TO.P,U3,16,VCC*%
%TO.N,VCC*%
X28125000Y-67780000D03*
%TD*%
D10*
%TO.P,J3,1,Pin_1*%
%TO.N,GND*%
X77825000Y-48650000D03*
D11*
%TO.P,J3,2,Pin_2*%
%TO.N,VCC*%
X77825000Y-51190000D03*
%TO.P,J3,3,Pin_3*%
%TO.N,VIN*%
X77825000Y-53730000D03*
%TO.P,J3,4,Pin_4*%
%TO.N,SS*%
X77825000Y-56270000D03*
%TO.P,J3,5,Pin_5*%
%TO.N,MISO0*%
X77825000Y-58810000D03*
%TO.P,J3,6,Pin_6*%
%TO.N,CLK*%
X77825000Y-61350000D03*
%TD*%
D10*
%TO.P,J7,1,Pin_1*%
%TO.N,VIN*%
X35000000Y-26375000D03*
D11*
%TO.P,J7,2,Pin_2*%
%TO.N,GND*%
X37540000Y-26375000D03*
%TD*%
D12*
%TO.P,U7,1,~{R}*%
%TO.N,VCC*%
X75640000Y-29860000D03*
D13*
%TO.P,U7,2,D*%
%TO.N,SS*%
X75640000Y-32400000D03*
%TO.P,U7,3,C*%
%TO.N,Net-(U7A-C)*%
X75640000Y-34940000D03*
%TO.P,U7,4,~{S}*%
%TO.N,VCC*%
X75640000Y-37480000D03*
%TO.P,U7,5,Q*%
%TO.N,Net-(U7A-Q)*%
X75640000Y-40020000D03*
%TO.P,U7,6,~{Q}*%
%TO.N,unconnected-(U7A-~{Q}-Pad6)*%
X75640000Y-42560000D03*
%TO.P,U7,7,GND*%
%TO.N,GND*%
X75640000Y-45100000D03*
%TO.P,U7,8*%
%TO.N,N/C*%
X83260000Y-45100000D03*
%TO.P,U7,9*%
X83260000Y-42560000D03*
%TO.P,U7,10*%
X83260000Y-40020000D03*
%TO.P,U7,11*%
X83260000Y-37480000D03*
%TO.P,U7,12*%
X83260000Y-34940000D03*
%TO.P,U7,13*%
X83260000Y-32400000D03*
%TO.P,U7,14,VCC*%
%TO.N,VCC*%
X83260000Y-29860000D03*
%TD*%
D12*
%TO.P,U5,1,~{R}*%
%TO.N,Net-(U5A-~{R})*%
X44375000Y-51800000D03*
D13*
%TO.P,U5,2,D*%
%TO.N,Net-(U5A-D)*%
X46915000Y-51800000D03*
%TO.P,U5,3,C*%
%TO.N,Net-(U5A-C)*%
X49455000Y-51800000D03*
%TO.P,U5,4,~{S}*%
%TO.N,VCC*%
X51995000Y-51800000D03*
%TO.P,U5,5,Q*%
%TO.N,Net-(U5A-Q)*%
X54535000Y-51800000D03*
%TO.P,U5,6,~{Q}*%
%TO.N,Net-(U5A-~{Q})*%
X57075000Y-51800000D03*
%TO.P,U5,7,GND*%
%TO.N,GND*%
X59615000Y-51800000D03*
%TO.P,U5,8,~{Q}*%
%TO.N,Net-(U5B-~{Q})*%
X59615000Y-44180000D03*
%TO.P,U5,9,Q*%
%TO.N,SEN*%
X57075000Y-44180000D03*
%TO.P,U5,10,~{S}*%
%TO.N,VCC*%
X54535000Y-44180000D03*
%TO.P,U5,11,C*%
%TO.N,ACLK*%
X51995000Y-44180000D03*
%TO.P,U5,12,D*%
%TO.N,Net-(U5B-D)*%
X49455000Y-44180000D03*
%TO.P,U5,13,~{R}*%
%TO.N,Net-(U5B-~{R})*%
X46915000Y-44180000D03*
%TO.P,U5,14,VCC*%
%TO.N,VCC*%
X44375000Y-44180000D03*
%TD*%
D10*
%TO.P,J5,1,Pin_1*%
%TO.N,LS0*%
X34000000Y-83625000D03*
D11*
%TO.P,J5,2,Pin_2*%
%TO.N,LS1*%
X36540000Y-83625000D03*
%TO.P,J5,3,Pin_3*%
%TO.N,LS2*%
X39080000Y-83625000D03*
%TO.P,J5,4,Pin_4*%
%TO.N,LS3*%
X41620000Y-83625000D03*
%TD*%
D12*
%TO.P,U6,1*%
%TO.N,Net-(U4-Q0)*%
X65450000Y-29875000D03*
D13*
%TO.P,U6,2*%
%TO.N,Net-(U4-Q1)*%
X65450000Y-32415000D03*
%TO.P,U6,3*%
%TO.N,Net-(U3-RCLK)*%
X65450000Y-34955000D03*
%TO.P,U6,4*%
%TO.N,MOSI*%
X65450000Y-37495000D03*
%TO.P,U6,5*%
%TO.N,CLK*%
X65450000Y-40035000D03*
%TO.P,U6,6*%
%TO.N,Net-(U2-Pad5)*%
X65450000Y-42575000D03*
%TO.P,U6,7,GND*%
%TO.N,GND*%
X65450000Y-45115000D03*
%TO.P,U6,8*%
%TO.N,Net-(U5A-~{R})*%
X73070000Y-45115000D03*
%TO.P,U6,9*%
%TO.N,Net-(U5B-~{R})*%
X73070000Y-42575000D03*
%TO.P,U6,10*%
%TO.N,Net-(U5B-~{Q})*%
X73070000Y-40035000D03*
%TO.P,U6,11*%
%TO.N,Net-(U9-A)*%
X73070000Y-37495000D03*
%TO.P,U6,12*%
%TO.N,Net-(U5A-Q)*%
X73070000Y-34955000D03*
%TO.P,U6,13*%
%TO.N,MOSI*%
X73070000Y-32415000D03*
%TO.P,U6,14,VCC*%
%TO.N,VCC*%
X73070000Y-29875000D03*
%TD*%
D10*
%TO.P,J8,1,Pin_1*%
%TO.N,VCC*%
X72460000Y-26375000D03*
D11*
%TO.P,J8,2,Pin_2*%
%TO.N,LEN*%
X75000000Y-26375000D03*
%TD*%
D10*
%TO.P,J4,1,Pin_1*%
%TO.N,GND*%
X61350000Y-78825000D03*
D11*
%TO.P,J4,2,Pin_2*%
%TO.N,VCC*%
X58810000Y-78825000D03*
%TO.P,J4,3,Pin_3*%
%TO.N,VIN*%
X56270000Y-78825000D03*
%TO.P,J4,4,Pin_4*%
%TO.N,SS*%
X53730000Y-78825000D03*
%TO.P,J4,5,Pin_5*%
%TO.N,MISO1*%
X51190000Y-78825000D03*
%TO.P,J4,6,Pin_6*%
%TO.N,CLK*%
X48650000Y-78825000D03*
%TD*%
D12*
%TO.P,U1,1*%
%TO.N,CLK*%
X58125000Y-64800000D03*
D13*
%TO.P,U1,2*%
%TO.N,ACLK*%
X60665000Y-64800000D03*
%TO.P,U1,3*%
%TO.N,SEN*%
X63205000Y-64800000D03*
%TO.P,U1,4*%
%TO.N,Net-(U3-~{OE})*%
X65745000Y-64800000D03*
%TO.P,U1,5*%
%TO.N,Net-(U1-Pad5)*%
X68285000Y-64800000D03*
%TO.P,U1,6*%
%TO.N,Net-(U5B-D)*%
X70825000Y-64800000D03*
%TO.P,U1,7,GND*%
%TO.N,GND*%
X73365000Y-64800000D03*
%TO.P,U1,8*%
%TO.N,Net-(U5A-D)*%
X73365000Y-57180000D03*
%TO.P,U1,9*%
%TO.N,Net-(U5A-C)*%
X70825000Y-57180000D03*
%TO.P,U1,10*%
%TO.N,Net-(U7A-C)*%
X68285000Y-57180000D03*
%TO.P,U1,11*%
%TO.N,Net-(U5A-C)*%
X65745000Y-57180000D03*
%TO.P,U1,12*%
%TO.N,N/C*%
X63205000Y-57180000D03*
%TO.P,U1,13*%
X60665000Y-57180000D03*
%TO.P,U1,14,VCC*%
%TO.N,VCC*%
X58125000Y-57180000D03*
%TD*%
D10*
%TO.P,J6,1,Pin_1*%
%TO.N,LS4*%
X65840000Y-83625000D03*
D11*
%TO.P,J6,2,Pin_2*%
%TO.N,LS5*%
X68380000Y-83625000D03*
%TO.P,J6,3,Pin_3*%
%TO.N,LS6*%
X70920000Y-83625000D03*
%TO.P,J6,4,Pin_4*%
%TO.N,LS7*%
X73460000Y-83625000D03*
%TO.P,J6,5,Pin_5*%
%TO.N,LS8*%
X76000000Y-83625000D03*
%TD*%
D12*
%TO.P,U2,1*%
%TO.N,CLK*%
X28175000Y-40300000D03*
D13*
%TO.P,U2,2*%
%TO.N,SS*%
X30715000Y-40300000D03*
%TO.P,U2,3*%
%TO.N,Net-(U5B-~{R})*%
X33255000Y-40300000D03*
%TO.P,U2,4*%
%TO.N,Net-(U1-Pad5)*%
X35795000Y-40300000D03*
%TO.P,U2,5*%
%TO.N,Net-(U2-Pad5)*%
X38335000Y-40300000D03*
%TO.P,U2,6*%
%TO.N,Net-(U5A-~{Q})*%
X40875000Y-40300000D03*
%TO.P,U2,7,VSS*%
%TO.N,GND*%
X43415000Y-40300000D03*
%TO.P,U2,8*%
%TO.N,Net-(U5A-~{Q})*%
X43415000Y-32680000D03*
%TO.P,U2,9*%
%TO.N,MOSI*%
X40875000Y-32680000D03*
%TO.P,U2,10*%
%TO.N,Net-(U5A-C)*%
X38335000Y-32680000D03*
%TO.P,U2,11*%
%TO.N,LEN*%
X35795000Y-32680000D03*
%TO.P,U2,12*%
%TO.N,Net-(U3-RCLK)*%
X33255000Y-32680000D03*
%TO.P,U2,13*%
%TO.N,Net-(U3-QD)*%
X30715000Y-32680000D03*
%TO.P,U2,14,VDD*%
%TO.N,VCC*%
X28175000Y-32680000D03*
%TD*%
D12*
%TO.P,U4,1,Q1*%
%TO.N,Net-(U4-Q1)*%
X64125000Y-75370000D03*
D13*
%TO.P,U4,2,Q2*%
%TO.N,LS3*%
X66665000Y-75370000D03*
%TO.P,U4,3,Q3*%
%TO.N,LS4*%
X69205000Y-75370000D03*
%TO.P,U4,4,Q4*%
%TO.N,LS5*%
X71745000Y-75370000D03*
%TO.P,U4,5,Q5*%
%TO.N,LS6*%
X74285000Y-75370000D03*
%TO.P,U4,6,Q6*%
%TO.N,LS7*%
X76825000Y-75370000D03*
%TO.P,U4,7,Q7*%
%TO.N,LS8*%
X79365000Y-75370000D03*
%TO.P,U4,8,GND*%
%TO.N,GND*%
X81905000Y-75370000D03*
%TO.P,U4,9,~{RCO}*%
%TO.N,unconnected-(U4-~{RCO}-Pad9)*%
X81905000Y-67750000D03*
%TO.P,U4,10,~{MRC}*%
%TO.N,SEN*%
X79365000Y-67750000D03*
%TO.P,U4,11,CPC*%
%TO.N,CLK*%
X76825000Y-67750000D03*
%TO.P,U4,12,~{CE}*%
%TO.N,GND*%
X74285000Y-67750000D03*
%TO.P,U4,13,CPR*%
%TO.N,ACLK*%
X71745000Y-67750000D03*
%TO.P,U4,14,~{OE}*%
%TO.N,Net-(U3-~{OE})*%
X69205000Y-67750000D03*
%TO.P,U4,15,Q0*%
%TO.N,Net-(U4-Q0)*%
X66665000Y-67750000D03*
%TO.P,U4,16,VCC*%
%TO.N,VCC*%
X64125000Y-67750000D03*
%TD*%
D14*
%TO.N,MOSI*%
X36000000Y-37500000D03*
%TO.N,VCC*%
X65009705Y-52759706D03*
%TO.N,Net-(U4-Q0)*%
X62112701Y-62887299D03*
%TO.N,Net-(U4-Q1)*%
X61829705Y-58420294D03*
%TO.N,Net-(U5A-C)*%
X37750000Y-45200000D03*
%TO.N,Net-(U3-RCLK)*%
X37485001Y-47510306D03*
X31745201Y-38245201D03*
%TO.N,SEN*%
X51644303Y-62950500D03*
%TO.N,Net-(U5B-~{R})*%
X43807298Y-42149500D03*
%TO.N,Net-(U7A-Q)*%
X72674500Y-54699098D03*
%TO.N,Net-(U5B-D)*%
X49449303Y-48699304D03*
%TO.N,Net-(U9-A)*%
X55250000Y-38750000D03*
%TD*%
D15*
%TO.N,CLK*%
X58125000Y-64800000D02*
X59950000Y-66625000D01*
X32200000Y-63000000D02*
X32200000Y-61375000D01*
X41950000Y-66655000D02*
X56270000Y-66655000D01*
X40825000Y-67780000D02*
X41950000Y-66655000D01*
X39700000Y-68905000D02*
X37506396Y-68905000D01*
X56270000Y-66655000D02*
X58125000Y-64800000D01*
X36870000Y-67314009D02*
X35555991Y-66000000D01*
X37506396Y-68905000D02*
X36870000Y-68268604D01*
X35555991Y-66000000D02*
X35200000Y-66000000D01*
X40825000Y-67780000D02*
X39700000Y-68905000D01*
X35200000Y-66000000D02*
X32200000Y-63000000D01*
X75700000Y-66625000D02*
X76825000Y-67750000D01*
X36870000Y-68268604D02*
X36870000Y-67314009D01*
X59950000Y-66625000D02*
X75700000Y-66625000D01*
%TO.N,MOSI*%
X36000000Y-37500000D02*
X40095500Y-33404500D01*
X33205000Y-67780000D02*
X31025000Y-65600000D01*
X31025000Y-65600000D02*
X31025000Y-60010000D01*
X40095500Y-33404500D02*
X40150500Y-33404500D01*
X31025000Y-60010000D02*
X32200000Y-58835000D01*
X40150500Y-33404500D02*
X40875000Y-32680000D01*
%TO.N,SS*%
X37210000Y-32214009D02*
X37869009Y-31555000D01*
X52060000Y-31555000D02*
X53705000Y-33200000D01*
X37869009Y-31555000D02*
X52060000Y-31555000D01*
X30715000Y-40300000D02*
X37210000Y-33805000D01*
X37210000Y-33805000D02*
X37210000Y-32214009D01*
D16*
%TO.N,VIN*%
X77825000Y-53730000D02*
X79730000Y-53730000D01*
X55297081Y-81000000D02*
X28800000Y-81000000D01*
X36865862Y-28600000D02*
X52004138Y-28600000D01*
X28800000Y-81000000D02*
X26000000Y-78200000D01*
X57675000Y-80875000D02*
X56270000Y-79470000D01*
X26175000Y-31825000D02*
X31625000Y-26375000D01*
X79228428Y-80875000D02*
X57675000Y-80875000D01*
X31840862Y-53755000D02*
X32200000Y-53755000D01*
X32200000Y-53755000D02*
X30997919Y-53755000D01*
X56270000Y-79470000D02*
X56270000Y-78825000D01*
X56245000Y-32840862D02*
X56245000Y-33200000D01*
X56270000Y-80027081D02*
X55297081Y-81000000D01*
X35000000Y-26375000D02*
X35000000Y-26734138D01*
X35000000Y-26734138D02*
X36865862Y-28600000D01*
X26000000Y-78200000D02*
X26000000Y-59595862D01*
X84000000Y-76103428D02*
X79228428Y-80875000D01*
X52004138Y-28600000D02*
X56245000Y-32840862D01*
X31625000Y-26375000D02*
X35000000Y-26375000D01*
X84000000Y-58000000D02*
X84000000Y-76103428D01*
X26175000Y-48932081D02*
X26175000Y-31825000D01*
X26000000Y-59595862D02*
X31840862Y-53755000D01*
X30997919Y-53755000D02*
X26175000Y-48932081D01*
X56270000Y-78825000D02*
X56270000Y-80027081D01*
X79730000Y-53730000D02*
X84000000Y-58000000D01*
D15*
%TO.N,VCC*%
X62750000Y-26750000D02*
X69945000Y-26750000D01*
X79000000Y-50015000D02*
X79000000Y-39500000D01*
X29540000Y-69195000D02*
X28125000Y-67780000D01*
X77825000Y-51190000D02*
X79000000Y-50015000D01*
X59015000Y-57180000D02*
X58125000Y-57180000D01*
X29590000Y-34095000D02*
X28175000Y-32680000D01*
X63449411Y-54320000D02*
X61875000Y-54320000D01*
X36125000Y-57180000D02*
X36125000Y-55140000D01*
X29925000Y-76525000D02*
X29540000Y-76140000D01*
X58810000Y-78825000D02*
X56510000Y-76525000D01*
X32200000Y-51215000D02*
X29590000Y-48605000D01*
X56510000Y-76525000D02*
X29925000Y-76525000D01*
X57375000Y-57180000D02*
X58125000Y-57180000D01*
X73070000Y-29875000D02*
X73070000Y-26985000D01*
X61875000Y-54320000D02*
X59015000Y-57180000D01*
X76980000Y-37480000D02*
X75640000Y-37480000D01*
X58785000Y-30715000D02*
X62750000Y-26750000D01*
X32200000Y-51215000D02*
X37340000Y-51215000D01*
X79000000Y-39500000D02*
X76980000Y-37480000D01*
X36125000Y-55140000D02*
X32200000Y-51215000D01*
X83260000Y-29860000D02*
X75640000Y-37480000D01*
X29540000Y-76140000D02*
X29540000Y-69195000D01*
X31730000Y-57470000D02*
X28125000Y-61075000D01*
X69945000Y-26750000D02*
X73070000Y-29875000D01*
X37340000Y-51215000D02*
X44375000Y-44180000D01*
X28125000Y-61075000D02*
X28125000Y-67780000D01*
X29590000Y-48605000D02*
X29590000Y-34095000D01*
X73070000Y-26985000D02*
X72460000Y-26375000D01*
X36125000Y-57180000D02*
X35835000Y-57470000D01*
X58785000Y-33200000D02*
X58785000Y-30715000D01*
X65009705Y-52759706D02*
X63449411Y-54320000D01*
X75640000Y-29860000D02*
X83260000Y-29860000D01*
X35835000Y-57470000D02*
X31730000Y-57470000D01*
X51995000Y-51800000D02*
X57375000Y-57180000D01*
%TO.N,Net-(U4-Q0)*%
X71950000Y-57645991D02*
X71950000Y-45950000D01*
X71950000Y-45950000D02*
X67025000Y-41025000D01*
X62250000Y-62750000D02*
X66845991Y-62750000D01*
X66845991Y-62750000D02*
X71950000Y-57645991D01*
X62112701Y-62887299D02*
X62250000Y-62750000D01*
X67025000Y-31450000D02*
X65450000Y-29875000D01*
X67025000Y-41025000D02*
X67025000Y-31450000D01*
%TO.N,Net-(U4-Q1)*%
X62080000Y-56714009D02*
X66575000Y-52219009D01*
X66575000Y-52219009D02*
X66575000Y-33540000D01*
X66575000Y-33540000D02*
X65450000Y-32415000D01*
X61829705Y-58420294D02*
X62080000Y-58169999D01*
X62080000Y-58169999D02*
X62080000Y-56714009D01*
%TO.N,Net-(U5A-C)*%
X37750000Y-45200000D02*
X36200000Y-45200000D01*
X38335000Y-33339009D02*
X38335000Y-32680000D01*
X49455000Y-54320991D02*
X51189009Y-56055000D01*
X51830991Y-56055000D02*
X52490000Y-56714009D01*
X54279303Y-59145294D02*
X63779706Y-59145294D01*
X52490000Y-56714009D02*
X52490000Y-57355991D01*
X51189009Y-56055000D02*
X51830991Y-56055000D01*
X63779706Y-59145294D02*
X65745000Y-57180000D01*
X31840000Y-39834009D02*
X38335000Y-33339009D01*
X70825000Y-57180000D02*
X69700000Y-58305000D01*
X31840000Y-40840000D02*
X31840000Y-39834009D01*
X49455000Y-51800000D02*
X49455000Y-54320991D01*
X36200000Y-45200000D02*
X31840000Y-40840000D01*
X52490000Y-57355991D02*
X54279303Y-59145294D01*
X66870000Y-58305000D02*
X65745000Y-57180000D01*
X69700000Y-58305000D02*
X66870000Y-58305000D01*
%TO.N,Net-(U3-RCLK)*%
X43926396Y-43055000D02*
X50731396Y-36250000D01*
X43250000Y-43731396D02*
X43250000Y-43714009D01*
X33255000Y-36735402D02*
X33255000Y-32680000D01*
X64155000Y-36250000D02*
X65450000Y-34955000D01*
X43250000Y-43714009D02*
X43909009Y-43055000D01*
X37485001Y-47510306D02*
X39471090Y-47510306D01*
X31745201Y-38245201D02*
X33255000Y-36735402D01*
X50731396Y-36250000D02*
X64155000Y-36250000D01*
X43909009Y-43055000D02*
X43926396Y-43055000D01*
X39471090Y-47510306D02*
X43250000Y-43731396D01*
%TO.N,ACLK*%
X59540000Y-63675000D02*
X60665000Y-64800000D01*
X43250000Y-50675000D02*
X43250000Y-55094009D01*
X43375000Y-50550000D02*
X43250000Y-50675000D01*
X45160000Y-57004009D02*
X45160000Y-57645991D01*
X45160000Y-57645991D02*
X51189009Y-63675000D01*
X51995000Y-44180000D02*
X45625000Y-50550000D01*
X51189009Y-63675000D02*
X59540000Y-63675000D01*
X45625000Y-50550000D02*
X43375000Y-50550000D01*
X43250000Y-55094009D02*
X45160000Y-57004009D01*
%TO.N,SEN*%
X60406491Y-62950500D02*
X51644303Y-62950500D01*
X55950000Y-45305000D02*
X57075000Y-44180000D01*
X63205000Y-64800000D02*
X62255991Y-64800000D01*
X47700000Y-54450000D02*
X45790000Y-52540000D01*
X63205000Y-64800000D02*
X64330000Y-65925000D01*
X47700000Y-59006197D02*
X47700000Y-54450000D01*
X62255991Y-64800000D02*
X60406491Y-62950500D01*
X51644303Y-62950500D02*
X47700000Y-59006197D01*
X51819009Y-45305000D02*
X55950000Y-45305000D01*
X45790000Y-51334009D02*
X51819009Y-45305000D01*
X64330000Y-65925000D02*
X77540000Y-65925000D01*
X45790000Y-52540000D02*
X45790000Y-51334009D01*
X77540000Y-65925000D02*
X79365000Y-67750000D01*
%TO.N,Net-(U5B-~{R})*%
X35104500Y-42149500D02*
X43807298Y-42149500D01*
X71945000Y-41450000D02*
X73070000Y-42575000D01*
X43807298Y-42149500D02*
X50206798Y-35750000D01*
X64000000Y-35750000D02*
X64325000Y-35425000D01*
X64325000Y-35425000D02*
X64325000Y-28750000D01*
X33255000Y-40300000D02*
X35104500Y-42149500D01*
X64325000Y-28750000D02*
X66575000Y-28750000D01*
X50206798Y-35750000D02*
X64000000Y-35750000D01*
X66575000Y-28750000D02*
X71945000Y-34120000D01*
X71945000Y-34120000D02*
X71945000Y-41450000D01*
%TO.N,Net-(U5A-~{Q})*%
X40875000Y-40300000D02*
X40875000Y-35220000D01*
X40875000Y-35220000D02*
X43415000Y-32680000D01*
%TO.N,Net-(U7A-Q)*%
X72674500Y-54699098D02*
X74515000Y-52858598D01*
X74515000Y-52858598D02*
X74515000Y-41145000D01*
X74515000Y-41145000D02*
X75640000Y-40020000D01*
%TO.N,Net-(U5B-D)*%
X60700597Y-62500500D02*
X61875097Y-63675000D01*
X48330000Y-55094009D02*
X50240000Y-57004009D01*
X50240000Y-57645991D02*
X55094509Y-62500500D01*
X69700000Y-63675000D02*
X70825000Y-64800000D01*
X49449303Y-48699304D02*
X48330000Y-49818607D01*
X55094509Y-62500500D02*
X60700597Y-62500500D01*
X50240000Y-57004009D02*
X50240000Y-57645991D01*
X48330000Y-49818607D02*
X48330000Y-55094009D01*
X61875097Y-63675000D02*
X69700000Y-63675000D01*
%TO.N,Net-(U3-~{OE})*%
X69205000Y-67750000D02*
X67405000Y-69550000D01*
X38418604Y-69550000D02*
X38368604Y-69600000D01*
X67405000Y-69550000D02*
X38418604Y-69550000D01*
X38368604Y-69600000D02*
X37565000Y-69600000D01*
X37565000Y-69600000D02*
X35745000Y-67780000D01*
%TO.N,Net-(U9-A)*%
X43288604Y-50000000D02*
X42500000Y-50788604D01*
X50580000Y-43420000D02*
X50580000Y-44645991D01*
X42500000Y-50788604D02*
X42500000Y-63505000D01*
X42500000Y-63505000D02*
X41205000Y-64800000D01*
X50580000Y-44645991D02*
X45225991Y-50000000D01*
X55250000Y-38750000D02*
X50580000Y-43420000D01*
X45225991Y-50000000D02*
X43288604Y-50000000D01*
%TD*%
%TA.AperFunction,Conductor*%
%TO.N,GND*%
G36*
X84937500Y-25017113D02*
G01*
X84982887Y-25062500D01*
X84999500Y-25124500D01*
X84999500Y-57002375D01*
X84985985Y-57058670D01*
X84948385Y-57102693D01*
X84894898Y-57124848D01*
X84837182Y-57120306D01*
X84787819Y-57090056D01*
X80600521Y-52902758D01*
X80596565Y-52898615D01*
X80542235Y-52839017D01*
X80477885Y-52790423D01*
X80473394Y-52786866D01*
X80411354Y-52735349D01*
X80411353Y-52735348D01*
X80394480Y-52725949D01*
X80380099Y-52716579D01*
X80364687Y-52704940D01*
X80292506Y-52668998D01*
X80287440Y-52666328D01*
X80263592Y-52653045D01*
X80216985Y-52627085D01*
X80216981Y-52627083D01*
X80216980Y-52627083D01*
X80198667Y-52620944D01*
X80182807Y-52614375D01*
X80165525Y-52605769D01*
X80087950Y-52583697D01*
X80082481Y-52582004D01*
X80064716Y-52576050D01*
X80006033Y-52556382D01*
X80006029Y-52556381D01*
X80006028Y-52556381D01*
X79986913Y-52553714D01*
X79970118Y-52550171D01*
X79951538Y-52544885D01*
X79871220Y-52537442D01*
X79865532Y-52536782D01*
X79785682Y-52525644D01*
X79785681Y-52525644D01*
X79742313Y-52527649D01*
X79705131Y-52529368D01*
X79699405Y-52529500D01*
X77769496Y-52529500D01*
X77603462Y-52544884D01*
X77389473Y-52605769D01*
X77190311Y-52704941D01*
X77012762Y-52839019D01*
X76862875Y-53003437D01*
X76745754Y-53192595D01*
X76665381Y-53400060D01*
X76665382Y-53400060D01*
X76624500Y-53618757D01*
X76624500Y-53841243D01*
X76665382Y-54059940D01*
X76712768Y-54182256D01*
X76745754Y-54267404D01*
X76862875Y-54456562D01*
X77012762Y-54620980D01*
X77190311Y-54755058D01*
X77389473Y-54854230D01*
X77603462Y-54915115D01*
X77769496Y-54930500D01*
X77769497Y-54930500D01*
X79181375Y-54930500D01*
X79228828Y-54939939D01*
X79269056Y-54966819D01*
X82763181Y-58460944D01*
X82790061Y-58501172D01*
X82799500Y-58548625D01*
X82799500Y-66927632D01*
X82780262Y-66993972D01*
X82728517Y-67039727D01*
X82660321Y-67050699D01*
X82596835Y-67023485D01*
X82594396Y-67021483D01*
X82463538Y-66914090D01*
X82431715Y-66897080D01*
X82289726Y-66821185D01*
X82101133Y-66763976D01*
X81905000Y-66744659D01*
X81708866Y-66763976D01*
X81520273Y-66821185D01*
X81346463Y-66914089D01*
X81194117Y-67039117D01*
X81069089Y-67191463D01*
X80976185Y-67365273D01*
X80918976Y-67553866D01*
X80899659Y-67749999D01*
X80918976Y-67946133D01*
X80976185Y-68134726D01*
X81007865Y-68193995D01*
X81069090Y-68308538D01*
X81194117Y-68460883D01*
X81346462Y-68585910D01*
X81520273Y-68678814D01*
X81708868Y-68736024D01*
X81905000Y-68755341D01*
X82101132Y-68736024D01*
X82289727Y-68678814D01*
X82463538Y-68585910D01*
X82596835Y-68476514D01*
X82660321Y-68449301D01*
X82728517Y-68460273D01*
X82780262Y-68506028D01*
X82799500Y-68572368D01*
X82799500Y-74483595D01*
X82780262Y-74549935D01*
X82728517Y-74595690D01*
X82660321Y-74606662D01*
X82596835Y-74579448D01*
X82491171Y-74492731D01*
X82308764Y-74395233D01*
X82155000Y-74348590D01*
X82155000Y-75496000D01*
X82138387Y-75558000D01*
X82093000Y-75603387D01*
X82031000Y-75620000D01*
X80883590Y-75620000D01*
X80930233Y-75773764D01*
X81027731Y-75956171D01*
X81158945Y-76116054D01*
X81318828Y-76247268D01*
X81501235Y-76344766D01*
X81699165Y-76404808D01*
X81712891Y-76406160D01*
X81777026Y-76431808D01*
X81817489Y-76487788D01*
X81821725Y-76556731D01*
X81788419Y-76617244D01*
X78767484Y-79638181D01*
X78727256Y-79665061D01*
X78679803Y-79674500D01*
X62574000Y-79674500D01*
X62512000Y-79657887D01*
X62466613Y-79612500D01*
X62450000Y-79550500D01*
X62450000Y-79075000D01*
X60250000Y-79075000D01*
X60250000Y-79550500D01*
X60233387Y-79612500D01*
X60188000Y-79657887D01*
X60126000Y-79674500D01*
X59733982Y-79674500D01*
X59667642Y-79655262D01*
X59621887Y-79603517D01*
X59610914Y-79535322D01*
X59638128Y-79471836D01*
X59643873Y-79464834D01*
X59687685Y-79411450D01*
X59785232Y-79228954D01*
X59845300Y-79030934D01*
X59865583Y-78825000D01*
X59845300Y-78619066D01*
X59831933Y-78575000D01*
X60250000Y-78575000D01*
X61100000Y-78575000D01*
X61100000Y-77725000D01*
X61600000Y-77725000D01*
X61600000Y-78575000D01*
X62450000Y-78575000D01*
X62450000Y-77950375D01*
X62435495Y-77877456D01*
X62380239Y-77794760D01*
X62297543Y-77739504D01*
X62224625Y-77725000D01*
X61600000Y-77725000D01*
X61100000Y-77725000D01*
X60475375Y-77725000D01*
X60402456Y-77739504D01*
X60319760Y-77794760D01*
X60264504Y-77877456D01*
X60250000Y-77950375D01*
X60250000Y-78575000D01*
X59831933Y-78575000D01*
X59785232Y-78421046D01*
X59687685Y-78238550D01*
X59622047Y-78158570D01*
X59556410Y-78078589D01*
X59458952Y-77998609D01*
X59396450Y-77947315D01*
X59213954Y-77849768D01*
X59114943Y-77819733D01*
X59015932Y-77789699D01*
X58810000Y-77769417D01*
X58604067Y-77789699D01*
X58394359Y-77853313D01*
X58393689Y-77851106D01*
X58364486Y-77859441D01*
X58312706Y-77851754D01*
X58268714Y-77823387D01*
X56754042Y-76308716D01*
X56746734Y-76300741D01*
X56722454Y-76271805D01*
X56689736Y-76252915D01*
X56680627Y-76247112D01*
X56649684Y-76225446D01*
X56648803Y-76224829D01*
X56624107Y-76214599D01*
X56585852Y-76207853D01*
X56575296Y-76205512D01*
X56538807Y-76195735D01*
X56501180Y-76199028D01*
X56490372Y-76199500D01*
X46869370Y-76199500D01*
X46835745Y-76189749D01*
X63124500Y-76189749D01*
X63136132Y-76248230D01*
X63180447Y-76314552D01*
X63246769Y-76358867D01*
X63305251Y-76370500D01*
X63305252Y-76370500D01*
X64944748Y-76370500D01*
X64944749Y-76370500D01*
X64973989Y-76364683D01*
X65003231Y-76358867D01*
X65069552Y-76314552D01*
X65113867Y-76248231D01*
X65121899Y-76207853D01*
X65125500Y-76189749D01*
X65125500Y-75369999D01*
X65659659Y-75369999D01*
X65678976Y-75566133D01*
X65736185Y-75754726D01*
X65752221Y-75784727D01*
X65829090Y-75928538D01*
X65954117Y-76080883D01*
X66106462Y-76205910D01*
X66280273Y-76298814D01*
X66468868Y-76356024D01*
X66665000Y-76375341D01*
X66861132Y-76356024D01*
X67049727Y-76298814D01*
X67223538Y-76205910D01*
X67375883Y-76080883D01*
X67500910Y-75928538D01*
X67593814Y-75754727D01*
X67651024Y-75566132D01*
X67670341Y-75370000D01*
X67670341Y-75369999D01*
X68199659Y-75369999D01*
X68218976Y-75566133D01*
X68276185Y-75754726D01*
X68292221Y-75784727D01*
X68369090Y-75928538D01*
X68494117Y-76080883D01*
X68646462Y-76205910D01*
X68820273Y-76298814D01*
X69008868Y-76356024D01*
X69205000Y-76375341D01*
X69401132Y-76356024D01*
X69589727Y-76298814D01*
X69763538Y-76205910D01*
X69915883Y-76080883D01*
X70040910Y-75928538D01*
X70133814Y-75754727D01*
X70191024Y-75566132D01*
X70210341Y-75370000D01*
X70210341Y-75369999D01*
X70739659Y-75369999D01*
X70758976Y-75566133D01*
X70816185Y-75754726D01*
X70832221Y-75784727D01*
X70909090Y-75928538D01*
X71034117Y-76080883D01*
X71186462Y-76205910D01*
X71360273Y-76298814D01*
X71548868Y-76356024D01*
X71745000Y-76375341D01*
X71941132Y-76356024D01*
X72129727Y-76298814D01*
X72303538Y-76205910D01*
X72455883Y-76080883D01*
X72580910Y-75928538D01*
X72673814Y-75754727D01*
X72731024Y-75566132D01*
X72750341Y-75370000D01*
X72750341Y-75369999D01*
X73279659Y-75369999D01*
X73298976Y-75566133D01*
X73356185Y-75754726D01*
X73372221Y-75784727D01*
X73449090Y-75928538D01*
X73574117Y-76080883D01*
X73726462Y-76205910D01*
X73900273Y-76298814D01*
X74088868Y-76356024D01*
X74285000Y-76375341D01*
X74481132Y-76356024D01*
X74669727Y-76298814D01*
X74843538Y-76205910D01*
X74995883Y-76080883D01*
X75120910Y-75928538D01*
X75213814Y-75754727D01*
X75271024Y-75566132D01*
X75290341Y-75370000D01*
X75819659Y-75370000D01*
X75838976Y-75566133D01*
X75896185Y-75754726D01*
X75912221Y-75784727D01*
X75989090Y-75928538D01*
X76114117Y-76080883D01*
X76266462Y-76205910D01*
X76440273Y-76298814D01*
X76628868Y-76356024D01*
X76825000Y-76375341D01*
X77021132Y-76356024D01*
X77209727Y-76298814D01*
X77383538Y-76205910D01*
X77535883Y-76080883D01*
X77660910Y-75928538D01*
X77753814Y-75754727D01*
X77811024Y-75566132D01*
X77830341Y-75370000D01*
X78359659Y-75370000D01*
X78378976Y-75566133D01*
X78436185Y-75754726D01*
X78452221Y-75784727D01*
X78529090Y-75928538D01*
X78654117Y-76080883D01*
X78806462Y-76205910D01*
X78980273Y-76298814D01*
X79168868Y-76356024D01*
X79365000Y-76375341D01*
X79561132Y-76356024D01*
X79749727Y-76298814D01*
X79923538Y-76205910D01*
X80075883Y-76080883D01*
X80200910Y-75928538D01*
X80293814Y-75754727D01*
X80351024Y-75566132D01*
X80370341Y-75370000D01*
X80351024Y-75173868D01*
X80334683Y-75120000D01*
X80883590Y-75120000D01*
X81655000Y-75120000D01*
X81655000Y-74348590D01*
X81501235Y-74395233D01*
X81318828Y-74492731D01*
X81158945Y-74623945D01*
X81027731Y-74783828D01*
X80930233Y-74966235D01*
X80883590Y-75120000D01*
X80334683Y-75120000D01*
X80293814Y-74985273D01*
X80200910Y-74811462D01*
X80075883Y-74659117D01*
X79923538Y-74534090D01*
X79829069Y-74483595D01*
X79749726Y-74441185D01*
X79561133Y-74383976D01*
X79365000Y-74364659D01*
X79168866Y-74383976D01*
X78980273Y-74441185D01*
X78806463Y-74534089D01*
X78654117Y-74659117D01*
X78529089Y-74811463D01*
X78436185Y-74985273D01*
X78378976Y-75173866D01*
X78359659Y-75370000D01*
X77830341Y-75370000D01*
X77811024Y-75173868D01*
X77753814Y-74985273D01*
X77660910Y-74811462D01*
X77535883Y-74659117D01*
X77383538Y-74534090D01*
X77289069Y-74483595D01*
X77209726Y-74441185D01*
X77021133Y-74383976D01*
X76825000Y-74364659D01*
X76628866Y-74383976D01*
X76440273Y-74441185D01*
X76266463Y-74534089D01*
X76114117Y-74659117D01*
X75989089Y-74811463D01*
X75896185Y-74985273D01*
X75838976Y-75173866D01*
X75819659Y-75370000D01*
X75290341Y-75370000D01*
X75271024Y-75173868D01*
X75213814Y-74985273D01*
X75120910Y-74811462D01*
X74995883Y-74659117D01*
X74843538Y-74534090D01*
X74749069Y-74483595D01*
X74669726Y-74441185D01*
X74481133Y-74383976D01*
X74285000Y-74364659D01*
X74088866Y-74383976D01*
X73900273Y-74441185D01*
X73726463Y-74534089D01*
X73574117Y-74659117D01*
X73449089Y-74811463D01*
X73356185Y-74985273D01*
X73298976Y-75173866D01*
X73279659Y-75369999D01*
X72750341Y-75369999D01*
X72731024Y-75173868D01*
X72673814Y-74985273D01*
X72580910Y-74811462D01*
X72455883Y-74659117D01*
X72303538Y-74534090D01*
X72209069Y-74483595D01*
X72129726Y-74441185D01*
X71941133Y-74383976D01*
X71745000Y-74364659D01*
X71548866Y-74383976D01*
X71360273Y-74441185D01*
X71186463Y-74534089D01*
X71034117Y-74659117D01*
X70909089Y-74811463D01*
X70816185Y-74985273D01*
X70758976Y-75173866D01*
X70739659Y-75369999D01*
X70210341Y-75369999D01*
X70191024Y-75173868D01*
X70133814Y-74985273D01*
X70040910Y-74811462D01*
X69915883Y-74659117D01*
X69763538Y-74534090D01*
X69669069Y-74483595D01*
X69589726Y-74441185D01*
X69401133Y-74383976D01*
X69205000Y-74364659D01*
X69008866Y-74383976D01*
X68820273Y-74441185D01*
X68646463Y-74534089D01*
X68494117Y-74659117D01*
X68369089Y-74811463D01*
X68276185Y-74985273D01*
X68218976Y-75173866D01*
X68199659Y-75369999D01*
X67670341Y-75369999D01*
X67651024Y-75173868D01*
X67593814Y-74985273D01*
X67500910Y-74811462D01*
X67375883Y-74659117D01*
X67223538Y-74534090D01*
X67129069Y-74483595D01*
X67049726Y-74441185D01*
X66861133Y-74383976D01*
X66665000Y-74364659D01*
X66468866Y-74383976D01*
X66280273Y-74441185D01*
X66106463Y-74534089D01*
X65954117Y-74659117D01*
X65829089Y-74811463D01*
X65736185Y-74985273D01*
X65678976Y-75173866D01*
X65659659Y-75369999D01*
X65125500Y-75369999D01*
X65125500Y-74550251D01*
X65113867Y-74491769D01*
X65069552Y-74425447D01*
X65003230Y-74381132D01*
X64944749Y-74369500D01*
X64944748Y-74369500D01*
X63305252Y-74369500D01*
X63305251Y-74369500D01*
X63246769Y-74381132D01*
X63180447Y-74425447D01*
X63136132Y-74491769D01*
X63124500Y-74550251D01*
X63124500Y-76189749D01*
X46835745Y-76189749D01*
X46803030Y-76180262D01*
X46757275Y-76128517D01*
X46746303Y-76060321D01*
X46773517Y-75996835D01*
X46782268Y-75986171D01*
X46879766Y-75803764D01*
X46926410Y-75650000D01*
X44883590Y-75650000D01*
X44930233Y-75803764D01*
X45027731Y-75986171D01*
X45036483Y-75996835D01*
X45063697Y-76060321D01*
X45052725Y-76128517D01*
X45006970Y-76180262D01*
X44940630Y-76199500D01*
X44265333Y-76199500D01*
X44198993Y-76180262D01*
X44153238Y-76128517D01*
X44142266Y-76060321D01*
X44169480Y-75996835D01*
X44200910Y-75958538D01*
X44293814Y-75784727D01*
X44351024Y-75596132D01*
X44370341Y-75400000D01*
X44351024Y-75203868D01*
X44334683Y-75150000D01*
X44883590Y-75150000D01*
X45655000Y-75150000D01*
X45655000Y-74378590D01*
X46155000Y-74378590D01*
X46155000Y-75150000D01*
X46926410Y-75150000D01*
X46879766Y-74996235D01*
X46782268Y-74813828D01*
X46651054Y-74653945D01*
X46491171Y-74522731D01*
X46308764Y-74425233D01*
X46155000Y-74378590D01*
X45655000Y-74378590D01*
X45501235Y-74425233D01*
X45318828Y-74522731D01*
X45158945Y-74653945D01*
X45027731Y-74813828D01*
X44930233Y-74996235D01*
X44883590Y-75150000D01*
X44334683Y-75150000D01*
X44293814Y-75015273D01*
X44200910Y-74841462D01*
X44075883Y-74689117D01*
X43923538Y-74564090D01*
X43844361Y-74521769D01*
X43749726Y-74471185D01*
X43561133Y-74413976D01*
X43365000Y-74394659D01*
X43168866Y-74413976D01*
X42980273Y-74471185D01*
X42806463Y-74564089D01*
X42654117Y-74689117D01*
X42529089Y-74841463D01*
X42436185Y-75015273D01*
X42378976Y-75203866D01*
X42359659Y-75399999D01*
X42378976Y-75596133D01*
X42436185Y-75784726D01*
X42436186Y-75784727D01*
X42529090Y-75958538D01*
X42551768Y-75986171D01*
X42560520Y-75996835D01*
X42587734Y-76060321D01*
X42576762Y-76128517D01*
X42531007Y-76180262D01*
X42464667Y-76199500D01*
X41725333Y-76199500D01*
X41658993Y-76180262D01*
X41613238Y-76128517D01*
X41602266Y-76060321D01*
X41629480Y-75996835D01*
X41660910Y-75958538D01*
X41753814Y-75784727D01*
X41811024Y-75596132D01*
X41830341Y-75400000D01*
X41811024Y-75203868D01*
X41753814Y-75015273D01*
X41660910Y-74841462D01*
X41535883Y-74689117D01*
X41383538Y-74564090D01*
X41304361Y-74521769D01*
X41209726Y-74471185D01*
X41021133Y-74413976D01*
X40825000Y-74394659D01*
X40628866Y-74413976D01*
X40440273Y-74471185D01*
X40266463Y-74564089D01*
X40114117Y-74689117D01*
X39989089Y-74841463D01*
X39896185Y-75015273D01*
X39838976Y-75203866D01*
X39819659Y-75399999D01*
X39838976Y-75596133D01*
X39896185Y-75784726D01*
X39896186Y-75784727D01*
X39989090Y-75958538D01*
X40011768Y-75986171D01*
X40020520Y-75996835D01*
X40047734Y-76060321D01*
X40036762Y-76128517D01*
X39991007Y-76180262D01*
X39924667Y-76199500D01*
X39185333Y-76199500D01*
X39118993Y-76180262D01*
X39073238Y-76128517D01*
X39062266Y-76060321D01*
X39089480Y-75996835D01*
X39120910Y-75958538D01*
X39213814Y-75784727D01*
X39271024Y-75596132D01*
X39290341Y-75400000D01*
X39271024Y-75203868D01*
X39213814Y-75015273D01*
X39120910Y-74841462D01*
X38995883Y-74689117D01*
X38843538Y-74564090D01*
X38764361Y-74521769D01*
X38669726Y-74471185D01*
X38481133Y-74413976D01*
X38285000Y-74394659D01*
X38088866Y-74413976D01*
X37900273Y-74471185D01*
X37726463Y-74564089D01*
X37574117Y-74689117D01*
X37449089Y-74841463D01*
X37356185Y-75015273D01*
X37298976Y-75203866D01*
X37279659Y-75399999D01*
X37298976Y-75596133D01*
X37356185Y-75784726D01*
X37356186Y-75784727D01*
X37449090Y-75958538D01*
X37471768Y-75986171D01*
X37480520Y-75996835D01*
X37507734Y-76060321D01*
X37496762Y-76128517D01*
X37451007Y-76180262D01*
X37384667Y-76199500D01*
X36645333Y-76199500D01*
X36578993Y-76180262D01*
X36533238Y-76128517D01*
X36522266Y-76060321D01*
X36549480Y-75996835D01*
X36580910Y-75958538D01*
X36673814Y-75784727D01*
X36731024Y-75596132D01*
X36750341Y-75400000D01*
X36731024Y-75203868D01*
X36673814Y-75015273D01*
X36580910Y-74841462D01*
X36455883Y-74689117D01*
X36303538Y-74564090D01*
X36224361Y-74521769D01*
X36129726Y-74471185D01*
X35941133Y-74413976D01*
X35745000Y-74394659D01*
X35548866Y-74413976D01*
X35360273Y-74471185D01*
X35186463Y-74564089D01*
X35034117Y-74689117D01*
X34909089Y-74841463D01*
X34816185Y-75015273D01*
X34758976Y-75203866D01*
X34739659Y-75399999D01*
X34758976Y-75596133D01*
X34816185Y-75784726D01*
X34816186Y-75784727D01*
X34909090Y-75958538D01*
X34931768Y-75986171D01*
X34940520Y-75996835D01*
X34967734Y-76060321D01*
X34956762Y-76128517D01*
X34911007Y-76180262D01*
X34844667Y-76199500D01*
X34105333Y-76199500D01*
X34038993Y-76180262D01*
X33993238Y-76128517D01*
X33982266Y-76060321D01*
X34009480Y-75996835D01*
X34040910Y-75958538D01*
X34133814Y-75784727D01*
X34191024Y-75596132D01*
X34210341Y-75400000D01*
X34191024Y-75203868D01*
X34133814Y-75015273D01*
X34040910Y-74841462D01*
X33915883Y-74689117D01*
X33763538Y-74564090D01*
X33684361Y-74521769D01*
X33589726Y-74471185D01*
X33401133Y-74413976D01*
X33205000Y-74394659D01*
X33008866Y-74413976D01*
X32820273Y-74471185D01*
X32646463Y-74564089D01*
X32494117Y-74689117D01*
X32369089Y-74841463D01*
X32276185Y-75015273D01*
X32218976Y-75203866D01*
X32199659Y-75399999D01*
X32218976Y-75596133D01*
X32276185Y-75784726D01*
X32276186Y-75784727D01*
X32369090Y-75958538D01*
X32391768Y-75986171D01*
X32400520Y-75996835D01*
X32427734Y-76060321D01*
X32416762Y-76128517D01*
X32371007Y-76180262D01*
X32304667Y-76199500D01*
X31565333Y-76199500D01*
X31498993Y-76180262D01*
X31453238Y-76128517D01*
X31442266Y-76060321D01*
X31469480Y-75996835D01*
X31500910Y-75958538D01*
X31593814Y-75784727D01*
X31651024Y-75596132D01*
X31670341Y-75400000D01*
X31651024Y-75203868D01*
X31593814Y-75015273D01*
X31500910Y-74841462D01*
X31375883Y-74689117D01*
X31223538Y-74564090D01*
X31144361Y-74521769D01*
X31049726Y-74471185D01*
X30861133Y-74413976D01*
X30665000Y-74394659D01*
X30468866Y-74413976D01*
X30280273Y-74471185D01*
X30106463Y-74564089D01*
X30068165Y-74595520D01*
X30004679Y-74622734D01*
X29936483Y-74611762D01*
X29884738Y-74566007D01*
X29865500Y-74499667D01*
X29865500Y-69214619D01*
X29865972Y-69203812D01*
X29869263Y-69166191D01*
X29859486Y-69129704D01*
X29857144Y-69119140D01*
X29850400Y-69080891D01*
X29840173Y-69056201D01*
X29839554Y-69055317D01*
X29839554Y-69055316D01*
X29817878Y-69024360D01*
X29812085Y-69015266D01*
X29793194Y-68982545D01*
X29764261Y-68958267D01*
X29756286Y-68950959D01*
X29432595Y-68627268D01*
X29086872Y-68281546D01*
X29054270Y-68223995D01*
X29055894Y-68157870D01*
X29063202Y-68133778D01*
X29111024Y-67976132D01*
X29130341Y-67780000D01*
X29659659Y-67780000D01*
X29678976Y-67976133D01*
X29736185Y-68164726D01*
X29767865Y-68223994D01*
X29829090Y-68338538D01*
X29954117Y-68490883D01*
X30106462Y-68615910D01*
X30280273Y-68708814D01*
X30468868Y-68766024D01*
X30665000Y-68785341D01*
X30861132Y-68766024D01*
X31049727Y-68708814D01*
X31223538Y-68615910D01*
X31375883Y-68490883D01*
X31500910Y-68338538D01*
X31593814Y-68164727D01*
X31651024Y-67976132D01*
X31670341Y-67780000D01*
X31651024Y-67583868D01*
X31593814Y-67395273D01*
X31500910Y-67221462D01*
X31375883Y-67069117D01*
X31223538Y-66944090D01*
X31167410Y-66914089D01*
X31049726Y-66851185D01*
X30861133Y-66793976D01*
X30665000Y-66774659D01*
X30468866Y-66793976D01*
X30280273Y-66851185D01*
X30106463Y-66944089D01*
X29954117Y-67069117D01*
X29829089Y-67221463D01*
X29736185Y-67395273D01*
X29678976Y-67583866D01*
X29659659Y-67780000D01*
X29130341Y-67780000D01*
X29111024Y-67583868D01*
X29053814Y-67395273D01*
X28960910Y-67221462D01*
X28835883Y-67069117D01*
X28683538Y-66944090D01*
X28627410Y-66914089D01*
X28516046Y-66854563D01*
X28468142Y-66808954D01*
X28450500Y-66745205D01*
X28450500Y-61261188D01*
X28459939Y-61213735D01*
X28486819Y-61173507D01*
X29097213Y-60563113D01*
X30934227Y-58726097D01*
X30985910Y-58695120D01*
X31046095Y-58692162D01*
X31100568Y-58717925D01*
X31136465Y-58766323D01*
X31145309Y-58825928D01*
X31144416Y-58834994D01*
X31164699Y-59040932D01*
X31228313Y-59250641D01*
X31226107Y-59251310D01*
X31234441Y-59280528D01*
X31226751Y-59332300D01*
X31198385Y-59376287D01*
X30808714Y-59765958D01*
X30800741Y-59773264D01*
X30771806Y-59797544D01*
X30752914Y-59830264D01*
X30747106Y-59839380D01*
X30724831Y-59871193D01*
X30714597Y-59895899D01*
X30707852Y-59934148D01*
X30705512Y-59944704D01*
X30695735Y-59981192D01*
X30699028Y-60018820D01*
X30699500Y-60029628D01*
X30699500Y-65580372D01*
X30699028Y-65591180D01*
X30695735Y-65628807D01*
X30705512Y-65665296D01*
X30707853Y-65675852D01*
X30714599Y-65714107D01*
X30724829Y-65738803D01*
X30725446Y-65739684D01*
X30747112Y-65770627D01*
X30752915Y-65779736D01*
X30771806Y-65812455D01*
X30800742Y-65836735D01*
X30808718Y-65844044D01*
X32243126Y-67278452D01*
X32275729Y-67336003D01*
X32274106Y-67402128D01*
X32218975Y-67583869D01*
X32199659Y-67780000D01*
X32218976Y-67976133D01*
X32276185Y-68164726D01*
X32307865Y-68223994D01*
X32369090Y-68338538D01*
X32494117Y-68490883D01*
X32646462Y-68615910D01*
X32820273Y-68708814D01*
X33008868Y-68766024D01*
X33205000Y-68785341D01*
X33401132Y-68766024D01*
X33589727Y-68708814D01*
X33763538Y-68615910D01*
X33915883Y-68490883D01*
X34040910Y-68338538D01*
X34133814Y-68164727D01*
X34191024Y-67976132D01*
X34210341Y-67780000D01*
X34191024Y-67583868D01*
X34133814Y-67395273D01*
X34040910Y-67221462D01*
X33915883Y-67069117D01*
X33763538Y-66944090D01*
X33707410Y-66914089D01*
X33589726Y-66851185D01*
X33401133Y-66793976D01*
X33205000Y-66774659D01*
X33008869Y-66793975D01*
X32827128Y-66849106D01*
X32761003Y-66850729D01*
X32703452Y-66818126D01*
X31386819Y-65501493D01*
X31359939Y-65461265D01*
X31350500Y-65413812D01*
X31350500Y-62298982D01*
X31369738Y-62232642D01*
X31421483Y-62186887D01*
X31489678Y-62175914D01*
X31553164Y-62203128D01*
X31613550Y-62252685D01*
X31672542Y-62284217D01*
X31806818Y-62355990D01*
X31805730Y-62358024D01*
X31832260Y-62372769D01*
X31863447Y-62414821D01*
X31874500Y-62465996D01*
X31874500Y-62980372D01*
X31874028Y-62991180D01*
X31870735Y-63028807D01*
X31880512Y-63065296D01*
X31882853Y-63075852D01*
X31889599Y-63114107D01*
X31899829Y-63138803D01*
X31900446Y-63139684D01*
X31922112Y-63170627D01*
X31927915Y-63179736D01*
X31946806Y-63212455D01*
X31975742Y-63236735D01*
X31983718Y-63244044D01*
X34955950Y-66216276D01*
X34963258Y-66224250D01*
X34987545Y-66253194D01*
X35011594Y-66267079D01*
X35020256Y-66272080D01*
X35029379Y-66277892D01*
X35060316Y-66299554D01*
X35060317Y-66299554D01*
X35061198Y-66300171D01*
X35085891Y-66310400D01*
X35086954Y-66310587D01*
X35086955Y-66310588D01*
X35124143Y-66317145D01*
X35134701Y-66319485D01*
X35171193Y-66329264D01*
X35208823Y-66325971D01*
X35219630Y-66325500D01*
X35369803Y-66325500D01*
X35417256Y-66334939D01*
X35457484Y-66361819D01*
X35673700Y-66578035D01*
X35707006Y-66638547D01*
X35702771Y-66707490D01*
X35662309Y-66763470D01*
X35598175Y-66789119D01*
X35548866Y-66793976D01*
X35360273Y-66851185D01*
X35186463Y-66944089D01*
X35034117Y-67069117D01*
X34909089Y-67221463D01*
X34816185Y-67395273D01*
X34758976Y-67583866D01*
X34739659Y-67780000D01*
X34758976Y-67976133D01*
X34816185Y-68164726D01*
X34847865Y-68223994D01*
X34909090Y-68338538D01*
X35034117Y-68490883D01*
X35186462Y-68615910D01*
X35360273Y-68708814D01*
X35548868Y-68766024D01*
X35745000Y-68785341D01*
X35941132Y-68766024D01*
X36122870Y-68710893D01*
X36188995Y-68709270D01*
X36246547Y-68741873D01*
X37320950Y-69816276D01*
X37328258Y-69824250D01*
X37352545Y-69853194D01*
X37365352Y-69860588D01*
X37385256Y-69872080D01*
X37394379Y-69877892D01*
X37399159Y-69881239D01*
X37425316Y-69899554D01*
X37425317Y-69899554D01*
X37426198Y-69900171D01*
X37450891Y-69910400D01*
X37451954Y-69910587D01*
X37451955Y-69910588D01*
X37489143Y-69917145D01*
X37499701Y-69919485D01*
X37536193Y-69929264D01*
X37573823Y-69925971D01*
X37584630Y-69925500D01*
X38348977Y-69925500D01*
X38359784Y-69925971D01*
X38397411Y-69929264D01*
X38433928Y-69919478D01*
X38444434Y-69917149D01*
X38481649Y-69910588D01*
X38481651Y-69910586D01*
X38482716Y-69910399D01*
X38507403Y-69900173D01*
X38508286Y-69899554D01*
X38508288Y-69899554D01*
X38510612Y-69897926D01*
X38544450Y-69881239D01*
X38581738Y-69875500D01*
X67385373Y-69875500D01*
X67396180Y-69875971D01*
X67433807Y-69879264D01*
X67470324Y-69869478D01*
X67480830Y-69867149D01*
X67518045Y-69860588D01*
X67518047Y-69860586D01*
X67519112Y-69860399D01*
X67543799Y-69850173D01*
X67544682Y-69849554D01*
X67544684Y-69849554D01*
X67575625Y-69827887D01*
X67584722Y-69822091D01*
X67617455Y-69803194D01*
X67641748Y-69774241D01*
X67649036Y-69766289D01*
X68703454Y-68711871D01*
X68761004Y-68679270D01*
X68827126Y-68680892D01*
X69008868Y-68736024D01*
X69205000Y-68755341D01*
X69401132Y-68736024D01*
X69589727Y-68678814D01*
X69763538Y-68585910D01*
X69915883Y-68460883D01*
X70040910Y-68308538D01*
X70133814Y-68134727D01*
X70191024Y-67946132D01*
X70210341Y-67750000D01*
X70191024Y-67553868D01*
X70133814Y-67365273D01*
X70040910Y-67191462D01*
X70009479Y-67153164D01*
X69982266Y-67089679D01*
X69993238Y-67021483D01*
X70038993Y-66969738D01*
X70105333Y-66950500D01*
X70844667Y-66950500D01*
X70911007Y-66969738D01*
X70956762Y-67021483D01*
X70967734Y-67089679D01*
X70940520Y-67153165D01*
X70909089Y-67191463D01*
X70816185Y-67365273D01*
X70758976Y-67553866D01*
X70739659Y-67749999D01*
X70758976Y-67946133D01*
X70816185Y-68134726D01*
X70847865Y-68193995D01*
X70909090Y-68308538D01*
X71034117Y-68460883D01*
X71186462Y-68585910D01*
X71360273Y-68678814D01*
X71548868Y-68736024D01*
X71745000Y-68755341D01*
X71941132Y-68736024D01*
X72129727Y-68678814D01*
X72303538Y-68585910D01*
X72455883Y-68460883D01*
X72580910Y-68308538D01*
X72673814Y-68134727D01*
X72714683Y-68000000D01*
X73263590Y-68000000D01*
X73310233Y-68153764D01*
X73407731Y-68336171D01*
X73538945Y-68496054D01*
X73698828Y-68627268D01*
X73881235Y-68724766D01*
X74035000Y-68771410D01*
X74035000Y-68000000D01*
X74535000Y-68000000D01*
X74535000Y-68771410D01*
X74688764Y-68724766D01*
X74871171Y-68627268D01*
X75031054Y-68496054D01*
X75162268Y-68336171D01*
X75259766Y-68153764D01*
X75306410Y-68000000D01*
X74535000Y-68000000D01*
X74035000Y-68000000D01*
X73263590Y-68000000D01*
X72714683Y-68000000D01*
X72731024Y-67946132D01*
X72750341Y-67750000D01*
X72731024Y-67553868D01*
X72673814Y-67365273D01*
X72580910Y-67191462D01*
X72549479Y-67153164D01*
X72522266Y-67089679D01*
X72533238Y-67021483D01*
X72578993Y-66969738D01*
X72645333Y-66950500D01*
X73320630Y-66950500D01*
X73386970Y-66969738D01*
X73432725Y-67021483D01*
X73443697Y-67089679D01*
X73416483Y-67153165D01*
X73407731Y-67163828D01*
X73310233Y-67346235D01*
X73263590Y-67500000D01*
X75306410Y-67500000D01*
X75259766Y-67346235D01*
X75162268Y-67163828D01*
X75153517Y-67153165D01*
X75126303Y-67089679D01*
X75137275Y-67021483D01*
X75183030Y-66969738D01*
X75249370Y-66950500D01*
X75513812Y-66950500D01*
X75561265Y-66959939D01*
X75601493Y-66986819D01*
X75863126Y-67248452D01*
X75895729Y-67306003D01*
X75894106Y-67372128D01*
X75838975Y-67553869D01*
X75819659Y-67749999D01*
X75838976Y-67946133D01*
X75896185Y-68134726D01*
X75927865Y-68193995D01*
X75989090Y-68308538D01*
X76114117Y-68460883D01*
X76266462Y-68585910D01*
X76440273Y-68678814D01*
X76628868Y-68736024D01*
X76825000Y-68755341D01*
X77021132Y-68736024D01*
X77209727Y-68678814D01*
X77383538Y-68585910D01*
X77535883Y-68460883D01*
X77660910Y-68308538D01*
X77753814Y-68134727D01*
X77811024Y-67946132D01*
X77830341Y-67750000D01*
X77811024Y-67553868D01*
X77753814Y-67365273D01*
X77660910Y-67191462D01*
X77535883Y-67039117D01*
X77383538Y-66914090D01*
X77351715Y-66897080D01*
X77209726Y-66821185D01*
X77021133Y-66763976D01*
X76825000Y-66744659D01*
X76628869Y-66763975D01*
X76447128Y-66819106D01*
X76381003Y-66820729D01*
X76323452Y-66788126D01*
X75997507Y-66462181D01*
X75967257Y-66412818D01*
X75962715Y-66355102D01*
X75984870Y-66301615D01*
X76028893Y-66264015D01*
X76085188Y-66250500D01*
X77353812Y-66250500D01*
X77401265Y-66259939D01*
X77441493Y-66286819D01*
X78403126Y-67248452D01*
X78435729Y-67306003D01*
X78434106Y-67372128D01*
X78378975Y-67553869D01*
X78359659Y-67749999D01*
X78378976Y-67946133D01*
X78436185Y-68134726D01*
X78467865Y-68193995D01*
X78529090Y-68308538D01*
X78654117Y-68460883D01*
X78806462Y-68585910D01*
X78980273Y-68678814D01*
X79168868Y-68736024D01*
X79365000Y-68755341D01*
X79561132Y-68736024D01*
X79749727Y-68678814D01*
X79923538Y-68585910D01*
X80075883Y-68460883D01*
X80200910Y-68308538D01*
X80293814Y-68134727D01*
X80351024Y-67946132D01*
X80370341Y-67750000D01*
X80351024Y-67553868D01*
X80293814Y-67365273D01*
X80200910Y-67191462D01*
X80075883Y-67039117D01*
X79923538Y-66914090D01*
X79891715Y-66897080D01*
X79749726Y-66821185D01*
X79561133Y-66763976D01*
X79365000Y-66744659D01*
X79168869Y-66763975D01*
X78987128Y-66819106D01*
X78921003Y-66820729D01*
X78863452Y-66788126D01*
X77784043Y-65708717D01*
X77776734Y-65700741D01*
X77752454Y-65671805D01*
X77719736Y-65652915D01*
X77710627Y-65647112D01*
X77679684Y-65625446D01*
X77678803Y-65624829D01*
X77654107Y-65614599D01*
X77615852Y-65607853D01*
X77605296Y-65605512D01*
X77568807Y-65595735D01*
X77531180Y-65599028D01*
X77520372Y-65599500D01*
X74329370Y-65599500D01*
X74263030Y-65580262D01*
X74217275Y-65528517D01*
X74206303Y-65460321D01*
X74233517Y-65396835D01*
X74242268Y-65386171D01*
X74339766Y-65203764D01*
X74386410Y-65050000D01*
X72343590Y-65050000D01*
X72390233Y-65203764D01*
X72487731Y-65386171D01*
X72496483Y-65396835D01*
X72523697Y-65460321D01*
X72512725Y-65528517D01*
X72466970Y-65580262D01*
X72400630Y-65599500D01*
X71725333Y-65599500D01*
X71658993Y-65580262D01*
X71613238Y-65528517D01*
X71602266Y-65460321D01*
X71629480Y-65396835D01*
X71660910Y-65358538D01*
X71753814Y-65184727D01*
X71811024Y-64996132D01*
X71830341Y-64800000D01*
X71811024Y-64603868D01*
X71794683Y-64550000D01*
X72343590Y-64550000D01*
X73115000Y-64550000D01*
X73115000Y-63778590D01*
X73615000Y-63778590D01*
X73615000Y-64550000D01*
X74386410Y-64550000D01*
X74339766Y-64396235D01*
X74242268Y-64213828D01*
X74111054Y-64053945D01*
X73951171Y-63922731D01*
X73768764Y-63825233D01*
X73615000Y-63778590D01*
X73115000Y-63778590D01*
X72961235Y-63825233D01*
X72778828Y-63922731D01*
X72618945Y-64053945D01*
X72487731Y-64213828D01*
X72390233Y-64396235D01*
X72343590Y-64550000D01*
X71794683Y-64550000D01*
X71753814Y-64415273D01*
X71660910Y-64241462D01*
X71535883Y-64089117D01*
X71383538Y-63964090D01*
X71356775Y-63949785D01*
X71209726Y-63871185D01*
X71021133Y-63813976D01*
X70825000Y-63794659D01*
X70628869Y-63813975D01*
X70447128Y-63869106D01*
X70381003Y-63870729D01*
X70323452Y-63838126D01*
X69944043Y-63458717D01*
X69936734Y-63450741D01*
X69912454Y-63421805D01*
X69879736Y-63402915D01*
X69870627Y-63397112D01*
X69839684Y-63375446D01*
X69838803Y-63374829D01*
X69814107Y-63364599D01*
X69775852Y-63357853D01*
X69765296Y-63355512D01*
X69728807Y-63345735D01*
X69691180Y-63349028D01*
X69680372Y-63349500D01*
X62756807Y-63349500D01*
X62698353Y-63334858D01*
X62653704Y-63294390D01*
X62633404Y-63237653D01*
X62642247Y-63178046D01*
X62653017Y-63152046D01*
X62679897Y-63111818D01*
X62720125Y-63084939D01*
X62767577Y-63075500D01*
X66826364Y-63075500D01*
X66837171Y-63075971D01*
X66874798Y-63079264D01*
X66911315Y-63069478D01*
X66921821Y-63067149D01*
X66959036Y-63060588D01*
X66959038Y-63060586D01*
X66960103Y-63060399D01*
X66984790Y-63050173D01*
X66985673Y-63049554D01*
X66985675Y-63049554D01*
X67016616Y-63027887D01*
X67025713Y-63022091D01*
X67058446Y-63003194D01*
X67082739Y-62974241D01*
X67090027Y-62966288D01*
X68706315Y-61350000D01*
X76769417Y-61350000D01*
X76789699Y-61555932D01*
X76819734Y-61654944D01*
X76849768Y-61753954D01*
X76947315Y-61936450D01*
X76967832Y-61961450D01*
X77078589Y-62096410D01*
X77158570Y-62162047D01*
X77238550Y-62227685D01*
X77421046Y-62325232D01*
X77619066Y-62385300D01*
X77825000Y-62405583D01*
X78030934Y-62385300D01*
X78228954Y-62325232D01*
X78411450Y-62227685D01*
X78571410Y-62096410D01*
X78702685Y-61936450D01*
X78800232Y-61753954D01*
X78860300Y-61555934D01*
X78880583Y-61350000D01*
X78860300Y-61144066D01*
X78800232Y-60946046D01*
X78702685Y-60763550D01*
X78591927Y-60628590D01*
X78571410Y-60603589D01*
X78466335Y-60517358D01*
X78411450Y-60472315D01*
X78228954Y-60374768D01*
X78113346Y-60339699D01*
X78030932Y-60314699D01*
X77825000Y-60294417D01*
X77619067Y-60314699D01*
X77421043Y-60374769D01*
X77238551Y-60472314D01*
X77078589Y-60603589D01*
X76947314Y-60763551D01*
X76849769Y-60946043D01*
X76789699Y-61144067D01*
X76769417Y-61350000D01*
X68706315Y-61350000D01*
X71246316Y-58809999D01*
X76769417Y-58809999D01*
X76789699Y-59015932D01*
X76809756Y-59082052D01*
X76849768Y-59213954D01*
X76947315Y-59396450D01*
X76987034Y-59444848D01*
X77078589Y-59556410D01*
X77158569Y-59622047D01*
X77238550Y-59687685D01*
X77421046Y-59785232D01*
X77619066Y-59845300D01*
X77825000Y-59865583D01*
X78030934Y-59845300D01*
X78228954Y-59785232D01*
X78411450Y-59687685D01*
X78571410Y-59556410D01*
X78702685Y-59396450D01*
X78800232Y-59213954D01*
X78860300Y-59015934D01*
X78880583Y-58810000D01*
X78860300Y-58604066D01*
X78800232Y-58406046D01*
X78702685Y-58223550D01*
X78610231Y-58110894D01*
X78571410Y-58063589D01*
X78457444Y-57970061D01*
X78411450Y-57932315D01*
X78245567Y-57843648D01*
X78228956Y-57834769D01*
X78228955Y-57834768D01*
X78228954Y-57834768D01*
X78110748Y-57798911D01*
X78030932Y-57774699D01*
X77825000Y-57754417D01*
X77619067Y-57774699D01*
X77421043Y-57834769D01*
X77238551Y-57932314D01*
X77078589Y-58063589D01*
X76947314Y-58223551D01*
X76849769Y-58406043D01*
X76789699Y-58604067D01*
X76769417Y-58809999D01*
X71246316Y-58809999D01*
X72166290Y-57890025D01*
X72174258Y-57882725D01*
X72203192Y-57858448D01*
X72203192Y-57858447D01*
X72203194Y-57858446D01*
X72222091Y-57825713D01*
X72227887Y-57816616D01*
X72249554Y-57785675D01*
X72249554Y-57785673D01*
X72250173Y-57784790D01*
X72260399Y-57760103D01*
X72260586Y-57759038D01*
X72260588Y-57759036D01*
X72267149Y-57721821D01*
X72269490Y-57711271D01*
X72270101Y-57708991D01*
X72298280Y-57657524D01*
X72346967Y-57624774D01*
X72405261Y-57618076D01*
X72460107Y-57638929D01*
X72499222Y-57682660D01*
X72529090Y-57738538D01*
X72654117Y-57890883D01*
X72806462Y-58015910D01*
X72980273Y-58108814D01*
X73168868Y-58166024D01*
X73365000Y-58185341D01*
X73561132Y-58166024D01*
X73749727Y-58108814D01*
X73923538Y-58015910D01*
X74075883Y-57890883D01*
X74200910Y-57738538D01*
X74293814Y-57564727D01*
X74351024Y-57376132D01*
X74370341Y-57180000D01*
X74351024Y-56983868D01*
X74293814Y-56795273D01*
X74200910Y-56621462D01*
X74075883Y-56469117D01*
X73923538Y-56344090D01*
X73896779Y-56329787D01*
X73784926Y-56270000D01*
X76769417Y-56270000D01*
X76770369Y-56279667D01*
X76789699Y-56475932D01*
X76812849Y-56552247D01*
X76843237Y-56652425D01*
X76849769Y-56673956D01*
X76895316Y-56759167D01*
X76947315Y-56856450D01*
X76967832Y-56881450D01*
X77078589Y-57016410D01*
X77130084Y-57058670D01*
X77238550Y-57147685D01*
X77421046Y-57245232D01*
X77619066Y-57305300D01*
X77825000Y-57325583D01*
X78030934Y-57305300D01*
X78228954Y-57245232D01*
X78411450Y-57147685D01*
X78571410Y-57016410D01*
X78702685Y-56856450D01*
X78800232Y-56673954D01*
X78860300Y-56475934D01*
X78880583Y-56270000D01*
X78860300Y-56064066D01*
X78800232Y-55866046D01*
X78702685Y-55683550D01*
X78637047Y-55603569D01*
X78571410Y-55523589D01*
X78456391Y-55429197D01*
X78411450Y-55392315D01*
X78251322Y-55306724D01*
X78228956Y-55294769D01*
X78228955Y-55294768D01*
X78228954Y-55294768D01*
X78113346Y-55259699D01*
X78030932Y-55234699D01*
X77825000Y-55214417D01*
X77619067Y-55234699D01*
X77421043Y-55294769D01*
X77238551Y-55392314D01*
X77078589Y-55523589D01*
X76947314Y-55683551D01*
X76849769Y-55866043D01*
X76789699Y-56064067D01*
X76771932Y-56244466D01*
X76769417Y-56270000D01*
X73784926Y-56270000D01*
X73749726Y-56251185D01*
X73561133Y-56193976D01*
X73365000Y-56174659D01*
X73168866Y-56193976D01*
X72980273Y-56251185D01*
X72806463Y-56344089D01*
X72654117Y-56469117D01*
X72529089Y-56621463D01*
X72508858Y-56659313D01*
X72464290Y-56706587D01*
X72401935Y-56724836D01*
X72338911Y-56709050D01*
X72292521Y-56663562D01*
X72275500Y-56600860D01*
X72275500Y-55369383D01*
X72290142Y-55310930D01*
X72330609Y-55266281D01*
X72387345Y-55245980D01*
X72446952Y-55254822D01*
X72474618Y-55266281D01*
X72517738Y-55284142D01*
X72674500Y-55304780D01*
X72831262Y-55284142D01*
X72977341Y-55223634D01*
X73102782Y-55127380D01*
X73199036Y-55001939D01*
X73259544Y-54855860D01*
X73280182Y-54699098D01*
X73271252Y-54631278D01*
X73276773Y-54575234D01*
X73306509Y-54527413D01*
X74731290Y-53102632D01*
X74739258Y-53095332D01*
X74768192Y-53071055D01*
X74768192Y-53071054D01*
X74768194Y-53071053D01*
X74787091Y-53038320D01*
X74792887Y-53029223D01*
X74814554Y-52998282D01*
X74814554Y-52998280D01*
X74815173Y-52997397D01*
X74825399Y-52972710D01*
X74825586Y-52971645D01*
X74825588Y-52971643D01*
X74832149Y-52934428D01*
X74834478Y-52923922D01*
X74844264Y-52887405D01*
X74840971Y-52849778D01*
X74840500Y-52838971D01*
X74840500Y-48900000D01*
X76725000Y-48900000D01*
X76725000Y-49524625D01*
X76739504Y-49597543D01*
X76794760Y-49680239D01*
X76877456Y-49735495D01*
X76950375Y-49750000D01*
X77575000Y-49750000D01*
X77575000Y-48900000D01*
X76725000Y-48900000D01*
X74840500Y-48900000D01*
X74840500Y-48400000D01*
X76725000Y-48400000D01*
X77575000Y-48400000D01*
X77575000Y-47550000D01*
X76950375Y-47550000D01*
X76877456Y-47564504D01*
X76794760Y-47619760D01*
X76739504Y-47702456D01*
X76725000Y-47775375D01*
X76725000Y-48400000D01*
X74840500Y-48400000D01*
X74840500Y-46064370D01*
X74859738Y-45998030D01*
X74911483Y-45952275D01*
X74979679Y-45941303D01*
X75043165Y-45968517D01*
X75053828Y-45977268D01*
X75236235Y-46074766D01*
X75390000Y-46121410D01*
X75390000Y-45350000D01*
X75890000Y-45350000D01*
X75890000Y-46121410D01*
X76043764Y-46074766D01*
X76226171Y-45977268D01*
X76386054Y-45846054D01*
X76517268Y-45686171D01*
X76614766Y-45503764D01*
X76661410Y-45350000D01*
X75890000Y-45350000D01*
X75390000Y-45350000D01*
X75390000Y-44078590D01*
X75890000Y-44078590D01*
X75890000Y-44850000D01*
X76661410Y-44850000D01*
X76614766Y-44696235D01*
X76517268Y-44513828D01*
X76386054Y-44353945D01*
X76226171Y-44222731D01*
X76043764Y-44125233D01*
X75890000Y-44078590D01*
X75390000Y-44078590D01*
X75236235Y-44125233D01*
X75053828Y-44222731D01*
X75043165Y-44231483D01*
X74979679Y-44258697D01*
X74911483Y-44247725D01*
X74859738Y-44201970D01*
X74840500Y-44135630D01*
X74840500Y-43460333D01*
X74859738Y-43393993D01*
X74911483Y-43348238D01*
X74979679Y-43337266D01*
X75043164Y-43364479D01*
X75081462Y-43395910D01*
X75255273Y-43488814D01*
X75443868Y-43546024D01*
X75640000Y-43565341D01*
X75836132Y-43546024D01*
X76024727Y-43488814D01*
X76198538Y-43395910D01*
X76350883Y-43270883D01*
X76475910Y-43118538D01*
X76568814Y-42944727D01*
X76626024Y-42756132D01*
X76645341Y-42560000D01*
X76626024Y-42363868D01*
X76568814Y-42175273D01*
X76475910Y-42001462D01*
X76350883Y-41849117D01*
X76198538Y-41724090D01*
X76142326Y-41694044D01*
X76024726Y-41631185D01*
X75836133Y-41573976D01*
X75640000Y-41554659D01*
X75443866Y-41573976D01*
X75255273Y-41631185D01*
X75081463Y-41724089D01*
X75043165Y-41755520D01*
X74979679Y-41782734D01*
X74911483Y-41771762D01*
X74859738Y-41726007D01*
X74840500Y-41659667D01*
X74840500Y-41331188D01*
X74849939Y-41283735D01*
X74876819Y-41243507D01*
X75004134Y-41116192D01*
X75138452Y-40981872D01*
X75196004Y-40949270D01*
X75262126Y-40950892D01*
X75443868Y-41006024D01*
X75640000Y-41025341D01*
X75836132Y-41006024D01*
X76024727Y-40948814D01*
X76198538Y-40855910D01*
X76350883Y-40730883D01*
X76475910Y-40578538D01*
X76568814Y-40404727D01*
X76626024Y-40216132D01*
X76645341Y-40020000D01*
X76626024Y-39823868D01*
X76568814Y-39635273D01*
X76475910Y-39461462D01*
X76350883Y-39309117D01*
X76198538Y-39184090D01*
X76128525Y-39146667D01*
X76024726Y-39091185D01*
X75836133Y-39033976D01*
X75640000Y-39014659D01*
X75443866Y-39033976D01*
X75255273Y-39091185D01*
X75081463Y-39184089D01*
X74929117Y-39309117D01*
X74804089Y-39461463D01*
X74711185Y-39635273D01*
X74653976Y-39823866D01*
X74634659Y-40020000D01*
X74653975Y-40216130D01*
X74709106Y-40397870D01*
X74710729Y-40463994D01*
X74678126Y-40521546D01*
X74298714Y-40900958D01*
X74290741Y-40908264D01*
X74261806Y-40932544D01*
X74242914Y-40965264D01*
X74237106Y-40974380D01*
X74214831Y-41006193D01*
X74204597Y-41030899D01*
X74197852Y-41069148D01*
X74195512Y-41079704D01*
X74185735Y-41116192D01*
X74189028Y-41153820D01*
X74189500Y-41164628D01*
X74189500Y-42051986D01*
X74172479Y-42114688D01*
X74126089Y-42160175D01*
X74063065Y-42175962D01*
X74000710Y-42157713D01*
X73956142Y-42110439D01*
X73908364Y-42021054D01*
X73905910Y-42016462D01*
X73780883Y-41864117D01*
X73628538Y-41739090D01*
X73544263Y-41694044D01*
X73454726Y-41646185D01*
X73266133Y-41588976D01*
X73070000Y-41569659D01*
X72873869Y-41588975D01*
X72692128Y-41644106D01*
X72626003Y-41645729D01*
X72568452Y-41613126D01*
X72306819Y-41351493D01*
X72279939Y-41311265D01*
X72270500Y-41263812D01*
X72270500Y-40935333D01*
X72289738Y-40868993D01*
X72341483Y-40823238D01*
X72409679Y-40812266D01*
X72473164Y-40839479D01*
X72511462Y-40870910D01*
X72685273Y-40963814D01*
X72873868Y-41021024D01*
X73070000Y-41040341D01*
X73266132Y-41021024D01*
X73454727Y-40963814D01*
X73628538Y-40870910D01*
X73780883Y-40745883D01*
X73905910Y-40593538D01*
X73998814Y-40419727D01*
X74056024Y-40231132D01*
X74075341Y-40035000D01*
X74056024Y-39838868D01*
X73998814Y-39650273D01*
X73905910Y-39476462D01*
X73780883Y-39324117D01*
X73628538Y-39199090D01*
X73530462Y-39146667D01*
X73454726Y-39106185D01*
X73266133Y-39048976D01*
X73070000Y-39029659D01*
X72873866Y-39048976D01*
X72685273Y-39106185D01*
X72511463Y-39199089D01*
X72473165Y-39230520D01*
X72409679Y-39257734D01*
X72341483Y-39246762D01*
X72289738Y-39201007D01*
X72270500Y-39134667D01*
X72270500Y-38395333D01*
X72289738Y-38328993D01*
X72341483Y-38283238D01*
X72409679Y-38272266D01*
X72473164Y-38299479D01*
X72511462Y-38330910D01*
X72685273Y-38423814D01*
X72873868Y-38481024D01*
X73070000Y-38500341D01*
X73266132Y-38481024D01*
X73454727Y-38423814D01*
X73628538Y-38330910D01*
X73780883Y-38205883D01*
X73905910Y-38053538D01*
X73998814Y-37879727D01*
X74056024Y-37691132D01*
X74075341Y-37495000D01*
X74073864Y-37480000D01*
X74634659Y-37480000D01*
X74653976Y-37676133D01*
X74711185Y-37864726D01*
X74745157Y-37928282D01*
X74804090Y-38038538D01*
X74929117Y-38190883D01*
X75081462Y-38315910D01*
X75255273Y-38408814D01*
X75443868Y-38466024D01*
X75640000Y-38485341D01*
X75836132Y-38466024D01*
X76024727Y-38408814D01*
X76198538Y-38315910D01*
X76350883Y-38190883D01*
X76475910Y-38038538D01*
X76534843Y-37928282D01*
X76565437Y-37871046D01*
X76611046Y-37823142D01*
X76674795Y-37805500D01*
X76793812Y-37805500D01*
X76841265Y-37814939D01*
X76881493Y-37841819D01*
X78638181Y-39598508D01*
X78665061Y-39638736D01*
X78674500Y-39686189D01*
X78674500Y-47426000D01*
X78657887Y-47488000D01*
X78612500Y-47533387D01*
X78550500Y-47550000D01*
X78075000Y-47550000D01*
X78075000Y-49750000D01*
X78505312Y-49750000D01*
X78561607Y-49763515D01*
X78605630Y-49801115D01*
X78627785Y-49854602D01*
X78623243Y-49912318D01*
X78592993Y-49961681D01*
X78366287Y-50188386D01*
X78322285Y-50216757D01*
X78270495Y-50224439D01*
X78241310Y-50216105D01*
X78240641Y-50218313D01*
X78030932Y-50154699D01*
X77825000Y-50134417D01*
X77619067Y-50154699D01*
X77421043Y-50214769D01*
X77238551Y-50312314D01*
X77078589Y-50443589D01*
X76947314Y-50603551D01*
X76849769Y-50786043D01*
X76789699Y-50984067D01*
X76769417Y-51189999D01*
X76789699Y-51395932D01*
X76817348Y-51487078D01*
X76849768Y-51593954D01*
X76947315Y-51776450D01*
X76967832Y-51801450D01*
X77078589Y-51936410D01*
X77151362Y-51996132D01*
X77238550Y-52067685D01*
X77421046Y-52165232D01*
X77619066Y-52225300D01*
X77825000Y-52245583D01*
X78030934Y-52225300D01*
X78228954Y-52165232D01*
X78411450Y-52067685D01*
X78571410Y-51936410D01*
X78702685Y-51776450D01*
X78800232Y-51593954D01*
X78860300Y-51395934D01*
X78880583Y-51190000D01*
X78860300Y-50984066D01*
X78800232Y-50786046D01*
X78800230Y-50786042D01*
X78796686Y-50774359D01*
X78798894Y-50773688D01*
X78790560Y-50744519D01*
X78798238Y-50692721D01*
X78826610Y-50648714D01*
X79216290Y-50259034D01*
X79224258Y-50251734D01*
X79253192Y-50227457D01*
X79253192Y-50227456D01*
X79253194Y-50227455D01*
X79272091Y-50194722D01*
X79277887Y-50185625D01*
X79299554Y-50154684D01*
X79299554Y-50154682D01*
X79300173Y-50153799D01*
X79310399Y-50129112D01*
X79310586Y-50128047D01*
X79310588Y-50128045D01*
X79317149Y-50090830D01*
X79319478Y-50080324D01*
X79329264Y-50043807D01*
X79325971Y-50006180D01*
X79325500Y-49995373D01*
X79325500Y-45099999D01*
X82254659Y-45099999D01*
X82273976Y-45296133D01*
X82331185Y-45484726D01*
X82354991Y-45529263D01*
X82424090Y-45658538D01*
X82549117Y-45810883D01*
X82701462Y-45935910D01*
X82875273Y-46028814D01*
X83063868Y-46086024D01*
X83260000Y-46105341D01*
X83456132Y-46086024D01*
X83644727Y-46028814D01*
X83818538Y-45935910D01*
X83970883Y-45810883D01*
X84095910Y-45658538D01*
X84188814Y-45484727D01*
X84246024Y-45296132D01*
X84265341Y-45100000D01*
X84246024Y-44903868D01*
X84188814Y-44715273D01*
X84095910Y-44541462D01*
X83970883Y-44389117D01*
X83818538Y-44264090D01*
X83702320Y-44201970D01*
X83644726Y-44171185D01*
X83456133Y-44113976D01*
X83260000Y-44094659D01*
X83063866Y-44113976D01*
X82875273Y-44171185D01*
X82701463Y-44264089D01*
X82549117Y-44389117D01*
X82424089Y-44541463D01*
X82331185Y-44715273D01*
X82273976Y-44903866D01*
X82254659Y-45099999D01*
X79325500Y-45099999D01*
X79325500Y-42559999D01*
X82254659Y-42559999D01*
X82273976Y-42756133D01*
X82331185Y-42944726D01*
X82355291Y-42989825D01*
X82424090Y-43118538D01*
X82549117Y-43270883D01*
X82701462Y-43395910D01*
X82875273Y-43488814D01*
X83063868Y-43546024D01*
X83260000Y-43565341D01*
X83456132Y-43546024D01*
X83644727Y-43488814D01*
X83818538Y-43395910D01*
X83970883Y-43270883D01*
X84095910Y-43118538D01*
X84188814Y-42944727D01*
X84246024Y-42756132D01*
X84265341Y-42560000D01*
X84246024Y-42363868D01*
X84188814Y-42175273D01*
X84095910Y-42001462D01*
X83970883Y-41849117D01*
X83818538Y-41724090D01*
X83762326Y-41694044D01*
X83644726Y-41631185D01*
X83456133Y-41573976D01*
X83260000Y-41554659D01*
X83063866Y-41573976D01*
X82875273Y-41631185D01*
X82701463Y-41724089D01*
X82549117Y-41849117D01*
X82424089Y-42001463D01*
X82331185Y-42175273D01*
X82273976Y-42363866D01*
X82254659Y-42559999D01*
X79325500Y-42559999D01*
X79325500Y-40020000D01*
X82254659Y-40020000D01*
X82273976Y-40216133D01*
X82331185Y-40404726D01*
X82393627Y-40521546D01*
X82424090Y-40578538D01*
X82549117Y-40730883D01*
X82701462Y-40855910D01*
X82875273Y-40948814D01*
X83063868Y-41006024D01*
X83260000Y-41025341D01*
X83456132Y-41006024D01*
X83644727Y-40948814D01*
X83818538Y-40855910D01*
X83970883Y-40730883D01*
X84095910Y-40578538D01*
X84188814Y-40404727D01*
X84246024Y-40216132D01*
X84265341Y-40020000D01*
X84246024Y-39823868D01*
X84188814Y-39635273D01*
X84095910Y-39461462D01*
X83970883Y-39309117D01*
X83818538Y-39184090D01*
X83748525Y-39146667D01*
X83644726Y-39091185D01*
X83456133Y-39033976D01*
X83260000Y-39014659D01*
X83063866Y-39033976D01*
X82875273Y-39091185D01*
X82701463Y-39184089D01*
X82549117Y-39309117D01*
X82424089Y-39461463D01*
X82331185Y-39635273D01*
X82273976Y-39823866D01*
X82254659Y-40020000D01*
X79325500Y-40020000D01*
X79325500Y-39519616D01*
X79325972Y-39508808D01*
X79329263Y-39471193D01*
X79319486Y-39434706D01*
X79317145Y-39424143D01*
X79310402Y-39385901D01*
X79300169Y-39361195D01*
X79277894Y-39329382D01*
X79272083Y-39320261D01*
X79253194Y-39287545D01*
X79224261Y-39263267D01*
X79216286Y-39255959D01*
X77440326Y-37480000D01*
X82254659Y-37480000D01*
X82273976Y-37676133D01*
X82331185Y-37864726D01*
X82365157Y-37928282D01*
X82424090Y-38038538D01*
X82549117Y-38190883D01*
X82701462Y-38315910D01*
X82875273Y-38408814D01*
X83063868Y-38466024D01*
X83260000Y-38485341D01*
X83456132Y-38466024D01*
X83644727Y-38408814D01*
X83818538Y-38315910D01*
X83970883Y-38190883D01*
X84095910Y-38038538D01*
X84188814Y-37864727D01*
X84246024Y-37676132D01*
X84265341Y-37480000D01*
X84246024Y-37283868D01*
X84188814Y-37095273D01*
X84095910Y-36921462D01*
X83970883Y-36769117D01*
X83818538Y-36644090D01*
X83758163Y-36611819D01*
X83644726Y-36551185D01*
X83456133Y-36493976D01*
X83358066Y-36484317D01*
X83260000Y-36474659D01*
X83259999Y-36474659D01*
X83063866Y-36493976D01*
X82875273Y-36551185D01*
X82701463Y-36644089D01*
X82549117Y-36769117D01*
X82424089Y-36921463D01*
X82331185Y-37095273D01*
X82273976Y-37283866D01*
X82254659Y-37480000D01*
X77440326Y-37480000D01*
X77224043Y-37263717D01*
X77216734Y-37255741D01*
X77192454Y-37226805D01*
X77159736Y-37207915D01*
X77150627Y-37202112D01*
X77119684Y-37180446D01*
X77118803Y-37179829D01*
X77094107Y-37169599D01*
X77055852Y-37162853D01*
X77045296Y-37160512D01*
X77008807Y-37150735D01*
X76971180Y-37154028D01*
X76960372Y-37154500D01*
X76725187Y-37154500D01*
X76668892Y-37140985D01*
X76624869Y-37103385D01*
X76602714Y-37049898D01*
X76607256Y-36992182D01*
X76637506Y-36942819D01*
X78640325Y-34940000D01*
X82254659Y-34940000D01*
X82273976Y-35136133D01*
X82331185Y-35324726D01*
X82398384Y-35450446D01*
X82424090Y-35498538D01*
X82549117Y-35650883D01*
X82701462Y-35775910D01*
X82875273Y-35868814D01*
X83063868Y-35926024D01*
X83260000Y-35945341D01*
X83456132Y-35926024D01*
X83644727Y-35868814D01*
X83818538Y-35775910D01*
X83970883Y-35650883D01*
X84095910Y-35498538D01*
X84188814Y-35324727D01*
X84246024Y-35136132D01*
X84265341Y-34940000D01*
X84246024Y-34743868D01*
X84188814Y-34555273D01*
X84095910Y-34381462D01*
X83970883Y-34229117D01*
X83818538Y-34104090D01*
X83747634Y-34066191D01*
X83644726Y-34011185D01*
X83456133Y-33953976D01*
X83260000Y-33934659D01*
X83063866Y-33953976D01*
X82875273Y-34011185D01*
X82701463Y-34104089D01*
X82549117Y-34229117D01*
X82424089Y-34381463D01*
X82331185Y-34555273D01*
X82273976Y-34743866D01*
X82254659Y-34940000D01*
X78640325Y-34940000D01*
X79672781Y-33907544D01*
X81180326Y-32399999D01*
X82254659Y-32399999D01*
X82273976Y-32596133D01*
X82331185Y-32784726D01*
X82395373Y-32904812D01*
X82424090Y-32958538D01*
X82549117Y-33110883D01*
X82701462Y-33235910D01*
X82875273Y-33328814D01*
X83063868Y-33386024D01*
X83260000Y-33405341D01*
X83456132Y-33386024D01*
X83644727Y-33328814D01*
X83818538Y-33235910D01*
X83970883Y-33110883D01*
X84095910Y-32958538D01*
X84188814Y-32784727D01*
X84246024Y-32596132D01*
X84265341Y-32400000D01*
X84246024Y-32203868D01*
X84188814Y-32015273D01*
X84095910Y-31841462D01*
X83970883Y-31689117D01*
X83818538Y-31564090D01*
X83766294Y-31536165D01*
X83644726Y-31471185D01*
X83456133Y-31413976D01*
X83260000Y-31394659D01*
X83063866Y-31413976D01*
X82875273Y-31471185D01*
X82701463Y-31564089D01*
X82549117Y-31689117D01*
X82424089Y-31841463D01*
X82331185Y-32015273D01*
X82273976Y-32203866D01*
X82254659Y-32399999D01*
X81180326Y-32399999D01*
X82758454Y-30821871D01*
X82816004Y-30789270D01*
X82882126Y-30790892D01*
X83063868Y-30846024D01*
X83260000Y-30865341D01*
X83456132Y-30846024D01*
X83644727Y-30788814D01*
X83818538Y-30695910D01*
X83970883Y-30570883D01*
X84095910Y-30418538D01*
X84188814Y-30244727D01*
X84246024Y-30056132D01*
X84265341Y-29860000D01*
X84246024Y-29663868D01*
X84188814Y-29475273D01*
X84095910Y-29301462D01*
X83970883Y-29149117D01*
X83818538Y-29024090D01*
X83727373Y-28975361D01*
X83644726Y-28931185D01*
X83456133Y-28873976D01*
X83260000Y-28854659D01*
X83063866Y-28873976D01*
X82875273Y-28931185D01*
X82701463Y-29024089D01*
X82549117Y-29149117D01*
X82424090Y-29301461D01*
X82334563Y-29468954D01*
X82288954Y-29516858D01*
X82225205Y-29534500D01*
X76764500Y-29534500D01*
X76702500Y-29517887D01*
X76657113Y-29472500D01*
X76640500Y-29410500D01*
X76640500Y-29040251D01*
X76628867Y-28981769D01*
X76584552Y-28915447D01*
X76518230Y-28871132D01*
X76459749Y-28859500D01*
X76459748Y-28859500D01*
X74820252Y-28859500D01*
X74820251Y-28859500D01*
X74761769Y-28871132D01*
X74695447Y-28915447D01*
X74651132Y-28981769D01*
X74639500Y-29040251D01*
X74639500Y-30679749D01*
X74651132Y-30738230D01*
X74695447Y-30804552D01*
X74761769Y-30848867D01*
X74820251Y-30860500D01*
X74820252Y-30860500D01*
X76459748Y-30860500D01*
X76459749Y-30860500D01*
X76493758Y-30853735D01*
X76518231Y-30848867D01*
X76584552Y-30804552D01*
X76628867Y-30738231D01*
X76640500Y-30679748D01*
X76640500Y-30309500D01*
X76657113Y-30247500D01*
X76702500Y-30202113D01*
X76764500Y-30185500D01*
X82174810Y-30185500D01*
X82231105Y-30199015D01*
X82275128Y-30236615D01*
X82297283Y-30290102D01*
X82292741Y-30347818D01*
X82262491Y-30397181D01*
X76141546Y-36518126D01*
X76083994Y-36550729D01*
X76017870Y-36549106D01*
X75836130Y-36493975D01*
X75661426Y-36476769D01*
X75640000Y-36474659D01*
X75639999Y-36474659D01*
X75443866Y-36493976D01*
X75255273Y-36551185D01*
X75081463Y-36644089D01*
X74929117Y-36769117D01*
X74804089Y-36921463D01*
X74711185Y-37095273D01*
X74653976Y-37283866D01*
X74634659Y-37480000D01*
X74073864Y-37480000D01*
X74056024Y-37298868D01*
X73998814Y-37110273D01*
X73905910Y-36936462D01*
X73780883Y-36784117D01*
X73628538Y-36659090D01*
X73587012Y-36636894D01*
X73454726Y-36566185D01*
X73266133Y-36508976D01*
X73070000Y-36489659D01*
X72873866Y-36508976D01*
X72685273Y-36566185D01*
X72511463Y-36659089D01*
X72473165Y-36690520D01*
X72409679Y-36717734D01*
X72341483Y-36706762D01*
X72289738Y-36661007D01*
X72270500Y-36594667D01*
X72270500Y-35855333D01*
X72289738Y-35788993D01*
X72341483Y-35743238D01*
X72409679Y-35732266D01*
X72473164Y-35759479D01*
X72511462Y-35790910D01*
X72685273Y-35883814D01*
X72873868Y-35941024D01*
X73070000Y-35960341D01*
X73266132Y-35941024D01*
X73454727Y-35883814D01*
X73628538Y-35790910D01*
X73780883Y-35665883D01*
X73905910Y-35513538D01*
X73998814Y-35339727D01*
X74056024Y-35151132D01*
X74075341Y-34955000D01*
X74073864Y-34940000D01*
X74634659Y-34940000D01*
X74653976Y-35136133D01*
X74711185Y-35324726D01*
X74778384Y-35450446D01*
X74804090Y-35498538D01*
X74929117Y-35650883D01*
X75081462Y-35775910D01*
X75255273Y-35868814D01*
X75443868Y-35926024D01*
X75640000Y-35945341D01*
X75836132Y-35926024D01*
X76024727Y-35868814D01*
X76198538Y-35775910D01*
X76350883Y-35650883D01*
X76475910Y-35498538D01*
X76568814Y-35324727D01*
X76626024Y-35136132D01*
X76645341Y-34940000D01*
X76626024Y-34743868D01*
X76568814Y-34555273D01*
X76475910Y-34381462D01*
X76350883Y-34229117D01*
X76198538Y-34104090D01*
X76127634Y-34066191D01*
X76024726Y-34011185D01*
X75836133Y-33953976D01*
X75640000Y-33934659D01*
X75443866Y-33953976D01*
X75255273Y-34011185D01*
X75081463Y-34104089D01*
X74929117Y-34229117D01*
X74804089Y-34381463D01*
X74711185Y-34555273D01*
X74653976Y-34743866D01*
X74634659Y-34940000D01*
X74073864Y-34940000D01*
X74056024Y-34758868D01*
X73998814Y-34570273D01*
X73905910Y-34396462D01*
X73780883Y-34244117D01*
X73628538Y-34119090D01*
X73599955Y-34103812D01*
X73454726Y-34026185D01*
X73266133Y-33968976D01*
X73070000Y-33949659D01*
X72873866Y-33968976D01*
X72685273Y-34026185D01*
X72511462Y-34119089D01*
X72471813Y-34151629D01*
X72416344Y-34177587D01*
X72355217Y-34173832D01*
X72303342Y-34141280D01*
X72273374Y-34087871D01*
X72264487Y-34054706D01*
X72262145Y-34044143D01*
X72258979Y-34026186D01*
X72255588Y-34006955D01*
X72255587Y-34006954D01*
X72255400Y-34005891D01*
X72245171Y-33981198D01*
X72244554Y-33980317D01*
X72244554Y-33980316D01*
X72222892Y-33949379D01*
X72217080Y-33940256D01*
X72198194Y-33907544D01*
X72169255Y-33883262D01*
X72161280Y-33875954D01*
X70700325Y-32414999D01*
X72064659Y-32414999D01*
X72083976Y-32611133D01*
X72141185Y-32799726D01*
X72179538Y-32871479D01*
X72234090Y-32973538D01*
X72359117Y-33125883D01*
X72511462Y-33250910D01*
X72685273Y-33343814D01*
X72873868Y-33401024D01*
X73070000Y-33420341D01*
X73266132Y-33401024D01*
X73454727Y-33343814D01*
X73628538Y-33250910D01*
X73780883Y-33125883D01*
X73905910Y-32973538D01*
X73998814Y-32799727D01*
X74056024Y-32611132D01*
X74075341Y-32415000D01*
X74073864Y-32399999D01*
X74634659Y-32399999D01*
X74653976Y-32596133D01*
X74711185Y-32784726D01*
X74775373Y-32904812D01*
X74804090Y-32958538D01*
X74929117Y-33110883D01*
X75081462Y-33235910D01*
X75255273Y-33328814D01*
X75443868Y-33386024D01*
X75640000Y-33405341D01*
X75836132Y-33386024D01*
X76024727Y-33328814D01*
X76198538Y-33235910D01*
X76350883Y-33110883D01*
X76475910Y-32958538D01*
X76568814Y-32784727D01*
X76626024Y-32596132D01*
X76645341Y-32400000D01*
X76626024Y-32203868D01*
X76568814Y-32015273D01*
X76475910Y-31841462D01*
X76350883Y-31689117D01*
X76198538Y-31564090D01*
X76146294Y-31536165D01*
X76024726Y-31471185D01*
X75836133Y-31413976D01*
X75640000Y-31394659D01*
X75443866Y-31413976D01*
X75255273Y-31471185D01*
X75081463Y-31564089D01*
X74929117Y-31689117D01*
X74804089Y-31841463D01*
X74711185Y-32015273D01*
X74653976Y-32203866D01*
X74634659Y-32399999D01*
X74073864Y-32399999D01*
X74056024Y-32218868D01*
X73998814Y-32030273D01*
X73905910Y-31856462D01*
X73780883Y-31704117D01*
X73628538Y-31579090D01*
X73548231Y-31536165D01*
X73454726Y-31486185D01*
X73266133Y-31428976D01*
X73070000Y-31409659D01*
X72873866Y-31428976D01*
X72685273Y-31486185D01*
X72511463Y-31579089D01*
X72359117Y-31704117D01*
X72234089Y-31856463D01*
X72141185Y-32030273D01*
X72083976Y-32218866D01*
X72064659Y-32414999D01*
X70700325Y-32414999D01*
X66819043Y-28533717D01*
X66811734Y-28525741D01*
X66787455Y-28496806D01*
X66787454Y-28496805D01*
X66754736Y-28477915D01*
X66745627Y-28472112D01*
X66714684Y-28450446D01*
X66713803Y-28449829D01*
X66689107Y-28439599D01*
X66650852Y-28432853D01*
X66640296Y-28430512D01*
X66603807Y-28420735D01*
X66566180Y-28424028D01*
X66555372Y-28424500D01*
X64267605Y-28424500D01*
X64250614Y-28430683D01*
X64229748Y-28436273D01*
X64211956Y-28439410D01*
X64196306Y-28448446D01*
X64176724Y-28457577D01*
X64159738Y-28463760D01*
X64145891Y-28475378D01*
X64128194Y-28487770D01*
X64112544Y-28496806D01*
X64100926Y-28510651D01*
X64085650Y-28525927D01*
X64071804Y-28537545D01*
X64062770Y-28553193D01*
X64050377Y-28570893D01*
X64038760Y-28584737D01*
X64032578Y-28601723D01*
X64023447Y-28621304D01*
X64014411Y-28636955D01*
X64011274Y-28654748D01*
X64005681Y-28675622D01*
X63999500Y-28692605D01*
X63999500Y-35238810D01*
X63990061Y-35286262D01*
X63963182Y-35326491D01*
X63901493Y-35388181D01*
X63861264Y-35415061D01*
X63813811Y-35424500D01*
X50226426Y-35424500D01*
X50215618Y-35424028D01*
X50177990Y-35420735D01*
X50141502Y-35430512D01*
X50130946Y-35432852D01*
X50092697Y-35439597D01*
X50067991Y-35449831D01*
X50036178Y-35472106D01*
X50027062Y-35477914D01*
X49994343Y-35496805D01*
X49970060Y-35525744D01*
X49962754Y-35533716D01*
X44518177Y-40978293D01*
X44457070Y-41011731D01*
X44387577Y-41006948D01*
X44331628Y-40965453D01*
X44306878Y-40900341D01*
X44321138Y-40832159D01*
X44389766Y-40703764D01*
X44436410Y-40550000D01*
X43665000Y-40550000D01*
X43665000Y-41321410D01*
X43674512Y-41328465D01*
X43707682Y-41308462D01*
X43818763Y-41274766D01*
X43947159Y-41206138D01*
X44015341Y-41191878D01*
X44080453Y-41216628D01*
X44121948Y-41272577D01*
X44126731Y-41342070D01*
X44093293Y-41403177D01*
X43978982Y-41517488D01*
X43931160Y-41547226D01*
X43875116Y-41552746D01*
X43807296Y-41543817D01*
X43759859Y-41550062D01*
X43699363Y-41542935D01*
X43695909Y-41540502D01*
X43691714Y-41545209D01*
X43664571Y-41555683D01*
X43665618Y-41558209D01*
X43504457Y-41624963D01*
X43379016Y-41721217D01*
X43337375Y-41775486D01*
X43293843Y-41811212D01*
X43238999Y-41824000D01*
X35290688Y-41824000D01*
X35243235Y-41814561D01*
X35203007Y-41787681D01*
X34216873Y-40801547D01*
X34184270Y-40743995D01*
X34185894Y-40677870D01*
X34211476Y-40593538D01*
X34241024Y-40496132D01*
X34260341Y-40300000D01*
X34789659Y-40300000D01*
X34808976Y-40496133D01*
X34866185Y-40684726D01*
X34928628Y-40801547D01*
X34959090Y-40858538D01*
X35084117Y-41010883D01*
X35236462Y-41135910D01*
X35410273Y-41228814D01*
X35598868Y-41286024D01*
X35795000Y-41305341D01*
X35991132Y-41286024D01*
X36179727Y-41228814D01*
X36353538Y-41135910D01*
X36505883Y-41010883D01*
X36630910Y-40858538D01*
X36723814Y-40684727D01*
X36781024Y-40496132D01*
X36800341Y-40300000D01*
X37329659Y-40300000D01*
X37348976Y-40496133D01*
X37406185Y-40684726D01*
X37468628Y-40801547D01*
X37499090Y-40858538D01*
X37624117Y-41010883D01*
X37776462Y-41135910D01*
X37950273Y-41228814D01*
X38138868Y-41286024D01*
X38335000Y-41305341D01*
X38531132Y-41286024D01*
X38719727Y-41228814D01*
X38893538Y-41135910D01*
X39045883Y-41010883D01*
X39170910Y-40858538D01*
X39263814Y-40684727D01*
X39321024Y-40496132D01*
X39340341Y-40300000D01*
X39321024Y-40103868D01*
X39263814Y-39915273D01*
X39170910Y-39741462D01*
X39045883Y-39589117D01*
X38893538Y-39464090D01*
X38871091Y-39452091D01*
X38719726Y-39371185D01*
X38531133Y-39313976D01*
X38335000Y-39294659D01*
X38138866Y-39313976D01*
X37950273Y-39371185D01*
X37776463Y-39464089D01*
X37624117Y-39589117D01*
X37499089Y-39741463D01*
X37406185Y-39915273D01*
X37348976Y-40103866D01*
X37329659Y-40300000D01*
X36800341Y-40300000D01*
X36781024Y-40103868D01*
X36723814Y-39915273D01*
X36630910Y-39741462D01*
X36505883Y-39589117D01*
X36353538Y-39464090D01*
X36331091Y-39452091D01*
X36179726Y-39371185D01*
X35991133Y-39313976D01*
X35795000Y-39294659D01*
X35598866Y-39313976D01*
X35410273Y-39371185D01*
X35236463Y-39464089D01*
X35084117Y-39589117D01*
X34959089Y-39741463D01*
X34866185Y-39915273D01*
X34808976Y-40103866D01*
X34789659Y-40300000D01*
X34260341Y-40300000D01*
X34241024Y-40103868D01*
X34183814Y-39915273D01*
X34090910Y-39741462D01*
X33965883Y-39589117D01*
X33813538Y-39464090D01*
X33791091Y-39452091D01*
X33639726Y-39371185D01*
X33451133Y-39313976D01*
X33304152Y-39299500D01*
X33255000Y-39294659D01*
X33254999Y-39294659D01*
X33139187Y-39306065D01*
X33079580Y-39297223D01*
X33031179Y-39261326D01*
X33005416Y-39206853D01*
X33008372Y-39146667D01*
X33039350Y-39094983D01*
X38430076Y-33704257D01*
X38464738Y-33679846D01*
X38505600Y-33668538D01*
X38531132Y-33666024D01*
X38719727Y-33608814D01*
X38893538Y-33515910D01*
X39045883Y-33390883D01*
X39170910Y-33238538D01*
X39263814Y-33064727D01*
X39321024Y-32876132D01*
X39340341Y-32680000D01*
X39321024Y-32483868D01*
X39263814Y-32295273D01*
X39170910Y-32121462D01*
X39139479Y-32083164D01*
X39112266Y-32019679D01*
X39123238Y-31951483D01*
X39168993Y-31899738D01*
X39235333Y-31880500D01*
X39974667Y-31880500D01*
X40041007Y-31899738D01*
X40086762Y-31951483D01*
X40097734Y-32019679D01*
X40070520Y-32083164D01*
X40056779Y-32099908D01*
X40039089Y-32121463D01*
X39946185Y-32295273D01*
X39888976Y-32483866D01*
X39869659Y-32679999D01*
X39888975Y-32876130D01*
X39930557Y-33013206D01*
X39934453Y-33068061D01*
X39914244Y-33119207D01*
X39895084Y-33136958D01*
X39858762Y-33180244D01*
X39851456Y-33188216D01*
X36171684Y-36867988D01*
X36123862Y-36897726D01*
X36067818Y-36903246D01*
X36000000Y-36894317D01*
X35843237Y-36914956D01*
X35697159Y-36975463D01*
X35571717Y-37071717D01*
X35475463Y-37197159D01*
X35414956Y-37343237D01*
X35394317Y-37500000D01*
X35414956Y-37656762D01*
X35475463Y-37802840D01*
X35571717Y-37928282D01*
X35697159Y-38024536D01*
X35843238Y-38085044D01*
X36000000Y-38105682D01*
X36156762Y-38085044D01*
X36302841Y-38024536D01*
X36428282Y-37928282D01*
X36524536Y-37802841D01*
X36585044Y-37656762D01*
X36605682Y-37500000D01*
X36596752Y-37432180D01*
X36602273Y-37376136D01*
X36632009Y-37328315D01*
X40213674Y-33746650D01*
X40244102Y-33724341D01*
X40252390Y-33721528D01*
X40261986Y-33715987D01*
X40289299Y-33704673D01*
X40290182Y-33704054D01*
X40290184Y-33704054D01*
X40321125Y-33682387D01*
X40330222Y-33676591D01*
X40362955Y-33657694D01*
X40368849Y-33650669D01*
X40406180Y-33620595D01*
X40452133Y-33606928D01*
X40499831Y-33611713D01*
X40678868Y-33666024D01*
X40875000Y-33685341D01*
X41071132Y-33666024D01*
X41259727Y-33608814D01*
X41433538Y-33515910D01*
X41585883Y-33390883D01*
X41710910Y-33238538D01*
X41803814Y-33064727D01*
X41861024Y-32876132D01*
X41880341Y-32680000D01*
X41861024Y-32483868D01*
X41803814Y-32295273D01*
X41710910Y-32121462D01*
X41679479Y-32083164D01*
X41652266Y-32019679D01*
X41663238Y-31951483D01*
X41708993Y-31899738D01*
X41775333Y-31880500D01*
X42514667Y-31880500D01*
X42581007Y-31899738D01*
X42626762Y-31951483D01*
X42637734Y-32019679D01*
X42610520Y-32083164D01*
X42596779Y-32099908D01*
X42579089Y-32121463D01*
X42486185Y-32295273D01*
X42428976Y-32483866D01*
X42409659Y-32679999D01*
X42428975Y-32876131D01*
X42484105Y-33057870D01*
X42485728Y-33123995D01*
X42453125Y-33181546D01*
X40658714Y-34975958D01*
X40650741Y-34983264D01*
X40621806Y-35007544D01*
X40602914Y-35040264D01*
X40597106Y-35049380D01*
X40574831Y-35081193D01*
X40564597Y-35105899D01*
X40557852Y-35144148D01*
X40555512Y-35154704D01*
X40545735Y-35191192D01*
X40549028Y-35228820D01*
X40549500Y-35239628D01*
X40549500Y-39265205D01*
X40531858Y-39328954D01*
X40483954Y-39374563D01*
X40316461Y-39464090D01*
X40164117Y-39589117D01*
X40039089Y-39741463D01*
X39946185Y-39915273D01*
X39888976Y-40103866D01*
X39869659Y-40300000D01*
X39888976Y-40496133D01*
X39946185Y-40684726D01*
X40008628Y-40801547D01*
X40039090Y-40858538D01*
X40164117Y-41010883D01*
X40316462Y-41135910D01*
X40490273Y-41228814D01*
X40678868Y-41286024D01*
X40875000Y-41305341D01*
X41071132Y-41286024D01*
X41259727Y-41228814D01*
X41433538Y-41135910D01*
X41585883Y-41010883D01*
X41710910Y-40858538D01*
X41803814Y-40684727D01*
X41844683Y-40550000D01*
X42393590Y-40550000D01*
X42440233Y-40703764D01*
X42537731Y-40886171D01*
X42668945Y-41046054D01*
X42828828Y-41177268D01*
X43011235Y-41274766D01*
X43165000Y-41321410D01*
X43165000Y-40550000D01*
X42393590Y-40550000D01*
X41844683Y-40550000D01*
X41861024Y-40496132D01*
X41880341Y-40300000D01*
X41861024Y-40103868D01*
X41844683Y-40050000D01*
X42393590Y-40050000D01*
X43165000Y-40050000D01*
X43165000Y-39278590D01*
X43665000Y-39278590D01*
X43665000Y-40050000D01*
X44436410Y-40050000D01*
X44389766Y-39896235D01*
X44292268Y-39713828D01*
X44161054Y-39553945D01*
X44001171Y-39422731D01*
X43818764Y-39325233D01*
X43665000Y-39278590D01*
X43165000Y-39278590D01*
X43011235Y-39325233D01*
X42828828Y-39422731D01*
X42668945Y-39553945D01*
X42537731Y-39713828D01*
X42440233Y-39896235D01*
X42393590Y-40050000D01*
X41844683Y-40050000D01*
X41803814Y-39915273D01*
X41710910Y-39741462D01*
X41585883Y-39589117D01*
X41433538Y-39464090D01*
X41428621Y-39461462D01*
X41266046Y-39374563D01*
X41218142Y-39328954D01*
X41200500Y-39265205D01*
X41200500Y-35406188D01*
X41209939Y-35358735D01*
X41236819Y-35318507D01*
X42000053Y-34555273D01*
X42913454Y-33641871D01*
X42971004Y-33609270D01*
X43037126Y-33610892D01*
X43218868Y-33666024D01*
X43415000Y-33685341D01*
X43611132Y-33666024D01*
X43799727Y-33608814D01*
X43973538Y-33515910D01*
X44125883Y-33390883D01*
X44250910Y-33238538D01*
X44271510Y-33199999D01*
X47569417Y-33199999D01*
X47589699Y-33405932D01*
X47594433Y-33421537D01*
X47623060Y-33515910D01*
X47649769Y-33603956D01*
X47674939Y-33651046D01*
X47747315Y-33786450D01*
X47798609Y-33848952D01*
X47878589Y-33946410D01*
X47921902Y-33981955D01*
X48038550Y-34077685D01*
X48221046Y-34175232D01*
X48419066Y-34235300D01*
X48625000Y-34255583D01*
X48830934Y-34235300D01*
X49028954Y-34175232D01*
X49211450Y-34077685D01*
X49371410Y-33946410D01*
X49502685Y-33786450D01*
X49600232Y-33603954D01*
X49660300Y-33405934D01*
X49680583Y-33200000D01*
X49680583Y-33199999D01*
X50109417Y-33199999D01*
X50129699Y-33405932D01*
X50134433Y-33421537D01*
X50163060Y-33515910D01*
X50189769Y-33603956D01*
X50214939Y-33651046D01*
X50287315Y-33786450D01*
X50338609Y-33848952D01*
X50418589Y-33946410D01*
X50461902Y-33981955D01*
X50578550Y-34077685D01*
X50761046Y-34175232D01*
X50959066Y-34235300D01*
X51165000Y-34255583D01*
X51370934Y-34235300D01*
X51568954Y-34175232D01*
X51751450Y-34077685D01*
X51911410Y-33946410D01*
X52042685Y-33786450D01*
X52140232Y-33603954D01*
X52200300Y-33405934D01*
X52220583Y-33200000D01*
X52200300Y-32994066D01*
X52140232Y-32796046D01*
X52042685Y-32613550D01*
X51977047Y-32533569D01*
X51911410Y-32453589D01*
X51789910Y-32353878D01*
X51751450Y-32322315D01*
X51620754Y-32252456D01*
X51568956Y-32224769D01*
X51568955Y-32224768D01*
X51568954Y-32224768D01*
X51438521Y-32185202D01*
X51370932Y-32164699D01*
X51165000Y-32144417D01*
X50959067Y-32164699D01*
X50761043Y-32224769D01*
X50578551Y-32322314D01*
X50418589Y-32453589D01*
X50287314Y-32613551D01*
X50189769Y-32796043D01*
X50129699Y-32994067D01*
X50109417Y-33199999D01*
X49680583Y-33199999D01*
X49660300Y-32994066D01*
X49600232Y-32796046D01*
X49502685Y-32613550D01*
X49437047Y-32533569D01*
X49371410Y-32453589D01*
X49249910Y-32353878D01*
X49211450Y-32322315D01*
X49080754Y-32252456D01*
X49028956Y-32224769D01*
X49028955Y-32224768D01*
X49028954Y-32224768D01*
X48898521Y-32185202D01*
X48830932Y-32164699D01*
X48625000Y-32144417D01*
X48419067Y-32164699D01*
X48221043Y-32224769D01*
X48038551Y-32322314D01*
X47878589Y-32453589D01*
X47747314Y-32613551D01*
X47649769Y-32796043D01*
X47589699Y-32994067D01*
X47569417Y-33199999D01*
X44271510Y-33199999D01*
X44343814Y-33064727D01*
X44401024Y-32876132D01*
X44420341Y-32680000D01*
X44401024Y-32483868D01*
X44343814Y-32295273D01*
X44250910Y-32121462D01*
X44219479Y-32083164D01*
X44192266Y-32019679D01*
X44203238Y-31951483D01*
X44248993Y-31899738D01*
X44315333Y-31880500D01*
X51873812Y-31880500D01*
X51921265Y-31889939D01*
X51961492Y-31916818D01*
X52703387Y-32658714D01*
X52731754Y-32702706D01*
X52739441Y-32754486D01*
X52731106Y-32783689D01*
X52733313Y-32784359D01*
X52669699Y-32994067D01*
X52649417Y-33199999D01*
X52669699Y-33405932D01*
X52674433Y-33421537D01*
X52703060Y-33515910D01*
X52729769Y-33603956D01*
X52754939Y-33651046D01*
X52827315Y-33786450D01*
X52878609Y-33848952D01*
X52958589Y-33946410D01*
X53001902Y-33981955D01*
X53118550Y-34077685D01*
X53301046Y-34175232D01*
X53499066Y-34235300D01*
X53705000Y-34255583D01*
X53910934Y-34235300D01*
X54108954Y-34175232D01*
X54291450Y-34077685D01*
X54451410Y-33946410D01*
X54582685Y-33786450D01*
X54680232Y-33603954D01*
X54740300Y-33405934D01*
X54747957Y-33328191D01*
X54773603Y-33264059D01*
X54829584Y-33223596D01*
X54898527Y-33219360D01*
X54959040Y-33252666D01*
X55021278Y-33314904D01*
X55045844Y-33349891D01*
X55057068Y-33391142D01*
X55059885Y-33421538D01*
X55120769Y-33635526D01*
X55219941Y-33834688D01*
X55354019Y-34012237D01*
X55518437Y-34162124D01*
X55707595Y-34279245D01*
X55707597Y-34279245D01*
X55707599Y-34279247D01*
X55915060Y-34359618D01*
X56133757Y-34400500D01*
X56356241Y-34400500D01*
X56356243Y-34400500D01*
X56574940Y-34359618D01*
X56782401Y-34279247D01*
X56971562Y-34162124D01*
X57035527Y-34103812D01*
X57135980Y-34012237D01*
X57136774Y-34011186D01*
X57270058Y-33834689D01*
X57369229Y-33635528D01*
X57372336Y-33624610D01*
X57430115Y-33421537D01*
X57445500Y-33255504D01*
X57445500Y-33199999D01*
X57729417Y-33199999D01*
X57749699Y-33405932D01*
X57754433Y-33421537D01*
X57783060Y-33515910D01*
X57809769Y-33603956D01*
X57834939Y-33651046D01*
X57907315Y-33786450D01*
X57958609Y-33848952D01*
X58038589Y-33946410D01*
X58081902Y-33981955D01*
X58198550Y-34077685D01*
X58381046Y-34175232D01*
X58579066Y-34235300D01*
X58785000Y-34255583D01*
X58990934Y-34235300D01*
X59188954Y-34175232D01*
X59371450Y-34077685D01*
X59531410Y-33946410D01*
X59662685Y-33786450D01*
X59760232Y-33603954D01*
X59806933Y-33450000D01*
X60225000Y-33450000D01*
X60225000Y-34074625D01*
X60239504Y-34147543D01*
X60294760Y-34230239D01*
X60377456Y-34285495D01*
X60450375Y-34300000D01*
X61075000Y-34300000D01*
X61075000Y-33450000D01*
X61575000Y-33450000D01*
X61575000Y-34300000D01*
X62199625Y-34300000D01*
X62272543Y-34285495D01*
X62355239Y-34230239D01*
X62410495Y-34147543D01*
X62425000Y-34074625D01*
X62425000Y-33450000D01*
X61575000Y-33450000D01*
X61075000Y-33450000D01*
X60225000Y-33450000D01*
X59806933Y-33450000D01*
X59820300Y-33405934D01*
X59840583Y-33200000D01*
X59820300Y-32994066D01*
X59806933Y-32950000D01*
X60225000Y-32950000D01*
X61075000Y-32950000D01*
X61075000Y-32100000D01*
X61575000Y-32100000D01*
X61575000Y-32950000D01*
X62425000Y-32950000D01*
X62425000Y-32325375D01*
X62410495Y-32252456D01*
X62355239Y-32169760D01*
X62272543Y-32114504D01*
X62199625Y-32100000D01*
X61575000Y-32100000D01*
X61075000Y-32100000D01*
X60450375Y-32100000D01*
X60377456Y-32114504D01*
X60294760Y-32169760D01*
X60239504Y-32252456D01*
X60225000Y-32325375D01*
X60225000Y-32950000D01*
X59806933Y-32950000D01*
X59760232Y-32796046D01*
X59662685Y-32613550D01*
X59597047Y-32533569D01*
X59531410Y-32453589D01*
X59371450Y-32322315D01*
X59178182Y-32219010D01*
X59179269Y-32216975D01*
X59152740Y-32202231D01*
X59121553Y-32160179D01*
X59110500Y-32109004D01*
X59110500Y-30901188D01*
X59119939Y-30853735D01*
X59146819Y-30813507D01*
X62848507Y-27111819D01*
X62888735Y-27084939D01*
X62936188Y-27075500D01*
X69758812Y-27075500D01*
X69806265Y-27084939D01*
X69846493Y-27111819D01*
X72108126Y-29373453D01*
X72140729Y-29431004D01*
X72139106Y-29497129D01*
X72083975Y-29678869D01*
X72064659Y-29875000D01*
X72083976Y-30071133D01*
X72141185Y-30259726D01*
X72214657Y-30397181D01*
X72234090Y-30433538D01*
X72359117Y-30585883D01*
X72511462Y-30710910D01*
X72685273Y-30803814D01*
X72873868Y-30861024D01*
X73070000Y-30880341D01*
X73266132Y-30861024D01*
X73454727Y-30803814D01*
X73628538Y-30710910D01*
X73780883Y-30585883D01*
X73905910Y-30433538D01*
X73998814Y-30259727D01*
X74056024Y-30071132D01*
X74075341Y-29875000D01*
X74056024Y-29678868D01*
X73998814Y-29490273D01*
X73905910Y-29316462D01*
X73780883Y-29164117D01*
X73628538Y-29039090D01*
X73600473Y-29024089D01*
X73461046Y-28949563D01*
X73413142Y-28903954D01*
X73395500Y-28840205D01*
X73395500Y-27475289D01*
X73410141Y-27416836D01*
X73450607Y-27372187D01*
X73454552Y-27369552D01*
X73498867Y-27303231D01*
X73510500Y-27244748D01*
X73510500Y-26375000D01*
X73944417Y-26375000D01*
X73964699Y-26580932D01*
X73978067Y-26625000D01*
X74024768Y-26778954D01*
X74122315Y-26961450D01*
X74173609Y-27023952D01*
X74253589Y-27121410D01*
X74329690Y-27183863D01*
X74413550Y-27252685D01*
X74596046Y-27350232D01*
X74794066Y-27410300D01*
X75000000Y-27430583D01*
X75205934Y-27410300D01*
X75403954Y-27350232D01*
X75586450Y-27252685D01*
X75746410Y-27121410D01*
X75877685Y-26961450D01*
X75975232Y-26778954D01*
X76035300Y-26580934D01*
X76055583Y-26375000D01*
X76035300Y-26169066D01*
X75975232Y-25971046D01*
X75877685Y-25788550D01*
X75812047Y-25708569D01*
X75746410Y-25628589D01*
X75596121Y-25505252D01*
X75586450Y-25497315D01*
X75470657Y-25435422D01*
X75403956Y-25399769D01*
X75403955Y-25399768D01*
X75403954Y-25399768D01*
X75295140Y-25366760D01*
X75205932Y-25339699D01*
X75000000Y-25319417D01*
X74794067Y-25339699D01*
X74596043Y-25399769D01*
X74413551Y-25497314D01*
X74253589Y-25628589D01*
X74122314Y-25788551D01*
X74024769Y-25971043D01*
X74024768Y-25971045D01*
X74024768Y-25971046D01*
X74023286Y-25975931D01*
X73964699Y-26169067D01*
X73944417Y-26375000D01*
X73510500Y-26375000D01*
X73510500Y-25505252D01*
X73506276Y-25484019D01*
X73498867Y-25446769D01*
X73454552Y-25380447D01*
X73388230Y-25336132D01*
X73329749Y-25324500D01*
X73329748Y-25324500D01*
X71590252Y-25324500D01*
X71590251Y-25324500D01*
X71531769Y-25336132D01*
X71465447Y-25380447D01*
X71421132Y-25446769D01*
X71409500Y-25505251D01*
X71409500Y-27244749D01*
X71421132Y-27303230D01*
X71465447Y-27369552D01*
X71531769Y-27413867D01*
X71590251Y-27425500D01*
X71590252Y-27425500D01*
X72620500Y-27425500D01*
X72682500Y-27442113D01*
X72727887Y-27487500D01*
X72744500Y-27549500D01*
X72744500Y-28789811D01*
X72730985Y-28846106D01*
X72693385Y-28890129D01*
X72639898Y-28912284D01*
X72582182Y-28907742D01*
X72532819Y-28877492D01*
X70189043Y-26533717D01*
X70181734Y-26525741D01*
X70157454Y-26496805D01*
X70124736Y-26477915D01*
X70115627Y-26472112D01*
X70084684Y-26450446D01*
X70083803Y-26449829D01*
X70059107Y-26439599D01*
X70020852Y-26432853D01*
X70010296Y-26430512D01*
X69973807Y-26420735D01*
X69936180Y-26424028D01*
X69925372Y-26424500D01*
X62769628Y-26424500D01*
X62758820Y-26424028D01*
X62721192Y-26420735D01*
X62684704Y-26430512D01*
X62674148Y-26432852D01*
X62635899Y-26439597D01*
X62611193Y-26449831D01*
X62579380Y-26472106D01*
X62570264Y-26477914D01*
X62537545Y-26496805D01*
X62513262Y-26525744D01*
X62505956Y-26533716D01*
X58568714Y-30470958D01*
X58560741Y-30478264D01*
X58531806Y-30502544D01*
X58512914Y-30535264D01*
X58507106Y-30544380D01*
X58484831Y-30576193D01*
X58474597Y-30600899D01*
X58467852Y-30639148D01*
X58465512Y-30649704D01*
X58455735Y-30686192D01*
X58459028Y-30723820D01*
X58459500Y-30734628D01*
X58459500Y-32109004D01*
X58448447Y-32160179D01*
X58417260Y-32202231D01*
X58390730Y-32216975D01*
X58391818Y-32219010D01*
X58198549Y-32322315D01*
X58038589Y-32453589D01*
X57907314Y-32613551D01*
X57809769Y-32796043D01*
X57749699Y-32994067D01*
X57729417Y-33199999D01*
X57445500Y-33199999D01*
X57445500Y-32871479D01*
X57445632Y-32865753D01*
X57446161Y-32854311D01*
X57449357Y-32785181D01*
X57438207Y-32705258D01*
X57437557Y-32699645D01*
X57430115Y-32619326D01*
X57424831Y-32600754D01*
X57421286Y-32583948D01*
X57418619Y-32564832D01*
X57418619Y-32564830D01*
X57392981Y-32488337D01*
X57391306Y-32482928D01*
X57369229Y-32405334D01*
X57366572Y-32399999D01*
X57360627Y-32388060D01*
X57354051Y-32372186D01*
X57347915Y-32353878D01*
X57347915Y-32353877D01*
X57308648Y-32283380D01*
X57306014Y-32278383D01*
X57270058Y-32206173D01*
X57258426Y-32190770D01*
X57249048Y-32176377D01*
X57242544Y-32164700D01*
X57239653Y-32159509D01*
X57188109Y-32097437D01*
X57184580Y-32092983D01*
X57157760Y-32057466D01*
X57135981Y-32028625D01*
X57076394Y-31974305D01*
X57072251Y-31970349D01*
X52874659Y-27772758D01*
X52870703Y-27768615D01*
X52816373Y-27709017D01*
X52752023Y-27660423D01*
X52747532Y-27656866D01*
X52685492Y-27605349D01*
X52685491Y-27605348D01*
X52668618Y-27595949D01*
X52654237Y-27586579D01*
X52638825Y-27574940D01*
X52566644Y-27538998D01*
X52561578Y-27536328D01*
X52543170Y-27526075D01*
X52491123Y-27497085D01*
X52491119Y-27497083D01*
X52491118Y-27497083D01*
X52472805Y-27490944D01*
X52456945Y-27484375D01*
X52439663Y-27475769D01*
X52362088Y-27453697D01*
X52356619Y-27452004D01*
X52327107Y-27442113D01*
X52280171Y-27426382D01*
X52280167Y-27426381D01*
X52280166Y-27426381D01*
X52261051Y-27423714D01*
X52244256Y-27420171D01*
X52225676Y-27414885D01*
X52145358Y-27407442D01*
X52139670Y-27406782D01*
X52059820Y-27395644D01*
X52059819Y-27395644D01*
X51989800Y-27398881D01*
X51979269Y-27399368D01*
X51973543Y-27399500D01*
X38369043Y-27399500D01*
X38311730Y-27385460D01*
X38267395Y-27346519D01*
X38246079Y-27291496D01*
X38252609Y-27232850D01*
X38285505Y-27183863D01*
X38356392Y-27119241D01*
X38479248Y-26956553D01*
X38570113Y-26774069D01*
X38612528Y-26625000D01*
X37414000Y-26625000D01*
X37352000Y-26608387D01*
X37306613Y-26563000D01*
X37290000Y-26501000D01*
X37290000Y-25302680D01*
X37790000Y-25302680D01*
X37790000Y-26125000D01*
X38612528Y-26125000D01*
X38612528Y-26124999D01*
X38570113Y-25975930D01*
X38479248Y-25793446D01*
X38356392Y-25630758D01*
X38205740Y-25493421D01*
X38032411Y-25386100D01*
X37842320Y-25312460D01*
X37790000Y-25302680D01*
X37290000Y-25302680D01*
X37237679Y-25312460D01*
X37047588Y-25386100D01*
X36874259Y-25493421D01*
X36723607Y-25630758D01*
X36600751Y-25793446D01*
X36509885Y-25975931D01*
X36454096Y-26172007D01*
X36451461Y-26200447D01*
X36426073Y-26264869D01*
X36370100Y-26305634D01*
X36300995Y-26310029D01*
X36240309Y-26276684D01*
X36223721Y-26260096D01*
X36199154Y-26225107D01*
X36187931Y-26183855D01*
X36185115Y-26153467D01*
X36185115Y-26153464D01*
X36171421Y-26105338D01*
X36168809Y-26094229D01*
X36159618Y-26045060D01*
X36141549Y-25998420D01*
X36137919Y-25987591D01*
X36124229Y-25939472D01*
X36101930Y-25894691D01*
X36097315Y-25884238D01*
X36079247Y-25837599D01*
X36069072Y-25821166D01*
X36050500Y-25755890D01*
X36050500Y-25505251D01*
X36038867Y-25446769D01*
X35994552Y-25380447D01*
X35928230Y-25336132D01*
X35869749Y-25324500D01*
X35869748Y-25324500D01*
X35619110Y-25324500D01*
X35553835Y-25305928D01*
X35537401Y-25295753D01*
X35537399Y-25295752D01*
X35490769Y-25277687D01*
X35480294Y-25273061D01*
X35435528Y-25250770D01*
X35410910Y-25243766D01*
X35359904Y-25214840D01*
X35327893Y-25165712D01*
X35322033Y-25107369D01*
X35343636Y-25052856D01*
X35387870Y-25014364D01*
X35444844Y-25000500D01*
X84875500Y-25000500D01*
X84937500Y-25017113D01*
G37*
%TD.AperFunction*%
%TA.AperFunction,Conductor*%
G36*
X66178517Y-35743238D02*
G01*
X66230262Y-35788993D01*
X66249500Y-35855333D01*
X66249500Y-36594667D01*
X66230262Y-36661007D01*
X66178517Y-36706762D01*
X66110321Y-36717734D01*
X66046835Y-36690520D01*
X66008538Y-36659090D01*
X65967012Y-36636894D01*
X65834726Y-36566185D01*
X65646133Y-36508976D01*
X65450000Y-36489659D01*
X65253866Y-36508976D01*
X65065273Y-36566185D01*
X64891463Y-36659089D01*
X64739117Y-36784117D01*
X64614089Y-36936463D01*
X64521185Y-37110273D01*
X64463976Y-37298866D01*
X64444659Y-37495000D01*
X64463976Y-37691133D01*
X64521185Y-37879726D01*
X64521186Y-37879727D01*
X64614090Y-38053538D01*
X64739117Y-38205883D01*
X64891462Y-38330910D01*
X65065273Y-38423814D01*
X65253868Y-38481024D01*
X65450000Y-38500341D01*
X65646132Y-38481024D01*
X65834727Y-38423814D01*
X66008538Y-38330910D01*
X66046835Y-38299479D01*
X66110321Y-38272266D01*
X66178517Y-38283238D01*
X66230262Y-38328993D01*
X66249500Y-38395333D01*
X66249500Y-39134667D01*
X66230262Y-39201007D01*
X66178517Y-39246762D01*
X66110321Y-39257734D01*
X66046835Y-39230520D01*
X66008538Y-39199090D01*
X65910462Y-39146667D01*
X65834726Y-39106185D01*
X65646133Y-39048976D01*
X65450000Y-39029659D01*
X65253866Y-39048976D01*
X65065273Y-39106185D01*
X64891463Y-39199089D01*
X64739117Y-39324117D01*
X64614089Y-39476463D01*
X64521185Y-39650273D01*
X64463976Y-39838866D01*
X64444659Y-40034999D01*
X64463976Y-40231133D01*
X64521185Y-40419726D01*
X64521186Y-40419727D01*
X64614090Y-40593538D01*
X64739117Y-40745883D01*
X64891462Y-40870910D01*
X65065273Y-40963814D01*
X65253868Y-41021024D01*
X65450000Y-41040341D01*
X65646132Y-41021024D01*
X65834727Y-40963814D01*
X66008538Y-40870910D01*
X66046835Y-40839479D01*
X66110321Y-40812266D01*
X66178517Y-40823238D01*
X66230262Y-40868993D01*
X66249500Y-40935333D01*
X66249500Y-41674667D01*
X66230262Y-41741007D01*
X66178517Y-41786762D01*
X66110321Y-41797734D01*
X66046835Y-41770520D01*
X66008538Y-41739090D01*
X65924263Y-41694044D01*
X65834726Y-41646185D01*
X65646133Y-41588976D01*
X65450000Y-41569659D01*
X65253866Y-41588976D01*
X65065273Y-41646185D01*
X64891463Y-41739089D01*
X64739117Y-41864117D01*
X64614089Y-42016463D01*
X64521185Y-42190273D01*
X64463976Y-42378866D01*
X64444659Y-42575000D01*
X64463976Y-42771133D01*
X64521185Y-42959726D01*
X64595102Y-43098014D01*
X64614090Y-43133538D01*
X64739117Y-43285883D01*
X64891462Y-43410910D01*
X65065273Y-43503814D01*
X65253868Y-43561024D01*
X65450000Y-43580341D01*
X65646132Y-43561024D01*
X65834727Y-43503814D01*
X66008538Y-43410910D01*
X66046835Y-43379479D01*
X66110321Y-43352266D01*
X66178517Y-43363238D01*
X66230262Y-43408993D01*
X66249500Y-43475333D01*
X66249500Y-44150630D01*
X66230262Y-44216970D01*
X66178517Y-44262725D01*
X66110321Y-44273697D01*
X66046835Y-44246483D01*
X66036171Y-44237731D01*
X65853764Y-44140233D01*
X65700000Y-44093590D01*
X65700000Y-46136410D01*
X65853764Y-46089766D01*
X66036171Y-45992268D01*
X66046835Y-45983517D01*
X66110321Y-45956303D01*
X66178517Y-45967275D01*
X66230262Y-46013030D01*
X66249500Y-46079370D01*
X66249500Y-52032821D01*
X66240061Y-52080274D01*
X66213181Y-52120502D01*
X65765803Y-52567878D01*
X65714117Y-52598858D01*
X65653930Y-52601814D01*
X65599457Y-52576050D01*
X65563561Y-52527649D01*
X65534241Y-52456865D01*
X65437987Y-52331423D01*
X65312545Y-52235169D01*
X65166467Y-52174662D01*
X65009705Y-52154023D01*
X64852942Y-52174662D01*
X64706864Y-52235169D01*
X64581422Y-52331423D01*
X64485168Y-52456865D01*
X64424661Y-52602943D01*
X64404022Y-52759706D01*
X64412951Y-52827524D01*
X64407431Y-52883568D01*
X64377693Y-52931390D01*
X63350904Y-53958181D01*
X63310676Y-53985061D01*
X63263223Y-53994500D01*
X61894628Y-53994500D01*
X61883820Y-53994028D01*
X61846192Y-53990735D01*
X61809704Y-54000512D01*
X61799148Y-54002852D01*
X61760899Y-54009597D01*
X61736193Y-54019831D01*
X61704380Y-54042106D01*
X61695264Y-54047914D01*
X61662545Y-54066805D01*
X61638262Y-54095744D01*
X61630956Y-54103716D01*
X59126301Y-56608371D01*
X59066778Y-56641451D01*
X58998762Y-56638109D01*
X58942767Y-56599355D01*
X58911467Y-56561216D01*
X58835883Y-56469117D01*
X58683538Y-56344090D01*
X58656779Y-56329787D01*
X58509726Y-56251185D01*
X58321133Y-56193976D01*
X58125000Y-56174659D01*
X57928866Y-56193976D01*
X57740273Y-56251185D01*
X57566463Y-56344089D01*
X57549126Y-56358317D01*
X57414120Y-56469115D01*
X57414115Y-56469119D01*
X57370335Y-56522463D01*
X57314341Y-56561216D01*
X57246326Y-56564557D01*
X57186803Y-56531477D01*
X52956873Y-52301547D01*
X52924270Y-52243995D01*
X52925894Y-52177870D01*
X52933868Y-52151584D01*
X52981024Y-51996132D01*
X53000341Y-51800000D01*
X53000341Y-51799999D01*
X53529659Y-51799999D01*
X53548976Y-51996133D01*
X53606185Y-52184726D01*
X53665058Y-52294869D01*
X53699090Y-52358538D01*
X53824117Y-52510883D01*
X53976462Y-52635910D01*
X54150273Y-52728814D01*
X54338868Y-52786024D01*
X54535000Y-52805341D01*
X54731132Y-52786024D01*
X54919727Y-52728814D01*
X55093538Y-52635910D01*
X55245883Y-52510883D01*
X55370910Y-52358538D01*
X55463814Y-52184727D01*
X55521024Y-51996132D01*
X55540341Y-51800000D01*
X55540341Y-51799999D01*
X56069659Y-51799999D01*
X56088976Y-51996133D01*
X56146185Y-52184726D01*
X56205058Y-52294869D01*
X56239090Y-52358538D01*
X56364117Y-52510883D01*
X56516462Y-52635910D01*
X56690273Y-52728814D01*
X56878868Y-52786024D01*
X57075000Y-52805341D01*
X57271132Y-52786024D01*
X57459727Y-52728814D01*
X57633538Y-52635910D01*
X57785883Y-52510883D01*
X57910910Y-52358538D01*
X58003814Y-52184727D01*
X58044683Y-52050000D01*
X58593590Y-52050000D01*
X58640233Y-52203764D01*
X58737731Y-52386171D01*
X58868945Y-52546054D01*
X59028828Y-52677268D01*
X59211235Y-52774766D01*
X59365000Y-52821410D01*
X59365000Y-52050000D01*
X59865000Y-52050000D01*
X59865000Y-52821410D01*
X60018764Y-52774766D01*
X60201171Y-52677268D01*
X60361054Y-52546054D01*
X60492268Y-52386171D01*
X60589766Y-52203764D01*
X60636410Y-52050000D01*
X59865000Y-52050000D01*
X59365000Y-52050000D01*
X58593590Y-52050000D01*
X58044683Y-52050000D01*
X58061024Y-51996132D01*
X58080341Y-51800000D01*
X58061024Y-51603868D01*
X58044683Y-51550000D01*
X58593590Y-51550000D01*
X59365000Y-51550000D01*
X59365000Y-50778590D01*
X59865000Y-50778590D01*
X59865000Y-51550000D01*
X60636410Y-51550000D01*
X60589766Y-51396235D01*
X60492268Y-51213828D01*
X60361054Y-51053945D01*
X60201171Y-50922731D01*
X60018764Y-50825233D01*
X59865000Y-50778590D01*
X59365000Y-50778590D01*
X59211235Y-50825233D01*
X59028828Y-50922731D01*
X58868945Y-51053945D01*
X58737731Y-51213828D01*
X58640233Y-51396235D01*
X58593590Y-51550000D01*
X58044683Y-51550000D01*
X58003814Y-51415273D01*
X57910910Y-51241462D01*
X57785883Y-51089117D01*
X57633538Y-50964090D01*
X57554361Y-50921769D01*
X57459726Y-50871185D01*
X57271133Y-50813976D01*
X57075000Y-50794659D01*
X56878866Y-50813976D01*
X56690273Y-50871185D01*
X56516463Y-50964089D01*
X56364117Y-51089117D01*
X56239089Y-51241463D01*
X56146185Y-51415273D01*
X56088976Y-51603866D01*
X56069659Y-51799999D01*
X55540341Y-51799999D01*
X55521024Y-51603868D01*
X55463814Y-51415273D01*
X55370910Y-51241462D01*
X55245883Y-51089117D01*
X55093538Y-50964090D01*
X55014361Y-50921769D01*
X54919726Y-50871185D01*
X54731133Y-50813976D01*
X54535000Y-50794659D01*
X54338866Y-50813976D01*
X54150273Y-50871185D01*
X53976463Y-50964089D01*
X53824117Y-51089117D01*
X53699089Y-51241463D01*
X53606185Y-51415273D01*
X53548976Y-51603866D01*
X53529659Y-51799999D01*
X53000341Y-51799999D01*
X52981024Y-51603868D01*
X52923814Y-51415273D01*
X52830910Y-51241462D01*
X52705883Y-51089117D01*
X52553538Y-50964090D01*
X52474361Y-50921769D01*
X52379726Y-50871185D01*
X52191133Y-50813976D01*
X51995000Y-50794659D01*
X51798866Y-50813976D01*
X51610273Y-50871185D01*
X51436463Y-50964089D01*
X51284117Y-51089117D01*
X51159089Y-51241463D01*
X51066185Y-51415273D01*
X51008976Y-51603866D01*
X50989659Y-51799999D01*
X51008976Y-51996133D01*
X51066185Y-52184726D01*
X51125058Y-52294869D01*
X51159090Y-52358538D01*
X51284117Y-52510883D01*
X51436462Y-52635910D01*
X51610273Y-52728814D01*
X51798868Y-52786024D01*
X51995000Y-52805341D01*
X52191132Y-52786024D01*
X52372870Y-52730893D01*
X52438995Y-52729270D01*
X52496547Y-52761873D01*
X57129278Y-57394604D01*
X57160257Y-57446289D01*
X57196185Y-57564727D01*
X57266587Y-57696438D01*
X57289090Y-57738538D01*
X57414117Y-57890883D01*
X57566462Y-58015910D01*
X57740273Y-58108814D01*
X57928868Y-58166024D01*
X58125000Y-58185341D01*
X58321132Y-58166024D01*
X58509727Y-58108814D01*
X58683538Y-58015910D01*
X58835883Y-57890883D01*
X58960910Y-57738538D01*
X59043639Y-57583764D01*
X59059572Y-57553956D01*
X59062543Y-57555544D01*
X59087682Y-57516316D01*
X59111115Y-57505011D01*
X59109102Y-57501526D01*
X59126486Y-57491487D01*
X59153799Y-57480173D01*
X59154682Y-57479554D01*
X59154684Y-57479554D01*
X59185625Y-57457887D01*
X59194722Y-57452091D01*
X59227455Y-57433194D01*
X59251748Y-57404241D01*
X59259036Y-57396288D01*
X59457747Y-57197577D01*
X59518258Y-57164273D01*
X59587200Y-57168509D01*
X59643181Y-57208971D01*
X59668829Y-57273106D01*
X59678976Y-57376133D01*
X59736185Y-57564726D01*
X59767865Y-57623994D01*
X59829090Y-57738538D01*
X59954117Y-57890883D01*
X60106462Y-58015910D01*
X60280273Y-58108814D01*
X60468868Y-58166024D01*
X60665000Y-58185341D01*
X60861132Y-58166024D01*
X61049727Y-58108814D01*
X61076771Y-58094358D01*
X61135218Y-58079718D01*
X61193671Y-58094359D01*
X61238321Y-58134825D01*
X61258623Y-58191561D01*
X61249782Y-58251168D01*
X61244661Y-58263531D01*
X61224022Y-58420293D01*
X61244661Y-58577056D01*
X61274188Y-58648342D01*
X61283030Y-58707949D01*
X61262729Y-58764685D01*
X61218080Y-58805152D01*
X61159627Y-58819794D01*
X54465491Y-58819794D01*
X54418038Y-58810355D01*
X54377810Y-58783475D01*
X54021579Y-58427244D01*
X53988273Y-58366731D01*
X53992509Y-58297788D01*
X54032972Y-58241807D01*
X54097108Y-58216160D01*
X54110834Y-58214808D01*
X54308764Y-58154766D01*
X54491171Y-58057268D01*
X54651054Y-57926054D01*
X54782268Y-57766171D01*
X54879766Y-57583764D01*
X54926410Y-57430000D01*
X53779000Y-57430000D01*
X53717000Y-57413387D01*
X53671613Y-57368000D01*
X53655000Y-57306000D01*
X53655000Y-56158590D01*
X54155000Y-56158590D01*
X54155000Y-56930000D01*
X54926410Y-56930000D01*
X54879766Y-56776235D01*
X54782268Y-56593828D01*
X54651054Y-56433945D01*
X54491171Y-56302731D01*
X54308764Y-56205233D01*
X54155000Y-56158590D01*
X53655000Y-56158590D01*
X53501235Y-56205233D01*
X53318828Y-56302731D01*
X53158945Y-56433945D01*
X53027731Y-56593828D01*
X53021735Y-56605047D01*
X52976994Y-56652425D01*
X52914407Y-56670574D01*
X52851260Y-56654483D01*
X52804993Y-56608594D01*
X52801479Y-56602508D01*
X52790169Y-56575204D01*
X52767894Y-56543391D01*
X52762083Y-56534270D01*
X52743194Y-56501554D01*
X52714261Y-56477276D01*
X52706286Y-56469968D01*
X52075034Y-55838717D01*
X52067725Y-55830741D01*
X52043445Y-55801805D01*
X52010727Y-55782915D01*
X52001618Y-55777112D01*
X51970675Y-55755446D01*
X51969794Y-55754829D01*
X51945098Y-55744599D01*
X51906843Y-55737853D01*
X51896287Y-55735512D01*
X51859798Y-55725735D01*
X51822171Y-55729028D01*
X51811363Y-55729500D01*
X51375197Y-55729500D01*
X51327744Y-55720061D01*
X51287516Y-55693181D01*
X49816819Y-54222484D01*
X49789939Y-54182256D01*
X49780500Y-54134803D01*
X49780500Y-52834795D01*
X49798142Y-52771046D01*
X49846046Y-52725437D01*
X49907460Y-52692609D01*
X50013538Y-52635910D01*
X50165883Y-52510883D01*
X50290910Y-52358538D01*
X50383814Y-52184727D01*
X50441024Y-51996132D01*
X50460341Y-51800000D01*
X50441024Y-51603868D01*
X50383814Y-51415273D01*
X50290910Y-51241462D01*
X50165883Y-51089117D01*
X50013538Y-50964090D01*
X49934361Y-50921769D01*
X49839726Y-50871185D01*
X49651133Y-50813976D01*
X49455000Y-50794659D01*
X49258866Y-50813976D01*
X49070273Y-50871185D01*
X48896463Y-50964089D01*
X48858165Y-50995520D01*
X48794679Y-51022734D01*
X48726483Y-51011762D01*
X48674738Y-50966007D01*
X48655500Y-50899667D01*
X48655500Y-50004795D01*
X48664939Y-49957342D01*
X48691819Y-49917114D01*
X48983434Y-49625499D01*
X49277617Y-49331314D01*
X49325440Y-49301577D01*
X49381484Y-49296057D01*
X49449303Y-49304986D01*
X49606065Y-49284348D01*
X49752144Y-49223840D01*
X49877585Y-49127586D01*
X49973839Y-49002145D01*
X50034347Y-48856066D01*
X50054985Y-48699304D01*
X50034347Y-48542542D01*
X49973839Y-48396463D01*
X49963858Y-48383456D01*
X49877585Y-48271021D01*
X49752144Y-48174768D01*
X49681357Y-48145447D01*
X49632957Y-48109551D01*
X49607193Y-48055077D01*
X49610149Y-47994891D01*
X49641127Y-47943207D01*
X51917516Y-45666819D01*
X51957745Y-45639939D01*
X52005198Y-45630500D01*
X55930373Y-45630500D01*
X55941180Y-45630971D01*
X55978807Y-45634264D01*
X56015324Y-45624478D01*
X56025830Y-45622149D01*
X56063045Y-45615588D01*
X56063047Y-45615586D01*
X56064112Y-45615399D01*
X56088799Y-45605173D01*
X56089682Y-45604554D01*
X56089684Y-45604554D01*
X56120625Y-45582887D01*
X56129722Y-45577091D01*
X56162455Y-45558194D01*
X56186748Y-45529241D01*
X56194036Y-45521288D01*
X56350324Y-45365000D01*
X64428590Y-45365000D01*
X64475233Y-45518764D01*
X64572731Y-45701171D01*
X64703945Y-45861054D01*
X64863828Y-45992268D01*
X65046235Y-46089766D01*
X65200000Y-46136410D01*
X65200000Y-45365000D01*
X64428590Y-45365000D01*
X56350324Y-45365000D01*
X56573453Y-45141871D01*
X56631003Y-45109270D01*
X56697126Y-45110892D01*
X56878868Y-45166024D01*
X57075000Y-45185341D01*
X57271132Y-45166024D01*
X57459727Y-45108814D01*
X57633538Y-45015910D01*
X57785883Y-44890883D01*
X57910910Y-44738538D01*
X58003814Y-44564727D01*
X58061024Y-44376132D01*
X58080341Y-44180000D01*
X58609659Y-44180000D01*
X58628976Y-44376133D01*
X58686185Y-44564726D01*
X58764496Y-44711235D01*
X58779090Y-44738538D01*
X58904117Y-44890883D01*
X59056462Y-45015910D01*
X59230273Y-45108814D01*
X59418868Y-45166024D01*
X59615000Y-45185341D01*
X59811132Y-45166024D01*
X59999727Y-45108814D01*
X60173538Y-45015910D01*
X60325883Y-44890883D01*
X60347125Y-44865000D01*
X64428590Y-44865000D01*
X65200000Y-44865000D01*
X65200000Y-44093590D01*
X65046235Y-44140233D01*
X64863828Y-44237731D01*
X64703945Y-44368945D01*
X64572731Y-44528828D01*
X64475233Y-44711235D01*
X64428590Y-44865000D01*
X60347125Y-44865000D01*
X60450910Y-44738538D01*
X60543814Y-44564727D01*
X60601024Y-44376132D01*
X60620341Y-44180000D01*
X60601024Y-43983868D01*
X60543814Y-43795273D01*
X60450910Y-43621462D01*
X60325883Y-43469117D01*
X60173538Y-43344090D01*
X60124243Y-43317741D01*
X59999726Y-43251185D01*
X59811133Y-43193976D01*
X59615000Y-43174659D01*
X59418866Y-43193976D01*
X59230273Y-43251185D01*
X59056463Y-43344089D01*
X58904117Y-43469117D01*
X58779089Y-43621463D01*
X58686185Y-43795273D01*
X58628976Y-43983866D01*
X58609659Y-44180000D01*
X58080341Y-44180000D01*
X58061024Y-43983868D01*
X58003814Y-43795273D01*
X57910910Y-43621462D01*
X57785883Y-43469117D01*
X57633538Y-43344090D01*
X57584243Y-43317741D01*
X57459726Y-43251185D01*
X57271133Y-43193976D01*
X57075000Y-43174659D01*
X56878866Y-43193976D01*
X56690273Y-43251185D01*
X56516463Y-43344089D01*
X56364117Y-43469117D01*
X56239089Y-43621463D01*
X56146185Y-43795273D01*
X56088976Y-43983866D01*
X56069659Y-44180000D01*
X56088975Y-44376130D01*
X56144106Y-44557870D01*
X56145729Y-44623994D01*
X56113126Y-44681546D01*
X55851490Y-44943183D01*
X55811265Y-44970061D01*
X55763812Y-44979500D01*
X55435333Y-44979500D01*
X55368993Y-44960262D01*
X55323238Y-44908517D01*
X55312266Y-44840321D01*
X55339480Y-44776835D01*
X55370910Y-44738538D01*
X55463814Y-44564727D01*
X55521024Y-44376132D01*
X55540341Y-44180000D01*
X55521024Y-43983868D01*
X55463814Y-43795273D01*
X55370910Y-43621462D01*
X55245883Y-43469117D01*
X55093538Y-43344090D01*
X55044243Y-43317741D01*
X54919726Y-43251185D01*
X54731133Y-43193976D01*
X54535000Y-43174659D01*
X54338866Y-43193976D01*
X54150273Y-43251185D01*
X53976463Y-43344089D01*
X53824117Y-43469117D01*
X53699089Y-43621463D01*
X53606185Y-43795273D01*
X53548976Y-43983866D01*
X53529659Y-44180000D01*
X53548976Y-44376133D01*
X53606185Y-44564726D01*
X53684496Y-44711235D01*
X53699090Y-44738538D01*
X53730520Y-44776835D01*
X53757734Y-44840321D01*
X53746762Y-44908517D01*
X53701007Y-44960262D01*
X53634667Y-44979500D01*
X52895333Y-44979500D01*
X52828993Y-44960262D01*
X52783238Y-44908517D01*
X52772266Y-44840321D01*
X52799480Y-44776835D01*
X52830910Y-44738538D01*
X52923814Y-44564727D01*
X52981024Y-44376132D01*
X53000341Y-44180000D01*
X52981024Y-43983868D01*
X52923814Y-43795273D01*
X52830910Y-43621462D01*
X52705883Y-43469117D01*
X52553538Y-43344090D01*
X52504243Y-43317741D01*
X52379726Y-43251185D01*
X52191133Y-43193976D01*
X51995000Y-43174659D01*
X51798866Y-43193976D01*
X51610277Y-43251184D01*
X51610273Y-43251185D01*
X51610273Y-43251186D01*
X51485757Y-43317741D01*
X51417576Y-43332000D01*
X51352464Y-43307250D01*
X51310969Y-43251300D01*
X51306186Y-43181808D01*
X51339622Y-43120702D01*
X55078315Y-39382009D01*
X55126136Y-39352273D01*
X55182180Y-39346753D01*
X55250000Y-39355682D01*
X55406762Y-39335044D01*
X55552841Y-39274536D01*
X55678282Y-39178282D01*
X55774536Y-39052841D01*
X55835044Y-38906762D01*
X55855682Y-38750000D01*
X55835044Y-38593238D01*
X55774536Y-38447159D01*
X55734769Y-38395333D01*
X55678282Y-38321717D01*
X55552840Y-38225463D01*
X55406762Y-38164956D01*
X55250000Y-38144317D01*
X55093237Y-38164956D01*
X54947159Y-38225463D01*
X54821717Y-38321717D01*
X54725463Y-38447159D01*
X54664956Y-38593237D01*
X54644317Y-38750000D01*
X54653246Y-38817818D01*
X54647726Y-38873862D01*
X54617988Y-38921684D01*
X50363714Y-43175958D01*
X50355741Y-43183264D01*
X50326806Y-43207544D01*
X50307914Y-43240264D01*
X50302106Y-43249380D01*
X50279831Y-43281193D01*
X50269597Y-43305899D01*
X50268174Y-43313971D01*
X50241264Y-43371883D01*
X50189103Y-43408724D01*
X50125526Y-43414723D01*
X50067395Y-43388289D01*
X50018592Y-43348238D01*
X50013538Y-43344090D01*
X49964243Y-43317741D01*
X49839726Y-43251185D01*
X49651133Y-43193976D01*
X49455000Y-43174659D01*
X49258866Y-43193976D01*
X49070273Y-43251185D01*
X48896463Y-43344089D01*
X48744117Y-43469117D01*
X48619089Y-43621463D01*
X48526185Y-43795273D01*
X48468976Y-43983866D01*
X48449659Y-44180000D01*
X48468976Y-44376133D01*
X48526185Y-44564726D01*
X48604496Y-44711235D01*
X48619090Y-44738538D01*
X48744117Y-44890883D01*
X48896462Y-45015910D01*
X49070273Y-45108814D01*
X49258868Y-45166024D01*
X49304783Y-45170546D01*
X49308172Y-45170880D01*
X49372307Y-45196528D01*
X49412769Y-45252509D01*
X49417005Y-45321451D01*
X49383699Y-45381964D01*
X45127484Y-49638181D01*
X45087256Y-49665061D01*
X45039803Y-49674500D01*
X43308220Y-49674500D01*
X43297412Y-49674028D01*
X43259797Y-49670736D01*
X43223320Y-49680510D01*
X43212766Y-49682849D01*
X43174509Y-49689595D01*
X43149794Y-49699834D01*
X43117981Y-49722108D01*
X43108865Y-49727915D01*
X43076149Y-49746804D01*
X43051866Y-49775743D01*
X43044560Y-49783715D01*
X42283714Y-50544562D01*
X42275741Y-50551868D01*
X42246806Y-50576148D01*
X42227914Y-50608868D01*
X42222106Y-50617984D01*
X42199831Y-50649797D01*
X42189597Y-50674503D01*
X42182852Y-50712752D01*
X42180512Y-50723308D01*
X42170735Y-50759796D01*
X42174028Y-50797424D01*
X42174500Y-50808232D01*
X42174500Y-56437686D01*
X42159858Y-56496139D01*
X42119391Y-56540788D01*
X42062655Y-56561089D01*
X42003048Y-56552247D01*
X41954649Y-56516353D01*
X41915883Y-56469117D01*
X41763538Y-56344090D01*
X41736779Y-56329787D01*
X41589726Y-56251185D01*
X41401133Y-56193976D01*
X41205000Y-56174659D01*
X41008866Y-56193976D01*
X40820273Y-56251185D01*
X40646463Y-56344089D01*
X40494117Y-56469117D01*
X40369089Y-56621463D01*
X40276185Y-56795273D01*
X40218976Y-56983866D01*
X40207273Y-57102693D01*
X40199659Y-57180000D01*
X40206084Y-57245232D01*
X40218976Y-57376133D01*
X40276185Y-57564726D01*
X40307865Y-57623994D01*
X40369090Y-57738538D01*
X40494117Y-57890883D01*
X40646462Y-58015910D01*
X40820273Y-58108814D01*
X41008868Y-58166024D01*
X41205000Y-58185341D01*
X41401132Y-58166024D01*
X41589727Y-58108814D01*
X41763538Y-58015910D01*
X41915883Y-57890883D01*
X41954649Y-57843646D01*
X42003048Y-57807753D01*
X42062655Y-57798911D01*
X42119391Y-57819212D01*
X42159858Y-57863861D01*
X42174500Y-57922314D01*
X42174500Y-63318812D01*
X42165061Y-63366265D01*
X42138181Y-63406493D01*
X41706546Y-63838126D01*
X41648994Y-63870729D01*
X41582870Y-63869106D01*
X41567577Y-63864467D01*
X41537843Y-63855447D01*
X41401130Y-63813975D01*
X41205000Y-63794659D01*
X41008866Y-63813976D01*
X40820273Y-63871185D01*
X40646463Y-63964089D01*
X40494117Y-64089117D01*
X40369089Y-64241463D01*
X40276185Y-64415273D01*
X40218976Y-64603866D01*
X40199659Y-64800000D01*
X40218976Y-64996133D01*
X40276185Y-65184726D01*
X40338628Y-65301547D01*
X40369090Y-65358538D01*
X40494117Y-65510883D01*
X40646462Y-65635910D01*
X40820273Y-65728814D01*
X41008868Y-65786024D01*
X41205000Y-65805341D01*
X41401132Y-65786024D01*
X41589727Y-65728814D01*
X41763538Y-65635910D01*
X41915883Y-65510883D01*
X42040910Y-65358538D01*
X42133814Y-65184727D01*
X42191024Y-64996132D01*
X42210341Y-64800000D01*
X42739659Y-64800000D01*
X42758976Y-64996133D01*
X42816185Y-65184726D01*
X42878628Y-65301547D01*
X42909090Y-65358538D01*
X43034117Y-65510883D01*
X43186462Y-65635910D01*
X43360273Y-65728814D01*
X43548868Y-65786024D01*
X43745000Y-65805341D01*
X43941132Y-65786024D01*
X44129727Y-65728814D01*
X44303538Y-65635910D01*
X44455883Y-65510883D01*
X44580910Y-65358538D01*
X44673814Y-65184727D01*
X44731024Y-64996132D01*
X44750341Y-64800000D01*
X45279659Y-64800000D01*
X45298976Y-64996133D01*
X45356185Y-65184726D01*
X45418628Y-65301547D01*
X45449090Y-65358538D01*
X45574117Y-65510883D01*
X45726462Y-65635910D01*
X45900273Y-65728814D01*
X46088868Y-65786024D01*
X46285000Y-65805341D01*
X46481132Y-65786024D01*
X46669727Y-65728814D01*
X46843538Y-65635910D01*
X46995883Y-65510883D01*
X47120910Y-65358538D01*
X47213814Y-65184727D01*
X47254683Y-65050000D01*
X47803590Y-65050000D01*
X47850233Y-65203764D01*
X47947731Y-65386171D01*
X48078945Y-65546054D01*
X48238828Y-65677268D01*
X48421235Y-65774766D01*
X48575000Y-65821410D01*
X48575000Y-65050000D01*
X49075000Y-65050000D01*
X49075000Y-65821410D01*
X49228764Y-65774766D01*
X49411171Y-65677268D01*
X49571054Y-65546054D01*
X49702268Y-65386171D01*
X49799766Y-65203764D01*
X49846410Y-65050000D01*
X50343590Y-65050000D01*
X50390233Y-65203764D01*
X50487731Y-65386171D01*
X50618945Y-65546054D01*
X50778828Y-65677268D01*
X50961235Y-65774766D01*
X51115000Y-65821410D01*
X51115000Y-65050000D01*
X51615000Y-65050000D01*
X51615000Y-65821410D01*
X51768764Y-65774766D01*
X51951171Y-65677268D01*
X52111054Y-65546054D01*
X52242268Y-65386171D01*
X52339766Y-65203764D01*
X52386410Y-65050000D01*
X52883590Y-65050000D01*
X52930233Y-65203764D01*
X53027731Y-65386171D01*
X53158945Y-65546054D01*
X53318828Y-65677268D01*
X53501235Y-65774766D01*
X53655000Y-65821410D01*
X53655000Y-65050000D01*
X54155000Y-65050000D01*
X54155000Y-65821410D01*
X54308764Y-65774766D01*
X54491171Y-65677268D01*
X54651054Y-65546054D01*
X54782268Y-65386171D01*
X54879766Y-65203764D01*
X54926410Y-65050000D01*
X54155000Y-65050000D01*
X53655000Y-65050000D01*
X52883590Y-65050000D01*
X52386410Y-65050000D01*
X51615000Y-65050000D01*
X51115000Y-65050000D01*
X50343590Y-65050000D01*
X49846410Y-65050000D01*
X49075000Y-65050000D01*
X48575000Y-65050000D01*
X47803590Y-65050000D01*
X47254683Y-65050000D01*
X47271024Y-64996132D01*
X47290341Y-64800000D01*
X47271024Y-64603868D01*
X47254683Y-64550000D01*
X47803590Y-64550000D01*
X48575000Y-64550000D01*
X48575000Y-63778590D01*
X49075000Y-63778590D01*
X49075000Y-64550000D01*
X49846410Y-64550000D01*
X49799766Y-64396235D01*
X49702268Y-64213828D01*
X49571054Y-64053945D01*
X49411171Y-63922731D01*
X49228764Y-63825233D01*
X49075000Y-63778590D01*
X48575000Y-63778590D01*
X48421235Y-63825233D01*
X48238828Y-63922731D01*
X48078945Y-64053945D01*
X47947731Y-64213828D01*
X47850233Y-64396235D01*
X47803590Y-64550000D01*
X47254683Y-64550000D01*
X47213814Y-64415273D01*
X47120910Y-64241462D01*
X46995883Y-64089117D01*
X46843538Y-63964090D01*
X46816775Y-63949785D01*
X46669726Y-63871185D01*
X46481133Y-63813976D01*
X46285000Y-63794659D01*
X46088866Y-63813976D01*
X45900273Y-63871185D01*
X45726463Y-63964089D01*
X45574117Y-64089117D01*
X45449089Y-64241463D01*
X45356185Y-64415273D01*
X45298976Y-64603866D01*
X45279659Y-64800000D01*
X44750341Y-64800000D01*
X44731024Y-64603868D01*
X44673814Y-64415273D01*
X44580910Y-64241462D01*
X44455883Y-64089117D01*
X44303538Y-63964090D01*
X44276775Y-63949785D01*
X44129726Y-63871185D01*
X43941133Y-63813976D01*
X43745000Y-63794659D01*
X43548866Y-63813976D01*
X43360273Y-63871185D01*
X43186463Y-63964089D01*
X43034117Y-64089117D01*
X42909089Y-64241463D01*
X42816185Y-64415273D01*
X42758976Y-64603866D01*
X42739659Y-64800000D01*
X42210341Y-64800000D01*
X42191024Y-64603868D01*
X42135892Y-64422126D01*
X42134270Y-64356003D01*
X42166871Y-64298453D01*
X42716290Y-63749034D01*
X42724258Y-63741734D01*
X42753192Y-63717457D01*
X42753192Y-63717456D01*
X42753194Y-63717455D01*
X42772091Y-63684722D01*
X42777887Y-63675625D01*
X42799554Y-63644684D01*
X42799554Y-63644682D01*
X42800173Y-63643799D01*
X42810399Y-63619112D01*
X42810586Y-63618047D01*
X42810588Y-63618045D01*
X42817149Y-63580830D01*
X42819478Y-63570324D01*
X42829264Y-63533807D01*
X42825971Y-63496176D01*
X42825500Y-63485370D01*
X42825500Y-57981851D01*
X42844738Y-57915511D01*
X42896483Y-57869756D01*
X42964679Y-57858784D01*
X43028165Y-57885998D01*
X43034116Y-57890882D01*
X43034117Y-57890883D01*
X43186462Y-58015910D01*
X43360273Y-58108814D01*
X43548868Y-58166024D01*
X43745000Y-58185341D01*
X43941132Y-58166024D01*
X44129727Y-58108814D01*
X44303538Y-58015910D01*
X44455883Y-57890883D01*
X44580910Y-57738538D01*
X44610776Y-57682662D01*
X44649902Y-57638924D01*
X44704763Y-57618075D01*
X44763067Y-57624789D01*
X44811752Y-57657562D01*
X44839914Y-57709053D01*
X44840519Y-57711313D01*
X44842853Y-57721843D01*
X44849599Y-57760098D01*
X44859829Y-57784794D01*
X44860446Y-57785675D01*
X44882105Y-57816607D01*
X44887915Y-57825727D01*
X44906806Y-57858446D01*
X44908381Y-57859768D01*
X44935742Y-57882726D01*
X44943718Y-57890035D01*
X50790610Y-63736928D01*
X50823690Y-63796451D01*
X50820348Y-63864467D01*
X50781594Y-63920462D01*
X50618945Y-64053945D01*
X50487731Y-64213828D01*
X50390233Y-64396235D01*
X50343590Y-64550000D01*
X52386410Y-64550000D01*
X52339766Y-64396235D01*
X52242268Y-64213828D01*
X52233517Y-64203165D01*
X52206303Y-64139679D01*
X52217275Y-64071483D01*
X52263030Y-64019738D01*
X52329370Y-64000500D01*
X52940630Y-64000500D01*
X53006970Y-64019738D01*
X53052725Y-64071483D01*
X53063697Y-64139679D01*
X53036483Y-64203165D01*
X53027731Y-64213828D01*
X52930233Y-64396235D01*
X52883590Y-64550000D01*
X54926410Y-64550000D01*
X54879766Y-64396235D01*
X54782268Y-64213828D01*
X54773517Y-64203165D01*
X54746303Y-64139679D01*
X54757275Y-64071483D01*
X54803030Y-64019738D01*
X54869370Y-64000500D01*
X57000500Y-64000500D01*
X57062500Y-64017113D01*
X57107887Y-64062500D01*
X57124500Y-64124500D01*
X57124500Y-65288811D01*
X57115061Y-65336264D01*
X57088181Y-65376492D01*
X56171493Y-66293181D01*
X56131265Y-66320061D01*
X56083812Y-66329500D01*
X41969619Y-66329500D01*
X41958812Y-66329028D01*
X41956298Y-66328808D01*
X41921191Y-66325736D01*
X41884710Y-66335511D01*
X41874155Y-66337852D01*
X41862814Y-66339851D01*
X41836955Y-66344412D01*
X41836953Y-66344412D01*
X41835897Y-66344599D01*
X41811192Y-66354832D01*
X41779378Y-66377107D01*
X41770261Y-66382915D01*
X41737545Y-66401804D01*
X41713262Y-66430743D01*
X41705956Y-66438715D01*
X41326546Y-66818126D01*
X41268995Y-66850729D01*
X41202870Y-66849106D01*
X41021130Y-66793975D01*
X40825000Y-66774659D01*
X40628866Y-66793976D01*
X40440273Y-66851185D01*
X40266463Y-66944089D01*
X40114117Y-67069117D01*
X39989089Y-67221463D01*
X39896185Y-67395273D01*
X39838976Y-67583866D01*
X39819659Y-67780000D01*
X39838975Y-67976130D01*
X39894106Y-68157870D01*
X39895729Y-68223994D01*
X39863126Y-68281546D01*
X39601490Y-68543183D01*
X39561265Y-68570061D01*
X39513812Y-68579500D01*
X39185333Y-68579500D01*
X39118993Y-68560262D01*
X39073238Y-68508517D01*
X39062266Y-68440321D01*
X39089480Y-68376835D01*
X39120910Y-68338538D01*
X39213814Y-68164727D01*
X39271024Y-67976132D01*
X39290341Y-67780000D01*
X39271024Y-67583868D01*
X39213814Y-67395273D01*
X39120910Y-67221462D01*
X38995883Y-67069117D01*
X38843538Y-66944090D01*
X38787410Y-66914089D01*
X38669726Y-66851185D01*
X38481133Y-66793976D01*
X38285000Y-66774659D01*
X38088866Y-66793976D01*
X37900273Y-66851185D01*
X37726463Y-66944089D01*
X37574117Y-67069117D01*
X37449091Y-67221459D01*
X37419224Y-67277337D01*
X37380094Y-67321078D01*
X37325232Y-67341926D01*
X37266929Y-67335211D01*
X37218243Y-67302436D01*
X37190083Y-67250944D01*
X37189477Y-67248680D01*
X37187144Y-67238149D01*
X37184202Y-67221462D01*
X37180588Y-67200964D01*
X37180587Y-67200963D01*
X37180400Y-67199900D01*
X37170173Y-67175210D01*
X37169554Y-67174326D01*
X37169554Y-67174325D01*
X37147878Y-67143369D01*
X37142085Y-67134275D01*
X37123194Y-67101554D01*
X37094261Y-67077276D01*
X37086286Y-67069968D01*
X36594353Y-66578035D01*
X36028497Y-66012180D01*
X35998248Y-65962818D01*
X35993706Y-65905102D01*
X36015861Y-65851615D01*
X36059884Y-65814015D01*
X36116179Y-65800500D01*
X36944749Y-65800500D01*
X36973989Y-65794683D01*
X37003231Y-65788867D01*
X37069552Y-65744552D01*
X37113867Y-65678231D01*
X37125500Y-65619748D01*
X37125500Y-64800000D01*
X37659659Y-64800000D01*
X37678976Y-64996133D01*
X37736185Y-65184726D01*
X37798628Y-65301547D01*
X37829090Y-65358538D01*
X37954117Y-65510883D01*
X38106462Y-65635910D01*
X38280273Y-65728814D01*
X38468868Y-65786024D01*
X38665000Y-65805341D01*
X38861132Y-65786024D01*
X39049727Y-65728814D01*
X39223538Y-65635910D01*
X39375883Y-65510883D01*
X39500910Y-65358538D01*
X39593814Y-65184727D01*
X39651024Y-64996132D01*
X39670341Y-64800000D01*
X39651024Y-64603868D01*
X39593814Y-64415273D01*
X39500910Y-64241462D01*
X39375883Y-64089117D01*
X39223538Y-63964090D01*
X39196775Y-63949785D01*
X39049726Y-63871185D01*
X38861133Y-63813976D01*
X38665000Y-63794659D01*
X38468866Y-63813976D01*
X38280273Y-63871185D01*
X38106463Y-63964089D01*
X37954117Y-64089117D01*
X37829089Y-64241463D01*
X37736185Y-64415273D01*
X37678976Y-64603866D01*
X37659659Y-64800000D01*
X37125500Y-64800000D01*
X37125500Y-63980252D01*
X37113867Y-63921769D01*
X37080068Y-63871186D01*
X37069552Y-63855447D01*
X37003230Y-63811132D01*
X36944749Y-63799500D01*
X36944748Y-63799500D01*
X35305252Y-63799500D01*
X35305251Y-63799500D01*
X35246769Y-63811132D01*
X35180447Y-63855447D01*
X35136132Y-63921769D01*
X35124500Y-63980251D01*
X35124500Y-65164812D01*
X35110985Y-65221107D01*
X35073385Y-65265130D01*
X35019898Y-65287285D01*
X34962182Y-65282743D01*
X34912819Y-65252493D01*
X32561819Y-62901493D01*
X32534939Y-62861265D01*
X32525500Y-62813812D01*
X32525500Y-62465996D01*
X32536553Y-62414821D01*
X32567740Y-62372769D01*
X32594269Y-62358024D01*
X32593182Y-62355990D01*
X32663342Y-62318488D01*
X32786450Y-62252685D01*
X32946410Y-62121410D01*
X33077685Y-61961450D01*
X33175232Y-61778954D01*
X33235300Y-61580934D01*
X33255583Y-61375000D01*
X33235300Y-61169066D01*
X33175232Y-60971046D01*
X33077685Y-60788550D01*
X33012047Y-60708570D01*
X32946410Y-60628589D01*
X32846836Y-60546872D01*
X32786450Y-60497315D01*
X32603954Y-60399768D01*
X32504943Y-60369733D01*
X32405932Y-60339699D01*
X32200000Y-60319417D01*
X31994067Y-60339699D01*
X31796043Y-60399769D01*
X31613551Y-60497314D01*
X31553164Y-60546872D01*
X31489678Y-60574086D01*
X31421483Y-60563113D01*
X31369738Y-60517358D01*
X31350500Y-60451018D01*
X31350500Y-60196188D01*
X31359939Y-60148735D01*
X31386816Y-60108509D01*
X31658717Y-59836608D01*
X31702721Y-59808238D01*
X31754518Y-59800560D01*
X31783688Y-59808894D01*
X31784359Y-59806686D01*
X31796042Y-59810230D01*
X31796046Y-59810232D01*
X31994066Y-59870300D01*
X32200000Y-59890583D01*
X32405934Y-59870300D01*
X32603954Y-59810232D01*
X32786450Y-59712685D01*
X32946410Y-59581410D01*
X33077685Y-59421450D01*
X33175232Y-59238954D01*
X33235300Y-59040934D01*
X33255583Y-58835000D01*
X33235300Y-58629066D01*
X33175232Y-58431046D01*
X33077685Y-58248550D01*
X33009957Y-58166023D01*
X32946410Y-58088589D01*
X32857171Y-58015354D01*
X32821274Y-57966954D01*
X32812432Y-57907347D01*
X32832733Y-57850610D01*
X32877382Y-57810142D01*
X32935835Y-57795500D01*
X35277190Y-57795500D01*
X35330207Y-57807405D01*
X35373043Y-57840835D01*
X35413421Y-57890035D01*
X35414117Y-57890883D01*
X35566462Y-58015910D01*
X35740273Y-58108814D01*
X35928868Y-58166024D01*
X36125000Y-58185341D01*
X36321132Y-58166024D01*
X36509727Y-58108814D01*
X36683538Y-58015910D01*
X36835883Y-57890883D01*
X36960910Y-57738538D01*
X37053814Y-57564727D01*
X37111024Y-57376132D01*
X37130341Y-57180000D01*
X37659659Y-57180000D01*
X37678976Y-57376133D01*
X37736185Y-57564726D01*
X37767865Y-57623994D01*
X37829090Y-57738538D01*
X37954117Y-57890883D01*
X38106462Y-58015910D01*
X38280273Y-58108814D01*
X38468868Y-58166024D01*
X38665000Y-58185341D01*
X38861132Y-58166024D01*
X39049727Y-58108814D01*
X39223538Y-58015910D01*
X39375883Y-57890883D01*
X39500910Y-57738538D01*
X39593814Y-57564727D01*
X39651024Y-57376132D01*
X39670341Y-57180000D01*
X39651024Y-56983868D01*
X39593814Y-56795273D01*
X39500910Y-56621462D01*
X39375883Y-56469117D01*
X39223538Y-56344090D01*
X39196779Y-56329787D01*
X39049726Y-56251185D01*
X38861133Y-56193976D01*
X38665000Y-56174659D01*
X38468866Y-56193976D01*
X38280273Y-56251185D01*
X38106463Y-56344089D01*
X37954117Y-56469117D01*
X37829089Y-56621463D01*
X37736185Y-56795273D01*
X37678976Y-56983866D01*
X37659659Y-57180000D01*
X37130341Y-57180000D01*
X37111024Y-56983868D01*
X37053814Y-56795273D01*
X36960910Y-56621462D01*
X36835883Y-56469117D01*
X36683538Y-56344090D01*
X36656779Y-56329787D01*
X36516046Y-56254563D01*
X36468142Y-56208954D01*
X36450500Y-56145205D01*
X36450500Y-55159619D01*
X36450972Y-55148812D01*
X36454263Y-55111191D01*
X36444486Y-55074704D01*
X36442144Y-55064140D01*
X36435400Y-55025891D01*
X36425173Y-55001201D01*
X36424554Y-55000317D01*
X36424554Y-55000316D01*
X36402878Y-54969360D01*
X36397085Y-54960266D01*
X36378194Y-54927545D01*
X36349261Y-54903267D01*
X36341286Y-54895959D01*
X33201613Y-51756286D01*
X33173239Y-51712276D01*
X33165561Y-51660477D01*
X33173895Y-51631308D01*
X33171687Y-51630638D01*
X33172335Y-51628502D01*
X33177198Y-51619751D01*
X33179948Y-51610128D01*
X33181001Y-51608159D01*
X33183036Y-51609247D01*
X33197768Y-51582740D01*
X33239820Y-51551553D01*
X33290995Y-51540500D01*
X37320373Y-51540500D01*
X37331180Y-51540971D01*
X37368807Y-51544264D01*
X37405324Y-51534478D01*
X37415830Y-51532149D01*
X37453045Y-51525588D01*
X37453047Y-51525586D01*
X37454112Y-51525399D01*
X37478799Y-51515173D01*
X37479682Y-51514554D01*
X37479684Y-51514554D01*
X37510625Y-51492887D01*
X37519722Y-51487091D01*
X37552455Y-51468194D01*
X37576748Y-51439241D01*
X37584036Y-51431288D01*
X43873454Y-45141871D01*
X43931004Y-45109270D01*
X43997126Y-45110892D01*
X44178868Y-45166024D01*
X44375000Y-45185341D01*
X44571132Y-45166024D01*
X44759727Y-45108814D01*
X44933538Y-45015910D01*
X45085883Y-44890883D01*
X45210910Y-44738538D01*
X45303814Y-44564727D01*
X45361024Y-44376132D01*
X45380341Y-44180000D01*
X45909659Y-44180000D01*
X45928976Y-44376133D01*
X45986185Y-44564726D01*
X46064496Y-44711235D01*
X46079090Y-44738538D01*
X46204117Y-44890883D01*
X46356462Y-45015910D01*
X46530273Y-45108814D01*
X46718868Y-45166024D01*
X46915000Y-45185341D01*
X47111132Y-45166024D01*
X47299727Y-45108814D01*
X47473538Y-45015910D01*
X47625883Y-44890883D01*
X47750910Y-44738538D01*
X47843814Y-44564727D01*
X47901024Y-44376132D01*
X47920341Y-44180000D01*
X47901024Y-43983868D01*
X47843814Y-43795273D01*
X47750910Y-43621462D01*
X47625883Y-43469117D01*
X47473538Y-43344090D01*
X47424243Y-43317741D01*
X47299726Y-43251185D01*
X47111133Y-43193976D01*
X46915000Y-43174659D01*
X46718866Y-43193976D01*
X46530273Y-43251185D01*
X46356463Y-43344089D01*
X46204117Y-43469117D01*
X46079089Y-43621463D01*
X45986185Y-43795273D01*
X45928976Y-43983866D01*
X45909659Y-44180000D01*
X45380341Y-44180000D01*
X45361024Y-43983868D01*
X45303814Y-43795273D01*
X45210910Y-43621462D01*
X45085883Y-43469117D01*
X44933538Y-43344090D01*
X44884243Y-43317741D01*
X44759726Y-43251185D01*
X44571134Y-43193976D01*
X44537651Y-43190678D01*
X44473517Y-43165029D01*
X44433055Y-43109049D01*
X44428820Y-43040106D01*
X44462124Y-42979596D01*
X50829903Y-36611819D01*
X50870132Y-36584939D01*
X50917585Y-36575500D01*
X64135373Y-36575500D01*
X64146180Y-36575971D01*
X64183807Y-36579264D01*
X64220324Y-36569478D01*
X64230830Y-36567149D01*
X64268045Y-36560588D01*
X64268047Y-36560586D01*
X64269112Y-36560399D01*
X64293799Y-36550173D01*
X64294682Y-36549554D01*
X64294684Y-36549554D01*
X64325625Y-36527887D01*
X64334722Y-36522091D01*
X64367455Y-36503194D01*
X64391748Y-36474241D01*
X64399036Y-36466288D01*
X64948453Y-35916871D01*
X65006003Y-35884270D01*
X65072126Y-35885892D01*
X65253868Y-35941024D01*
X65450000Y-35960341D01*
X65646132Y-35941024D01*
X65834727Y-35883814D01*
X66008538Y-35790910D01*
X66046835Y-35759479D01*
X66110321Y-35732266D01*
X66178517Y-35743238D01*
G37*
%TD.AperFunction*%
%TA.AperFunction,Conductor*%
G36*
X31555874Y-41021829D02*
G01*
X31574176Y-41041857D01*
X31615742Y-41076735D01*
X31623718Y-41084044D01*
X35955950Y-45416276D01*
X35963258Y-45424250D01*
X35987545Y-45453194D01*
X36011594Y-45467079D01*
X36020256Y-45472080D01*
X36029379Y-45477892D01*
X36060316Y-45499554D01*
X36060317Y-45499554D01*
X36061198Y-45500171D01*
X36085891Y-45510400D01*
X36086954Y-45510587D01*
X36086955Y-45510588D01*
X36124146Y-45517145D01*
X36134704Y-45519486D01*
X36171191Y-45529263D01*
X36171192Y-45529262D01*
X36171193Y-45529263D01*
X36208811Y-45525971D01*
X36219618Y-45525500D01*
X37181701Y-45525500D01*
X37236545Y-45538288D01*
X37280076Y-45574013D01*
X37321718Y-45628282D01*
X37447159Y-45724536D01*
X37593238Y-45785044D01*
X37750000Y-45805682D01*
X37906762Y-45785044D01*
X38052841Y-45724536D01*
X38178282Y-45628282D01*
X38274536Y-45502841D01*
X38335044Y-45356762D01*
X38355682Y-45200000D01*
X38335044Y-45043238D01*
X38274536Y-44897159D01*
X38257149Y-44874500D01*
X38178282Y-44771717D01*
X38052840Y-44675463D01*
X37906762Y-44614956D01*
X37750000Y-44594317D01*
X37593237Y-44614956D01*
X37447159Y-44675463D01*
X37321718Y-44771717D01*
X37280077Y-44825986D01*
X37236545Y-44861712D01*
X37181701Y-44874500D01*
X36386188Y-44874500D01*
X36338735Y-44865061D01*
X36298507Y-44838181D01*
X32957259Y-41496933D01*
X32926279Y-41445247D01*
X32923323Y-41385061D01*
X32949087Y-41330587D01*
X32997487Y-41294691D01*
X33057094Y-41285849D01*
X33058866Y-41286023D01*
X33058868Y-41286024D01*
X33255000Y-41305341D01*
X33451132Y-41286024D01*
X33632870Y-41230893D01*
X33698995Y-41229270D01*
X33756547Y-41261873D01*
X34860450Y-42365776D01*
X34867758Y-42373750D01*
X34892045Y-42402694D01*
X34916094Y-42416579D01*
X34924756Y-42421580D01*
X34933879Y-42427392D01*
X34964816Y-42449054D01*
X34964817Y-42449054D01*
X34965698Y-42449671D01*
X34990391Y-42459900D01*
X34991454Y-42460087D01*
X34991455Y-42460088D01*
X35028643Y-42466645D01*
X35039206Y-42468987D01*
X35075692Y-42478764D01*
X35075692Y-42478763D01*
X35075693Y-42478764D01*
X35113319Y-42475471D01*
X35124127Y-42475000D01*
X43238999Y-42475000D01*
X43293843Y-42487788D01*
X43337375Y-42523514D01*
X43379016Y-42577782D01*
X43504457Y-42674036D01*
X43562946Y-42698263D01*
X43611347Y-42734159D01*
X43637111Y-42788632D01*
X43634155Y-42848819D01*
X43603175Y-42900505D01*
X43033714Y-43469967D01*
X43025741Y-43477273D01*
X42996805Y-43501554D01*
X42977915Y-43534270D01*
X42972108Y-43543385D01*
X42965313Y-43553090D01*
X42951417Y-43569651D01*
X39372583Y-47148487D01*
X39332355Y-47175367D01*
X39284902Y-47184806D01*
X38053300Y-47184806D01*
X37998456Y-47172018D01*
X37954924Y-47136292D01*
X37913282Y-47082023D01*
X37787841Y-46985769D01*
X37641763Y-46925262D01*
X37485001Y-46904623D01*
X37328238Y-46925262D01*
X37182160Y-46985769D01*
X37056718Y-47082023D01*
X36960464Y-47207465D01*
X36899957Y-47353543D01*
X36879318Y-47510306D01*
X36899957Y-47667068D01*
X36960464Y-47813146D01*
X37056718Y-47938588D01*
X37182159Y-48034841D01*
X37182160Y-48034842D01*
X37328239Y-48095350D01*
X37485001Y-48115988D01*
X37641763Y-48095350D01*
X37787842Y-48034842D01*
X37913283Y-47938588D01*
X37954924Y-47884319D01*
X37998456Y-47848594D01*
X38053300Y-47835806D01*
X39451463Y-47835806D01*
X39462270Y-47836277D01*
X39499897Y-47839570D01*
X39536414Y-47829784D01*
X39546920Y-47827455D01*
X39584135Y-47820894D01*
X39584137Y-47820892D01*
X39585202Y-47820705D01*
X39609889Y-47810479D01*
X39610772Y-47809860D01*
X39610774Y-47809860D01*
X39641715Y-47788193D01*
X39650812Y-47782397D01*
X39683545Y-47763500D01*
X39707838Y-47734547D01*
X39715126Y-47726594D01*
X43174596Y-44267124D01*
X43235106Y-44233820D01*
X43304049Y-44238055D01*
X43360029Y-44278517D01*
X43385678Y-44342651D01*
X43388975Y-44376131D01*
X43444105Y-44557870D01*
X43445728Y-44623995D01*
X43413125Y-44681546D01*
X37241493Y-50853181D01*
X37201265Y-50880061D01*
X37153812Y-50889500D01*
X33290996Y-50889500D01*
X33239821Y-50878447D01*
X33197769Y-50847260D01*
X33183024Y-50820730D01*
X33180990Y-50821818D01*
X33102812Y-50675559D01*
X33077685Y-50628550D01*
X33011900Y-50548390D01*
X32946410Y-50468589D01*
X32848952Y-50388609D01*
X32786450Y-50337315D01*
X32603954Y-50239768D01*
X32504943Y-50209733D01*
X32405932Y-50179699D01*
X32200000Y-50159417D01*
X31994067Y-50179699D01*
X31784359Y-50243313D01*
X31783689Y-50241106D01*
X31754486Y-50249441D01*
X31702706Y-50241754D01*
X31658714Y-50213387D01*
X31432008Y-49986681D01*
X31401758Y-49937318D01*
X31397216Y-49879602D01*
X31419371Y-49826115D01*
X31463394Y-49788515D01*
X31519689Y-49775000D01*
X31950000Y-49775000D01*
X31950000Y-48925000D01*
X32450000Y-48925000D01*
X32450000Y-49775000D01*
X33074625Y-49775000D01*
X33147543Y-49760495D01*
X33230239Y-49705239D01*
X33285495Y-49622543D01*
X33300000Y-49549625D01*
X33300000Y-48925000D01*
X32450000Y-48925000D01*
X31950000Y-48925000D01*
X31100000Y-48925000D01*
X31100000Y-49355311D01*
X31086485Y-49411606D01*
X31048885Y-49455629D01*
X30995398Y-49477784D01*
X30937682Y-49473242D01*
X30888319Y-49442992D01*
X29951819Y-48506493D01*
X29924939Y-48466265D01*
X29916731Y-48425000D01*
X31100000Y-48425000D01*
X31950000Y-48425000D01*
X31950000Y-47575000D01*
X32450000Y-47575000D01*
X32450000Y-48425000D01*
X33300000Y-48425000D01*
X33300000Y-47800375D01*
X33285495Y-47727456D01*
X33230239Y-47644760D01*
X33147543Y-47589504D01*
X33074625Y-47575000D01*
X32450000Y-47575000D01*
X31950000Y-47575000D01*
X31325375Y-47575000D01*
X31252456Y-47589504D01*
X31169760Y-47644760D01*
X31114504Y-47727456D01*
X31100000Y-47800375D01*
X31100000Y-48425000D01*
X29916731Y-48425000D01*
X29915500Y-48418812D01*
X29915500Y-41200333D01*
X29934738Y-41133993D01*
X29986483Y-41088238D01*
X30054679Y-41077266D01*
X30118164Y-41104479D01*
X30156462Y-41135910D01*
X30330273Y-41228814D01*
X30518868Y-41286024D01*
X30715000Y-41305341D01*
X30911132Y-41286024D01*
X31099727Y-41228814D01*
X31273538Y-41135910D01*
X31405810Y-41027356D01*
X31453361Y-41003177D01*
X31506672Y-41001213D01*
X31555874Y-41021829D01*
G37*
%TD.AperFunction*%
%TD*%
M02*
