%TF.GenerationSoftware,KiCad,Pcbnew,7.0.1*%
%TF.CreationDate,2023-08-30T09:27:46-04:00*%
%TF.ProjectId,TacTile-D,54616354-696c-4652-9d44-2e6b69636164,rev?*%
%TF.SameCoordinates,Original*%
%TF.FileFunction,Legend,Top*%
%TF.FilePolarity,Positive*%
%FSLAX46Y46*%
G04 Gerber Fmt 4.6, Leading zero omitted, Abs format (unit mm)*
G04 Created by KiCad (PCBNEW 7.0.1) date 2023-08-30 09:27:46*
%MOMM*%
%LPD*%
G01*
G04 APERTURE LIST*
%ADD10C,0.150000*%
%ADD11C,0.120000*%
G04 APERTURE END LIST*
D10*
%TO.C,J1*%
X27486666Y-45367619D02*
X27486666Y-46081904D01*
X27486666Y-46081904D02*
X27439047Y-46224761D01*
X27439047Y-46224761D02*
X27343809Y-46320000D01*
X27343809Y-46320000D02*
X27200952Y-46367619D01*
X27200952Y-46367619D02*
X27105714Y-46367619D01*
X28486666Y-46367619D02*
X27915238Y-46367619D01*
X28200952Y-46367619D02*
X28200952Y-45367619D01*
X28200952Y-45367619D02*
X28105714Y-45510476D01*
X28105714Y-45510476D02*
X28010476Y-45605714D01*
X28010476Y-45605714D02*
X27915238Y-45653333D01*
%TO.C,U7*%
X38498095Y-48382619D02*
X38498095Y-49192142D01*
X38498095Y-49192142D02*
X38545714Y-49287380D01*
X38545714Y-49287380D02*
X38593333Y-49335000D01*
X38593333Y-49335000D02*
X38688571Y-49382619D01*
X38688571Y-49382619D02*
X38879047Y-49382619D01*
X38879047Y-49382619D02*
X38974285Y-49335000D01*
X38974285Y-49335000D02*
X39021904Y-49287380D01*
X39021904Y-49287380D02*
X39069523Y-49192142D01*
X39069523Y-49192142D02*
X39069523Y-48382619D01*
X39450476Y-48382619D02*
X40117142Y-48382619D01*
X40117142Y-48382619D02*
X39688571Y-49382619D01*
%TO.C,J2*%
X63557619Y-29153333D02*
X64271904Y-29153333D01*
X64271904Y-29153333D02*
X64414761Y-29200952D01*
X64414761Y-29200952D02*
X64510000Y-29296190D01*
X64510000Y-29296190D02*
X64557619Y-29439047D01*
X64557619Y-29439047D02*
X64557619Y-29534285D01*
X63652857Y-28724761D02*
X63605238Y-28677142D01*
X63605238Y-28677142D02*
X63557619Y-28581904D01*
X63557619Y-28581904D02*
X63557619Y-28343809D01*
X63557619Y-28343809D02*
X63605238Y-28248571D01*
X63605238Y-28248571D02*
X63652857Y-28200952D01*
X63652857Y-28200952D02*
X63748095Y-28153333D01*
X63748095Y-28153333D02*
X63843333Y-28153333D01*
X63843333Y-28153333D02*
X63986190Y-28200952D01*
X63986190Y-28200952D02*
X64557619Y-28772380D01*
X64557619Y-28772380D02*
X64557619Y-28153333D01*
%TO.C,U3*%
X25782619Y-72301904D02*
X26592142Y-72301904D01*
X26592142Y-72301904D02*
X26687380Y-72254285D01*
X26687380Y-72254285D02*
X26735000Y-72206666D01*
X26735000Y-72206666D02*
X26782619Y-72111428D01*
X26782619Y-72111428D02*
X26782619Y-71920952D01*
X26782619Y-71920952D02*
X26735000Y-71825714D01*
X26735000Y-71825714D02*
X26687380Y-71778095D01*
X26687380Y-71778095D02*
X26592142Y-71730476D01*
X26592142Y-71730476D02*
X25782619Y-71730476D01*
X25782619Y-71349523D02*
X25782619Y-70730476D01*
X25782619Y-70730476D02*
X26163571Y-71063809D01*
X26163571Y-71063809D02*
X26163571Y-70920952D01*
X26163571Y-70920952D02*
X26211190Y-70825714D01*
X26211190Y-70825714D02*
X26258809Y-70778095D01*
X26258809Y-70778095D02*
X26354047Y-70730476D01*
X26354047Y-70730476D02*
X26592142Y-70730476D01*
X26592142Y-70730476D02*
X26687380Y-70778095D01*
X26687380Y-70778095D02*
X26735000Y-70825714D01*
X26735000Y-70825714D02*
X26782619Y-70920952D01*
X26782619Y-70920952D02*
X26782619Y-71206666D01*
X26782619Y-71206666D02*
X26735000Y-71301904D01*
X26735000Y-71301904D02*
X26687380Y-71349523D01*
%TO.C,J3*%
X81876666Y-45842619D02*
X81876666Y-46556904D01*
X81876666Y-46556904D02*
X81829047Y-46699761D01*
X81829047Y-46699761D02*
X81733809Y-46795000D01*
X81733809Y-46795000D02*
X81590952Y-46842619D01*
X81590952Y-46842619D02*
X81495714Y-46842619D01*
X82257619Y-45842619D02*
X82876666Y-45842619D01*
X82876666Y-45842619D02*
X82543333Y-46223571D01*
X82543333Y-46223571D02*
X82686190Y-46223571D01*
X82686190Y-46223571D02*
X82781428Y-46271190D01*
X82781428Y-46271190D02*
X82829047Y-46318809D01*
X82829047Y-46318809D02*
X82876666Y-46414047D01*
X82876666Y-46414047D02*
X82876666Y-46652142D01*
X82876666Y-46652142D02*
X82829047Y-46747380D01*
X82829047Y-46747380D02*
X82781428Y-46795000D01*
X82781428Y-46795000D02*
X82686190Y-46842619D01*
X82686190Y-46842619D02*
X82400476Y-46842619D01*
X82400476Y-46842619D02*
X82305238Y-46795000D01*
X82305238Y-46795000D02*
X82257619Y-46747380D01*
%TO.C,J7*%
X31692619Y-26708333D02*
X32406904Y-26708333D01*
X32406904Y-26708333D02*
X32549761Y-26755952D01*
X32549761Y-26755952D02*
X32645000Y-26851190D01*
X32645000Y-26851190D02*
X32692619Y-26994047D01*
X32692619Y-26994047D02*
X32692619Y-27089285D01*
X31692619Y-26327380D02*
X31692619Y-25660714D01*
X31692619Y-25660714D02*
X32692619Y-26089285D01*
%TO.C,U1*%
X69998095Y-48332619D02*
X69998095Y-49142142D01*
X69998095Y-49142142D02*
X70045714Y-49237380D01*
X70045714Y-49237380D02*
X70093333Y-49285000D01*
X70093333Y-49285000D02*
X70188571Y-49332619D01*
X70188571Y-49332619D02*
X70379047Y-49332619D01*
X70379047Y-49332619D02*
X70474285Y-49285000D01*
X70474285Y-49285000D02*
X70521904Y-49237380D01*
X70521904Y-49237380D02*
X70569523Y-49142142D01*
X70569523Y-49142142D02*
X70569523Y-48332619D01*
X71569523Y-49332619D02*
X70998095Y-49332619D01*
X71283809Y-49332619D02*
X71283809Y-48332619D01*
X71283809Y-48332619D02*
X71188571Y-48475476D01*
X71188571Y-48475476D02*
X71093333Y-48570714D01*
X71093333Y-48570714D02*
X70998095Y-48618333D01*
%TO.C,U6*%
X45967619Y-39871904D02*
X46777142Y-39871904D01*
X46777142Y-39871904D02*
X46872380Y-39824285D01*
X46872380Y-39824285D02*
X46920000Y-39776666D01*
X46920000Y-39776666D02*
X46967619Y-39681428D01*
X46967619Y-39681428D02*
X46967619Y-39490952D01*
X46967619Y-39490952D02*
X46920000Y-39395714D01*
X46920000Y-39395714D02*
X46872380Y-39348095D01*
X46872380Y-39348095D02*
X46777142Y-39300476D01*
X46777142Y-39300476D02*
X45967619Y-39300476D01*
X45967619Y-38395714D02*
X45967619Y-38586190D01*
X45967619Y-38586190D02*
X46015238Y-38681428D01*
X46015238Y-38681428D02*
X46062857Y-38729047D01*
X46062857Y-38729047D02*
X46205714Y-38824285D01*
X46205714Y-38824285D02*
X46396190Y-38871904D01*
X46396190Y-38871904D02*
X46777142Y-38871904D01*
X46777142Y-38871904D02*
X46872380Y-38824285D01*
X46872380Y-38824285D02*
X46920000Y-38776666D01*
X46920000Y-38776666D02*
X46967619Y-38681428D01*
X46967619Y-38681428D02*
X46967619Y-38490952D01*
X46967619Y-38490952D02*
X46920000Y-38395714D01*
X46920000Y-38395714D02*
X46872380Y-38348095D01*
X46872380Y-38348095D02*
X46777142Y-38300476D01*
X46777142Y-38300476D02*
X46539047Y-38300476D01*
X46539047Y-38300476D02*
X46443809Y-38348095D01*
X46443809Y-38348095D02*
X46396190Y-38395714D01*
X46396190Y-38395714D02*
X46348571Y-38490952D01*
X46348571Y-38490952D02*
X46348571Y-38681428D01*
X46348571Y-38681428D02*
X46396190Y-38776666D01*
X46396190Y-38776666D02*
X46443809Y-38824285D01*
X46443809Y-38824285D02*
X46539047Y-38871904D01*
%TO.C,J5*%
X30692619Y-83958333D02*
X31406904Y-83958333D01*
X31406904Y-83958333D02*
X31549761Y-84005952D01*
X31549761Y-84005952D02*
X31645000Y-84101190D01*
X31645000Y-84101190D02*
X31692619Y-84244047D01*
X31692619Y-84244047D02*
X31692619Y-84339285D01*
X30692619Y-83005952D02*
X30692619Y-83482142D01*
X30692619Y-83482142D02*
X31168809Y-83529761D01*
X31168809Y-83529761D02*
X31121190Y-83482142D01*
X31121190Y-83482142D02*
X31073571Y-83386904D01*
X31073571Y-83386904D02*
X31073571Y-83148809D01*
X31073571Y-83148809D02*
X31121190Y-83053571D01*
X31121190Y-83053571D02*
X31168809Y-83005952D01*
X31168809Y-83005952D02*
X31264047Y-82958333D01*
X31264047Y-82958333D02*
X31502142Y-82958333D01*
X31502142Y-82958333D02*
X31597380Y-83005952D01*
X31597380Y-83005952D02*
X31645000Y-83053571D01*
X31645000Y-83053571D02*
X31692619Y-83148809D01*
X31692619Y-83148809D02*
X31692619Y-83386904D01*
X31692619Y-83386904D02*
X31645000Y-83482142D01*
X31645000Y-83482142D02*
X31597380Y-83529761D01*
%TO.C,J8*%
X69152619Y-26708333D02*
X69866904Y-26708333D01*
X69866904Y-26708333D02*
X70009761Y-26755952D01*
X70009761Y-26755952D02*
X70105000Y-26851190D01*
X70105000Y-26851190D02*
X70152619Y-26994047D01*
X70152619Y-26994047D02*
X70152619Y-27089285D01*
X69581190Y-26089285D02*
X69533571Y-26184523D01*
X69533571Y-26184523D02*
X69485952Y-26232142D01*
X69485952Y-26232142D02*
X69390714Y-26279761D01*
X69390714Y-26279761D02*
X69343095Y-26279761D01*
X69343095Y-26279761D02*
X69247857Y-26232142D01*
X69247857Y-26232142D02*
X69200238Y-26184523D01*
X69200238Y-26184523D02*
X69152619Y-26089285D01*
X69152619Y-26089285D02*
X69152619Y-25898809D01*
X69152619Y-25898809D02*
X69200238Y-25803571D01*
X69200238Y-25803571D02*
X69247857Y-25755952D01*
X69247857Y-25755952D02*
X69343095Y-25708333D01*
X69343095Y-25708333D02*
X69390714Y-25708333D01*
X69390714Y-25708333D02*
X69485952Y-25755952D01*
X69485952Y-25755952D02*
X69533571Y-25803571D01*
X69533571Y-25803571D02*
X69581190Y-25898809D01*
X69581190Y-25898809D02*
X69581190Y-26089285D01*
X69581190Y-26089285D02*
X69628809Y-26184523D01*
X69628809Y-26184523D02*
X69676428Y-26232142D01*
X69676428Y-26232142D02*
X69771666Y-26279761D01*
X69771666Y-26279761D02*
X69962142Y-26279761D01*
X69962142Y-26279761D02*
X70057380Y-26232142D01*
X70057380Y-26232142D02*
X70105000Y-26184523D01*
X70105000Y-26184523D02*
X70152619Y-26089285D01*
X70152619Y-26089285D02*
X70152619Y-25898809D01*
X70152619Y-25898809D02*
X70105000Y-25803571D01*
X70105000Y-25803571D02*
X70057380Y-25755952D01*
X70057380Y-25755952D02*
X69962142Y-25708333D01*
X69962142Y-25708333D02*
X69771666Y-25708333D01*
X69771666Y-25708333D02*
X69676428Y-25755952D01*
X69676428Y-25755952D02*
X69628809Y-25803571D01*
X69628809Y-25803571D02*
X69581190Y-25898809D01*
%TO.C,U8*%
X52048095Y-34882619D02*
X52048095Y-35692142D01*
X52048095Y-35692142D02*
X52095714Y-35787380D01*
X52095714Y-35787380D02*
X52143333Y-35835000D01*
X52143333Y-35835000D02*
X52238571Y-35882619D01*
X52238571Y-35882619D02*
X52429047Y-35882619D01*
X52429047Y-35882619D02*
X52524285Y-35835000D01*
X52524285Y-35835000D02*
X52571904Y-35787380D01*
X52571904Y-35787380D02*
X52619523Y-35692142D01*
X52619523Y-35692142D02*
X52619523Y-34882619D01*
X53238571Y-35311190D02*
X53143333Y-35263571D01*
X53143333Y-35263571D02*
X53095714Y-35215952D01*
X53095714Y-35215952D02*
X53048095Y-35120714D01*
X53048095Y-35120714D02*
X53048095Y-35073095D01*
X53048095Y-35073095D02*
X53095714Y-34977857D01*
X53095714Y-34977857D02*
X53143333Y-34930238D01*
X53143333Y-34930238D02*
X53238571Y-34882619D01*
X53238571Y-34882619D02*
X53429047Y-34882619D01*
X53429047Y-34882619D02*
X53524285Y-34930238D01*
X53524285Y-34930238D02*
X53571904Y-34977857D01*
X53571904Y-34977857D02*
X53619523Y-35073095D01*
X53619523Y-35073095D02*
X53619523Y-35120714D01*
X53619523Y-35120714D02*
X53571904Y-35215952D01*
X53571904Y-35215952D02*
X53524285Y-35263571D01*
X53524285Y-35263571D02*
X53429047Y-35311190D01*
X53429047Y-35311190D02*
X53238571Y-35311190D01*
X53238571Y-35311190D02*
X53143333Y-35358809D01*
X53143333Y-35358809D02*
X53095714Y-35406428D01*
X53095714Y-35406428D02*
X53048095Y-35501666D01*
X53048095Y-35501666D02*
X53048095Y-35692142D01*
X53048095Y-35692142D02*
X53095714Y-35787380D01*
X53095714Y-35787380D02*
X53143333Y-35835000D01*
X53143333Y-35835000D02*
X53238571Y-35882619D01*
X53238571Y-35882619D02*
X53429047Y-35882619D01*
X53429047Y-35882619D02*
X53524285Y-35835000D01*
X53524285Y-35835000D02*
X53571904Y-35787380D01*
X53571904Y-35787380D02*
X53619523Y-35692142D01*
X53619523Y-35692142D02*
X53619523Y-35501666D01*
X53619523Y-35501666D02*
X53571904Y-35406428D01*
X53571904Y-35406428D02*
X53524285Y-35358809D01*
X53524285Y-35358809D02*
X53429047Y-35311190D01*
%TO.C,U5*%
X49048095Y-48382619D02*
X49048095Y-49192142D01*
X49048095Y-49192142D02*
X49095714Y-49287380D01*
X49095714Y-49287380D02*
X49143333Y-49335000D01*
X49143333Y-49335000D02*
X49238571Y-49382619D01*
X49238571Y-49382619D02*
X49429047Y-49382619D01*
X49429047Y-49382619D02*
X49524285Y-49335000D01*
X49524285Y-49335000D02*
X49571904Y-49287380D01*
X49571904Y-49287380D02*
X49619523Y-49192142D01*
X49619523Y-49192142D02*
X49619523Y-48382619D01*
X50571904Y-48382619D02*
X50095714Y-48382619D01*
X50095714Y-48382619D02*
X50048095Y-48858809D01*
X50048095Y-48858809D02*
X50095714Y-48811190D01*
X50095714Y-48811190D02*
X50190952Y-48763571D01*
X50190952Y-48763571D02*
X50429047Y-48763571D01*
X50429047Y-48763571D02*
X50524285Y-48811190D01*
X50524285Y-48811190D02*
X50571904Y-48858809D01*
X50571904Y-48858809D02*
X50619523Y-48954047D01*
X50619523Y-48954047D02*
X50619523Y-49192142D01*
X50619523Y-49192142D02*
X50571904Y-49287380D01*
X50571904Y-49287380D02*
X50524285Y-49335000D01*
X50524285Y-49335000D02*
X50429047Y-49382619D01*
X50429047Y-49382619D02*
X50190952Y-49382619D01*
X50190952Y-49382619D02*
X50095714Y-49335000D01*
X50095714Y-49335000D02*
X50048095Y-49287380D01*
%TO.C,J4*%
X63082619Y-83543333D02*
X63796904Y-83543333D01*
X63796904Y-83543333D02*
X63939761Y-83590952D01*
X63939761Y-83590952D02*
X64035000Y-83686190D01*
X64035000Y-83686190D02*
X64082619Y-83829047D01*
X64082619Y-83829047D02*
X64082619Y-83924285D01*
X63415952Y-82638571D02*
X64082619Y-82638571D01*
X63035000Y-82876666D02*
X63749285Y-83114761D01*
X63749285Y-83114761D02*
X63749285Y-82495714D01*
%TO.C,U2*%
X54298095Y-64882619D02*
X54298095Y-65692142D01*
X54298095Y-65692142D02*
X54345714Y-65787380D01*
X54345714Y-65787380D02*
X54393333Y-65835000D01*
X54393333Y-65835000D02*
X54488571Y-65882619D01*
X54488571Y-65882619D02*
X54679047Y-65882619D01*
X54679047Y-65882619D02*
X54774285Y-65835000D01*
X54774285Y-65835000D02*
X54821904Y-65787380D01*
X54821904Y-65787380D02*
X54869523Y-65692142D01*
X54869523Y-65692142D02*
X54869523Y-64882619D01*
X55298095Y-64977857D02*
X55345714Y-64930238D01*
X55345714Y-64930238D02*
X55440952Y-64882619D01*
X55440952Y-64882619D02*
X55679047Y-64882619D01*
X55679047Y-64882619D02*
X55774285Y-64930238D01*
X55774285Y-64930238D02*
X55821904Y-64977857D01*
X55821904Y-64977857D02*
X55869523Y-65073095D01*
X55869523Y-65073095D02*
X55869523Y-65168333D01*
X55869523Y-65168333D02*
X55821904Y-65311190D01*
X55821904Y-65311190D02*
X55250476Y-65882619D01*
X55250476Y-65882619D02*
X55869523Y-65882619D01*
%TO.C,J6*%
X62532619Y-83958333D02*
X63246904Y-83958333D01*
X63246904Y-83958333D02*
X63389761Y-84005952D01*
X63389761Y-84005952D02*
X63485000Y-84101190D01*
X63485000Y-84101190D02*
X63532619Y-84244047D01*
X63532619Y-84244047D02*
X63532619Y-84339285D01*
X62532619Y-83053571D02*
X62532619Y-83244047D01*
X62532619Y-83244047D02*
X62580238Y-83339285D01*
X62580238Y-83339285D02*
X62627857Y-83386904D01*
X62627857Y-83386904D02*
X62770714Y-83482142D01*
X62770714Y-83482142D02*
X62961190Y-83529761D01*
X62961190Y-83529761D02*
X63342142Y-83529761D01*
X63342142Y-83529761D02*
X63437380Y-83482142D01*
X63437380Y-83482142D02*
X63485000Y-83434523D01*
X63485000Y-83434523D02*
X63532619Y-83339285D01*
X63532619Y-83339285D02*
X63532619Y-83148809D01*
X63532619Y-83148809D02*
X63485000Y-83053571D01*
X63485000Y-83053571D02*
X63437380Y-83005952D01*
X63437380Y-83005952D02*
X63342142Y-82958333D01*
X63342142Y-82958333D02*
X63104047Y-82958333D01*
X63104047Y-82958333D02*
X63008809Y-83005952D01*
X63008809Y-83005952D02*
X62961190Y-83053571D01*
X62961190Y-83053571D02*
X62913571Y-83148809D01*
X62913571Y-83148809D02*
X62913571Y-83339285D01*
X62913571Y-83339285D02*
X62961190Y-83434523D01*
X62961190Y-83434523D02*
X63008809Y-83482142D01*
X63008809Y-83482142D02*
X63104047Y-83529761D01*
%TO.C,U10*%
X76321905Y-34882619D02*
X76321905Y-35692142D01*
X76321905Y-35692142D02*
X76369524Y-35787380D01*
X76369524Y-35787380D02*
X76417143Y-35835000D01*
X76417143Y-35835000D02*
X76512381Y-35882619D01*
X76512381Y-35882619D02*
X76702857Y-35882619D01*
X76702857Y-35882619D02*
X76798095Y-35835000D01*
X76798095Y-35835000D02*
X76845714Y-35787380D01*
X76845714Y-35787380D02*
X76893333Y-35692142D01*
X76893333Y-35692142D02*
X76893333Y-34882619D01*
X77893333Y-35882619D02*
X77321905Y-35882619D01*
X77607619Y-35882619D02*
X77607619Y-34882619D01*
X77607619Y-34882619D02*
X77512381Y-35025476D01*
X77512381Y-35025476D02*
X77417143Y-35120714D01*
X77417143Y-35120714D02*
X77321905Y-35168333D01*
X78512381Y-34882619D02*
X78607619Y-34882619D01*
X78607619Y-34882619D02*
X78702857Y-34930238D01*
X78702857Y-34930238D02*
X78750476Y-34977857D01*
X78750476Y-34977857D02*
X78798095Y-35073095D01*
X78798095Y-35073095D02*
X78845714Y-35263571D01*
X78845714Y-35263571D02*
X78845714Y-35501666D01*
X78845714Y-35501666D02*
X78798095Y-35692142D01*
X78798095Y-35692142D02*
X78750476Y-35787380D01*
X78750476Y-35787380D02*
X78702857Y-35835000D01*
X78702857Y-35835000D02*
X78607619Y-35882619D01*
X78607619Y-35882619D02*
X78512381Y-35882619D01*
X78512381Y-35882619D02*
X78417143Y-35835000D01*
X78417143Y-35835000D02*
X78369524Y-35787380D01*
X78369524Y-35787380D02*
X78321905Y-35692142D01*
X78321905Y-35692142D02*
X78274286Y-35501666D01*
X78274286Y-35501666D02*
X78274286Y-35263571D01*
X78274286Y-35263571D02*
X78321905Y-35073095D01*
X78321905Y-35073095D02*
X78369524Y-34977857D01*
X78369524Y-34977857D02*
X78417143Y-34930238D01*
X78417143Y-34930238D02*
X78512381Y-34882619D01*
%TO.C,U4*%
X60782619Y-72301904D02*
X61592142Y-72301904D01*
X61592142Y-72301904D02*
X61687380Y-72254285D01*
X61687380Y-72254285D02*
X61735000Y-72206666D01*
X61735000Y-72206666D02*
X61782619Y-72111428D01*
X61782619Y-72111428D02*
X61782619Y-71920952D01*
X61782619Y-71920952D02*
X61735000Y-71825714D01*
X61735000Y-71825714D02*
X61687380Y-71778095D01*
X61687380Y-71778095D02*
X61592142Y-71730476D01*
X61592142Y-71730476D02*
X60782619Y-71730476D01*
X61115952Y-70825714D02*
X61782619Y-70825714D01*
X60735000Y-71063809D02*
X61449285Y-71301904D01*
X61449285Y-71301904D02*
X61449285Y-70682857D01*
%TO.C,U9*%
X64548095Y-34882619D02*
X64548095Y-35692142D01*
X64548095Y-35692142D02*
X64595714Y-35787380D01*
X64595714Y-35787380D02*
X64643333Y-35835000D01*
X64643333Y-35835000D02*
X64738571Y-35882619D01*
X64738571Y-35882619D02*
X64929047Y-35882619D01*
X64929047Y-35882619D02*
X65024285Y-35835000D01*
X65024285Y-35835000D02*
X65071904Y-35787380D01*
X65071904Y-35787380D02*
X65119523Y-35692142D01*
X65119523Y-35692142D02*
X65119523Y-34882619D01*
X65643333Y-35882619D02*
X65833809Y-35882619D01*
X65833809Y-35882619D02*
X65929047Y-35835000D01*
X65929047Y-35835000D02*
X65976666Y-35787380D01*
X65976666Y-35787380D02*
X66071904Y-35644523D01*
X66071904Y-35644523D02*
X66119523Y-35454047D01*
X66119523Y-35454047D02*
X66119523Y-35073095D01*
X66119523Y-35073095D02*
X66071904Y-34977857D01*
X66071904Y-34977857D02*
X66024285Y-34930238D01*
X66024285Y-34930238D02*
X65929047Y-34882619D01*
X65929047Y-34882619D02*
X65738571Y-34882619D01*
X65738571Y-34882619D02*
X65643333Y-34930238D01*
X65643333Y-34930238D02*
X65595714Y-34977857D01*
X65595714Y-34977857D02*
X65548095Y-35073095D01*
X65548095Y-35073095D02*
X65548095Y-35311190D01*
X65548095Y-35311190D02*
X65595714Y-35406428D01*
X65595714Y-35406428D02*
X65643333Y-35454047D01*
X65643333Y-35454047D02*
X65738571Y-35501666D01*
X65738571Y-35501666D02*
X65929047Y-35501666D01*
X65929047Y-35501666D02*
X66024285Y-35454047D01*
X66024285Y-35454047D02*
X66071904Y-35406428D01*
X66071904Y-35406428D02*
X66119523Y-35311190D01*
%TO.C,U11*%
X59021905Y-48382619D02*
X59021905Y-49192142D01*
X59021905Y-49192142D02*
X59069524Y-49287380D01*
X59069524Y-49287380D02*
X59117143Y-49335000D01*
X59117143Y-49335000D02*
X59212381Y-49382619D01*
X59212381Y-49382619D02*
X59402857Y-49382619D01*
X59402857Y-49382619D02*
X59498095Y-49335000D01*
X59498095Y-49335000D02*
X59545714Y-49287380D01*
X59545714Y-49287380D02*
X59593333Y-49192142D01*
X59593333Y-49192142D02*
X59593333Y-48382619D01*
X60593333Y-49382619D02*
X60021905Y-49382619D01*
X60307619Y-49382619D02*
X60307619Y-48382619D01*
X60307619Y-48382619D02*
X60212381Y-48525476D01*
X60212381Y-48525476D02*
X60117143Y-48620714D01*
X60117143Y-48620714D02*
X60021905Y-48668333D01*
X61545714Y-49382619D02*
X60974286Y-49382619D01*
X61260000Y-49382619D02*
X61260000Y-48382619D01*
X61260000Y-48382619D02*
X61164762Y-48525476D01*
X61164762Y-48525476D02*
X61069524Y-48620714D01*
X61069524Y-48620714D02*
X60974286Y-48668333D01*
D11*
%TO.C,J1*%
X22110000Y-47345000D02*
X22110000Y-62705000D01*
X22110000Y-47345000D02*
X30740000Y-47345000D01*
X22110000Y-47465000D02*
X30740000Y-47465000D01*
X22110000Y-47583095D02*
X30740000Y-47583095D01*
X22110000Y-47701190D02*
X30740000Y-47701190D01*
X22110000Y-47819285D02*
X30740000Y-47819285D01*
X22110000Y-47937380D02*
X30740000Y-47937380D01*
X22110000Y-48055475D02*
X30740000Y-48055475D01*
X22110000Y-48173570D02*
X30740000Y-48173570D01*
X22110000Y-48291665D02*
X30740000Y-48291665D01*
X22110000Y-48409760D02*
X30740000Y-48409760D01*
X22110000Y-48527855D02*
X30740000Y-48527855D01*
X22110000Y-48645950D02*
X30740000Y-48645950D01*
X22110000Y-48764045D02*
X30740000Y-48764045D01*
X22110000Y-48882140D02*
X30740000Y-48882140D01*
X22110000Y-49000235D02*
X30740000Y-49000235D01*
X22110000Y-49118330D02*
X30740000Y-49118330D01*
X22110000Y-49236425D02*
X30740000Y-49236425D01*
X22110000Y-49354520D02*
X30740000Y-49354520D01*
X22110000Y-49472615D02*
X30740000Y-49472615D01*
X22110000Y-49590710D02*
X30740000Y-49590710D01*
X22110000Y-49708805D02*
X30740000Y-49708805D01*
X22110000Y-49826900D02*
X30740000Y-49826900D01*
X22110000Y-49945000D02*
X30740000Y-49945000D01*
X22110000Y-52485000D02*
X30740000Y-52485000D01*
X22110000Y-55025000D02*
X30740000Y-55025000D01*
X22110000Y-57565000D02*
X30740000Y-57565000D01*
X22110000Y-60105000D02*
X30740000Y-60105000D01*
X22110000Y-62705000D02*
X30740000Y-62705000D01*
X30740000Y-47345000D02*
X30740000Y-62705000D01*
X30740000Y-48315000D02*
X31090000Y-48315000D01*
X30740000Y-49035000D02*
X31090000Y-49035000D01*
X30740000Y-50855000D02*
X31150000Y-50855000D01*
X30740000Y-51575000D02*
X31150000Y-51575000D01*
X30740000Y-53395000D02*
X31150000Y-53395000D01*
X30740000Y-54115000D02*
X31150000Y-54115000D01*
X30740000Y-55935000D02*
X31150000Y-55935000D01*
X30740000Y-56655000D02*
X31150000Y-56655000D01*
X30740000Y-58475000D02*
X31150000Y-58475000D01*
X30740000Y-59195000D02*
X31150000Y-59195000D01*
X30740000Y-61015000D02*
X31150000Y-61015000D01*
X30740000Y-61735000D02*
X31150000Y-61735000D01*
X32200000Y-47345000D02*
X33310000Y-47345000D01*
X33310000Y-47345000D02*
X33310000Y-48675000D01*
%TO.C,U7*%
X36610000Y-49920000D02*
X36610000Y-60200000D01*
X36610000Y-60200000D02*
X41910000Y-60200000D01*
X38260000Y-49920000D02*
X36610000Y-49920000D01*
X41910000Y-49920000D02*
X40260000Y-49920000D01*
X41910000Y-60200000D02*
X41910000Y-49920000D01*
X38260000Y-49920000D02*
G75*
G03*
X40260000Y-49920000I1000000J0D01*
G01*
%TO.C,J2*%
X62655000Y-23110000D02*
X47295000Y-23110000D01*
X62655000Y-23110000D02*
X62655000Y-31740000D01*
X62535000Y-23110000D02*
X62535000Y-31740000D01*
X62416905Y-23110000D02*
X62416905Y-31740000D01*
X62298810Y-23110000D02*
X62298810Y-31740000D01*
X62180715Y-23110000D02*
X62180715Y-31740000D01*
X62062620Y-23110000D02*
X62062620Y-31740000D01*
X61944525Y-23110000D02*
X61944525Y-31740000D01*
X61826430Y-23110000D02*
X61826430Y-31740000D01*
X61708335Y-23110000D02*
X61708335Y-31740000D01*
X61590240Y-23110000D02*
X61590240Y-31740000D01*
X61472145Y-23110000D02*
X61472145Y-31740000D01*
X61354050Y-23110000D02*
X61354050Y-31740000D01*
X61235955Y-23110000D02*
X61235955Y-31740000D01*
X61117860Y-23110000D02*
X61117860Y-31740000D01*
X60999765Y-23110000D02*
X60999765Y-31740000D01*
X60881670Y-23110000D02*
X60881670Y-31740000D01*
X60763575Y-23110000D02*
X60763575Y-31740000D01*
X60645480Y-23110000D02*
X60645480Y-31740000D01*
X60527385Y-23110000D02*
X60527385Y-31740000D01*
X60409290Y-23110000D02*
X60409290Y-31740000D01*
X60291195Y-23110000D02*
X60291195Y-31740000D01*
X60173100Y-23110000D02*
X60173100Y-31740000D01*
X60055000Y-23110000D02*
X60055000Y-31740000D01*
X57515000Y-23110000D02*
X57515000Y-31740000D01*
X54975000Y-23110000D02*
X54975000Y-31740000D01*
X52435000Y-23110000D02*
X52435000Y-31740000D01*
X49895000Y-23110000D02*
X49895000Y-31740000D01*
X47295000Y-23110000D02*
X47295000Y-31740000D01*
X62655000Y-31740000D02*
X47295000Y-31740000D01*
X61685000Y-31740000D02*
X61685000Y-32090000D01*
X60965000Y-31740000D02*
X60965000Y-32090000D01*
X59145000Y-31740000D02*
X59145000Y-32150000D01*
X58425000Y-31740000D02*
X58425000Y-32150000D01*
X56605000Y-31740000D02*
X56605000Y-32150000D01*
X55885000Y-31740000D02*
X55885000Y-32150000D01*
X54065000Y-31740000D02*
X54065000Y-32150000D01*
X53345000Y-31740000D02*
X53345000Y-32150000D01*
X51525000Y-31740000D02*
X51525000Y-32150000D01*
X50805000Y-31740000D02*
X50805000Y-32150000D01*
X48985000Y-31740000D02*
X48985000Y-32150000D01*
X48265000Y-31740000D02*
X48265000Y-32150000D01*
X62655000Y-33200000D02*
X62655000Y-34310000D01*
X62655000Y-34310000D02*
X61325000Y-34310000D01*
%TO.C,U3*%
X27320000Y-74190000D02*
X47760000Y-74190000D01*
X47760000Y-74190000D02*
X47760000Y-68890000D01*
X27320000Y-72540000D02*
X27320000Y-74190000D01*
X27320000Y-68890000D02*
X27320000Y-70540000D01*
X47760000Y-68890000D02*
X27320000Y-68890000D01*
X27320000Y-72540000D02*
G75*
G03*
X27320000Y-70540000I0J1000000D01*
G01*
%TO.C,J3*%
X76555000Y-47380000D02*
X77825000Y-47380000D01*
X76555000Y-48650000D02*
X76555000Y-47380000D01*
X78867929Y-50810000D02*
X79265000Y-50810000D01*
X78867929Y-51570000D02*
X79265000Y-51570000D01*
X78867929Y-53350000D02*
X79265000Y-53350000D01*
X78867929Y-54110000D02*
X79265000Y-54110000D01*
X78867929Y-55890000D02*
X79265000Y-55890000D01*
X78867929Y-56650000D02*
X79265000Y-56650000D01*
X78867929Y-58430000D02*
X79265000Y-58430000D01*
X78867929Y-59190000D02*
X79265000Y-59190000D01*
X78867929Y-60970000D02*
X79265000Y-60970000D01*
X78867929Y-61730000D02*
X79265000Y-61730000D01*
X78935000Y-48270000D02*
X79265000Y-48270000D01*
X78935000Y-49030000D02*
X79265000Y-49030000D01*
X79265000Y-47320000D02*
X79265000Y-62680000D01*
X79265000Y-49920000D02*
X81925000Y-49920000D01*
X79265000Y-52460000D02*
X81925000Y-52460000D01*
X79265000Y-55000000D02*
X81925000Y-55000000D01*
X79265000Y-57540000D02*
X81925000Y-57540000D01*
X79265000Y-60080000D02*
X81925000Y-60080000D01*
X79265000Y-62680000D02*
X81925000Y-62680000D01*
X81925000Y-47320000D02*
X79265000Y-47320000D01*
X81925000Y-48270000D02*
X87925000Y-48270000D01*
X81925000Y-48330000D02*
X87925000Y-48330000D01*
X81925000Y-48450000D02*
X87925000Y-48450000D01*
X81925000Y-48570000D02*
X87925000Y-48570000D01*
X81925000Y-48690000D02*
X87925000Y-48690000D01*
X81925000Y-48810000D02*
X87925000Y-48810000D01*
X81925000Y-48930000D02*
X87925000Y-48930000D01*
X81925000Y-50810000D02*
X87925000Y-50810000D01*
X81925000Y-53350000D02*
X87925000Y-53350000D01*
X81925000Y-55890000D02*
X87925000Y-55890000D01*
X81925000Y-58430000D02*
X87925000Y-58430000D01*
X81925000Y-60970000D02*
X87925000Y-60970000D01*
X81925000Y-62680000D02*
X81925000Y-47320000D01*
X87925000Y-48270000D02*
X87925000Y-49030000D01*
X87925000Y-49030000D02*
X81925000Y-49030000D01*
X87925000Y-50810000D02*
X87925000Y-51570000D01*
X87925000Y-51570000D02*
X81925000Y-51570000D01*
X87925000Y-53350000D02*
X87925000Y-54110000D01*
X87925000Y-54110000D02*
X81925000Y-54110000D01*
X87925000Y-55890000D02*
X87925000Y-56650000D01*
X87925000Y-56650000D02*
X81925000Y-56650000D01*
X87925000Y-58430000D02*
X87925000Y-59190000D01*
X87925000Y-59190000D02*
X81925000Y-59190000D01*
X87925000Y-60970000D02*
X87925000Y-61730000D01*
X87925000Y-61730000D02*
X81925000Y-61730000D01*
%TO.C,J7*%
X36270000Y-27705000D02*
X38870000Y-27705000D01*
X36270000Y-27705000D02*
X36270000Y-25045000D01*
X38870000Y-27705000D02*
X38870000Y-25045000D01*
X33670000Y-26375000D02*
X33670000Y-25045000D01*
X33670000Y-25045000D02*
X35000000Y-25045000D01*
X36270000Y-25045000D02*
X38870000Y-25045000D01*
%TO.C,U1*%
X68110000Y-49870000D02*
X68110000Y-60150000D01*
X68110000Y-60150000D02*
X73410000Y-60150000D01*
X69760000Y-49870000D02*
X68110000Y-49870000D01*
X73410000Y-49870000D02*
X71760000Y-49870000D01*
X73410000Y-60150000D02*
X73410000Y-49870000D01*
X69760000Y-49870000D02*
G75*
G03*
X71760000Y-49870000I1000000J0D01*
G01*
%TO.C,U6*%
X45505000Y-36460000D02*
X27605000Y-36460000D01*
X27605000Y-36460000D02*
X27605000Y-41760000D01*
X45505000Y-38110000D02*
X45505000Y-36460000D01*
X45505000Y-41760000D02*
X45505000Y-40110000D01*
X27605000Y-41760000D02*
X45505000Y-41760000D01*
X45505000Y-38110000D02*
G75*
G03*
X45505000Y-40110000I0J-1000000D01*
G01*
%TO.C,J5*%
X35270000Y-84955000D02*
X42950000Y-84955000D01*
X35270000Y-84955000D02*
X35270000Y-82295000D01*
X42950000Y-84955000D02*
X42950000Y-82295000D01*
X32670000Y-83625000D02*
X32670000Y-82295000D01*
X32670000Y-82295000D02*
X34000000Y-82295000D01*
X35270000Y-82295000D02*
X42950000Y-82295000D01*
%TO.C,J8*%
X73730000Y-27705000D02*
X76330000Y-27705000D01*
X73730000Y-27705000D02*
X73730000Y-25045000D01*
X76330000Y-27705000D02*
X76330000Y-25045000D01*
X71130000Y-26375000D02*
X71130000Y-25045000D01*
X71130000Y-25045000D02*
X72460000Y-25045000D01*
X73730000Y-25045000D02*
X76330000Y-25045000D01*
%TO.C,U8*%
X50160000Y-36420000D02*
X50160000Y-44160000D01*
X50160000Y-44160000D02*
X55460000Y-44160000D01*
X51810000Y-36420000D02*
X50160000Y-36420000D01*
X55460000Y-36420000D02*
X53810000Y-36420000D01*
X55460000Y-44160000D02*
X55460000Y-36420000D01*
X51810000Y-36420000D02*
G75*
G03*
X53810000Y-36420000I1000000J0D01*
G01*
%TO.C,U5*%
X47160000Y-49920000D02*
X47160000Y-60200000D01*
X47160000Y-60200000D02*
X52460000Y-60200000D01*
X48810000Y-49920000D02*
X47160000Y-49920000D01*
X52460000Y-49920000D02*
X50810000Y-49920000D01*
X52460000Y-60200000D02*
X52460000Y-49920000D01*
X48810000Y-49920000D02*
G75*
G03*
X50810000Y-49920000I1000000J0D01*
G01*
%TO.C,J4*%
X62620000Y-77555000D02*
X62620000Y-78825000D01*
X61350000Y-77555000D02*
X62620000Y-77555000D01*
X59190000Y-79867929D02*
X59190000Y-80265000D01*
X58430000Y-79867929D02*
X58430000Y-80265000D01*
X56650000Y-79867929D02*
X56650000Y-80265000D01*
X55890000Y-79867929D02*
X55890000Y-80265000D01*
X54110000Y-79867929D02*
X54110000Y-80265000D01*
X53350000Y-79867929D02*
X53350000Y-80265000D01*
X51570000Y-79867929D02*
X51570000Y-80265000D01*
X50810000Y-79867929D02*
X50810000Y-80265000D01*
X49030000Y-79867929D02*
X49030000Y-80265000D01*
X48270000Y-79867929D02*
X48270000Y-80265000D01*
X61730000Y-79935000D02*
X61730000Y-80265000D01*
X60970000Y-79935000D02*
X60970000Y-80265000D01*
X62680000Y-80265000D02*
X47320000Y-80265000D01*
X60080000Y-80265000D02*
X60080000Y-82925000D01*
X57540000Y-80265000D02*
X57540000Y-82925000D01*
X55000000Y-80265000D02*
X55000000Y-82925000D01*
X52460000Y-80265000D02*
X52460000Y-82925000D01*
X49920000Y-80265000D02*
X49920000Y-82925000D01*
X47320000Y-80265000D02*
X47320000Y-82925000D01*
X62680000Y-82925000D02*
X62680000Y-80265000D01*
X61730000Y-82925000D02*
X61730000Y-88925000D01*
X61670000Y-82925000D02*
X61670000Y-88925000D01*
X61550000Y-82925000D02*
X61550000Y-88925000D01*
X61430000Y-82925000D02*
X61430000Y-88925000D01*
X61310000Y-82925000D02*
X61310000Y-88925000D01*
X61190000Y-82925000D02*
X61190000Y-88925000D01*
X61070000Y-82925000D02*
X61070000Y-88925000D01*
X59190000Y-82925000D02*
X59190000Y-88925000D01*
X56650000Y-82925000D02*
X56650000Y-88925000D01*
X54110000Y-82925000D02*
X54110000Y-88925000D01*
X51570000Y-82925000D02*
X51570000Y-88925000D01*
X49030000Y-82925000D02*
X49030000Y-88925000D01*
X47320000Y-82925000D02*
X62680000Y-82925000D01*
X61730000Y-88925000D02*
X60970000Y-88925000D01*
X60970000Y-88925000D02*
X60970000Y-82925000D01*
X59190000Y-88925000D02*
X58430000Y-88925000D01*
X58430000Y-88925000D02*
X58430000Y-82925000D01*
X56650000Y-88925000D02*
X55890000Y-88925000D01*
X55890000Y-88925000D02*
X55890000Y-82925000D01*
X54110000Y-88925000D02*
X53350000Y-88925000D01*
X53350000Y-88925000D02*
X53350000Y-82925000D01*
X51570000Y-88925000D02*
X50810000Y-88925000D01*
X50810000Y-88925000D02*
X50810000Y-82925000D01*
X49030000Y-88925000D02*
X48270000Y-88925000D01*
X48270000Y-88925000D02*
X48270000Y-82925000D01*
%TO.C,U2*%
X52410000Y-66420000D02*
X52410000Y-76700000D01*
X52410000Y-76700000D02*
X57710000Y-76700000D01*
X54060000Y-66420000D02*
X52410000Y-66420000D01*
X57710000Y-66420000D02*
X56060000Y-66420000D01*
X57710000Y-76700000D02*
X57710000Y-66420000D01*
X54060000Y-66420000D02*
G75*
G03*
X56060000Y-66420000I1000000J0D01*
G01*
%TO.C,J6*%
X67110000Y-84955000D02*
X77330000Y-84955000D01*
X67110000Y-84955000D02*
X67110000Y-82295000D01*
X77330000Y-84955000D02*
X77330000Y-82295000D01*
X64510000Y-83625000D02*
X64510000Y-82295000D01*
X64510000Y-82295000D02*
X65840000Y-82295000D01*
X67110000Y-82295000D02*
X77330000Y-82295000D01*
%TO.C,U10*%
X74910000Y-36420000D02*
X74910000Y-44160000D01*
X74910000Y-44160000D02*
X80210000Y-44160000D01*
X76560000Y-36420000D02*
X74910000Y-36420000D01*
X80210000Y-36420000D02*
X78560000Y-36420000D01*
X80210000Y-44160000D02*
X80210000Y-36420000D01*
X76560000Y-36420000D02*
G75*
G03*
X78560000Y-36420000I1000000J0D01*
G01*
%TO.C,U4*%
X62320000Y-74190000D02*
X82760000Y-74190000D01*
X82760000Y-74190000D02*
X82760000Y-68890000D01*
X62320000Y-72540000D02*
X62320000Y-74190000D01*
X62320000Y-68890000D02*
X62320000Y-70540000D01*
X82760000Y-68890000D02*
X62320000Y-68890000D01*
X62320000Y-72540000D02*
G75*
G03*
X62320000Y-70540000I0J1000000D01*
G01*
%TO.C,U9*%
X62660000Y-36420000D02*
X62660000Y-44160000D01*
X62660000Y-44160000D02*
X67960000Y-44160000D01*
X64310000Y-36420000D02*
X62660000Y-36420000D01*
X67960000Y-36420000D02*
X66310000Y-36420000D01*
X67960000Y-44160000D02*
X67960000Y-36420000D01*
X64310000Y-36420000D02*
G75*
G03*
X66310000Y-36420000I1000000J0D01*
G01*
%TO.C,U11*%
X57610000Y-49920000D02*
X57610000Y-60200000D01*
X57610000Y-60200000D02*
X62910000Y-60200000D01*
X59260000Y-49920000D02*
X57610000Y-49920000D01*
X62910000Y-49920000D02*
X61260000Y-49920000D01*
X62910000Y-60200000D02*
X62910000Y-49920000D01*
X59260000Y-49920000D02*
G75*
G03*
X61260000Y-49920000I1000000J0D01*
G01*
%TD*%
M02*
