%TF.GenerationSoftware,KiCad,Pcbnew,7.0.1*%
%TF.CreationDate,2023-09-19T08:24:03-04:00*%
%TF.ProjectId,TacTile-D,54616354-696c-4652-9d44-2e6b69636164,rev?*%
%TF.SameCoordinates,Original*%
%TF.FileFunction,Legend,Top*%
%TF.FilePolarity,Positive*%
%FSLAX46Y46*%
G04 Gerber Fmt 4.6, Leading zero omitted, Abs format (unit mm)*
G04 Created by KiCad (PCBNEW 7.0.1) date 2023-09-19 08:24:03*
%MOMM*%
%LPD*%
G01*
G04 APERTURE LIST*
%ADD10C,0.150000*%
%ADD11C,0.120000*%
G04 APERTURE END LIST*
D10*
%TO.C,J1*%
X27486666Y-45367619D02*
X27486666Y-46081904D01*
X27486666Y-46081904D02*
X27439047Y-46224761D01*
X27439047Y-46224761D02*
X27343809Y-46320000D01*
X27343809Y-46320000D02*
X27200952Y-46367619D01*
X27200952Y-46367619D02*
X27105714Y-46367619D01*
X28486666Y-46367619D02*
X27915238Y-46367619D01*
X28200952Y-46367619D02*
X28200952Y-45367619D01*
X28200952Y-45367619D02*
X28105714Y-45510476D01*
X28105714Y-45510476D02*
X28010476Y-45605714D01*
X28010476Y-45605714D02*
X27915238Y-45653333D01*
%TO.C,U9*%
X33257619Y-61751904D02*
X34067142Y-61751904D01*
X34067142Y-61751904D02*
X34162380Y-61704285D01*
X34162380Y-61704285D02*
X34210000Y-61656666D01*
X34210000Y-61656666D02*
X34257619Y-61561428D01*
X34257619Y-61561428D02*
X34257619Y-61370952D01*
X34257619Y-61370952D02*
X34210000Y-61275714D01*
X34210000Y-61275714D02*
X34162380Y-61228095D01*
X34162380Y-61228095D02*
X34067142Y-61180476D01*
X34067142Y-61180476D02*
X33257619Y-61180476D01*
X34257619Y-60656666D02*
X34257619Y-60466190D01*
X34257619Y-60466190D02*
X34210000Y-60370952D01*
X34210000Y-60370952D02*
X34162380Y-60323333D01*
X34162380Y-60323333D02*
X34019523Y-60228095D01*
X34019523Y-60228095D02*
X33829047Y-60180476D01*
X33829047Y-60180476D02*
X33448095Y-60180476D01*
X33448095Y-60180476D02*
X33352857Y-60228095D01*
X33352857Y-60228095D02*
X33305238Y-60275714D01*
X33305238Y-60275714D02*
X33257619Y-60370952D01*
X33257619Y-60370952D02*
X33257619Y-60561428D01*
X33257619Y-60561428D02*
X33305238Y-60656666D01*
X33305238Y-60656666D02*
X33352857Y-60704285D01*
X33352857Y-60704285D02*
X33448095Y-60751904D01*
X33448095Y-60751904D02*
X33686190Y-60751904D01*
X33686190Y-60751904D02*
X33781428Y-60704285D01*
X33781428Y-60704285D02*
X33829047Y-60656666D01*
X33829047Y-60656666D02*
X33876666Y-60561428D01*
X33876666Y-60561428D02*
X33876666Y-60370952D01*
X33876666Y-60370952D02*
X33829047Y-60275714D01*
X33829047Y-60275714D02*
X33781428Y-60228095D01*
X33781428Y-60228095D02*
X33686190Y-60180476D01*
%TO.C,J2*%
X63557619Y-29153333D02*
X64271904Y-29153333D01*
X64271904Y-29153333D02*
X64414761Y-29200952D01*
X64414761Y-29200952D02*
X64510000Y-29296190D01*
X64510000Y-29296190D02*
X64557619Y-29439047D01*
X64557619Y-29439047D02*
X64557619Y-29534285D01*
X63652857Y-28724761D02*
X63605238Y-28677142D01*
X63605238Y-28677142D02*
X63557619Y-28581904D01*
X63557619Y-28581904D02*
X63557619Y-28343809D01*
X63557619Y-28343809D02*
X63605238Y-28248571D01*
X63605238Y-28248571D02*
X63652857Y-28200952D01*
X63652857Y-28200952D02*
X63748095Y-28153333D01*
X63748095Y-28153333D02*
X63843333Y-28153333D01*
X63843333Y-28153333D02*
X63986190Y-28200952D01*
X63986190Y-28200952D02*
X64557619Y-28772380D01*
X64557619Y-28772380D02*
X64557619Y-28153333D01*
%TO.C,U3*%
X25257619Y-72351904D02*
X26067142Y-72351904D01*
X26067142Y-72351904D02*
X26162380Y-72304285D01*
X26162380Y-72304285D02*
X26210000Y-72256666D01*
X26210000Y-72256666D02*
X26257619Y-72161428D01*
X26257619Y-72161428D02*
X26257619Y-71970952D01*
X26257619Y-71970952D02*
X26210000Y-71875714D01*
X26210000Y-71875714D02*
X26162380Y-71828095D01*
X26162380Y-71828095D02*
X26067142Y-71780476D01*
X26067142Y-71780476D02*
X25257619Y-71780476D01*
X25257619Y-71399523D02*
X25257619Y-70780476D01*
X25257619Y-70780476D02*
X25638571Y-71113809D01*
X25638571Y-71113809D02*
X25638571Y-70970952D01*
X25638571Y-70970952D02*
X25686190Y-70875714D01*
X25686190Y-70875714D02*
X25733809Y-70828095D01*
X25733809Y-70828095D02*
X25829047Y-70780476D01*
X25829047Y-70780476D02*
X26067142Y-70780476D01*
X26067142Y-70780476D02*
X26162380Y-70828095D01*
X26162380Y-70828095D02*
X26210000Y-70875714D01*
X26210000Y-70875714D02*
X26257619Y-70970952D01*
X26257619Y-70970952D02*
X26257619Y-71256666D01*
X26257619Y-71256666D02*
X26210000Y-71351904D01*
X26210000Y-71351904D02*
X26162380Y-71399523D01*
%TO.C,J3*%
X81876666Y-45842619D02*
X81876666Y-46556904D01*
X81876666Y-46556904D02*
X81829047Y-46699761D01*
X81829047Y-46699761D02*
X81733809Y-46795000D01*
X81733809Y-46795000D02*
X81590952Y-46842619D01*
X81590952Y-46842619D02*
X81495714Y-46842619D01*
X82257619Y-45842619D02*
X82876666Y-45842619D01*
X82876666Y-45842619D02*
X82543333Y-46223571D01*
X82543333Y-46223571D02*
X82686190Y-46223571D01*
X82686190Y-46223571D02*
X82781428Y-46271190D01*
X82781428Y-46271190D02*
X82829047Y-46318809D01*
X82829047Y-46318809D02*
X82876666Y-46414047D01*
X82876666Y-46414047D02*
X82876666Y-46652142D01*
X82876666Y-46652142D02*
X82829047Y-46747380D01*
X82829047Y-46747380D02*
X82781428Y-46795000D01*
X82781428Y-46795000D02*
X82686190Y-46842619D01*
X82686190Y-46842619D02*
X82400476Y-46842619D01*
X82400476Y-46842619D02*
X82305238Y-46795000D01*
X82305238Y-46795000D02*
X82257619Y-46747380D01*
%TO.C,J7*%
X31692619Y-26708333D02*
X32406904Y-26708333D01*
X32406904Y-26708333D02*
X32549761Y-26755952D01*
X32549761Y-26755952D02*
X32645000Y-26851190D01*
X32645000Y-26851190D02*
X32692619Y-26994047D01*
X32692619Y-26994047D02*
X32692619Y-27089285D01*
X31692619Y-26327380D02*
X31692619Y-25660714D01*
X31692619Y-25660714D02*
X32692619Y-26089285D01*
%TO.C,U7*%
X78688095Y-26992619D02*
X78688095Y-27802142D01*
X78688095Y-27802142D02*
X78735714Y-27897380D01*
X78735714Y-27897380D02*
X78783333Y-27945000D01*
X78783333Y-27945000D02*
X78878571Y-27992619D01*
X78878571Y-27992619D02*
X79069047Y-27992619D01*
X79069047Y-27992619D02*
X79164285Y-27945000D01*
X79164285Y-27945000D02*
X79211904Y-27897380D01*
X79211904Y-27897380D02*
X79259523Y-27802142D01*
X79259523Y-27802142D02*
X79259523Y-26992619D01*
X79640476Y-26992619D02*
X80307142Y-26992619D01*
X80307142Y-26992619D02*
X79878571Y-27992619D01*
%TO.C,U5*%
X44507619Y-41001904D02*
X45317142Y-41001904D01*
X45317142Y-41001904D02*
X45412380Y-40954285D01*
X45412380Y-40954285D02*
X45460000Y-40906666D01*
X45460000Y-40906666D02*
X45507619Y-40811428D01*
X45507619Y-40811428D02*
X45507619Y-40620952D01*
X45507619Y-40620952D02*
X45460000Y-40525714D01*
X45460000Y-40525714D02*
X45412380Y-40478095D01*
X45412380Y-40478095D02*
X45317142Y-40430476D01*
X45317142Y-40430476D02*
X44507619Y-40430476D01*
X44507619Y-39478095D02*
X44507619Y-39954285D01*
X44507619Y-39954285D02*
X44983809Y-40001904D01*
X44983809Y-40001904D02*
X44936190Y-39954285D01*
X44936190Y-39954285D02*
X44888571Y-39859047D01*
X44888571Y-39859047D02*
X44888571Y-39620952D01*
X44888571Y-39620952D02*
X44936190Y-39525714D01*
X44936190Y-39525714D02*
X44983809Y-39478095D01*
X44983809Y-39478095D02*
X45079047Y-39430476D01*
X45079047Y-39430476D02*
X45317142Y-39430476D01*
X45317142Y-39430476D02*
X45412380Y-39478095D01*
X45412380Y-39478095D02*
X45460000Y-39525714D01*
X45460000Y-39525714D02*
X45507619Y-39620952D01*
X45507619Y-39620952D02*
X45507619Y-39859047D01*
X45507619Y-39859047D02*
X45460000Y-39954285D01*
X45460000Y-39954285D02*
X45412380Y-40001904D01*
%TO.C,J5*%
X30692619Y-83958333D02*
X31406904Y-83958333D01*
X31406904Y-83958333D02*
X31549761Y-84005952D01*
X31549761Y-84005952D02*
X31645000Y-84101190D01*
X31645000Y-84101190D02*
X31692619Y-84244047D01*
X31692619Y-84244047D02*
X31692619Y-84339285D01*
X30692619Y-83005952D02*
X30692619Y-83482142D01*
X30692619Y-83482142D02*
X31168809Y-83529761D01*
X31168809Y-83529761D02*
X31121190Y-83482142D01*
X31121190Y-83482142D02*
X31073571Y-83386904D01*
X31073571Y-83386904D02*
X31073571Y-83148809D01*
X31073571Y-83148809D02*
X31121190Y-83053571D01*
X31121190Y-83053571D02*
X31168809Y-83005952D01*
X31168809Y-83005952D02*
X31264047Y-82958333D01*
X31264047Y-82958333D02*
X31502142Y-82958333D01*
X31502142Y-82958333D02*
X31597380Y-83005952D01*
X31597380Y-83005952D02*
X31645000Y-83053571D01*
X31645000Y-83053571D02*
X31692619Y-83148809D01*
X31692619Y-83148809D02*
X31692619Y-83386904D01*
X31692619Y-83386904D02*
X31645000Y-83482142D01*
X31645000Y-83482142D02*
X31597380Y-83529761D01*
%TO.C,U6*%
X68498095Y-27007619D02*
X68498095Y-27817142D01*
X68498095Y-27817142D02*
X68545714Y-27912380D01*
X68545714Y-27912380D02*
X68593333Y-27960000D01*
X68593333Y-27960000D02*
X68688571Y-28007619D01*
X68688571Y-28007619D02*
X68879047Y-28007619D01*
X68879047Y-28007619D02*
X68974285Y-27960000D01*
X68974285Y-27960000D02*
X69021904Y-27912380D01*
X69021904Y-27912380D02*
X69069523Y-27817142D01*
X69069523Y-27817142D02*
X69069523Y-27007619D01*
X69974285Y-27007619D02*
X69783809Y-27007619D01*
X69783809Y-27007619D02*
X69688571Y-27055238D01*
X69688571Y-27055238D02*
X69640952Y-27102857D01*
X69640952Y-27102857D02*
X69545714Y-27245714D01*
X69545714Y-27245714D02*
X69498095Y-27436190D01*
X69498095Y-27436190D02*
X69498095Y-27817142D01*
X69498095Y-27817142D02*
X69545714Y-27912380D01*
X69545714Y-27912380D02*
X69593333Y-27960000D01*
X69593333Y-27960000D02*
X69688571Y-28007619D01*
X69688571Y-28007619D02*
X69879047Y-28007619D01*
X69879047Y-28007619D02*
X69974285Y-27960000D01*
X69974285Y-27960000D02*
X70021904Y-27912380D01*
X70021904Y-27912380D02*
X70069523Y-27817142D01*
X70069523Y-27817142D02*
X70069523Y-27579047D01*
X70069523Y-27579047D02*
X70021904Y-27483809D01*
X70021904Y-27483809D02*
X69974285Y-27436190D01*
X69974285Y-27436190D02*
X69879047Y-27388571D01*
X69879047Y-27388571D02*
X69688571Y-27388571D01*
X69688571Y-27388571D02*
X69593333Y-27436190D01*
X69593333Y-27436190D02*
X69545714Y-27483809D01*
X69545714Y-27483809D02*
X69498095Y-27579047D01*
%TO.C,J8*%
X69152619Y-26708333D02*
X69866904Y-26708333D01*
X69866904Y-26708333D02*
X70009761Y-26755952D01*
X70009761Y-26755952D02*
X70105000Y-26851190D01*
X70105000Y-26851190D02*
X70152619Y-26994047D01*
X70152619Y-26994047D02*
X70152619Y-27089285D01*
X69581190Y-26089285D02*
X69533571Y-26184523D01*
X69533571Y-26184523D02*
X69485952Y-26232142D01*
X69485952Y-26232142D02*
X69390714Y-26279761D01*
X69390714Y-26279761D02*
X69343095Y-26279761D01*
X69343095Y-26279761D02*
X69247857Y-26232142D01*
X69247857Y-26232142D02*
X69200238Y-26184523D01*
X69200238Y-26184523D02*
X69152619Y-26089285D01*
X69152619Y-26089285D02*
X69152619Y-25898809D01*
X69152619Y-25898809D02*
X69200238Y-25803571D01*
X69200238Y-25803571D02*
X69247857Y-25755952D01*
X69247857Y-25755952D02*
X69343095Y-25708333D01*
X69343095Y-25708333D02*
X69390714Y-25708333D01*
X69390714Y-25708333D02*
X69485952Y-25755952D01*
X69485952Y-25755952D02*
X69533571Y-25803571D01*
X69533571Y-25803571D02*
X69581190Y-25898809D01*
X69581190Y-25898809D02*
X69581190Y-26089285D01*
X69581190Y-26089285D02*
X69628809Y-26184523D01*
X69628809Y-26184523D02*
X69676428Y-26232142D01*
X69676428Y-26232142D02*
X69771666Y-26279761D01*
X69771666Y-26279761D02*
X69962142Y-26279761D01*
X69962142Y-26279761D02*
X70057380Y-26232142D01*
X70057380Y-26232142D02*
X70105000Y-26184523D01*
X70105000Y-26184523D02*
X70152619Y-26089285D01*
X70152619Y-26089285D02*
X70152619Y-25898809D01*
X70152619Y-25898809D02*
X70105000Y-25803571D01*
X70105000Y-25803571D02*
X70057380Y-25755952D01*
X70057380Y-25755952D02*
X69962142Y-25708333D01*
X69962142Y-25708333D02*
X69771666Y-25708333D01*
X69771666Y-25708333D02*
X69676428Y-25755952D01*
X69676428Y-25755952D02*
X69628809Y-25803571D01*
X69628809Y-25803571D02*
X69581190Y-25898809D01*
%TO.C,J4*%
X63082619Y-83543333D02*
X63796904Y-83543333D01*
X63796904Y-83543333D02*
X63939761Y-83590952D01*
X63939761Y-83590952D02*
X64035000Y-83686190D01*
X64035000Y-83686190D02*
X64082619Y-83829047D01*
X64082619Y-83829047D02*
X64082619Y-83924285D01*
X63415952Y-82638571D02*
X64082619Y-82638571D01*
X63035000Y-82876666D02*
X63749285Y-83114761D01*
X63749285Y-83114761D02*
X63749285Y-82495714D01*
%TO.C,U1*%
X55257619Y-61751904D02*
X56067142Y-61751904D01*
X56067142Y-61751904D02*
X56162380Y-61704285D01*
X56162380Y-61704285D02*
X56210000Y-61656666D01*
X56210000Y-61656666D02*
X56257619Y-61561428D01*
X56257619Y-61561428D02*
X56257619Y-61370952D01*
X56257619Y-61370952D02*
X56210000Y-61275714D01*
X56210000Y-61275714D02*
X56162380Y-61228095D01*
X56162380Y-61228095D02*
X56067142Y-61180476D01*
X56067142Y-61180476D02*
X55257619Y-61180476D01*
X56257619Y-60180476D02*
X56257619Y-60751904D01*
X56257619Y-60466190D02*
X55257619Y-60466190D01*
X55257619Y-60466190D02*
X55400476Y-60561428D01*
X55400476Y-60561428D02*
X55495714Y-60656666D01*
X55495714Y-60656666D02*
X55543333Y-60751904D01*
%TO.C,J6*%
X62532619Y-83958333D02*
X63246904Y-83958333D01*
X63246904Y-83958333D02*
X63389761Y-84005952D01*
X63389761Y-84005952D02*
X63485000Y-84101190D01*
X63485000Y-84101190D02*
X63532619Y-84244047D01*
X63532619Y-84244047D02*
X63532619Y-84339285D01*
X62532619Y-83053571D02*
X62532619Y-83244047D01*
X62532619Y-83244047D02*
X62580238Y-83339285D01*
X62580238Y-83339285D02*
X62627857Y-83386904D01*
X62627857Y-83386904D02*
X62770714Y-83482142D01*
X62770714Y-83482142D02*
X62961190Y-83529761D01*
X62961190Y-83529761D02*
X63342142Y-83529761D01*
X63342142Y-83529761D02*
X63437380Y-83482142D01*
X63437380Y-83482142D02*
X63485000Y-83434523D01*
X63485000Y-83434523D02*
X63532619Y-83339285D01*
X63532619Y-83339285D02*
X63532619Y-83148809D01*
X63532619Y-83148809D02*
X63485000Y-83053571D01*
X63485000Y-83053571D02*
X63437380Y-83005952D01*
X63437380Y-83005952D02*
X63342142Y-82958333D01*
X63342142Y-82958333D02*
X63104047Y-82958333D01*
X63104047Y-82958333D02*
X63008809Y-83005952D01*
X63008809Y-83005952D02*
X62961190Y-83053571D01*
X62961190Y-83053571D02*
X62913571Y-83148809D01*
X62913571Y-83148809D02*
X62913571Y-83339285D01*
X62913571Y-83339285D02*
X62961190Y-83434523D01*
X62961190Y-83434523D02*
X63008809Y-83482142D01*
X63008809Y-83482142D02*
X63104047Y-83529761D01*
%TO.C,U2*%
X25307619Y-37251904D02*
X26117142Y-37251904D01*
X26117142Y-37251904D02*
X26212380Y-37204285D01*
X26212380Y-37204285D02*
X26260000Y-37156666D01*
X26260000Y-37156666D02*
X26307619Y-37061428D01*
X26307619Y-37061428D02*
X26307619Y-36870952D01*
X26307619Y-36870952D02*
X26260000Y-36775714D01*
X26260000Y-36775714D02*
X26212380Y-36728095D01*
X26212380Y-36728095D02*
X26117142Y-36680476D01*
X26117142Y-36680476D02*
X25307619Y-36680476D01*
X25402857Y-36251904D02*
X25355238Y-36204285D01*
X25355238Y-36204285D02*
X25307619Y-36109047D01*
X25307619Y-36109047D02*
X25307619Y-35870952D01*
X25307619Y-35870952D02*
X25355238Y-35775714D01*
X25355238Y-35775714D02*
X25402857Y-35728095D01*
X25402857Y-35728095D02*
X25498095Y-35680476D01*
X25498095Y-35680476D02*
X25593333Y-35680476D01*
X25593333Y-35680476D02*
X25736190Y-35728095D01*
X25736190Y-35728095D02*
X26307619Y-36299523D01*
X26307619Y-36299523D02*
X26307619Y-35680476D01*
%TO.C,U4*%
X61257619Y-72321904D02*
X62067142Y-72321904D01*
X62067142Y-72321904D02*
X62162380Y-72274285D01*
X62162380Y-72274285D02*
X62210000Y-72226666D01*
X62210000Y-72226666D02*
X62257619Y-72131428D01*
X62257619Y-72131428D02*
X62257619Y-71940952D01*
X62257619Y-71940952D02*
X62210000Y-71845714D01*
X62210000Y-71845714D02*
X62162380Y-71798095D01*
X62162380Y-71798095D02*
X62067142Y-71750476D01*
X62067142Y-71750476D02*
X61257619Y-71750476D01*
X61590952Y-70845714D02*
X62257619Y-70845714D01*
X61210000Y-71083809D02*
X61924285Y-71321904D01*
X61924285Y-71321904D02*
X61924285Y-70702857D01*
%TO.C,U8*%
X63667619Y-51271904D02*
X64477142Y-51271904D01*
X64477142Y-51271904D02*
X64572380Y-51224285D01*
X64572380Y-51224285D02*
X64620000Y-51176666D01*
X64620000Y-51176666D02*
X64667619Y-51081428D01*
X64667619Y-51081428D02*
X64667619Y-50890952D01*
X64667619Y-50890952D02*
X64620000Y-50795714D01*
X64620000Y-50795714D02*
X64572380Y-50748095D01*
X64572380Y-50748095D02*
X64477142Y-50700476D01*
X64477142Y-50700476D02*
X63667619Y-50700476D01*
X64096190Y-50081428D02*
X64048571Y-50176666D01*
X64048571Y-50176666D02*
X64000952Y-50224285D01*
X64000952Y-50224285D02*
X63905714Y-50271904D01*
X63905714Y-50271904D02*
X63858095Y-50271904D01*
X63858095Y-50271904D02*
X63762857Y-50224285D01*
X63762857Y-50224285D02*
X63715238Y-50176666D01*
X63715238Y-50176666D02*
X63667619Y-50081428D01*
X63667619Y-50081428D02*
X63667619Y-49890952D01*
X63667619Y-49890952D02*
X63715238Y-49795714D01*
X63715238Y-49795714D02*
X63762857Y-49748095D01*
X63762857Y-49748095D02*
X63858095Y-49700476D01*
X63858095Y-49700476D02*
X63905714Y-49700476D01*
X63905714Y-49700476D02*
X64000952Y-49748095D01*
X64000952Y-49748095D02*
X64048571Y-49795714D01*
X64048571Y-49795714D02*
X64096190Y-49890952D01*
X64096190Y-49890952D02*
X64096190Y-50081428D01*
X64096190Y-50081428D02*
X64143809Y-50176666D01*
X64143809Y-50176666D02*
X64191428Y-50224285D01*
X64191428Y-50224285D02*
X64286666Y-50271904D01*
X64286666Y-50271904D02*
X64477142Y-50271904D01*
X64477142Y-50271904D02*
X64572380Y-50224285D01*
X64572380Y-50224285D02*
X64620000Y-50176666D01*
X64620000Y-50176666D02*
X64667619Y-50081428D01*
X64667619Y-50081428D02*
X64667619Y-49890952D01*
X64667619Y-49890952D02*
X64620000Y-49795714D01*
X64620000Y-49795714D02*
X64572380Y-49748095D01*
X64572380Y-49748095D02*
X64477142Y-49700476D01*
X64477142Y-49700476D02*
X64286666Y-49700476D01*
X64286666Y-49700476D02*
X64191428Y-49748095D01*
X64191428Y-49748095D02*
X64143809Y-49795714D01*
X64143809Y-49795714D02*
X64096190Y-49890952D01*
D11*
%TO.C,J1*%
X22110000Y-47345000D02*
X22110000Y-62705000D01*
X22110000Y-47345000D02*
X30740000Y-47345000D01*
X22110000Y-47465000D02*
X30740000Y-47465000D01*
X22110000Y-47583095D02*
X30740000Y-47583095D01*
X22110000Y-47701190D02*
X30740000Y-47701190D01*
X22110000Y-47819285D02*
X30740000Y-47819285D01*
X22110000Y-47937380D02*
X30740000Y-47937380D01*
X22110000Y-48055475D02*
X30740000Y-48055475D01*
X22110000Y-48173570D02*
X30740000Y-48173570D01*
X22110000Y-48291665D02*
X30740000Y-48291665D01*
X22110000Y-48409760D02*
X30740000Y-48409760D01*
X22110000Y-48527855D02*
X30740000Y-48527855D01*
X22110000Y-48645950D02*
X30740000Y-48645950D01*
X22110000Y-48764045D02*
X30740000Y-48764045D01*
X22110000Y-48882140D02*
X30740000Y-48882140D01*
X22110000Y-49000235D02*
X30740000Y-49000235D01*
X22110000Y-49118330D02*
X30740000Y-49118330D01*
X22110000Y-49236425D02*
X30740000Y-49236425D01*
X22110000Y-49354520D02*
X30740000Y-49354520D01*
X22110000Y-49472615D02*
X30740000Y-49472615D01*
X22110000Y-49590710D02*
X30740000Y-49590710D01*
X22110000Y-49708805D02*
X30740000Y-49708805D01*
X22110000Y-49826900D02*
X30740000Y-49826900D01*
X22110000Y-49945000D02*
X30740000Y-49945000D01*
X22110000Y-52485000D02*
X30740000Y-52485000D01*
X22110000Y-55025000D02*
X30740000Y-55025000D01*
X22110000Y-57565000D02*
X30740000Y-57565000D01*
X22110000Y-60105000D02*
X30740000Y-60105000D01*
X22110000Y-62705000D02*
X30740000Y-62705000D01*
X30740000Y-47345000D02*
X30740000Y-62705000D01*
X30740000Y-48315000D02*
X31090000Y-48315000D01*
X30740000Y-49035000D02*
X31090000Y-49035000D01*
X30740000Y-50855000D02*
X31150000Y-50855000D01*
X30740000Y-51575000D02*
X31150000Y-51575000D01*
X30740000Y-53395000D02*
X31150000Y-53395000D01*
X30740000Y-54115000D02*
X31150000Y-54115000D01*
X30740000Y-55935000D02*
X31150000Y-55935000D01*
X30740000Y-56655000D02*
X31150000Y-56655000D01*
X30740000Y-58475000D02*
X31150000Y-58475000D01*
X30740000Y-59195000D02*
X31150000Y-59195000D01*
X30740000Y-61015000D02*
X31150000Y-61015000D01*
X30740000Y-61735000D02*
X31150000Y-61735000D01*
X32200000Y-47345000D02*
X33310000Y-47345000D01*
X33310000Y-47345000D02*
X33310000Y-48675000D01*
%TO.C,U9*%
X34795000Y-63640000D02*
X55235000Y-63640000D01*
X55235000Y-63640000D02*
X55235000Y-58340000D01*
X34795000Y-61990000D02*
X34795000Y-63640000D01*
X34795000Y-58340000D02*
X34795000Y-59990000D01*
X55235000Y-58340000D02*
X34795000Y-58340000D01*
X34795000Y-61990000D02*
G75*
G03*
X34795000Y-59990000I0J1000000D01*
G01*
%TO.C,J2*%
X62655000Y-23110000D02*
X47295000Y-23110000D01*
X62655000Y-23110000D02*
X62655000Y-31740000D01*
X62535000Y-23110000D02*
X62535000Y-31740000D01*
X62416905Y-23110000D02*
X62416905Y-31740000D01*
X62298810Y-23110000D02*
X62298810Y-31740000D01*
X62180715Y-23110000D02*
X62180715Y-31740000D01*
X62062620Y-23110000D02*
X62062620Y-31740000D01*
X61944525Y-23110000D02*
X61944525Y-31740000D01*
X61826430Y-23110000D02*
X61826430Y-31740000D01*
X61708335Y-23110000D02*
X61708335Y-31740000D01*
X61590240Y-23110000D02*
X61590240Y-31740000D01*
X61472145Y-23110000D02*
X61472145Y-31740000D01*
X61354050Y-23110000D02*
X61354050Y-31740000D01*
X61235955Y-23110000D02*
X61235955Y-31740000D01*
X61117860Y-23110000D02*
X61117860Y-31740000D01*
X60999765Y-23110000D02*
X60999765Y-31740000D01*
X60881670Y-23110000D02*
X60881670Y-31740000D01*
X60763575Y-23110000D02*
X60763575Y-31740000D01*
X60645480Y-23110000D02*
X60645480Y-31740000D01*
X60527385Y-23110000D02*
X60527385Y-31740000D01*
X60409290Y-23110000D02*
X60409290Y-31740000D01*
X60291195Y-23110000D02*
X60291195Y-31740000D01*
X60173100Y-23110000D02*
X60173100Y-31740000D01*
X60055000Y-23110000D02*
X60055000Y-31740000D01*
X57515000Y-23110000D02*
X57515000Y-31740000D01*
X54975000Y-23110000D02*
X54975000Y-31740000D01*
X52435000Y-23110000D02*
X52435000Y-31740000D01*
X49895000Y-23110000D02*
X49895000Y-31740000D01*
X47295000Y-23110000D02*
X47295000Y-31740000D01*
X62655000Y-31740000D02*
X47295000Y-31740000D01*
X61685000Y-31740000D02*
X61685000Y-32090000D01*
X60965000Y-31740000D02*
X60965000Y-32090000D01*
X59145000Y-31740000D02*
X59145000Y-32150000D01*
X58425000Y-31740000D02*
X58425000Y-32150000D01*
X56605000Y-31740000D02*
X56605000Y-32150000D01*
X55885000Y-31740000D02*
X55885000Y-32150000D01*
X54065000Y-31740000D02*
X54065000Y-32150000D01*
X53345000Y-31740000D02*
X53345000Y-32150000D01*
X51525000Y-31740000D02*
X51525000Y-32150000D01*
X50805000Y-31740000D02*
X50805000Y-32150000D01*
X48985000Y-31740000D02*
X48985000Y-32150000D01*
X48265000Y-31740000D02*
X48265000Y-32150000D01*
X62655000Y-33200000D02*
X62655000Y-34310000D01*
X62655000Y-34310000D02*
X61325000Y-34310000D01*
%TO.C,U3*%
X26795000Y-74240000D02*
X47235000Y-74240000D01*
X47235000Y-74240000D02*
X47235000Y-68940000D01*
X26795000Y-72590000D02*
X26795000Y-74240000D01*
X26795000Y-68940000D02*
X26795000Y-70590000D01*
X47235000Y-68940000D02*
X26795000Y-68940000D01*
X26795000Y-72590000D02*
G75*
G03*
X26795000Y-70590000I0J1000000D01*
G01*
%TO.C,J3*%
X76555000Y-47380000D02*
X77825000Y-47380000D01*
X76555000Y-48650000D02*
X76555000Y-47380000D01*
X78867929Y-50810000D02*
X79265000Y-50810000D01*
X78867929Y-51570000D02*
X79265000Y-51570000D01*
X78867929Y-53350000D02*
X79265000Y-53350000D01*
X78867929Y-54110000D02*
X79265000Y-54110000D01*
X78867929Y-55890000D02*
X79265000Y-55890000D01*
X78867929Y-56650000D02*
X79265000Y-56650000D01*
X78867929Y-58430000D02*
X79265000Y-58430000D01*
X78867929Y-59190000D02*
X79265000Y-59190000D01*
X78867929Y-60970000D02*
X79265000Y-60970000D01*
X78867929Y-61730000D02*
X79265000Y-61730000D01*
X78935000Y-48270000D02*
X79265000Y-48270000D01*
X78935000Y-49030000D02*
X79265000Y-49030000D01*
X79265000Y-47320000D02*
X79265000Y-62680000D01*
X79265000Y-49920000D02*
X81925000Y-49920000D01*
X79265000Y-52460000D02*
X81925000Y-52460000D01*
X79265000Y-55000000D02*
X81925000Y-55000000D01*
X79265000Y-57540000D02*
X81925000Y-57540000D01*
X79265000Y-60080000D02*
X81925000Y-60080000D01*
X79265000Y-62680000D02*
X81925000Y-62680000D01*
X81925000Y-47320000D02*
X79265000Y-47320000D01*
X81925000Y-48270000D02*
X87925000Y-48270000D01*
X81925000Y-48330000D02*
X87925000Y-48330000D01*
X81925000Y-48450000D02*
X87925000Y-48450000D01*
X81925000Y-48570000D02*
X87925000Y-48570000D01*
X81925000Y-48690000D02*
X87925000Y-48690000D01*
X81925000Y-48810000D02*
X87925000Y-48810000D01*
X81925000Y-48930000D02*
X87925000Y-48930000D01*
X81925000Y-50810000D02*
X87925000Y-50810000D01*
X81925000Y-53350000D02*
X87925000Y-53350000D01*
X81925000Y-55890000D02*
X87925000Y-55890000D01*
X81925000Y-58430000D02*
X87925000Y-58430000D01*
X81925000Y-60970000D02*
X87925000Y-60970000D01*
X81925000Y-62680000D02*
X81925000Y-47320000D01*
X87925000Y-48270000D02*
X87925000Y-49030000D01*
X87925000Y-49030000D02*
X81925000Y-49030000D01*
X87925000Y-50810000D02*
X87925000Y-51570000D01*
X87925000Y-51570000D02*
X81925000Y-51570000D01*
X87925000Y-53350000D02*
X87925000Y-54110000D01*
X87925000Y-54110000D02*
X81925000Y-54110000D01*
X87925000Y-55890000D02*
X87925000Y-56650000D01*
X87925000Y-56650000D02*
X81925000Y-56650000D01*
X87925000Y-58430000D02*
X87925000Y-59190000D01*
X87925000Y-59190000D02*
X81925000Y-59190000D01*
X87925000Y-60970000D02*
X87925000Y-61730000D01*
X87925000Y-61730000D02*
X81925000Y-61730000D01*
%TO.C,J7*%
X36270000Y-27705000D02*
X38870000Y-27705000D01*
X36270000Y-27705000D02*
X36270000Y-25045000D01*
X38870000Y-27705000D02*
X38870000Y-25045000D01*
X33670000Y-26375000D02*
X33670000Y-25045000D01*
X33670000Y-25045000D02*
X35000000Y-25045000D01*
X36270000Y-25045000D02*
X38870000Y-25045000D01*
%TO.C,U7*%
X76800000Y-28530000D02*
X76800000Y-46430000D01*
X76800000Y-46430000D02*
X82100000Y-46430000D01*
X78450000Y-28530000D02*
X76800000Y-28530000D01*
X82100000Y-28530000D02*
X80450000Y-28530000D01*
X82100000Y-46430000D02*
X82100000Y-28530000D01*
X78450000Y-28530000D02*
G75*
G03*
X80450000Y-28530000I1000000J0D01*
G01*
%TO.C,U5*%
X46045000Y-42890000D02*
X63945000Y-42890000D01*
X63945000Y-42890000D02*
X63945000Y-37590000D01*
X46045000Y-41240000D02*
X46045000Y-42890000D01*
X46045000Y-37590000D02*
X46045000Y-39240000D01*
X63945000Y-37590000D02*
X46045000Y-37590000D01*
X46045000Y-41240000D02*
G75*
G03*
X46045000Y-39240000I0J1000000D01*
G01*
%TO.C,J5*%
X35270000Y-84955000D02*
X42950000Y-84955000D01*
X35270000Y-84955000D02*
X35270000Y-82295000D01*
X42950000Y-84955000D02*
X42950000Y-82295000D01*
X32670000Y-83625000D02*
X32670000Y-82295000D01*
X32670000Y-82295000D02*
X34000000Y-82295000D01*
X35270000Y-82295000D02*
X42950000Y-82295000D01*
%TO.C,U6*%
X66610000Y-28545000D02*
X66610000Y-46445000D01*
X66610000Y-46445000D02*
X71910000Y-46445000D01*
X68260000Y-28545000D02*
X66610000Y-28545000D01*
X71910000Y-28545000D02*
X70260000Y-28545000D01*
X71910000Y-46445000D02*
X71910000Y-28545000D01*
X68260000Y-28545000D02*
G75*
G03*
X70260000Y-28545000I1000000J0D01*
G01*
%TO.C,J8*%
X73730000Y-27705000D02*
X76330000Y-27705000D01*
X73730000Y-27705000D02*
X73730000Y-25045000D01*
X76330000Y-27705000D02*
X76330000Y-25045000D01*
X71130000Y-26375000D02*
X71130000Y-25045000D01*
X71130000Y-25045000D02*
X72460000Y-25045000D01*
X73730000Y-25045000D02*
X76330000Y-25045000D01*
%TO.C,J4*%
X62620000Y-77555000D02*
X62620000Y-78825000D01*
X61350000Y-77555000D02*
X62620000Y-77555000D01*
X59190000Y-79867929D02*
X59190000Y-80265000D01*
X58430000Y-79867929D02*
X58430000Y-80265000D01*
X56650000Y-79867929D02*
X56650000Y-80265000D01*
X55890000Y-79867929D02*
X55890000Y-80265000D01*
X54110000Y-79867929D02*
X54110000Y-80265000D01*
X53350000Y-79867929D02*
X53350000Y-80265000D01*
X51570000Y-79867929D02*
X51570000Y-80265000D01*
X50810000Y-79867929D02*
X50810000Y-80265000D01*
X49030000Y-79867929D02*
X49030000Y-80265000D01*
X48270000Y-79867929D02*
X48270000Y-80265000D01*
X61730000Y-79935000D02*
X61730000Y-80265000D01*
X60970000Y-79935000D02*
X60970000Y-80265000D01*
X62680000Y-80265000D02*
X47320000Y-80265000D01*
X60080000Y-80265000D02*
X60080000Y-82925000D01*
X57540000Y-80265000D02*
X57540000Y-82925000D01*
X55000000Y-80265000D02*
X55000000Y-82925000D01*
X52460000Y-80265000D02*
X52460000Y-82925000D01*
X49920000Y-80265000D02*
X49920000Y-82925000D01*
X47320000Y-80265000D02*
X47320000Y-82925000D01*
X62680000Y-82925000D02*
X62680000Y-80265000D01*
X61730000Y-82925000D02*
X61730000Y-88925000D01*
X61670000Y-82925000D02*
X61670000Y-88925000D01*
X61550000Y-82925000D02*
X61550000Y-88925000D01*
X61430000Y-82925000D02*
X61430000Y-88925000D01*
X61310000Y-82925000D02*
X61310000Y-88925000D01*
X61190000Y-82925000D02*
X61190000Y-88925000D01*
X61070000Y-82925000D02*
X61070000Y-88925000D01*
X59190000Y-82925000D02*
X59190000Y-88925000D01*
X56650000Y-82925000D02*
X56650000Y-88925000D01*
X54110000Y-82925000D02*
X54110000Y-88925000D01*
X51570000Y-82925000D02*
X51570000Y-88925000D01*
X49030000Y-82925000D02*
X49030000Y-88925000D01*
X47320000Y-82925000D02*
X62680000Y-82925000D01*
X61730000Y-88925000D02*
X60970000Y-88925000D01*
X60970000Y-88925000D02*
X60970000Y-82925000D01*
X59190000Y-88925000D02*
X58430000Y-88925000D01*
X58430000Y-88925000D02*
X58430000Y-82925000D01*
X56650000Y-88925000D02*
X55890000Y-88925000D01*
X55890000Y-88925000D02*
X55890000Y-82925000D01*
X54110000Y-88925000D02*
X53350000Y-88925000D01*
X53350000Y-88925000D02*
X53350000Y-82925000D01*
X51570000Y-88925000D02*
X50810000Y-88925000D01*
X50810000Y-88925000D02*
X50810000Y-82925000D01*
X49030000Y-88925000D02*
X48270000Y-88925000D01*
X48270000Y-88925000D02*
X48270000Y-82925000D01*
%TO.C,U1*%
X56795000Y-63640000D02*
X74695000Y-63640000D01*
X74695000Y-63640000D02*
X74695000Y-58340000D01*
X56795000Y-61990000D02*
X56795000Y-63640000D01*
X56795000Y-58340000D02*
X56795000Y-59990000D01*
X74695000Y-58340000D02*
X56795000Y-58340000D01*
X56795000Y-61990000D02*
G75*
G03*
X56795000Y-59990000I0J1000000D01*
G01*
%TO.C,J6*%
X67110000Y-84955000D02*
X77330000Y-84955000D01*
X67110000Y-84955000D02*
X67110000Y-82295000D01*
X77330000Y-84955000D02*
X77330000Y-82295000D01*
X64510000Y-83625000D02*
X64510000Y-82295000D01*
X64510000Y-82295000D02*
X65840000Y-82295000D01*
X67110000Y-82295000D02*
X77330000Y-82295000D01*
%TO.C,U2*%
X26845000Y-39140000D02*
X44745000Y-39140000D01*
X44745000Y-39140000D02*
X44745000Y-33840000D01*
X26845000Y-37490000D02*
X26845000Y-39140000D01*
X26845000Y-33840000D02*
X26845000Y-35490000D01*
X44745000Y-33840000D02*
X26845000Y-33840000D01*
X26845000Y-37490000D02*
G75*
G03*
X26845000Y-35490000I0J1000000D01*
G01*
%TO.C,U4*%
X62795000Y-74210000D02*
X83235000Y-74210000D01*
X83235000Y-74210000D02*
X83235000Y-68910000D01*
X62795000Y-72560000D02*
X62795000Y-74210000D01*
X62795000Y-68910000D02*
X62795000Y-70560000D01*
X83235000Y-68910000D02*
X62795000Y-68910000D01*
X62795000Y-72560000D02*
G75*
G03*
X62795000Y-70560000I0J1000000D01*
G01*
%TO.C,U8*%
X63205000Y-47860000D02*
X42765000Y-47860000D01*
X42765000Y-47860000D02*
X42765000Y-53160000D01*
X63205000Y-49510000D02*
X63205000Y-47860000D01*
X63205000Y-53160000D02*
X63205000Y-51510000D01*
X42765000Y-53160000D02*
X63205000Y-53160000D01*
X63205000Y-49510000D02*
G75*
G03*
X63205000Y-51510000I0J-1000000D01*
G01*
%TD*%
M02*
