%TF.GenerationSoftware,KiCad,Pcbnew,7.0.1*%
%TF.CreationDate,2023-08-30T09:27:46-04:00*%
%TF.ProjectId,TacTile-D,54616354-696c-4652-9d44-2e6b69636164,rev?*%
%TF.SameCoordinates,Original*%
%TF.FileFunction,Soldermask,Bot*%
%TF.FilePolarity,Negative*%
%FSLAX46Y46*%
G04 Gerber Fmt 4.6, Leading zero omitted, Abs format (unit mm)*
G04 Created by KiCad (PCBNEW 7.0.1) date 2023-08-30 09:27:46*
%MOMM*%
%LPD*%
G01*
G04 APERTURE LIST*
%ADD10R,1.700000X1.700000*%
%ADD11O,1.700000X1.700000*%
%ADD12R,1.600000X1.600000*%
%ADD13O,1.600000X1.600000*%
G04 APERTURE END LIST*
D10*
%TO.C,J1*%
X32200000Y-48675000D03*
D11*
X32200000Y-51215000D03*
X32200000Y-53755000D03*
X32200000Y-56295000D03*
X32200000Y-58835000D03*
X32200000Y-61375000D03*
%TD*%
D12*
%TO.C,U7*%
X35450000Y-51250000D03*
D13*
X35450000Y-53790000D03*
X35450000Y-56330000D03*
X35450000Y-58870000D03*
X43070000Y-58870000D03*
X43070000Y-56330000D03*
X43070000Y-53790000D03*
X43070000Y-51250000D03*
%TD*%
D10*
%TO.C,J2*%
X61325000Y-33200000D03*
D11*
X58785000Y-33200000D03*
X56245000Y-33200000D03*
X53705000Y-33200000D03*
X51165000Y-33200000D03*
X48625000Y-33200000D03*
%TD*%
D12*
%TO.C,U3*%
X28650000Y-75350000D03*
D13*
X31190000Y-75350000D03*
X33730000Y-75350000D03*
X36270000Y-75350000D03*
X38810000Y-75350000D03*
X41350000Y-75350000D03*
X43890000Y-75350000D03*
X46430000Y-75350000D03*
X46430000Y-67730000D03*
X43890000Y-67730000D03*
X41350000Y-67730000D03*
X38810000Y-67730000D03*
X36270000Y-67730000D03*
X33730000Y-67730000D03*
X31190000Y-67730000D03*
X28650000Y-67730000D03*
%TD*%
D10*
%TO.C,J3*%
X77825000Y-48650000D03*
D11*
X77825000Y-51190000D03*
X77825000Y-53730000D03*
X77825000Y-56270000D03*
X77825000Y-58810000D03*
X77825000Y-61350000D03*
%TD*%
D10*
%TO.C,J7*%
X35000000Y-26375000D03*
D11*
X37540000Y-26375000D03*
%TD*%
D12*
%TO.C,U1*%
X66950000Y-51200000D03*
D13*
X66950000Y-53740000D03*
X66950000Y-56280000D03*
X66950000Y-58820000D03*
X74570000Y-58820000D03*
X74570000Y-56280000D03*
X74570000Y-53740000D03*
X74570000Y-51200000D03*
%TD*%
D12*
%TO.C,U6*%
X44175000Y-35300000D03*
D13*
X41635000Y-35300000D03*
X39095000Y-35300000D03*
X36555000Y-35300000D03*
X34015000Y-35300000D03*
X31475000Y-35300000D03*
X28935000Y-35300000D03*
X28935000Y-42920000D03*
X31475000Y-42920000D03*
X34015000Y-42920000D03*
X36555000Y-42920000D03*
X39095000Y-42920000D03*
X41635000Y-42920000D03*
X44175000Y-42920000D03*
%TD*%
D10*
%TO.C,J5*%
X34000000Y-83625000D03*
D11*
X36540000Y-83625000D03*
X39080000Y-83625000D03*
X41620000Y-83625000D03*
%TD*%
D10*
%TO.C,J8*%
X72460000Y-26375000D03*
D11*
X75000000Y-26375000D03*
%TD*%
D12*
%TO.C,U8*%
X49000000Y-37750000D03*
D13*
X49000000Y-40290000D03*
X49000000Y-42830000D03*
X56620000Y-42830000D03*
X56620000Y-40290000D03*
X56620000Y-37750000D03*
%TD*%
D12*
%TO.C,U5*%
X46000000Y-51250000D03*
D13*
X46000000Y-53790000D03*
X46000000Y-56330000D03*
X46000000Y-58870000D03*
X53620000Y-58870000D03*
X53620000Y-56330000D03*
X53620000Y-53790000D03*
X53620000Y-51250000D03*
%TD*%
D10*
%TO.C,J4*%
X61350000Y-78825000D03*
D11*
X58810000Y-78825000D03*
X56270000Y-78825000D03*
X53730000Y-78825000D03*
X51190000Y-78825000D03*
X48650000Y-78825000D03*
%TD*%
D12*
%TO.C,U2*%
X51250000Y-67750000D03*
D13*
X51250000Y-70290000D03*
X51250000Y-72830000D03*
X51250000Y-75370000D03*
X58870000Y-75370000D03*
X58870000Y-72830000D03*
X58870000Y-70290000D03*
X58870000Y-67750000D03*
%TD*%
D10*
%TO.C,J6*%
X65840000Y-83625000D03*
D11*
X68380000Y-83625000D03*
X70920000Y-83625000D03*
X73460000Y-83625000D03*
X76000000Y-83625000D03*
%TD*%
D12*
%TO.C,U10*%
X73750000Y-37750000D03*
D13*
X73750000Y-40290000D03*
X73750000Y-42830000D03*
X81370000Y-42830000D03*
X81370000Y-40290000D03*
X81370000Y-37750000D03*
%TD*%
D12*
%TO.C,U4*%
X63650000Y-75350000D03*
D13*
X66190000Y-75350000D03*
X68730000Y-75350000D03*
X71270000Y-75350000D03*
X73810000Y-75350000D03*
X76350000Y-75350000D03*
X78890000Y-75350000D03*
X81430000Y-75350000D03*
X81430000Y-67730000D03*
X78890000Y-67730000D03*
X76350000Y-67730000D03*
X73810000Y-67730000D03*
X71270000Y-67730000D03*
X68730000Y-67730000D03*
X66190000Y-67730000D03*
X63650000Y-67730000D03*
%TD*%
D12*
%TO.C,U9*%
X61500000Y-37750000D03*
D13*
X61500000Y-40290000D03*
X61500000Y-42830000D03*
X69120000Y-42830000D03*
X69120000Y-40290000D03*
X69120000Y-37750000D03*
%TD*%
D12*
%TO.C,U11*%
X56450000Y-51250000D03*
D13*
X56450000Y-53790000D03*
X56450000Y-56330000D03*
X56450000Y-58870000D03*
X64070000Y-58870000D03*
X64070000Y-56330000D03*
X64070000Y-53790000D03*
X64070000Y-51250000D03*
%TD*%
M02*
