M48
; DRILL file {KiCad 7.0.1} date Wed Aug 30 09:27:48 2023
; FORMAT={-:-/ absolute / inch / decimal}
; #@! TF.CreationDate,2023-08-30T09:27:48-04:00
; #@! TF.GenerationSoftware,Kicad,Pcbnew,7.0.1
; #@! TF.FileFunction,Plated,1,2,PTH
FMAT,2
INCH
; #@! TA.AperFunction,Plated,PTH,ViaDrill
T1C0.0157
; #@! TA.AperFunction,Plated,PTH,ComponentDrill
T2C0.0315
; #@! TA.AperFunction,Plated,PTH,ComponentDrill
T3C0.0394
%
G90
G05
T1
X1.5079Y-1.7638
X1.5866Y-1.7539
X1.6161Y-1.9605
X1.7569Y-2.1673
X1.8425Y-2.1673
X1.9705Y-1.871
X2.0394Y-2.128
X2.0492Y-1.7539
X2.0694Y-2.2751
X2.1268Y-1.5866
X2.1268Y-2.3937
X2.1838Y-1.811
X2.187Y-2.3937
X2.3543Y-2.7185
X2.4763Y-1.6849
X2.5492Y-1.8425
X2.561Y-1.937
X2.688Y-2.1335
X2.748Y-2.5709
X2.9547Y-1.7835
X2.9941Y-1.813
T2
X1.128Y-2.6665
X1.128Y-2.9665
X1.1392Y-1.3898
X1.1392Y-1.6898
X1.228Y-2.6665
X1.228Y-2.9665
X1.2392Y-1.3898
X1.2392Y-1.6898
X1.328Y-2.6665
X1.328Y-2.9665
X1.3392Y-1.3898
X1.3392Y-1.6898
X1.3957Y-2.0177
X1.3957Y-2.1177
X1.3957Y-2.2177
X1.3957Y-2.3177
X1.428Y-2.6665
X1.428Y-2.9665
X1.4392Y-1.3898
X1.4392Y-1.6898
X1.528Y-2.6665
X1.528Y-2.9665
X1.5392Y-1.3898
X1.5392Y-1.6898
X1.628Y-2.6665
X1.628Y-2.9665
X1.6392Y-1.3898
X1.6392Y-1.6898
X1.6957Y-2.0177
X1.6957Y-2.1177
X1.6957Y-2.2177
X1.6957Y-2.3177
X1.728Y-2.6665
X1.728Y-2.9665
X1.7392Y-1.3898
X1.7392Y-1.6898
X1.811Y-2.0177
X1.811Y-2.1177
X1.811Y-2.2177
X1.811Y-2.3177
X1.828Y-2.6665
X1.828Y-2.9665
X1.9291Y-1.4862
X1.9291Y-1.5862
X1.9291Y-1.6862
X2.0177Y-2.6673
X2.0177Y-2.7673
X2.0177Y-2.8673
X2.0177Y-2.9673
X2.111Y-2.0177
X2.111Y-2.1177
X2.111Y-2.2177
X2.111Y-2.3177
X2.2224Y-2.0177
X2.2224Y-2.1177
X2.2224Y-2.2177
X2.2224Y-2.3177
X2.2291Y-1.4862
X2.2291Y-1.5862
X2.2291Y-1.6862
X2.3177Y-2.6673
X2.3177Y-2.7673
X2.3177Y-2.8673
X2.3177Y-2.9673
X2.4213Y-1.4862
X2.4213Y-1.5862
X2.4213Y-1.6862
X2.5059Y-2.6665
X2.5059Y-2.9665
X2.5224Y-2.0177
X2.5224Y-2.1177
X2.5224Y-2.2177
X2.5224Y-2.3177
X2.6059Y-2.6665
X2.6059Y-2.9665
X2.6358Y-2.0157
X2.6358Y-2.1157
X2.6358Y-2.2157
X2.6358Y-2.3157
X2.7059Y-2.6665
X2.7059Y-2.9665
X2.7213Y-1.4862
X2.7213Y-1.5862
X2.7213Y-1.6862
X2.8059Y-2.6665
X2.8059Y-2.9665
X2.9035Y-1.4862
X2.9035Y-1.5862
X2.9035Y-1.6862
X2.9059Y-2.6665
X2.9059Y-2.9665
X2.9358Y-2.0157
X2.9358Y-2.1157
X2.9358Y-2.2157
X2.9358Y-2.3157
X3.0059Y-2.6665
X3.0059Y-2.9665
X3.1059Y-2.6665
X3.1059Y-2.9665
X3.2035Y-1.4862
X3.2035Y-1.5862
X3.2035Y-1.6862
X3.2059Y-2.6665
X3.2059Y-2.9665
T3
X1.2677Y-1.9163
X1.2677Y-2.0163
X1.2677Y-2.1163
X1.2677Y-2.2163
X1.2677Y-2.3163
X1.2677Y-2.4163
X1.3386Y-3.2923
X1.378Y-1.0384
X1.4386Y-3.2923
X1.478Y-1.0384
X1.5386Y-3.2923
X1.6386Y-3.2923
X1.9144Y-1.3071
X1.9154Y-3.1033
X2.0144Y-1.3071
X2.0154Y-3.1033
X2.1144Y-1.3071
X2.1154Y-3.1033
X2.2144Y-1.3071
X2.2154Y-3.1033
X2.3144Y-1.3071
X2.3154Y-3.1033
X2.4144Y-1.3071
X2.4154Y-3.1033
X2.5921Y-3.2923
X2.6921Y-3.2923
X2.7921Y-3.2923
X2.8528Y-1.0384
X2.8921Y-3.2923
X2.9528Y-1.0384
X2.9921Y-3.2923
X3.064Y-1.9154
X3.064Y-2.0154
X3.064Y-2.1154
X3.064Y-2.2154
X3.064Y-2.3154
X3.064Y-2.4154
T0
M30
