%TF.GenerationSoftware,KiCad,Pcbnew,7.0.1*%
%TF.CreationDate,2023-09-19T08:24:03-04:00*%
%TF.ProjectId,TacTile-D,54616354-696c-4652-9d44-2e6b69636164,rev?*%
%TF.SameCoordinates,Original*%
%TF.FileFunction,Copper,L1,Top*%
%TF.FilePolarity,Positive*%
%FSLAX46Y46*%
G04 Gerber Fmt 4.6, Leading zero omitted, Abs format (unit mm)*
G04 Created by KiCad (PCBNEW 7.0.1) date 2023-09-19 08:24:03*
%MOMM*%
%LPD*%
G01*
G04 APERTURE LIST*
%TA.AperFunction,ComponentPad*%
%ADD10R,1.700000X1.700000*%
%TD*%
%TA.AperFunction,ComponentPad*%
%ADD11O,1.700000X1.700000*%
%TD*%
%TA.AperFunction,ComponentPad*%
%ADD12R,1.600000X1.600000*%
%TD*%
%TA.AperFunction,ComponentPad*%
%ADD13O,1.600000X1.600000*%
%TD*%
%TA.AperFunction,ViaPad*%
%ADD14C,0.800000*%
%TD*%
%TA.AperFunction,Conductor*%
%ADD15C,0.250000*%
%TD*%
%TA.AperFunction,Conductor*%
%ADD16C,2.000000*%
%TD*%
G04 APERTURE END LIST*
D10*
%TO.P,J1,1,Pin_1*%
%TO.N,GND*%
X32200000Y-48675000D03*
D11*
%TO.P,J1,2,Pin_2*%
%TO.N,VCC*%
X32200000Y-51215000D03*
%TO.P,J1,3,Pin_3*%
%TO.N,VIN*%
X32200000Y-53755000D03*
%TO.P,J1,4,Pin_4*%
%TO.N,SS*%
X32200000Y-56295000D03*
%TO.P,J1,5,Pin_5*%
%TO.N,MOSI*%
X32200000Y-58835000D03*
%TO.P,J1,6,Pin_6*%
%TO.N,CLK*%
X32200000Y-61375000D03*
%TD*%
D12*
%TO.P,U9,1,A4*%
%TO.N,unconnected-(U9-A4-Pad1)*%
X36125000Y-64800000D03*
D13*
%TO.P,U9,2,A6*%
%TO.N,unconnected-(U9-A6-Pad2)*%
X38665000Y-64800000D03*
%TO.P,U9,3,A*%
%TO.N,Net-(U9-A)*%
X41205000Y-64800000D03*
%TO.P,U9,4,A7*%
%TO.N,unconnected-(U9-A7-Pad4)*%
X43745000Y-64800000D03*
%TO.P,U9,5,A5*%
%TO.N,unconnected-(U9-A5-Pad5)*%
X46285000Y-64800000D03*
%TO.P,U9,6,~{E}*%
%TO.N,GND*%
X48825000Y-64800000D03*
%TO.P,U9,7,VEE*%
X51365000Y-64800000D03*
%TO.P,U9,8,GND*%
X53905000Y-64800000D03*
%TO.P,U9,9,S2*%
X53905000Y-57180000D03*
%TO.P,U9,10,S1*%
X51365000Y-57180000D03*
%TO.P,U9,11,S0*%
%TO.N,Net-(U7A-Q)*%
X48825000Y-57180000D03*
%TO.P,U9,12,A3*%
%TO.N,unconnected-(U9-A3-Pad12)*%
X46285000Y-57180000D03*
%TO.P,U9,13,A0*%
%TO.N,MISO0*%
X43745000Y-57180000D03*
%TO.P,U9,14,A1*%
%TO.N,MISO1*%
X41205000Y-57180000D03*
%TO.P,U9,15,A2*%
%TO.N,unconnected-(U9-A2-Pad15)*%
X38665000Y-57180000D03*
%TO.P,U9,16,VCC*%
%TO.N,VCC*%
X36125000Y-57180000D03*
%TD*%
D10*
%TO.P,J2,1,Pin_1*%
%TO.N,GND*%
X61325000Y-33200000D03*
D11*
%TO.P,J2,2,Pin_2*%
%TO.N,VCC*%
X58785000Y-33200000D03*
%TO.P,J2,3,Pin_3*%
%TO.N,VIN*%
X56245000Y-33200000D03*
%TO.P,J2,4,Pin_4*%
%TO.N,SS*%
X53705000Y-33200000D03*
%TO.P,J2,5,Pin_5*%
%TO.N,MOSI*%
X51165000Y-33200000D03*
%TO.P,J2,6,Pin_6*%
%TO.N,CLK*%
X48625000Y-33200000D03*
%TD*%
D12*
%TO.P,U3,1,QB*%
%TO.N,LS1*%
X28125000Y-75400000D03*
D13*
%TO.P,U3,2,QC*%
%TO.N,LS2*%
X30665000Y-75400000D03*
%TO.P,U3,3,QD*%
%TO.N,Net-(U3-QD)*%
X33205000Y-75400000D03*
%TO.P,U3,4,QE*%
%TO.N,unconnected-(U3-QE-Pad4)*%
X35745000Y-75400000D03*
%TO.P,U3,5,QF*%
%TO.N,unconnected-(U3-QF-Pad5)*%
X38285000Y-75400000D03*
%TO.P,U3,6,QG*%
%TO.N,unconnected-(U3-QG-Pad6)*%
X40825000Y-75400000D03*
%TO.P,U3,7,QH*%
%TO.N,unconnected-(U3-QH-Pad7)*%
X43365000Y-75400000D03*
%TO.P,U3,8,GND*%
%TO.N,GND*%
X45905000Y-75400000D03*
%TO.P,U3,9,QH'*%
%TO.N,unconnected-(U3-QH'-Pad9)*%
X45905000Y-67780000D03*
%TO.P,U3,10,~{SRCLR}*%
%TO.N,SEN*%
X43365000Y-67780000D03*
%TO.P,U3,11,SRCLK*%
%TO.N,CLK*%
X40825000Y-67780000D03*
%TO.P,U3,12,RCLK*%
%TO.N,Net-(U3-RCLK)*%
X38285000Y-67780000D03*
%TO.P,U3,13,~{OE}*%
%TO.N,Net-(U3-~{OE})*%
X35745000Y-67780000D03*
%TO.P,U3,14,SER*%
%TO.N,MOSI*%
X33205000Y-67780000D03*
%TO.P,U3,15,QA*%
%TO.N,LS0*%
X30665000Y-67780000D03*
%TO.P,U3,16,VCC*%
%TO.N,VCC*%
X28125000Y-67780000D03*
%TD*%
D10*
%TO.P,J3,1,Pin_1*%
%TO.N,GND*%
X77825000Y-48650000D03*
D11*
%TO.P,J3,2,Pin_2*%
%TO.N,VCC*%
X77825000Y-51190000D03*
%TO.P,J3,3,Pin_3*%
%TO.N,VIN*%
X77825000Y-53730000D03*
%TO.P,J3,4,Pin_4*%
%TO.N,SS*%
X77825000Y-56270000D03*
%TO.P,J3,5,Pin_5*%
%TO.N,MISO0*%
X77825000Y-58810000D03*
%TO.P,J3,6,Pin_6*%
%TO.N,CLK*%
X77825000Y-61350000D03*
%TD*%
D10*
%TO.P,J7,1,Pin_1*%
%TO.N,VIN*%
X35000000Y-26375000D03*
D11*
%TO.P,J7,2,Pin_2*%
%TO.N,GND*%
X37540000Y-26375000D03*
%TD*%
D12*
%TO.P,U7,1,~{R}*%
%TO.N,VCC*%
X75640000Y-29860000D03*
D13*
%TO.P,U7,2,D*%
%TO.N,SS*%
X75640000Y-32400000D03*
%TO.P,U7,3,C*%
%TO.N,Net-(U7A-C)*%
X75640000Y-34940000D03*
%TO.P,U7,4,~{S}*%
%TO.N,VCC*%
X75640000Y-37480000D03*
%TO.P,U7,5,Q*%
%TO.N,Net-(U7A-Q)*%
X75640000Y-40020000D03*
%TO.P,U7,6,~{Q}*%
%TO.N,unconnected-(U7A-~{Q}-Pad6)*%
X75640000Y-42560000D03*
%TO.P,U7,7,GND*%
%TO.N,GND*%
X75640000Y-45100000D03*
%TO.P,U7,8*%
%TO.N,N/C*%
X83260000Y-45100000D03*
%TO.P,U7,9*%
X83260000Y-42560000D03*
%TO.P,U7,10*%
X83260000Y-40020000D03*
%TO.P,U7,11*%
X83260000Y-37480000D03*
%TO.P,U7,12*%
X83260000Y-34940000D03*
%TO.P,U7,13*%
X83260000Y-32400000D03*
%TO.P,U7,14,VCC*%
%TO.N,VCC*%
X83260000Y-29860000D03*
%TD*%
D12*
%TO.P,U5,1,~{R}*%
%TO.N,Net-(U5A-~{R})*%
X47375000Y-44050000D03*
D13*
%TO.P,U5,2,D*%
%TO.N,Net-(U5A-D)*%
X49915000Y-44050000D03*
%TO.P,U5,3,C*%
%TO.N,Net-(U5A-C)*%
X52455000Y-44050000D03*
%TO.P,U5,4,~{S}*%
%TO.N,VCC*%
X54995000Y-44050000D03*
%TO.P,U5,5,Q*%
%TO.N,Net-(U5A-Q)*%
X57535000Y-44050000D03*
%TO.P,U5,6,~{Q}*%
%TO.N,Net-(U5A-~{Q})*%
X60075000Y-44050000D03*
%TO.P,U5,7,GND*%
%TO.N,GND*%
X62615000Y-44050000D03*
%TO.P,U5,8,~{Q}*%
%TO.N,Net-(U5B-~{Q})*%
X62615000Y-36430000D03*
%TO.P,U5,9,Q*%
%TO.N,SEN*%
X60075000Y-36430000D03*
%TO.P,U5,10,~{S}*%
%TO.N,Net-(U5B-~{S})*%
X57535000Y-36430000D03*
%TO.P,U5,11,C*%
%TO.N,GND*%
X54995000Y-36430000D03*
%TO.P,U5,12,D*%
X52455000Y-36430000D03*
%TO.P,U5,13,~{R}*%
%TO.N,Net-(U5B-~{R})*%
X49915000Y-36430000D03*
%TO.P,U5,14,VCC*%
%TO.N,VCC*%
X47375000Y-36430000D03*
%TD*%
D10*
%TO.P,J5,1,Pin_1*%
%TO.N,LS0*%
X34000000Y-83625000D03*
D11*
%TO.P,J5,2,Pin_2*%
%TO.N,LS1*%
X36540000Y-83625000D03*
%TO.P,J5,3,Pin_3*%
%TO.N,LS2*%
X39080000Y-83625000D03*
%TO.P,J5,4,Pin_4*%
%TO.N,LS3*%
X41620000Y-83625000D03*
%TD*%
D12*
%TO.P,U6,1*%
%TO.N,Net-(U4-Q0)*%
X65450000Y-29875000D03*
D13*
%TO.P,U6,2*%
%TO.N,Net-(U4-Q1)*%
X65450000Y-32415000D03*
%TO.P,U6,3*%
%TO.N,Net-(U3-RCLK)*%
X65450000Y-34955000D03*
%TO.P,U6,4*%
%TO.N,MOSI*%
X65450000Y-37495000D03*
%TO.P,U6,5*%
%TO.N,CLK*%
X65450000Y-40035000D03*
%TO.P,U6,6*%
%TO.N,Net-(U2-Pad5)*%
X65450000Y-42575000D03*
%TO.P,U6,7,GND*%
%TO.N,GND*%
X65450000Y-45115000D03*
%TO.P,U6,8*%
%TO.N,Net-(U5A-~{R})*%
X73070000Y-45115000D03*
%TO.P,U6,9*%
%TO.N,Net-(U5B-~{R})*%
X73070000Y-42575000D03*
%TO.P,U6,10*%
%TO.N,Net-(U5B-~{Q})*%
X73070000Y-40035000D03*
%TO.P,U6,11*%
%TO.N,N/C*%
X73070000Y-37495000D03*
%TO.P,U6,12*%
X73070000Y-34955000D03*
%TO.P,U6,13*%
X73070000Y-32415000D03*
%TO.P,U6,14,VCC*%
%TO.N,VCC*%
X73070000Y-29875000D03*
%TD*%
D10*
%TO.P,J8,1,Pin_1*%
%TO.N,VCC*%
X72460000Y-26375000D03*
D11*
%TO.P,J8,2,Pin_2*%
%TO.N,LEN*%
X75000000Y-26375000D03*
%TD*%
D10*
%TO.P,J4,1,Pin_1*%
%TO.N,GND*%
X61350000Y-78825000D03*
D11*
%TO.P,J4,2,Pin_2*%
%TO.N,VCC*%
X58810000Y-78825000D03*
%TO.P,J4,3,Pin_3*%
%TO.N,VIN*%
X56270000Y-78825000D03*
%TO.P,J4,4,Pin_4*%
%TO.N,SS*%
X53730000Y-78825000D03*
%TO.P,J4,5,Pin_5*%
%TO.N,MISO1*%
X51190000Y-78825000D03*
%TO.P,J4,6,Pin_6*%
%TO.N,CLK*%
X48650000Y-78825000D03*
%TD*%
D12*
%TO.P,U1,1*%
%TO.N,CLK*%
X58125000Y-64800000D03*
D13*
%TO.P,U1,2*%
%TO.N,Net-(U4-CPR)*%
X60665000Y-64800000D03*
%TO.P,U1,3*%
%TO.N,SEN*%
X63205000Y-64800000D03*
%TO.P,U1,4*%
%TO.N,Net-(U3-~{OE})*%
X65745000Y-64800000D03*
%TO.P,U1,5*%
%TO.N,Net-(U3-QD)*%
X68285000Y-64800000D03*
%TO.P,U1,6*%
%TO.N,LEN*%
X70825000Y-64800000D03*
%TO.P,U1,7,GND*%
%TO.N,GND*%
X73365000Y-64800000D03*
%TO.P,U1,8*%
%TO.N,Net-(U5A-D)*%
X73365000Y-57180000D03*
%TO.P,U1,9*%
%TO.N,Net-(U5A-C)*%
X70825000Y-57180000D03*
%TO.P,U1,10*%
%TO.N,Net-(U7A-C)*%
X68285000Y-57180000D03*
%TO.P,U1,11*%
%TO.N,Net-(U5A-C)*%
X65745000Y-57180000D03*
%TO.P,U1,12*%
%TO.N,N/C*%
X63205000Y-57180000D03*
%TO.P,U1,13*%
X60665000Y-57180000D03*
%TO.P,U1,14,VCC*%
%TO.N,VCC*%
X58125000Y-57180000D03*
%TD*%
D10*
%TO.P,J6,1,Pin_1*%
%TO.N,LS4*%
X65840000Y-83625000D03*
D11*
%TO.P,J6,2,Pin_2*%
%TO.N,LS5*%
X68380000Y-83625000D03*
%TO.P,J6,3,Pin_3*%
%TO.N,LS6*%
X70920000Y-83625000D03*
%TO.P,J6,4,Pin_4*%
%TO.N,LS7*%
X73460000Y-83625000D03*
%TO.P,J6,5,Pin_5*%
%TO.N,LS8*%
X76000000Y-83625000D03*
%TD*%
D12*
%TO.P,U2,1*%
%TO.N,CLK*%
X28175000Y-40300000D03*
D13*
%TO.P,U2,2*%
%TO.N,SS*%
X30715000Y-40300000D03*
%TO.P,U2,3*%
%TO.N,Net-(U5B-~{R})*%
X33255000Y-40300000D03*
%TO.P,U2,4*%
%TO.N,Net-(U5B-~{S})*%
X35795000Y-40300000D03*
%TO.P,U2,5*%
%TO.N,Net-(U2-Pad5)*%
X38335000Y-40300000D03*
%TO.P,U2,6*%
%TO.N,Net-(U5A-~{Q})*%
X40875000Y-40300000D03*
%TO.P,U2,7,VSS*%
%TO.N,GND*%
X43415000Y-40300000D03*
%TO.P,U2,8*%
%TO.N,Net-(U5A-~{Q})*%
X43415000Y-32680000D03*
%TO.P,U2,9*%
%TO.N,MOSI*%
X40875000Y-32680000D03*
%TO.P,U2,10*%
%TO.N,Net-(U5A-C)*%
X38335000Y-32680000D03*
%TO.P,U2,11*%
%TO.N,N/C*%
X35795000Y-32680000D03*
%TO.P,U2,12*%
X33255000Y-32680000D03*
%TO.P,U2,13*%
X30715000Y-32680000D03*
%TO.P,U2,14,VDD*%
%TO.N,VCC*%
X28175000Y-32680000D03*
%TD*%
D12*
%TO.P,U4,1,Q1*%
%TO.N,Net-(U4-Q1)*%
X64125000Y-75370000D03*
D13*
%TO.P,U4,2,Q2*%
%TO.N,LS3*%
X66665000Y-75370000D03*
%TO.P,U4,3,Q3*%
%TO.N,LS4*%
X69205000Y-75370000D03*
%TO.P,U4,4,Q4*%
%TO.N,LS5*%
X71745000Y-75370000D03*
%TO.P,U4,5,Q5*%
%TO.N,LS6*%
X74285000Y-75370000D03*
%TO.P,U4,6,Q6*%
%TO.N,LS7*%
X76825000Y-75370000D03*
%TO.P,U4,7,Q7*%
%TO.N,LS8*%
X79365000Y-75370000D03*
%TO.P,U4,8,GND*%
%TO.N,GND*%
X81905000Y-75370000D03*
%TO.P,U4,9,~{RCO}*%
%TO.N,unconnected-(U4-~{RCO}-Pad9)*%
X81905000Y-67750000D03*
%TO.P,U4,10,~{MRC}*%
%TO.N,SEN*%
X79365000Y-67750000D03*
%TO.P,U4,11,CPC*%
%TO.N,CLK*%
X76825000Y-67750000D03*
%TO.P,U4,12,~{CE}*%
%TO.N,GND*%
X74285000Y-67750000D03*
%TO.P,U4,13,CPR*%
%TO.N,Net-(U4-CPR)*%
X71745000Y-67750000D03*
%TO.P,U4,14,~{OE}*%
%TO.N,Net-(U3-~{OE})*%
X69205000Y-67750000D03*
%TO.P,U4,15,Q0*%
%TO.N,Net-(U4-Q0)*%
X66665000Y-67750000D03*
%TO.P,U4,16,VCC*%
%TO.N,VCC*%
X64125000Y-67750000D03*
%TD*%
D12*
%TO.P,U8,1*%
%TO.N,unconnected-(U8-Pad1)*%
X61875000Y-46700000D03*
D13*
%TO.P,U8,2*%
%TO.N,Net-(U9-A)*%
X59335000Y-46700000D03*
%TO.P,U8,3*%
%TO.N,unconnected-(U8-Pad3)*%
X56795000Y-46700000D03*
%TO.P,U8,4*%
%TO.N,MOSI*%
X54255000Y-46700000D03*
%TO.P,U8,5,E0*%
%TO.N,Net-(U5A-Q)*%
X51715000Y-46700000D03*
%TO.P,U8,6,E1*%
%TO.N,VCC*%
X49175000Y-46700000D03*
%TO.P,U8,7*%
%TO.N,unconnected-(U8-Pad7)*%
X46635000Y-46700000D03*
%TO.P,U8,8,Vss*%
%TO.N,GND*%
X44095000Y-46700000D03*
%TO.P,U8,9*%
%TO.N,unconnected-(U8-Pad9)*%
X44095000Y-54320000D03*
%TO.P,U8,10*%
%TO.N,unconnected-(U8-Pad10)*%
X46635000Y-54320000D03*
%TO.P,U8,11*%
%TO.N,unconnected-(U8-Pad11)*%
X49175000Y-54320000D03*
%TO.P,U8,12*%
%TO.N,unconnected-(U8-Pad12)*%
X51715000Y-54320000D03*
%TO.P,U8,13*%
%TO.N,unconnected-(U8-Pad13)*%
X54255000Y-54320000D03*
%TO.P,U8,14*%
%TO.N,unconnected-(U8-Pad14)*%
X56795000Y-54320000D03*
%TO.P,U8,15*%
%TO.N,unconnected-(U8-Pad15)*%
X59335000Y-54320000D03*
%TO.P,U8,16,Vdd*%
%TO.N,VCC*%
X61875000Y-54320000D03*
%TD*%
D14*
%TO.N,VCC*%
X65212299Y-50587701D03*
%TO.N,Net-(U4-Q0)*%
X62200000Y-63524500D03*
%TO.N,Net-(U4-Q1)*%
X64200000Y-59800000D03*
%TO.N,Net-(U5A-D)*%
X44600000Y-43200000D03*
X42800000Y-44400000D03*
%TO.N,Net-(U5A-C)*%
X36200000Y-45200000D03*
%TO.N,Net-(U3-RCLK)*%
X57935500Y-38025500D03*
%TO.N,Net-(U3-QD)*%
X70474999Y-68337966D03*
%TO.N,Net-(U5A-~{R})*%
X65750000Y-46600000D03*
X54600000Y-42600000D03*
X60000000Y-42600000D03*
%TO.N,Net-(U7A-Q)*%
X58644500Y-52800000D03*
X65750000Y-47599503D03*
%TO.N,Net-(U9-A)*%
X49400000Y-49600000D03*
%TD*%
D15*
%TO.N,CLK*%
X58125000Y-64800000D02*
X59950000Y-66625000D01*
X32200000Y-63000000D02*
X32200000Y-61375000D01*
X41950000Y-66655000D02*
X56270000Y-66655000D01*
X40825000Y-67780000D02*
X41950000Y-66655000D01*
X39700000Y-68905000D02*
X37506396Y-68905000D01*
X56270000Y-66655000D02*
X58125000Y-64800000D01*
X36870000Y-67314009D02*
X35555991Y-66000000D01*
X37506396Y-68905000D02*
X36870000Y-68268604D01*
X35555991Y-66000000D02*
X35200000Y-66000000D01*
X40825000Y-67780000D02*
X39700000Y-68905000D01*
X35200000Y-66000000D02*
X32200000Y-63000000D01*
X75700000Y-66625000D02*
X76825000Y-67750000D01*
X36870000Y-68268604D02*
X36870000Y-67314009D01*
X59950000Y-66625000D02*
X75700000Y-66625000D01*
%TO.N,MOSI*%
X37540000Y-56714009D02*
X45854009Y-48400000D01*
X36060991Y-58835000D02*
X37540000Y-57355991D01*
X32200000Y-58835000D02*
X36060991Y-58835000D01*
X33205000Y-67780000D02*
X31025000Y-65600000D01*
X31025000Y-65600000D02*
X31025000Y-60010000D01*
X31025000Y-60010000D02*
X32200000Y-58835000D01*
X52555000Y-48400000D02*
X54255000Y-46700000D01*
X37540000Y-57355991D02*
X37540000Y-56714009D01*
X45854009Y-48400000D02*
X52555000Y-48400000D01*
%TO.N,SS*%
X37210000Y-32214009D02*
X37869009Y-31555000D01*
X52060000Y-31555000D02*
X53705000Y-33200000D01*
X37869009Y-31555000D02*
X52060000Y-31555000D01*
X30715000Y-40300000D02*
X37210000Y-33805000D01*
X37210000Y-33805000D02*
X37210000Y-32214009D01*
D16*
%TO.N,VIN*%
X77825000Y-53730000D02*
X79730000Y-53730000D01*
X55297081Y-81000000D02*
X28800000Y-81000000D01*
X36865862Y-28600000D02*
X52004138Y-28600000D01*
X28800000Y-81000000D02*
X26000000Y-78200000D01*
X57675000Y-80875000D02*
X56270000Y-79470000D01*
X26175000Y-31825000D02*
X31625000Y-26375000D01*
X79228428Y-80875000D02*
X57675000Y-80875000D01*
X31840862Y-53755000D02*
X32200000Y-53755000D01*
X32200000Y-53755000D02*
X30997919Y-53755000D01*
X56270000Y-79470000D02*
X56270000Y-78825000D01*
X56245000Y-32840862D02*
X56245000Y-33200000D01*
X56270000Y-80027081D02*
X55297081Y-81000000D01*
X35000000Y-26375000D02*
X35000000Y-26734138D01*
X35000000Y-26734138D02*
X36865862Y-28600000D01*
X26000000Y-78200000D02*
X26000000Y-59595862D01*
X84000000Y-76103428D02*
X79228428Y-80875000D01*
X52004138Y-28600000D02*
X56245000Y-32840862D01*
X31625000Y-26375000D02*
X35000000Y-26375000D01*
X84000000Y-58000000D02*
X84000000Y-76103428D01*
X26175000Y-48932081D02*
X26175000Y-31825000D01*
X26000000Y-59595862D02*
X31840862Y-53755000D01*
X30997919Y-53755000D02*
X26175000Y-48932081D01*
X56270000Y-78825000D02*
X56270000Y-80027081D01*
X79730000Y-53730000D02*
X84000000Y-58000000D01*
D15*
%TO.N,VCC*%
X50542387Y-45650000D02*
X50225000Y-45650000D01*
X29540000Y-69195000D02*
X28125000Y-67780000D01*
X72460000Y-29765000D02*
X72570000Y-29875000D01*
X32215000Y-51200000D02*
X32200000Y-51215000D01*
X55696167Y-34525000D02*
X55671167Y-34500000D01*
X77825000Y-51190000D02*
X79000000Y-50015000D01*
X29590000Y-34095000D02*
X28175000Y-32680000D01*
X36125000Y-57180000D02*
X36125000Y-55140000D01*
X29925000Y-76525000D02*
X29540000Y-76140000D01*
X58810000Y-78825000D02*
X56510000Y-76525000D01*
X52180991Y-45575000D02*
X50617387Y-45575000D01*
X32200000Y-51215000D02*
X29590000Y-48605000D01*
X79000000Y-50015000D02*
X79000000Y-40840000D01*
X58785000Y-33200000D02*
X58785000Y-32015000D01*
X56510000Y-76525000D02*
X29925000Y-76525000D01*
X73070000Y-29875000D02*
X73070000Y-26985000D01*
X50225000Y-45650000D02*
X49175000Y-46700000D01*
X79000000Y-40840000D02*
X75640000Y-37480000D01*
X36125000Y-55140000D02*
X32200000Y-51215000D01*
X50617387Y-45575000D02*
X50542387Y-45650000D01*
X83260000Y-29860000D02*
X75640000Y-37480000D01*
X49175000Y-46700000D02*
X47925000Y-47950000D01*
X29540000Y-76140000D02*
X29540000Y-69195000D01*
X52255991Y-45500000D02*
X52180991Y-45575000D01*
X31730000Y-57470000D02*
X28125000Y-61075000D01*
X57460000Y-34525000D02*
X55696167Y-34525000D01*
X64475929Y-50587701D02*
X61875000Y-53188630D01*
X55671167Y-34500000D02*
X49305000Y-34500000D01*
X49305000Y-34500000D02*
X47375000Y-36430000D01*
X47925000Y-47950000D02*
X45667613Y-47950000D01*
X65212299Y-50587701D02*
X64475929Y-50587701D01*
X70995000Y-27800000D02*
X73070000Y-29875000D01*
X28125000Y-61075000D02*
X28125000Y-67780000D01*
X29590000Y-48605000D02*
X29590000Y-34095000D01*
X63000000Y-27800000D02*
X70995000Y-27800000D01*
X73070000Y-26985000D02*
X72460000Y-26375000D01*
X36125000Y-57180000D02*
X35835000Y-57470000D01*
X45667613Y-47950000D02*
X42417613Y-51200000D01*
X42417613Y-51200000D02*
X32215000Y-51200000D01*
X53545000Y-45500000D02*
X52255991Y-45500000D01*
X59015000Y-57180000D02*
X58125000Y-57180000D01*
X54995000Y-44050000D02*
X53545000Y-45500000D01*
X75625000Y-29875000D02*
X75640000Y-29860000D01*
X61875000Y-53188630D02*
X61875000Y-54320000D01*
X75640000Y-29860000D02*
X83260000Y-29860000D01*
X35835000Y-57470000D02*
X31730000Y-57470000D01*
X58785000Y-33200000D02*
X57460000Y-34525000D01*
X61875000Y-54320000D02*
X59015000Y-57180000D01*
X58785000Y-32015000D02*
X63000000Y-27800000D01*
%TO.N,LEN*%
X74490000Y-48690000D02*
X74250000Y-48450000D01*
X74250000Y-48450000D02*
X74250000Y-27125000D01*
X70825000Y-64800000D02*
X74490000Y-61135000D01*
X74490000Y-61135000D02*
X74490000Y-48690000D01*
X74250000Y-27125000D02*
X75000000Y-26375000D01*
%TO.N,Net-(U4-Q0)*%
X65000000Y-59574695D02*
X65000000Y-60724500D01*
X67025000Y-54309009D02*
X64620000Y-56714009D01*
X67025000Y-31450000D02*
X67025000Y-54309009D01*
X65450000Y-29875000D02*
X67025000Y-31450000D01*
X64620000Y-59194695D02*
X65000000Y-59574695D01*
X64620000Y-56714009D02*
X64620000Y-59194695D01*
X65000000Y-60724500D02*
X62200000Y-63524500D01*
%TO.N,Net-(U4-Q1)*%
X65450000Y-32415000D02*
X66575000Y-33540000D01*
X62080000Y-56714009D02*
X62080000Y-57680000D01*
X62080000Y-57680000D02*
X64200000Y-59800000D01*
X66575000Y-52219009D02*
X62080000Y-56714009D01*
X66575000Y-33540000D02*
X66575000Y-52219009D01*
%TO.N,Net-(U5A-D)*%
X44600000Y-43200000D02*
X43400000Y-44400000D01*
X43400000Y-44400000D02*
X42800000Y-44400000D01*
%TO.N,Net-(U5A-C)*%
X38335000Y-32680000D02*
X38335000Y-33339009D01*
X52455000Y-44050000D02*
X51505991Y-44050000D01*
X50355991Y-45200000D02*
X36200000Y-45200000D01*
X31840000Y-39834009D02*
X31840000Y-40840000D01*
X70825000Y-57180000D02*
X69700000Y-58305000D01*
X51505991Y-44050000D02*
X50355991Y-45200000D01*
X38335000Y-33339009D02*
X31840000Y-39834009D01*
X66870000Y-58305000D02*
X65745000Y-57180000D01*
X69700000Y-58305000D02*
X66870000Y-58305000D01*
X31840000Y-40840000D02*
X36200000Y-45200000D01*
%TO.N,Net-(U3-RCLK)*%
X57935500Y-38064500D02*
X56250000Y-39750000D01*
X47760000Y-54785991D02*
X46545991Y-56000000D01*
X44870000Y-57645991D02*
X42330000Y-60185991D01*
X53360000Y-48544009D02*
X47760000Y-54144009D01*
X56250000Y-39750000D02*
X56250000Y-45654009D01*
X55670000Y-46930000D02*
X54055991Y-48544009D01*
X42330000Y-60185991D02*
X42330000Y-65265991D01*
X44870000Y-57004009D02*
X44870000Y-57645991D01*
X47760000Y-54144009D02*
X47760000Y-54785991D01*
X57935500Y-38025500D02*
X57935500Y-38064500D01*
X56250000Y-45654009D02*
X55670000Y-46234009D01*
X46545991Y-56000000D02*
X45874009Y-56000000D01*
X55670000Y-46234009D02*
X55670000Y-46930000D01*
X54055991Y-48544009D02*
X53360000Y-48544009D01*
X39790000Y-66275000D02*
X38285000Y-67780000D01*
X45874009Y-56000000D02*
X44870000Y-57004009D01*
X41320991Y-66275000D02*
X39790000Y-66275000D01*
X42330000Y-65265991D02*
X41320991Y-66275000D01*
%TO.N,Net-(U3-QD)*%
X33205000Y-75400000D02*
X38605000Y-70000000D01*
X38605000Y-70000000D02*
X68812965Y-70000000D01*
X68812965Y-70000000D02*
X70474999Y-68337966D01*
%TO.N,SEN*%
X62300000Y-64800000D02*
X63205000Y-64800000D01*
X58660000Y-45590000D02*
X57919500Y-46330500D01*
X57919500Y-55794509D02*
X57000000Y-56714009D01*
X57000000Y-59500000D02*
X62300000Y-64800000D01*
X57919500Y-46330500D02*
X57919500Y-55794509D01*
X63205000Y-64800000D02*
X64330000Y-65925000D01*
X60075000Y-36430000D02*
X58660000Y-37845000D01*
X57000000Y-56714009D02*
X57000000Y-59500000D01*
X64330000Y-65925000D02*
X77540000Y-65925000D01*
X58660000Y-37845000D02*
X58660000Y-45590000D01*
X77540000Y-65925000D02*
X79365000Y-67750000D01*
%TO.N,Net-(U5B-~{R})*%
X58671701Y-34975000D02*
X60150000Y-33496701D01*
X71750000Y-33925000D02*
X71750000Y-41255000D01*
X60150000Y-33496701D02*
X60150000Y-32025000D01*
X66575000Y-28750000D02*
X71750000Y-33925000D01*
X63425000Y-28750000D02*
X66575000Y-28750000D01*
X42000000Y-39250000D02*
X43695000Y-37555000D01*
X48790000Y-37555000D02*
X49915000Y-36430000D01*
X51395000Y-34950000D02*
X55484771Y-34950000D01*
X39750000Y-40765991D02*
X40409009Y-41425000D01*
X40409009Y-41425000D02*
X41630991Y-41425000D01*
X38800991Y-39175000D02*
X39750000Y-40124009D01*
X71750000Y-41255000D02*
X73070000Y-42575000D01*
X39750000Y-40124009D02*
X39750000Y-40765991D01*
X60150000Y-32025000D02*
X63425000Y-28750000D01*
X55509771Y-34975000D02*
X58671701Y-34975000D01*
X33255000Y-40300000D02*
X34380000Y-39175000D01*
X43695000Y-37555000D02*
X48790000Y-37555000D01*
X42000000Y-41055991D02*
X42000000Y-39250000D01*
X34380000Y-39175000D02*
X38800991Y-39175000D01*
X41630991Y-41425000D02*
X42000000Y-41055991D01*
X55484771Y-34950000D02*
X55509771Y-34975000D01*
X49915000Y-36430000D02*
X51395000Y-34950000D01*
%TO.N,Net-(U5B-~{S})*%
X48538604Y-42250000D02*
X37745000Y-42250000D01*
X57535000Y-36430000D02*
X51815000Y-42150000D01*
X48638604Y-42150000D02*
X48538604Y-42250000D01*
X37745000Y-42250000D02*
X35795000Y-40300000D01*
X51815000Y-42150000D02*
X48638604Y-42150000D01*
%TO.N,Net-(U5A-~{Q})*%
X40875000Y-40300000D02*
X40875000Y-35220000D01*
X40875000Y-35220000D02*
X43415000Y-32680000D01*
%TO.N,Net-(U5A-~{R})*%
X54600000Y-42600000D02*
X48825000Y-42600000D01*
X61250000Y-44275991D02*
X61250000Y-43634009D01*
X62149009Y-45175000D02*
X61250000Y-44275991D01*
X48825000Y-42600000D02*
X47375000Y-44050000D01*
X64025000Y-46600000D02*
X62600000Y-45175000D01*
X65750000Y-46600000D02*
X64025000Y-46600000D01*
X61250000Y-43634009D02*
X60540991Y-42925000D01*
X62600000Y-45175000D02*
X62149009Y-45175000D01*
X60540991Y-42925000D02*
X60325000Y-42925000D01*
X60325000Y-42925000D02*
X60000000Y-42600000D01*
%TO.N,Net-(U7A-Q)*%
X64200497Y-47599503D02*
X59000000Y-52800000D01*
X65750000Y-47599503D02*
X64200497Y-47599503D01*
X59000000Y-52800000D02*
X58644500Y-52800000D01*
%TO.N,Net-(U3-~{OE})*%
X69205000Y-67750000D02*
X67405000Y-69550000D01*
X38418604Y-69550000D02*
X38368604Y-69600000D01*
X67405000Y-69550000D02*
X38418604Y-69550000D01*
X38368604Y-69600000D02*
X37565000Y-69600000D01*
X37565000Y-69600000D02*
X35745000Y-67780000D01*
%TO.N,Net-(U9-A)*%
X42330000Y-59470000D02*
X41205000Y-60595000D01*
X41205000Y-60595000D02*
X41205000Y-64800000D01*
X47224009Y-49600000D02*
X42330000Y-54494009D01*
X49400000Y-49600000D02*
X47224009Y-49600000D01*
X42330000Y-54494009D02*
X42330000Y-59470000D01*
%TD*%
%TA.AperFunction,Conductor*%
%TO.N,GND*%
G36*
X84937500Y-25017113D02*
G01*
X84982887Y-25062500D01*
X84999500Y-25124500D01*
X84999500Y-57002375D01*
X84985985Y-57058670D01*
X84948385Y-57102693D01*
X84894898Y-57124848D01*
X84837182Y-57120306D01*
X84787819Y-57090056D01*
X80600521Y-52902758D01*
X80596565Y-52898615D01*
X80542235Y-52839017D01*
X80477885Y-52790423D01*
X80473394Y-52786866D01*
X80411354Y-52735349D01*
X80411353Y-52735348D01*
X80394480Y-52725949D01*
X80380099Y-52716579D01*
X80364687Y-52704940D01*
X80292506Y-52668998D01*
X80287440Y-52666328D01*
X80269032Y-52656075D01*
X80216985Y-52627085D01*
X80216981Y-52627083D01*
X80216980Y-52627083D01*
X80198667Y-52620944D01*
X80182807Y-52614375D01*
X80165525Y-52605769D01*
X80087950Y-52583697D01*
X80082481Y-52582004D01*
X80077746Y-52580417D01*
X80006033Y-52556382D01*
X80006029Y-52556381D01*
X80006028Y-52556381D01*
X79986913Y-52553714D01*
X79970118Y-52550171D01*
X79951538Y-52544885D01*
X79871220Y-52537442D01*
X79865532Y-52536782D01*
X79785682Y-52525644D01*
X79785681Y-52525644D01*
X79715662Y-52528881D01*
X79705131Y-52529368D01*
X79699405Y-52529500D01*
X77769496Y-52529500D01*
X77603462Y-52544884D01*
X77389473Y-52605769D01*
X77190311Y-52704941D01*
X77012762Y-52839019D01*
X76862875Y-53003437D01*
X76745754Y-53192595D01*
X76682638Y-53355517D01*
X76665382Y-53400060D01*
X76624500Y-53618757D01*
X76624500Y-53841243D01*
X76665382Y-54059940D01*
X76712275Y-54180984D01*
X76745754Y-54267404D01*
X76862875Y-54456562D01*
X77012762Y-54620980D01*
X77190311Y-54755058D01*
X77389473Y-54854230D01*
X77603462Y-54915115D01*
X77769496Y-54930500D01*
X77769497Y-54930500D01*
X79181375Y-54930500D01*
X79228828Y-54939939D01*
X79269056Y-54966819D01*
X82763181Y-58460944D01*
X82790061Y-58501172D01*
X82799500Y-58548625D01*
X82799500Y-66927632D01*
X82780262Y-66993972D01*
X82728517Y-67039727D01*
X82660321Y-67050699D01*
X82596835Y-67023485D01*
X82594396Y-67021483D01*
X82463538Y-66914090D01*
X82431715Y-66897080D01*
X82289726Y-66821185D01*
X82101133Y-66763976D01*
X81905000Y-66744659D01*
X81708866Y-66763976D01*
X81520273Y-66821185D01*
X81346463Y-66914089D01*
X81194117Y-67039117D01*
X81069089Y-67191463D01*
X80976185Y-67365273D01*
X80918976Y-67553866D01*
X80899659Y-67749999D01*
X80918976Y-67946133D01*
X80976185Y-68134726D01*
X81007865Y-68193995D01*
X81069090Y-68308538D01*
X81194117Y-68460883D01*
X81346462Y-68585910D01*
X81520273Y-68678814D01*
X81708868Y-68736024D01*
X81905000Y-68755341D01*
X82101132Y-68736024D01*
X82289727Y-68678814D01*
X82463538Y-68585910D01*
X82596835Y-68476514D01*
X82660321Y-68449301D01*
X82728517Y-68460273D01*
X82780262Y-68506028D01*
X82799500Y-68572368D01*
X82799500Y-74483595D01*
X82780262Y-74549935D01*
X82728517Y-74595690D01*
X82660321Y-74606662D01*
X82596835Y-74579448D01*
X82491171Y-74492731D01*
X82308764Y-74395233D01*
X82155000Y-74348590D01*
X82155000Y-75496000D01*
X82138387Y-75558000D01*
X82093000Y-75603387D01*
X82031000Y-75620000D01*
X80883590Y-75620000D01*
X80930233Y-75773764D01*
X81027731Y-75956171D01*
X81158945Y-76116054D01*
X81318828Y-76247268D01*
X81501235Y-76344766D01*
X81699165Y-76404808D01*
X81712891Y-76406160D01*
X81777026Y-76431808D01*
X81817489Y-76487788D01*
X81821725Y-76556731D01*
X81788419Y-76617244D01*
X78767484Y-79638181D01*
X78727256Y-79665061D01*
X78679803Y-79674500D01*
X62574000Y-79674500D01*
X62512000Y-79657887D01*
X62466613Y-79612500D01*
X62450000Y-79550500D01*
X62450000Y-79075000D01*
X60250000Y-79075000D01*
X60250000Y-79550500D01*
X60233387Y-79612500D01*
X60188000Y-79657887D01*
X60126000Y-79674500D01*
X59733982Y-79674500D01*
X59667642Y-79655262D01*
X59621887Y-79603517D01*
X59610914Y-79535322D01*
X59638128Y-79471836D01*
X59643873Y-79464834D01*
X59687685Y-79411450D01*
X59785232Y-79228954D01*
X59845300Y-79030934D01*
X59865583Y-78825000D01*
X59845300Y-78619066D01*
X59831933Y-78575000D01*
X60250000Y-78575000D01*
X61100000Y-78575000D01*
X61100000Y-77725000D01*
X61600000Y-77725000D01*
X61600000Y-78575000D01*
X62450000Y-78575000D01*
X62450000Y-77950375D01*
X62435495Y-77877456D01*
X62380239Y-77794760D01*
X62297543Y-77739504D01*
X62224625Y-77725000D01*
X61600000Y-77725000D01*
X61100000Y-77725000D01*
X60475375Y-77725000D01*
X60402456Y-77739504D01*
X60319760Y-77794760D01*
X60264504Y-77877456D01*
X60250000Y-77950375D01*
X60250000Y-78575000D01*
X59831933Y-78575000D01*
X59785232Y-78421046D01*
X59687685Y-78238550D01*
X59622047Y-78158570D01*
X59556410Y-78078589D01*
X59458952Y-77998609D01*
X59396450Y-77947315D01*
X59213954Y-77849768D01*
X59114943Y-77819733D01*
X59015932Y-77789699D01*
X58810000Y-77769417D01*
X58604067Y-77789699D01*
X58394359Y-77853313D01*
X58393689Y-77851106D01*
X58364486Y-77859441D01*
X58312706Y-77851754D01*
X58268714Y-77823387D01*
X56754042Y-76308716D01*
X56746734Y-76300741D01*
X56722454Y-76271805D01*
X56689736Y-76252915D01*
X56680627Y-76247112D01*
X56649684Y-76225446D01*
X56648803Y-76224829D01*
X56624107Y-76214599D01*
X56585852Y-76207853D01*
X56575296Y-76205512D01*
X56538807Y-76195735D01*
X56501180Y-76199028D01*
X56490372Y-76199500D01*
X46869370Y-76199500D01*
X46835745Y-76189749D01*
X63124500Y-76189749D01*
X63136132Y-76248230D01*
X63180447Y-76314552D01*
X63246769Y-76358867D01*
X63305251Y-76370500D01*
X63305252Y-76370500D01*
X64944748Y-76370500D01*
X64944749Y-76370500D01*
X64973989Y-76364683D01*
X65003231Y-76358867D01*
X65069552Y-76314552D01*
X65113867Y-76248231D01*
X65121899Y-76207853D01*
X65125500Y-76189749D01*
X65125500Y-75369999D01*
X65659659Y-75369999D01*
X65678976Y-75566133D01*
X65736185Y-75754726D01*
X65752221Y-75784727D01*
X65829090Y-75928538D01*
X65954117Y-76080883D01*
X66106462Y-76205910D01*
X66280273Y-76298814D01*
X66468868Y-76356024D01*
X66665000Y-76375341D01*
X66861132Y-76356024D01*
X67049727Y-76298814D01*
X67223538Y-76205910D01*
X67375883Y-76080883D01*
X67500910Y-75928538D01*
X67593814Y-75754727D01*
X67651024Y-75566132D01*
X67670341Y-75370000D01*
X67670341Y-75369999D01*
X68199659Y-75369999D01*
X68218976Y-75566133D01*
X68276185Y-75754726D01*
X68292221Y-75784727D01*
X68369090Y-75928538D01*
X68494117Y-76080883D01*
X68646462Y-76205910D01*
X68820273Y-76298814D01*
X69008868Y-76356024D01*
X69205000Y-76375341D01*
X69401132Y-76356024D01*
X69589727Y-76298814D01*
X69763538Y-76205910D01*
X69915883Y-76080883D01*
X70040910Y-75928538D01*
X70133814Y-75754727D01*
X70191024Y-75566132D01*
X70210341Y-75370000D01*
X70210341Y-75369999D01*
X70739659Y-75369999D01*
X70758976Y-75566133D01*
X70816185Y-75754726D01*
X70832221Y-75784727D01*
X70909090Y-75928538D01*
X71034117Y-76080883D01*
X71186462Y-76205910D01*
X71360273Y-76298814D01*
X71548868Y-76356024D01*
X71745000Y-76375341D01*
X71941132Y-76356024D01*
X72129727Y-76298814D01*
X72303538Y-76205910D01*
X72455883Y-76080883D01*
X72580910Y-75928538D01*
X72673814Y-75754727D01*
X72731024Y-75566132D01*
X72750341Y-75370000D01*
X72750341Y-75369999D01*
X73279659Y-75369999D01*
X73298976Y-75566133D01*
X73356185Y-75754726D01*
X73372221Y-75784727D01*
X73449090Y-75928538D01*
X73574117Y-76080883D01*
X73726462Y-76205910D01*
X73900273Y-76298814D01*
X74088868Y-76356024D01*
X74285000Y-76375341D01*
X74481132Y-76356024D01*
X74669727Y-76298814D01*
X74843538Y-76205910D01*
X74995883Y-76080883D01*
X75120910Y-75928538D01*
X75213814Y-75754727D01*
X75271024Y-75566132D01*
X75290341Y-75370000D01*
X75819659Y-75370000D01*
X75838976Y-75566133D01*
X75896185Y-75754726D01*
X75912221Y-75784727D01*
X75989090Y-75928538D01*
X76114117Y-76080883D01*
X76266462Y-76205910D01*
X76440273Y-76298814D01*
X76628868Y-76356024D01*
X76825000Y-76375341D01*
X77021132Y-76356024D01*
X77209727Y-76298814D01*
X77383538Y-76205910D01*
X77535883Y-76080883D01*
X77660910Y-75928538D01*
X77753814Y-75754727D01*
X77811024Y-75566132D01*
X77830341Y-75370000D01*
X78359659Y-75370000D01*
X78378976Y-75566133D01*
X78436185Y-75754726D01*
X78452221Y-75784727D01*
X78529090Y-75928538D01*
X78654117Y-76080883D01*
X78806462Y-76205910D01*
X78980273Y-76298814D01*
X79168868Y-76356024D01*
X79365000Y-76375341D01*
X79561132Y-76356024D01*
X79749727Y-76298814D01*
X79923538Y-76205910D01*
X80075883Y-76080883D01*
X80200910Y-75928538D01*
X80293814Y-75754727D01*
X80351024Y-75566132D01*
X80370341Y-75370000D01*
X80351024Y-75173868D01*
X80334683Y-75120000D01*
X80883590Y-75120000D01*
X81655000Y-75120000D01*
X81655000Y-74348590D01*
X81501235Y-74395233D01*
X81318828Y-74492731D01*
X81158945Y-74623945D01*
X81027731Y-74783828D01*
X80930233Y-74966235D01*
X80883590Y-75120000D01*
X80334683Y-75120000D01*
X80293814Y-74985273D01*
X80200910Y-74811462D01*
X80075883Y-74659117D01*
X79923538Y-74534090D01*
X79900487Y-74521769D01*
X79749726Y-74441185D01*
X79561133Y-74383976D01*
X79365000Y-74364659D01*
X79168866Y-74383976D01*
X78980273Y-74441185D01*
X78806463Y-74534089D01*
X78654117Y-74659117D01*
X78529089Y-74811463D01*
X78436185Y-74985273D01*
X78378976Y-75173866D01*
X78359659Y-75370000D01*
X77830341Y-75370000D01*
X77811024Y-75173868D01*
X77753814Y-74985273D01*
X77660910Y-74811462D01*
X77535883Y-74659117D01*
X77383538Y-74534090D01*
X77360487Y-74521769D01*
X77209726Y-74441185D01*
X77021133Y-74383976D01*
X76825000Y-74364659D01*
X76628866Y-74383976D01*
X76440273Y-74441185D01*
X76266463Y-74534089D01*
X76114117Y-74659117D01*
X75989089Y-74811463D01*
X75896185Y-74985273D01*
X75838976Y-75173866D01*
X75819659Y-75370000D01*
X75290341Y-75370000D01*
X75271024Y-75173868D01*
X75213814Y-74985273D01*
X75120910Y-74811462D01*
X74995883Y-74659117D01*
X74843538Y-74534090D01*
X74820487Y-74521769D01*
X74669726Y-74441185D01*
X74481133Y-74383976D01*
X74285000Y-74364659D01*
X74088866Y-74383976D01*
X73900273Y-74441185D01*
X73726463Y-74534089D01*
X73574117Y-74659117D01*
X73449089Y-74811463D01*
X73356185Y-74985273D01*
X73298976Y-75173866D01*
X73279659Y-75369999D01*
X72750341Y-75369999D01*
X72731024Y-75173868D01*
X72673814Y-74985273D01*
X72580910Y-74811462D01*
X72455883Y-74659117D01*
X72303538Y-74534090D01*
X72280487Y-74521769D01*
X72129726Y-74441185D01*
X71941133Y-74383976D01*
X71745000Y-74364659D01*
X71548866Y-74383976D01*
X71360273Y-74441185D01*
X71186463Y-74534089D01*
X71034117Y-74659117D01*
X70909089Y-74811463D01*
X70816185Y-74985273D01*
X70758976Y-75173866D01*
X70739659Y-75369999D01*
X70210341Y-75369999D01*
X70191024Y-75173868D01*
X70133814Y-74985273D01*
X70040910Y-74811462D01*
X69915883Y-74659117D01*
X69763538Y-74534090D01*
X69740487Y-74521769D01*
X69589726Y-74441185D01*
X69401133Y-74383976D01*
X69205000Y-74364659D01*
X69008866Y-74383976D01*
X68820273Y-74441185D01*
X68646463Y-74534089D01*
X68494117Y-74659117D01*
X68369089Y-74811463D01*
X68276185Y-74985273D01*
X68218976Y-75173866D01*
X68199659Y-75369999D01*
X67670341Y-75369999D01*
X67651024Y-75173868D01*
X67593814Y-74985273D01*
X67500910Y-74811462D01*
X67375883Y-74659117D01*
X67223538Y-74534090D01*
X67200487Y-74521769D01*
X67049726Y-74441185D01*
X66861133Y-74383976D01*
X66665000Y-74364659D01*
X66468866Y-74383976D01*
X66280273Y-74441185D01*
X66106463Y-74534089D01*
X65954117Y-74659117D01*
X65829089Y-74811463D01*
X65736185Y-74985273D01*
X65678976Y-75173866D01*
X65659659Y-75369999D01*
X65125500Y-75369999D01*
X65125500Y-74550251D01*
X65113867Y-74491769D01*
X65069552Y-74425447D01*
X65003230Y-74381132D01*
X64944749Y-74369500D01*
X64944748Y-74369500D01*
X63305252Y-74369500D01*
X63305251Y-74369500D01*
X63246769Y-74381132D01*
X63180447Y-74425447D01*
X63136132Y-74491769D01*
X63124500Y-74550251D01*
X63124500Y-76189749D01*
X46835745Y-76189749D01*
X46803030Y-76180262D01*
X46757275Y-76128517D01*
X46746303Y-76060321D01*
X46773517Y-75996835D01*
X46782268Y-75986171D01*
X46879766Y-75803764D01*
X46926410Y-75650000D01*
X44883590Y-75650000D01*
X44930233Y-75803764D01*
X45027731Y-75986171D01*
X45036483Y-75996835D01*
X45063697Y-76060321D01*
X45052725Y-76128517D01*
X45006970Y-76180262D01*
X44940630Y-76199500D01*
X44265333Y-76199500D01*
X44198993Y-76180262D01*
X44153238Y-76128517D01*
X44142266Y-76060321D01*
X44169480Y-75996835D01*
X44200910Y-75958538D01*
X44293814Y-75784727D01*
X44351024Y-75596132D01*
X44370341Y-75400000D01*
X44351024Y-75203868D01*
X44334683Y-75150000D01*
X44883590Y-75150000D01*
X45655000Y-75150000D01*
X45655000Y-74378590D01*
X46155000Y-74378590D01*
X46155000Y-75150000D01*
X46926410Y-75150000D01*
X46879766Y-74996235D01*
X46782268Y-74813828D01*
X46651054Y-74653945D01*
X46491171Y-74522731D01*
X46308764Y-74425233D01*
X46155000Y-74378590D01*
X45655000Y-74378590D01*
X45501235Y-74425233D01*
X45318828Y-74522731D01*
X45158945Y-74653945D01*
X45027731Y-74813828D01*
X44930233Y-74996235D01*
X44883590Y-75150000D01*
X44334683Y-75150000D01*
X44293814Y-75015273D01*
X44200910Y-74841462D01*
X44075883Y-74689117D01*
X43923538Y-74564090D01*
X43844361Y-74521769D01*
X43749726Y-74471185D01*
X43561133Y-74413976D01*
X43365000Y-74394659D01*
X43168866Y-74413976D01*
X42980273Y-74471185D01*
X42806463Y-74564089D01*
X42654117Y-74689117D01*
X42529089Y-74841463D01*
X42436185Y-75015273D01*
X42378976Y-75203866D01*
X42359659Y-75399999D01*
X42378976Y-75596133D01*
X42436185Y-75784726D01*
X42436186Y-75784727D01*
X42529090Y-75958538D01*
X42551768Y-75986171D01*
X42560520Y-75996835D01*
X42587734Y-76060321D01*
X42576762Y-76128517D01*
X42531007Y-76180262D01*
X42464667Y-76199500D01*
X41725333Y-76199500D01*
X41658993Y-76180262D01*
X41613238Y-76128517D01*
X41602266Y-76060321D01*
X41629480Y-75996835D01*
X41660910Y-75958538D01*
X41753814Y-75784727D01*
X41811024Y-75596132D01*
X41830341Y-75400000D01*
X41811024Y-75203868D01*
X41753814Y-75015273D01*
X41660910Y-74841462D01*
X41535883Y-74689117D01*
X41383538Y-74564090D01*
X41304361Y-74521769D01*
X41209726Y-74471185D01*
X41021133Y-74413976D01*
X40825000Y-74394659D01*
X40628866Y-74413976D01*
X40440273Y-74471185D01*
X40266463Y-74564089D01*
X40114117Y-74689117D01*
X39989089Y-74841463D01*
X39896185Y-75015273D01*
X39838976Y-75203866D01*
X39819659Y-75399999D01*
X39838976Y-75596133D01*
X39896185Y-75784726D01*
X39896186Y-75784727D01*
X39989090Y-75958538D01*
X40011768Y-75986171D01*
X40020520Y-75996835D01*
X40047734Y-76060321D01*
X40036762Y-76128517D01*
X39991007Y-76180262D01*
X39924667Y-76199500D01*
X39185333Y-76199500D01*
X39118993Y-76180262D01*
X39073238Y-76128517D01*
X39062266Y-76060321D01*
X39089480Y-75996835D01*
X39120910Y-75958538D01*
X39213814Y-75784727D01*
X39271024Y-75596132D01*
X39290341Y-75400000D01*
X39271024Y-75203868D01*
X39213814Y-75015273D01*
X39120910Y-74841462D01*
X38995883Y-74689117D01*
X38843538Y-74564090D01*
X38764361Y-74521769D01*
X38669726Y-74471185D01*
X38481133Y-74413976D01*
X38285000Y-74394659D01*
X38088866Y-74413976D01*
X37900273Y-74471185D01*
X37726463Y-74564089D01*
X37574117Y-74689117D01*
X37449089Y-74841463D01*
X37356185Y-75015273D01*
X37298976Y-75203866D01*
X37279659Y-75399999D01*
X37298976Y-75596133D01*
X37356185Y-75784726D01*
X37356186Y-75784727D01*
X37449090Y-75958538D01*
X37471768Y-75986171D01*
X37480520Y-75996835D01*
X37507734Y-76060321D01*
X37496762Y-76128517D01*
X37451007Y-76180262D01*
X37384667Y-76199500D01*
X36645333Y-76199500D01*
X36578993Y-76180262D01*
X36533238Y-76128517D01*
X36522266Y-76060321D01*
X36549480Y-75996835D01*
X36580910Y-75958538D01*
X36673814Y-75784727D01*
X36731024Y-75596132D01*
X36750341Y-75400000D01*
X36731024Y-75203868D01*
X36673814Y-75015273D01*
X36580910Y-74841462D01*
X36455883Y-74689117D01*
X36303538Y-74564090D01*
X36224361Y-74521769D01*
X36129726Y-74471185D01*
X35941133Y-74413976D01*
X35745000Y-74394659D01*
X35548866Y-74413976D01*
X35360273Y-74471185D01*
X35186463Y-74564089D01*
X35034117Y-74689117D01*
X34909089Y-74841463D01*
X34816185Y-75015273D01*
X34758976Y-75203866D01*
X34739659Y-75399999D01*
X34758976Y-75596133D01*
X34816185Y-75784726D01*
X34816186Y-75784727D01*
X34909090Y-75958538D01*
X34931768Y-75986171D01*
X34940520Y-75996835D01*
X34967734Y-76060321D01*
X34956762Y-76128517D01*
X34911007Y-76180262D01*
X34844667Y-76199500D01*
X34105333Y-76199500D01*
X34038993Y-76180262D01*
X33993238Y-76128517D01*
X33982266Y-76060321D01*
X34009480Y-75996835D01*
X34040910Y-75958538D01*
X34133814Y-75784727D01*
X34191024Y-75596132D01*
X34210341Y-75400000D01*
X34191024Y-75203868D01*
X34135892Y-75022126D01*
X34134270Y-74956004D01*
X34166873Y-74898452D01*
X38703508Y-70361819D01*
X38743736Y-70334939D01*
X38791189Y-70325500D01*
X68793338Y-70325500D01*
X68804145Y-70325971D01*
X68841772Y-70329264D01*
X68878289Y-70319478D01*
X68888795Y-70317149D01*
X68926010Y-70310588D01*
X68926012Y-70310586D01*
X68927077Y-70310399D01*
X68951764Y-70300173D01*
X68952647Y-70299554D01*
X68952649Y-70299554D01*
X68983590Y-70277887D01*
X68992687Y-70272091D01*
X69025420Y-70253194D01*
X69049713Y-70224241D01*
X69057001Y-70216288D01*
X70303314Y-68969975D01*
X70351135Y-68940239D01*
X70407179Y-68934719D01*
X70474999Y-68943648D01*
X70631761Y-68923010D01*
X70777840Y-68862502D01*
X70903281Y-68766248D01*
X70999535Y-68640807D01*
X70999944Y-68639817D01*
X71033510Y-68593378D01*
X71084373Y-68566986D01*
X71141672Y-68566281D01*
X71174533Y-68582318D01*
X71175691Y-68580153D01*
X71360272Y-68678813D01*
X71360273Y-68678814D01*
X71548868Y-68736024D01*
X71745000Y-68755341D01*
X71941132Y-68736024D01*
X72129727Y-68678814D01*
X72303538Y-68585910D01*
X72455883Y-68460883D01*
X72580910Y-68308538D01*
X72673814Y-68134727D01*
X72714683Y-68000000D01*
X73263590Y-68000000D01*
X73310233Y-68153764D01*
X73407731Y-68336171D01*
X73538945Y-68496054D01*
X73698828Y-68627268D01*
X73881235Y-68724766D01*
X74035000Y-68771410D01*
X74035000Y-68000000D01*
X74535000Y-68000000D01*
X74535000Y-68771410D01*
X74688764Y-68724766D01*
X74871171Y-68627268D01*
X75031054Y-68496054D01*
X75162268Y-68336171D01*
X75259766Y-68153764D01*
X75306410Y-68000000D01*
X74535000Y-68000000D01*
X74035000Y-68000000D01*
X73263590Y-68000000D01*
X72714683Y-68000000D01*
X72731024Y-67946132D01*
X72750341Y-67750000D01*
X72731024Y-67553868D01*
X72673814Y-67365273D01*
X72580910Y-67191462D01*
X72549479Y-67153164D01*
X72522266Y-67089679D01*
X72533238Y-67021483D01*
X72578993Y-66969738D01*
X72645333Y-66950500D01*
X73320630Y-66950500D01*
X73386970Y-66969738D01*
X73432725Y-67021483D01*
X73443697Y-67089679D01*
X73416483Y-67153165D01*
X73407731Y-67163828D01*
X73310233Y-67346235D01*
X73263590Y-67500000D01*
X75306410Y-67500000D01*
X75259766Y-67346235D01*
X75162268Y-67163828D01*
X75153517Y-67153165D01*
X75126303Y-67089679D01*
X75137275Y-67021483D01*
X75183030Y-66969738D01*
X75249370Y-66950500D01*
X75513812Y-66950500D01*
X75561265Y-66959939D01*
X75601493Y-66986819D01*
X75863126Y-67248452D01*
X75895729Y-67306003D01*
X75894106Y-67372128D01*
X75838975Y-67553869D01*
X75819659Y-67749999D01*
X75838976Y-67946133D01*
X75896185Y-68134726D01*
X75927865Y-68193995D01*
X75989090Y-68308538D01*
X76114117Y-68460883D01*
X76266462Y-68585910D01*
X76440273Y-68678814D01*
X76628868Y-68736024D01*
X76825000Y-68755341D01*
X77021132Y-68736024D01*
X77209727Y-68678814D01*
X77383538Y-68585910D01*
X77535883Y-68460883D01*
X77660910Y-68308538D01*
X77753814Y-68134727D01*
X77811024Y-67946132D01*
X77830341Y-67750000D01*
X77811024Y-67553868D01*
X77753814Y-67365273D01*
X77660910Y-67191462D01*
X77535883Y-67039117D01*
X77383538Y-66914090D01*
X77351715Y-66897080D01*
X77209726Y-66821185D01*
X77021133Y-66763976D01*
X76825000Y-66744659D01*
X76628869Y-66763975D01*
X76447128Y-66819106D01*
X76381003Y-66820729D01*
X76323452Y-66788126D01*
X75997507Y-66462181D01*
X75967257Y-66412818D01*
X75962715Y-66355102D01*
X75984870Y-66301615D01*
X76028893Y-66264015D01*
X76085188Y-66250500D01*
X77353812Y-66250500D01*
X77401265Y-66259939D01*
X77441493Y-66286819D01*
X78403126Y-67248452D01*
X78435729Y-67306003D01*
X78434106Y-67372128D01*
X78378975Y-67553869D01*
X78359659Y-67749999D01*
X78378976Y-67946133D01*
X78436185Y-68134726D01*
X78467865Y-68193995D01*
X78529090Y-68308538D01*
X78654117Y-68460883D01*
X78806462Y-68585910D01*
X78980273Y-68678814D01*
X79168868Y-68736024D01*
X79365000Y-68755341D01*
X79561132Y-68736024D01*
X79749727Y-68678814D01*
X79923538Y-68585910D01*
X80075883Y-68460883D01*
X80200910Y-68308538D01*
X80293814Y-68134727D01*
X80351024Y-67946132D01*
X80370341Y-67750000D01*
X80351024Y-67553868D01*
X80293814Y-67365273D01*
X80200910Y-67191462D01*
X80075883Y-67039117D01*
X79923538Y-66914090D01*
X79891715Y-66897080D01*
X79749726Y-66821185D01*
X79561133Y-66763976D01*
X79365000Y-66744659D01*
X79168869Y-66763975D01*
X78987128Y-66819106D01*
X78921003Y-66820729D01*
X78863452Y-66788126D01*
X77784043Y-65708717D01*
X77776734Y-65700741D01*
X77752454Y-65671805D01*
X77719736Y-65652915D01*
X77710627Y-65647112D01*
X77679684Y-65625446D01*
X77678803Y-65624829D01*
X77654107Y-65614599D01*
X77615852Y-65607853D01*
X77605296Y-65605512D01*
X77568807Y-65595735D01*
X77531180Y-65599028D01*
X77520372Y-65599500D01*
X74329370Y-65599500D01*
X74263030Y-65580262D01*
X74217275Y-65528517D01*
X74206303Y-65460321D01*
X74233517Y-65396835D01*
X74242268Y-65386171D01*
X74339766Y-65203764D01*
X74386410Y-65050000D01*
X72343590Y-65050000D01*
X72390233Y-65203764D01*
X72487731Y-65386171D01*
X72496483Y-65396835D01*
X72523697Y-65460321D01*
X72512725Y-65528517D01*
X72466970Y-65580262D01*
X72400630Y-65599500D01*
X71725333Y-65599500D01*
X71658993Y-65580262D01*
X71613238Y-65528517D01*
X71602266Y-65460321D01*
X71629480Y-65396835D01*
X71660910Y-65358538D01*
X71753814Y-65184727D01*
X71811024Y-64996132D01*
X71830341Y-64800000D01*
X71811024Y-64603868D01*
X71794683Y-64550000D01*
X72343590Y-64550000D01*
X73115000Y-64550000D01*
X73115000Y-63778590D01*
X73615000Y-63778590D01*
X73615000Y-64550000D01*
X74386410Y-64550000D01*
X74339766Y-64396235D01*
X74242268Y-64213828D01*
X74111054Y-64053945D01*
X73951171Y-63922731D01*
X73768764Y-63825233D01*
X73615000Y-63778590D01*
X73115000Y-63778590D01*
X72961235Y-63825233D01*
X72778828Y-63922731D01*
X72618945Y-64053945D01*
X72487731Y-64213828D01*
X72390233Y-64396235D01*
X72343590Y-64550000D01*
X71794683Y-64550000D01*
X71755892Y-64422126D01*
X71754270Y-64356003D01*
X71786871Y-64298453D01*
X74706290Y-61379034D01*
X74714258Y-61371734D01*
X74740161Y-61350000D01*
X76769417Y-61350000D01*
X76789699Y-61555932D01*
X76819734Y-61654944D01*
X76849768Y-61753954D01*
X76947315Y-61936450D01*
X76967832Y-61961450D01*
X77078589Y-62096410D01*
X77158570Y-62162047D01*
X77238550Y-62227685D01*
X77421046Y-62325232D01*
X77619066Y-62385300D01*
X77825000Y-62405583D01*
X78030934Y-62385300D01*
X78228954Y-62325232D01*
X78411450Y-62227685D01*
X78571410Y-62096410D01*
X78702685Y-61936450D01*
X78800232Y-61753954D01*
X78860300Y-61555934D01*
X78880583Y-61350000D01*
X78860300Y-61144066D01*
X78800232Y-60946046D01*
X78702685Y-60763550D01*
X78591927Y-60628590D01*
X78571410Y-60603589D01*
X78473952Y-60523608D01*
X78411450Y-60472315D01*
X78228954Y-60374768D01*
X78100855Y-60335910D01*
X78030932Y-60314699D01*
X77825000Y-60294417D01*
X77619067Y-60314699D01*
X77421043Y-60374769D01*
X77238551Y-60472314D01*
X77078589Y-60603589D01*
X76947314Y-60763551D01*
X76849769Y-60946043D01*
X76849768Y-60946045D01*
X76849768Y-60946046D01*
X76842943Y-60968545D01*
X76789699Y-61144067D01*
X76769417Y-61350000D01*
X74740161Y-61350000D01*
X74743192Y-61347457D01*
X74743192Y-61347456D01*
X74743194Y-61347455D01*
X74762091Y-61314722D01*
X74767887Y-61305625D01*
X74789554Y-61274684D01*
X74789554Y-61274682D01*
X74790173Y-61273799D01*
X74800399Y-61249112D01*
X74800586Y-61248047D01*
X74800588Y-61248045D01*
X74807149Y-61210830D01*
X74809478Y-61200324D01*
X74819264Y-61163807D01*
X74815971Y-61126176D01*
X74815500Y-61115370D01*
X74815500Y-58809999D01*
X76769417Y-58809999D01*
X76789699Y-59015932D01*
X76814044Y-59096188D01*
X76849768Y-59213954D01*
X76947315Y-59396450D01*
X76990488Y-59449057D01*
X77078589Y-59556410D01*
X77124776Y-59594314D01*
X77238550Y-59687685D01*
X77421046Y-59785232D01*
X77619066Y-59845300D01*
X77825000Y-59865583D01*
X78030934Y-59845300D01*
X78228954Y-59785232D01*
X78411450Y-59687685D01*
X78571410Y-59556410D01*
X78702685Y-59396450D01*
X78800232Y-59213954D01*
X78860300Y-59015934D01*
X78880583Y-58810000D01*
X78860300Y-58604066D01*
X78800232Y-58406046D01*
X78702685Y-58223550D01*
X78610231Y-58110894D01*
X78571410Y-58063589D01*
X78457444Y-57970061D01*
X78411450Y-57932315D01*
X78258592Y-57850610D01*
X78228956Y-57834769D01*
X78228955Y-57834768D01*
X78228954Y-57834768D01*
X78113349Y-57799700D01*
X78030932Y-57774699D01*
X77825000Y-57754417D01*
X77619067Y-57774699D01*
X77421043Y-57834769D01*
X77238551Y-57932314D01*
X77078589Y-58063589D01*
X76947314Y-58223551D01*
X76849769Y-58406043D01*
X76789699Y-58604067D01*
X76769417Y-58809999D01*
X74815500Y-58809999D01*
X74815500Y-56270000D01*
X76769417Y-56270000D01*
X76770102Y-56276958D01*
X76789699Y-56475932D01*
X76807397Y-56534273D01*
X76848872Y-56671001D01*
X76849769Y-56673956D01*
X76895316Y-56759167D01*
X76947315Y-56856450D01*
X76967832Y-56881450D01*
X77078589Y-57016410D01*
X77130084Y-57058670D01*
X77238550Y-57147685D01*
X77421046Y-57245232D01*
X77619066Y-57305300D01*
X77825000Y-57325583D01*
X78030934Y-57305300D01*
X78228954Y-57245232D01*
X78411450Y-57147685D01*
X78571410Y-57016410D01*
X78702685Y-56856450D01*
X78800232Y-56673954D01*
X78860300Y-56475934D01*
X78880583Y-56270000D01*
X78860300Y-56064066D01*
X78800232Y-55866046D01*
X78702685Y-55683550D01*
X78591927Y-55548590D01*
X78571410Y-55523589D01*
X78473952Y-55443609D01*
X78411450Y-55392315D01*
X78250012Y-55306024D01*
X78228956Y-55294769D01*
X78228955Y-55294768D01*
X78228954Y-55294768D01*
X78113346Y-55259699D01*
X78030932Y-55234699D01*
X77825000Y-55214417D01*
X77619067Y-55234699D01*
X77421043Y-55294769D01*
X77238551Y-55392314D01*
X77078589Y-55523589D01*
X76947314Y-55683551D01*
X76849769Y-55866043D01*
X76789699Y-56064067D01*
X76771270Y-56251185D01*
X76769417Y-56270000D01*
X74815500Y-56270000D01*
X74815500Y-48900000D01*
X76725000Y-48900000D01*
X76725000Y-49524625D01*
X76739504Y-49597543D01*
X76794760Y-49680239D01*
X76877456Y-49735495D01*
X76950375Y-49750000D01*
X77575000Y-49750000D01*
X77575000Y-48900000D01*
X76725000Y-48900000D01*
X74815500Y-48900000D01*
X74815500Y-48709619D01*
X74815972Y-48698812D01*
X74816724Y-48690215D01*
X74819263Y-48661193D01*
X74819262Y-48661192D01*
X74819263Y-48661191D01*
X74809486Y-48624704D01*
X74807144Y-48614140D01*
X74800588Y-48576955D01*
X74800587Y-48576954D01*
X74800400Y-48575891D01*
X74790173Y-48551201D01*
X74789554Y-48550317D01*
X74789554Y-48550316D01*
X74767878Y-48519360D01*
X74762077Y-48510252D01*
X74743194Y-48477545D01*
X74714260Y-48453267D01*
X74706283Y-48445957D01*
X74660326Y-48400000D01*
X76725000Y-48400000D01*
X77575000Y-48400000D01*
X77575000Y-47550000D01*
X76950375Y-47550000D01*
X76877456Y-47564504D01*
X76794760Y-47619760D01*
X76739504Y-47702456D01*
X76725000Y-47775375D01*
X76725000Y-48400000D01*
X74660326Y-48400000D01*
X74611819Y-48351493D01*
X74584939Y-48311265D01*
X74575500Y-48263812D01*
X74575500Y-45804585D01*
X74590142Y-45746132D01*
X74630609Y-45701483D01*
X74687346Y-45681182D01*
X74746953Y-45690024D01*
X74795353Y-45725920D01*
X74893945Y-45846054D01*
X75053828Y-45977268D01*
X75236235Y-46074766D01*
X75390000Y-46121410D01*
X75390000Y-45350000D01*
X75890000Y-45350000D01*
X75890000Y-46121410D01*
X76043764Y-46074766D01*
X76226171Y-45977268D01*
X76386054Y-45846054D01*
X76517268Y-45686171D01*
X76614766Y-45503764D01*
X76661410Y-45350000D01*
X75890000Y-45350000D01*
X75390000Y-45350000D01*
X75390000Y-44078590D01*
X75890000Y-44078590D01*
X75890000Y-44850000D01*
X76661410Y-44850000D01*
X76614766Y-44696235D01*
X76517268Y-44513828D01*
X76386054Y-44353945D01*
X76226171Y-44222731D01*
X76043764Y-44125233D01*
X75890000Y-44078590D01*
X75390000Y-44078590D01*
X75236235Y-44125233D01*
X75053828Y-44222731D01*
X74893945Y-44353945D01*
X74795353Y-44474080D01*
X74746953Y-44509976D01*
X74687346Y-44518818D01*
X74630609Y-44498517D01*
X74590142Y-44453868D01*
X74575500Y-44395415D01*
X74575500Y-43185912D01*
X74592520Y-43123212D01*
X74638908Y-43077724D01*
X74701930Y-43061936D01*
X74764284Y-43080181D01*
X74793639Y-43111315D01*
X74796342Y-43109097D01*
X74804089Y-43118537D01*
X74804090Y-43118538D01*
X74929117Y-43270883D01*
X75081462Y-43395910D01*
X75255273Y-43488814D01*
X75443868Y-43546024D01*
X75640000Y-43565341D01*
X75836132Y-43546024D01*
X76024727Y-43488814D01*
X76198538Y-43395910D01*
X76350883Y-43270883D01*
X76475910Y-43118538D01*
X76568814Y-42944727D01*
X76626024Y-42756132D01*
X76645341Y-42560000D01*
X76626024Y-42363868D01*
X76568814Y-42175273D01*
X76475910Y-42001462D01*
X76350883Y-41849117D01*
X76198538Y-41724090D01*
X76112673Y-41678194D01*
X76024726Y-41631185D01*
X75836133Y-41573976D01*
X75640000Y-41554659D01*
X75443866Y-41573976D01*
X75255273Y-41631185D01*
X75081463Y-41724089D01*
X74940715Y-41839599D01*
X74929117Y-41849117D01*
X74910250Y-41872107D01*
X74796342Y-42010903D01*
X74793639Y-42008684D01*
X74764284Y-42039819D01*
X74701930Y-42058064D01*
X74638908Y-42042276D01*
X74592520Y-41996788D01*
X74575500Y-41934088D01*
X74575500Y-40645912D01*
X74592520Y-40583212D01*
X74638908Y-40537724D01*
X74701930Y-40521936D01*
X74764284Y-40540181D01*
X74793639Y-40571315D01*
X74796342Y-40569097D01*
X74804089Y-40578537D01*
X74804090Y-40578538D01*
X74929117Y-40730883D01*
X75081462Y-40855910D01*
X75255273Y-40948814D01*
X75443868Y-41006024D01*
X75640000Y-41025341D01*
X75836132Y-41006024D01*
X76024727Y-40948814D01*
X76198538Y-40855910D01*
X76350883Y-40730883D01*
X76475910Y-40578538D01*
X76568814Y-40404727D01*
X76626024Y-40216132D01*
X76645341Y-40020000D01*
X76626024Y-39823868D01*
X76568814Y-39635273D01*
X76475910Y-39461462D01*
X76350883Y-39309117D01*
X76198538Y-39184090D01*
X76108379Y-39135899D01*
X76024726Y-39091185D01*
X75836133Y-39033976D01*
X75640000Y-39014659D01*
X75443866Y-39033976D01*
X75255273Y-39091185D01*
X75081463Y-39184089D01*
X74929117Y-39309117D01*
X74796342Y-39470903D01*
X74793639Y-39468684D01*
X74764284Y-39499819D01*
X74701930Y-39518064D01*
X74638908Y-39502276D01*
X74592520Y-39456788D01*
X74575500Y-39394088D01*
X74575500Y-38105912D01*
X74592520Y-38043212D01*
X74638908Y-37997724D01*
X74701930Y-37981936D01*
X74764284Y-38000181D01*
X74793639Y-38031315D01*
X74796342Y-38029097D01*
X74804089Y-38038537D01*
X74804090Y-38038538D01*
X74929117Y-38190883D01*
X75081462Y-38315910D01*
X75255273Y-38408814D01*
X75443868Y-38466024D01*
X75640000Y-38485341D01*
X75836132Y-38466024D01*
X76017870Y-38410893D01*
X76083995Y-38409270D01*
X76141547Y-38441873D01*
X78638181Y-40938507D01*
X78665061Y-40978735D01*
X78674500Y-41026188D01*
X78674500Y-47426000D01*
X78657887Y-47488000D01*
X78612500Y-47533387D01*
X78550500Y-47550000D01*
X78075000Y-47550000D01*
X78075000Y-49750000D01*
X78505312Y-49750000D01*
X78561607Y-49763515D01*
X78605630Y-49801115D01*
X78627785Y-49854602D01*
X78623243Y-49912318D01*
X78592993Y-49961681D01*
X78366287Y-50188386D01*
X78322285Y-50216757D01*
X78270495Y-50224439D01*
X78241310Y-50216105D01*
X78240641Y-50218313D01*
X78030932Y-50154699D01*
X77825000Y-50134417D01*
X77619067Y-50154699D01*
X77421043Y-50214769D01*
X77238551Y-50312314D01*
X77078589Y-50443589D01*
X76947314Y-50603551D01*
X76849769Y-50786043D01*
X76789699Y-50984067D01*
X76769417Y-51189999D01*
X76789699Y-51395932D01*
X76819734Y-51494944D01*
X76849768Y-51593954D01*
X76947315Y-51776450D01*
X76967832Y-51801450D01*
X77078589Y-51936410D01*
X77158570Y-52002047D01*
X77238550Y-52067685D01*
X77421046Y-52165232D01*
X77619066Y-52225300D01*
X77825000Y-52245583D01*
X78030934Y-52225300D01*
X78228954Y-52165232D01*
X78411450Y-52067685D01*
X78571410Y-51936410D01*
X78702685Y-51776450D01*
X78800232Y-51593954D01*
X78860300Y-51395934D01*
X78880583Y-51190000D01*
X78860300Y-50984066D01*
X78800232Y-50786046D01*
X78800230Y-50786042D01*
X78796686Y-50774359D01*
X78798894Y-50773688D01*
X78790560Y-50744519D01*
X78798238Y-50692721D01*
X78826610Y-50648714D01*
X79216290Y-50259034D01*
X79224258Y-50251734D01*
X79253192Y-50227457D01*
X79253192Y-50227456D01*
X79253194Y-50227455D01*
X79272091Y-50194722D01*
X79277887Y-50185625D01*
X79299554Y-50154684D01*
X79299554Y-50154682D01*
X79300173Y-50153799D01*
X79310399Y-50129112D01*
X79310586Y-50128047D01*
X79310588Y-50128045D01*
X79317149Y-50090830D01*
X79319478Y-50080324D01*
X79329264Y-50043807D01*
X79325971Y-50006180D01*
X79325500Y-49995373D01*
X79325500Y-45100000D01*
X82254659Y-45100000D01*
X82262621Y-45180844D01*
X82273976Y-45296133D01*
X82331185Y-45484726D01*
X82391510Y-45597586D01*
X82424090Y-45658538D01*
X82549117Y-45810883D01*
X82701462Y-45935910D01*
X82875273Y-46028814D01*
X83063868Y-46086024D01*
X83260000Y-46105341D01*
X83456132Y-46086024D01*
X83644727Y-46028814D01*
X83818538Y-45935910D01*
X83970883Y-45810883D01*
X84095910Y-45658538D01*
X84188814Y-45484727D01*
X84246024Y-45296132D01*
X84265341Y-45100000D01*
X84246024Y-44903868D01*
X84188814Y-44715273D01*
X84095910Y-44541462D01*
X83970883Y-44389117D01*
X83818538Y-44264090D01*
X83678083Y-44189015D01*
X83644726Y-44171185D01*
X83456133Y-44113976D01*
X83260000Y-44094659D01*
X83063866Y-44113976D01*
X82875273Y-44171185D01*
X82701463Y-44264089D01*
X82549117Y-44389117D01*
X82424089Y-44541463D01*
X82331185Y-44715273D01*
X82273976Y-44903866D01*
X82259057Y-45055341D01*
X82254659Y-45100000D01*
X79325500Y-45100000D01*
X79325500Y-42560000D01*
X82254659Y-42560000D01*
X82255567Y-42569215D01*
X82273976Y-42756133D01*
X82331185Y-42944726D01*
X82394926Y-43063976D01*
X82424090Y-43118538D01*
X82549117Y-43270883D01*
X82701462Y-43395910D01*
X82875273Y-43488814D01*
X83063868Y-43546024D01*
X83260000Y-43565341D01*
X83456132Y-43546024D01*
X83644727Y-43488814D01*
X83818538Y-43395910D01*
X83970883Y-43270883D01*
X84095910Y-43118538D01*
X84188814Y-42944727D01*
X84246024Y-42756132D01*
X84265341Y-42560000D01*
X84246024Y-42363868D01*
X84188814Y-42175273D01*
X84095910Y-42001462D01*
X83970883Y-41849117D01*
X83818538Y-41724090D01*
X83732673Y-41678194D01*
X83644726Y-41631185D01*
X83456133Y-41573976D01*
X83260000Y-41554659D01*
X83063866Y-41573976D01*
X82875273Y-41631185D01*
X82701463Y-41724089D01*
X82549117Y-41849117D01*
X82424089Y-42001463D01*
X82331185Y-42175273D01*
X82273976Y-42363866D01*
X82266159Y-42443237D01*
X82254659Y-42560000D01*
X79325500Y-42560000D01*
X79325500Y-40859627D01*
X79325972Y-40848819D01*
X79329264Y-40811192D01*
X79319487Y-40774706D01*
X79317145Y-40764143D01*
X79316225Y-40758924D01*
X79310588Y-40726955D01*
X79310587Y-40726954D01*
X79310400Y-40725891D01*
X79300171Y-40701198D01*
X79299554Y-40700317D01*
X79299554Y-40700316D01*
X79277892Y-40669379D01*
X79272080Y-40660256D01*
X79253194Y-40627544D01*
X79224255Y-40603262D01*
X79216280Y-40595954D01*
X78640326Y-40020000D01*
X82254659Y-40020000D01*
X82273976Y-40216133D01*
X82331185Y-40404726D01*
X82402274Y-40537724D01*
X82424090Y-40578538D01*
X82549117Y-40730883D01*
X82701462Y-40855910D01*
X82875273Y-40948814D01*
X83063868Y-41006024D01*
X83260000Y-41025341D01*
X83456132Y-41006024D01*
X83644727Y-40948814D01*
X83818538Y-40855910D01*
X83970883Y-40730883D01*
X84095910Y-40578538D01*
X84188814Y-40404727D01*
X84246024Y-40216132D01*
X84265341Y-40020000D01*
X84246024Y-39823868D01*
X84188814Y-39635273D01*
X84095910Y-39461462D01*
X83970883Y-39309117D01*
X83818538Y-39184090D01*
X83728379Y-39135899D01*
X83644726Y-39091185D01*
X83456133Y-39033976D01*
X83260000Y-39014659D01*
X83063866Y-39033976D01*
X82875273Y-39091185D01*
X82701463Y-39184089D01*
X82549117Y-39309117D01*
X82424089Y-39461463D01*
X82331185Y-39635273D01*
X82273976Y-39823866D01*
X82254659Y-40020000D01*
X78640326Y-40020000D01*
X76601873Y-37981547D01*
X76569270Y-37923995D01*
X76570894Y-37857870D01*
X76585964Y-37808192D01*
X76626024Y-37676132D01*
X76645341Y-37480000D01*
X82254659Y-37480000D01*
X82273976Y-37676133D01*
X82331185Y-37864726D01*
X82394797Y-37983735D01*
X82424090Y-38038538D01*
X82549117Y-38190883D01*
X82701462Y-38315910D01*
X82875273Y-38408814D01*
X83063868Y-38466024D01*
X83260000Y-38485341D01*
X83456132Y-38466024D01*
X83644727Y-38408814D01*
X83818538Y-38315910D01*
X83970883Y-38190883D01*
X84095910Y-38038538D01*
X84188814Y-37864727D01*
X84246024Y-37676132D01*
X84265341Y-37480000D01*
X84246024Y-37283868D01*
X84188814Y-37095273D01*
X84095910Y-36921462D01*
X83970883Y-36769117D01*
X83818538Y-36644090D01*
X83784937Y-36626130D01*
X83644726Y-36551185D01*
X83456133Y-36493976D01*
X83358066Y-36484317D01*
X83260000Y-36474659D01*
X83259999Y-36474659D01*
X83063866Y-36493976D01*
X82875273Y-36551185D01*
X82701463Y-36644089D01*
X82549117Y-36769117D01*
X82424089Y-36921463D01*
X82331185Y-37095273D01*
X82273976Y-37283866D01*
X82254659Y-37480000D01*
X76645341Y-37480000D01*
X76626024Y-37283868D01*
X76570892Y-37102126D01*
X76569270Y-37036003D01*
X76601871Y-36978453D01*
X78640324Y-34940000D01*
X82254659Y-34940000D01*
X82273976Y-35136133D01*
X82331185Y-35324726D01*
X82394925Y-35443975D01*
X82424090Y-35498538D01*
X82549117Y-35650883D01*
X82701462Y-35775910D01*
X82875273Y-35868814D01*
X83063868Y-35926024D01*
X83260000Y-35945341D01*
X83456132Y-35926024D01*
X83644727Y-35868814D01*
X83818538Y-35775910D01*
X83970883Y-35650883D01*
X84095910Y-35498538D01*
X84188814Y-35324727D01*
X84246024Y-35136132D01*
X84265341Y-34940000D01*
X84246024Y-34743868D01*
X84188814Y-34555273D01*
X84095910Y-34381462D01*
X83970883Y-34229117D01*
X83818538Y-34104090D01*
X83747634Y-34066191D01*
X83644726Y-34011185D01*
X83456133Y-33953976D01*
X83260000Y-33934659D01*
X83063866Y-33953976D01*
X82875273Y-34011185D01*
X82701463Y-34104089D01*
X82549117Y-34229117D01*
X82424089Y-34381463D01*
X82331185Y-34555273D01*
X82273976Y-34743866D01*
X82254659Y-34940000D01*
X78640324Y-34940000D01*
X81180326Y-32399999D01*
X82254659Y-32399999D01*
X82273976Y-32596133D01*
X82331185Y-32784726D01*
X82395373Y-32904812D01*
X82424090Y-32958538D01*
X82549117Y-33110883D01*
X82701462Y-33235910D01*
X82875273Y-33328814D01*
X83063868Y-33386024D01*
X83260000Y-33405341D01*
X83456132Y-33386024D01*
X83644727Y-33328814D01*
X83818538Y-33235910D01*
X83970883Y-33110883D01*
X84095910Y-32958538D01*
X84188814Y-32784727D01*
X84246024Y-32596132D01*
X84265341Y-32400000D01*
X84246024Y-32203868D01*
X84188814Y-32015273D01*
X84095910Y-31841462D01*
X83970883Y-31689117D01*
X83818538Y-31564090D01*
X83766294Y-31536165D01*
X83644726Y-31471185D01*
X83456133Y-31413976D01*
X83260000Y-31394659D01*
X83063866Y-31413976D01*
X82875273Y-31471185D01*
X82701463Y-31564089D01*
X82549117Y-31689117D01*
X82424089Y-31841463D01*
X82331185Y-32015273D01*
X82273976Y-32203866D01*
X82254659Y-32399999D01*
X81180326Y-32399999D01*
X82758454Y-30821871D01*
X82816004Y-30789270D01*
X82882126Y-30790892D01*
X83063868Y-30846024D01*
X83260000Y-30865341D01*
X83456132Y-30846024D01*
X83644727Y-30788814D01*
X83818538Y-30695910D01*
X83970883Y-30570883D01*
X84095910Y-30418538D01*
X84188814Y-30244727D01*
X84246024Y-30056132D01*
X84265341Y-29860000D01*
X84246024Y-29663868D01*
X84188814Y-29475273D01*
X84095910Y-29301462D01*
X83970883Y-29149117D01*
X83818538Y-29024090D01*
X83739361Y-28981769D01*
X83644726Y-28931185D01*
X83456133Y-28873976D01*
X83260000Y-28854659D01*
X83063866Y-28873976D01*
X82875273Y-28931185D01*
X82701463Y-29024089D01*
X82549117Y-29149117D01*
X82424090Y-29301461D01*
X82334563Y-29468954D01*
X82288954Y-29516858D01*
X82225205Y-29534500D01*
X76764500Y-29534500D01*
X76702500Y-29517887D01*
X76657113Y-29472500D01*
X76640500Y-29410500D01*
X76640500Y-29040251D01*
X76628867Y-28981769D01*
X76584552Y-28915447D01*
X76518230Y-28871132D01*
X76459749Y-28859500D01*
X76459748Y-28859500D01*
X74820252Y-28859500D01*
X74820251Y-28859500D01*
X74744748Y-28874518D01*
X74705583Y-28887457D01*
X74641046Y-28872964D01*
X74593141Y-28827354D01*
X74575500Y-28763606D01*
X74575500Y-27511194D01*
X74588740Y-27455442D01*
X74625633Y-27411597D01*
X74678300Y-27389020D01*
X74735494Y-27392533D01*
X74794065Y-27410300D01*
X74807234Y-27411597D01*
X75000000Y-27430583D01*
X75205934Y-27410300D01*
X75403954Y-27350232D01*
X75586450Y-27252685D01*
X75746410Y-27121410D01*
X75877685Y-26961450D01*
X75975232Y-26778954D01*
X76035300Y-26580934D01*
X76055583Y-26375000D01*
X76035300Y-26169066D01*
X75975232Y-25971046D01*
X75877685Y-25788550D01*
X75812047Y-25708569D01*
X75746410Y-25628589D01*
X75596121Y-25505252D01*
X75586450Y-25497315D01*
X75470657Y-25435422D01*
X75403956Y-25399769D01*
X75403955Y-25399768D01*
X75403954Y-25399768D01*
X75295140Y-25366760D01*
X75205932Y-25339699D01*
X75000000Y-25319417D01*
X74794067Y-25339699D01*
X74596043Y-25399769D01*
X74413551Y-25497314D01*
X74253589Y-25628589D01*
X74122314Y-25788551D01*
X74024769Y-25971043D01*
X74024768Y-25971045D01*
X74024768Y-25971046D01*
X74023286Y-25975931D01*
X73964699Y-26169067D01*
X73944417Y-26375000D01*
X73964699Y-26580934D01*
X74027628Y-26788386D01*
X74032414Y-26836083D01*
X74018750Y-26882031D01*
X74003475Y-26900994D01*
X73977914Y-26945264D01*
X73972106Y-26954380D01*
X73949831Y-26986193D01*
X73939597Y-27010899D01*
X73932852Y-27049148D01*
X73930512Y-27059704D01*
X73920735Y-27096192D01*
X73924028Y-27133820D01*
X73924500Y-27144628D01*
X73924500Y-29019805D01*
X73905262Y-29086145D01*
X73853516Y-29131900D01*
X73785320Y-29142872D01*
X73721836Y-29115658D01*
X73628538Y-29039090D01*
X73600473Y-29024089D01*
X73461046Y-28949563D01*
X73413142Y-28903954D01*
X73395500Y-28840205D01*
X73395500Y-27475289D01*
X73410141Y-27416836D01*
X73450607Y-27372187D01*
X73454552Y-27369552D01*
X73498867Y-27303231D01*
X73510500Y-27244748D01*
X73510500Y-25505252D01*
X73506276Y-25484019D01*
X73498867Y-25446769D01*
X73454552Y-25380447D01*
X73388230Y-25336132D01*
X73329749Y-25324500D01*
X73329748Y-25324500D01*
X71590252Y-25324500D01*
X71590251Y-25324500D01*
X71531769Y-25336132D01*
X71465447Y-25380447D01*
X71421132Y-25446769D01*
X71409500Y-25505251D01*
X71409500Y-27244749D01*
X71421132Y-27303230D01*
X71465447Y-27369552D01*
X71531769Y-27413867D01*
X71590251Y-27425500D01*
X71590252Y-27425500D01*
X72620500Y-27425500D01*
X72682500Y-27442113D01*
X72727887Y-27487500D01*
X72744500Y-27549500D01*
X72744500Y-28789812D01*
X72730985Y-28846107D01*
X72693385Y-28890130D01*
X72639898Y-28912285D01*
X72582182Y-28907743D01*
X72532819Y-28877493D01*
X71239043Y-27583717D01*
X71231734Y-27575741D01*
X71231062Y-27574940D01*
X71207455Y-27546806D01*
X71207454Y-27546805D01*
X71174736Y-27527915D01*
X71165627Y-27522112D01*
X71134684Y-27500446D01*
X71133803Y-27499829D01*
X71109107Y-27489599D01*
X71070852Y-27482853D01*
X71060296Y-27480512D01*
X71023807Y-27470735D01*
X70986180Y-27474028D01*
X70975372Y-27474500D01*
X63019619Y-27474500D01*
X63008812Y-27474028D01*
X63006298Y-27473808D01*
X62971191Y-27470736D01*
X62934710Y-27480511D01*
X62924155Y-27482852D01*
X62915519Y-27484375D01*
X62886955Y-27489412D01*
X62886953Y-27489412D01*
X62885897Y-27489599D01*
X62861192Y-27499832D01*
X62829378Y-27522107D01*
X62820261Y-27527915D01*
X62787545Y-27546804D01*
X62763262Y-27575743D01*
X62755956Y-27583715D01*
X58568714Y-31770958D01*
X58560741Y-31778264D01*
X58531806Y-31802544D01*
X58512914Y-31835264D01*
X58507106Y-31844380D01*
X58484831Y-31876193D01*
X58474597Y-31900899D01*
X58467852Y-31939148D01*
X58465512Y-31949704D01*
X58455735Y-31986192D01*
X58459028Y-32023820D01*
X58459500Y-32034628D01*
X58459500Y-32109004D01*
X58448447Y-32160179D01*
X58417260Y-32202231D01*
X58390730Y-32216975D01*
X58391818Y-32219010D01*
X58198549Y-32322315D01*
X58038589Y-32453589D01*
X57907314Y-32613551D01*
X57809769Y-32796043D01*
X57749699Y-32994067D01*
X57729417Y-33199999D01*
X57749699Y-33405932D01*
X57813313Y-33615641D01*
X57811105Y-33616310D01*
X57819439Y-33645496D01*
X57811757Y-33697285D01*
X57783386Y-33741287D01*
X57361493Y-34163181D01*
X57321265Y-34190061D01*
X57273812Y-34199500D01*
X57243592Y-34199500D01*
X57178314Y-34180927D01*
X57132592Y-34130772D01*
X57120121Y-34064059D01*
X57144638Y-34000774D01*
X57270057Y-33834691D01*
X57369230Y-33635526D01*
X57430115Y-33421537D01*
X57445500Y-33255504D01*
X57445500Y-32871479D01*
X57445632Y-32865753D01*
X57446161Y-32854311D01*
X57449357Y-32785181D01*
X57438207Y-32705258D01*
X57437557Y-32699645D01*
X57430115Y-32619326D01*
X57424831Y-32600754D01*
X57421286Y-32583948D01*
X57418619Y-32564832D01*
X57418619Y-32564830D01*
X57392981Y-32488337D01*
X57391306Y-32482928D01*
X57369229Y-32405334D01*
X57366572Y-32399999D01*
X57360627Y-32388060D01*
X57354051Y-32372186D01*
X57347915Y-32353878D01*
X57347915Y-32353877D01*
X57308648Y-32283380D01*
X57306014Y-32278383D01*
X57270058Y-32206173D01*
X57258426Y-32190770D01*
X57249048Y-32176377D01*
X57242544Y-32164700D01*
X57239653Y-32159509D01*
X57188109Y-32097437D01*
X57184580Y-32092983D01*
X57148065Y-32044628D01*
X57135981Y-32028625D01*
X57076394Y-31974305D01*
X57072251Y-31970349D01*
X52874659Y-27772758D01*
X52870703Y-27768615D01*
X52816373Y-27709017D01*
X52752023Y-27660423D01*
X52747532Y-27656866D01*
X52685492Y-27605349D01*
X52685491Y-27605348D01*
X52668618Y-27595949D01*
X52654237Y-27586579D01*
X52638825Y-27574940D01*
X52566644Y-27538998D01*
X52561578Y-27536328D01*
X52541624Y-27525214D01*
X52491123Y-27497085D01*
X52491119Y-27497083D01*
X52491118Y-27497083D01*
X52472805Y-27490944D01*
X52456945Y-27484375D01*
X52439663Y-27475769D01*
X52362088Y-27453697D01*
X52356619Y-27452004D01*
X52327107Y-27442113D01*
X52280171Y-27426382D01*
X52280167Y-27426381D01*
X52280166Y-27426381D01*
X52261051Y-27423714D01*
X52244256Y-27420171D01*
X52225676Y-27414885D01*
X52145358Y-27407442D01*
X52139670Y-27406782D01*
X52059820Y-27395644D01*
X52059819Y-27395644D01*
X51989800Y-27398881D01*
X51979269Y-27399368D01*
X51973543Y-27399500D01*
X38369043Y-27399500D01*
X38311730Y-27385460D01*
X38267395Y-27346519D01*
X38246079Y-27291496D01*
X38252609Y-27232850D01*
X38285505Y-27183863D01*
X38356392Y-27119241D01*
X38479248Y-26956553D01*
X38570113Y-26774069D01*
X38612528Y-26625000D01*
X37414000Y-26625000D01*
X37352000Y-26608387D01*
X37306613Y-26563000D01*
X37290000Y-26501000D01*
X37290000Y-25302680D01*
X37790000Y-25302680D01*
X37790000Y-26125000D01*
X38612528Y-26125000D01*
X38612528Y-26124999D01*
X38570113Y-25975930D01*
X38479248Y-25793446D01*
X38356392Y-25630758D01*
X38205740Y-25493421D01*
X38032411Y-25386100D01*
X37842320Y-25312460D01*
X37790000Y-25302680D01*
X37290000Y-25302680D01*
X37237679Y-25312460D01*
X37047588Y-25386100D01*
X36874259Y-25493421D01*
X36723607Y-25630758D01*
X36600751Y-25793446D01*
X36509885Y-25975931D01*
X36454096Y-26172007D01*
X36451461Y-26200447D01*
X36426073Y-26264869D01*
X36370100Y-26305634D01*
X36300995Y-26310029D01*
X36240309Y-26276684D01*
X36223721Y-26260096D01*
X36199154Y-26225107D01*
X36187931Y-26183855D01*
X36185115Y-26153467D01*
X36185115Y-26153464D01*
X36171421Y-26105338D01*
X36168809Y-26094229D01*
X36159618Y-26045060D01*
X36141549Y-25998420D01*
X36137919Y-25987591D01*
X36124229Y-25939472D01*
X36101930Y-25894691D01*
X36097315Y-25884238D01*
X36079247Y-25837599D01*
X36069072Y-25821166D01*
X36050500Y-25755890D01*
X36050500Y-25505251D01*
X36038867Y-25446769D01*
X35994552Y-25380447D01*
X35928230Y-25336132D01*
X35869749Y-25324500D01*
X35869748Y-25324500D01*
X35619110Y-25324500D01*
X35553835Y-25305928D01*
X35537401Y-25295753D01*
X35537399Y-25295752D01*
X35490769Y-25277687D01*
X35480294Y-25273061D01*
X35435528Y-25250770D01*
X35410910Y-25243766D01*
X35359904Y-25214840D01*
X35327893Y-25165712D01*
X35322033Y-25107369D01*
X35343636Y-25052856D01*
X35387870Y-25014364D01*
X35444844Y-25000500D01*
X84875500Y-25000500D01*
X84937500Y-25017113D01*
G37*
%TD.AperFunction*%
%TA.AperFunction,Conductor*%
G36*
X55918983Y-47239143D02*
G01*
X55974977Y-47277896D01*
X56084117Y-47410883D01*
X56236462Y-47535910D01*
X56410273Y-47628814D01*
X56598868Y-47686024D01*
X56795000Y-47705341D01*
X56991132Y-47686024D01*
X57179727Y-47628814D01*
X57353538Y-47535910D01*
X57391335Y-47504890D01*
X57454821Y-47477677D01*
X57523017Y-47488649D01*
X57574762Y-47534404D01*
X57594000Y-47600744D01*
X57594000Y-53419256D01*
X57574762Y-53485596D01*
X57523017Y-53531351D01*
X57454821Y-53542323D01*
X57391336Y-53515110D01*
X57382766Y-53508077D01*
X57353538Y-53484090D01*
X57301932Y-53456506D01*
X57179726Y-53391185D01*
X56991133Y-53333976D01*
X56795000Y-53314659D01*
X56598866Y-53333976D01*
X56410273Y-53391185D01*
X56236463Y-53484089D01*
X56084117Y-53609117D01*
X55959089Y-53761463D01*
X55866185Y-53935273D01*
X55808976Y-54123866D01*
X55789659Y-54320000D01*
X55808976Y-54516133D01*
X55866185Y-54704726D01*
X55897865Y-54763994D01*
X55959090Y-54878538D01*
X56084117Y-55030883D01*
X56236462Y-55155910D01*
X56410273Y-55248814D01*
X56598868Y-55306024D01*
X56795000Y-55325341D01*
X56991132Y-55306024D01*
X57179727Y-55248814D01*
X57353538Y-55155910D01*
X57391335Y-55124890D01*
X57454821Y-55097677D01*
X57523017Y-55108649D01*
X57574762Y-55154404D01*
X57594000Y-55220744D01*
X57594000Y-55608320D01*
X57584561Y-55655773D01*
X57557681Y-55696001D01*
X56783714Y-56469967D01*
X56775741Y-56477273D01*
X56746806Y-56501553D01*
X56727914Y-56534273D01*
X56722106Y-56543389D01*
X56699831Y-56575202D01*
X56689597Y-56599908D01*
X56682852Y-56638157D01*
X56680512Y-56648713D01*
X56670735Y-56685201D01*
X56674028Y-56722829D01*
X56674500Y-56733637D01*
X56674500Y-59480372D01*
X56674028Y-59491180D01*
X56670735Y-59528807D01*
X56680512Y-59565296D01*
X56682853Y-59575852D01*
X56689599Y-59614107D01*
X56699829Y-59638803D01*
X56700446Y-59639684D01*
X56722112Y-59670627D01*
X56727915Y-59679736D01*
X56746806Y-59712455D01*
X56770313Y-59732180D01*
X56775742Y-59736735D01*
X56783718Y-59744044D01*
X60633764Y-63594090D01*
X60667070Y-63654602D01*
X60662834Y-63723545D01*
X60622372Y-63779526D01*
X60558237Y-63805174D01*
X60468866Y-63813976D01*
X60280273Y-63871185D01*
X60106463Y-63964089D01*
X59954117Y-64089117D01*
X59829089Y-64241463D01*
X59736185Y-64415273D01*
X59678976Y-64603866D01*
X59659659Y-64800000D01*
X59678976Y-64996133D01*
X59736185Y-65184726D01*
X59795020Y-65294798D01*
X59829090Y-65358538D01*
X59954117Y-65510883D01*
X60106462Y-65635910D01*
X60280273Y-65728814D01*
X60468868Y-65786024D01*
X60665000Y-65805341D01*
X60861132Y-65786024D01*
X61049727Y-65728814D01*
X61223538Y-65635910D01*
X61375883Y-65510883D01*
X61500910Y-65358538D01*
X61593814Y-65184727D01*
X61651024Y-64996132D01*
X61659826Y-64906759D01*
X61685472Y-64842628D01*
X61741453Y-64802165D01*
X61810396Y-64797929D01*
X61870909Y-64831235D01*
X62055950Y-65016276D01*
X62063258Y-65024250D01*
X62087545Y-65053194D01*
X62111594Y-65067079D01*
X62120256Y-65072080D01*
X62129379Y-65077892D01*
X62160316Y-65099554D01*
X62160317Y-65099554D01*
X62161198Y-65100171D01*
X62188498Y-65111480D01*
X62201583Y-65119034D01*
X62243181Y-65139124D01*
X62266763Y-65175916D01*
X62270429Y-65173957D01*
X62305362Y-65239311D01*
X62369090Y-65358538D01*
X62494117Y-65510883D01*
X62646462Y-65635910D01*
X62820273Y-65728814D01*
X63008868Y-65786024D01*
X63205000Y-65805341D01*
X63401132Y-65786024D01*
X63582870Y-65730893D01*
X63648995Y-65729270D01*
X63706547Y-65761873D01*
X64032492Y-66087819D01*
X64062742Y-66137182D01*
X64067284Y-66194898D01*
X64045129Y-66248385D01*
X64001106Y-66285985D01*
X63944811Y-66299500D01*
X60136188Y-66299500D01*
X60088735Y-66290061D01*
X60048507Y-66263181D01*
X59161819Y-65376493D01*
X59134939Y-65336265D01*
X59125500Y-65288812D01*
X59125500Y-63980251D01*
X59113867Y-63921769D01*
X59069552Y-63855447D01*
X59003230Y-63811132D01*
X58944749Y-63799500D01*
X58944748Y-63799500D01*
X57305252Y-63799500D01*
X57305251Y-63799500D01*
X57246769Y-63811132D01*
X57180447Y-63855447D01*
X57136132Y-63921769D01*
X57124500Y-63980251D01*
X57124500Y-65288811D01*
X57115061Y-65336264D01*
X57088181Y-65376492D01*
X56171493Y-66293181D01*
X56131265Y-66320061D01*
X56083812Y-66329500D01*
X42026178Y-66329500D01*
X41969883Y-66315985D01*
X41925860Y-66278385D01*
X41903705Y-66224898D01*
X41908247Y-66167182D01*
X41938497Y-66117819D01*
X42053401Y-66002915D01*
X42546296Y-65510020D01*
X42554249Y-65502732D01*
X42583194Y-65478446D01*
X42602082Y-65445729D01*
X42607881Y-65436626D01*
X42629554Y-65405675D01*
X42629554Y-65405673D01*
X42630173Y-65404790D01*
X42640398Y-65380103D01*
X42640585Y-65379040D01*
X42640588Y-65379036D01*
X42647150Y-65341813D01*
X42649482Y-65331298D01*
X42650096Y-65329006D01*
X42678268Y-65277535D01*
X42726954Y-65244778D01*
X42785251Y-65238074D01*
X42840102Y-65258926D01*
X42879224Y-65302663D01*
X42909090Y-65358538D01*
X43034117Y-65510883D01*
X43186462Y-65635910D01*
X43360273Y-65728814D01*
X43548868Y-65786024D01*
X43745000Y-65805341D01*
X43941132Y-65786024D01*
X44129727Y-65728814D01*
X44303538Y-65635910D01*
X44455883Y-65510883D01*
X44580910Y-65358538D01*
X44673814Y-65184727D01*
X44731024Y-64996132D01*
X44750341Y-64800000D01*
X45279659Y-64800000D01*
X45298976Y-64996133D01*
X45356185Y-65184726D01*
X45415020Y-65294798D01*
X45449090Y-65358538D01*
X45574117Y-65510883D01*
X45726462Y-65635910D01*
X45900273Y-65728814D01*
X46088868Y-65786024D01*
X46285000Y-65805341D01*
X46481132Y-65786024D01*
X46669727Y-65728814D01*
X46843538Y-65635910D01*
X46995883Y-65510883D01*
X47120910Y-65358538D01*
X47213814Y-65184727D01*
X47254683Y-65050000D01*
X47803590Y-65050000D01*
X47850233Y-65203764D01*
X47947731Y-65386171D01*
X48078945Y-65546054D01*
X48238828Y-65677268D01*
X48421235Y-65774766D01*
X48575000Y-65821410D01*
X48575000Y-65050000D01*
X49075000Y-65050000D01*
X49075000Y-65821410D01*
X49228764Y-65774766D01*
X49411171Y-65677268D01*
X49571054Y-65546054D01*
X49702268Y-65386171D01*
X49799766Y-65203764D01*
X49846410Y-65050000D01*
X50343590Y-65050000D01*
X50390233Y-65203764D01*
X50487731Y-65386171D01*
X50618945Y-65546054D01*
X50778828Y-65677268D01*
X50961235Y-65774766D01*
X51115000Y-65821410D01*
X51115000Y-65050000D01*
X51615000Y-65050000D01*
X51615000Y-65821410D01*
X51768764Y-65774766D01*
X51951171Y-65677268D01*
X52111054Y-65546054D01*
X52242268Y-65386171D01*
X52339766Y-65203764D01*
X52386410Y-65050000D01*
X52883590Y-65050000D01*
X52930233Y-65203764D01*
X53027731Y-65386171D01*
X53158945Y-65546054D01*
X53318828Y-65677268D01*
X53501235Y-65774766D01*
X53655000Y-65821410D01*
X53655000Y-65050000D01*
X54155000Y-65050000D01*
X54155000Y-65821410D01*
X54308764Y-65774766D01*
X54491171Y-65677268D01*
X54651054Y-65546054D01*
X54782268Y-65386171D01*
X54879766Y-65203764D01*
X54926410Y-65050000D01*
X54155000Y-65050000D01*
X53655000Y-65050000D01*
X52883590Y-65050000D01*
X52386410Y-65050000D01*
X51615000Y-65050000D01*
X51115000Y-65050000D01*
X50343590Y-65050000D01*
X49846410Y-65050000D01*
X49075000Y-65050000D01*
X48575000Y-65050000D01*
X47803590Y-65050000D01*
X47254683Y-65050000D01*
X47271024Y-64996132D01*
X47290341Y-64800000D01*
X47271024Y-64603868D01*
X47254683Y-64550000D01*
X47803590Y-64550000D01*
X48575000Y-64550000D01*
X48575000Y-63778590D01*
X49075000Y-63778590D01*
X49075000Y-64550000D01*
X49846410Y-64550000D01*
X50343590Y-64550000D01*
X51115000Y-64550000D01*
X51115000Y-63778590D01*
X51615000Y-63778590D01*
X51615000Y-64550000D01*
X52386410Y-64550000D01*
X52883590Y-64550000D01*
X53655000Y-64550000D01*
X53655000Y-63778590D01*
X54155000Y-63778590D01*
X54155000Y-64550000D01*
X54926410Y-64550000D01*
X54879766Y-64396235D01*
X54782268Y-64213828D01*
X54651054Y-64053945D01*
X54491171Y-63922731D01*
X54308764Y-63825233D01*
X54155000Y-63778590D01*
X53655000Y-63778590D01*
X53501235Y-63825233D01*
X53318828Y-63922731D01*
X53158945Y-64053945D01*
X53027731Y-64213828D01*
X52930233Y-64396235D01*
X52883590Y-64550000D01*
X52386410Y-64550000D01*
X52339766Y-64396235D01*
X52242268Y-64213828D01*
X52111054Y-64053945D01*
X51951171Y-63922731D01*
X51768764Y-63825233D01*
X51615000Y-63778590D01*
X51115000Y-63778590D01*
X50961235Y-63825233D01*
X50778828Y-63922731D01*
X50618945Y-64053945D01*
X50487731Y-64213828D01*
X50390233Y-64396235D01*
X50343590Y-64550000D01*
X49846410Y-64550000D01*
X49799766Y-64396235D01*
X49702268Y-64213828D01*
X49571054Y-64053945D01*
X49411171Y-63922731D01*
X49228764Y-63825233D01*
X49075000Y-63778590D01*
X48575000Y-63778590D01*
X48421235Y-63825233D01*
X48238828Y-63922731D01*
X48078945Y-64053945D01*
X47947731Y-64213828D01*
X47850233Y-64396235D01*
X47803590Y-64550000D01*
X47254683Y-64550000D01*
X47213814Y-64415273D01*
X47120910Y-64241462D01*
X46995883Y-64089117D01*
X46843538Y-63964090D01*
X46764361Y-63921769D01*
X46669726Y-63871185D01*
X46481133Y-63813976D01*
X46285000Y-63794659D01*
X46088866Y-63813976D01*
X45900273Y-63871185D01*
X45726463Y-63964089D01*
X45574117Y-64089117D01*
X45449089Y-64241463D01*
X45356185Y-64415273D01*
X45298976Y-64603866D01*
X45279659Y-64800000D01*
X44750341Y-64800000D01*
X44731024Y-64603868D01*
X44673814Y-64415273D01*
X44580910Y-64241462D01*
X44455883Y-64089117D01*
X44303538Y-63964090D01*
X44224361Y-63921769D01*
X44129726Y-63871185D01*
X43941133Y-63813976D01*
X43745000Y-63794659D01*
X43548866Y-63813976D01*
X43360273Y-63871185D01*
X43186463Y-63964089D01*
X43034117Y-64089117D01*
X42909089Y-64241463D01*
X42888858Y-64279313D01*
X42844290Y-64326587D01*
X42781935Y-64344836D01*
X42718911Y-64329050D01*
X42672521Y-64283562D01*
X42655500Y-64220860D01*
X42655500Y-60372179D01*
X42664939Y-60324726D01*
X42691819Y-60284498D01*
X43888125Y-59088192D01*
X45086296Y-57890020D01*
X45094250Y-57882731D01*
X45123194Y-57858446D01*
X45142102Y-57825694D01*
X45147878Y-57816629D01*
X45169553Y-57785675D01*
X45169553Y-57785672D01*
X45170171Y-57784791D01*
X45180400Y-57760096D01*
X45180586Y-57759038D01*
X45180588Y-57759036D01*
X45187150Y-57721815D01*
X45189483Y-57711291D01*
X45190097Y-57709002D01*
X45218270Y-57657533D01*
X45266956Y-57624777D01*
X45325253Y-57618074D01*
X45380103Y-57638926D01*
X45419224Y-57682663D01*
X45425296Y-57694023D01*
X45449090Y-57738538D01*
X45574117Y-57890883D01*
X45726462Y-58015910D01*
X45900273Y-58108814D01*
X46088868Y-58166024D01*
X46285000Y-58185341D01*
X46481132Y-58166024D01*
X46669727Y-58108814D01*
X46843538Y-58015910D01*
X46995883Y-57890883D01*
X47120910Y-57738538D01*
X47213814Y-57564727D01*
X47271024Y-57376132D01*
X47290341Y-57180000D01*
X47819659Y-57180000D01*
X47826084Y-57245232D01*
X47838976Y-57376133D01*
X47896185Y-57564726D01*
X47965296Y-57694023D01*
X47989090Y-57738538D01*
X48114117Y-57890883D01*
X48266462Y-58015910D01*
X48440273Y-58108814D01*
X48628868Y-58166024D01*
X48825000Y-58185341D01*
X49021132Y-58166024D01*
X49209727Y-58108814D01*
X49383538Y-58015910D01*
X49535883Y-57890883D01*
X49660910Y-57738538D01*
X49753814Y-57564727D01*
X49794683Y-57430000D01*
X50343590Y-57430000D01*
X50390233Y-57583764D01*
X50487731Y-57766171D01*
X50618945Y-57926054D01*
X50778828Y-58057268D01*
X50961235Y-58154766D01*
X51115000Y-58201410D01*
X51115000Y-57430000D01*
X51615000Y-57430000D01*
X51615000Y-58201410D01*
X51768764Y-58154766D01*
X51951171Y-58057268D01*
X52111054Y-57926054D01*
X52242268Y-57766171D01*
X52339766Y-57583764D01*
X52386410Y-57430000D01*
X52883590Y-57430000D01*
X52930233Y-57583764D01*
X53027731Y-57766171D01*
X53158945Y-57926054D01*
X53318828Y-58057268D01*
X53501235Y-58154766D01*
X53655000Y-58201410D01*
X53655000Y-57430000D01*
X54155000Y-57430000D01*
X54155000Y-58201410D01*
X54308764Y-58154766D01*
X54491171Y-58057268D01*
X54651054Y-57926054D01*
X54782268Y-57766171D01*
X54879766Y-57583764D01*
X54926410Y-57430000D01*
X54155000Y-57430000D01*
X53655000Y-57430000D01*
X52883590Y-57430000D01*
X52386410Y-57430000D01*
X51615000Y-57430000D01*
X51115000Y-57430000D01*
X50343590Y-57430000D01*
X49794683Y-57430000D01*
X49811024Y-57376132D01*
X49830341Y-57180000D01*
X49811024Y-56983868D01*
X49794683Y-56930000D01*
X50343590Y-56930000D01*
X51115000Y-56930000D01*
X51115000Y-56158590D01*
X51615000Y-56158590D01*
X51615000Y-56930000D01*
X52386410Y-56930000D01*
X52883590Y-56930000D01*
X53655000Y-56930000D01*
X53655000Y-56158590D01*
X54155000Y-56158590D01*
X54155000Y-56930000D01*
X54926410Y-56930000D01*
X54879766Y-56776235D01*
X54782268Y-56593828D01*
X54651054Y-56433945D01*
X54491171Y-56302731D01*
X54308764Y-56205233D01*
X54155000Y-56158590D01*
X53655000Y-56158590D01*
X53501235Y-56205233D01*
X53318828Y-56302731D01*
X53158945Y-56433945D01*
X53027731Y-56593828D01*
X52930233Y-56776235D01*
X52883590Y-56930000D01*
X52386410Y-56930000D01*
X52339766Y-56776235D01*
X52242268Y-56593828D01*
X52111054Y-56433945D01*
X51951171Y-56302731D01*
X51768764Y-56205233D01*
X51615000Y-56158590D01*
X51115000Y-56158590D01*
X50961235Y-56205233D01*
X50778828Y-56302731D01*
X50618945Y-56433945D01*
X50487731Y-56593828D01*
X50390233Y-56776235D01*
X50343590Y-56930000D01*
X49794683Y-56930000D01*
X49753814Y-56795273D01*
X49660910Y-56621462D01*
X49535883Y-56469117D01*
X49383538Y-56344090D01*
X49361091Y-56332092D01*
X49209726Y-56251185D01*
X49021133Y-56193976D01*
X48825000Y-56174659D01*
X48628866Y-56193976D01*
X48440273Y-56251185D01*
X48266463Y-56344089D01*
X48114117Y-56469117D01*
X47989089Y-56621463D01*
X47896185Y-56795273D01*
X47838976Y-56983866D01*
X47827273Y-57102693D01*
X47819659Y-57180000D01*
X47290341Y-57180000D01*
X47271024Y-56983868D01*
X47213814Y-56795273D01*
X47120910Y-56621462D01*
X46995883Y-56469117D01*
X46849710Y-56349155D01*
X46810955Y-56293160D01*
X46807614Y-56225144D01*
X46840692Y-56165623D01*
X47976290Y-55030025D01*
X47984258Y-55022725D01*
X48013192Y-54998448D01*
X48013192Y-54998447D01*
X48013194Y-54998446D01*
X48032091Y-54965713D01*
X48037887Y-54956616D01*
X48059554Y-54925675D01*
X48059554Y-54925673D01*
X48060173Y-54924790D01*
X48070399Y-54900103D01*
X48070586Y-54899038D01*
X48070588Y-54899036D01*
X48077149Y-54861821D01*
X48079490Y-54851271D01*
X48080101Y-54848991D01*
X48108280Y-54797524D01*
X48156967Y-54764774D01*
X48215261Y-54758076D01*
X48270107Y-54778929D01*
X48309222Y-54822660D01*
X48339090Y-54878538D01*
X48464117Y-55030883D01*
X48616462Y-55155910D01*
X48790273Y-55248814D01*
X48978868Y-55306024D01*
X49175000Y-55325341D01*
X49371132Y-55306024D01*
X49559727Y-55248814D01*
X49733538Y-55155910D01*
X49885883Y-55030883D01*
X50010910Y-54878538D01*
X50103814Y-54704727D01*
X50161024Y-54516132D01*
X50180341Y-54320000D01*
X50709659Y-54320000D01*
X50728976Y-54516133D01*
X50786185Y-54704726D01*
X50817865Y-54763994D01*
X50879090Y-54878538D01*
X51004117Y-55030883D01*
X51156462Y-55155910D01*
X51330273Y-55248814D01*
X51518868Y-55306024D01*
X51715000Y-55325341D01*
X51911132Y-55306024D01*
X52099727Y-55248814D01*
X52273538Y-55155910D01*
X52425883Y-55030883D01*
X52550910Y-54878538D01*
X52643814Y-54704727D01*
X52701024Y-54516132D01*
X52720341Y-54320000D01*
X53249659Y-54320000D01*
X53268976Y-54516133D01*
X53326185Y-54704726D01*
X53357865Y-54763994D01*
X53419090Y-54878538D01*
X53544117Y-55030883D01*
X53696462Y-55155910D01*
X53870273Y-55248814D01*
X54058868Y-55306024D01*
X54255000Y-55325341D01*
X54451132Y-55306024D01*
X54639727Y-55248814D01*
X54813538Y-55155910D01*
X54965883Y-55030883D01*
X55090910Y-54878538D01*
X55183814Y-54704727D01*
X55241024Y-54516132D01*
X55260341Y-54320000D01*
X55241024Y-54123868D01*
X55183814Y-53935273D01*
X55090910Y-53761462D01*
X54965883Y-53609117D01*
X54813538Y-53484090D01*
X54761932Y-53456506D01*
X54639726Y-53391185D01*
X54451133Y-53333976D01*
X54255000Y-53314659D01*
X54058866Y-53333976D01*
X53870273Y-53391185D01*
X53696463Y-53484089D01*
X53544117Y-53609117D01*
X53419089Y-53761463D01*
X53326185Y-53935273D01*
X53268976Y-54123866D01*
X53249659Y-54320000D01*
X52720341Y-54320000D01*
X52701024Y-54123868D01*
X52643814Y-53935273D01*
X52550910Y-53761462D01*
X52425883Y-53609117D01*
X52273538Y-53484090D01*
X52221932Y-53456506D01*
X52099726Y-53391185D01*
X51911133Y-53333976D01*
X51715000Y-53314659D01*
X51518866Y-53333976D01*
X51330273Y-53391185D01*
X51156463Y-53484089D01*
X51004117Y-53609117D01*
X50879089Y-53761463D01*
X50786185Y-53935273D01*
X50728976Y-54123866D01*
X50709659Y-54320000D01*
X50180341Y-54320000D01*
X50161024Y-54123868D01*
X50103814Y-53935273D01*
X50010910Y-53761462D01*
X49885883Y-53609117D01*
X49733538Y-53484090D01*
X49681932Y-53456506D01*
X49559726Y-53391185D01*
X49371133Y-53333976D01*
X49321824Y-53329119D01*
X49257690Y-53303470D01*
X49217227Y-53247490D01*
X49212992Y-53178547D01*
X49246296Y-53118037D01*
X53458506Y-48905828D01*
X53498735Y-48878948D01*
X53546188Y-48869509D01*
X54036364Y-48869509D01*
X54047171Y-48869980D01*
X54084798Y-48873273D01*
X54121315Y-48863487D01*
X54131821Y-48861158D01*
X54169036Y-48854597D01*
X54169038Y-48854595D01*
X54170103Y-48854408D01*
X54194790Y-48844182D01*
X54195673Y-48843563D01*
X54195675Y-48843563D01*
X54226616Y-48821896D01*
X54235713Y-48816100D01*
X54268446Y-48797203D01*
X54292739Y-48768250D01*
X54300027Y-48760297D01*
X55791446Y-47268879D01*
X55850967Y-47235801D01*
X55918983Y-47239143D01*
G37*
%TD.AperFunction*%
%TA.AperFunction,Conductor*%
G36*
X31555874Y-41021829D02*
G01*
X31574176Y-41041857D01*
X31586805Y-41052454D01*
X31586806Y-41052455D01*
X31606299Y-41068812D01*
X31615742Y-41076735D01*
X31623718Y-41084044D01*
X35567988Y-45028314D01*
X35597726Y-45076136D01*
X35603246Y-45132180D01*
X35594317Y-45199999D01*
X35614956Y-45356762D01*
X35675463Y-45502840D01*
X35771717Y-45628282D01*
X35891391Y-45720110D01*
X35897159Y-45724536D01*
X36043238Y-45785044D01*
X36200000Y-45805682D01*
X36356762Y-45785044D01*
X36502841Y-45724536D01*
X36628282Y-45628282D01*
X36669923Y-45574013D01*
X36713455Y-45538288D01*
X36768299Y-45525500D01*
X43569875Y-45525500D01*
X43632577Y-45542521D01*
X43678065Y-45588911D01*
X43693851Y-45651935D01*
X43675602Y-45714290D01*
X43628328Y-45758858D01*
X43508828Y-45822731D01*
X43348945Y-45953945D01*
X43217731Y-46113828D01*
X43120233Y-46296235D01*
X43073590Y-46450000D01*
X45116410Y-46450000D01*
X45069766Y-46296235D01*
X44972268Y-46113828D01*
X44841054Y-45953945D01*
X44681171Y-45822731D01*
X44561672Y-45758858D01*
X44514398Y-45714290D01*
X44496149Y-45651935D01*
X44511935Y-45588911D01*
X44557423Y-45542521D01*
X44620125Y-45525500D01*
X46224252Y-45525500D01*
X46291105Y-45545065D01*
X46336862Y-45597586D01*
X46347083Y-45666489D01*
X46318543Y-45730031D01*
X46260248Y-45768160D01*
X46250273Y-45771185D01*
X46076463Y-45864089D01*
X45924117Y-45989117D01*
X45799089Y-46141463D01*
X45706185Y-46315273D01*
X45648976Y-46503866D01*
X45629659Y-46700000D01*
X45648976Y-46896133D01*
X45706185Y-47084726D01*
X45768627Y-47201546D01*
X45799090Y-47258538D01*
X45924117Y-47410883D01*
X45924119Y-47410884D01*
X45931865Y-47420323D01*
X45929553Y-47422220D01*
X45952419Y-47453056D01*
X45961256Y-47512662D01*
X45940953Y-47569395D01*
X45896305Y-47609859D01*
X45837854Y-47624500D01*
X45687241Y-47624500D01*
X45676433Y-47624028D01*
X45638805Y-47620735D01*
X45602317Y-47630512D01*
X45591761Y-47632852D01*
X45553512Y-47639597D01*
X45528806Y-47649831D01*
X45496993Y-47672106D01*
X45487877Y-47677914D01*
X45455158Y-47696805D01*
X45430875Y-47725744D01*
X45423569Y-47733716D01*
X42319106Y-50838181D01*
X42278878Y-50865061D01*
X42231425Y-50874500D01*
X33283472Y-50874500D01*
X33219724Y-50856859D01*
X33174114Y-50808954D01*
X33077684Y-50628549D01*
X32946410Y-50468589D01*
X32848952Y-50388609D01*
X32786450Y-50337315D01*
X32603954Y-50239768D01*
X32491586Y-50205682D01*
X32405932Y-50179699D01*
X32200000Y-50159417D01*
X31994067Y-50179699D01*
X31784359Y-50243313D01*
X31783689Y-50241106D01*
X31754486Y-50249441D01*
X31702706Y-50241754D01*
X31658714Y-50213387D01*
X31432008Y-49986681D01*
X31401758Y-49937318D01*
X31397216Y-49879602D01*
X31419371Y-49826115D01*
X31463394Y-49788515D01*
X31519689Y-49775000D01*
X31950000Y-49775000D01*
X31950000Y-48925000D01*
X32450000Y-48925000D01*
X32450000Y-49775000D01*
X33074625Y-49775000D01*
X33147543Y-49760495D01*
X33230239Y-49705239D01*
X33285495Y-49622543D01*
X33300000Y-49549625D01*
X33300000Y-48925000D01*
X32450000Y-48925000D01*
X31950000Y-48925000D01*
X31100000Y-48925000D01*
X31100000Y-49355311D01*
X31086485Y-49411606D01*
X31048885Y-49455629D01*
X30995398Y-49477784D01*
X30937682Y-49473242D01*
X30888319Y-49442992D01*
X29951819Y-48506493D01*
X29924939Y-48466265D01*
X29916731Y-48425000D01*
X31100000Y-48425000D01*
X31950000Y-48425000D01*
X31950000Y-47575000D01*
X32450000Y-47575000D01*
X32450000Y-48425000D01*
X33300000Y-48425000D01*
X33300000Y-47800375D01*
X33285495Y-47727456D01*
X33230239Y-47644760D01*
X33147543Y-47589504D01*
X33074625Y-47575000D01*
X32450000Y-47575000D01*
X31950000Y-47575000D01*
X31325375Y-47575000D01*
X31252456Y-47589504D01*
X31169760Y-47644760D01*
X31114504Y-47727456D01*
X31100000Y-47800375D01*
X31100000Y-48425000D01*
X29916731Y-48425000D01*
X29915500Y-48418812D01*
X29915500Y-46950000D01*
X43073590Y-46950000D01*
X43120233Y-47103764D01*
X43217731Y-47286171D01*
X43348945Y-47446054D01*
X43508828Y-47577268D01*
X43691235Y-47674766D01*
X43845000Y-47721410D01*
X43845000Y-46950000D01*
X44345000Y-46950000D01*
X44345000Y-47721410D01*
X44498764Y-47674766D01*
X44681171Y-47577268D01*
X44841054Y-47446054D01*
X44972268Y-47286171D01*
X45069766Y-47103764D01*
X45116410Y-46950000D01*
X44345000Y-46950000D01*
X43845000Y-46950000D01*
X43073590Y-46950000D01*
X29915500Y-46950000D01*
X29915500Y-41200333D01*
X29934738Y-41133993D01*
X29986483Y-41088238D01*
X30054679Y-41077266D01*
X30118164Y-41104479D01*
X30156462Y-41135910D01*
X30330273Y-41228814D01*
X30518868Y-41286024D01*
X30715000Y-41305341D01*
X30911132Y-41286024D01*
X31099727Y-41228814D01*
X31273538Y-41135910D01*
X31405810Y-41027356D01*
X31453361Y-41003177D01*
X31506672Y-41001213D01*
X31555874Y-41021829D01*
G37*
%TD.AperFunction*%
%TA.AperFunction,Conductor*%
G36*
X64387500Y-29092113D02*
G01*
X64432887Y-29137500D01*
X64449500Y-29199500D01*
X64449500Y-30694749D01*
X64461132Y-30753230D01*
X64505447Y-30819552D01*
X64571769Y-30863867D01*
X64630251Y-30875500D01*
X64630252Y-30875500D01*
X65938812Y-30875500D01*
X65986265Y-30884939D01*
X66026493Y-30911819D01*
X66663181Y-31548508D01*
X66690061Y-31588736D01*
X66699500Y-31636189D01*
X66699500Y-32369909D01*
X66687812Y-32414999D01*
X66699500Y-32460091D01*
X66699500Y-32904812D01*
X66685985Y-32961107D01*
X66648385Y-33005130D01*
X66594898Y-33027285D01*
X66537182Y-33022743D01*
X66487819Y-32992493D01*
X66411873Y-32916547D01*
X66379270Y-32858995D01*
X66380894Y-32792870D01*
X66436024Y-32611132D01*
X66452097Y-32447936D01*
X66464187Y-32415000D01*
X66452097Y-32382063D01*
X66443549Y-32295273D01*
X66436024Y-32218868D01*
X66378814Y-32030273D01*
X66285910Y-31856462D01*
X66160883Y-31704117D01*
X66008538Y-31579090D01*
X65928231Y-31536165D01*
X65834726Y-31486185D01*
X65646133Y-31428976D01*
X65450000Y-31409659D01*
X65253866Y-31428976D01*
X65065273Y-31486185D01*
X64891463Y-31579089D01*
X64739117Y-31704117D01*
X64614089Y-31856463D01*
X64521185Y-32030273D01*
X64463976Y-32218866D01*
X64444659Y-32414999D01*
X64463976Y-32611133D01*
X64521185Y-32799726D01*
X64559538Y-32871479D01*
X64614090Y-32973538D01*
X64739117Y-33125883D01*
X64891462Y-33250910D01*
X65065273Y-33343814D01*
X65253868Y-33401024D01*
X65450000Y-33420341D01*
X65646132Y-33401024D01*
X65827870Y-33345893D01*
X65893995Y-33344270D01*
X65951547Y-33376873D01*
X66213181Y-33638508D01*
X66240061Y-33678736D01*
X66249500Y-33726189D01*
X66249500Y-34054667D01*
X66230262Y-34121007D01*
X66178517Y-34166762D01*
X66110321Y-34177734D01*
X66046835Y-34150520D01*
X66008538Y-34119090D01*
X65909571Y-34066191D01*
X65834726Y-34026185D01*
X65646133Y-33968976D01*
X65450000Y-33949659D01*
X65253866Y-33968976D01*
X65065273Y-34026185D01*
X64891463Y-34119089D01*
X64739117Y-34244117D01*
X64614089Y-34396463D01*
X64521185Y-34570273D01*
X64463976Y-34758866D01*
X64444659Y-34954999D01*
X64463976Y-35151133D01*
X64521185Y-35339726D01*
X64575818Y-35441936D01*
X64614090Y-35513538D01*
X64739117Y-35665883D01*
X64891462Y-35790910D01*
X65065273Y-35883814D01*
X65253868Y-35941024D01*
X65450000Y-35960341D01*
X65646132Y-35941024D01*
X65834727Y-35883814D01*
X66008538Y-35790910D01*
X66046835Y-35759479D01*
X66110321Y-35732266D01*
X66178517Y-35743238D01*
X66230262Y-35788993D01*
X66249500Y-35855333D01*
X66249500Y-36594667D01*
X66230262Y-36661007D01*
X66178517Y-36706762D01*
X66110321Y-36717734D01*
X66046835Y-36690520D01*
X66008538Y-36659090D01*
X65946874Y-36626130D01*
X65834726Y-36566185D01*
X65646133Y-36508976D01*
X65450000Y-36489659D01*
X65253866Y-36508976D01*
X65065273Y-36566185D01*
X64891463Y-36659089D01*
X64739117Y-36784117D01*
X64614089Y-36936463D01*
X64521185Y-37110273D01*
X64463976Y-37298866D01*
X64444659Y-37495000D01*
X64463976Y-37691133D01*
X64521185Y-37879726D01*
X64555277Y-37943507D01*
X64614090Y-38053538D01*
X64739117Y-38205883D01*
X64891462Y-38330910D01*
X65065273Y-38423814D01*
X65253868Y-38481024D01*
X65450000Y-38500341D01*
X65646132Y-38481024D01*
X65834727Y-38423814D01*
X66008538Y-38330910D01*
X66046835Y-38299479D01*
X66110321Y-38272266D01*
X66178517Y-38283238D01*
X66230262Y-38328993D01*
X66249500Y-38395333D01*
X66249500Y-39134667D01*
X66230262Y-39201007D01*
X66178517Y-39246762D01*
X66110321Y-39257734D01*
X66046835Y-39230520D01*
X66035469Y-39221192D01*
X66008538Y-39199090D01*
X65892292Y-39136955D01*
X65834726Y-39106185D01*
X65646133Y-39048976D01*
X65450000Y-39029659D01*
X65253866Y-39048976D01*
X65065273Y-39106185D01*
X64891463Y-39199089D01*
X64739117Y-39324117D01*
X64614089Y-39476463D01*
X64521185Y-39650273D01*
X64463976Y-39838866D01*
X64444659Y-40034999D01*
X64463976Y-40231133D01*
X64521185Y-40419726D01*
X64521186Y-40419727D01*
X64614090Y-40593538D01*
X64739117Y-40745883D01*
X64891462Y-40870910D01*
X65065273Y-40963814D01*
X65253868Y-41021024D01*
X65450000Y-41040341D01*
X65646132Y-41021024D01*
X65834727Y-40963814D01*
X66008538Y-40870910D01*
X66046835Y-40839479D01*
X66110321Y-40812266D01*
X66178517Y-40823238D01*
X66230262Y-40868993D01*
X66249500Y-40935333D01*
X66249500Y-41674667D01*
X66230262Y-41741007D01*
X66178517Y-41786762D01*
X66110321Y-41797734D01*
X66046835Y-41770520D01*
X66027026Y-41754263D01*
X66008538Y-41739090D01*
X65972458Y-41719805D01*
X65834726Y-41646185D01*
X65646133Y-41588976D01*
X65450000Y-41569659D01*
X65253866Y-41588976D01*
X65065273Y-41646185D01*
X64891463Y-41739089D01*
X64739117Y-41864117D01*
X64614089Y-42016463D01*
X64521185Y-42190273D01*
X64463976Y-42378866D01*
X64444659Y-42575000D01*
X64463976Y-42771133D01*
X64521185Y-42959726D01*
X64566583Y-43044659D01*
X64614090Y-43133538D01*
X64739117Y-43285883D01*
X64891462Y-43410910D01*
X65065273Y-43503814D01*
X65253868Y-43561024D01*
X65450000Y-43580341D01*
X65646132Y-43561024D01*
X65834727Y-43503814D01*
X66008538Y-43410910D01*
X66046835Y-43379479D01*
X66110321Y-43352266D01*
X66178517Y-43363238D01*
X66230262Y-43408993D01*
X66249500Y-43475333D01*
X66249500Y-44150630D01*
X66230262Y-44216970D01*
X66178517Y-44262725D01*
X66110321Y-44273697D01*
X66046835Y-44246483D01*
X66036171Y-44237731D01*
X65853764Y-44140233D01*
X65700000Y-44093590D01*
X65700000Y-45241000D01*
X65683387Y-45303000D01*
X65638000Y-45348387D01*
X65576000Y-45365000D01*
X64428590Y-45365000D01*
X64475233Y-45518764D01*
X64572731Y-45701171D01*
X64703945Y-45861054D01*
X64863828Y-45992268D01*
X64955265Y-46041142D01*
X65002539Y-46085710D01*
X65020788Y-46148065D01*
X65005002Y-46211089D01*
X64959514Y-46257479D01*
X64896812Y-46274500D01*
X64211189Y-46274500D01*
X64163736Y-46265061D01*
X64123508Y-46238181D01*
X63596459Y-45711132D01*
X63066169Y-45180843D01*
X63036109Y-45132059D01*
X63031193Y-45074968D01*
X63052471Y-45021762D01*
X63095398Y-44983805D01*
X63201171Y-44927268D01*
X63277044Y-44865000D01*
X64428590Y-44865000D01*
X65200000Y-44865000D01*
X65200000Y-44093590D01*
X65046235Y-44140233D01*
X64863828Y-44237731D01*
X64703945Y-44368945D01*
X64572731Y-44528828D01*
X64475233Y-44711235D01*
X64428590Y-44865000D01*
X63277044Y-44865000D01*
X63361054Y-44796054D01*
X63492268Y-44636171D01*
X63589766Y-44453764D01*
X63636410Y-44300000D01*
X62489000Y-44300000D01*
X62427000Y-44283387D01*
X62381613Y-44238000D01*
X62365000Y-44176000D01*
X62365000Y-43028590D01*
X62865000Y-43028590D01*
X62865000Y-43800000D01*
X63636410Y-43800000D01*
X63589766Y-43646235D01*
X63492268Y-43463828D01*
X63361054Y-43303945D01*
X63201171Y-43172731D01*
X63018764Y-43075233D01*
X62865000Y-43028590D01*
X62365000Y-43028590D01*
X62211235Y-43075233D01*
X62028828Y-43172731D01*
X61868945Y-43303945D01*
X61729984Y-43473269D01*
X61727589Y-43471303D01*
X61699704Y-43501470D01*
X61640228Y-43520833D01*
X61578868Y-43508703D01*
X61531237Y-43468165D01*
X61527882Y-43463374D01*
X61522080Y-43454265D01*
X61503194Y-43421553D01*
X61474255Y-43397271D01*
X61466280Y-43389963D01*
X60785034Y-42708717D01*
X60777725Y-42700741D01*
X60753445Y-42671805D01*
X60720727Y-42652915D01*
X60711618Y-42647112D01*
X60680675Y-42625446D01*
X60680673Y-42625445D01*
X60674399Y-42621052D01*
X60643048Y-42605590D01*
X60611148Y-42569215D01*
X60595597Y-42523403D01*
X60585044Y-42443238D01*
X60524536Y-42297159D01*
X60496779Y-42260985D01*
X60428282Y-42171717D01*
X60302840Y-42075463D01*
X60156762Y-42014956D01*
X60000000Y-41994317D01*
X59843237Y-42014956D01*
X59697159Y-42075463D01*
X59571717Y-42171717D01*
X59475463Y-42297159D01*
X59414956Y-42443237D01*
X59394317Y-42600000D01*
X59414956Y-42756762D01*
X59475463Y-42902840D01*
X59567782Y-43023153D01*
X59590393Y-43071470D01*
X59590612Y-43124815D01*
X59568398Y-43173316D01*
X59527863Y-43207995D01*
X59516464Y-43214088D01*
X59364117Y-43339117D01*
X59239089Y-43491463D01*
X59218858Y-43529313D01*
X59174290Y-43576587D01*
X59111935Y-43594836D01*
X59048911Y-43579050D01*
X59002521Y-43533562D01*
X58985500Y-43470860D01*
X58985500Y-38031188D01*
X58994939Y-37983735D01*
X59021819Y-37943507D01*
X59573452Y-37391873D01*
X59631004Y-37359270D01*
X59697126Y-37360892D01*
X59878868Y-37416024D01*
X60075000Y-37435341D01*
X60271132Y-37416024D01*
X60459727Y-37358814D01*
X60633538Y-37265910D01*
X60785883Y-37140883D01*
X60910910Y-36988538D01*
X61003814Y-36814727D01*
X61061024Y-36626132D01*
X61080341Y-36430000D01*
X61609659Y-36430000D01*
X61628976Y-36626133D01*
X61686185Y-36814726D01*
X61747097Y-36928684D01*
X61779090Y-36988538D01*
X61904117Y-37140883D01*
X62056462Y-37265910D01*
X62230273Y-37358814D01*
X62418868Y-37416024D01*
X62615000Y-37435341D01*
X62811132Y-37416024D01*
X62999727Y-37358814D01*
X63173538Y-37265910D01*
X63325883Y-37140883D01*
X63450910Y-36988538D01*
X63543814Y-36814727D01*
X63601024Y-36626132D01*
X63620341Y-36430000D01*
X63601024Y-36233868D01*
X63543814Y-36045273D01*
X63450910Y-35871462D01*
X63325883Y-35719117D01*
X63173538Y-35594090D01*
X63105837Y-35557903D01*
X62999726Y-35501185D01*
X62811133Y-35443976D01*
X62615000Y-35424659D01*
X62418866Y-35443976D01*
X62230273Y-35501185D01*
X62056463Y-35594089D01*
X61904117Y-35719117D01*
X61779089Y-35871463D01*
X61686185Y-36045273D01*
X61628976Y-36233866D01*
X61609659Y-36430000D01*
X61080341Y-36430000D01*
X61061024Y-36233868D01*
X61003814Y-36045273D01*
X60910910Y-35871462D01*
X60785883Y-35719117D01*
X60633538Y-35594090D01*
X60565837Y-35557903D01*
X60459726Y-35501185D01*
X60271133Y-35443976D01*
X60075000Y-35424659D01*
X59878866Y-35443976D01*
X59690273Y-35501185D01*
X59516463Y-35594089D01*
X59364117Y-35719117D01*
X59239089Y-35871463D01*
X59146185Y-36045273D01*
X59088976Y-36233866D01*
X59069659Y-36430000D01*
X59088975Y-36626130D01*
X59144106Y-36807870D01*
X59145729Y-36873994D01*
X59113126Y-36931546D01*
X58488020Y-37556652D01*
X58437626Y-37587232D01*
X58378806Y-37591087D01*
X58324854Y-37567348D01*
X58238341Y-37500964D01*
X58238340Y-37500963D01*
X58238338Y-37500962D01*
X58142898Y-37461430D01*
X58092595Y-37423158D01*
X58067692Y-37365064D01*
X58074659Y-37302242D01*
X58111683Y-37251018D01*
X58245883Y-37140883D01*
X58370910Y-36988538D01*
X58463814Y-36814727D01*
X58521024Y-36626132D01*
X58540341Y-36430000D01*
X58521024Y-36233868D01*
X58463814Y-36045273D01*
X58370910Y-35871462D01*
X58245883Y-35719117D01*
X58093538Y-35594090D01*
X57980852Y-35533858D01*
X57933578Y-35489290D01*
X57915329Y-35426935D01*
X57931115Y-35363911D01*
X57976603Y-35317521D01*
X58039305Y-35300500D01*
X58652074Y-35300500D01*
X58662881Y-35300971D01*
X58700508Y-35304264D01*
X58737025Y-35294478D01*
X58747531Y-35292149D01*
X58784746Y-35285588D01*
X58784748Y-35285586D01*
X58785813Y-35285399D01*
X58810500Y-35275173D01*
X58811383Y-35274554D01*
X58811385Y-35274554D01*
X58842326Y-35252887D01*
X58851423Y-35247091D01*
X58884156Y-35228194D01*
X58908449Y-35199241D01*
X58915737Y-35191288D01*
X60029007Y-34078018D01*
X60086557Y-34045417D01*
X60152681Y-34047040D01*
X60208564Y-34082426D01*
X60238304Y-34141507D01*
X60239504Y-34147543D01*
X60294760Y-34230239D01*
X60377456Y-34285495D01*
X60450375Y-34300000D01*
X61075000Y-34300000D01*
X61075000Y-33450000D01*
X61575000Y-33450000D01*
X61575000Y-34300000D01*
X62199625Y-34300000D01*
X62272543Y-34285495D01*
X62355239Y-34230239D01*
X62410495Y-34147543D01*
X62425000Y-34074625D01*
X62425000Y-33450000D01*
X61575000Y-33450000D01*
X61075000Y-33450000D01*
X61075000Y-32100000D01*
X61575000Y-32100000D01*
X61575000Y-32950000D01*
X62425000Y-32950000D01*
X62425000Y-32325375D01*
X62410495Y-32252456D01*
X62355239Y-32169760D01*
X62272543Y-32114504D01*
X62199625Y-32100000D01*
X61575000Y-32100000D01*
X61075000Y-32100000D01*
X60834688Y-32100000D01*
X60778393Y-32086485D01*
X60734370Y-32048885D01*
X60712215Y-31995398D01*
X60716757Y-31937682D01*
X60747007Y-31888319D01*
X62028199Y-30607128D01*
X63523507Y-29111819D01*
X63563736Y-29084939D01*
X63611189Y-29075500D01*
X64325500Y-29075500D01*
X64387500Y-29092113D01*
G37*
%TD.AperFunction*%
%TA.AperFunction,Conductor*%
G36*
X51955160Y-35292521D02*
G01*
X52000648Y-35338911D01*
X52016434Y-35401935D01*
X51998185Y-35464290D01*
X51950911Y-35508858D01*
X51868828Y-35552731D01*
X51708945Y-35683945D01*
X51577731Y-35843828D01*
X51480233Y-36026235D01*
X51433590Y-36180000D01*
X53476410Y-36180000D01*
X53429766Y-36026235D01*
X53332268Y-35843828D01*
X53201054Y-35683945D01*
X53041171Y-35552731D01*
X52959089Y-35508858D01*
X52911815Y-35464290D01*
X52893566Y-35401935D01*
X52909352Y-35338911D01*
X52954840Y-35292521D01*
X53017542Y-35275500D01*
X54432458Y-35275500D01*
X54495160Y-35292521D01*
X54540648Y-35338911D01*
X54556434Y-35401935D01*
X54538185Y-35464290D01*
X54490911Y-35508858D01*
X54408828Y-35552731D01*
X54248945Y-35683945D01*
X54117731Y-35843828D01*
X54020233Y-36026235D01*
X53973590Y-36180000D01*
X56016410Y-36180000D01*
X55969766Y-36026235D01*
X55872268Y-35843828D01*
X55741054Y-35683945D01*
X55581174Y-35552734D01*
X55545861Y-35533859D01*
X55498587Y-35489290D01*
X55480338Y-35426935D01*
X55496124Y-35363911D01*
X55541612Y-35317521D01*
X55604314Y-35300500D01*
X57030695Y-35300500D01*
X57093397Y-35317521D01*
X57138885Y-35363911D01*
X57154671Y-35426935D01*
X57136422Y-35489290D01*
X57089148Y-35533858D01*
X56976463Y-35594089D01*
X56824117Y-35719117D01*
X56699089Y-35871463D01*
X56606185Y-36045273D01*
X56548976Y-36233866D01*
X56529659Y-36430000D01*
X56548975Y-36626130D01*
X56604106Y-36807870D01*
X56605729Y-36873994D01*
X56573126Y-36931546D01*
X51716493Y-41788181D01*
X51676265Y-41815061D01*
X51628812Y-41824500D01*
X48658221Y-41824500D01*
X48647413Y-41824028D01*
X48609795Y-41820736D01*
X48573314Y-41830511D01*
X48562759Y-41832852D01*
X48551418Y-41834851D01*
X48525559Y-41839412D01*
X48525557Y-41839412D01*
X48524501Y-41839599D01*
X48499796Y-41849831D01*
X48467983Y-41872107D01*
X48458864Y-41877917D01*
X48407215Y-41907738D01*
X48406290Y-41906136D01*
X48397535Y-41912863D01*
X48345089Y-41924500D01*
X41879606Y-41924500D01*
X41817606Y-41907887D01*
X41772219Y-41862500D01*
X41755606Y-41800499D01*
X41772219Y-41738499D01*
X41817607Y-41693112D01*
X41823649Y-41689623D01*
X41843446Y-41678194D01*
X41867739Y-41649241D01*
X41875027Y-41641288D01*
X42216290Y-41300025D01*
X42224258Y-41292725D01*
X42232245Y-41286024D01*
X42245662Y-41274766D01*
X42253192Y-41268448D01*
X42253192Y-41268447D01*
X42253194Y-41268446D01*
X42272091Y-41235713D01*
X42277887Y-41226616D01*
X42299554Y-41195675D01*
X42299554Y-41195673D01*
X42300173Y-41194790D01*
X42310400Y-41170099D01*
X42310587Y-41169037D01*
X42310588Y-41169036D01*
X42314516Y-41146754D01*
X42317146Y-41131842D01*
X42319483Y-41121294D01*
X42329264Y-41084797D01*
X42325972Y-41047167D01*
X42325500Y-41036360D01*
X42325500Y-40974123D01*
X42340142Y-40915670D01*
X42380609Y-40871021D01*
X42437346Y-40850720D01*
X42496952Y-40859562D01*
X42545353Y-40895458D01*
X42668945Y-41046054D01*
X42828828Y-41177268D01*
X43011235Y-41274766D01*
X43165000Y-41321410D01*
X43165000Y-40550000D01*
X43665000Y-40550000D01*
X43665000Y-41321410D01*
X43818764Y-41274766D01*
X44001171Y-41177268D01*
X44161054Y-41046054D01*
X44292268Y-40886171D01*
X44389766Y-40703764D01*
X44436410Y-40550000D01*
X43665000Y-40550000D01*
X43165000Y-40550000D01*
X43165000Y-39278590D01*
X43665000Y-39278590D01*
X43665000Y-40050000D01*
X44436410Y-40050000D01*
X44389766Y-39896235D01*
X44292268Y-39713828D01*
X44161054Y-39553945D01*
X44001171Y-39422731D01*
X43818764Y-39325233D01*
X43665000Y-39278590D01*
X43165000Y-39278590D01*
X43011235Y-39325233D01*
X42828828Y-39422731D01*
X42668945Y-39553945D01*
X42545353Y-39704542D01*
X42496952Y-39740438D01*
X42437346Y-39749280D01*
X42380609Y-39728979D01*
X42340142Y-39684330D01*
X42325500Y-39625877D01*
X42325500Y-39436188D01*
X42334939Y-39388735D01*
X42361819Y-39348507D01*
X43793507Y-37916819D01*
X43833735Y-37889939D01*
X43881188Y-37880500D01*
X48770373Y-37880500D01*
X48781180Y-37880971D01*
X48818807Y-37884264D01*
X48855324Y-37874478D01*
X48865830Y-37872149D01*
X48903045Y-37865588D01*
X48903047Y-37865586D01*
X48904112Y-37865399D01*
X48928799Y-37855173D01*
X48929682Y-37854554D01*
X48929684Y-37854554D01*
X48960625Y-37832887D01*
X48969722Y-37827091D01*
X49002455Y-37808194D01*
X49026748Y-37779241D01*
X49034036Y-37771288D01*
X49413453Y-37391871D01*
X49471003Y-37359270D01*
X49537126Y-37360892D01*
X49718868Y-37416024D01*
X49915000Y-37435341D01*
X50111132Y-37416024D01*
X50299727Y-37358814D01*
X50473538Y-37265910D01*
X50625883Y-37140883D01*
X50750910Y-36988538D01*
X50843814Y-36814727D01*
X50884683Y-36680000D01*
X51433590Y-36680000D01*
X51480233Y-36833764D01*
X51577731Y-37016171D01*
X51708945Y-37176054D01*
X51868828Y-37307268D01*
X52051235Y-37404766D01*
X52205000Y-37451410D01*
X52205000Y-36680000D01*
X52705000Y-36680000D01*
X52705000Y-37451410D01*
X52858764Y-37404766D01*
X53041171Y-37307268D01*
X53201054Y-37176054D01*
X53332268Y-37016171D01*
X53429766Y-36833764D01*
X53476410Y-36680000D01*
X53973590Y-36680000D01*
X54020233Y-36833764D01*
X54117731Y-37016171D01*
X54248945Y-37176054D01*
X54408828Y-37307268D01*
X54591235Y-37404766D01*
X54745000Y-37451410D01*
X54745000Y-36680000D01*
X55245000Y-36680000D01*
X55245000Y-37451410D01*
X55398764Y-37404766D01*
X55581171Y-37307268D01*
X55741054Y-37176054D01*
X55872268Y-37016171D01*
X55969766Y-36833764D01*
X56016410Y-36680000D01*
X55245000Y-36680000D01*
X54745000Y-36680000D01*
X53973590Y-36680000D01*
X53476410Y-36680000D01*
X52705000Y-36680000D01*
X52205000Y-36680000D01*
X51433590Y-36680000D01*
X50884683Y-36680000D01*
X50901024Y-36626132D01*
X50920341Y-36430000D01*
X50901024Y-36233868D01*
X50845892Y-36052126D01*
X50844270Y-35986004D01*
X50876873Y-35928452D01*
X51493507Y-35311819D01*
X51533735Y-35284939D01*
X51581188Y-35275500D01*
X51892458Y-35275500D01*
X51955160Y-35292521D01*
G37*
%TD.AperFunction*%
%TD*%
M02*
