%TF.GenerationSoftware,KiCad,Pcbnew,7.0.1*%
%TF.CreationDate,2023-08-14T10:43:38-04:00*%
%TF.ProjectId,TacTile-D,54616354-696c-4652-9d44-2e6b69636164,rev?*%
%TF.SameCoordinates,Original*%
%TF.FileFunction,Soldermask,Top*%
%TF.FilePolarity,Negative*%
%FSLAX46Y46*%
G04 Gerber Fmt 4.6, Leading zero omitted, Abs format (unit mm)*
G04 Created by KiCad (PCBNEW 7.0.1) date 2023-08-14 10:43:38*
%MOMM*%
%LPD*%
G01*
G04 APERTURE LIST*
%ADD10R,1.600000X1.600000*%
%ADD11O,1.600000X1.600000*%
%ADD12R,1.350000X1.350000*%
%ADD13O,1.350000X1.350000*%
%ADD14R,1.000000X1.000000*%
%ADD15O,1.000000X1.000000*%
G04 APERTURE END LIST*
D10*
%TO.C,U2*%
X51200000Y-67700000D03*
D11*
X51200000Y-70240000D03*
X51200000Y-72780000D03*
X58820000Y-72780000D03*
X58820000Y-70240000D03*
X58820000Y-67700000D03*
%TD*%
D12*
%TO.C,J1*%
X31100000Y-60000000D03*
D13*
X31100000Y-58000000D03*
X31100000Y-56000000D03*
X31100000Y-54000000D03*
X31100000Y-52000000D03*
X31100000Y-50000000D03*
%TD*%
D10*
%TO.C,U7*%
X34700000Y-51200000D03*
D11*
X34700000Y-53740000D03*
X34700000Y-56280000D03*
X34700000Y-58820000D03*
X42320000Y-58820000D03*
X42320000Y-56280000D03*
X42320000Y-53740000D03*
X42320000Y-51200000D03*
%TD*%
D12*
%TO.C,J2*%
X50000000Y-31100000D03*
D13*
X52000000Y-31100000D03*
X54000000Y-31100000D03*
X56000000Y-31100000D03*
X58000000Y-31100000D03*
X60000000Y-31100000D03*
%TD*%
D10*
%TO.C,U3*%
X28600000Y-75300000D03*
D11*
X31140000Y-75300000D03*
X33680000Y-75300000D03*
X36220000Y-75300000D03*
X38760000Y-75300000D03*
X41300000Y-75300000D03*
X43840000Y-75300000D03*
X46380000Y-75300000D03*
X46380000Y-67680000D03*
X43840000Y-67680000D03*
X41300000Y-67680000D03*
X38760000Y-67680000D03*
X36220000Y-67680000D03*
X33680000Y-67680000D03*
X31140000Y-67680000D03*
X28600000Y-67680000D03*
%TD*%
D12*
%TO.C,J3*%
X79675000Y-60000000D03*
D13*
X79675000Y-58000000D03*
X79675000Y-56000000D03*
X79675000Y-54000000D03*
X79675000Y-52000000D03*
X79675000Y-50000000D03*
%TD*%
D14*
%TO.C,J7*%
X35000000Y-26325000D03*
D15*
X36270000Y-26325000D03*
%TD*%
D10*
%TO.C,U1*%
X68450000Y-51200000D03*
D11*
X68450000Y-53740000D03*
X68450000Y-56280000D03*
X68450000Y-58820000D03*
X76070000Y-58820000D03*
X76070000Y-56280000D03*
X76070000Y-53740000D03*
X76070000Y-51200000D03*
%TD*%
D10*
%TO.C,U6*%
X44125000Y-35250000D03*
D11*
X41585000Y-35250000D03*
X39045000Y-35250000D03*
X36505000Y-35250000D03*
X33965000Y-35250000D03*
X31425000Y-35250000D03*
X28885000Y-35250000D03*
X28885000Y-42870000D03*
X31425000Y-42870000D03*
X33965000Y-42870000D03*
X36505000Y-42870000D03*
X39045000Y-42870000D03*
X41585000Y-42870000D03*
X44125000Y-42870000D03*
%TD*%
D14*
%TO.C,J5*%
X35000000Y-83575000D03*
D15*
X36270000Y-83575000D03*
X37540000Y-83575000D03*
X38810000Y-83575000D03*
%TD*%
D14*
%TO.C,J8*%
X73730000Y-26325000D03*
D15*
X75000000Y-26325000D03*
%TD*%
D10*
%TO.C,U8*%
X48950000Y-37700000D03*
D11*
X48950000Y-40240000D03*
X48950000Y-42780000D03*
X56570000Y-42780000D03*
X56570000Y-40240000D03*
X56570000Y-37700000D03*
%TD*%
D10*
%TO.C,U5*%
X45950000Y-51200000D03*
D11*
X45950000Y-53740000D03*
X45950000Y-56280000D03*
X45950000Y-58820000D03*
X53570000Y-58820000D03*
X53570000Y-56280000D03*
X53570000Y-53740000D03*
X53570000Y-51200000D03*
%TD*%
D12*
%TO.C,J4*%
X50000000Y-79675000D03*
D13*
X52000000Y-79675000D03*
X54000000Y-79675000D03*
X56000000Y-79675000D03*
X58000000Y-79675000D03*
X60000000Y-79675000D03*
%TD*%
D14*
%TO.C,J6*%
X69920000Y-83575000D03*
D15*
X71190000Y-83575000D03*
X72460000Y-83575000D03*
X73730000Y-83575000D03*
X75000000Y-83575000D03*
%TD*%
D10*
%TO.C,U10*%
X73700000Y-37700000D03*
D11*
X73700000Y-40240000D03*
X73700000Y-42780000D03*
X81320000Y-42780000D03*
X81320000Y-40240000D03*
X81320000Y-37700000D03*
%TD*%
D10*
%TO.C,U4*%
X63600000Y-75300000D03*
D11*
X66140000Y-75300000D03*
X68680000Y-75300000D03*
X71220000Y-75300000D03*
X73760000Y-75300000D03*
X76300000Y-75300000D03*
X78840000Y-75300000D03*
X81380000Y-75300000D03*
X81380000Y-67680000D03*
X78840000Y-67680000D03*
X76300000Y-67680000D03*
X73760000Y-67680000D03*
X71220000Y-67680000D03*
X68680000Y-67680000D03*
X66140000Y-67680000D03*
X63600000Y-67680000D03*
%TD*%
D10*
%TO.C,U9*%
X61450000Y-37700000D03*
D11*
X61450000Y-40240000D03*
X61450000Y-42780000D03*
X69070000Y-42780000D03*
X69070000Y-40240000D03*
X69070000Y-37700000D03*
%TD*%
D10*
%TO.C,U11*%
X57200000Y-51200000D03*
D11*
X57200000Y-53740000D03*
X57200000Y-56280000D03*
X57200000Y-58820000D03*
X64820000Y-58820000D03*
X64820000Y-56280000D03*
X64820000Y-53740000D03*
X64820000Y-51200000D03*
%TD*%
M02*
