M48
; DRILL file {KiCad 7.0.1} date Mon Oct  9 19:01:13 2023
; FORMAT={-:-/ absolute / inch / decimal}
; #@! TF.CreationDate,2023-10-09T19:01:13-04:00
; #@! TF.GenerationSoftware,Kicad,Pcbnew,7.0.1
; #@! TF.FileFunction,Plated,1,2,PTH
FMAT,2
INCH
; #@! TA.AperFunction,Plated,PTH,ViaDrill
T1C0.0157
; #@! TA.AperFunction,Plated,PTH,ComponentDrill
T2C0.0315
; #@! TA.AperFunction,Plated,PTH,ComponentDrill
T3C0.0394
%
G90
G05
T1
X1.2598Y-1.4862
X1.4252Y-1.7795
X1.685Y-1.748
X1.7559Y-1.7008
X1.9449Y-1.9528
X2.1496Y-1.6772
X2.2809Y-1.4971
X2.3088Y-2.0787
X2.3622Y-1.6772
X2.4488Y-2.501
X2.5276Y-2.3543
X2.5674Y-1.9916
X2.5886Y-1.8346
X2.5886Y-1.874
T2
X1.1073Y-2.6685
X1.1073Y-2.9685
X1.1093Y-1.2866
X1.1093Y-1.5866
X1.2073Y-2.6685
X1.2073Y-2.9685
X1.2093Y-1.2866
X1.2093Y-1.5866
X1.3073Y-2.6685
X1.3073Y-2.9685
X1.3093Y-1.2866
X1.3093Y-1.5866
X1.4073Y-2.6685
X1.4073Y-2.9685
X1.4093Y-1.2866
X1.4093Y-1.5866
X1.4222Y-2.2512
X1.4222Y-2.5512
X1.5073Y-2.6685
X1.5073Y-2.9685
X1.5093Y-1.2866
X1.5093Y-1.5866
X1.5222Y-2.2512
X1.5222Y-2.5512
X1.6073Y-2.6685
X1.6073Y-2.9685
X1.6093Y-1.2866
X1.6093Y-1.5866
X1.6222Y-2.2512
X1.6222Y-2.5512
X1.7073Y-2.6685
X1.7073Y-2.9685
X1.7093Y-1.2866
X1.7093Y-1.5866
X1.7222Y-2.2512
X1.7222Y-2.5512
X1.736Y-1.8386
X1.736Y-2.1386
X1.8073Y-2.6685
X1.8073Y-2.9685
X1.8222Y-2.2512
X1.8222Y-2.5512
X1.836Y-1.8386
X1.836Y-2.1386
X1.8652Y-1.4343
X1.8652Y-1.7343
X1.9222Y-2.2512
X1.9222Y-2.5512
X1.936Y-1.8386
X1.936Y-2.1386
X1.9652Y-1.4343
X1.9652Y-1.7343
X2.0222Y-2.2512
X2.0222Y-2.5512
X2.036Y-1.8386
X2.036Y-2.1386
X2.0652Y-1.4343
X2.0652Y-1.7343
X2.1222Y-2.2512
X2.1222Y-2.5512
X2.136Y-1.8386
X2.136Y-2.1386
X2.1652Y-1.4343
X2.1652Y-1.7343
X2.236Y-1.8386
X2.236Y-2.1386
X2.2652Y-1.4343
X2.2652Y-1.7343
X2.2884Y-2.2512
X2.2884Y-2.5512
X2.336Y-1.8386
X2.336Y-2.1386
X2.3652Y-1.4343
X2.3652Y-1.7343
X2.3884Y-2.2512
X2.3884Y-2.5512
X2.436Y-1.8386
X2.436Y-2.1386
X2.4652Y-1.4343
X2.4652Y-1.7343
X2.4884Y-2.2512
X2.4884Y-2.5512
X2.5246Y-2.6673
X2.5246Y-2.9673
X2.5768Y-1.1762
X2.5768Y-1.2762
X2.5768Y-1.3762
X2.5768Y-1.4762
X2.5768Y-1.5762
X2.5768Y-1.6762
X2.5768Y-1.7762
X2.5884Y-2.2512
X2.5884Y-2.5512
X2.6246Y-2.6673
X2.6246Y-2.9673
X2.6884Y-2.2512
X2.6884Y-2.5512
X2.7246Y-2.6673
X2.7246Y-2.9673
X2.7884Y-2.2512
X2.7884Y-2.5512
X2.8246Y-2.6673
X2.8246Y-2.9673
X2.8768Y-1.1762
X2.8768Y-1.2762
X2.8768Y-1.3762
X2.8768Y-1.4762
X2.8768Y-1.5762
X2.8768Y-1.6762
X2.8768Y-1.7762
X2.8884Y-2.2512
X2.8884Y-2.5512
X2.9246Y-2.6673
X2.9246Y-2.9673
X2.978Y-1.1756
X2.978Y-1.2756
X2.978Y-1.3756
X2.978Y-1.4756
X2.978Y-1.5756
X2.978Y-1.6756
X2.978Y-1.7756
X3.0246Y-2.6673
X3.0246Y-2.9673
X3.1246Y-2.6673
X3.1246Y-2.9673
X3.2246Y-2.6673
X3.2246Y-2.9673
X3.278Y-1.1756
X3.278Y-1.2756
X3.278Y-1.3756
X3.278Y-1.4756
X3.278Y-1.5756
X3.278Y-1.6756
X3.278Y-1.7756
T3
X1.2677Y-1.9163
X1.2677Y-2.0163
X1.2677Y-2.1163
X1.2677Y-2.2163
X1.2677Y-2.3163
X1.2677Y-2.4163
X1.3386Y-3.2923
X1.378Y-1.0384
X1.4386Y-3.2923
X1.478Y-1.0384
X1.5386Y-3.2923
X1.6386Y-3.2923
X1.9144Y-1.3071
X1.9154Y-3.1033
X2.0144Y-1.3071
X2.0154Y-3.1033
X2.1144Y-1.3071
X2.1154Y-3.1033
X2.2144Y-1.3071
X2.2154Y-3.1033
X2.3144Y-1.3071
X2.3154Y-3.1033
X2.4144Y-1.3071
X2.4154Y-3.1033
X2.5921Y-3.2923
X2.6921Y-3.2923
X2.7921Y-3.2923
X2.8528Y-1.0384
X2.8921Y-3.2923
X2.9528Y-1.0384
X2.9921Y-3.2923
X3.064Y-1.9154
X3.064Y-2.0154
X3.064Y-2.1154
X3.064Y-2.2154
X3.064Y-2.3154
X3.064Y-2.4154
T0
M30
