%TF.GenerationSoftware,KiCad,Pcbnew,7.0.1*%
%TF.CreationDate,2023-08-14T10:43:38-04:00*%
%TF.ProjectId,TacTile-D,54616354-696c-4652-9d44-2e6b69636164,rev?*%
%TF.SameCoordinates,Original*%
%TF.FileFunction,Copper,L1,Top*%
%TF.FilePolarity,Positive*%
%FSLAX46Y46*%
G04 Gerber Fmt 4.6, Leading zero omitted, Abs format (unit mm)*
G04 Created by KiCad (PCBNEW 7.0.1) date 2023-08-14 10:43:38*
%MOMM*%
%LPD*%
G01*
G04 APERTURE LIST*
%TA.AperFunction,ComponentPad*%
%ADD10R,1.600000X1.600000*%
%TD*%
%TA.AperFunction,ComponentPad*%
%ADD11O,1.600000X1.600000*%
%TD*%
%TA.AperFunction,ComponentPad*%
%ADD12R,1.350000X1.350000*%
%TD*%
%TA.AperFunction,ComponentPad*%
%ADD13O,1.350000X1.350000*%
%TD*%
%TA.AperFunction,ComponentPad*%
%ADD14R,1.000000X1.000000*%
%TD*%
%TA.AperFunction,ComponentPad*%
%ADD15O,1.000000X1.000000*%
%TD*%
%TA.AperFunction,ViaPad*%
%ADD16C,0.800000*%
%TD*%
%TA.AperFunction,Conductor*%
%ADD17C,0.250000*%
%TD*%
%TA.AperFunction,Conductor*%
%ADD18C,1.000000*%
%TD*%
G04 APERTURE END LIST*
D10*
%TO.P,U2,1*%
%TO.N,CLK*%
X51200000Y-67700000D03*
D11*
%TO.P,U2,2,GND*%
%TO.N,GND*%
X51200000Y-70240000D03*
%TO.P,U2,3*%
%TO.N,Net-(U3-QD)*%
X51200000Y-72780000D03*
%TO.P,U2,4*%
%TO.N,LEN*%
X58820000Y-72780000D03*
%TO.P,U2,5,VCC*%
%TO.N,VCC*%
X58820000Y-70240000D03*
%TO.P,U2,6*%
%TO.N,Net-(U4-CPR)*%
X58820000Y-67700000D03*
%TD*%
D12*
%TO.P,J1,1,Pin_1*%
%TO.N,CLK*%
X31100000Y-60000000D03*
D13*
%TO.P,J1,2,Pin_2*%
%TO.N,MOSI*%
X31100000Y-58000000D03*
%TO.P,J1,3,Pin_3*%
%TO.N,SS*%
X31100000Y-56000000D03*
%TO.P,J1,4,Pin_4*%
%TO.N,VIN*%
X31100000Y-54000000D03*
%TO.P,J1,5,Pin_5*%
%TO.N,VCC*%
X31100000Y-52000000D03*
%TO.P,J1,6,Pin_6*%
%TO.N,GND*%
X31100000Y-50000000D03*
%TD*%
D10*
%TO.P,U7,1*%
%TO.N,Net-(U6B-~{R})*%
X34700000Y-51200000D03*
D11*
%TO.P,U7,2*%
%TO.N,Net-(U6B-~{Q})*%
X34700000Y-53740000D03*
%TO.P,U7,3*%
%TO.N,Net-(U6B-~{S})*%
X34700000Y-56280000D03*
%TO.P,U7,4,GND*%
%TO.N,GND*%
X34700000Y-58820000D03*
%TO.P,U7,5*%
%TO.N,Net-(U5-Pad7)*%
X42320000Y-58820000D03*
%TO.P,U7,6*%
%TO.N,Net-(U10-LE)*%
X42320000Y-56280000D03*
%TO.P,U7,7*%
%TO.N,Net-(U6A-~{R})*%
X42320000Y-53740000D03*
%TO.P,U7,8,VCC*%
%TO.N,VCC*%
X42320000Y-51200000D03*
%TD*%
D12*
%TO.P,J2,1,Pin_1*%
%TO.N,CLK*%
X50000000Y-31100000D03*
D13*
%TO.P,J2,2,Pin_2*%
%TO.N,MOSI*%
X52000000Y-31100000D03*
%TO.P,J2,3,Pin_3*%
%TO.N,SS*%
X54000000Y-31100000D03*
%TO.P,J2,4,Pin_4*%
%TO.N,VIN*%
X56000000Y-31100000D03*
%TO.P,J2,5,Pin_5*%
%TO.N,VCC*%
X58000000Y-31100000D03*
%TO.P,J2,6,Pin_6*%
%TO.N,GND*%
X60000000Y-31100000D03*
%TD*%
D10*
%TO.P,U3,1,QB*%
%TO.N,LS1*%
X28600000Y-75300000D03*
D11*
%TO.P,U3,2,QC*%
%TO.N,LS2*%
X31140000Y-75300000D03*
%TO.P,U3,3,QD*%
%TO.N,Net-(U3-QD)*%
X33680000Y-75300000D03*
%TO.P,U3,4,QE*%
%TO.N,unconnected-(U3-QE-Pad4)*%
X36220000Y-75300000D03*
%TO.P,U3,5,QF*%
%TO.N,unconnected-(U3-QF-Pad5)*%
X38760000Y-75300000D03*
%TO.P,U3,6,QG*%
%TO.N,unconnected-(U3-QG-Pad6)*%
X41300000Y-75300000D03*
%TO.P,U3,7,QH*%
%TO.N,unconnected-(U3-QH-Pad7)*%
X43840000Y-75300000D03*
%TO.P,U3,8,GND*%
%TO.N,GND*%
X46380000Y-75300000D03*
%TO.P,U3,9,QH'*%
%TO.N,unconnected-(U3-QH'-Pad9)*%
X46380000Y-67680000D03*
%TO.P,U3,10,~{SRCLR}*%
%TO.N,SEN*%
X43840000Y-67680000D03*
%TO.P,U3,11,SRCLK*%
%TO.N,CLK*%
X41300000Y-67680000D03*
%TO.P,U3,12,RCLK*%
%TO.N,Net-(U3-RCLK)*%
X38760000Y-67680000D03*
%TO.P,U3,13,~{OE}*%
%TO.N,GND*%
X36220000Y-67680000D03*
%TO.P,U3,14,SER*%
%TO.N,MOSI*%
X33680000Y-67680000D03*
%TO.P,U3,15,QA*%
%TO.N,LS0*%
X31140000Y-67680000D03*
%TO.P,U3,16,VCC*%
%TO.N,VCC*%
X28600000Y-67680000D03*
%TD*%
D12*
%TO.P,J3,1,Pin_1*%
%TO.N,CLK*%
X79675000Y-60000000D03*
D13*
%TO.P,J3,2,Pin_2*%
%TO.N,MISO0*%
X79675000Y-58000000D03*
%TO.P,J3,3,Pin_3*%
%TO.N,SS*%
X79675000Y-56000000D03*
%TO.P,J3,4,Pin_4*%
%TO.N,VIN*%
X79675000Y-54000000D03*
%TO.P,J3,5,Pin_5*%
%TO.N,VCC*%
X79675000Y-52000000D03*
%TO.P,J3,6,Pin_6*%
%TO.N,GND*%
X79675000Y-50000000D03*
%TD*%
D14*
%TO.P,J7,1,Pin_1*%
%TO.N,VIN*%
X35000000Y-26325000D03*
D15*
%TO.P,J7,2,Pin_2*%
%TO.N,GND*%
X36270000Y-26325000D03*
%TD*%
D10*
%TO.P,U1,1*%
%TO.N,Net-(U4-Q0)*%
X68450000Y-51200000D03*
D11*
%TO.P,U1,2*%
%TO.N,Net-(U4-Q1)*%
X68450000Y-53740000D03*
%TO.P,U1,3*%
%TO.N,Net-(U11-C)*%
X68450000Y-56280000D03*
%TO.P,U1,4,GND*%
%TO.N,GND*%
X68450000Y-58820000D03*
%TO.P,U1,5*%
%TO.N,Net-(U6A-~{Q})*%
X76070000Y-58820000D03*
%TO.P,U1,6*%
%TO.N,MOSI*%
X76070000Y-56280000D03*
%TO.P,U1,7*%
%TO.N,Net-(U3-RCLK)*%
X76070000Y-53740000D03*
%TO.P,U1,8,VCC*%
%TO.N,VCC*%
X76070000Y-51200000D03*
%TD*%
D10*
%TO.P,U6,1,~{R}*%
%TO.N,Net-(U6A-~{R})*%
X44125000Y-35250000D03*
D11*
%TO.P,U6,2,D*%
%TO.N,Net-(U6A-D)*%
X41585000Y-35250000D03*
%TO.P,U6,3,C*%
%TO.N,Net-(U6A-C)*%
X39045000Y-35250000D03*
%TO.P,U6,4,~{S}*%
%TO.N,GND*%
X36505000Y-35250000D03*
%TO.P,U6,5,Q*%
%TO.N,Net-(U10-LE)*%
X33965000Y-35250000D03*
%TO.P,U6,6,~{Q}*%
%TO.N,Net-(U6A-~{Q})*%
X31425000Y-35250000D03*
%TO.P,U6,7,GND*%
%TO.N,GND*%
X28885000Y-35250000D03*
%TO.P,U6,8,~{Q}*%
%TO.N,Net-(U6B-~{Q})*%
X28885000Y-42870000D03*
%TO.P,U6,9,Q*%
%TO.N,SEN*%
X31425000Y-42870000D03*
%TO.P,U6,10,~{S}*%
%TO.N,Net-(U6B-~{S})*%
X33965000Y-42870000D03*
%TO.P,U6,11,C*%
%TO.N,GND*%
X36505000Y-42870000D03*
%TO.P,U6,12,D*%
X39045000Y-42870000D03*
%TO.P,U6,13,~{R}*%
%TO.N,Net-(U6B-~{R})*%
X41585000Y-42870000D03*
%TO.P,U6,14,VCC*%
%TO.N,VCC*%
X44125000Y-42870000D03*
%TD*%
D14*
%TO.P,J5,1,Pin_1*%
%TO.N,LS0*%
X35000000Y-83575000D03*
D15*
%TO.P,J5,2,Pin_2*%
%TO.N,LS1*%
X36270000Y-83575000D03*
%TO.P,J5,3,Pin_3*%
%TO.N,LS2*%
X37540000Y-83575000D03*
%TO.P,J5,4,Pin_4*%
%TO.N,LS3*%
X38810000Y-83575000D03*
%TD*%
D14*
%TO.P,J8,1,Pin_1*%
%TO.N,VCC*%
X73730000Y-26325000D03*
D15*
%TO.P,J8,2,Pin_2*%
%TO.N,LEN*%
X75000000Y-26325000D03*
%TD*%
D10*
%TO.P,U8,1*%
%TO.N,Net-(U11-Q)*%
X48950000Y-37700000D03*
D11*
%TO.P,U8,2,GND*%
%TO.N,GND*%
X48950000Y-40240000D03*
%TO.P,U8,3*%
%TO.N,Net-(U10-Q)*%
X48950000Y-42780000D03*
%TO.P,U8,4*%
%TO.N,MISO1*%
X56570000Y-42780000D03*
%TO.P,U8,5,VCC*%
%TO.N,VCC*%
X56570000Y-40240000D03*
%TO.P,U8,6*%
%TO.N,MISO0*%
X56570000Y-37700000D03*
%TD*%
D10*
%TO.P,U5,1*%
%TO.N,MOSI*%
X45950000Y-51200000D03*
D11*
%TO.P,U5,2*%
%TO.N,CLK*%
X45950000Y-53740000D03*
%TO.P,U5,3*%
%TO.N,Net-(U6B-~{R})*%
X45950000Y-56280000D03*
%TO.P,U5,4,GND*%
%TO.N,GND*%
X45950000Y-58820000D03*
%TO.P,U5,5*%
%TO.N,CLK*%
X53570000Y-58820000D03*
%TO.P,U5,6*%
%TO.N,SS*%
X53570000Y-56280000D03*
%TO.P,U5,7*%
%TO.N,Net-(U5-Pad7)*%
X53570000Y-53740000D03*
%TO.P,U5,8,VCC*%
%TO.N,VCC*%
X53570000Y-51200000D03*
%TD*%
D12*
%TO.P,J4,1,Pin_1*%
%TO.N,CLK*%
X50000000Y-79675000D03*
D13*
%TO.P,J4,2,Pin_2*%
%TO.N,MISO1*%
X52000000Y-79675000D03*
%TO.P,J4,3,Pin_3*%
%TO.N,SS*%
X54000000Y-79675000D03*
%TO.P,J4,4,Pin_4*%
%TO.N,VIN*%
X56000000Y-79675000D03*
%TO.P,J4,5,Pin_5*%
%TO.N,VCC*%
X58000000Y-79675000D03*
%TO.P,J4,6,Pin_6*%
%TO.N,GND*%
X60000000Y-79675000D03*
%TD*%
D14*
%TO.P,J6,1,Pin_1*%
%TO.N,LS4*%
X69920000Y-83575000D03*
D15*
%TO.P,J6,2,Pin_2*%
%TO.N,LS5*%
X71190000Y-83575000D03*
%TO.P,J6,3,Pin_3*%
%TO.N,LS6*%
X72460000Y-83575000D03*
%TO.P,J6,4,Pin_4*%
%TO.N,LS7*%
X73730000Y-83575000D03*
%TO.P,J6,5,Pin_5*%
%TO.N,LS8*%
X75000000Y-83575000D03*
%TD*%
D10*
%TO.P,U10,1,LE*%
%TO.N,Net-(U10-LE)*%
X73700000Y-37700000D03*
D11*
%TO.P,U10,2,GND*%
%TO.N,GND*%
X73700000Y-40240000D03*
%TO.P,U10,3,D*%
%TO.N,MOSI*%
X73700000Y-42780000D03*
%TO.P,U10,4,Q*%
%TO.N,Net-(U10-Q)*%
X81320000Y-42780000D03*
%TO.P,U10,5,VCC*%
%TO.N,VCC*%
X81320000Y-40240000D03*
%TO.P,U10,6,~{OE}*%
%TO.N,GND*%
X81320000Y-37700000D03*
%TD*%
D10*
%TO.P,U4,1,Q1*%
%TO.N,Net-(U4-Q1)*%
X63600000Y-75300000D03*
D11*
%TO.P,U4,2,Q2*%
%TO.N,LS3*%
X66140000Y-75300000D03*
%TO.P,U4,3,Q3*%
%TO.N,LS4*%
X68680000Y-75300000D03*
%TO.P,U4,4,Q4*%
%TO.N,LS5*%
X71220000Y-75300000D03*
%TO.P,U4,5,Q5*%
%TO.N,LS6*%
X73760000Y-75300000D03*
%TO.P,U4,6,Q6*%
%TO.N,LS7*%
X76300000Y-75300000D03*
%TO.P,U4,7,Q7*%
%TO.N,LS8*%
X78840000Y-75300000D03*
%TO.P,U4,8,GND*%
%TO.N,GND*%
X81380000Y-75300000D03*
%TO.P,U4,9,~{RCO}*%
%TO.N,unconnected-(U4-~{RCO}-Pad9)*%
X81380000Y-67680000D03*
%TO.P,U4,10,~{MRC}*%
%TO.N,SEN*%
X78840000Y-67680000D03*
%TO.P,U4,11,CPC*%
%TO.N,CLK*%
X76300000Y-67680000D03*
%TO.P,U4,12,~{CE}*%
%TO.N,GND*%
X73760000Y-67680000D03*
%TO.P,U4,13,CPR*%
%TO.N,Net-(U4-CPR)*%
X71220000Y-67680000D03*
%TO.P,U4,14,~{OE}*%
%TO.N,GND*%
X68680000Y-67680000D03*
%TO.P,U4,15,Q0*%
%TO.N,Net-(U4-Q0)*%
X66140000Y-67680000D03*
%TO.P,U4,16,VCC*%
%TO.N,VCC*%
X63600000Y-67680000D03*
%TD*%
D10*
%TO.P,U9,1*%
%TO.N,Net-(U6A-C)*%
X61450000Y-37700000D03*
D11*
%TO.P,U9,2,GND*%
%TO.N,GND*%
X61450000Y-40240000D03*
%TO.P,U9,3*%
%TO.N,Net-(U11-C)*%
X61450000Y-42780000D03*
%TO.P,U9,4*%
%TO.N,Net-(U6A-C)*%
X69070000Y-42780000D03*
%TO.P,U9,5,VCC*%
%TO.N,VCC*%
X69070000Y-40240000D03*
%TO.P,U9,6*%
%TO.N,Net-(U6A-D)*%
X69070000Y-37700000D03*
%TD*%
D10*
%TO.P,U11,1,C*%
%TO.N,Net-(U11-C)*%
X57200000Y-51200000D03*
D11*
%TO.P,U11,2,D*%
%TO.N,SS*%
X57200000Y-53740000D03*
%TO.P,U11,3,~{Q}*%
%TO.N,unconnected-(U11-~{Q}-Pad3)*%
X57200000Y-56280000D03*
%TO.P,U11,4,GND*%
%TO.N,GND*%
X57200000Y-58820000D03*
%TO.P,U11,5,Q*%
%TO.N,Net-(U11-Q)*%
X64820000Y-58820000D03*
%TO.P,U11,6,~{CLR}*%
%TO.N,GND*%
X64820000Y-56280000D03*
%TO.P,U11,7,~{PRE}*%
X64820000Y-53740000D03*
%TO.P,U11,8,VCC*%
%TO.N,VCC*%
X64820000Y-51200000D03*
%TD*%
D16*
%TO.N,CLK*%
X51750000Y-54000000D03*
%TO.N,MOSI*%
X52000000Y-44500000D03*
%TO.N,SS*%
X44025500Y-54958196D03*
X46750000Y-55000000D03*
%TO.N,VCC*%
X53970500Y-40250000D03*
%TO.N,MISO0*%
X55419500Y-45949500D03*
X78750000Y-46000000D03*
%TO.N,MISO1*%
X53250000Y-60750000D03*
X55500000Y-60750000D03*
%TO.N,Net-(U11-C)*%
X67481012Y-52730213D03*
%TO.N,Net-(U6A-~{Q})*%
X38250000Y-44750000D03*
X74500000Y-46750000D03*
%TO.N,Net-(U3-RCLK)*%
X69750000Y-65250000D03*
%TO.N,Net-(U6B-~{R})*%
X41000000Y-49747701D03*
%TO.N,Net-(U5-Pad7)*%
X52512299Y-57737701D03*
%TO.N,Net-(U6A-C)*%
X62849130Y-42747712D03*
%TO.N,Net-(U10-LE)*%
X40250000Y-44500000D03*
X75000000Y-45250000D03*
%TO.N,Net-(U11-Q)*%
X50000000Y-47474500D03*
X66000000Y-49250000D03*
%TD*%
D17*
%TO.N,CLK*%
X51750000Y-54000000D02*
X51490000Y-53740000D01*
X42425000Y-68805000D02*
X41300000Y-67680000D01*
X53570000Y-58820000D02*
X54750000Y-60000000D01*
X51490000Y-53740000D02*
X45950000Y-53740000D01*
X51200000Y-67700000D02*
X50095000Y-68805000D01*
X54750000Y-60000000D02*
X79675000Y-60000000D01*
X50095000Y-68805000D02*
X42425000Y-68805000D01*
%TO.N,MOSI*%
X45950000Y-50550000D02*
X45950000Y-51200000D01*
X44750000Y-55440991D02*
X44750000Y-52400000D01*
X31100000Y-58000000D02*
X31405000Y-57695000D01*
X73700000Y-42780000D02*
X71980000Y-44500000D01*
X42495991Y-57695000D02*
X44750000Y-55440991D01*
X31405000Y-57695000D02*
X42495991Y-57695000D01*
X44750000Y-52400000D02*
X45950000Y-51200000D01*
X71980000Y-44500000D02*
X52000000Y-44500000D01*
%TO.N,SS*%
X44025500Y-54958196D02*
X43973695Y-55010001D01*
X53570000Y-56280000D02*
X56110000Y-53740000D01*
X56110000Y-53740000D02*
X57200000Y-53740000D01*
X53570000Y-56280000D02*
X48030000Y-56280000D01*
X58325000Y-54865000D02*
X78540000Y-54865000D01*
X57200000Y-53740000D02*
X58325000Y-54865000D01*
X78540000Y-54865000D02*
X79675000Y-56000000D01*
X48030000Y-56280000D02*
X46750000Y-55000000D01*
X32089999Y-55010001D02*
X31100000Y-56000000D01*
X43973695Y-55010001D02*
X32089999Y-55010001D01*
D18*
%TO.N,VIN*%
X30050000Y-81050000D02*
X54625000Y-81050000D01*
X79675000Y-54000000D02*
X84000000Y-49675000D01*
X79950000Y-81050000D02*
X57375000Y-81050000D01*
X79675000Y-54000000D02*
X84000000Y-58325000D01*
X84000000Y-77000000D02*
X79950000Y-81050000D01*
X54625000Y-81050000D02*
X56000000Y-79675000D01*
X26050000Y-32752944D02*
X26050000Y-48950000D01*
X26000000Y-59100000D02*
X26000000Y-77000000D01*
X31100000Y-54000000D02*
X26000000Y-59100000D01*
X84000000Y-58325000D02*
X84000000Y-77000000D01*
X26000000Y-77000000D02*
X30050000Y-81050000D01*
X78500000Y-29500000D02*
X57600000Y-29500000D01*
X35000000Y-26325000D02*
X32477944Y-26325000D01*
X32477944Y-26325000D02*
X26050000Y-32752944D01*
X57375000Y-81050000D02*
X56000000Y-79675000D01*
X84000000Y-35000000D02*
X78500000Y-29500000D01*
X84000000Y-49675000D02*
X84000000Y-35000000D01*
X26050000Y-48950000D02*
X31100000Y-54000000D01*
X57600000Y-29500000D02*
X56000000Y-31100000D01*
D17*
%TO.N,VCC*%
X45630000Y-41365000D02*
X44125000Y-42870000D01*
X69070000Y-40240000D02*
X70195000Y-39115000D01*
X70195000Y-39115000D02*
X80195000Y-39115000D01*
X63695000Y-50075000D02*
X64820000Y-51200000D01*
X43445000Y-50075000D02*
X52445000Y-50075000D01*
X80195000Y-39115000D02*
X81320000Y-40240000D01*
X64820000Y-51200000D02*
X65945000Y-50075000D01*
X57695000Y-39115000D02*
X67945000Y-39115000D01*
X31100000Y-52000000D02*
X31425000Y-52325000D01*
X52855500Y-41365000D02*
X45630000Y-41365000D01*
X31425000Y-52325000D02*
X41195000Y-52325000D01*
X53970500Y-40250000D02*
X52855500Y-41365000D01*
X52445000Y-50075000D02*
X53570000Y-51200000D01*
X54695000Y-50075000D02*
X63695000Y-50075000D01*
X65945000Y-50075000D02*
X74945000Y-50075000D01*
X41195000Y-52325000D02*
X42320000Y-51200000D01*
X67945000Y-39115000D02*
X69070000Y-40240000D01*
X74945000Y-50075000D02*
X76070000Y-51200000D01*
X42320000Y-51200000D02*
X43445000Y-50075000D01*
X61380000Y-67680000D02*
X58820000Y-70240000D01*
X56570000Y-40240000D02*
X57695000Y-39115000D01*
X56570000Y-40240000D02*
X53980500Y-40240000D01*
X53980500Y-40240000D02*
X53970500Y-40250000D01*
X63600000Y-67680000D02*
X61380000Y-67680000D01*
X78875000Y-51200000D02*
X79675000Y-52000000D01*
X76070000Y-51200000D02*
X78875000Y-51200000D01*
X53570000Y-51200000D02*
X54695000Y-50075000D01*
%TO.N,MISO0*%
X78750000Y-46000000D02*
X55470000Y-46000000D01*
X55470000Y-46000000D02*
X55419500Y-45949500D01*
%TO.N,MISO1*%
X53250000Y-60750000D02*
X55500000Y-60750000D01*
%TO.N,Net-(U11-C)*%
X57200000Y-51200000D02*
X58325000Y-52325000D01*
X67075799Y-52325000D02*
X67481012Y-52730213D01*
X58325000Y-52325000D02*
X67075799Y-52325000D01*
%TO.N,Net-(U6A-~{Q})*%
X74500000Y-46750000D02*
X40250000Y-46750000D01*
X40250000Y-46750000D02*
X38250000Y-44750000D01*
%TO.N,Net-(U3-RCLK)*%
X41284009Y-69255000D02*
X40335000Y-69255000D01*
X69750000Y-65250000D02*
X42139009Y-65250000D01*
X40175000Y-68145991D02*
X41284009Y-69255000D01*
X40175000Y-67214009D02*
X40175000Y-68145991D01*
X40335000Y-69255000D02*
X38760000Y-67680000D01*
X42139009Y-65250000D02*
X40175000Y-67214009D01*
%TO.N,Net-(U3-QD)*%
X36200000Y-72780000D02*
X51200000Y-72780000D01*
X33680000Y-75300000D02*
X36200000Y-72780000D01*
%TO.N,Net-(U4-CPR)*%
X58820000Y-67700000D02*
X59965000Y-66555000D01*
X70095000Y-66555000D02*
X71220000Y-67680000D01*
X59965000Y-66555000D02*
X70095000Y-66555000D01*
%TO.N,SEN*%
X70275305Y-65750000D02*
X70050305Y-65975000D01*
X69224695Y-65750000D02*
X45770000Y-65750000D01*
X76910000Y-65750000D02*
X70275305Y-65750000D01*
X78840000Y-67680000D02*
X76910000Y-65750000D01*
X70050305Y-65975000D02*
X69449695Y-65975000D01*
X69449695Y-65975000D02*
X69224695Y-65750000D01*
X45770000Y-65750000D02*
X43840000Y-67680000D01*
%TO.N,Net-(U6B-~{R})*%
X41000000Y-49747701D02*
X36152299Y-49747701D01*
X36152299Y-49747701D02*
X34700000Y-51200000D01*
%TO.N,Net-(U5-Pad7)*%
X52469598Y-57695000D02*
X52512299Y-57737701D01*
X42320000Y-58820000D02*
X43445000Y-57695000D01*
X43445000Y-57695000D02*
X52469598Y-57695000D01*
%TO.N,Net-(U6A-D)*%
X42710000Y-34125000D02*
X41585000Y-35250000D01*
X65495000Y-34125000D02*
X42710000Y-34125000D01*
X69070000Y-37700000D02*
X65495000Y-34125000D01*
%TO.N,Net-(U6A-C)*%
X62849130Y-42747712D02*
X62881418Y-42780000D01*
X39045000Y-35250000D02*
X40170000Y-36375000D01*
X40170000Y-36375000D02*
X60125000Y-36375000D01*
X62881418Y-42780000D02*
X69070000Y-42780000D01*
X60125000Y-36375000D02*
X61450000Y-37700000D01*
%TO.N,Net-(U10-LE)*%
X74975000Y-45225000D02*
X75000000Y-45250000D01*
X40975000Y-45225000D02*
X74975000Y-45225000D01*
X40250000Y-44500000D02*
X40975000Y-45225000D01*
%TO.N,Net-(U11-Q)*%
X64224500Y-47474500D02*
X66000000Y-49250000D01*
X50000000Y-47474500D02*
X64224500Y-47474500D01*
%TO.N,Net-(U10-Q)*%
X81100000Y-43000000D02*
X75510991Y-43000000D01*
X74165991Y-41655000D02*
X53201896Y-41655000D01*
X81320000Y-42780000D02*
X81100000Y-43000000D01*
X53201896Y-41655000D02*
X52076896Y-42780000D01*
X52076896Y-42780000D02*
X48950000Y-42780000D01*
X75510991Y-43000000D02*
X74165991Y-41655000D01*
%TD*%
%TA.AperFunction,Conductor*%
%TO.N,GND*%
G36*
X84837500Y-25017113D02*
G01*
X84882887Y-25062500D01*
X84899500Y-25124500D01*
X84899500Y-34714137D01*
X84881617Y-34778287D01*
X84833126Y-34823934D01*
X84768013Y-34837911D01*
X84705060Y-34816187D01*
X84662425Y-34765028D01*
X84649009Y-34735219D01*
X84646152Y-34728326D01*
X84624818Y-34672070D01*
X84619053Y-34663719D01*
X84608036Y-34644183D01*
X84603878Y-34634944D01*
X84566788Y-34587603D01*
X84562352Y-34581574D01*
X84533046Y-34539117D01*
X84528183Y-34532071D01*
X84483145Y-34492171D01*
X84477707Y-34487051D01*
X79012940Y-29022283D01*
X79007822Y-29016847D01*
X78967929Y-28971817D01*
X78918432Y-28937651D01*
X78912405Y-28933216D01*
X78865054Y-28896120D01*
X78855813Y-28891961D01*
X78836273Y-28880941D01*
X78827930Y-28875182D01*
X78827927Y-28875181D01*
X78827926Y-28875180D01*
X78771701Y-28853856D01*
X78764783Y-28850991D01*
X78709929Y-28826303D01*
X78699952Y-28824475D01*
X78678339Y-28818450D01*
X78668873Y-28814860D01*
X78609172Y-28807610D01*
X78601771Y-28806483D01*
X78542607Y-28795641D01*
X78482566Y-28799274D01*
X78475079Y-28799500D01*
X57624921Y-28799500D01*
X57617434Y-28799274D01*
X57557391Y-28795641D01*
X57498227Y-28806483D01*
X57490828Y-28807610D01*
X57431124Y-28814860D01*
X57421651Y-28818453D01*
X57400047Y-28824476D01*
X57390069Y-28826305D01*
X57335225Y-28850987D01*
X57328310Y-28853851D01*
X57272070Y-28875181D01*
X57263723Y-28880943D01*
X57244187Y-28891961D01*
X57234944Y-28896121D01*
X57187608Y-28933205D01*
X57181582Y-28937639D01*
X57132072Y-28971816D01*
X57092184Y-29016838D01*
X57087052Y-29022289D01*
X55904569Y-30204772D01*
X55876057Y-30226064D01*
X55842671Y-30238381D01*
X55727966Y-30262764D01*
X55559837Y-30337619D01*
X55410950Y-30445791D01*
X55287804Y-30582559D01*
X55195785Y-30741940D01*
X55138915Y-30916969D01*
X55123321Y-31065343D01*
X55110707Y-31099999D01*
X55123320Y-31134653D01*
X55124183Y-31142862D01*
X55138915Y-31283030D01*
X55195785Y-31458059D01*
X55287804Y-31617440D01*
X55410950Y-31754208D01*
X55559837Y-31862380D01*
X55727968Y-31937237D01*
X55907980Y-31975500D01*
X55907981Y-31975500D01*
X56092019Y-31975500D01*
X56092020Y-31975500D01*
X56272031Y-31937237D01*
X56272032Y-31937236D01*
X56272034Y-31937236D01*
X56440161Y-31862381D01*
X56589050Y-31754207D01*
X56712195Y-31617440D01*
X56804214Y-31458059D01*
X56861085Y-31283029D01*
X56862773Y-31266965D01*
X56874172Y-31226542D01*
X56898410Y-31192245D01*
X56923581Y-31167074D01*
X56983893Y-31133815D01*
X57052651Y-31137869D01*
X57108638Y-31177988D01*
X57134581Y-31241793D01*
X57138915Y-31283030D01*
X57195785Y-31458059D01*
X57287804Y-31617440D01*
X57410950Y-31754208D01*
X57559837Y-31862380D01*
X57727968Y-31937237D01*
X57907980Y-31975500D01*
X57907981Y-31975500D01*
X58092019Y-31975500D01*
X58092020Y-31975500D01*
X58272031Y-31937237D01*
X58272032Y-31937236D01*
X58272034Y-31937236D01*
X58440161Y-31862381D01*
X58589050Y-31754207D01*
X58712195Y-31617440D01*
X58804214Y-31458059D01*
X58856046Y-31298535D01*
X58889092Y-31246464D01*
X58943138Y-31216752D01*
X59004814Y-31216752D01*
X59058860Y-31246464D01*
X59091907Y-31298538D01*
X59150315Y-31478304D01*
X59247536Y-31646696D01*
X59377643Y-31791193D01*
X59534952Y-31905486D01*
X59712586Y-31984572D01*
X59750000Y-31992525D01*
X59750000Y-31350000D01*
X60250000Y-31350000D01*
X60250000Y-31992525D01*
X60287413Y-31984572D01*
X60465047Y-31905486D01*
X60622356Y-31791193D01*
X60752463Y-31646696D01*
X60849684Y-31478304D01*
X60891372Y-31350000D01*
X60250000Y-31350000D01*
X59750000Y-31350000D01*
X59750000Y-30974000D01*
X59766613Y-30912000D01*
X59812000Y-30866613D01*
X59874000Y-30850000D01*
X60891372Y-30850000D01*
X60891372Y-30849999D01*
X60849684Y-30721695D01*
X60752463Y-30553303D01*
X60621155Y-30407473D01*
X60593872Y-30357847D01*
X60591500Y-30301265D01*
X60614534Y-30249530D01*
X60658169Y-30213432D01*
X60713304Y-30200500D01*
X78158481Y-30200500D01*
X78205934Y-30209939D01*
X78246162Y-30236819D01*
X83263181Y-35253837D01*
X83290061Y-35294065D01*
X83299500Y-35341518D01*
X83299500Y-49333481D01*
X83290061Y-49380934D01*
X83263181Y-49421162D01*
X80751419Y-51932922D01*
X80691104Y-51966184D01*
X80622345Y-51962128D01*
X80566358Y-51922007D01*
X80540418Y-51858204D01*
X80536085Y-51816971D01*
X80498581Y-51701546D01*
X80479214Y-51641940D01*
X80387195Y-51482559D01*
X80264049Y-51345791D01*
X80115162Y-51237619D01*
X79947031Y-51162762D01*
X79870959Y-51146593D01*
X79811856Y-51115695D01*
X79777308Y-51058649D01*
X79777308Y-50991957D01*
X79811856Y-50934911D01*
X79870959Y-50904013D01*
X79962412Y-50884574D01*
X80140047Y-50805486D01*
X80297356Y-50691193D01*
X80427463Y-50546696D01*
X80524684Y-50378304D01*
X80566372Y-50250000D01*
X78783628Y-50250000D01*
X78825315Y-50378304D01*
X78922536Y-50546696D01*
X79032926Y-50669294D01*
X79061790Y-50725216D01*
X79059485Y-50788105D01*
X79026605Y-50841763D01*
X78971618Y-50872370D01*
X78908687Y-50872043D01*
X78903807Y-50870735D01*
X78866180Y-50874028D01*
X78855372Y-50874500D01*
X77104795Y-50874500D01*
X77041046Y-50856858D01*
X76995437Y-50808954D01*
X76932492Y-50691193D01*
X76905910Y-50641462D01*
X76780883Y-50489117D01*
X76628538Y-50364090D01*
X76549361Y-50321769D01*
X76454726Y-50271185D01*
X76266133Y-50213976D01*
X76119152Y-50199500D01*
X76070000Y-50194659D01*
X76069999Y-50194659D01*
X75873869Y-50213975D01*
X75692128Y-50269106D01*
X75626003Y-50270729D01*
X75568452Y-50238126D01*
X75189043Y-49858717D01*
X75181734Y-49850741D01*
X75157454Y-49821805D01*
X75124736Y-49802915D01*
X75115627Y-49797112D01*
X75084684Y-49775446D01*
X75083803Y-49774829D01*
X75059107Y-49764599D01*
X75020852Y-49757853D01*
X75010296Y-49755512D01*
X74989721Y-49749999D01*
X78783627Y-49749999D01*
X78783628Y-49750000D01*
X79425000Y-49750000D01*
X79425000Y-49107474D01*
X79925000Y-49107474D01*
X79925000Y-49750000D01*
X80566372Y-49750000D01*
X80566372Y-49749999D01*
X80524684Y-49621695D01*
X80427463Y-49453303D01*
X80297356Y-49308806D01*
X80140047Y-49194513D01*
X79962413Y-49115427D01*
X79925000Y-49107474D01*
X79425000Y-49107474D01*
X79387585Y-49115427D01*
X79209952Y-49194513D01*
X79052643Y-49308805D01*
X78922536Y-49453303D01*
X78825315Y-49621695D01*
X78783627Y-49749999D01*
X74989721Y-49749999D01*
X74973807Y-49745735D01*
X74936180Y-49749028D01*
X74925372Y-49749500D01*
X66625082Y-49749500D01*
X66559602Y-49730801D01*
X66513870Y-49680345D01*
X66501679Y-49613348D01*
X66519439Y-49568400D01*
X66518289Y-49567924D01*
X66557643Y-49472913D01*
X66585044Y-49406762D01*
X66605682Y-49250000D01*
X66585044Y-49093238D01*
X66524536Y-48947159D01*
X66428282Y-48821717D01*
X66302840Y-48725463D01*
X66156762Y-48664956D01*
X65999999Y-48644317D01*
X65932180Y-48653246D01*
X65876136Y-48647726D01*
X65828314Y-48617988D01*
X64497507Y-47287181D01*
X64467257Y-47237818D01*
X64462715Y-47180102D01*
X64484870Y-47126615D01*
X64528893Y-47089015D01*
X64585188Y-47075500D01*
X73931701Y-47075500D01*
X73986545Y-47088288D01*
X74030076Y-47124013D01*
X74071718Y-47178282D01*
X74197159Y-47274536D01*
X74343238Y-47335044D01*
X74500000Y-47355682D01*
X74656762Y-47335044D01*
X74802841Y-47274536D01*
X74928282Y-47178282D01*
X75024536Y-47052841D01*
X75085044Y-46906762D01*
X75105682Y-46750000D01*
X75085044Y-46593238D01*
X75045160Y-46496951D01*
X75036319Y-46437346D01*
X75056620Y-46380609D01*
X75101269Y-46340142D01*
X75159722Y-46325500D01*
X78181701Y-46325500D01*
X78236545Y-46338288D01*
X78280076Y-46374013D01*
X78321718Y-46428282D01*
X78447159Y-46524536D01*
X78593238Y-46585044D01*
X78750000Y-46605682D01*
X78906762Y-46585044D01*
X79052841Y-46524536D01*
X79178282Y-46428282D01*
X79274536Y-46302841D01*
X79335044Y-46156762D01*
X79355682Y-46000000D01*
X79335044Y-45843238D01*
X79274536Y-45697159D01*
X79257149Y-45674500D01*
X79178282Y-45571717D01*
X79052840Y-45475463D01*
X78906762Y-45414956D01*
X78750000Y-45394317D01*
X78593237Y-45414956D01*
X78447159Y-45475463D01*
X78321718Y-45571717D01*
X78280077Y-45625986D01*
X78236545Y-45661712D01*
X78181701Y-45674500D01*
X75659722Y-45674500D01*
X75601269Y-45659858D01*
X75556620Y-45619391D01*
X75536319Y-45562654D01*
X75545161Y-45503047D01*
X75585044Y-45406762D01*
X75605682Y-45250000D01*
X75585044Y-45093238D01*
X75524536Y-44947159D01*
X75504989Y-44921685D01*
X75428282Y-44821717D01*
X75302840Y-44725463D01*
X75156762Y-44664956D01*
X75000000Y-44644317D01*
X74843237Y-44664956D01*
X74697159Y-44725463D01*
X74571718Y-44821717D01*
X74549260Y-44850986D01*
X74505728Y-44886712D01*
X74450884Y-44899500D01*
X72340187Y-44899500D01*
X72283892Y-44885985D01*
X72239869Y-44848385D01*
X72217714Y-44794898D01*
X72222256Y-44737182D01*
X72252506Y-44687819D01*
X72714862Y-44225463D01*
X73198454Y-43741871D01*
X73256004Y-43709270D01*
X73322126Y-43710892D01*
X73503868Y-43766024D01*
X73700000Y-43785341D01*
X73896132Y-43766024D01*
X74084727Y-43708814D01*
X74258538Y-43615910D01*
X74410883Y-43490883D01*
X74535910Y-43338538D01*
X74628814Y-43164727D01*
X74686024Y-42976132D01*
X74690880Y-42926826D01*
X74716528Y-42862692D01*
X74772508Y-42822230D01*
X74841451Y-42817994D01*
X74901964Y-42851300D01*
X75266946Y-43216282D01*
X75274254Y-43224256D01*
X75298535Y-43253193D01*
X75298536Y-43253194D01*
X75331257Y-43272085D01*
X75340351Y-43277878D01*
X75371307Y-43299554D01*
X75371308Y-43299554D01*
X75372192Y-43300173D01*
X75396882Y-43310400D01*
X75397945Y-43310587D01*
X75397946Y-43310588D01*
X75435137Y-43317145D01*
X75445695Y-43319486D01*
X75482182Y-43329263D01*
X75482183Y-43329262D01*
X75482184Y-43329263D01*
X75519802Y-43325971D01*
X75530609Y-43325500D01*
X80414743Y-43325500D01*
X80467760Y-43337405D01*
X80510594Y-43370834D01*
X80609117Y-43490883D01*
X80761462Y-43615910D01*
X80935273Y-43708814D01*
X81123868Y-43766024D01*
X81320000Y-43785341D01*
X81516132Y-43766024D01*
X81704727Y-43708814D01*
X81878538Y-43615910D01*
X82030883Y-43490883D01*
X82155910Y-43338538D01*
X82248814Y-43164727D01*
X82306024Y-42976132D01*
X82325341Y-42780000D01*
X82306024Y-42583868D01*
X82248814Y-42395273D01*
X82155910Y-42221462D01*
X82030883Y-42069117D01*
X81878538Y-41944090D01*
X81757306Y-41879290D01*
X81704726Y-41851185D01*
X81516133Y-41793976D01*
X81320000Y-41774659D01*
X81123866Y-41793976D01*
X80935273Y-41851185D01*
X80761463Y-41944089D01*
X80609117Y-42069117D01*
X80484089Y-42221463D01*
X80391185Y-42395273D01*
X80333178Y-42586496D01*
X80307746Y-42632259D01*
X80265693Y-42663447D01*
X80214518Y-42674500D01*
X75697180Y-42674500D01*
X75649727Y-42665061D01*
X75609499Y-42638181D01*
X74410034Y-41438717D01*
X74402725Y-41430741D01*
X74378445Y-41401805D01*
X74345727Y-41382915D01*
X74336618Y-41377112D01*
X74305675Y-41355446D01*
X74304794Y-41354829D01*
X74277492Y-41343520D01*
X74271412Y-41340010D01*
X74225518Y-41293742D01*
X74209425Y-41230593D01*
X74227576Y-41168003D01*
X74274958Y-41123261D01*
X74286173Y-41117266D01*
X74446054Y-40986054D01*
X74577268Y-40826171D01*
X74674766Y-40643764D01*
X74721410Y-40490000D01*
X72678590Y-40490000D01*
X72725233Y-40643764D01*
X72822731Y-40826171D01*
X72953945Y-40986054D01*
X73104542Y-41109647D01*
X73140438Y-41158048D01*
X73149280Y-41217654D01*
X73128979Y-41274391D01*
X73084330Y-41314858D01*
X73025877Y-41329500D01*
X69649140Y-41329500D01*
X69586438Y-41312479D01*
X69540950Y-41266089D01*
X69525164Y-41203065D01*
X69543413Y-41140710D01*
X69590687Y-41096142D01*
X69601781Y-41090212D01*
X69628538Y-41075910D01*
X69780883Y-40950883D01*
X69905910Y-40798538D01*
X69998814Y-40624727D01*
X70056024Y-40436132D01*
X70075341Y-40240000D01*
X70056024Y-40043868D01*
X70000892Y-39862126D01*
X69999270Y-39796003D01*
X70031871Y-39738454D01*
X70293510Y-39476816D01*
X70333736Y-39449939D01*
X70381189Y-39440500D01*
X72735630Y-39440500D01*
X72801970Y-39459738D01*
X72847725Y-39511483D01*
X72858697Y-39579679D01*
X72831483Y-39643165D01*
X72822731Y-39653828D01*
X72725233Y-39836235D01*
X72678590Y-39990000D01*
X74721410Y-39990000D01*
X74674766Y-39836235D01*
X74577268Y-39653828D01*
X74568517Y-39643165D01*
X74541303Y-39579679D01*
X74552275Y-39511483D01*
X74598030Y-39459738D01*
X74664370Y-39440500D01*
X80008812Y-39440500D01*
X80056265Y-39449939D01*
X80096493Y-39476819D01*
X80358126Y-39738452D01*
X80390729Y-39796003D01*
X80389106Y-39862128D01*
X80333975Y-40043869D01*
X80314659Y-40240000D01*
X80333976Y-40436133D01*
X80391185Y-40624726D01*
X80471261Y-40774536D01*
X80484090Y-40798538D01*
X80609117Y-40950883D01*
X80761462Y-41075910D01*
X80935273Y-41168814D01*
X81123868Y-41226024D01*
X81320000Y-41245341D01*
X81516132Y-41226024D01*
X81704727Y-41168814D01*
X81878538Y-41075910D01*
X82030883Y-40950883D01*
X82155910Y-40798538D01*
X82248814Y-40624727D01*
X82306024Y-40436132D01*
X82325341Y-40240000D01*
X82306024Y-40043868D01*
X82248814Y-39855273D01*
X82155910Y-39681462D01*
X82030883Y-39529117D01*
X81878538Y-39404090D01*
X81801161Y-39362731D01*
X81704726Y-39311185D01*
X81516133Y-39253976D01*
X81320000Y-39234659D01*
X81123869Y-39253975D01*
X80942128Y-39309106D01*
X80876003Y-39310729D01*
X80818452Y-39278126D01*
X80439043Y-38898717D01*
X80431734Y-38890741D01*
X80407454Y-38861805D01*
X80374736Y-38842915D01*
X80365627Y-38837112D01*
X80334684Y-38815446D01*
X80333803Y-38814829D01*
X80309107Y-38804599D01*
X80270852Y-38797853D01*
X80260296Y-38795512D01*
X80223807Y-38785735D01*
X80186180Y-38789028D01*
X80175372Y-38789500D01*
X74779689Y-38789500D01*
X74715940Y-38771858D01*
X74670331Y-38723953D01*
X74655838Y-38659415D01*
X74676587Y-38596609D01*
X74688867Y-38578231D01*
X74700500Y-38519748D01*
X74700500Y-37950000D01*
X80298590Y-37950000D01*
X80345233Y-38103764D01*
X80442731Y-38286171D01*
X80573945Y-38446054D01*
X80733828Y-38577268D01*
X80916235Y-38674766D01*
X81070000Y-38721410D01*
X81070000Y-37950000D01*
X81570000Y-37950000D01*
X81570000Y-38721410D01*
X81723764Y-38674766D01*
X81906171Y-38577268D01*
X82066054Y-38446054D01*
X82197268Y-38286171D01*
X82294766Y-38103764D01*
X82341410Y-37950000D01*
X81570000Y-37950000D01*
X81070000Y-37950000D01*
X80298590Y-37950000D01*
X74700500Y-37950000D01*
X74700500Y-37450000D01*
X80298590Y-37450000D01*
X81070000Y-37450000D01*
X81070000Y-36678590D01*
X81570000Y-36678590D01*
X81570000Y-37450000D01*
X82341410Y-37450000D01*
X82294766Y-37296235D01*
X82197268Y-37113828D01*
X82066054Y-36953945D01*
X81906171Y-36822731D01*
X81723764Y-36725233D01*
X81570000Y-36678590D01*
X81070000Y-36678590D01*
X80916235Y-36725233D01*
X80733828Y-36822731D01*
X80573945Y-36953945D01*
X80442731Y-37113828D01*
X80345233Y-37296235D01*
X80298590Y-37450000D01*
X74700500Y-37450000D01*
X74700500Y-36880252D01*
X74688867Y-36821769D01*
X74682570Y-36812345D01*
X74644552Y-36755447D01*
X74578230Y-36711132D01*
X74519749Y-36699500D01*
X74519748Y-36699500D01*
X72880252Y-36699500D01*
X72880251Y-36699500D01*
X72821769Y-36711132D01*
X72755447Y-36755447D01*
X72711132Y-36821769D01*
X72699500Y-36880251D01*
X72699500Y-38519749D01*
X72711132Y-38578230D01*
X72723413Y-38596609D01*
X72744162Y-38659415D01*
X72729669Y-38723953D01*
X72684060Y-38771858D01*
X72620311Y-38789500D01*
X70214619Y-38789500D01*
X70203812Y-38789028D01*
X70201298Y-38788808D01*
X70166191Y-38785736D01*
X70129710Y-38795511D01*
X70119155Y-38797852D01*
X70107814Y-38799851D01*
X70081955Y-38804412D01*
X70081953Y-38804412D01*
X70080897Y-38804599D01*
X70056192Y-38814832D01*
X70024378Y-38837107D01*
X70015261Y-38842915D01*
X69982545Y-38861804D01*
X69958262Y-38890743D01*
X69950956Y-38898715D01*
X69571546Y-39278126D01*
X69513995Y-39310729D01*
X69447870Y-39309106D01*
X69266130Y-39253975D01*
X69070000Y-39234659D01*
X68873869Y-39253975D01*
X68692128Y-39309106D01*
X68626003Y-39310729D01*
X68568452Y-39278126D01*
X68189043Y-38898717D01*
X68181734Y-38890741D01*
X68157454Y-38861805D01*
X68124736Y-38842915D01*
X68115627Y-38837112D01*
X68084684Y-38815446D01*
X68083803Y-38814829D01*
X68059107Y-38804599D01*
X68020852Y-38797853D01*
X68010296Y-38795512D01*
X67973807Y-38785735D01*
X67936180Y-38789028D01*
X67925372Y-38789500D01*
X62529689Y-38789500D01*
X62465940Y-38771858D01*
X62420331Y-38723953D01*
X62405838Y-38659415D01*
X62426587Y-38596609D01*
X62438867Y-38578231D01*
X62450500Y-38519748D01*
X62450500Y-36880252D01*
X62438867Y-36821769D01*
X62432570Y-36812345D01*
X62394552Y-36755447D01*
X62328230Y-36711132D01*
X62269749Y-36699500D01*
X62269748Y-36699500D01*
X60961188Y-36699500D01*
X60913735Y-36690061D01*
X60873507Y-36663181D01*
X60369043Y-36158717D01*
X60361734Y-36150741D01*
X60337454Y-36121805D01*
X60304736Y-36102915D01*
X60295627Y-36097112D01*
X60264684Y-36075446D01*
X60263803Y-36074829D01*
X60239107Y-36064599D01*
X60200852Y-36057853D01*
X60190296Y-36055512D01*
X60153807Y-36045735D01*
X60116180Y-36049028D01*
X60105372Y-36049500D01*
X45249500Y-36049500D01*
X45187500Y-36032887D01*
X45142113Y-35987500D01*
X45125500Y-35925500D01*
X45125500Y-34574500D01*
X45142113Y-34512500D01*
X45187500Y-34467113D01*
X45249500Y-34450500D01*
X65308812Y-34450500D01*
X65356265Y-34459939D01*
X65396493Y-34486819D01*
X68108126Y-37198453D01*
X68140729Y-37256004D01*
X68139106Y-37322129D01*
X68083975Y-37503869D01*
X68064659Y-37700000D01*
X68083976Y-37896133D01*
X68141185Y-38084726D01*
X68141186Y-38084727D01*
X68234090Y-38258538D01*
X68359117Y-38410883D01*
X68511462Y-38535910D01*
X68685273Y-38628814D01*
X68873868Y-38686024D01*
X69070000Y-38705341D01*
X69266132Y-38686024D01*
X69454727Y-38628814D01*
X69628538Y-38535910D01*
X69780883Y-38410883D01*
X69905910Y-38258538D01*
X69998814Y-38084727D01*
X70056024Y-37896132D01*
X70075341Y-37700000D01*
X70056024Y-37503868D01*
X69998814Y-37315273D01*
X69905910Y-37141462D01*
X69780883Y-36989117D01*
X69628538Y-36864090D01*
X69509310Y-36800361D01*
X69454726Y-36771185D01*
X69266133Y-36713976D01*
X69134098Y-36700972D01*
X69070000Y-36694659D01*
X69069999Y-36694659D01*
X68873869Y-36713975D01*
X68692129Y-36769106D01*
X68626004Y-36770729D01*
X68568453Y-36738126D01*
X65739043Y-33908717D01*
X65731734Y-33900741D01*
X65707454Y-33871805D01*
X65674736Y-33852915D01*
X65665627Y-33847112D01*
X65634684Y-33825446D01*
X65633803Y-33824829D01*
X65609107Y-33814599D01*
X65570852Y-33807853D01*
X65560296Y-33805512D01*
X65523807Y-33795735D01*
X65486180Y-33799028D01*
X65475372Y-33799500D01*
X42729619Y-33799500D01*
X42718812Y-33799028D01*
X42716298Y-33798808D01*
X42681191Y-33795736D01*
X42644710Y-33805511D01*
X42634155Y-33807852D01*
X42622814Y-33809851D01*
X42596955Y-33814412D01*
X42596953Y-33814412D01*
X42595897Y-33814599D01*
X42571192Y-33824832D01*
X42539378Y-33847107D01*
X42530261Y-33852915D01*
X42497545Y-33871804D01*
X42473262Y-33900743D01*
X42465956Y-33908715D01*
X42086546Y-34288126D01*
X42028995Y-34320729D01*
X41962870Y-34319106D01*
X41781130Y-34263975D01*
X41585000Y-34244659D01*
X41388866Y-34263976D01*
X41200273Y-34321185D01*
X41026463Y-34414089D01*
X40874117Y-34539117D01*
X40749089Y-34691463D01*
X40656185Y-34865273D01*
X40598976Y-35053866D01*
X40579659Y-35249999D01*
X40598976Y-35446133D01*
X40656185Y-35634726D01*
X40687865Y-35693995D01*
X40749090Y-35808538D01*
X40771768Y-35836171D01*
X40780520Y-35846835D01*
X40807734Y-35910321D01*
X40796762Y-35978517D01*
X40751007Y-36030262D01*
X40684667Y-36049500D01*
X40356189Y-36049500D01*
X40308736Y-36040061D01*
X40268508Y-36013181D01*
X40006873Y-35751547D01*
X39974270Y-35693995D01*
X39975894Y-35627870D01*
X40014683Y-35500000D01*
X40031024Y-35446132D01*
X40050341Y-35250000D01*
X40031024Y-35053868D01*
X39973814Y-34865273D01*
X39880910Y-34691462D01*
X39755883Y-34539117D01*
X39603538Y-34414090D01*
X39526161Y-34372731D01*
X39429726Y-34321185D01*
X39241133Y-34263976D01*
X39045000Y-34244659D01*
X38848866Y-34263976D01*
X38660273Y-34321185D01*
X38486463Y-34414089D01*
X38334117Y-34539117D01*
X38209089Y-34691463D01*
X38116185Y-34865273D01*
X38058976Y-35053866D01*
X38039659Y-35249999D01*
X38058976Y-35446133D01*
X38116185Y-35634726D01*
X38147865Y-35693995D01*
X38209090Y-35808538D01*
X38334117Y-35960883D01*
X38486462Y-36085910D01*
X38660273Y-36178814D01*
X38848868Y-36236024D01*
X39045000Y-36255341D01*
X39241132Y-36236024D01*
X39422870Y-36180893D01*
X39488995Y-36179270D01*
X39546547Y-36211873D01*
X39925955Y-36591282D01*
X39933263Y-36599256D01*
X39957545Y-36628194D01*
X39990266Y-36647085D01*
X39999360Y-36652878D01*
X40030316Y-36674554D01*
X40030317Y-36674554D01*
X40031201Y-36675173D01*
X40055891Y-36685400D01*
X40056954Y-36685587D01*
X40056955Y-36685588D01*
X40094146Y-36692145D01*
X40104704Y-36694486D01*
X40141191Y-36704263D01*
X40141192Y-36704262D01*
X40141193Y-36704263D01*
X40178811Y-36700971D01*
X40189618Y-36700500D01*
X47834161Y-36700500D01*
X47887178Y-36712405D01*
X47930015Y-36745836D01*
X47954445Y-36794372D01*
X47955777Y-36848690D01*
X47952715Y-36864089D01*
X47949500Y-36880253D01*
X47949500Y-38519749D01*
X47961132Y-38578230D01*
X48005447Y-38644552D01*
X48071769Y-38688867D01*
X48130251Y-38700500D01*
X48130252Y-38700500D01*
X49769748Y-38700500D01*
X49769749Y-38700500D01*
X49798989Y-38694683D01*
X49828231Y-38688867D01*
X49894552Y-38644552D01*
X49938867Y-38578231D01*
X49950500Y-38519748D01*
X49950500Y-36880252D01*
X49944222Y-36848690D01*
X49945555Y-36794372D01*
X49969985Y-36745836D01*
X50012822Y-36712405D01*
X50065839Y-36700500D01*
X55864241Y-36700500D01*
X55922694Y-36715142D01*
X55967343Y-36755609D01*
X55987644Y-36812345D01*
X55978802Y-36871952D01*
X55942906Y-36920353D01*
X55859117Y-36989117D01*
X55734089Y-37141463D01*
X55641185Y-37315273D01*
X55583976Y-37503866D01*
X55564659Y-37699999D01*
X55583976Y-37896133D01*
X55641185Y-38084726D01*
X55641186Y-38084727D01*
X55734090Y-38258538D01*
X55859117Y-38410883D01*
X56011462Y-38535910D01*
X56185273Y-38628814D01*
X56373868Y-38686024D01*
X56570000Y-38705341D01*
X56766132Y-38686024D01*
X56954727Y-38628814D01*
X57128538Y-38535910D01*
X57280883Y-38410883D01*
X57405910Y-38258538D01*
X57498814Y-38084727D01*
X57556024Y-37896132D01*
X57575341Y-37700000D01*
X57556024Y-37503868D01*
X57498814Y-37315273D01*
X57405910Y-37141462D01*
X57280883Y-36989117D01*
X57197093Y-36920352D01*
X57161198Y-36871952D01*
X57152356Y-36812345D01*
X57172657Y-36755609D01*
X57217306Y-36715142D01*
X57275759Y-36700500D01*
X59938812Y-36700500D01*
X59986265Y-36709939D01*
X60026493Y-36736819D01*
X60413181Y-37123507D01*
X60440061Y-37163735D01*
X60449500Y-37211188D01*
X60449500Y-38519749D01*
X60461132Y-38578230D01*
X60473413Y-38596609D01*
X60494162Y-38659415D01*
X60479669Y-38723953D01*
X60434060Y-38771858D01*
X60370311Y-38789500D01*
X57714619Y-38789500D01*
X57703812Y-38789028D01*
X57701298Y-38788808D01*
X57666191Y-38785736D01*
X57629710Y-38795511D01*
X57619155Y-38797852D01*
X57607814Y-38799851D01*
X57581955Y-38804412D01*
X57581953Y-38804412D01*
X57580897Y-38804599D01*
X57556192Y-38814832D01*
X57524378Y-38837107D01*
X57515261Y-38842915D01*
X57482545Y-38861804D01*
X57458262Y-38890743D01*
X57450956Y-38898715D01*
X57071546Y-39278126D01*
X57013995Y-39310729D01*
X56947870Y-39309106D01*
X56766130Y-39253975D01*
X56570000Y-39234659D01*
X56373866Y-39253976D01*
X56185273Y-39311185D01*
X56011463Y-39404089D01*
X55859117Y-39529117D01*
X55734090Y-39681461D01*
X55644563Y-39848954D01*
X55598954Y-39896858D01*
X55535205Y-39914500D01*
X54531126Y-39914500D01*
X54476282Y-39901712D01*
X54432750Y-39865986D01*
X54398782Y-39821717D01*
X54273340Y-39725463D01*
X54127262Y-39664956D01*
X53970500Y-39644317D01*
X53813737Y-39664956D01*
X53667659Y-39725463D01*
X53542217Y-39821717D01*
X53445963Y-39947159D01*
X53385456Y-40093237D01*
X53364817Y-40250000D01*
X53373746Y-40317818D01*
X53368226Y-40373862D01*
X53338488Y-40421684D01*
X52756993Y-41003181D01*
X52716765Y-41030061D01*
X52669312Y-41039500D01*
X49914370Y-41039500D01*
X49848030Y-41020262D01*
X49802275Y-40968517D01*
X49791303Y-40900321D01*
X49818517Y-40836835D01*
X49827268Y-40826171D01*
X49924766Y-40643764D01*
X49971410Y-40490000D01*
X47928590Y-40490000D01*
X47975233Y-40643764D01*
X48072731Y-40826171D01*
X48081483Y-40836835D01*
X48108697Y-40900321D01*
X48097725Y-40968517D01*
X48051970Y-41020262D01*
X47985630Y-41039500D01*
X45649616Y-41039500D01*
X45638808Y-41039028D01*
X45601193Y-41035736D01*
X45564716Y-41045510D01*
X45554162Y-41047849D01*
X45515905Y-41054595D01*
X45491190Y-41064834D01*
X45459377Y-41087108D01*
X45450261Y-41092915D01*
X45417545Y-41111804D01*
X45393262Y-41140743D01*
X45385956Y-41148715D01*
X44626546Y-41908126D01*
X44568995Y-41940729D01*
X44502870Y-41939106D01*
X44321130Y-41883975D01*
X44146426Y-41866769D01*
X44125000Y-41864659D01*
X44124999Y-41864659D01*
X43928866Y-41883976D01*
X43740273Y-41941185D01*
X43566463Y-42034089D01*
X43414117Y-42159117D01*
X43289089Y-42311463D01*
X43196185Y-42485273D01*
X43138976Y-42673866D01*
X43119659Y-42870000D01*
X43138976Y-43066133D01*
X43196185Y-43254726D01*
X43258247Y-43370835D01*
X43289090Y-43428538D01*
X43414117Y-43580883D01*
X43566462Y-43705910D01*
X43740273Y-43798814D01*
X43928868Y-43856024D01*
X44125000Y-43875341D01*
X44321132Y-43856024D01*
X44509727Y-43798814D01*
X44683538Y-43705910D01*
X44835883Y-43580883D01*
X44960910Y-43428538D01*
X45053814Y-43254727D01*
X45111024Y-43066132D01*
X45130341Y-42870000D01*
X45111024Y-42673868D01*
X45055892Y-42492126D01*
X45054270Y-42426004D01*
X45086873Y-42368452D01*
X45219859Y-42235467D01*
X45560093Y-41895233D01*
X45728508Y-41726819D01*
X45768736Y-41699939D01*
X45816189Y-41690500D01*
X48370860Y-41690500D01*
X48433562Y-41707521D01*
X48479050Y-41753911D01*
X48494836Y-41816935D01*
X48476587Y-41879290D01*
X48429313Y-41923858D01*
X48391463Y-41944089D01*
X48239117Y-42069117D01*
X48114089Y-42221463D01*
X48021185Y-42395273D01*
X47963976Y-42583866D01*
X47944659Y-42780000D01*
X47963976Y-42976133D01*
X48021185Y-43164726D01*
X48080013Y-43274785D01*
X48114090Y-43338538D01*
X48239117Y-43490883D01*
X48391462Y-43615910D01*
X48565273Y-43708814D01*
X48753868Y-43766024D01*
X48950000Y-43785341D01*
X49146132Y-43766024D01*
X49334727Y-43708814D01*
X49508538Y-43615910D01*
X49660883Y-43490883D01*
X49785910Y-43338538D01*
X49851299Y-43216204D01*
X49875437Y-43171046D01*
X49921046Y-43123142D01*
X49984795Y-43105500D01*
X52057269Y-43105500D01*
X52068076Y-43105971D01*
X52105703Y-43109264D01*
X52142220Y-43099478D01*
X52152726Y-43097149D01*
X52189941Y-43090588D01*
X52189943Y-43090586D01*
X52191008Y-43090399D01*
X52215695Y-43080173D01*
X52216578Y-43079554D01*
X52216580Y-43079554D01*
X52247521Y-43057887D01*
X52256618Y-43052091D01*
X52289351Y-43033194D01*
X52313644Y-43004241D01*
X52320931Y-42996289D01*
X53300403Y-42016819D01*
X53340632Y-41989939D01*
X53388085Y-41980500D01*
X55669667Y-41980500D01*
X55736007Y-41999738D01*
X55781762Y-42051483D01*
X55792734Y-42119679D01*
X55765520Y-42183165D01*
X55734089Y-42221463D01*
X55641185Y-42395273D01*
X55583976Y-42583866D01*
X55564659Y-42780000D01*
X55583976Y-42976133D01*
X55641185Y-43164726D01*
X55700013Y-43274785D01*
X55734090Y-43338538D01*
X55859117Y-43490883D01*
X56011462Y-43615910D01*
X56185273Y-43708814D01*
X56373868Y-43766024D01*
X56570000Y-43785341D01*
X56766132Y-43766024D01*
X56954727Y-43708814D01*
X57128538Y-43615910D01*
X57280883Y-43490883D01*
X57405910Y-43338538D01*
X57498814Y-43164727D01*
X57556024Y-42976132D01*
X57575341Y-42780000D01*
X57556024Y-42583868D01*
X57498814Y-42395273D01*
X57405910Y-42221462D01*
X57374479Y-42183164D01*
X57347266Y-42119679D01*
X57358238Y-42051483D01*
X57403993Y-41999738D01*
X57470333Y-41980500D01*
X60549667Y-41980500D01*
X60616007Y-41999738D01*
X60661762Y-42051483D01*
X60672734Y-42119679D01*
X60645520Y-42183165D01*
X60614089Y-42221463D01*
X60521185Y-42395273D01*
X60463976Y-42583866D01*
X60444659Y-42780000D01*
X60463976Y-42976133D01*
X60521185Y-43164726D01*
X60580013Y-43274785D01*
X60614090Y-43338538D01*
X60739117Y-43490883D01*
X60891462Y-43615910D01*
X61065273Y-43708814D01*
X61253868Y-43766024D01*
X61450000Y-43785341D01*
X61646132Y-43766024D01*
X61834727Y-43708814D01*
X62008538Y-43615910D01*
X62160883Y-43490883D01*
X62285910Y-43338538D01*
X62317873Y-43278738D01*
X62352553Y-43238201D01*
X62401054Y-43215986D01*
X62454401Y-43216204D01*
X62502716Y-43238813D01*
X62546289Y-43272248D01*
X62692368Y-43332756D01*
X62849130Y-43353394D01*
X63005892Y-43332756D01*
X63151971Y-43272248D01*
X63277412Y-43175994D01*
X63281209Y-43171046D01*
X63294278Y-43154014D01*
X63337810Y-43118288D01*
X63392654Y-43105500D01*
X68035205Y-43105500D01*
X68098954Y-43123142D01*
X68144563Y-43171046D01*
X68213583Y-43300173D01*
X68234090Y-43338538D01*
X68359117Y-43490883D01*
X68511462Y-43615910D01*
X68685273Y-43708814D01*
X68873868Y-43766024D01*
X69070000Y-43785341D01*
X69266132Y-43766024D01*
X69454727Y-43708814D01*
X69628538Y-43615910D01*
X69780883Y-43490883D01*
X69905910Y-43338538D01*
X69998814Y-43164727D01*
X70056024Y-42976132D01*
X70075341Y-42780000D01*
X70056024Y-42583868D01*
X69998814Y-42395273D01*
X69905910Y-42221462D01*
X69874479Y-42183164D01*
X69847266Y-42119679D01*
X69858238Y-42051483D01*
X69903993Y-41999738D01*
X69970333Y-41980500D01*
X72799667Y-41980500D01*
X72866007Y-41999738D01*
X72911762Y-42051483D01*
X72922734Y-42119679D01*
X72895520Y-42183165D01*
X72864089Y-42221463D01*
X72771185Y-42395273D01*
X72713976Y-42583866D01*
X72694659Y-42780000D01*
X72713975Y-42976131D01*
X72769105Y-43157870D01*
X72770728Y-43223995D01*
X72738125Y-43281546D01*
X71881493Y-44138181D01*
X71841265Y-44165061D01*
X71793812Y-44174500D01*
X52568299Y-44174500D01*
X52513455Y-44161712D01*
X52469923Y-44125986D01*
X52428281Y-44071717D01*
X52302840Y-43975463D01*
X52156762Y-43914956D01*
X52000000Y-43894317D01*
X51843237Y-43914956D01*
X51697159Y-43975463D01*
X51571717Y-44071717D01*
X51475463Y-44197159D01*
X51414956Y-44343237D01*
X51394317Y-44500000D01*
X51414956Y-44656762D01*
X51444483Y-44728048D01*
X51453325Y-44787655D01*
X51433024Y-44844391D01*
X51388375Y-44884858D01*
X51329922Y-44899500D01*
X41161188Y-44899500D01*
X41113735Y-44890061D01*
X41073507Y-44863181D01*
X40882011Y-44671685D01*
X40852273Y-44623862D01*
X40846753Y-44567818D01*
X40855682Y-44499999D01*
X40848725Y-44447159D01*
X40835044Y-44343238D01*
X40774536Y-44197159D01*
X40757149Y-44174500D01*
X40678282Y-44071717D01*
X40552840Y-43975463D01*
X40406762Y-43914956D01*
X40250000Y-43894317D01*
X40093237Y-43914956D01*
X39947159Y-43975463D01*
X39821717Y-44071717D01*
X39725463Y-44197159D01*
X39664956Y-44343237D01*
X39644317Y-44500000D01*
X39664956Y-44656762D01*
X39725463Y-44802840D01*
X39821717Y-44928282D01*
X39947159Y-45024536D01*
X40093238Y-45085044D01*
X40224106Y-45102273D01*
X40249999Y-45105682D01*
X40249999Y-45105681D01*
X40250000Y-45105682D01*
X40317818Y-45096753D01*
X40373862Y-45102273D01*
X40421685Y-45132011D01*
X40730950Y-45441276D01*
X40738258Y-45449250D01*
X40762545Y-45478194D01*
X40786594Y-45492079D01*
X40795256Y-45497080D01*
X40804379Y-45502892D01*
X40814835Y-45510213D01*
X40835316Y-45524554D01*
X40835317Y-45524554D01*
X40836198Y-45525171D01*
X40860891Y-45535400D01*
X40861954Y-45535587D01*
X40861955Y-45535588D01*
X40899143Y-45542145D01*
X40909701Y-45544485D01*
X40946193Y-45554264D01*
X40983823Y-45550971D01*
X40994630Y-45550500D01*
X54749215Y-45550500D01*
X54807668Y-45565142D01*
X54852317Y-45605609D01*
X54872618Y-45662345D01*
X54863776Y-45721952D01*
X54834456Y-45792737D01*
X54813817Y-45949500D01*
X54834456Y-46106262D01*
X54895256Y-46253048D01*
X54904098Y-46312655D01*
X54883797Y-46369391D01*
X54839148Y-46409858D01*
X54780695Y-46424500D01*
X40436188Y-46424500D01*
X40388735Y-46415061D01*
X40348507Y-46388181D01*
X38882011Y-44921685D01*
X38852273Y-44873862D01*
X38846753Y-44817818D01*
X38850724Y-44787655D01*
X38855682Y-44750000D01*
X38853994Y-44737182D01*
X38851747Y-44720110D01*
X38835044Y-44593238D01*
X38774536Y-44447159D01*
X38694795Y-44343238D01*
X38678282Y-44321717D01*
X38552840Y-44225463D01*
X38406762Y-44164956D01*
X38250000Y-44144317D01*
X38093237Y-44164956D01*
X37947159Y-44225463D01*
X37821717Y-44321717D01*
X37725463Y-44447159D01*
X37664956Y-44593237D01*
X37644317Y-44750000D01*
X37664956Y-44906762D01*
X37725463Y-45052840D01*
X37821717Y-45178282D01*
X37915183Y-45250000D01*
X37947159Y-45274536D01*
X38093238Y-45335044D01*
X38224106Y-45352273D01*
X38249999Y-45355682D01*
X38249999Y-45355681D01*
X38250000Y-45355682D01*
X38317818Y-45346753D01*
X38373862Y-45352273D01*
X38421685Y-45382011D01*
X40005950Y-46966276D01*
X40013258Y-46974250D01*
X40037545Y-47003194D01*
X40061594Y-47017079D01*
X40070256Y-47022080D01*
X40079379Y-47027892D01*
X40110316Y-47049554D01*
X40110317Y-47049554D01*
X40111198Y-47050171D01*
X40135891Y-47060400D01*
X40136954Y-47060587D01*
X40136955Y-47060588D01*
X40174146Y-47067145D01*
X40184704Y-47069486D01*
X40221191Y-47079263D01*
X40221192Y-47079262D01*
X40221193Y-47079263D01*
X40258811Y-47075971D01*
X40269618Y-47075500D01*
X49329715Y-47075500D01*
X49388168Y-47090142D01*
X49432817Y-47130609D01*
X49453118Y-47187345D01*
X49444276Y-47246952D01*
X49414956Y-47317737D01*
X49394317Y-47474499D01*
X49414956Y-47631262D01*
X49475463Y-47777340D01*
X49571717Y-47902782D01*
X49697158Y-47999035D01*
X49697159Y-47999036D01*
X49843238Y-48059544D01*
X50000000Y-48080182D01*
X50156762Y-48059544D01*
X50302841Y-47999036D01*
X50428282Y-47902782D01*
X50469923Y-47848513D01*
X50513455Y-47812788D01*
X50568299Y-47800000D01*
X64038312Y-47800000D01*
X64085765Y-47809439D01*
X64125993Y-47836319D01*
X65367988Y-49078314D01*
X65397726Y-49126136D01*
X65403246Y-49182180D01*
X65394317Y-49249999D01*
X65414956Y-49406762D01*
X65475463Y-49552840D01*
X65571717Y-49678281D01*
X65634762Y-49726657D01*
X65675798Y-49782622D01*
X65680337Y-49851871D01*
X65646957Y-49912714D01*
X65321546Y-50238126D01*
X65263995Y-50270729D01*
X65197870Y-50269106D01*
X65016130Y-50213975D01*
X64841426Y-50196769D01*
X64820000Y-50194659D01*
X64819999Y-50194659D01*
X64623869Y-50213975D01*
X64442128Y-50269106D01*
X64376003Y-50270729D01*
X64318452Y-50238126D01*
X63939043Y-49858717D01*
X63931734Y-49850741D01*
X63907454Y-49821805D01*
X63874736Y-49802915D01*
X63865627Y-49797112D01*
X63834684Y-49775446D01*
X63833803Y-49774829D01*
X63809107Y-49764599D01*
X63770852Y-49757853D01*
X63760296Y-49755512D01*
X63723807Y-49745735D01*
X63686180Y-49749028D01*
X63675372Y-49749500D01*
X54714619Y-49749500D01*
X54703812Y-49749028D01*
X54701298Y-49748808D01*
X54666191Y-49745736D01*
X54629710Y-49755511D01*
X54619155Y-49757852D01*
X54607814Y-49759851D01*
X54581955Y-49764412D01*
X54581953Y-49764412D01*
X54580897Y-49764599D01*
X54556192Y-49774832D01*
X54524378Y-49797107D01*
X54515261Y-49802915D01*
X54482545Y-49821804D01*
X54458262Y-49850743D01*
X54450956Y-49858715D01*
X54071546Y-50238126D01*
X54013995Y-50270729D01*
X53947870Y-50269106D01*
X53766130Y-50213975D01*
X53591426Y-50196769D01*
X53570000Y-50194659D01*
X53569999Y-50194659D01*
X53373869Y-50213975D01*
X53192128Y-50269106D01*
X53126003Y-50270729D01*
X53068452Y-50238126D01*
X52689043Y-49858717D01*
X52681734Y-49850741D01*
X52657454Y-49821805D01*
X52624736Y-49802915D01*
X52615627Y-49797112D01*
X52584684Y-49775446D01*
X52583803Y-49774829D01*
X52559107Y-49764599D01*
X52520852Y-49757853D01*
X52510296Y-49755512D01*
X52473807Y-49745735D01*
X52436180Y-49749028D01*
X52425372Y-49749500D01*
X43464619Y-49749500D01*
X43453812Y-49749028D01*
X43451298Y-49748808D01*
X43416191Y-49745736D01*
X43379710Y-49755511D01*
X43369155Y-49757852D01*
X43357814Y-49759851D01*
X43331955Y-49764412D01*
X43331953Y-49764412D01*
X43330897Y-49764599D01*
X43306192Y-49774832D01*
X43274378Y-49797107D01*
X43265261Y-49802915D01*
X43232545Y-49821804D01*
X43208262Y-49850743D01*
X43200956Y-49858715D01*
X42821546Y-50238126D01*
X42763995Y-50270729D01*
X42697870Y-50269106D01*
X42516130Y-50213975D01*
X42341426Y-50196769D01*
X42320000Y-50194659D01*
X42319999Y-50194659D01*
X42123866Y-50213976D01*
X41935273Y-50271185D01*
X41761463Y-50364089D01*
X41609117Y-50489117D01*
X41484089Y-50641463D01*
X41391185Y-50815273D01*
X41333976Y-51003866D01*
X41314659Y-51199999D01*
X41333975Y-51396130D01*
X41389106Y-51577870D01*
X41390729Y-51643994D01*
X41358126Y-51701546D01*
X41096490Y-51963183D01*
X41056265Y-51990061D01*
X41008812Y-51999500D01*
X35824500Y-51999500D01*
X35762500Y-51982887D01*
X35717113Y-51937500D01*
X35700500Y-51875500D01*
X35700500Y-50711188D01*
X35709939Y-50663735D01*
X35736819Y-50623507D01*
X36250806Y-50109520D01*
X36291034Y-50082640D01*
X36338487Y-50073201D01*
X40431701Y-50073201D01*
X40486545Y-50085989D01*
X40530076Y-50121714D01*
X40571718Y-50175983D01*
X40697159Y-50272237D01*
X40843238Y-50332745D01*
X41000000Y-50353383D01*
X41156762Y-50332745D01*
X41302841Y-50272237D01*
X41428282Y-50175983D01*
X41524536Y-50050542D01*
X41585044Y-49904463D01*
X41605682Y-49747701D01*
X41585044Y-49590939D01*
X41524536Y-49444860D01*
X41524170Y-49444383D01*
X41428282Y-49319418D01*
X41302840Y-49223164D01*
X41156762Y-49162657D01*
X41000000Y-49142018D01*
X40843237Y-49162657D01*
X40697159Y-49223164D01*
X40571718Y-49319418D01*
X40530077Y-49373687D01*
X40486545Y-49409413D01*
X40431701Y-49422201D01*
X36171927Y-49422201D01*
X36161119Y-49421729D01*
X36123491Y-49418436D01*
X36087003Y-49428213D01*
X36076447Y-49430553D01*
X36038198Y-49437298D01*
X36013492Y-49447532D01*
X35981679Y-49469807D01*
X35972563Y-49475615D01*
X35939844Y-49494506D01*
X35915561Y-49523445D01*
X35908255Y-49531417D01*
X35276493Y-50163181D01*
X35236265Y-50190061D01*
X35188812Y-50199500D01*
X33880251Y-50199500D01*
X33821769Y-50211132D01*
X33755447Y-50255447D01*
X33711132Y-50321769D01*
X33699500Y-50380251D01*
X33699500Y-51875500D01*
X33682887Y-51937500D01*
X33637500Y-51982887D01*
X33575500Y-51999500D01*
X32091919Y-51999500D01*
X32033704Y-51984985D01*
X31989118Y-51944840D01*
X31968598Y-51888463D01*
X31961085Y-51816971D01*
X31923581Y-51701546D01*
X31904214Y-51641940D01*
X31812195Y-51482559D01*
X31689049Y-51345791D01*
X31540162Y-51237619D01*
X31372031Y-51162762D01*
X31295959Y-51146593D01*
X31236856Y-51115695D01*
X31202308Y-51058649D01*
X31202308Y-50991957D01*
X31236856Y-50934911D01*
X31295959Y-50904013D01*
X31387412Y-50884574D01*
X31565047Y-50805486D01*
X31722356Y-50691193D01*
X31852463Y-50546696D01*
X31949684Y-50378304D01*
X31991372Y-50250000D01*
X30208628Y-50250000D01*
X30250315Y-50378304D01*
X30347536Y-50546696D01*
X30477643Y-50691193D01*
X30634952Y-50805486D01*
X30812587Y-50884574D01*
X30904040Y-50904013D01*
X30963143Y-50934911D01*
X30997691Y-50991957D01*
X30997691Y-51058649D01*
X30963143Y-51115695D01*
X30904040Y-51146593D01*
X30827968Y-51162762D01*
X30659837Y-51237619D01*
X30510950Y-51345791D01*
X30387804Y-51482559D01*
X30295785Y-51641940D01*
X30238914Y-51816973D01*
X30234580Y-51858206D01*
X30208638Y-51922011D01*
X30152651Y-51962130D01*
X30083893Y-51966184D01*
X30023579Y-51932923D01*
X28491156Y-50400500D01*
X27840655Y-49749999D01*
X30208627Y-49749999D01*
X30208628Y-49750000D01*
X30850000Y-49750000D01*
X30850000Y-49107474D01*
X31350000Y-49107474D01*
X31350000Y-49750000D01*
X31991372Y-49750000D01*
X31991372Y-49749999D01*
X31949684Y-49621695D01*
X31852463Y-49453303D01*
X31722356Y-49308806D01*
X31565047Y-49194513D01*
X31387413Y-49115427D01*
X31350000Y-49107474D01*
X30850000Y-49107474D01*
X30812585Y-49115427D01*
X30634952Y-49194513D01*
X30477643Y-49308805D01*
X30347536Y-49453303D01*
X30250315Y-49621695D01*
X30208627Y-49749999D01*
X27840655Y-49749999D01*
X26786819Y-48696162D01*
X26759939Y-48655934D01*
X26750500Y-48608481D01*
X26750500Y-42869999D01*
X27879659Y-42869999D01*
X27898976Y-43066133D01*
X27956185Y-43254726D01*
X28018247Y-43370835D01*
X28049090Y-43428538D01*
X28174117Y-43580883D01*
X28326462Y-43705910D01*
X28500273Y-43798814D01*
X28688868Y-43856024D01*
X28885000Y-43875341D01*
X29081132Y-43856024D01*
X29269727Y-43798814D01*
X29443538Y-43705910D01*
X29595883Y-43580883D01*
X29720910Y-43428538D01*
X29813814Y-43254727D01*
X29871024Y-43066132D01*
X29890341Y-42870000D01*
X30419659Y-42870000D01*
X30438976Y-43066133D01*
X30496185Y-43254726D01*
X30558247Y-43370835D01*
X30589090Y-43428538D01*
X30714117Y-43580883D01*
X30866462Y-43705910D01*
X31040273Y-43798814D01*
X31228868Y-43856024D01*
X31425000Y-43875341D01*
X31621132Y-43856024D01*
X31809727Y-43798814D01*
X31983538Y-43705910D01*
X32135883Y-43580883D01*
X32260910Y-43428538D01*
X32353814Y-43254727D01*
X32411024Y-43066132D01*
X32430341Y-42870000D01*
X32959659Y-42870000D01*
X32978976Y-43066133D01*
X33036185Y-43254726D01*
X33098247Y-43370835D01*
X33129090Y-43428538D01*
X33254117Y-43580883D01*
X33406462Y-43705910D01*
X33580273Y-43798814D01*
X33768868Y-43856024D01*
X33965000Y-43875341D01*
X34161132Y-43856024D01*
X34349727Y-43798814D01*
X34523538Y-43705910D01*
X34675883Y-43580883D01*
X34800910Y-43428538D01*
X34893814Y-43254727D01*
X34934683Y-43120000D01*
X35483590Y-43120000D01*
X35530233Y-43273764D01*
X35627731Y-43456171D01*
X35758945Y-43616054D01*
X35918828Y-43747268D01*
X36101235Y-43844766D01*
X36255000Y-43891410D01*
X36255000Y-43120000D01*
X36755000Y-43120000D01*
X36755000Y-43891410D01*
X36908764Y-43844766D01*
X37091171Y-43747268D01*
X37251054Y-43616054D01*
X37382268Y-43456171D01*
X37479766Y-43273764D01*
X37526410Y-43120000D01*
X38023590Y-43120000D01*
X38070233Y-43273764D01*
X38167731Y-43456171D01*
X38298945Y-43616054D01*
X38458828Y-43747268D01*
X38641235Y-43844766D01*
X38795000Y-43891410D01*
X38795000Y-43120000D01*
X39295000Y-43120000D01*
X39295000Y-43891410D01*
X39448764Y-43844766D01*
X39631171Y-43747268D01*
X39791054Y-43616054D01*
X39922268Y-43456171D01*
X40019766Y-43273764D01*
X40066410Y-43120000D01*
X39295000Y-43120000D01*
X38795000Y-43120000D01*
X38023590Y-43120000D01*
X37526410Y-43120000D01*
X36755000Y-43120000D01*
X36255000Y-43120000D01*
X35483590Y-43120000D01*
X34934683Y-43120000D01*
X34951024Y-43066132D01*
X34970341Y-42870000D01*
X40579659Y-42870000D01*
X40598976Y-43066133D01*
X40656185Y-43254726D01*
X40718247Y-43370835D01*
X40749090Y-43428538D01*
X40874117Y-43580883D01*
X41026462Y-43705910D01*
X41200273Y-43798814D01*
X41388868Y-43856024D01*
X41585000Y-43875341D01*
X41781132Y-43856024D01*
X41969727Y-43798814D01*
X42143538Y-43705910D01*
X42295883Y-43580883D01*
X42420910Y-43428538D01*
X42513814Y-43254727D01*
X42571024Y-43066132D01*
X42590341Y-42870000D01*
X42571024Y-42673868D01*
X42513814Y-42485273D01*
X42420910Y-42311462D01*
X42295883Y-42159117D01*
X42143538Y-42034090D01*
X42066161Y-41992731D01*
X41969726Y-41941185D01*
X41781133Y-41883976D01*
X41683066Y-41874317D01*
X41585000Y-41864659D01*
X41584999Y-41864659D01*
X41388866Y-41883976D01*
X41200273Y-41941185D01*
X41026463Y-42034089D01*
X40874117Y-42159117D01*
X40749089Y-42311463D01*
X40656185Y-42485273D01*
X40598976Y-42673866D01*
X40579659Y-42870000D01*
X34970341Y-42870000D01*
X34951024Y-42673868D01*
X34934683Y-42620000D01*
X35483590Y-42620000D01*
X36255000Y-42620000D01*
X36255000Y-41848590D01*
X36755000Y-41848590D01*
X36755000Y-42620000D01*
X37526410Y-42620000D01*
X38023590Y-42620000D01*
X38795000Y-42620000D01*
X38795000Y-41848590D01*
X39295000Y-41848590D01*
X39295000Y-42620000D01*
X40066410Y-42620000D01*
X40019766Y-42466235D01*
X39922268Y-42283828D01*
X39791054Y-42123945D01*
X39631171Y-41992731D01*
X39448764Y-41895233D01*
X39295000Y-41848590D01*
X38795000Y-41848590D01*
X38641235Y-41895233D01*
X38458828Y-41992731D01*
X38298945Y-42123945D01*
X38167731Y-42283828D01*
X38070233Y-42466235D01*
X38023590Y-42620000D01*
X37526410Y-42620000D01*
X37479766Y-42466235D01*
X37382268Y-42283828D01*
X37251054Y-42123945D01*
X37091171Y-41992731D01*
X36908764Y-41895233D01*
X36755000Y-41848590D01*
X36255000Y-41848590D01*
X36101235Y-41895233D01*
X35918828Y-41992731D01*
X35758945Y-42123945D01*
X35627731Y-42283828D01*
X35530233Y-42466235D01*
X35483590Y-42620000D01*
X34934683Y-42620000D01*
X34893814Y-42485273D01*
X34800910Y-42311462D01*
X34675883Y-42159117D01*
X34523538Y-42034090D01*
X34446161Y-41992731D01*
X34349726Y-41941185D01*
X34161133Y-41883976D01*
X34063066Y-41874317D01*
X33965000Y-41864659D01*
X33964999Y-41864659D01*
X33768866Y-41883976D01*
X33580273Y-41941185D01*
X33406463Y-42034089D01*
X33254117Y-42159117D01*
X33129089Y-42311463D01*
X33036185Y-42485273D01*
X32978976Y-42673866D01*
X32959659Y-42870000D01*
X32430341Y-42870000D01*
X32411024Y-42673868D01*
X32353814Y-42485273D01*
X32260910Y-42311462D01*
X32135883Y-42159117D01*
X31983538Y-42034090D01*
X31906161Y-41992731D01*
X31809726Y-41941185D01*
X31621133Y-41883976D01*
X31523066Y-41874317D01*
X31425000Y-41864659D01*
X31424999Y-41864659D01*
X31228866Y-41883976D01*
X31040273Y-41941185D01*
X30866463Y-42034089D01*
X30714117Y-42159117D01*
X30589089Y-42311463D01*
X30496185Y-42485273D01*
X30438976Y-42673866D01*
X30419659Y-42870000D01*
X29890341Y-42870000D01*
X29871024Y-42673868D01*
X29813814Y-42485273D01*
X29720910Y-42311462D01*
X29595883Y-42159117D01*
X29443538Y-42034090D01*
X29366161Y-41992731D01*
X29269726Y-41941185D01*
X29081133Y-41883976D01*
X28983066Y-41874317D01*
X28885000Y-41864659D01*
X28884999Y-41864659D01*
X28688866Y-41883976D01*
X28500273Y-41941185D01*
X28326463Y-42034089D01*
X28174117Y-42159117D01*
X28049089Y-42311463D01*
X27956185Y-42485273D01*
X27898976Y-42673866D01*
X27879659Y-42869999D01*
X26750500Y-42869999D01*
X26750500Y-39990000D01*
X47928590Y-39990000D01*
X48700000Y-39990000D01*
X48700000Y-39218590D01*
X49200000Y-39218590D01*
X49200000Y-39990000D01*
X49971410Y-39990000D01*
X49924766Y-39836235D01*
X49827268Y-39653828D01*
X49696054Y-39493945D01*
X49536171Y-39362731D01*
X49353764Y-39265233D01*
X49200000Y-39218590D01*
X48700000Y-39218590D01*
X48546235Y-39265233D01*
X48363828Y-39362731D01*
X48203945Y-39493945D01*
X48072731Y-39653828D01*
X47975233Y-39836235D01*
X47928590Y-39990000D01*
X26750500Y-39990000D01*
X26750500Y-35500000D01*
X27863590Y-35500000D01*
X27910233Y-35653764D01*
X28007731Y-35836171D01*
X28138945Y-35996054D01*
X28298828Y-36127268D01*
X28481235Y-36224766D01*
X28635000Y-36271410D01*
X28635000Y-35500000D01*
X29135000Y-35500000D01*
X29135000Y-36271410D01*
X29288764Y-36224766D01*
X29471171Y-36127268D01*
X29631054Y-35996054D01*
X29762268Y-35836171D01*
X29859766Y-35653764D01*
X29906410Y-35500000D01*
X29135000Y-35500000D01*
X28635000Y-35500000D01*
X27863590Y-35500000D01*
X26750500Y-35500000D01*
X26750500Y-35249999D01*
X30419659Y-35249999D01*
X30438976Y-35446133D01*
X30496185Y-35634726D01*
X30527865Y-35693995D01*
X30589090Y-35808538D01*
X30714117Y-35960883D01*
X30866462Y-36085910D01*
X31040273Y-36178814D01*
X31228868Y-36236024D01*
X31425000Y-36255341D01*
X31621132Y-36236024D01*
X31809727Y-36178814D01*
X31983538Y-36085910D01*
X32135883Y-35960883D01*
X32260910Y-35808538D01*
X32353814Y-35634727D01*
X32411024Y-35446132D01*
X32430341Y-35250000D01*
X32430341Y-35249999D01*
X32959659Y-35249999D01*
X32978976Y-35446133D01*
X33036185Y-35634726D01*
X33067865Y-35693995D01*
X33129090Y-35808538D01*
X33254117Y-35960883D01*
X33406462Y-36085910D01*
X33580273Y-36178814D01*
X33768868Y-36236024D01*
X33965000Y-36255341D01*
X34161132Y-36236024D01*
X34349727Y-36178814D01*
X34523538Y-36085910D01*
X34675883Y-35960883D01*
X34800910Y-35808538D01*
X34893814Y-35634727D01*
X34934683Y-35500000D01*
X35483590Y-35500000D01*
X35530233Y-35653764D01*
X35627731Y-35836171D01*
X35758945Y-35996054D01*
X35918828Y-36127268D01*
X36101235Y-36224766D01*
X36255000Y-36271410D01*
X36255000Y-35500000D01*
X36755000Y-35500000D01*
X36755000Y-36271410D01*
X36908764Y-36224766D01*
X37091171Y-36127268D01*
X37251054Y-35996054D01*
X37382268Y-35836171D01*
X37479766Y-35653764D01*
X37526410Y-35500000D01*
X36755000Y-35500000D01*
X36255000Y-35500000D01*
X35483590Y-35500000D01*
X34934683Y-35500000D01*
X34951024Y-35446132D01*
X34970341Y-35250000D01*
X34951024Y-35053868D01*
X34934683Y-35000000D01*
X35483590Y-35000000D01*
X36255000Y-35000000D01*
X36255000Y-34228590D01*
X36755000Y-34228590D01*
X36755000Y-35000000D01*
X37526410Y-35000000D01*
X37479766Y-34846235D01*
X37382268Y-34663828D01*
X37251054Y-34503945D01*
X37091171Y-34372731D01*
X36908764Y-34275233D01*
X36755000Y-34228590D01*
X36255000Y-34228590D01*
X36101235Y-34275233D01*
X35918828Y-34372731D01*
X35758945Y-34503945D01*
X35627731Y-34663828D01*
X35530233Y-34846235D01*
X35483590Y-35000000D01*
X34934683Y-35000000D01*
X34893814Y-34865273D01*
X34800910Y-34691462D01*
X34675883Y-34539117D01*
X34523538Y-34414090D01*
X34446161Y-34372731D01*
X34349726Y-34321185D01*
X34161133Y-34263976D01*
X33965000Y-34244659D01*
X33768866Y-34263976D01*
X33580273Y-34321185D01*
X33406463Y-34414089D01*
X33254117Y-34539117D01*
X33129089Y-34691463D01*
X33036185Y-34865273D01*
X32978976Y-35053866D01*
X32959659Y-35249999D01*
X32430341Y-35249999D01*
X32411024Y-35053868D01*
X32353814Y-34865273D01*
X32260910Y-34691462D01*
X32135883Y-34539117D01*
X31983538Y-34414090D01*
X31906161Y-34372731D01*
X31809726Y-34321185D01*
X31621133Y-34263976D01*
X31425000Y-34244659D01*
X31228866Y-34263976D01*
X31040273Y-34321185D01*
X30866463Y-34414089D01*
X30714117Y-34539117D01*
X30589089Y-34691463D01*
X30496185Y-34865273D01*
X30438976Y-35053866D01*
X30419659Y-35249999D01*
X26750500Y-35249999D01*
X26750500Y-35000000D01*
X27863590Y-35000000D01*
X28635000Y-35000000D01*
X28635000Y-34228590D01*
X29135000Y-34228590D01*
X29135000Y-35000000D01*
X29906410Y-35000000D01*
X29859766Y-34846235D01*
X29762268Y-34663828D01*
X29631054Y-34503945D01*
X29471171Y-34372731D01*
X29288764Y-34275233D01*
X29135000Y-34228590D01*
X28635000Y-34228590D01*
X28481235Y-34275233D01*
X28298828Y-34372731D01*
X28138945Y-34503945D01*
X28007731Y-34663828D01*
X27910233Y-34846235D01*
X27863590Y-35000000D01*
X26750500Y-35000000D01*
X26750500Y-33094463D01*
X26759939Y-33047010D01*
X26786819Y-33006782D01*
X27998852Y-31794749D01*
X49124500Y-31794749D01*
X49136132Y-31853230D01*
X49180447Y-31919552D01*
X49246769Y-31963867D01*
X49305251Y-31975500D01*
X49305252Y-31975500D01*
X50694748Y-31975500D01*
X50694749Y-31975500D01*
X50723989Y-31969683D01*
X50753231Y-31963867D01*
X50819552Y-31919552D01*
X50863867Y-31853231D01*
X50875500Y-31794748D01*
X50875500Y-31142862D01*
X50886584Y-31100000D01*
X51111641Y-31100000D01*
X51122820Y-31129898D01*
X51124183Y-31142862D01*
X51138915Y-31283030D01*
X51195785Y-31458059D01*
X51287804Y-31617440D01*
X51410950Y-31754208D01*
X51559837Y-31862380D01*
X51727968Y-31937237D01*
X51907980Y-31975500D01*
X51907981Y-31975500D01*
X52092019Y-31975500D01*
X52092020Y-31975500D01*
X52272031Y-31937237D01*
X52272032Y-31937236D01*
X52272034Y-31937236D01*
X52440161Y-31862381D01*
X52589050Y-31754207D01*
X52712195Y-31617440D01*
X52804214Y-31458059D01*
X52861085Y-31283029D01*
X52876679Y-31134653D01*
X52889292Y-31099999D01*
X53110707Y-31099999D01*
X53123320Y-31134653D01*
X53124183Y-31142862D01*
X53138915Y-31283030D01*
X53195785Y-31458059D01*
X53287804Y-31617440D01*
X53410950Y-31754208D01*
X53559837Y-31862380D01*
X53727968Y-31937237D01*
X53907980Y-31975500D01*
X53907981Y-31975500D01*
X54092019Y-31975500D01*
X54092020Y-31975500D01*
X54272031Y-31937237D01*
X54272032Y-31937236D01*
X54272034Y-31937236D01*
X54440161Y-31862381D01*
X54589050Y-31754207D01*
X54712195Y-31617440D01*
X54804214Y-31458059D01*
X54861085Y-31283029D01*
X54876679Y-31134653D01*
X54889292Y-31099999D01*
X54876679Y-31065343D01*
X54875817Y-31057138D01*
X54861085Y-30916971D01*
X54804214Y-30741941D01*
X54804214Y-30741940D01*
X54712195Y-30582559D01*
X54589049Y-30445791D01*
X54440162Y-30337619D01*
X54272031Y-30262762D01*
X54092020Y-30224500D01*
X54092019Y-30224500D01*
X53907981Y-30224500D01*
X53907980Y-30224500D01*
X53727968Y-30262762D01*
X53559837Y-30337619D01*
X53410950Y-30445791D01*
X53287804Y-30582559D01*
X53195785Y-30741940D01*
X53138915Y-30916969D01*
X53123321Y-31065343D01*
X53110707Y-31099999D01*
X52889292Y-31099999D01*
X52876679Y-31065343D01*
X52875817Y-31057138D01*
X52861085Y-30916971D01*
X52804214Y-30741941D01*
X52804214Y-30741940D01*
X52712195Y-30582559D01*
X52589049Y-30445791D01*
X52440162Y-30337619D01*
X52272031Y-30262762D01*
X52092020Y-30224500D01*
X52092019Y-30224500D01*
X51907981Y-30224500D01*
X51907980Y-30224500D01*
X51727968Y-30262762D01*
X51559837Y-30337619D01*
X51410950Y-30445791D01*
X51287804Y-30582559D01*
X51195785Y-30741940D01*
X51138915Y-30916969D01*
X51122821Y-31070100D01*
X51111641Y-31100000D01*
X50886584Y-31100000D01*
X50875500Y-31057138D01*
X50875500Y-30405251D01*
X50863867Y-30346769D01*
X50819552Y-30280447D01*
X50753230Y-30236132D01*
X50694749Y-30224500D01*
X50694748Y-30224500D01*
X49305252Y-30224500D01*
X49305251Y-30224500D01*
X49246769Y-30236132D01*
X49180447Y-30280447D01*
X49136132Y-30346769D01*
X49124500Y-30405251D01*
X49124500Y-31794749D01*
X27998852Y-31794749D01*
X32731781Y-27061819D01*
X32772009Y-27034939D01*
X32819462Y-27025500D01*
X35519749Y-27025500D01*
X35548989Y-27019683D01*
X35578231Y-27013867D01*
X35644552Y-26969552D01*
X35648995Y-26962901D01*
X35696215Y-26921099D01*
X35757892Y-26907928D01*
X35818069Y-26926800D01*
X35942527Y-27005003D01*
X36019999Y-27032111D01*
X36020000Y-27032112D01*
X36020000Y-26575000D01*
X36520000Y-26575000D01*
X36520000Y-27032111D01*
X36597470Y-27005003D01*
X36740576Y-26915083D01*
X36810910Y-26844749D01*
X73029500Y-26844749D01*
X73041132Y-26903230D01*
X73085447Y-26969552D01*
X73151769Y-27013867D01*
X73210251Y-27025500D01*
X73210252Y-27025500D01*
X74249748Y-27025500D01*
X74249749Y-27025500D01*
X74278989Y-27019683D01*
X74308231Y-27013867D01*
X74374552Y-26969552D01*
X74405899Y-26922638D01*
X74459248Y-26877949D01*
X74528272Y-26869038D01*
X74591222Y-26898713D01*
X74599148Y-26905734D01*
X74749775Y-26984790D01*
X74914944Y-27025500D01*
X75085055Y-27025500D01*
X75085056Y-27025500D01*
X75250225Y-26984790D01*
X75400852Y-26905734D01*
X75528183Y-26792929D01*
X75624818Y-26652930D01*
X75685140Y-26493872D01*
X75705645Y-26325000D01*
X75685140Y-26156128D01*
X75624818Y-25997070D01*
X75528183Y-25857071D01*
X75400852Y-25744266D01*
X75356755Y-25721122D01*
X75250224Y-25665209D01*
X75113387Y-25631483D01*
X75085056Y-25624500D01*
X74914944Y-25624500D01*
X74886613Y-25631483D01*
X74749775Y-25665209D01*
X74599145Y-25744267D01*
X74591222Y-25751287D01*
X74528270Y-25780961D01*
X74459247Y-25772050D01*
X74405897Y-25727359D01*
X74401728Y-25721120D01*
X74374552Y-25680448D01*
X74370180Y-25677527D01*
X74308230Y-25636132D01*
X74249749Y-25624500D01*
X74249748Y-25624500D01*
X73210252Y-25624500D01*
X73210251Y-25624500D01*
X73151769Y-25636132D01*
X73085447Y-25680447D01*
X73041132Y-25746769D01*
X73029500Y-25805251D01*
X73029500Y-26844749D01*
X36810910Y-26844749D01*
X36860083Y-26795576D01*
X36950003Y-26652470D01*
X36977111Y-26575000D01*
X36520000Y-26575000D01*
X36020000Y-26575000D01*
X36020000Y-25617889D01*
X36019999Y-25617888D01*
X36520000Y-25617888D01*
X36520000Y-26075000D01*
X36977112Y-26075000D01*
X36977111Y-26074999D01*
X36950003Y-25997529D01*
X36860083Y-25854423D01*
X36740576Y-25734916D01*
X36597470Y-25644996D01*
X36520000Y-25617888D01*
X36019999Y-25617888D01*
X35942530Y-25644995D01*
X35818069Y-25723200D01*
X35757892Y-25742071D01*
X35696216Y-25728901D01*
X35648995Y-25687097D01*
X35644552Y-25680447D01*
X35578230Y-25636132D01*
X35519749Y-25624500D01*
X35519748Y-25624500D01*
X35042372Y-25624500D01*
X32502865Y-25624500D01*
X32495378Y-25624274D01*
X32435335Y-25620641D01*
X32376171Y-25631483D01*
X32368772Y-25632610D01*
X32309068Y-25639860D01*
X32299595Y-25643453D01*
X32277991Y-25649476D01*
X32268013Y-25651305D01*
X32213169Y-25675987D01*
X32206254Y-25678851D01*
X32150014Y-25700181D01*
X32141667Y-25705943D01*
X32122131Y-25716961D01*
X32112890Y-25721120D01*
X32065553Y-25758206D01*
X32059523Y-25762643D01*
X32010014Y-25796817D01*
X31970121Y-25841846D01*
X31964988Y-25847298D01*
X25572290Y-32239995D01*
X25566838Y-32245127D01*
X25521816Y-32285014D01*
X25487649Y-32334512D01*
X25483213Y-32340541D01*
X25446121Y-32387886D01*
X25441961Y-32397130D01*
X25430941Y-32416669D01*
X25425182Y-32425013D01*
X25403853Y-32481249D01*
X25400989Y-32488163D01*
X25376303Y-32543014D01*
X25374475Y-32552991D01*
X25368454Y-32574592D01*
X25364859Y-32584072D01*
X25357609Y-32643771D01*
X25356483Y-32651170D01*
X25345641Y-32710335D01*
X25349274Y-32770378D01*
X25349500Y-32777865D01*
X25349500Y-48925079D01*
X25349274Y-48932566D01*
X25345641Y-48992607D01*
X25356483Y-49051771D01*
X25357610Y-49059172D01*
X25364860Y-49118873D01*
X25368450Y-49128339D01*
X25374475Y-49149952D01*
X25376303Y-49159929D01*
X25400991Y-49214783D01*
X25403856Y-49221701D01*
X25414589Y-49250000D01*
X25425182Y-49277930D01*
X25430941Y-49286273D01*
X25441961Y-49305813D01*
X25446120Y-49315054D01*
X25446121Y-49315055D01*
X25446122Y-49315057D01*
X25460556Y-49333481D01*
X25483216Y-49362405D01*
X25487651Y-49368432D01*
X25496281Y-49380934D01*
X25515938Y-49409413D01*
X25521817Y-49417929D01*
X25566847Y-49457822D01*
X25572283Y-49462940D01*
X30021661Y-53912318D01*
X30053755Y-53967905D01*
X30053755Y-54032093D01*
X30021661Y-54087680D01*
X25522290Y-58587051D01*
X25516838Y-58592183D01*
X25471816Y-58632070D01*
X25437649Y-58681568D01*
X25433213Y-58687597D01*
X25396121Y-58734942D01*
X25391961Y-58744186D01*
X25380941Y-58763725D01*
X25375182Y-58772069D01*
X25353853Y-58828305D01*
X25350989Y-58835219D01*
X25326303Y-58890070D01*
X25324475Y-58900047D01*
X25318454Y-58921648D01*
X25314859Y-58931128D01*
X25307609Y-58990827D01*
X25306483Y-58998226D01*
X25295641Y-59057391D01*
X25299274Y-59117434D01*
X25299500Y-59124921D01*
X25299500Y-76975079D01*
X25299274Y-76982566D01*
X25295641Y-77042607D01*
X25306483Y-77101771D01*
X25307610Y-77109172D01*
X25314860Y-77168873D01*
X25318450Y-77178339D01*
X25324475Y-77199952D01*
X25326303Y-77209929D01*
X25350991Y-77264783D01*
X25353856Y-77271701D01*
X25375180Y-77327926D01*
X25375182Y-77327930D01*
X25380941Y-77336273D01*
X25391961Y-77355813D01*
X25396120Y-77365054D01*
X25433216Y-77412405D01*
X25437651Y-77418432D01*
X25471817Y-77467929D01*
X25516847Y-77507822D01*
X25522283Y-77512940D01*
X29537058Y-81527715D01*
X29542178Y-81533153D01*
X29582071Y-81578183D01*
X29631573Y-81612352D01*
X29637597Y-81616785D01*
X29684941Y-81653877D01*
X29684942Y-81653877D01*
X29684943Y-81653878D01*
X29694184Y-81658037D01*
X29713730Y-81669061D01*
X29722070Y-81674818D01*
X29778313Y-81696147D01*
X29785217Y-81699007D01*
X29840069Y-81723695D01*
X29850044Y-81725522D01*
X29871656Y-81731547D01*
X29881128Y-81735140D01*
X29940841Y-81742390D01*
X29948185Y-81743507D01*
X30007394Y-81754358D01*
X30064102Y-81750927D01*
X30067434Y-81750726D01*
X30074921Y-81750500D01*
X54600079Y-81750500D01*
X54607566Y-81750726D01*
X54610706Y-81750915D01*
X54667606Y-81754358D01*
X54726782Y-81743513D01*
X54734181Y-81742387D01*
X54793872Y-81735140D01*
X54803335Y-81731550D01*
X54824958Y-81725522D01*
X54834932Y-81723695D01*
X54889808Y-81698996D01*
X54896673Y-81696152D01*
X54952930Y-81674818D01*
X54961270Y-81669060D01*
X54980819Y-81658035D01*
X54990057Y-81653878D01*
X55037413Y-81616775D01*
X55043426Y-81612352D01*
X55092929Y-81578183D01*
X55132823Y-81533150D01*
X55137924Y-81527731D01*
X55912322Y-80753334D01*
X55967905Y-80721243D01*
X56032093Y-80721243D01*
X56087680Y-80753337D01*
X56862058Y-81527715D01*
X56867178Y-81533153D01*
X56907070Y-81578182D01*
X56907072Y-81578184D01*
X56956573Y-81612352D01*
X56962591Y-81616780D01*
X57009944Y-81653878D01*
X57019180Y-81658034D01*
X57038731Y-81669062D01*
X57047066Y-81674816D01*
X57047068Y-81674816D01*
X57047070Y-81674818D01*
X57103326Y-81696152D01*
X57110218Y-81699008D01*
X57165069Y-81723695D01*
X57175044Y-81725522D01*
X57196656Y-81731547D01*
X57206128Y-81735140D01*
X57265841Y-81742390D01*
X57273185Y-81743507D01*
X57332394Y-81754358D01*
X57389102Y-81750927D01*
X57392434Y-81750726D01*
X57399921Y-81750500D01*
X79925079Y-81750500D01*
X79932566Y-81750726D01*
X79935706Y-81750915D01*
X79992606Y-81754358D01*
X80051782Y-81743513D01*
X80059181Y-81742387D01*
X80118872Y-81735140D01*
X80128335Y-81731550D01*
X80149958Y-81725522D01*
X80159932Y-81723695D01*
X80214808Y-81698996D01*
X80221673Y-81696152D01*
X80277930Y-81674818D01*
X80286270Y-81669060D01*
X80305819Y-81658035D01*
X80315057Y-81653878D01*
X80362413Y-81616775D01*
X80368426Y-81612352D01*
X80417929Y-81578183D01*
X80457823Y-81533150D01*
X80462924Y-81527731D01*
X84477731Y-77512924D01*
X84483150Y-77507823D01*
X84528183Y-77467929D01*
X84562355Y-77418420D01*
X84566775Y-77412413D01*
X84603878Y-77365057D01*
X84608035Y-77355819D01*
X84619063Y-77336266D01*
X84624818Y-77327930D01*
X84646150Y-77271678D01*
X84649010Y-77264776D01*
X84662426Y-77234969D01*
X84705062Y-77183811D01*
X84768015Y-77162089D01*
X84833127Y-77176067D01*
X84881617Y-77221714D01*
X84899500Y-77285863D01*
X84899500Y-84775500D01*
X84882887Y-84837500D01*
X84837500Y-84882887D01*
X84775500Y-84899500D01*
X25124500Y-84899500D01*
X25062500Y-84882887D01*
X25017113Y-84837500D01*
X25000500Y-84775500D01*
X25000500Y-84094749D01*
X34299500Y-84094749D01*
X34311132Y-84153230D01*
X34355447Y-84219552D01*
X34421769Y-84263867D01*
X34480251Y-84275500D01*
X34480252Y-84275500D01*
X35519748Y-84275500D01*
X35519749Y-84275500D01*
X35548989Y-84269683D01*
X35578231Y-84263867D01*
X35644552Y-84219552D01*
X35675899Y-84172638D01*
X35729248Y-84127949D01*
X35798272Y-84119038D01*
X35861222Y-84148713D01*
X35869148Y-84155734D01*
X36019775Y-84234790D01*
X36184944Y-84275500D01*
X36355055Y-84275500D01*
X36355056Y-84275500D01*
X36520225Y-84234790D01*
X36670852Y-84155734D01*
X36798183Y-84042929D01*
X36802950Y-84036022D01*
X36847369Y-83996668D01*
X36904995Y-83982462D01*
X36962622Y-83996664D01*
X37007048Y-84036020D01*
X37011817Y-84042929D01*
X37139148Y-84155734D01*
X37289775Y-84234790D01*
X37454944Y-84275500D01*
X37625055Y-84275500D01*
X37625056Y-84275500D01*
X37790225Y-84234790D01*
X37940852Y-84155734D01*
X38068183Y-84042929D01*
X38072950Y-84036022D01*
X38117369Y-83996668D01*
X38174995Y-83982462D01*
X38232622Y-83996664D01*
X38277048Y-84036020D01*
X38281817Y-84042929D01*
X38409148Y-84155734D01*
X38559775Y-84234790D01*
X38724944Y-84275500D01*
X38895055Y-84275500D01*
X38895056Y-84275500D01*
X39060225Y-84234790D01*
X39210852Y-84155734D01*
X39279690Y-84094749D01*
X69219500Y-84094749D01*
X69231132Y-84153230D01*
X69275447Y-84219552D01*
X69341769Y-84263867D01*
X69400251Y-84275500D01*
X69400252Y-84275500D01*
X70439748Y-84275500D01*
X70439749Y-84275500D01*
X70468989Y-84269683D01*
X70498231Y-84263867D01*
X70564552Y-84219552D01*
X70595899Y-84172638D01*
X70649248Y-84127949D01*
X70718272Y-84119038D01*
X70781222Y-84148713D01*
X70789148Y-84155734D01*
X70939775Y-84234790D01*
X71104944Y-84275500D01*
X71275055Y-84275500D01*
X71275056Y-84275500D01*
X71440225Y-84234790D01*
X71590852Y-84155734D01*
X71718183Y-84042929D01*
X71722949Y-84036023D01*
X71767373Y-83996666D01*
X71825000Y-83982462D01*
X71882627Y-83996666D01*
X71927051Y-84036024D01*
X71931815Y-84042927D01*
X71931816Y-84042928D01*
X71931817Y-84042929D01*
X72059148Y-84155734D01*
X72209775Y-84234790D01*
X72374944Y-84275500D01*
X72545055Y-84275500D01*
X72545056Y-84275500D01*
X72710225Y-84234790D01*
X72860852Y-84155734D01*
X72988183Y-84042929D01*
X72992949Y-84036023D01*
X73037373Y-83996666D01*
X73095000Y-83982462D01*
X73152627Y-83996666D01*
X73197051Y-84036024D01*
X73201815Y-84042927D01*
X73201816Y-84042928D01*
X73201817Y-84042929D01*
X73329148Y-84155734D01*
X73479775Y-84234790D01*
X73644944Y-84275500D01*
X73815055Y-84275500D01*
X73815056Y-84275500D01*
X73980225Y-84234790D01*
X74130852Y-84155734D01*
X74258183Y-84042929D01*
X74262949Y-84036023D01*
X74307373Y-83996666D01*
X74365000Y-83982462D01*
X74422627Y-83996666D01*
X74467051Y-84036024D01*
X74471815Y-84042927D01*
X74471816Y-84042928D01*
X74471817Y-84042929D01*
X74599148Y-84155734D01*
X74749775Y-84234790D01*
X74914944Y-84275500D01*
X75085055Y-84275500D01*
X75085056Y-84275500D01*
X75250225Y-84234790D01*
X75400852Y-84155734D01*
X75528183Y-84042929D01*
X75624818Y-83902930D01*
X75685140Y-83743872D01*
X75705645Y-83575000D01*
X75685140Y-83406128D01*
X75624818Y-83247070D01*
X75528186Y-83107075D01*
X75528184Y-83107072D01*
X75442272Y-83030961D01*
X75400852Y-82994266D01*
X75368639Y-82977359D01*
X75250224Y-82915209D01*
X75125764Y-82884533D01*
X75085056Y-82874500D01*
X74914944Y-82874500D01*
X74882284Y-82882549D01*
X74749775Y-82915209D01*
X74599149Y-82994265D01*
X74471814Y-83107073D01*
X74467049Y-83113978D01*
X74422625Y-83153334D01*
X74365000Y-83167537D01*
X74307375Y-83153334D01*
X74262951Y-83113978D01*
X74258185Y-83107073D01*
X74172272Y-83030961D01*
X74130852Y-82994266D01*
X74098639Y-82977359D01*
X73980224Y-82915209D01*
X73855764Y-82884533D01*
X73815056Y-82874500D01*
X73644944Y-82874500D01*
X73612284Y-82882549D01*
X73479775Y-82915209D01*
X73329149Y-82994265D01*
X73201814Y-83107073D01*
X73197049Y-83113978D01*
X73152625Y-83153334D01*
X73095000Y-83167537D01*
X73037375Y-83153334D01*
X72992951Y-83113978D01*
X72988185Y-83107073D01*
X72902272Y-83030961D01*
X72860852Y-82994266D01*
X72828639Y-82977359D01*
X72710224Y-82915209D01*
X72585764Y-82884533D01*
X72545056Y-82874500D01*
X72374944Y-82874500D01*
X72342284Y-82882549D01*
X72209775Y-82915209D01*
X72059149Y-82994265D01*
X71931814Y-83107073D01*
X71927049Y-83113978D01*
X71882625Y-83153334D01*
X71825000Y-83167537D01*
X71767375Y-83153334D01*
X71722951Y-83113978D01*
X71718185Y-83107073D01*
X71632272Y-83030961D01*
X71590852Y-82994266D01*
X71558639Y-82977359D01*
X71440224Y-82915209D01*
X71315764Y-82884533D01*
X71275056Y-82874500D01*
X71104944Y-82874500D01*
X71072284Y-82882549D01*
X70939775Y-82915209D01*
X70789145Y-82994267D01*
X70781222Y-83001287D01*
X70718270Y-83030961D01*
X70649247Y-83022050D01*
X70595897Y-82977359D01*
X70564551Y-82930447D01*
X70498230Y-82886132D01*
X70439749Y-82874500D01*
X70439748Y-82874500D01*
X69400252Y-82874500D01*
X69400251Y-82874500D01*
X69341769Y-82886132D01*
X69275447Y-82930447D01*
X69231132Y-82996769D01*
X69219500Y-83055251D01*
X69219500Y-84094749D01*
X39279690Y-84094749D01*
X39338183Y-84042929D01*
X39434818Y-83902930D01*
X39495140Y-83743872D01*
X39515645Y-83575000D01*
X39495140Y-83406128D01*
X39434818Y-83247070D01*
X39338186Y-83107075D01*
X39338184Y-83107072D01*
X39252272Y-83030961D01*
X39210852Y-82994266D01*
X39178639Y-82977359D01*
X39060224Y-82915209D01*
X38935764Y-82884533D01*
X38895056Y-82874500D01*
X38724944Y-82874500D01*
X38692284Y-82882549D01*
X38559775Y-82915209D01*
X38409149Y-82994265D01*
X38409147Y-82994266D01*
X38409148Y-82994266D01*
X38281817Y-83107071D01*
X38281816Y-83107072D01*
X38281813Y-83107075D01*
X38277046Y-83113981D01*
X38232620Y-83153336D01*
X38174995Y-83167537D01*
X38117370Y-83153332D01*
X38072949Y-83113975D01*
X38068183Y-83107071D01*
X37940852Y-82994266D01*
X37908639Y-82977359D01*
X37790224Y-82915209D01*
X37665764Y-82884533D01*
X37625056Y-82874500D01*
X37454944Y-82874500D01*
X37422284Y-82882549D01*
X37289775Y-82915209D01*
X37139149Y-82994265D01*
X37139147Y-82994266D01*
X37139148Y-82994266D01*
X37011817Y-83107071D01*
X37011816Y-83107072D01*
X37011813Y-83107075D01*
X37007046Y-83113981D01*
X36962620Y-83153336D01*
X36904995Y-83167537D01*
X36847370Y-83153332D01*
X36802949Y-83113975D01*
X36798183Y-83107071D01*
X36670852Y-82994266D01*
X36638639Y-82977359D01*
X36520224Y-82915209D01*
X36395764Y-82884533D01*
X36355056Y-82874500D01*
X36184944Y-82874500D01*
X36152284Y-82882549D01*
X36019775Y-82915209D01*
X35869145Y-82994267D01*
X35861222Y-83001287D01*
X35798270Y-83030961D01*
X35729247Y-83022050D01*
X35675897Y-82977359D01*
X35644551Y-82930447D01*
X35578230Y-82886132D01*
X35519749Y-82874500D01*
X35519748Y-82874500D01*
X34480252Y-82874500D01*
X34480251Y-82874500D01*
X34421769Y-82886132D01*
X34355447Y-82930447D01*
X34311132Y-82996769D01*
X34299500Y-83055251D01*
X34299500Y-84094749D01*
X25000500Y-84094749D01*
X25000500Y-25124500D01*
X25017113Y-25062500D01*
X25062500Y-25017113D01*
X25124500Y-25000500D01*
X84775500Y-25000500D01*
X84837500Y-25017113D01*
G37*
%TD.AperFunction*%
%TA.AperFunction,Conductor*%
G36*
X56282230Y-54173477D02*
G01*
X56320188Y-54216404D01*
X56358410Y-54287911D01*
X56364090Y-54298538D01*
X56489117Y-54450883D01*
X56641462Y-54575910D01*
X56815273Y-54668814D01*
X57003868Y-54726024D01*
X57200000Y-54745341D01*
X57396132Y-54726024D01*
X57577870Y-54670893D01*
X57643995Y-54669270D01*
X57701546Y-54701872D01*
X57894899Y-54895226D01*
X58080955Y-55081282D01*
X58088263Y-55089256D01*
X58112545Y-55118194D01*
X58145266Y-55137085D01*
X58154360Y-55142878D01*
X58185316Y-55164554D01*
X58185317Y-55164554D01*
X58186201Y-55165173D01*
X58210891Y-55175400D01*
X58211954Y-55175587D01*
X58211955Y-55175588D01*
X58249146Y-55182145D01*
X58259704Y-55184486D01*
X58296191Y-55194263D01*
X58296192Y-55194262D01*
X58296193Y-55194263D01*
X58333811Y-55190971D01*
X58344618Y-55190500D01*
X64145877Y-55190500D01*
X64204330Y-55205142D01*
X64248979Y-55245609D01*
X64269280Y-55302346D01*
X64260438Y-55361952D01*
X64224542Y-55410353D01*
X64073945Y-55533945D01*
X63942731Y-55693828D01*
X63845233Y-55876235D01*
X63798590Y-56030000D01*
X65841410Y-56030000D01*
X65794766Y-55876235D01*
X65697268Y-55693828D01*
X65566054Y-55533945D01*
X65415458Y-55410353D01*
X65379562Y-55361952D01*
X65370720Y-55302346D01*
X65391021Y-55245609D01*
X65435670Y-55205142D01*
X65494123Y-55190500D01*
X67870860Y-55190500D01*
X67933562Y-55207521D01*
X67979050Y-55253911D01*
X67994836Y-55316935D01*
X67976587Y-55379290D01*
X67929313Y-55423858D01*
X67891463Y-55444089D01*
X67739117Y-55569117D01*
X67614089Y-55721463D01*
X67521185Y-55895273D01*
X67463976Y-56083866D01*
X67444659Y-56279999D01*
X67463976Y-56476133D01*
X67521185Y-56664726D01*
X67573383Y-56762381D01*
X67614090Y-56838538D01*
X67739117Y-56990883D01*
X67891462Y-57115910D01*
X68065273Y-57208814D01*
X68253868Y-57266024D01*
X68450000Y-57285341D01*
X68646132Y-57266024D01*
X68834727Y-57208814D01*
X69008538Y-57115910D01*
X69160883Y-56990883D01*
X69285910Y-56838538D01*
X69378814Y-56664727D01*
X69436024Y-56476132D01*
X69455341Y-56280000D01*
X69436024Y-56083868D01*
X69378814Y-55895273D01*
X69285910Y-55721462D01*
X69160883Y-55569117D01*
X69008538Y-55444090D01*
X68970687Y-55423858D01*
X68923413Y-55379290D01*
X68905164Y-55316935D01*
X68920950Y-55253911D01*
X68966438Y-55207521D01*
X69029140Y-55190500D01*
X75490860Y-55190500D01*
X75553562Y-55207521D01*
X75599050Y-55253911D01*
X75614836Y-55316935D01*
X75596587Y-55379290D01*
X75549313Y-55423858D01*
X75511463Y-55444089D01*
X75359117Y-55569117D01*
X75234089Y-55721463D01*
X75141185Y-55895273D01*
X75083976Y-56083866D01*
X75064659Y-56280000D01*
X75083976Y-56476133D01*
X75141185Y-56664726D01*
X75193383Y-56762381D01*
X75234090Y-56838538D01*
X75359117Y-56990883D01*
X75511462Y-57115910D01*
X75685273Y-57208814D01*
X75873868Y-57266024D01*
X76070000Y-57285341D01*
X76266132Y-57266024D01*
X76454727Y-57208814D01*
X76628538Y-57115910D01*
X76780883Y-56990883D01*
X76905910Y-56838538D01*
X76998814Y-56664727D01*
X77056024Y-56476132D01*
X77075341Y-56280000D01*
X77056024Y-56083868D01*
X76998814Y-55895273D01*
X76905910Y-55721462D01*
X76780883Y-55569117D01*
X76628538Y-55444090D01*
X76590687Y-55423858D01*
X76543413Y-55379290D01*
X76525164Y-55316935D01*
X76540950Y-55253911D01*
X76586438Y-55207521D01*
X76649140Y-55190500D01*
X78353812Y-55190500D01*
X78401265Y-55199939D01*
X78441492Y-55226818D01*
X78813580Y-55598907D01*
X78846472Y-55657638D01*
X78843829Y-55724903D01*
X78813916Y-55816967D01*
X78813915Y-55816971D01*
X78800452Y-55945061D01*
X78794678Y-55999999D01*
X78813915Y-56183030D01*
X78870785Y-56358059D01*
X78962804Y-56517440D01*
X79085950Y-56654208D01*
X79234837Y-56762380D01*
X79402968Y-56837237D01*
X79582980Y-56875500D01*
X79582981Y-56875500D01*
X79767019Y-56875500D01*
X79767020Y-56875500D01*
X79947031Y-56837237D01*
X79947032Y-56837236D01*
X79947034Y-56837236D01*
X80115161Y-56762381D01*
X80240873Y-56671046D01*
X80264049Y-56654208D01*
X80315430Y-56597144D01*
X80387195Y-56517440D01*
X80479214Y-56358059D01*
X80536085Y-56183029D01*
X80540418Y-56141794D01*
X80566360Y-56077990D01*
X80622347Y-56037870D01*
X80691105Y-56033816D01*
X80751420Y-56067077D01*
X83263181Y-58578838D01*
X83290061Y-58619066D01*
X83299500Y-58666519D01*
X83299500Y-76658481D01*
X83290061Y-76705934D01*
X83263181Y-76746162D01*
X79696162Y-80313181D01*
X79655934Y-80340061D01*
X79608481Y-80349500D01*
X60893450Y-80349500D01*
X60831450Y-80332887D01*
X60786063Y-80287500D01*
X60769450Y-80225500D01*
X60786063Y-80163500D01*
X60849684Y-80053304D01*
X60891372Y-79925000D01*
X59874000Y-79925000D01*
X59812000Y-79908387D01*
X59766613Y-79863000D01*
X59750000Y-79801000D01*
X59750000Y-78782474D01*
X60250000Y-78782474D01*
X60250000Y-79425000D01*
X60891372Y-79425000D01*
X60891372Y-79424999D01*
X60849684Y-79296695D01*
X60752463Y-79128303D01*
X60622356Y-78983806D01*
X60465047Y-78869513D01*
X60287413Y-78790427D01*
X60250000Y-78782474D01*
X59750000Y-78782474D01*
X59712585Y-78790427D01*
X59534952Y-78869513D01*
X59377643Y-78983805D01*
X59247536Y-79128303D01*
X59150315Y-79296695D01*
X59091907Y-79476461D01*
X59058860Y-79528535D01*
X59004814Y-79558247D01*
X58943138Y-79558247D01*
X58889092Y-79528535D01*
X58856045Y-79476461D01*
X58839324Y-79425000D01*
X58804214Y-79316941D01*
X58804214Y-79316940D01*
X58712195Y-79157559D01*
X58589049Y-79020791D01*
X58440162Y-78912619D01*
X58272031Y-78837762D01*
X58092020Y-78799500D01*
X58092019Y-78799500D01*
X57907981Y-78799500D01*
X57907980Y-78799500D01*
X57727968Y-78837762D01*
X57559837Y-78912619D01*
X57410950Y-79020791D01*
X57287804Y-79157559D01*
X57195785Y-79316940D01*
X57138914Y-79491973D01*
X57134580Y-79533205D01*
X57108638Y-79597010D01*
X57052651Y-79637129D01*
X56983893Y-79641183D01*
X56923579Y-79607922D01*
X56898413Y-79582756D01*
X56874173Y-79548457D01*
X56862773Y-79508033D01*
X56861085Y-79491969D01*
X56804214Y-79316940D01*
X56712195Y-79157559D01*
X56589049Y-79020791D01*
X56440162Y-78912619D01*
X56272031Y-78837762D01*
X56092020Y-78799500D01*
X56092019Y-78799500D01*
X55907981Y-78799500D01*
X55907980Y-78799500D01*
X55727968Y-78837762D01*
X55559837Y-78912619D01*
X55410950Y-79020791D01*
X55287804Y-79157559D01*
X55195785Y-79316940D01*
X55138914Y-79491973D01*
X55137225Y-79508040D01*
X55125825Y-79548460D01*
X55101586Y-79582755D01*
X55076419Y-79607922D01*
X55016104Y-79641184D01*
X54947345Y-79637128D01*
X54891358Y-79597007D01*
X54865418Y-79533204D01*
X54861085Y-79491971D01*
X54804214Y-79316941D01*
X54804214Y-79316940D01*
X54712195Y-79157559D01*
X54589049Y-79020791D01*
X54440162Y-78912619D01*
X54272031Y-78837762D01*
X54092020Y-78799500D01*
X54092019Y-78799500D01*
X53907981Y-78799500D01*
X53907980Y-78799500D01*
X53727968Y-78837762D01*
X53559837Y-78912619D01*
X53410950Y-79020791D01*
X53287804Y-79157559D01*
X53195785Y-79316940D01*
X53138915Y-79491969D01*
X53138914Y-79491971D01*
X53138915Y-79491971D01*
X53123659Y-79637129D01*
X53123321Y-79640343D01*
X53110707Y-79674999D01*
X53123320Y-79709653D01*
X53124183Y-79717862D01*
X53138915Y-79858030D01*
X53195785Y-80033059D01*
X53271096Y-80163500D01*
X53287709Y-80225500D01*
X53271096Y-80287500D01*
X53225709Y-80332887D01*
X53163709Y-80349500D01*
X52836291Y-80349500D01*
X52774291Y-80332887D01*
X52728904Y-80287500D01*
X52712291Y-80225500D01*
X52728904Y-80163500D01*
X52804214Y-80033059D01*
X52804213Y-80033059D01*
X52861085Y-79858029D01*
X52876679Y-79709653D01*
X52889292Y-79674999D01*
X52876679Y-79640343D01*
X52861085Y-79491971D01*
X52804214Y-79316941D01*
X52804214Y-79316940D01*
X52712195Y-79157559D01*
X52589049Y-79020791D01*
X52440162Y-78912619D01*
X52272031Y-78837762D01*
X52092020Y-78799500D01*
X52092019Y-78799500D01*
X51907981Y-78799500D01*
X51907980Y-78799500D01*
X51727968Y-78837762D01*
X51559837Y-78912619D01*
X51410950Y-79020791D01*
X51287804Y-79157559D01*
X51195785Y-79316940D01*
X51138915Y-79491969D01*
X51138914Y-79491971D01*
X51138915Y-79491971D01*
X51123233Y-79641184D01*
X51122821Y-79645100D01*
X51111641Y-79675000D01*
X51122820Y-79704898D01*
X51124183Y-79717862D01*
X51138915Y-79858030D01*
X51195785Y-80033059D01*
X51271096Y-80163500D01*
X51287709Y-80225500D01*
X51271096Y-80287500D01*
X51225709Y-80332887D01*
X51163709Y-80349500D01*
X50999500Y-80349500D01*
X50937500Y-80332887D01*
X50892113Y-80287500D01*
X50875500Y-80225500D01*
X50875500Y-79717862D01*
X50886584Y-79674999D01*
X50875500Y-79632138D01*
X50875500Y-78980251D01*
X50863867Y-78921769D01*
X50819552Y-78855447D01*
X50753230Y-78811132D01*
X50694749Y-78799500D01*
X50694748Y-78799500D01*
X49305252Y-78799500D01*
X49305251Y-78799500D01*
X49246769Y-78811132D01*
X49180447Y-78855447D01*
X49136132Y-78921769D01*
X49124500Y-78980251D01*
X49124500Y-80225500D01*
X49107887Y-80287500D01*
X49062500Y-80332887D01*
X49000500Y-80349500D01*
X30391519Y-80349500D01*
X30344066Y-80340061D01*
X30303838Y-80313181D01*
X26736819Y-76746162D01*
X26709939Y-76705934D01*
X26700500Y-76658481D01*
X26700500Y-76119749D01*
X27599500Y-76119749D01*
X27611132Y-76178230D01*
X27655447Y-76244552D01*
X27721769Y-76288867D01*
X27780251Y-76300500D01*
X27780252Y-76300500D01*
X29419748Y-76300500D01*
X29419749Y-76300500D01*
X29448989Y-76294683D01*
X29478231Y-76288867D01*
X29544552Y-76244552D01*
X29588867Y-76178231D01*
X29600500Y-76119748D01*
X29600500Y-75300000D01*
X30134659Y-75300000D01*
X30153976Y-75496133D01*
X30211185Y-75684726D01*
X30211186Y-75684727D01*
X30304090Y-75858538D01*
X30429117Y-76010883D01*
X30581462Y-76135910D01*
X30755273Y-76228814D01*
X30943868Y-76286024D01*
X31140000Y-76305341D01*
X31336132Y-76286024D01*
X31524727Y-76228814D01*
X31698538Y-76135910D01*
X31850883Y-76010883D01*
X31975910Y-75858538D01*
X32068814Y-75684727D01*
X32126024Y-75496132D01*
X32145341Y-75300000D01*
X32674659Y-75300000D01*
X32693976Y-75496133D01*
X32751185Y-75684726D01*
X32751186Y-75684727D01*
X32844090Y-75858538D01*
X32969117Y-76010883D01*
X33121462Y-76135910D01*
X33295273Y-76228814D01*
X33483868Y-76286024D01*
X33680000Y-76305341D01*
X33876132Y-76286024D01*
X34064727Y-76228814D01*
X34238538Y-76135910D01*
X34390883Y-76010883D01*
X34515910Y-75858538D01*
X34608814Y-75684727D01*
X34666024Y-75496132D01*
X34685341Y-75300000D01*
X35214659Y-75300000D01*
X35233976Y-75496133D01*
X35291185Y-75684726D01*
X35291186Y-75684727D01*
X35384090Y-75858538D01*
X35509117Y-76010883D01*
X35661462Y-76135910D01*
X35835273Y-76228814D01*
X36023868Y-76286024D01*
X36220000Y-76305341D01*
X36416132Y-76286024D01*
X36604727Y-76228814D01*
X36778538Y-76135910D01*
X36930883Y-76010883D01*
X37055910Y-75858538D01*
X37148814Y-75684727D01*
X37206024Y-75496132D01*
X37225341Y-75300000D01*
X37754659Y-75300000D01*
X37773976Y-75496133D01*
X37831185Y-75684726D01*
X37831186Y-75684727D01*
X37924090Y-75858538D01*
X38049117Y-76010883D01*
X38201462Y-76135910D01*
X38375273Y-76228814D01*
X38563868Y-76286024D01*
X38760000Y-76305341D01*
X38956132Y-76286024D01*
X39144727Y-76228814D01*
X39318538Y-76135910D01*
X39470883Y-76010883D01*
X39595910Y-75858538D01*
X39688814Y-75684727D01*
X39746024Y-75496132D01*
X39765341Y-75300000D01*
X40294659Y-75300000D01*
X40313976Y-75496133D01*
X40371185Y-75684726D01*
X40371186Y-75684727D01*
X40464090Y-75858538D01*
X40589117Y-76010883D01*
X40741462Y-76135910D01*
X40915273Y-76228814D01*
X41103868Y-76286024D01*
X41300000Y-76305341D01*
X41496132Y-76286024D01*
X41684727Y-76228814D01*
X41858538Y-76135910D01*
X42010883Y-76010883D01*
X42135910Y-75858538D01*
X42228814Y-75684727D01*
X42286024Y-75496132D01*
X42305341Y-75300000D01*
X42834659Y-75300000D01*
X42853976Y-75496133D01*
X42911185Y-75684726D01*
X42911186Y-75684727D01*
X43004090Y-75858538D01*
X43129117Y-76010883D01*
X43281462Y-76135910D01*
X43455273Y-76228814D01*
X43643868Y-76286024D01*
X43840000Y-76305341D01*
X44036132Y-76286024D01*
X44224727Y-76228814D01*
X44398538Y-76135910D01*
X44550883Y-76010883D01*
X44675910Y-75858538D01*
X44768814Y-75684727D01*
X44809683Y-75550000D01*
X45358590Y-75550000D01*
X45405233Y-75703764D01*
X45502731Y-75886171D01*
X45633945Y-76046054D01*
X45793828Y-76177268D01*
X45976235Y-76274766D01*
X46130000Y-76321410D01*
X46130000Y-75550000D01*
X46630000Y-75550000D01*
X46630000Y-76321410D01*
X46783764Y-76274766D01*
X46966171Y-76177268D01*
X47036257Y-76119749D01*
X62599500Y-76119749D01*
X62611132Y-76178230D01*
X62655447Y-76244552D01*
X62721769Y-76288867D01*
X62780251Y-76300500D01*
X62780252Y-76300500D01*
X64419748Y-76300500D01*
X64419749Y-76300500D01*
X64448989Y-76294683D01*
X64478231Y-76288867D01*
X64544552Y-76244552D01*
X64588867Y-76178231D01*
X64600500Y-76119748D01*
X64600500Y-75300000D01*
X65134659Y-75300000D01*
X65153976Y-75496133D01*
X65211185Y-75684726D01*
X65211186Y-75684727D01*
X65304090Y-75858538D01*
X65429117Y-76010883D01*
X65581462Y-76135910D01*
X65755273Y-76228814D01*
X65943868Y-76286024D01*
X66140000Y-76305341D01*
X66336132Y-76286024D01*
X66524727Y-76228814D01*
X66698538Y-76135910D01*
X66850883Y-76010883D01*
X66975910Y-75858538D01*
X67068814Y-75684727D01*
X67126024Y-75496132D01*
X67145341Y-75300000D01*
X67674659Y-75300000D01*
X67693976Y-75496133D01*
X67751185Y-75684726D01*
X67751186Y-75684727D01*
X67844090Y-75858538D01*
X67969117Y-76010883D01*
X68121462Y-76135910D01*
X68295273Y-76228814D01*
X68483868Y-76286024D01*
X68680000Y-76305341D01*
X68876132Y-76286024D01*
X69064727Y-76228814D01*
X69238538Y-76135910D01*
X69390883Y-76010883D01*
X69515910Y-75858538D01*
X69608814Y-75684727D01*
X69666024Y-75496132D01*
X69685341Y-75300000D01*
X70214659Y-75300000D01*
X70233976Y-75496133D01*
X70291185Y-75684726D01*
X70291186Y-75684727D01*
X70384090Y-75858538D01*
X70509117Y-76010883D01*
X70661462Y-76135910D01*
X70835273Y-76228814D01*
X71023868Y-76286024D01*
X71220000Y-76305341D01*
X71416132Y-76286024D01*
X71604727Y-76228814D01*
X71778538Y-76135910D01*
X71930883Y-76010883D01*
X72055910Y-75858538D01*
X72148814Y-75684727D01*
X72206024Y-75496132D01*
X72225341Y-75300000D01*
X72754659Y-75300000D01*
X72773976Y-75496133D01*
X72831185Y-75684726D01*
X72831186Y-75684727D01*
X72924090Y-75858538D01*
X73049117Y-76010883D01*
X73201462Y-76135910D01*
X73375273Y-76228814D01*
X73563868Y-76286024D01*
X73760000Y-76305341D01*
X73956132Y-76286024D01*
X74144727Y-76228814D01*
X74318538Y-76135910D01*
X74470883Y-76010883D01*
X74595910Y-75858538D01*
X74688814Y-75684727D01*
X74746024Y-75496132D01*
X74765341Y-75300000D01*
X75294659Y-75300000D01*
X75313976Y-75496133D01*
X75371185Y-75684726D01*
X75371186Y-75684727D01*
X75464090Y-75858538D01*
X75589117Y-76010883D01*
X75741462Y-76135910D01*
X75915273Y-76228814D01*
X76103868Y-76286024D01*
X76300000Y-76305341D01*
X76496132Y-76286024D01*
X76684727Y-76228814D01*
X76858538Y-76135910D01*
X77010883Y-76010883D01*
X77135910Y-75858538D01*
X77228814Y-75684727D01*
X77286024Y-75496132D01*
X77305341Y-75300000D01*
X77834659Y-75300000D01*
X77853976Y-75496133D01*
X77911185Y-75684726D01*
X77911186Y-75684727D01*
X78004090Y-75858538D01*
X78129117Y-76010883D01*
X78281462Y-76135910D01*
X78455273Y-76228814D01*
X78643868Y-76286024D01*
X78840000Y-76305341D01*
X79036132Y-76286024D01*
X79224727Y-76228814D01*
X79398538Y-76135910D01*
X79550883Y-76010883D01*
X79675910Y-75858538D01*
X79768814Y-75684727D01*
X79809683Y-75550000D01*
X80358590Y-75550000D01*
X80405233Y-75703764D01*
X80502731Y-75886171D01*
X80633945Y-76046054D01*
X80793828Y-76177268D01*
X80976235Y-76274766D01*
X81130000Y-76321410D01*
X81130000Y-75550000D01*
X81630000Y-75550000D01*
X81630000Y-76321410D01*
X81783764Y-76274766D01*
X81966171Y-76177268D01*
X82126054Y-76046054D01*
X82257268Y-75886171D01*
X82354766Y-75703764D01*
X82401410Y-75550000D01*
X81630000Y-75550000D01*
X81130000Y-75550000D01*
X80358590Y-75550000D01*
X79809683Y-75550000D01*
X79826024Y-75496132D01*
X79845341Y-75300000D01*
X79826024Y-75103868D01*
X79809683Y-75050000D01*
X80358590Y-75050000D01*
X81130000Y-75050000D01*
X81130000Y-74278590D01*
X81630000Y-74278590D01*
X81630000Y-75050000D01*
X82401410Y-75050000D01*
X82354766Y-74896235D01*
X82257268Y-74713828D01*
X82126054Y-74553945D01*
X81966171Y-74422731D01*
X81783764Y-74325233D01*
X81630000Y-74278590D01*
X81130000Y-74278590D01*
X80976235Y-74325233D01*
X80793828Y-74422731D01*
X80633945Y-74553945D01*
X80502731Y-74713828D01*
X80405233Y-74896235D01*
X80358590Y-75050000D01*
X79809683Y-75050000D01*
X79768814Y-74915273D01*
X79675910Y-74741462D01*
X79550883Y-74589117D01*
X79398538Y-74464090D01*
X79319361Y-74421769D01*
X79224726Y-74371185D01*
X79036133Y-74313976D01*
X78840000Y-74294659D01*
X78643866Y-74313976D01*
X78455273Y-74371185D01*
X78281463Y-74464089D01*
X78129117Y-74589117D01*
X78004089Y-74741463D01*
X77911185Y-74915273D01*
X77853976Y-75103866D01*
X77834659Y-75300000D01*
X77305341Y-75300000D01*
X77286024Y-75103868D01*
X77228814Y-74915273D01*
X77135910Y-74741462D01*
X77010883Y-74589117D01*
X76858538Y-74464090D01*
X76779361Y-74421769D01*
X76684726Y-74371185D01*
X76496133Y-74313976D01*
X76300000Y-74294659D01*
X76103866Y-74313976D01*
X75915273Y-74371185D01*
X75741463Y-74464089D01*
X75589117Y-74589117D01*
X75464089Y-74741463D01*
X75371185Y-74915273D01*
X75313976Y-75103866D01*
X75294659Y-75300000D01*
X74765341Y-75300000D01*
X74746024Y-75103868D01*
X74688814Y-74915273D01*
X74595910Y-74741462D01*
X74470883Y-74589117D01*
X74318538Y-74464090D01*
X74239361Y-74421769D01*
X74144726Y-74371185D01*
X73956133Y-74313976D01*
X73760000Y-74294659D01*
X73563866Y-74313976D01*
X73375273Y-74371185D01*
X73201463Y-74464089D01*
X73049117Y-74589117D01*
X72924089Y-74741463D01*
X72831185Y-74915273D01*
X72773976Y-75103866D01*
X72754659Y-75300000D01*
X72225341Y-75300000D01*
X72206024Y-75103868D01*
X72148814Y-74915273D01*
X72055910Y-74741462D01*
X71930883Y-74589117D01*
X71778538Y-74464090D01*
X71699361Y-74421769D01*
X71604726Y-74371185D01*
X71416133Y-74313976D01*
X71220000Y-74294659D01*
X71023866Y-74313976D01*
X70835273Y-74371185D01*
X70661463Y-74464089D01*
X70509117Y-74589117D01*
X70384089Y-74741463D01*
X70291185Y-74915273D01*
X70233976Y-75103866D01*
X70214659Y-75300000D01*
X69685341Y-75300000D01*
X69666024Y-75103868D01*
X69608814Y-74915273D01*
X69515910Y-74741462D01*
X69390883Y-74589117D01*
X69238538Y-74464090D01*
X69159361Y-74421769D01*
X69064726Y-74371185D01*
X68876133Y-74313976D01*
X68680000Y-74294659D01*
X68483866Y-74313976D01*
X68295273Y-74371185D01*
X68121463Y-74464089D01*
X67969117Y-74589117D01*
X67844089Y-74741463D01*
X67751185Y-74915273D01*
X67693976Y-75103866D01*
X67674659Y-75300000D01*
X67145341Y-75300000D01*
X67126024Y-75103868D01*
X67068814Y-74915273D01*
X66975910Y-74741462D01*
X66850883Y-74589117D01*
X66698538Y-74464090D01*
X66619361Y-74421769D01*
X66524726Y-74371185D01*
X66336133Y-74313976D01*
X66140000Y-74294659D01*
X65943866Y-74313976D01*
X65755273Y-74371185D01*
X65581463Y-74464089D01*
X65429117Y-74589117D01*
X65304089Y-74741463D01*
X65211185Y-74915273D01*
X65153976Y-75103866D01*
X65134659Y-75300000D01*
X64600500Y-75300000D01*
X64600500Y-74480252D01*
X64588867Y-74421769D01*
X64555068Y-74371186D01*
X64544552Y-74355447D01*
X64478230Y-74311132D01*
X64419749Y-74299500D01*
X64419748Y-74299500D01*
X62780252Y-74299500D01*
X62780251Y-74299500D01*
X62721769Y-74311132D01*
X62655447Y-74355447D01*
X62611132Y-74421769D01*
X62599500Y-74480251D01*
X62599500Y-76119749D01*
X47036257Y-76119749D01*
X47126054Y-76046054D01*
X47257268Y-75886171D01*
X47354766Y-75703764D01*
X47401410Y-75550000D01*
X46630000Y-75550000D01*
X46130000Y-75550000D01*
X45358590Y-75550000D01*
X44809683Y-75550000D01*
X44826024Y-75496132D01*
X44845341Y-75300000D01*
X44826024Y-75103868D01*
X44809683Y-75050000D01*
X45358590Y-75050000D01*
X46130000Y-75050000D01*
X46130000Y-74278590D01*
X46630000Y-74278590D01*
X46630000Y-75050000D01*
X47401410Y-75050000D01*
X47354766Y-74896235D01*
X47257268Y-74713828D01*
X47126054Y-74553945D01*
X46966171Y-74422731D01*
X46783764Y-74325233D01*
X46630000Y-74278590D01*
X46130000Y-74278590D01*
X45976235Y-74325233D01*
X45793828Y-74422731D01*
X45633945Y-74553945D01*
X45502731Y-74713828D01*
X45405233Y-74896235D01*
X45358590Y-75050000D01*
X44809683Y-75050000D01*
X44768814Y-74915273D01*
X44675910Y-74741462D01*
X44550883Y-74589117D01*
X44398538Y-74464090D01*
X44319361Y-74421769D01*
X44224726Y-74371185D01*
X44036133Y-74313976D01*
X43840000Y-74294659D01*
X43643866Y-74313976D01*
X43455273Y-74371185D01*
X43281463Y-74464089D01*
X43129117Y-74589117D01*
X43004089Y-74741463D01*
X42911185Y-74915273D01*
X42853976Y-75103866D01*
X42834659Y-75300000D01*
X42305341Y-75300000D01*
X42286024Y-75103868D01*
X42228814Y-74915273D01*
X42135910Y-74741462D01*
X42010883Y-74589117D01*
X41858538Y-74464090D01*
X41779361Y-74421769D01*
X41684726Y-74371185D01*
X41496133Y-74313976D01*
X41300000Y-74294659D01*
X41103866Y-74313976D01*
X40915273Y-74371185D01*
X40741463Y-74464089D01*
X40589117Y-74589117D01*
X40464089Y-74741463D01*
X40371185Y-74915273D01*
X40313976Y-75103866D01*
X40294659Y-75300000D01*
X39765341Y-75300000D01*
X39746024Y-75103868D01*
X39688814Y-74915273D01*
X39595910Y-74741462D01*
X39470883Y-74589117D01*
X39318538Y-74464090D01*
X39239361Y-74421769D01*
X39144726Y-74371185D01*
X38956133Y-74313976D01*
X38760000Y-74294659D01*
X38563866Y-74313976D01*
X38375273Y-74371185D01*
X38201463Y-74464089D01*
X38049117Y-74589117D01*
X37924089Y-74741463D01*
X37831185Y-74915273D01*
X37773976Y-75103866D01*
X37754659Y-75300000D01*
X37225341Y-75300000D01*
X37206024Y-75103868D01*
X37148814Y-74915273D01*
X37055910Y-74741462D01*
X36930883Y-74589117D01*
X36778538Y-74464090D01*
X36699361Y-74421769D01*
X36604726Y-74371185D01*
X36416133Y-74313976D01*
X36220000Y-74294659D01*
X36023866Y-74313976D01*
X35835273Y-74371185D01*
X35661463Y-74464089D01*
X35509117Y-74589117D01*
X35384089Y-74741463D01*
X35291185Y-74915273D01*
X35233976Y-75103866D01*
X35214659Y-75300000D01*
X34685341Y-75300000D01*
X34666024Y-75103868D01*
X34610892Y-74922126D01*
X34609270Y-74856004D01*
X34641873Y-74798452D01*
X35018557Y-74421769D01*
X36298507Y-73141819D01*
X36338736Y-73114939D01*
X36386189Y-73105500D01*
X50165205Y-73105500D01*
X50228954Y-73123142D01*
X50274563Y-73171046D01*
X50364089Y-73338536D01*
X50364090Y-73338538D01*
X50489117Y-73490883D01*
X50641462Y-73615910D01*
X50815273Y-73708814D01*
X51003868Y-73766024D01*
X51200000Y-73785341D01*
X51396132Y-73766024D01*
X51584727Y-73708814D01*
X51758538Y-73615910D01*
X51910883Y-73490883D01*
X52035910Y-73338538D01*
X52128814Y-73164727D01*
X52186024Y-72976132D01*
X52205341Y-72780000D01*
X57814659Y-72780000D01*
X57833976Y-72976133D01*
X57891185Y-73164726D01*
X57972091Y-73316091D01*
X57984090Y-73338538D01*
X58109117Y-73490883D01*
X58261462Y-73615910D01*
X58435273Y-73708814D01*
X58623868Y-73766024D01*
X58820000Y-73785341D01*
X59016132Y-73766024D01*
X59204727Y-73708814D01*
X59378538Y-73615910D01*
X59530883Y-73490883D01*
X59655910Y-73338538D01*
X59748814Y-73164727D01*
X59806024Y-72976132D01*
X59825341Y-72780000D01*
X59806024Y-72583868D01*
X59748814Y-72395273D01*
X59655910Y-72221462D01*
X59530883Y-72069117D01*
X59378538Y-71944090D01*
X59356091Y-71932092D01*
X59204726Y-71851185D01*
X59016133Y-71793976D01*
X58820000Y-71774659D01*
X58623866Y-71793976D01*
X58435273Y-71851185D01*
X58261463Y-71944089D01*
X58109117Y-72069117D01*
X57984089Y-72221463D01*
X57891185Y-72395273D01*
X57833976Y-72583866D01*
X57814659Y-72780000D01*
X52205341Y-72780000D01*
X52186024Y-72583868D01*
X52128814Y-72395273D01*
X52035910Y-72221462D01*
X51910883Y-72069117D01*
X51758538Y-71944090D01*
X51736091Y-71932092D01*
X51584726Y-71851185D01*
X51396133Y-71793976D01*
X51200000Y-71774659D01*
X51003866Y-71793976D01*
X50815273Y-71851185D01*
X50641463Y-71944089D01*
X50489117Y-72069117D01*
X50364090Y-72221461D01*
X50274563Y-72388954D01*
X50228954Y-72436858D01*
X50165205Y-72454500D01*
X36219619Y-72454500D01*
X36208812Y-72454028D01*
X36206298Y-72453808D01*
X36171191Y-72450736D01*
X36134710Y-72460511D01*
X36124155Y-72462852D01*
X36112814Y-72464851D01*
X36086955Y-72469412D01*
X36086953Y-72469412D01*
X36085897Y-72469599D01*
X36061192Y-72479832D01*
X36029378Y-72502107D01*
X36020261Y-72507915D01*
X35987545Y-72526804D01*
X35963262Y-72555743D01*
X35955956Y-72563715D01*
X34181546Y-74338126D01*
X34123995Y-74370729D01*
X34057870Y-74369106D01*
X33876130Y-74313975D01*
X33680000Y-74294659D01*
X33483866Y-74313976D01*
X33295273Y-74371185D01*
X33121463Y-74464089D01*
X32969117Y-74589117D01*
X32844089Y-74741463D01*
X32751185Y-74915273D01*
X32693976Y-75103866D01*
X32674659Y-75300000D01*
X32145341Y-75300000D01*
X32126024Y-75103868D01*
X32068814Y-74915273D01*
X31975910Y-74741462D01*
X31850883Y-74589117D01*
X31698538Y-74464090D01*
X31619361Y-74421769D01*
X31524726Y-74371185D01*
X31336133Y-74313976D01*
X31140000Y-74294659D01*
X30943866Y-74313976D01*
X30755273Y-74371185D01*
X30581463Y-74464089D01*
X30429117Y-74589117D01*
X30304089Y-74741463D01*
X30211185Y-74915273D01*
X30153976Y-75103866D01*
X30134659Y-75300000D01*
X29600500Y-75300000D01*
X29600500Y-74480252D01*
X29588867Y-74421769D01*
X29555068Y-74371186D01*
X29544552Y-74355447D01*
X29478230Y-74311132D01*
X29419749Y-74299500D01*
X29419748Y-74299500D01*
X27780252Y-74299500D01*
X27780251Y-74299500D01*
X27721769Y-74311132D01*
X27655447Y-74355447D01*
X27611132Y-74421769D01*
X27599500Y-74480251D01*
X27599500Y-76119749D01*
X26700500Y-76119749D01*
X26700500Y-70490000D01*
X50178590Y-70490000D01*
X50225233Y-70643764D01*
X50322731Y-70826171D01*
X50453945Y-70986054D01*
X50613828Y-71117268D01*
X50796235Y-71214766D01*
X50950000Y-71261410D01*
X50950000Y-70490000D01*
X51450000Y-70490000D01*
X51450000Y-71261410D01*
X51603764Y-71214766D01*
X51786171Y-71117268D01*
X51946054Y-70986054D01*
X52077268Y-70826171D01*
X52174766Y-70643764D01*
X52221410Y-70490000D01*
X51450000Y-70490000D01*
X50950000Y-70490000D01*
X50178590Y-70490000D01*
X26700500Y-70490000D01*
X26700500Y-69990000D01*
X50178590Y-69990000D01*
X50950000Y-69990000D01*
X50950000Y-69218590D01*
X51450000Y-69218590D01*
X51450000Y-69990000D01*
X52221410Y-69990000D01*
X52174766Y-69836235D01*
X52077268Y-69653828D01*
X51946054Y-69493945D01*
X51786171Y-69362731D01*
X51603764Y-69265233D01*
X51450000Y-69218590D01*
X50950000Y-69218590D01*
X50796235Y-69265233D01*
X50613828Y-69362731D01*
X50453945Y-69493945D01*
X50322731Y-69653828D01*
X50225233Y-69836235D01*
X50178590Y-69990000D01*
X26700500Y-69990000D01*
X26700500Y-67680000D01*
X27594659Y-67680000D01*
X27613976Y-67876133D01*
X27671185Y-68064726D01*
X27702865Y-68123995D01*
X27764090Y-68238538D01*
X27889117Y-68390883D01*
X28041462Y-68515910D01*
X28215273Y-68608814D01*
X28403868Y-68666024D01*
X28600000Y-68685341D01*
X28796132Y-68666024D01*
X28984727Y-68608814D01*
X29158538Y-68515910D01*
X29310883Y-68390883D01*
X29435910Y-68238538D01*
X29528814Y-68064727D01*
X29586024Y-67876132D01*
X29605341Y-67680000D01*
X30134659Y-67680000D01*
X30153976Y-67876133D01*
X30211185Y-68064726D01*
X30242865Y-68123995D01*
X30304090Y-68238538D01*
X30429117Y-68390883D01*
X30581462Y-68515910D01*
X30755273Y-68608814D01*
X30943868Y-68666024D01*
X31140000Y-68685341D01*
X31336132Y-68666024D01*
X31524727Y-68608814D01*
X31698538Y-68515910D01*
X31850883Y-68390883D01*
X31975910Y-68238538D01*
X32068814Y-68064727D01*
X32126024Y-67876132D01*
X32145341Y-67680000D01*
X32674659Y-67680000D01*
X32693976Y-67876133D01*
X32751185Y-68064726D01*
X32782865Y-68123995D01*
X32844090Y-68238538D01*
X32969117Y-68390883D01*
X33121462Y-68515910D01*
X33295273Y-68608814D01*
X33483868Y-68666024D01*
X33680000Y-68685341D01*
X33876132Y-68666024D01*
X34064727Y-68608814D01*
X34238538Y-68515910D01*
X34390883Y-68390883D01*
X34515910Y-68238538D01*
X34608814Y-68064727D01*
X34649683Y-67930000D01*
X35198590Y-67930000D01*
X35245233Y-68083764D01*
X35342731Y-68266171D01*
X35473945Y-68426054D01*
X35633828Y-68557268D01*
X35816235Y-68654766D01*
X35970000Y-68701410D01*
X35970000Y-67930000D01*
X36470000Y-67930000D01*
X36470000Y-68701410D01*
X36623764Y-68654766D01*
X36806171Y-68557268D01*
X36966054Y-68426054D01*
X37097268Y-68266171D01*
X37194766Y-68083764D01*
X37241410Y-67930000D01*
X36470000Y-67930000D01*
X35970000Y-67930000D01*
X35198590Y-67930000D01*
X34649683Y-67930000D01*
X34666024Y-67876132D01*
X34685341Y-67680000D01*
X37754659Y-67680000D01*
X37773976Y-67876133D01*
X37831185Y-68064726D01*
X37862865Y-68123995D01*
X37924090Y-68238538D01*
X38049117Y-68390883D01*
X38201462Y-68515910D01*
X38375273Y-68608814D01*
X38563868Y-68666024D01*
X38760000Y-68685341D01*
X38956132Y-68666024D01*
X39137870Y-68610893D01*
X39203995Y-68609270D01*
X39261546Y-68641872D01*
X39676328Y-69056655D01*
X40090955Y-69471282D01*
X40098263Y-69479256D01*
X40122545Y-69508194D01*
X40155266Y-69527085D01*
X40164360Y-69532878D01*
X40195316Y-69554554D01*
X40195317Y-69554554D01*
X40196201Y-69555173D01*
X40220891Y-69565400D01*
X40221954Y-69565587D01*
X40221955Y-69565588D01*
X40259146Y-69572145D01*
X40269704Y-69574486D01*
X40306191Y-69584263D01*
X40306192Y-69584262D01*
X40306193Y-69584263D01*
X40343811Y-69580971D01*
X40354618Y-69580500D01*
X41224828Y-69580500D01*
X41254132Y-69584357D01*
X41255200Y-69584263D01*
X41255202Y-69584264D01*
X41292832Y-69580971D01*
X41303639Y-69580500D01*
X41312480Y-69580500D01*
X41312484Y-69580500D01*
X41321209Y-69578961D01*
X41331885Y-69577554D01*
X41369554Y-69574260D01*
X41369557Y-69574258D01*
X41370627Y-69574165D01*
X41396117Y-69566128D01*
X41397051Y-69565588D01*
X41397054Y-69565588D01*
X41429766Y-69546701D01*
X41439349Y-69541713D01*
X41473589Y-69525747D01*
X41473588Y-69525747D01*
X41474567Y-69525291D01*
X41495767Y-69509023D01*
X41496461Y-69508195D01*
X41496464Y-69508194D01*
X41520747Y-69479253D01*
X41528047Y-69471288D01*
X41528053Y-69471282D01*
X41554756Y-69444580D01*
X41554756Y-69444578D01*
X41555517Y-69443818D01*
X41569876Y-69421280D01*
X41570245Y-69420265D01*
X41570249Y-69420261D01*
X41583176Y-69384738D01*
X41587296Y-69374794D01*
X41603268Y-69340546D01*
X41603268Y-69340541D01*
X41603722Y-69339569D01*
X41609509Y-69313472D01*
X41609509Y-69274627D01*
X41609981Y-69263819D01*
X41612532Y-69234659D01*
X41613273Y-69226193D01*
X41613272Y-69226191D01*
X41613366Y-69225123D01*
X41609877Y-69198617D01*
X41596592Y-69162118D01*
X41593338Y-69151798D01*
X41587631Y-69130500D01*
X41583563Y-69115316D01*
X41583562Y-69115315D01*
X41583284Y-69114276D01*
X41570942Y-69090566D01*
X41545966Y-69060800D01*
X41539384Y-69052222D01*
X41534307Y-69044972D01*
X41528052Y-69038717D01*
X41520743Y-69030741D01*
X41495775Y-69000985D01*
X41472325Y-68982990D01*
X41371299Y-68881964D01*
X41337993Y-68821451D01*
X41342229Y-68752508D01*
X41382692Y-68696528D01*
X41446825Y-68670880D01*
X41496132Y-68666024D01*
X41677870Y-68610893D01*
X41743995Y-68609270D01*
X41801546Y-68641872D01*
X42041637Y-68881964D01*
X42180955Y-69021282D01*
X42188263Y-69029256D01*
X42212543Y-69058192D01*
X42212545Y-69058194D01*
X42245266Y-69077085D01*
X42254360Y-69082878D01*
X42285316Y-69104554D01*
X42285317Y-69104554D01*
X42286201Y-69105173D01*
X42310891Y-69115400D01*
X42311954Y-69115587D01*
X42311955Y-69115588D01*
X42349146Y-69122145D01*
X42359704Y-69124486D01*
X42396191Y-69134263D01*
X42396192Y-69134262D01*
X42396193Y-69134263D01*
X42433811Y-69130971D01*
X42444618Y-69130500D01*
X50075373Y-69130500D01*
X50086180Y-69130971D01*
X50123807Y-69134264D01*
X50160324Y-69124478D01*
X50170830Y-69122149D01*
X50208045Y-69115588D01*
X50208047Y-69115586D01*
X50209112Y-69115399D01*
X50233799Y-69105173D01*
X50234682Y-69104554D01*
X50234684Y-69104554D01*
X50265625Y-69082887D01*
X50274722Y-69077091D01*
X50307455Y-69058194D01*
X50331748Y-69029241D01*
X50339024Y-69021300D01*
X50623509Y-68736816D01*
X50663735Y-68709939D01*
X50711188Y-68700500D01*
X52019749Y-68700500D01*
X52048989Y-68694683D01*
X52078231Y-68688867D01*
X52144552Y-68644552D01*
X52188867Y-68578231D01*
X52200500Y-68519748D01*
X52200500Y-66880252D01*
X52188867Y-66821769D01*
X52174563Y-66800362D01*
X52144552Y-66755447D01*
X52078230Y-66711132D01*
X52019749Y-66699500D01*
X52019748Y-66699500D01*
X50380252Y-66699500D01*
X50380251Y-66699500D01*
X50321769Y-66711132D01*
X50255447Y-66755447D01*
X50211132Y-66821769D01*
X50199500Y-66880251D01*
X50199500Y-68188812D01*
X50190061Y-68236265D01*
X50163181Y-68276493D01*
X49996493Y-68443181D01*
X49956265Y-68470061D01*
X49908812Y-68479500D01*
X47280333Y-68479500D01*
X47213993Y-68460262D01*
X47168238Y-68408517D01*
X47157266Y-68340321D01*
X47184480Y-68276835D01*
X47184761Y-68276493D01*
X47215910Y-68238538D01*
X47308814Y-68064727D01*
X47366024Y-67876132D01*
X47385341Y-67680000D01*
X47366024Y-67483868D01*
X47308814Y-67295273D01*
X47215910Y-67121462D01*
X47090883Y-66969117D01*
X46938538Y-66844090D01*
X46856729Y-66800362D01*
X46764726Y-66751185D01*
X46576133Y-66693976D01*
X46380000Y-66674659D01*
X46183866Y-66693976D01*
X45995273Y-66751185D01*
X45821463Y-66844089D01*
X45669117Y-66969117D01*
X45544089Y-67121463D01*
X45451185Y-67295273D01*
X45393976Y-67483866D01*
X45374659Y-67680000D01*
X45393976Y-67876133D01*
X45451185Y-68064726D01*
X45482865Y-68123995D01*
X45544090Y-68238538D01*
X45575239Y-68276493D01*
X45575520Y-68276835D01*
X45602734Y-68340321D01*
X45591762Y-68408517D01*
X45546007Y-68460262D01*
X45479667Y-68479500D01*
X44740333Y-68479500D01*
X44673993Y-68460262D01*
X44628238Y-68408517D01*
X44617266Y-68340321D01*
X44644480Y-68276835D01*
X44644761Y-68276493D01*
X44675910Y-68238538D01*
X44768814Y-68064727D01*
X44826024Y-67876132D01*
X44845341Y-67680000D01*
X44826024Y-67483868D01*
X44770892Y-67302126D01*
X44769270Y-67236004D01*
X44801873Y-67178452D01*
X45046381Y-66933945D01*
X45868509Y-66111818D01*
X45908736Y-66084939D01*
X45956189Y-66075500D01*
X59681745Y-66075500D01*
X59743744Y-66092112D01*
X59789131Y-66137498D01*
X59805745Y-66199497D01*
X59789134Y-66261496D01*
X59766039Y-66284592D01*
X59766597Y-66285061D01*
X59728262Y-66330744D01*
X59720956Y-66338716D01*
X59321546Y-66738126D01*
X59263994Y-66770729D01*
X59197870Y-66769106D01*
X59016130Y-66713975D01*
X58820000Y-66694659D01*
X58623866Y-66713976D01*
X58435273Y-66771185D01*
X58261463Y-66864089D01*
X58109117Y-66989117D01*
X57984089Y-67141463D01*
X57891185Y-67315273D01*
X57833976Y-67503866D01*
X57814659Y-67700000D01*
X57833976Y-67896133D01*
X57891185Y-68084726D01*
X57961629Y-68216516D01*
X57984090Y-68258538D01*
X58109117Y-68410883D01*
X58261462Y-68535910D01*
X58435273Y-68628814D01*
X58623868Y-68686024D01*
X58820000Y-68705341D01*
X59016132Y-68686024D01*
X59204727Y-68628814D01*
X59378538Y-68535910D01*
X59530883Y-68410883D01*
X59655910Y-68258538D01*
X59748814Y-68084727D01*
X59806024Y-67896132D01*
X59825341Y-67700000D01*
X59806024Y-67503868D01*
X59750892Y-67322126D01*
X59749270Y-67256004D01*
X59781873Y-67198452D01*
X60063507Y-66916819D01*
X60103735Y-66889939D01*
X60151188Y-66880500D01*
X62699667Y-66880500D01*
X62766007Y-66899738D01*
X62811762Y-66951483D01*
X62822734Y-67019679D01*
X62795520Y-67083165D01*
X62764090Y-67121461D01*
X62674563Y-67288954D01*
X62628954Y-67336858D01*
X62565205Y-67354500D01*
X61399628Y-67354500D01*
X61388820Y-67354028D01*
X61351192Y-67350735D01*
X61314704Y-67360512D01*
X61304148Y-67362852D01*
X61265899Y-67369597D01*
X61241193Y-67379831D01*
X61209380Y-67402106D01*
X61200264Y-67407914D01*
X61167545Y-67426805D01*
X61143262Y-67455744D01*
X61135956Y-67463716D01*
X59321546Y-69278126D01*
X59263994Y-69310729D01*
X59197870Y-69309106D01*
X59016130Y-69253975D01*
X58820000Y-69234659D01*
X58623866Y-69253976D01*
X58435273Y-69311185D01*
X58261463Y-69404089D01*
X58109117Y-69529117D01*
X57984089Y-69681463D01*
X57891185Y-69855273D01*
X57833976Y-70043866D01*
X57814659Y-70240000D01*
X57833976Y-70436133D01*
X57891185Y-70624726D01*
X57891186Y-70624727D01*
X57984090Y-70798538D01*
X58109117Y-70950883D01*
X58261462Y-71075910D01*
X58435273Y-71168814D01*
X58623868Y-71226024D01*
X58820000Y-71245341D01*
X59016132Y-71226024D01*
X59204727Y-71168814D01*
X59378538Y-71075910D01*
X59530883Y-70950883D01*
X59655910Y-70798538D01*
X59748814Y-70624727D01*
X59806024Y-70436132D01*
X59825341Y-70240000D01*
X59806024Y-70043868D01*
X59750892Y-69862126D01*
X59749270Y-69796004D01*
X59781873Y-69738452D01*
X61478507Y-68041819D01*
X61518735Y-68014939D01*
X61566188Y-68005500D01*
X62565205Y-68005500D01*
X62628954Y-68023142D01*
X62674563Y-68071046D01*
X62737511Y-68188812D01*
X62764090Y-68238538D01*
X62889117Y-68390883D01*
X63041462Y-68515910D01*
X63215273Y-68608814D01*
X63403868Y-68666024D01*
X63600000Y-68685341D01*
X63796132Y-68666024D01*
X63984727Y-68608814D01*
X64158538Y-68515910D01*
X64310883Y-68390883D01*
X64435910Y-68238538D01*
X64528814Y-68064727D01*
X64586024Y-67876132D01*
X64605341Y-67680000D01*
X64586024Y-67483868D01*
X64528814Y-67295273D01*
X64435910Y-67121462D01*
X64404479Y-67083164D01*
X64377266Y-67019679D01*
X64388238Y-66951483D01*
X64433993Y-66899738D01*
X64500333Y-66880500D01*
X65239667Y-66880500D01*
X65306007Y-66899738D01*
X65351762Y-66951483D01*
X65362734Y-67019679D01*
X65335520Y-67083165D01*
X65304089Y-67121463D01*
X65211185Y-67295273D01*
X65153976Y-67483866D01*
X65134659Y-67680000D01*
X65153976Y-67876133D01*
X65211185Y-68064726D01*
X65242865Y-68123995D01*
X65304090Y-68238538D01*
X65429117Y-68390883D01*
X65581462Y-68515910D01*
X65755273Y-68608814D01*
X65943868Y-68666024D01*
X66140000Y-68685341D01*
X66336132Y-68666024D01*
X66524727Y-68608814D01*
X66698538Y-68515910D01*
X66850883Y-68390883D01*
X66975910Y-68238538D01*
X67068814Y-68064727D01*
X67109683Y-67930000D01*
X67658590Y-67930000D01*
X67705233Y-68083764D01*
X67802731Y-68266171D01*
X67933945Y-68426054D01*
X68093828Y-68557268D01*
X68276235Y-68654766D01*
X68430000Y-68701410D01*
X68430000Y-67930000D01*
X68930000Y-67930000D01*
X68930000Y-68701410D01*
X69083764Y-68654766D01*
X69266171Y-68557268D01*
X69426054Y-68426054D01*
X69557268Y-68266171D01*
X69654766Y-68083764D01*
X69701410Y-67930000D01*
X68930000Y-67930000D01*
X68430000Y-67930000D01*
X67658590Y-67930000D01*
X67109683Y-67930000D01*
X67126024Y-67876132D01*
X67145341Y-67680000D01*
X67126024Y-67483868D01*
X67068814Y-67295273D01*
X66975910Y-67121462D01*
X66944479Y-67083164D01*
X66917266Y-67019679D01*
X66928238Y-66951483D01*
X66973993Y-66899738D01*
X67040333Y-66880500D01*
X67715630Y-66880500D01*
X67781970Y-66899738D01*
X67827725Y-66951483D01*
X67838697Y-67019679D01*
X67811483Y-67083165D01*
X67802731Y-67093828D01*
X67705233Y-67276235D01*
X67658590Y-67430000D01*
X69701410Y-67430000D01*
X69654766Y-67276235D01*
X69557268Y-67093828D01*
X69548517Y-67083165D01*
X69521303Y-67019679D01*
X69532275Y-66951483D01*
X69578030Y-66899738D01*
X69644370Y-66880500D01*
X69908812Y-66880500D01*
X69956265Y-66889939D01*
X69996493Y-66916819D01*
X70258126Y-67178452D01*
X70290729Y-67236003D01*
X70289106Y-67302128D01*
X70233975Y-67483869D01*
X70214659Y-67680000D01*
X70233976Y-67876133D01*
X70291185Y-68064726D01*
X70322865Y-68123995D01*
X70384090Y-68238538D01*
X70509117Y-68390883D01*
X70661462Y-68515910D01*
X70835273Y-68608814D01*
X71023868Y-68666024D01*
X71220000Y-68685341D01*
X71416132Y-68666024D01*
X71604727Y-68608814D01*
X71778538Y-68515910D01*
X71930883Y-68390883D01*
X72055910Y-68238538D01*
X72148814Y-68064727D01*
X72189683Y-67930000D01*
X72738590Y-67930000D01*
X72785233Y-68083764D01*
X72882731Y-68266171D01*
X73013945Y-68426054D01*
X73173828Y-68557268D01*
X73356235Y-68654766D01*
X73510000Y-68701410D01*
X73510000Y-67930000D01*
X74010000Y-67930000D01*
X74010000Y-68701410D01*
X74163764Y-68654766D01*
X74346171Y-68557268D01*
X74506054Y-68426054D01*
X74637268Y-68266171D01*
X74734766Y-68083764D01*
X74781410Y-67930000D01*
X74010000Y-67930000D01*
X73510000Y-67930000D01*
X72738590Y-67930000D01*
X72189683Y-67930000D01*
X72206024Y-67876132D01*
X72225341Y-67680000D01*
X75294659Y-67680000D01*
X75313976Y-67876133D01*
X75371185Y-68064726D01*
X75402865Y-68123995D01*
X75464090Y-68238538D01*
X75589117Y-68390883D01*
X75741462Y-68515910D01*
X75915273Y-68608814D01*
X76103868Y-68666024D01*
X76300000Y-68685341D01*
X76496132Y-68666024D01*
X76684727Y-68608814D01*
X76858538Y-68515910D01*
X77010883Y-68390883D01*
X77135910Y-68238538D01*
X77228814Y-68064727D01*
X77286024Y-67876132D01*
X77305341Y-67680000D01*
X77286024Y-67483868D01*
X77228814Y-67295273D01*
X77135910Y-67121462D01*
X77010883Y-66969117D01*
X76858538Y-66844090D01*
X76776729Y-66800362D01*
X76684726Y-66751185D01*
X76496133Y-66693976D01*
X76300000Y-66674659D01*
X76103866Y-66693976D01*
X75915273Y-66751185D01*
X75741463Y-66844089D01*
X75589117Y-66969117D01*
X75464089Y-67121463D01*
X75371185Y-67295273D01*
X75313976Y-67483866D01*
X75294659Y-67680000D01*
X72225341Y-67680000D01*
X72206024Y-67483868D01*
X72189683Y-67430000D01*
X72738590Y-67430000D01*
X73510000Y-67430000D01*
X73510000Y-66658590D01*
X74010000Y-66658590D01*
X74010000Y-67430000D01*
X74781410Y-67430000D01*
X74734766Y-67276235D01*
X74637268Y-67093828D01*
X74506054Y-66933945D01*
X74346171Y-66802731D01*
X74163764Y-66705233D01*
X74010000Y-66658590D01*
X73510000Y-66658590D01*
X73356235Y-66705233D01*
X73173828Y-66802731D01*
X73013945Y-66933945D01*
X72882731Y-67093828D01*
X72785233Y-67276235D01*
X72738590Y-67430000D01*
X72189683Y-67430000D01*
X72148814Y-67295273D01*
X72055910Y-67121462D01*
X71930883Y-66969117D01*
X71778538Y-66844090D01*
X71696729Y-66800362D01*
X71604726Y-66751185D01*
X71416133Y-66693976D01*
X71220000Y-66674659D01*
X71023869Y-66693975D01*
X70842128Y-66749106D01*
X70776003Y-66750729D01*
X70718452Y-66718126D01*
X70339043Y-66338717D01*
X70331734Y-66330741D01*
X70324084Y-66321624D01*
X70297636Y-66266993D01*
X70300284Y-66206354D01*
X70331394Y-66154237D01*
X70373814Y-66111818D01*
X70414042Y-66084939D01*
X70461494Y-66075500D01*
X76723812Y-66075500D01*
X76771265Y-66084939D01*
X76811493Y-66111819D01*
X77878126Y-67178453D01*
X77910729Y-67236004D01*
X77909106Y-67302129D01*
X77853975Y-67483869D01*
X77834659Y-67680000D01*
X77853976Y-67876133D01*
X77911185Y-68064726D01*
X77942865Y-68123995D01*
X78004090Y-68238538D01*
X78129117Y-68390883D01*
X78281462Y-68515910D01*
X78455273Y-68608814D01*
X78643868Y-68666024D01*
X78840000Y-68685341D01*
X79036132Y-68666024D01*
X79224727Y-68608814D01*
X79398538Y-68515910D01*
X79550883Y-68390883D01*
X79675910Y-68238538D01*
X79768814Y-68064727D01*
X79826024Y-67876132D01*
X79845341Y-67680000D01*
X80374659Y-67680000D01*
X80393976Y-67876133D01*
X80451185Y-68064726D01*
X80482865Y-68123995D01*
X80544090Y-68238538D01*
X80669117Y-68390883D01*
X80821462Y-68515910D01*
X80995273Y-68608814D01*
X81183868Y-68666024D01*
X81380000Y-68685341D01*
X81576132Y-68666024D01*
X81764727Y-68608814D01*
X81938538Y-68515910D01*
X82090883Y-68390883D01*
X82215910Y-68238538D01*
X82308814Y-68064727D01*
X82366024Y-67876132D01*
X82385341Y-67680000D01*
X82366024Y-67483868D01*
X82308814Y-67295273D01*
X82215910Y-67121462D01*
X82090883Y-66969117D01*
X81938538Y-66844090D01*
X81856729Y-66800362D01*
X81764726Y-66751185D01*
X81576133Y-66693976D01*
X81380000Y-66674659D01*
X81183866Y-66693976D01*
X80995273Y-66751185D01*
X80821463Y-66844089D01*
X80669117Y-66969117D01*
X80544089Y-67121463D01*
X80451185Y-67295273D01*
X80393976Y-67483866D01*
X80374659Y-67680000D01*
X79845341Y-67680000D01*
X79826024Y-67483868D01*
X79768814Y-67295273D01*
X79675910Y-67121462D01*
X79550883Y-66969117D01*
X79398538Y-66844090D01*
X79316729Y-66800362D01*
X79224726Y-66751185D01*
X79036133Y-66693976D01*
X78840000Y-66674659D01*
X78643869Y-66693975D01*
X78462129Y-66749106D01*
X78396004Y-66750729D01*
X78338453Y-66718126D01*
X77154043Y-65533717D01*
X77146734Y-65525741D01*
X77122454Y-65496805D01*
X77089736Y-65477915D01*
X77080627Y-65472112D01*
X77049684Y-65450446D01*
X77048803Y-65449829D01*
X77024107Y-65439599D01*
X76985852Y-65432853D01*
X76975296Y-65430512D01*
X76938807Y-65420735D01*
X76901180Y-65424028D01*
X76890372Y-65424500D01*
X70474103Y-65424500D01*
X70407477Y-65405080D01*
X70361720Y-65352904D01*
X70351164Y-65284315D01*
X70355682Y-65250000D01*
X70335044Y-65093238D01*
X70274536Y-64947159D01*
X70247337Y-64911712D01*
X70178282Y-64821717D01*
X70052840Y-64725463D01*
X69906762Y-64664956D01*
X69750000Y-64644317D01*
X69593237Y-64664956D01*
X69447159Y-64725463D01*
X69321718Y-64821717D01*
X69280077Y-64875986D01*
X69236545Y-64911712D01*
X69181701Y-64924500D01*
X42158628Y-64924500D01*
X42147821Y-64924028D01*
X42145307Y-64923808D01*
X42110200Y-64920736D01*
X42073719Y-64930511D01*
X42063164Y-64932852D01*
X42051823Y-64934851D01*
X42025964Y-64939412D01*
X42025962Y-64939412D01*
X42024906Y-64939599D01*
X42000201Y-64949832D01*
X41968387Y-64972107D01*
X41959270Y-64977915D01*
X41926554Y-64996804D01*
X41902271Y-65025743D01*
X41894965Y-65033715D01*
X39958714Y-66969967D01*
X39950741Y-66977273D01*
X39921806Y-67001553D01*
X39902914Y-67034273D01*
X39897106Y-67043389D01*
X39874831Y-67075202D01*
X39864597Y-67099908D01*
X39857852Y-67138157D01*
X39855516Y-67148700D01*
X39854911Y-67150959D01*
X39826745Y-67202445D01*
X39778059Y-67235213D01*
X39719758Y-67241923D01*
X39664900Y-67221073D01*
X39625774Y-67177333D01*
X39606600Y-67141462D01*
X39595910Y-67121462D01*
X39470883Y-66969117D01*
X39318538Y-66844090D01*
X39236729Y-66800362D01*
X39144726Y-66751185D01*
X38956133Y-66693976D01*
X38760000Y-66674659D01*
X38563866Y-66693976D01*
X38375273Y-66751185D01*
X38201463Y-66844089D01*
X38049117Y-66969117D01*
X37924089Y-67121463D01*
X37831185Y-67295273D01*
X37773976Y-67483866D01*
X37754659Y-67680000D01*
X34685341Y-67680000D01*
X34666024Y-67483868D01*
X34649683Y-67430000D01*
X35198590Y-67430000D01*
X35970000Y-67430000D01*
X35970000Y-66658590D01*
X36470000Y-66658590D01*
X36470000Y-67430000D01*
X37241410Y-67430000D01*
X37194766Y-67276235D01*
X37097268Y-67093828D01*
X36966054Y-66933945D01*
X36806171Y-66802731D01*
X36623764Y-66705233D01*
X36470000Y-66658590D01*
X35970000Y-66658590D01*
X35816235Y-66705233D01*
X35633828Y-66802731D01*
X35473945Y-66933945D01*
X35342731Y-67093828D01*
X35245233Y-67276235D01*
X35198590Y-67430000D01*
X34649683Y-67430000D01*
X34608814Y-67295273D01*
X34515910Y-67121462D01*
X34390883Y-66969117D01*
X34238538Y-66844090D01*
X34156729Y-66800362D01*
X34064726Y-66751185D01*
X33876133Y-66693976D01*
X33680000Y-66674659D01*
X33483866Y-66693976D01*
X33295273Y-66751185D01*
X33121463Y-66844089D01*
X32969117Y-66969117D01*
X32844089Y-67121463D01*
X32751185Y-67295273D01*
X32693976Y-67483866D01*
X32674659Y-67680000D01*
X32145341Y-67680000D01*
X32126024Y-67483868D01*
X32068814Y-67295273D01*
X31975910Y-67121462D01*
X31850883Y-66969117D01*
X31698538Y-66844090D01*
X31616729Y-66800362D01*
X31524726Y-66751185D01*
X31336133Y-66693976D01*
X31140000Y-66674659D01*
X30943866Y-66693976D01*
X30755273Y-66751185D01*
X30581463Y-66844089D01*
X30429117Y-66969117D01*
X30304089Y-67121463D01*
X30211185Y-67295273D01*
X30153976Y-67483866D01*
X30134659Y-67680000D01*
X29605341Y-67680000D01*
X29586024Y-67483868D01*
X29528814Y-67295273D01*
X29435910Y-67121462D01*
X29310883Y-66969117D01*
X29158538Y-66844090D01*
X29076729Y-66800362D01*
X28984726Y-66751185D01*
X28796133Y-66693976D01*
X28600000Y-66674659D01*
X28403866Y-66693976D01*
X28215273Y-66751185D01*
X28041463Y-66844089D01*
X27889117Y-66969117D01*
X27764089Y-67121463D01*
X27671185Y-67295273D01*
X27613976Y-67483866D01*
X27594659Y-67680000D01*
X26700500Y-67680000D01*
X26700500Y-60694749D01*
X30224500Y-60694749D01*
X30236132Y-60753230D01*
X30280447Y-60819552D01*
X30346769Y-60863867D01*
X30405251Y-60875500D01*
X30405252Y-60875500D01*
X31794748Y-60875500D01*
X31794749Y-60875500D01*
X31823989Y-60869683D01*
X31853231Y-60863867D01*
X31919552Y-60819552D01*
X31963867Y-60753231D01*
X31975500Y-60694748D01*
X31975500Y-59305252D01*
X31967293Y-59263995D01*
X31963867Y-59246769D01*
X31919552Y-59180447D01*
X31853230Y-59136132D01*
X31794749Y-59124500D01*
X31794748Y-59124500D01*
X30405252Y-59124500D01*
X30405251Y-59124500D01*
X30346769Y-59136132D01*
X30280447Y-59180447D01*
X30236132Y-59246769D01*
X30224500Y-59305251D01*
X30224500Y-60694749D01*
X26700500Y-60694749D01*
X26700500Y-59441519D01*
X26709939Y-59394066D01*
X26736819Y-59353838D01*
X27020657Y-59070000D01*
X33678590Y-59070000D01*
X33725233Y-59223764D01*
X33822731Y-59406171D01*
X33953945Y-59566054D01*
X34113828Y-59697268D01*
X34296235Y-59794766D01*
X34450000Y-59841410D01*
X34450000Y-59070000D01*
X34950000Y-59070000D01*
X34950000Y-59841410D01*
X35103764Y-59794766D01*
X35286171Y-59697268D01*
X35446054Y-59566054D01*
X35577268Y-59406171D01*
X35674766Y-59223764D01*
X35721410Y-59070000D01*
X34950000Y-59070000D01*
X34450000Y-59070000D01*
X33678590Y-59070000D01*
X27020657Y-59070000D01*
X27520657Y-58570000D01*
X30023581Y-56067074D01*
X30083893Y-56033815D01*
X30152651Y-56037869D01*
X30208638Y-56077988D01*
X30234581Y-56141793D01*
X30238915Y-56183030D01*
X30295785Y-56358059D01*
X30387804Y-56517440D01*
X30510950Y-56654208D01*
X30659837Y-56762380D01*
X30827968Y-56837237D01*
X31007980Y-56875500D01*
X31007981Y-56875500D01*
X31192019Y-56875500D01*
X31192020Y-56875500D01*
X31372031Y-56837237D01*
X31372032Y-56837236D01*
X31372034Y-56837236D01*
X31540161Y-56762381D01*
X31665873Y-56671046D01*
X31689049Y-56654208D01*
X31740430Y-56597144D01*
X31812195Y-56517440D01*
X31904214Y-56358059D01*
X31961085Y-56183029D01*
X31980322Y-56000000D01*
X31961085Y-55816971D01*
X31931169Y-55724902D01*
X31928527Y-55657637D01*
X31961417Y-55598907D01*
X32188508Y-55371817D01*
X32228735Y-55344940D01*
X32276187Y-55335501D01*
X33927223Y-55335501D01*
X33985676Y-55350143D01*
X34030325Y-55390610D01*
X34050626Y-55447347D01*
X34041784Y-55506953D01*
X34005889Y-55555352D01*
X33997064Y-55562595D01*
X33989117Y-55569117D01*
X33864089Y-55721463D01*
X33771185Y-55895273D01*
X33713976Y-56083866D01*
X33694659Y-56280000D01*
X33713976Y-56476133D01*
X33771185Y-56664726D01*
X33823383Y-56762381D01*
X33864090Y-56838538D01*
X33989117Y-56990883D01*
X34141462Y-57115910D01*
X34157533Y-57124500D01*
X34179313Y-57136142D01*
X34226587Y-57180710D01*
X34244836Y-57243065D01*
X34229050Y-57306089D01*
X34183562Y-57352479D01*
X34120860Y-57369500D01*
X31761970Y-57369500D01*
X31723652Y-57363431D01*
X31689085Y-57345818D01*
X31540162Y-57237619D01*
X31372031Y-57162762D01*
X31192020Y-57124500D01*
X31192019Y-57124500D01*
X31007981Y-57124500D01*
X31007980Y-57124500D01*
X30827968Y-57162762D01*
X30659837Y-57237619D01*
X30510950Y-57345791D01*
X30387804Y-57482559D01*
X30295785Y-57641940D01*
X30238915Y-57816969D01*
X30219678Y-58000000D01*
X30238915Y-58183030D01*
X30295785Y-58358059D01*
X30387804Y-58517440D01*
X30510950Y-58654208D01*
X30659837Y-58762380D01*
X30827968Y-58837237D01*
X31007980Y-58875500D01*
X31007981Y-58875500D01*
X31192019Y-58875500D01*
X31192020Y-58875500D01*
X31372031Y-58837237D01*
X31372032Y-58837236D01*
X31372034Y-58837236D01*
X31540161Y-58762381D01*
X31689050Y-58654207D01*
X31812195Y-58517440D01*
X31904214Y-58358059D01*
X31961085Y-58183029D01*
X31966496Y-58131536D01*
X31987016Y-58075160D01*
X32031602Y-58035015D01*
X32089817Y-58020500D01*
X33735630Y-58020500D01*
X33801970Y-58039738D01*
X33847725Y-58091483D01*
X33858697Y-58159679D01*
X33831483Y-58223165D01*
X33822731Y-58233828D01*
X33725233Y-58416235D01*
X33678590Y-58570000D01*
X35721410Y-58570000D01*
X35674766Y-58416235D01*
X35577268Y-58233828D01*
X35568517Y-58223165D01*
X35541303Y-58159679D01*
X35552275Y-58091483D01*
X35598030Y-58039738D01*
X35664370Y-58020500D01*
X41419667Y-58020500D01*
X41486007Y-58039738D01*
X41531762Y-58091483D01*
X41542734Y-58159679D01*
X41515520Y-58223165D01*
X41484089Y-58261463D01*
X41391185Y-58435273D01*
X41333976Y-58623866D01*
X41314659Y-58820000D01*
X41333976Y-59016133D01*
X41391185Y-59204726D01*
X41422865Y-59263995D01*
X41484090Y-59378538D01*
X41609117Y-59530883D01*
X41761462Y-59655910D01*
X41935273Y-59748814D01*
X42123868Y-59806024D01*
X42320000Y-59825341D01*
X42516132Y-59806024D01*
X42704727Y-59748814D01*
X42878538Y-59655910D01*
X43030883Y-59530883D01*
X43155910Y-59378538D01*
X43248814Y-59204727D01*
X43289683Y-59070000D01*
X44928590Y-59070000D01*
X44975233Y-59223764D01*
X45072731Y-59406171D01*
X45203945Y-59566054D01*
X45363828Y-59697268D01*
X45546235Y-59794766D01*
X45700000Y-59841410D01*
X45700000Y-59070000D01*
X46200000Y-59070000D01*
X46200000Y-59841410D01*
X46353764Y-59794766D01*
X46536171Y-59697268D01*
X46696054Y-59566054D01*
X46827268Y-59406171D01*
X46924766Y-59223764D01*
X46971410Y-59070000D01*
X46200000Y-59070000D01*
X45700000Y-59070000D01*
X44928590Y-59070000D01*
X43289683Y-59070000D01*
X43306024Y-59016132D01*
X43325341Y-58820000D01*
X43306024Y-58623868D01*
X43250892Y-58442126D01*
X43249270Y-58376003D01*
X43281871Y-58318454D01*
X43543510Y-58056816D01*
X43583736Y-58029939D01*
X43631189Y-58020500D01*
X44985630Y-58020500D01*
X45051970Y-58039738D01*
X45097725Y-58091483D01*
X45108697Y-58159679D01*
X45081483Y-58223165D01*
X45072731Y-58233828D01*
X44975233Y-58416235D01*
X44928590Y-58570000D01*
X46971410Y-58570000D01*
X46924766Y-58416235D01*
X46827268Y-58233828D01*
X46818517Y-58223165D01*
X46791303Y-58159679D01*
X46802275Y-58091483D01*
X46848030Y-58039738D01*
X46914370Y-58020500D01*
X51911234Y-58020500D01*
X51966078Y-58033288D01*
X52009610Y-58069014D01*
X52084016Y-58165983D01*
X52208448Y-58261462D01*
X52209458Y-58262237D01*
X52355537Y-58322745D01*
X52493717Y-58340936D01*
X52518139Y-58344152D01*
X52568294Y-58362329D01*
X52606170Y-58399897D01*
X52624757Y-58449901D01*
X52620615Y-58503086D01*
X52583975Y-58623869D01*
X52564659Y-58820000D01*
X52583976Y-59016133D01*
X52641185Y-59204726D01*
X52672865Y-59263995D01*
X52734090Y-59378538D01*
X52859117Y-59530883D01*
X53011462Y-59655910D01*
X53185273Y-59748814D01*
X53373868Y-59806024D01*
X53570000Y-59825341D01*
X53766132Y-59806024D01*
X53947870Y-59750893D01*
X54013995Y-59749270D01*
X54071547Y-59781873D01*
X54502493Y-60212819D01*
X54532743Y-60262182D01*
X54537285Y-60319898D01*
X54515130Y-60373385D01*
X54471107Y-60410985D01*
X54414812Y-60424500D01*
X53818299Y-60424500D01*
X53763455Y-60411712D01*
X53719923Y-60375986D01*
X53717927Y-60373385D01*
X53678282Y-60321718D01*
X53673547Y-60318085D01*
X53552840Y-60225463D01*
X53406762Y-60164956D01*
X53250000Y-60144317D01*
X53093237Y-60164956D01*
X52947159Y-60225463D01*
X52821717Y-60321717D01*
X52725463Y-60447159D01*
X52664956Y-60593237D01*
X52644317Y-60750000D01*
X52664956Y-60906762D01*
X52725463Y-61052840D01*
X52821717Y-61178282D01*
X52947158Y-61274535D01*
X52947159Y-61274536D01*
X53093238Y-61335044D01*
X53250000Y-61355682D01*
X53406762Y-61335044D01*
X53552841Y-61274536D01*
X53678282Y-61178282D01*
X53719923Y-61124013D01*
X53763455Y-61088288D01*
X53818299Y-61075500D01*
X54931701Y-61075500D01*
X54986545Y-61088288D01*
X55030076Y-61124013D01*
X55071718Y-61178282D01*
X55197159Y-61274536D01*
X55343238Y-61335044D01*
X55500000Y-61355682D01*
X55656762Y-61335044D01*
X55802841Y-61274536D01*
X55928282Y-61178282D01*
X56024536Y-61052841D01*
X56085044Y-60906762D01*
X56105682Y-60750000D01*
X56085044Y-60593238D01*
X56045160Y-60496951D01*
X56036319Y-60437346D01*
X56056620Y-60380609D01*
X56101269Y-60340142D01*
X56159722Y-60325500D01*
X78675500Y-60325500D01*
X78737500Y-60342113D01*
X78782887Y-60387500D01*
X78799500Y-60449500D01*
X78799500Y-60694749D01*
X78811132Y-60753230D01*
X78855447Y-60819552D01*
X78921769Y-60863867D01*
X78980251Y-60875500D01*
X78980252Y-60875500D01*
X80369748Y-60875500D01*
X80369749Y-60875500D01*
X80398989Y-60869683D01*
X80428231Y-60863867D01*
X80494552Y-60819552D01*
X80538867Y-60753231D01*
X80550500Y-60694748D01*
X80550500Y-59305252D01*
X80542293Y-59263995D01*
X80538867Y-59246769D01*
X80494552Y-59180447D01*
X80428230Y-59136132D01*
X80369749Y-59124500D01*
X80369748Y-59124500D01*
X78980252Y-59124500D01*
X78980251Y-59124500D01*
X78921769Y-59136132D01*
X78855447Y-59180447D01*
X78811132Y-59246769D01*
X78799500Y-59305251D01*
X78799500Y-59550500D01*
X78782887Y-59612500D01*
X78737500Y-59657887D01*
X78675500Y-59674500D01*
X76925195Y-59674500D01*
X76858855Y-59655262D01*
X76813100Y-59603516D01*
X76802128Y-59535320D01*
X76829341Y-59471836D01*
X76905910Y-59378538D01*
X76998814Y-59204727D01*
X77056024Y-59016132D01*
X77075341Y-58820000D01*
X77056024Y-58623868D01*
X76998814Y-58435273D01*
X76905910Y-58261462D01*
X76780883Y-58109117D01*
X76647924Y-58000000D01*
X78794678Y-58000000D01*
X78813915Y-58183030D01*
X78870785Y-58358059D01*
X78962804Y-58517440D01*
X79085950Y-58654208D01*
X79234837Y-58762380D01*
X79402968Y-58837237D01*
X79582980Y-58875500D01*
X79582981Y-58875500D01*
X79767019Y-58875500D01*
X79767020Y-58875500D01*
X79947031Y-58837237D01*
X79947032Y-58837236D01*
X79947034Y-58837236D01*
X80115161Y-58762381D01*
X80264050Y-58654207D01*
X80387195Y-58517440D01*
X80479214Y-58358059D01*
X80536085Y-58183029D01*
X80555322Y-58000000D01*
X80536085Y-57816971D01*
X80479214Y-57641941D01*
X80479214Y-57641940D01*
X80387195Y-57482559D01*
X80264049Y-57345791D01*
X80115162Y-57237619D01*
X79947031Y-57162762D01*
X79767020Y-57124500D01*
X79767019Y-57124500D01*
X79582981Y-57124500D01*
X79582980Y-57124500D01*
X79402968Y-57162762D01*
X79234837Y-57237619D01*
X79085950Y-57345791D01*
X78962804Y-57482559D01*
X78870785Y-57641940D01*
X78813915Y-57816969D01*
X78794678Y-58000000D01*
X76647924Y-58000000D01*
X76628538Y-57984090D01*
X76583364Y-57959944D01*
X76454726Y-57891185D01*
X76266133Y-57833976D01*
X76070000Y-57814659D01*
X75873866Y-57833976D01*
X75685273Y-57891185D01*
X75511463Y-57984089D01*
X75359117Y-58109117D01*
X75234089Y-58261463D01*
X75141185Y-58435273D01*
X75083976Y-58623866D01*
X75064659Y-58820000D01*
X75083976Y-59016133D01*
X75141185Y-59204726D01*
X75172865Y-59263995D01*
X75234090Y-59378538D01*
X75310658Y-59471836D01*
X75337872Y-59535320D01*
X75326900Y-59603516D01*
X75281145Y-59655262D01*
X75214805Y-59674500D01*
X69369233Y-59674500D01*
X69302893Y-59655262D01*
X69257138Y-59603517D01*
X69246166Y-59535321D01*
X69273380Y-59471835D01*
X69327268Y-59406171D01*
X69424766Y-59223764D01*
X69471410Y-59070000D01*
X67428590Y-59070000D01*
X67475233Y-59223764D01*
X67572731Y-59406171D01*
X67626620Y-59471835D01*
X67653834Y-59535321D01*
X67642862Y-59603517D01*
X67597107Y-59655262D01*
X67530767Y-59674500D01*
X65675195Y-59674500D01*
X65608855Y-59655262D01*
X65563100Y-59603516D01*
X65552128Y-59535320D01*
X65579341Y-59471836D01*
X65655910Y-59378538D01*
X65748814Y-59204727D01*
X65806024Y-59016132D01*
X65825341Y-58820000D01*
X65806024Y-58623868D01*
X65789683Y-58570000D01*
X67428590Y-58570000D01*
X68200000Y-58570000D01*
X68200000Y-57798590D01*
X68700000Y-57798590D01*
X68700000Y-58570000D01*
X69471410Y-58570000D01*
X69424766Y-58416235D01*
X69327268Y-58233828D01*
X69196054Y-58073945D01*
X69036171Y-57942731D01*
X68853764Y-57845233D01*
X68700000Y-57798590D01*
X68200000Y-57798590D01*
X68046235Y-57845233D01*
X67863828Y-57942731D01*
X67703945Y-58073945D01*
X67572731Y-58233828D01*
X67475233Y-58416235D01*
X67428590Y-58570000D01*
X65789683Y-58570000D01*
X65748814Y-58435273D01*
X65655910Y-58261462D01*
X65530883Y-58109117D01*
X65378538Y-57984090D01*
X65333364Y-57959944D01*
X65204726Y-57891185D01*
X65016133Y-57833976D01*
X64820000Y-57814659D01*
X64623866Y-57833976D01*
X64435273Y-57891185D01*
X64261463Y-57984089D01*
X64109117Y-58109117D01*
X63984089Y-58261463D01*
X63891185Y-58435273D01*
X63833976Y-58623866D01*
X63814659Y-58820000D01*
X63833976Y-59016133D01*
X63891185Y-59204726D01*
X63922865Y-59263995D01*
X63984090Y-59378538D01*
X64060658Y-59471836D01*
X64087872Y-59535320D01*
X64076900Y-59603516D01*
X64031145Y-59655262D01*
X63964805Y-59674500D01*
X58119233Y-59674500D01*
X58052893Y-59655262D01*
X58007138Y-59603517D01*
X57996166Y-59535321D01*
X58023380Y-59471835D01*
X58077268Y-59406171D01*
X58174766Y-59223764D01*
X58221410Y-59070000D01*
X56178590Y-59070000D01*
X56225233Y-59223764D01*
X56322731Y-59406171D01*
X56376620Y-59471835D01*
X56403834Y-59535321D01*
X56392862Y-59603517D01*
X56347107Y-59655262D01*
X56280767Y-59674500D01*
X54936188Y-59674500D01*
X54888735Y-59665061D01*
X54848507Y-59638181D01*
X54531873Y-59321547D01*
X54499270Y-59263995D01*
X54500894Y-59197870D01*
X54523023Y-59124921D01*
X54556024Y-59016132D01*
X54575341Y-58820000D01*
X54556024Y-58623868D01*
X54539683Y-58570000D01*
X56178590Y-58570000D01*
X56950000Y-58570000D01*
X56950000Y-57798590D01*
X57450000Y-57798590D01*
X57450000Y-58570000D01*
X58221410Y-58570000D01*
X58174766Y-58416235D01*
X58077268Y-58233828D01*
X57946054Y-58073945D01*
X57786171Y-57942731D01*
X57603764Y-57845233D01*
X57450000Y-57798590D01*
X56950000Y-57798590D01*
X56796235Y-57845233D01*
X56613828Y-57942731D01*
X56453945Y-58073945D01*
X56322731Y-58233828D01*
X56225233Y-58416235D01*
X56178590Y-58570000D01*
X54539683Y-58570000D01*
X54498814Y-58435273D01*
X54405910Y-58261462D01*
X54280883Y-58109117D01*
X54128538Y-57984090D01*
X54083364Y-57959944D01*
X53954726Y-57891185D01*
X53766133Y-57833976D01*
X53570000Y-57814659D01*
X53373868Y-57833975D01*
X53278171Y-57863005D01*
X53216988Y-57865759D01*
X53161950Y-57838895D01*
X53126483Y-57788965D01*
X53122270Y-57753601D01*
X53120112Y-57753886D01*
X53105374Y-57641941D01*
X53097343Y-57580939D01*
X53036835Y-57434860D01*
X53006592Y-57395446D01*
X52989071Y-57372612D01*
X52964214Y-57310894D01*
X52974837Y-57245212D01*
X53017883Y-57194477D01*
X53080958Y-57173296D01*
X53145897Y-57187767D01*
X53185273Y-57208814D01*
X53373868Y-57266024D01*
X53570000Y-57285341D01*
X53766132Y-57266024D01*
X53954727Y-57208814D01*
X54128538Y-57115910D01*
X54280883Y-56990883D01*
X54405910Y-56838538D01*
X54498814Y-56664727D01*
X54556024Y-56476132D01*
X54575341Y-56280000D01*
X54575341Y-56279999D01*
X56194659Y-56279999D01*
X56213976Y-56476133D01*
X56271185Y-56664726D01*
X56323383Y-56762381D01*
X56364090Y-56838538D01*
X56489117Y-56990883D01*
X56641462Y-57115910D01*
X56815273Y-57208814D01*
X57003868Y-57266024D01*
X57200000Y-57285341D01*
X57396132Y-57266024D01*
X57584727Y-57208814D01*
X57758538Y-57115910D01*
X57910883Y-56990883D01*
X58035910Y-56838538D01*
X58128814Y-56664727D01*
X58169683Y-56530000D01*
X63798590Y-56530000D01*
X63845233Y-56683764D01*
X63942731Y-56866171D01*
X64073945Y-57026054D01*
X64233828Y-57157268D01*
X64416235Y-57254766D01*
X64570000Y-57301410D01*
X64570000Y-56530000D01*
X65070000Y-56530000D01*
X65070000Y-57301410D01*
X65223764Y-57254766D01*
X65406171Y-57157268D01*
X65566054Y-57026054D01*
X65697268Y-56866171D01*
X65794766Y-56683764D01*
X65841410Y-56530000D01*
X65070000Y-56530000D01*
X64570000Y-56530000D01*
X63798590Y-56530000D01*
X58169683Y-56530000D01*
X58186024Y-56476132D01*
X58205341Y-56280000D01*
X58186024Y-56083868D01*
X58128814Y-55895273D01*
X58035910Y-55721462D01*
X57910883Y-55569117D01*
X57758538Y-55444090D01*
X57658484Y-55390610D01*
X57584726Y-55351185D01*
X57396133Y-55293976D01*
X57200000Y-55274659D01*
X57003866Y-55293976D01*
X56815273Y-55351185D01*
X56641463Y-55444089D01*
X56489117Y-55569117D01*
X56364089Y-55721463D01*
X56271185Y-55895273D01*
X56213976Y-56083866D01*
X56194659Y-56279999D01*
X54575341Y-56279999D01*
X54556024Y-56083868D01*
X54500892Y-55902126D01*
X54499270Y-55836004D01*
X54531873Y-55778452D01*
X54899972Y-55410353D01*
X56123151Y-54187175D01*
X56171933Y-54157117D01*
X56229024Y-54152200D01*
X56282230Y-54173477D01*
G37*
%TD.AperFunction*%
%TA.AperFunction,Conductor*%
G36*
X52306265Y-50409939D02*
G01*
X52346493Y-50436819D01*
X52608126Y-50698452D01*
X52640729Y-50756003D01*
X52639106Y-50822128D01*
X52583975Y-51003869D01*
X52564659Y-51199999D01*
X52583976Y-51396133D01*
X52641185Y-51584726D01*
X52703627Y-51701546D01*
X52734090Y-51758538D01*
X52859117Y-51910883D01*
X53011462Y-52035910D01*
X53185273Y-52128814D01*
X53373868Y-52186024D01*
X53570000Y-52205341D01*
X53766132Y-52186024D01*
X53954727Y-52128814D01*
X54128538Y-52035910D01*
X54280883Y-51910883D01*
X54405910Y-51758538D01*
X54498814Y-51584727D01*
X54556024Y-51396132D01*
X54575341Y-51200000D01*
X54556024Y-51003868D01*
X54500892Y-50822126D01*
X54499270Y-50756003D01*
X54531871Y-50698454D01*
X54793510Y-50436816D01*
X54833736Y-50409939D01*
X54881189Y-50400500D01*
X56075500Y-50400500D01*
X56137500Y-50417113D01*
X56182887Y-50462500D01*
X56199500Y-50524500D01*
X56199500Y-52019749D01*
X56211132Y-52078230D01*
X56255447Y-52144552D01*
X56321769Y-52188867D01*
X56380251Y-52200500D01*
X56380252Y-52200500D01*
X57688811Y-52200500D01*
X57736264Y-52209939D01*
X57776492Y-52236819D01*
X58080955Y-52541282D01*
X58088262Y-52549255D01*
X58112545Y-52578194D01*
X58145266Y-52597085D01*
X58154360Y-52602878D01*
X58185316Y-52624554D01*
X58185317Y-52624554D01*
X58186201Y-52625173D01*
X58210891Y-52635400D01*
X58211954Y-52635587D01*
X58211955Y-52635588D01*
X58249146Y-52642145D01*
X58259704Y-52644486D01*
X58296191Y-52654263D01*
X58296192Y-52654262D01*
X58296193Y-52654263D01*
X58333811Y-52650971D01*
X58344618Y-52650500D01*
X64145877Y-52650500D01*
X64204330Y-52665142D01*
X64248979Y-52705609D01*
X64269280Y-52762346D01*
X64260438Y-52821952D01*
X64224542Y-52870353D01*
X64073945Y-52993945D01*
X63942731Y-53153828D01*
X63845233Y-53336235D01*
X63798590Y-53490000D01*
X65841410Y-53490000D01*
X65794766Y-53336235D01*
X65697268Y-53153828D01*
X65566054Y-52993945D01*
X65415458Y-52870353D01*
X65379562Y-52821952D01*
X65370720Y-52762346D01*
X65391021Y-52705609D01*
X65435670Y-52665142D01*
X65494123Y-52650500D01*
X66756091Y-52650500D01*
X66813348Y-52664511D01*
X66857666Y-52703377D01*
X66879029Y-52758313D01*
X66885990Y-52811185D01*
X66895968Y-52886975D01*
X66956475Y-53033053D01*
X67052729Y-53158495D01*
X67155847Y-53237619D01*
X67178171Y-53254749D01*
X67324250Y-53315257D01*
X67380395Y-53322648D01*
X67430548Y-53340825D01*
X67468424Y-53378392D01*
X67487012Y-53428396D01*
X67482870Y-53481582D01*
X67463975Y-53543868D01*
X67444659Y-53740000D01*
X67463976Y-53936133D01*
X67521185Y-54124726D01*
X67583628Y-54241547D01*
X67614090Y-54298538D01*
X67636768Y-54326171D01*
X67645520Y-54336835D01*
X67672734Y-54400321D01*
X67661762Y-54468517D01*
X67616007Y-54520262D01*
X67549667Y-54539500D01*
X65784370Y-54539500D01*
X65718030Y-54520262D01*
X65672275Y-54468517D01*
X65661303Y-54400321D01*
X65688517Y-54336835D01*
X65697268Y-54326171D01*
X65794766Y-54143764D01*
X65841410Y-53990000D01*
X63798590Y-53990000D01*
X63845233Y-54143764D01*
X63942731Y-54326171D01*
X63951483Y-54336835D01*
X63978697Y-54400321D01*
X63967725Y-54468517D01*
X63921970Y-54520262D01*
X63855630Y-54539500D01*
X58511189Y-54539500D01*
X58463736Y-54530061D01*
X58423508Y-54503181D01*
X58161873Y-54241547D01*
X58129270Y-54183995D01*
X58130894Y-54117870D01*
X58156914Y-54032093D01*
X58186024Y-53936132D01*
X58205341Y-53740000D01*
X58186024Y-53543868D01*
X58128814Y-53355273D01*
X58035910Y-53181462D01*
X57910883Y-53029117D01*
X57758538Y-52904090D01*
X57637306Y-52839290D01*
X57584726Y-52811185D01*
X57396133Y-52753976D01*
X57200000Y-52734659D01*
X57003866Y-52753976D01*
X56815273Y-52811185D01*
X56641463Y-52904089D01*
X56489117Y-53029117D01*
X56364090Y-53181461D01*
X56274563Y-53348954D01*
X56228954Y-53396858D01*
X56165205Y-53414500D01*
X56129616Y-53414500D01*
X56118808Y-53414028D01*
X56081193Y-53410736D01*
X56044716Y-53420510D01*
X56034162Y-53422849D01*
X55995905Y-53429595D01*
X55971190Y-53439834D01*
X55939377Y-53462108D01*
X55930261Y-53467915D01*
X55897545Y-53486804D01*
X55873262Y-53515743D01*
X55865956Y-53523715D01*
X54071546Y-55318126D01*
X54013995Y-55350729D01*
X53947870Y-55349106D01*
X53766130Y-55293975D01*
X53570000Y-55274659D01*
X53373866Y-55293976D01*
X53185273Y-55351185D01*
X53011463Y-55444089D01*
X52859117Y-55569117D01*
X52734090Y-55721461D01*
X52644563Y-55888954D01*
X52598954Y-55936858D01*
X52535205Y-55954500D01*
X48216189Y-55954500D01*
X48168736Y-55945061D01*
X48128508Y-55918181D01*
X47757821Y-55547494D01*
X47382010Y-55171684D01*
X47352273Y-55123862D01*
X47346753Y-55067818D01*
X47355682Y-54999999D01*
X47351061Y-54964903D01*
X47335044Y-54843238D01*
X47274536Y-54697159D01*
X47264461Y-54684029D01*
X47178282Y-54571717D01*
X47052840Y-54475463D01*
X46891680Y-54408709D01*
X46892159Y-54407550D01*
X46858130Y-54394262D01*
X46819233Y-54349537D01*
X46805538Y-54291868D01*
X46820176Y-54234430D01*
X46829812Y-54216404D01*
X46861691Y-54156762D01*
X46875437Y-54131046D01*
X46921047Y-54083141D01*
X46984795Y-54065500D01*
X51044300Y-54065500D01*
X51091753Y-54074939D01*
X51131981Y-54101819D01*
X51158861Y-54142047D01*
X51225464Y-54302841D01*
X51321717Y-54428282D01*
X51431396Y-54512441D01*
X51447159Y-54524536D01*
X51593238Y-54585044D01*
X51750000Y-54605682D01*
X51906762Y-54585044D01*
X52052841Y-54524536D01*
X52178282Y-54428282D01*
X52274536Y-54302841D01*
X52335044Y-54156762D01*
X52355682Y-54000000D01*
X52355682Y-53999999D01*
X52355700Y-53999864D01*
X52381764Y-53938646D01*
X52430138Y-53903740D01*
X52406450Y-53895785D01*
X52483624Y-53895785D01*
X52502033Y-53894276D01*
X52561611Y-53923899D01*
X52597299Y-53980053D01*
X52641185Y-54124726D01*
X52703628Y-54241547D01*
X52734090Y-54298538D01*
X52859117Y-54450883D01*
X53011462Y-54575910D01*
X53185273Y-54668814D01*
X53373868Y-54726024D01*
X53570000Y-54745341D01*
X53766132Y-54726024D01*
X53954727Y-54668814D01*
X54128538Y-54575910D01*
X54280883Y-54450883D01*
X54405910Y-54298538D01*
X54498814Y-54124727D01*
X54556024Y-53936132D01*
X54575341Y-53740000D01*
X54556024Y-53543868D01*
X54498814Y-53355273D01*
X54405910Y-53181462D01*
X54280883Y-53029117D01*
X54128538Y-52904090D01*
X54007306Y-52839290D01*
X53954726Y-52811185D01*
X53766133Y-52753976D01*
X53570000Y-52734659D01*
X53373866Y-52753976D01*
X53185273Y-52811185D01*
X53011463Y-52904089D01*
X52859117Y-53029117D01*
X52734089Y-53181463D01*
X52641185Y-53355273D01*
X52583976Y-53543866D01*
X52564659Y-53740000D01*
X52567692Y-53770800D01*
X52554773Y-53839249D01*
X52506990Y-53889933D01*
X52483624Y-53895785D01*
X52406450Y-53895785D01*
X52373387Y-53884682D01*
X52329728Y-53830405D01*
X52324163Y-53816971D01*
X52274536Y-53697159D01*
X52232165Y-53641940D01*
X52178282Y-53571717D01*
X52052840Y-53475463D01*
X51906762Y-53414956D01*
X51749999Y-53394317D01*
X51578342Y-53416916D01*
X51530065Y-53413752D01*
X51518807Y-53410735D01*
X51481180Y-53414028D01*
X51470372Y-53414500D01*
X46984795Y-53414500D01*
X46921046Y-53396858D01*
X46875437Y-53348954D01*
X46824500Y-53253659D01*
X46785910Y-53181462D01*
X46660883Y-53029117D01*
X46508538Y-52904090D01*
X46387306Y-52839290D01*
X46334726Y-52811185D01*
X46146133Y-52753976D01*
X45950000Y-52734659D01*
X45753866Y-52753976D01*
X45565273Y-52811185D01*
X45391463Y-52904089D01*
X45391461Y-52904090D01*
X45391462Y-52904090D01*
X45278162Y-52997073D01*
X45214680Y-53024286D01*
X45146484Y-53013314D01*
X45094738Y-52967559D01*
X45075500Y-52901219D01*
X45075500Y-52586188D01*
X45084939Y-52538735D01*
X45111819Y-52498507D01*
X45373507Y-52236819D01*
X45413735Y-52209939D01*
X45461188Y-52200500D01*
X46769749Y-52200500D01*
X46798989Y-52194683D01*
X46828231Y-52188867D01*
X46894552Y-52144552D01*
X46938867Y-52078231D01*
X46950500Y-52019748D01*
X46950500Y-50524500D01*
X46967113Y-50462500D01*
X47012500Y-50417113D01*
X47074500Y-50400500D01*
X52258812Y-50400500D01*
X52306265Y-50409939D01*
G37*
%TD.AperFunction*%
%TA.AperFunction,Conductor*%
G36*
X60551970Y-39459738D02*
G01*
X60597725Y-39511483D01*
X60608697Y-39579679D01*
X60581483Y-39643165D01*
X60572731Y-39653828D01*
X60475233Y-39836235D01*
X60428590Y-39990000D01*
X62471410Y-39990000D01*
X62424766Y-39836235D01*
X62327268Y-39653828D01*
X62318517Y-39643165D01*
X62291303Y-39579679D01*
X62302275Y-39511483D01*
X62348030Y-39459738D01*
X62414370Y-39440500D01*
X67758812Y-39440500D01*
X67806265Y-39449939D01*
X67846493Y-39476819D01*
X68108126Y-39738452D01*
X68140729Y-39796003D01*
X68139106Y-39862128D01*
X68083975Y-40043869D01*
X68064659Y-40240000D01*
X68083976Y-40436133D01*
X68141185Y-40624726D01*
X68221261Y-40774536D01*
X68234090Y-40798538D01*
X68359117Y-40950883D01*
X68511462Y-41075910D01*
X68532412Y-41087108D01*
X68549313Y-41096142D01*
X68596587Y-41140710D01*
X68614836Y-41203065D01*
X68599050Y-41266089D01*
X68553562Y-41312479D01*
X68490860Y-41329500D01*
X62124123Y-41329500D01*
X62065670Y-41314858D01*
X62021021Y-41274391D01*
X62000720Y-41217654D01*
X62009562Y-41158048D01*
X62045458Y-41109647D01*
X62196054Y-40986054D01*
X62327268Y-40826171D01*
X62424766Y-40643764D01*
X62471410Y-40490000D01*
X60428590Y-40490000D01*
X60475233Y-40643764D01*
X60572731Y-40826171D01*
X60703945Y-40986054D01*
X60854542Y-41109647D01*
X60890438Y-41158048D01*
X60899280Y-41217654D01*
X60878979Y-41274391D01*
X60834330Y-41314858D01*
X60775877Y-41329500D01*
X57149140Y-41329500D01*
X57086438Y-41312479D01*
X57040950Y-41266089D01*
X57025164Y-41203065D01*
X57043413Y-41140710D01*
X57090687Y-41096142D01*
X57101781Y-41090212D01*
X57128538Y-41075910D01*
X57280883Y-40950883D01*
X57405910Y-40798538D01*
X57498814Y-40624727D01*
X57556024Y-40436132D01*
X57575341Y-40240000D01*
X57556024Y-40043868D01*
X57500892Y-39862126D01*
X57499270Y-39796003D01*
X57531871Y-39738454D01*
X57793510Y-39476816D01*
X57833736Y-39449939D01*
X57881189Y-39440500D01*
X60485630Y-39440500D01*
X60551970Y-39459738D01*
G37*
%TD.AperFunction*%
%TD*%
M02*
