M48
; DRILL file {KiCad 7.0.1} date Mon Aug 14 10:43:42 2023
; FORMAT={-:-/ absolute / inch / decimal}
; #@! TF.CreationDate,2023-08-14T10:43:42-04:00
; #@! TF.GenerationSoftware,Kicad,Pcbnew,7.0.1
; #@! TF.FileFunction,Plated,1,2,PTH
FMAT,2
INCH
; #@! TA.AperFunction,Plated,PTH,ViaDrill
T1C0.0157
; #@! TA.AperFunction,Plated,PTH,ComponentDrill
T2C0.0276
; #@! TA.AperFunction,Plated,PTH,ComponentDrill
T3C0.0315
%
G90
G05
T1
X1.5059Y-1.7618
X1.5846Y-1.752
X1.6142Y-1.9586
X1.7333Y-2.1637
X1.8406Y-2.1654
X1.9685Y-1.8691
X2.0374Y-2.126
X2.0472Y-1.752
X2.0674Y-2.2731
X2.0965Y-2.3917
X2.1248Y-1.5846
X2.1819Y-1.809
X2.185Y-2.3917
X2.4744Y-1.683
X2.5984Y-1.939
X2.6567Y-2.076
X2.7461Y-2.5689
X2.9331Y-1.8406
X2.9528Y-1.7815
X3.1004Y-1.811
T2
X1.378Y-1.0364
X1.378Y-3.2904
X1.428Y-1.0364
X1.428Y-3.2904
X1.478Y-3.2904
X1.528Y-3.2904
X2.7528Y-3.2904
X2.8028Y-3.2904
X2.8528Y-3.2904
X2.9028Y-1.0364
X2.9028Y-3.2904
X2.9528Y-1.0364
X2.9528Y-3.2904
T3
X1.126Y-2.6646
X1.126Y-2.9646
X1.1372Y-1.3878
X1.1372Y-1.6878
X1.2244Y-1.9685
X1.2244Y-2.0472
X1.2244Y-2.126
X1.2244Y-2.2047
X1.2244Y-2.2835
X1.2244Y-2.3622
X1.226Y-2.6646
X1.226Y-2.9646
X1.2372Y-1.3878
X1.2372Y-1.6878
X1.326Y-2.6646
X1.326Y-2.9646
X1.3372Y-1.3878
X1.3372Y-1.6878
X1.3661Y-2.0157
X1.3661Y-2.1157
X1.3661Y-2.2157
X1.3661Y-2.3157
X1.426Y-2.6646
X1.426Y-2.9646
X1.4372Y-1.3878
X1.4372Y-1.6878
X1.526Y-2.6646
X1.526Y-2.9646
X1.5372Y-1.3878
X1.5372Y-1.6878
X1.626Y-2.6646
X1.626Y-2.9646
X1.6372Y-1.3878
X1.6372Y-1.6878
X1.6661Y-2.0157
X1.6661Y-2.1157
X1.6661Y-2.2157
X1.6661Y-2.3157
X1.726Y-2.6646
X1.726Y-2.9646
X1.7372Y-1.3878
X1.7372Y-1.6878
X1.8091Y-2.0157
X1.8091Y-2.1157
X1.8091Y-2.2157
X1.8091Y-2.3157
X1.826Y-2.6646
X1.826Y-2.9646
X1.9272Y-1.4843
X1.9272Y-1.5843
X1.9272Y-1.6843
X1.9685Y-1.2244
X1.9685Y-3.1368
X2.0157Y-2.6654
X2.0157Y-2.7654
X2.0157Y-2.8654
X2.0472Y-1.2244
X2.0472Y-3.1368
X2.1091Y-2.0157
X2.1091Y-2.1157
X2.1091Y-2.2157
X2.1091Y-2.3157
X2.126Y-1.2244
X2.126Y-3.1368
X2.2047Y-1.2244
X2.2047Y-3.1368
X2.2272Y-1.4843
X2.2272Y-1.5843
X2.2272Y-1.6843
X2.252Y-2.0157
X2.252Y-2.1157
X2.252Y-2.2157
X2.252Y-2.3157
X2.2835Y-1.2244
X2.2835Y-3.1368
X2.3157Y-2.6654
X2.3157Y-2.7654
X2.3157Y-2.8654
X2.3622Y-1.2244
X2.3622Y-3.1368
X2.4193Y-1.4843
X2.4193Y-1.5843
X2.4193Y-1.6843
X2.5039Y-2.6646
X2.5039Y-2.9646
X2.552Y-2.0157
X2.552Y-2.1157
X2.552Y-2.2157
X2.552Y-2.3157
X2.6039Y-2.6646
X2.6039Y-2.9646
X2.6949Y-2.0157
X2.6949Y-2.1157
X2.6949Y-2.2157
X2.6949Y-2.3157
X2.7039Y-2.6646
X2.7039Y-2.9646
X2.7193Y-1.4843
X2.7193Y-1.5843
X2.7193Y-1.6843
X2.8039Y-2.6646
X2.8039Y-2.9646
X2.9016Y-1.4843
X2.9016Y-1.5843
X2.9016Y-1.6843
X2.9039Y-2.6646
X2.9039Y-2.9646
X2.9949Y-2.0157
X2.9949Y-2.1157
X2.9949Y-2.2157
X2.9949Y-2.3157
X3.0039Y-2.6646
X3.0039Y-2.9646
X3.1039Y-2.6646
X3.1039Y-2.9646
X3.1368Y-1.9685
X3.1368Y-2.0472
X3.1368Y-2.126
X3.1368Y-2.2047
X3.1368Y-2.2835
X3.1368Y-2.3622
X3.2016Y-1.4843
X3.2016Y-1.5843
X3.2016Y-1.6843
X3.2039Y-2.6646
X3.2039Y-2.9646
T0
M30
