%TF.GenerationSoftware,KiCad,Pcbnew,7.0.1*%
%TF.CreationDate,2023-08-30T09:29:49-04:00*%
%TF.ProjectId,TacTile-L1C,54616354-696c-4652-9d4c-31432e6b6963,rev?*%
%TF.SameCoordinates,Original*%
%TF.FileFunction,Copper,L1,Top*%
%TF.FilePolarity,Positive*%
%FSLAX46Y46*%
G04 Gerber Fmt 4.6, Leading zero omitted, Abs format (unit mm)*
G04 Created by KiCad (PCBNEW 7.0.1) date 2023-08-30 09:29:49*
%MOMM*%
%LPD*%
G01*
G04 APERTURE LIST*
%TA.AperFunction,ComponentPad*%
%ADD10R,1.700000X1.700000*%
%TD*%
%TA.AperFunction,ComponentPad*%
%ADD11O,1.700000X1.700000*%
%TD*%
G04 APERTURE END LIST*
D10*
%TO.P,J2,1,Pin_1*%
%TO.N,/GND*%
X45875000Y-45500000D03*
D11*
%TO.P,J2,2,Pin_2*%
%TO.N,/VCC*%
X45875000Y-48040000D03*
%TD*%
D10*
%TO.P,J1,1,Pin_1*%
%TO.N,/GND*%
X29500000Y-35100000D03*
D11*
%TO.P,J1,2,Pin_2*%
%TO.N,/VCC*%
X26960000Y-35100000D03*
%TD*%
%TA.AperFunction,Conductor*%
%TO.N,/VCC*%
G36*
X49937500Y-25017113D02*
G01*
X49982887Y-25062500D01*
X49999500Y-25124500D01*
X49999500Y-49875500D01*
X49982887Y-49937500D01*
X49937500Y-49982887D01*
X49875500Y-49999500D01*
X25124500Y-49999500D01*
X25062500Y-49982887D01*
X25017113Y-49937500D01*
X25000500Y-49875500D01*
X25000500Y-48290000D01*
X44544364Y-48290000D01*
X44601569Y-48503492D01*
X44701399Y-48717576D01*
X44836893Y-48911081D01*
X45003918Y-49078106D01*
X45197423Y-49213600D01*
X45411507Y-49313430D01*
X45624999Y-49370635D01*
X45625000Y-49370636D01*
X45625000Y-48290000D01*
X46125000Y-48290000D01*
X46125000Y-49370635D01*
X46338492Y-49313430D01*
X46552576Y-49213600D01*
X46746081Y-49078106D01*
X46913106Y-48911081D01*
X47048600Y-48717576D01*
X47148430Y-48503492D01*
X47205636Y-48290000D01*
X46125000Y-48290000D01*
X45625000Y-48290000D01*
X44544364Y-48290000D01*
X25000500Y-48290000D01*
X25000500Y-46397869D01*
X44524500Y-46397869D01*
X44530909Y-46457483D01*
X44581204Y-46592331D01*
X44667454Y-46707546D01*
X44782669Y-46793796D01*
X44914598Y-46843002D01*
X44964978Y-46877981D01*
X44992431Y-46932825D01*
X44990242Y-46994118D01*
X44958947Y-47046865D01*
X44836888Y-47168924D01*
X44701400Y-47362421D01*
X44601569Y-47576507D01*
X44544364Y-47789999D01*
X44544364Y-47790000D01*
X47205636Y-47790000D01*
X47205635Y-47789999D01*
X47148430Y-47576507D01*
X47048599Y-47362421D01*
X46913109Y-47168921D01*
X46791053Y-47046865D01*
X46759757Y-46994119D01*
X46757568Y-46932826D01*
X46785021Y-46877981D01*
X46835398Y-46843003D01*
X46967331Y-46793796D01*
X47082546Y-46707546D01*
X47168796Y-46592331D01*
X47219091Y-46457483D01*
X47225500Y-46397873D01*
X47225499Y-44602128D01*
X47219091Y-44542517D01*
X47168796Y-44407669D01*
X47082546Y-44292454D01*
X46967331Y-44206204D01*
X46832483Y-44155909D01*
X46772873Y-44149500D01*
X46772869Y-44149500D01*
X44977130Y-44149500D01*
X44917515Y-44155909D01*
X44782669Y-44206204D01*
X44667454Y-44292454D01*
X44581204Y-44407668D01*
X44530909Y-44542516D01*
X44524500Y-44602130D01*
X44524500Y-46397869D01*
X25000500Y-46397869D01*
X25000500Y-35350000D01*
X25629364Y-35350000D01*
X25686569Y-35563492D01*
X25786399Y-35777576D01*
X25921893Y-35971081D01*
X26088918Y-36138106D01*
X26282423Y-36273600D01*
X26496507Y-36373430D01*
X26709999Y-36430635D01*
X26710000Y-36430636D01*
X26710000Y-36430635D01*
X27210000Y-36430635D01*
X27423492Y-36373430D01*
X27637576Y-36273600D01*
X27831077Y-36138109D01*
X27953133Y-36016053D01*
X28005880Y-35984757D01*
X28067173Y-35982568D01*
X28122018Y-36010021D01*
X28156996Y-36060399D01*
X28206204Y-36192331D01*
X28292454Y-36307546D01*
X28407669Y-36393796D01*
X28542517Y-36444091D01*
X28602127Y-36450500D01*
X30397872Y-36450499D01*
X30457483Y-36444091D01*
X30592331Y-36393796D01*
X30707546Y-36307546D01*
X30793796Y-36192331D01*
X30844091Y-36057483D01*
X30850500Y-35997873D01*
X30850499Y-34202128D01*
X30844091Y-34142517D01*
X30793796Y-34007669D01*
X30707546Y-33892454D01*
X30592331Y-33806204D01*
X30457483Y-33755909D01*
X30397873Y-33749500D01*
X30397869Y-33749500D01*
X28602130Y-33749500D01*
X28542515Y-33755909D01*
X28407669Y-33806204D01*
X28292454Y-33892454D01*
X28206204Y-34007669D01*
X28156997Y-34139599D01*
X28122018Y-34189978D01*
X28067173Y-34217431D01*
X28005880Y-34215242D01*
X27953134Y-34183946D01*
X27831081Y-34061893D01*
X27637576Y-33926399D01*
X27423492Y-33826569D01*
X27210000Y-33769364D01*
X27210000Y-36430635D01*
X26710000Y-36430635D01*
X26710000Y-35350000D01*
X25629364Y-35350000D01*
X25000500Y-35350000D01*
X25000500Y-34850000D01*
X25629364Y-34850000D01*
X26710000Y-34850000D01*
X26710000Y-33769364D01*
X26709999Y-33769364D01*
X26496507Y-33826569D01*
X26282421Y-33926400D01*
X26088921Y-34061890D01*
X25921890Y-34228921D01*
X25786400Y-34422421D01*
X25686569Y-34636507D01*
X25629364Y-34849999D01*
X25629364Y-34850000D01*
X25000500Y-34850000D01*
X25000500Y-25124500D01*
X25017113Y-25062500D01*
X25062500Y-25017113D01*
X25124500Y-25000500D01*
X49875500Y-25000500D01*
X49937500Y-25017113D01*
G37*
%TD.AperFunction*%
%TD*%
M02*
