%TF.GenerationSoftware,KiCad,Pcbnew,7.0.1*%
%TF.CreationDate,2023-10-04T10:52:08-04:00*%
%TF.ProjectId,TacTile-L1C,54616354-696c-4652-9d4c-31432e6b6963,rev?*%
%TF.SameCoordinates,Original*%
%TF.FileFunction,Copper,L2,Bot*%
%TF.FilePolarity,Positive*%
%FSLAX46Y46*%
G04 Gerber Fmt 4.6, Leading zero omitted, Abs format (unit mm)*
G04 Created by KiCad (PCBNEW 7.0.1) date 2023-10-04 10:52:08*
%MOMM*%
%LPD*%
G01*
G04 APERTURE LIST*
%TA.AperFunction,ComponentPad*%
%ADD10R,1.700000X1.700000*%
%TD*%
%TA.AperFunction,ComponentPad*%
%ADD11O,1.700000X1.700000*%
%TD*%
G04 APERTURE END LIST*
D10*
%TO.P,J2,1,Pin_1*%
%TO.N,/GND*%
X47375000Y-47000000D03*
D11*
%TO.P,J2,2,Pin_2*%
%TO.N,/VCC*%
X47375000Y-49540000D03*
%TD*%
D10*
%TO.P,J1,1,Pin_1*%
%TO.N,/GND*%
X29500000Y-35100000D03*
D11*
%TO.P,J1,2,Pin_2*%
%TO.N,/VCC*%
X26960000Y-35100000D03*
%TD*%
%TA.AperFunction,Conductor*%
%TO.N,/GND*%
G36*
X51437500Y-25017113D02*
G01*
X51482887Y-25062500D01*
X51499500Y-25124500D01*
X51499500Y-51375500D01*
X51482887Y-51437500D01*
X51437500Y-51482887D01*
X51375500Y-51499500D01*
X25124500Y-51499500D01*
X25062500Y-51482887D01*
X25017113Y-51437500D01*
X25000500Y-51375500D01*
X25000500Y-49540000D01*
X46019340Y-49540000D01*
X46039936Y-49775407D01*
X46084709Y-49942502D01*
X46101097Y-50003663D01*
X46200965Y-50217830D01*
X46336505Y-50411401D01*
X46503599Y-50578495D01*
X46697170Y-50714035D01*
X46911337Y-50813903D01*
X47139592Y-50875063D01*
X47375000Y-50895659D01*
X47610408Y-50875063D01*
X47838663Y-50813903D01*
X48052830Y-50714035D01*
X48246401Y-50578495D01*
X48413495Y-50411401D01*
X48549035Y-50217830D01*
X48648903Y-50003663D01*
X48710063Y-49775408D01*
X48730659Y-49540000D01*
X48710063Y-49304592D01*
X48648903Y-49076337D01*
X48549035Y-48862171D01*
X48413495Y-48668599D01*
X48291181Y-48546285D01*
X48259885Y-48493539D01*
X48257696Y-48432246D01*
X48285149Y-48377401D01*
X48335528Y-48342422D01*
X48467089Y-48293352D01*
X48582188Y-48207188D01*
X48668352Y-48092089D01*
X48718597Y-47957375D01*
X48725000Y-47897824D01*
X48725000Y-47250000D01*
X46025000Y-47250000D01*
X46025000Y-47897824D01*
X46031402Y-47957375D01*
X46081647Y-48092089D01*
X46167811Y-48207188D01*
X46282911Y-48293352D01*
X46414471Y-48342422D01*
X46464850Y-48377401D01*
X46492303Y-48432246D01*
X46490114Y-48493539D01*
X46458819Y-48546285D01*
X46336503Y-48668601D01*
X46200965Y-48862170D01*
X46101097Y-49076336D01*
X46039936Y-49304592D01*
X46019340Y-49540000D01*
X25000500Y-49540000D01*
X25000500Y-46750000D01*
X46025000Y-46750000D01*
X47125000Y-46750000D01*
X47125000Y-45650000D01*
X47625000Y-45650000D01*
X47625000Y-46750000D01*
X48725000Y-46750000D01*
X48725000Y-46102176D01*
X48718597Y-46042624D01*
X48668352Y-45907910D01*
X48582188Y-45792811D01*
X48467089Y-45706647D01*
X48332375Y-45656402D01*
X48272824Y-45650000D01*
X47625000Y-45650000D01*
X47125000Y-45650000D01*
X46477176Y-45650000D01*
X46417624Y-45656402D01*
X46282910Y-45706647D01*
X46167811Y-45792811D01*
X46081647Y-45907910D01*
X46031402Y-46042624D01*
X46025000Y-46102176D01*
X46025000Y-46750000D01*
X25000500Y-46750000D01*
X25000500Y-35100000D01*
X25604340Y-35100000D01*
X25624936Y-35335407D01*
X25669709Y-35502502D01*
X25686097Y-35563663D01*
X25785965Y-35777830D01*
X25921505Y-35971401D01*
X26088599Y-36138495D01*
X26282170Y-36274035D01*
X26496337Y-36373903D01*
X26724592Y-36435063D01*
X26960000Y-36455659D01*
X27195408Y-36435063D01*
X27423663Y-36373903D01*
X27637830Y-36274035D01*
X27831401Y-36138495D01*
X27953717Y-36016178D01*
X28006460Y-35984885D01*
X28067752Y-35982696D01*
X28122597Y-36010149D01*
X28157577Y-36060528D01*
X28206647Y-36192088D01*
X28292811Y-36307188D01*
X28407910Y-36393352D01*
X28542624Y-36443597D01*
X28602176Y-36450000D01*
X29250000Y-36450000D01*
X29250000Y-35350000D01*
X29750000Y-35350000D01*
X29750000Y-36450000D01*
X30397824Y-36450000D01*
X30457375Y-36443597D01*
X30592089Y-36393352D01*
X30707188Y-36307188D01*
X30793352Y-36192089D01*
X30843597Y-36057375D01*
X30850000Y-35997824D01*
X30850000Y-35350000D01*
X29750000Y-35350000D01*
X29250000Y-35350000D01*
X29250000Y-33750000D01*
X29750000Y-33750000D01*
X29750000Y-34850000D01*
X30850000Y-34850000D01*
X30850000Y-34202176D01*
X30843597Y-34142624D01*
X30793352Y-34007910D01*
X30707188Y-33892811D01*
X30592089Y-33806647D01*
X30457375Y-33756402D01*
X30397824Y-33750000D01*
X29750000Y-33750000D01*
X29250000Y-33750000D01*
X28602176Y-33750000D01*
X28542624Y-33756402D01*
X28407910Y-33806647D01*
X28292811Y-33892811D01*
X28206646Y-34007913D01*
X28157576Y-34139472D01*
X28122597Y-34189850D01*
X28067753Y-34217303D01*
X28006460Y-34215114D01*
X27953714Y-34183818D01*
X27831404Y-34061508D01*
X27831401Y-34061505D01*
X27637830Y-33925965D01*
X27423663Y-33826097D01*
X27351074Y-33806647D01*
X27195407Y-33764936D01*
X26960000Y-33744340D01*
X26724592Y-33764936D01*
X26496336Y-33826097D01*
X26282170Y-33925965D01*
X26088598Y-34061505D01*
X25921505Y-34228598D01*
X25785965Y-34422170D01*
X25686097Y-34636336D01*
X25624936Y-34864592D01*
X25604340Y-35100000D01*
X25000500Y-35100000D01*
X25000500Y-25124500D01*
X25017113Y-25062500D01*
X25062500Y-25017113D01*
X25124500Y-25000500D01*
X51375500Y-25000500D01*
X51437500Y-25017113D01*
G37*
%TD.AperFunction*%
%TD*%
M02*
