%TF.GenerationSoftware,KiCad,Pcbnew,7.0.1*%
%TF.CreationDate,2023-10-04T10:52:08-04:00*%
%TF.ProjectId,TacTile-L1C,54616354-696c-4652-9d4c-31432e6b6963,rev?*%
%TF.SameCoordinates,Original*%
%TF.FileFunction,Copper,L1,Top*%
%TF.FilePolarity,Positive*%
%FSLAX46Y46*%
G04 Gerber Fmt 4.6, Leading zero omitted, Abs format (unit mm)*
G04 Created by KiCad (PCBNEW 7.0.1) date 2023-10-04 10:52:08*
%MOMM*%
%LPD*%
G01*
G04 APERTURE LIST*
%TA.AperFunction,ComponentPad*%
%ADD10R,1.700000X1.700000*%
%TD*%
%TA.AperFunction,ComponentPad*%
%ADD11O,1.700000X1.700000*%
%TD*%
G04 APERTURE END LIST*
D10*
%TO.P,J2,1,Pin_1*%
%TO.N,/GND*%
X47375000Y-47000000D03*
D11*
%TO.P,J2,2,Pin_2*%
%TO.N,/VCC*%
X47375000Y-49540000D03*
%TD*%
D10*
%TO.P,J1,1,Pin_1*%
%TO.N,/GND*%
X29500000Y-35100000D03*
D11*
%TO.P,J1,2,Pin_2*%
%TO.N,/VCC*%
X26960000Y-35100000D03*
%TD*%
%TA.AperFunction,Conductor*%
%TO.N,/VCC*%
G36*
X51437500Y-25017113D02*
G01*
X51482887Y-25062500D01*
X51499500Y-25124500D01*
X51499500Y-51375500D01*
X51482887Y-51437500D01*
X51437500Y-51482887D01*
X51375500Y-51499500D01*
X25124500Y-51499500D01*
X25062500Y-51482887D01*
X25017113Y-51437500D01*
X25000500Y-51375500D01*
X25000500Y-49790000D01*
X46044364Y-49790000D01*
X46101569Y-50003492D01*
X46201399Y-50217576D01*
X46336893Y-50411081D01*
X46503918Y-50578106D01*
X46697423Y-50713600D01*
X46911507Y-50813430D01*
X47124999Y-50870635D01*
X47125000Y-50870636D01*
X47125000Y-49790000D01*
X47625000Y-49790000D01*
X47625000Y-50870635D01*
X47838492Y-50813430D01*
X48052576Y-50713600D01*
X48246081Y-50578106D01*
X48413106Y-50411081D01*
X48548600Y-50217576D01*
X48648430Y-50003492D01*
X48705636Y-49790000D01*
X47625000Y-49790000D01*
X47125000Y-49790000D01*
X46044364Y-49790000D01*
X25000500Y-49790000D01*
X25000500Y-47897869D01*
X46024500Y-47897869D01*
X46030909Y-47957483D01*
X46081204Y-48092331D01*
X46167454Y-48207546D01*
X46282669Y-48293796D01*
X46414598Y-48343002D01*
X46464978Y-48377981D01*
X46492431Y-48432825D01*
X46490242Y-48494118D01*
X46458947Y-48546865D01*
X46336888Y-48668924D01*
X46201400Y-48862421D01*
X46101569Y-49076507D01*
X46044364Y-49289999D01*
X46044364Y-49290000D01*
X48705636Y-49290000D01*
X48705635Y-49289999D01*
X48648430Y-49076507D01*
X48548599Y-48862421D01*
X48413109Y-48668921D01*
X48291053Y-48546865D01*
X48259757Y-48494119D01*
X48257568Y-48432826D01*
X48285021Y-48377981D01*
X48335398Y-48343003D01*
X48467331Y-48293796D01*
X48582546Y-48207546D01*
X48668796Y-48092331D01*
X48719091Y-47957483D01*
X48725500Y-47897873D01*
X48725499Y-46102128D01*
X48719091Y-46042517D01*
X48668796Y-45907669D01*
X48582546Y-45792454D01*
X48467331Y-45706204D01*
X48332483Y-45655909D01*
X48272873Y-45649500D01*
X48272869Y-45649500D01*
X46477130Y-45649500D01*
X46417515Y-45655909D01*
X46282669Y-45706204D01*
X46167454Y-45792454D01*
X46081204Y-45907668D01*
X46030909Y-46042516D01*
X46024500Y-46102130D01*
X46024500Y-47897869D01*
X25000500Y-47897869D01*
X25000500Y-35350000D01*
X25629364Y-35350000D01*
X25686569Y-35563492D01*
X25786399Y-35777576D01*
X25921893Y-35971081D01*
X26088918Y-36138106D01*
X26282423Y-36273600D01*
X26496507Y-36373430D01*
X26709999Y-36430635D01*
X26710000Y-36430636D01*
X26710000Y-36430635D01*
X27210000Y-36430635D01*
X27423492Y-36373430D01*
X27637576Y-36273600D01*
X27831077Y-36138109D01*
X27953133Y-36016053D01*
X28005880Y-35984757D01*
X28067173Y-35982568D01*
X28122018Y-36010021D01*
X28156996Y-36060399D01*
X28206204Y-36192331D01*
X28292454Y-36307546D01*
X28407669Y-36393796D01*
X28542517Y-36444091D01*
X28602127Y-36450500D01*
X30397872Y-36450499D01*
X30457483Y-36444091D01*
X30592331Y-36393796D01*
X30707546Y-36307546D01*
X30793796Y-36192331D01*
X30844091Y-36057483D01*
X30850500Y-35997873D01*
X30850499Y-34202128D01*
X30844091Y-34142517D01*
X30793796Y-34007669D01*
X30707546Y-33892454D01*
X30592331Y-33806204D01*
X30457483Y-33755909D01*
X30397873Y-33749500D01*
X30397869Y-33749500D01*
X28602130Y-33749500D01*
X28542515Y-33755909D01*
X28407669Y-33806204D01*
X28292454Y-33892454D01*
X28206204Y-34007669D01*
X28156997Y-34139599D01*
X28122018Y-34189978D01*
X28067173Y-34217431D01*
X28005880Y-34215242D01*
X27953134Y-34183946D01*
X27831081Y-34061893D01*
X27637576Y-33926399D01*
X27423492Y-33826569D01*
X27210000Y-33769364D01*
X27210000Y-36430635D01*
X26710000Y-36430635D01*
X26710000Y-35350000D01*
X25629364Y-35350000D01*
X25000500Y-35350000D01*
X25000500Y-34850000D01*
X25629364Y-34850000D01*
X26710000Y-34850000D01*
X26710000Y-33769364D01*
X26709999Y-33769364D01*
X26496507Y-33826569D01*
X26282421Y-33926400D01*
X26088921Y-34061890D01*
X25921890Y-34228921D01*
X25786400Y-34422421D01*
X25686569Y-34636507D01*
X25629364Y-34849999D01*
X25629364Y-34850000D01*
X25000500Y-34850000D01*
X25000500Y-25124500D01*
X25017113Y-25062500D01*
X25062500Y-25017113D01*
X25124500Y-25000500D01*
X51375500Y-25000500D01*
X51437500Y-25017113D01*
G37*
%TD.AperFunction*%
%TD*%
M02*
