%TF.GenerationSoftware,KiCad,Pcbnew,7.0.1*%
%TF.CreationDate,2023-08-30T09:29:49-04:00*%
%TF.ProjectId,TacTile-L1C,54616354-696c-4652-9d4c-31432e6b6963,rev?*%
%TF.SameCoordinates,Original*%
%TF.FileFunction,Legend,Top*%
%TF.FilePolarity,Positive*%
%FSLAX46Y46*%
G04 Gerber Fmt 4.6, Leading zero omitted, Abs format (unit mm)*
G04 Created by KiCad (PCBNEW 7.0.1) date 2023-08-30 09:29:49*
%MOMM*%
%LPD*%
G01*
G04 APERTURE LIST*
%ADD10C,0.150000*%
%ADD11C,0.120000*%
G04 APERTURE END LIST*
D10*
%TO.C,J1*%
X31732619Y-31053333D02*
X32446904Y-31053333D01*
X32446904Y-31053333D02*
X32589761Y-31100952D01*
X32589761Y-31100952D02*
X32685000Y-31196190D01*
X32685000Y-31196190D02*
X32732619Y-31339047D01*
X32732619Y-31339047D02*
X32732619Y-31434285D01*
X32732619Y-30053333D02*
X32732619Y-30624761D01*
X32732619Y-30339047D02*
X31732619Y-30339047D01*
X31732619Y-30339047D02*
X31875476Y-30434285D01*
X31875476Y-30434285D02*
X31970714Y-30529523D01*
X31970714Y-30529523D02*
X32018333Y-30624761D01*
D11*
%TO.C,J2*%
X44605000Y-44230000D02*
X45875000Y-44230000D01*
X44605000Y-45500000D02*
X44605000Y-44230000D01*
X46917929Y-47660000D02*
X47315000Y-47660000D01*
X46917929Y-48420000D02*
X47315000Y-48420000D01*
X46985000Y-45120000D02*
X47315000Y-45120000D01*
X46985000Y-45880000D02*
X47315000Y-45880000D01*
X47315000Y-44170000D02*
X47315000Y-49370000D01*
X47315000Y-46770000D02*
X49975000Y-46770000D01*
X47315000Y-49370000D02*
X49975000Y-49370000D01*
X49975000Y-44170000D02*
X47315000Y-44170000D01*
X49975000Y-45120000D02*
X55975000Y-45120000D01*
X49975000Y-45180000D02*
X55975000Y-45180000D01*
X49975000Y-45300000D02*
X55975000Y-45300000D01*
X49975000Y-45420000D02*
X55975000Y-45420000D01*
X49975000Y-45540000D02*
X55975000Y-45540000D01*
X49975000Y-45660000D02*
X55975000Y-45660000D01*
X49975000Y-45780000D02*
X55975000Y-45780000D01*
X49975000Y-47660000D02*
X55975000Y-47660000D01*
X49975000Y-49370000D02*
X49975000Y-44170000D01*
X55975000Y-45120000D02*
X55975000Y-45880000D01*
X55975000Y-45880000D02*
X49975000Y-45880000D01*
X55975000Y-47660000D02*
X55975000Y-48420000D01*
X55975000Y-48420000D02*
X49975000Y-48420000D01*
%TO.C,J1*%
X30830000Y-25010000D02*
X25630000Y-25010000D01*
X30830000Y-25010000D02*
X30830000Y-33640000D01*
X30710000Y-25010000D02*
X30710000Y-33640000D01*
X30591905Y-25010000D02*
X30591905Y-33640000D01*
X30473810Y-25010000D02*
X30473810Y-33640000D01*
X30355715Y-25010000D02*
X30355715Y-33640000D01*
X30237620Y-25010000D02*
X30237620Y-33640000D01*
X30119525Y-25010000D02*
X30119525Y-33640000D01*
X30001430Y-25010000D02*
X30001430Y-33640000D01*
X29883335Y-25010000D02*
X29883335Y-33640000D01*
X29765240Y-25010000D02*
X29765240Y-33640000D01*
X29647145Y-25010000D02*
X29647145Y-33640000D01*
X29529050Y-25010000D02*
X29529050Y-33640000D01*
X29410955Y-25010000D02*
X29410955Y-33640000D01*
X29292860Y-25010000D02*
X29292860Y-33640000D01*
X29174765Y-25010000D02*
X29174765Y-33640000D01*
X29056670Y-25010000D02*
X29056670Y-33640000D01*
X28938575Y-25010000D02*
X28938575Y-33640000D01*
X28820480Y-25010000D02*
X28820480Y-33640000D01*
X28702385Y-25010000D02*
X28702385Y-33640000D01*
X28584290Y-25010000D02*
X28584290Y-33640000D01*
X28466195Y-25010000D02*
X28466195Y-33640000D01*
X28348100Y-25010000D02*
X28348100Y-33640000D01*
X28230000Y-25010000D02*
X28230000Y-33640000D01*
X25630000Y-25010000D02*
X25630000Y-33640000D01*
X30830000Y-33640000D02*
X25630000Y-33640000D01*
X29860000Y-33640000D02*
X29860000Y-33990000D01*
X29140000Y-33640000D02*
X29140000Y-33990000D01*
X27320000Y-33640000D02*
X27320000Y-34050000D01*
X26600000Y-33640000D02*
X26600000Y-34050000D01*
X30830000Y-35100000D02*
X30830000Y-36210000D01*
X30830000Y-36210000D02*
X29500000Y-36210000D01*
%TD*%
M02*
