%TF.GenerationSoftware,KiCad,Pcbnew,7.0.1*%
%TF.CreationDate,2023-08-14T10:41:28-04:00*%
%TF.ProjectId,TacTile-C,54616354-696c-4652-9d43-2e6b69636164,rev?*%
%TF.SameCoordinates,Original*%
%TF.FileFunction,Copper,L1,Top*%
%TF.FilePolarity,Positive*%
%FSLAX46Y46*%
G04 Gerber Fmt 4.6, Leading zero omitted, Abs format (unit mm)*
G04 Created by KiCad (PCBNEW 7.0.1) date 2023-08-14 10:41:28*
%MOMM*%
%LPD*%
G01*
G04 APERTURE LIST*
G04 Aperture macros list*
%AMHorizOval*
0 Thick line with rounded ends*
0 $1 width*
0 $2 $3 position (X,Y) of the first rounded end (center of the circle)*
0 $4 $5 position (X,Y) of the second rounded end (center of the circle)*
0 Add line between two ends*
20,1,$1,$2,$3,$4,$5,0*
0 Add two circle primitives to create the rounded ends*
1,1,$1,$2,$3*
1,1,$1,$4,$5*%
%AMRotRect*
0 Rectangle, with rotation*
0 The origin of the aperture is its center*
0 $1 length*
0 $2 width*
0 $3 Rotation angle, in degrees counterclockwise*
0 Add horizontal line*
21,1,$1,$2,0,0,$3*%
G04 Aperture macros list end*
%TA.AperFunction,ComponentPad*%
%ADD10C,1.000000*%
%TD*%
%TA.AperFunction,ComponentPad*%
%ADD11R,1.000000X1.000000*%
%TD*%
%TA.AperFunction,ComponentPad*%
%ADD12O,1.000000X1.000000*%
%TD*%
%TA.AperFunction,ComponentPad*%
%ADD13R,1.600000X1.600000*%
%TD*%
%TA.AperFunction,ComponentPad*%
%ADD14O,1.600000X1.600000*%
%TD*%
%TA.AperFunction,ComponentPad*%
%ADD15RotRect,1.000000X1.000000X292.000000*%
%TD*%
%TA.AperFunction,ComponentPad*%
%ADD16HorizOval,1.000000X0.000000X0.000000X0.000000X0.000000X0*%
%TD*%
%TA.AperFunction,ComponentPad*%
%ADD17RotRect,1.000000X1.000000X112.000000*%
%TD*%
%TA.AperFunction,ComponentPad*%
%ADD18HorizOval,1.000000X0.000000X0.000000X0.000000X0.000000X0*%
%TD*%
%TA.AperFunction,ViaPad*%
%ADD19C,0.800000*%
%TD*%
%TA.AperFunction,Conductor*%
%ADD20C,0.250000*%
%TD*%
G04 APERTURE END LIST*
D10*
%TO.P,JMP3,1,A*%
%TO.N,/INP34*%
X25750000Y-51250000D03*
%TD*%
%TO.P,JMP6,1,A*%
%TO.N,/INP37*%
X25750000Y-58750000D03*
%TD*%
%TO.P,JMP16,1,A*%
%TO.N,/INP47*%
X84250000Y-63750000D03*
%TD*%
D11*
%TO.P,J6,1,Pin_1*%
%TO.N,/INP10*%
X84250000Y-39950000D03*
D12*
%TO.P,J6,2,Pin_2*%
%TO.N,/INP11*%
X82980000Y-39950000D03*
%TD*%
D13*
%TO.P,U3,1,A4*%
%TO.N,/INP12*%
X45450000Y-31100000D03*
D14*
%TO.P,U3,2,A6*%
%TO.N,/INP14*%
X45450000Y-33640000D03*
%TO.P,U3,3,A*%
%TO.N,Net-(U3-A)*%
X45450000Y-36180000D03*
%TO.P,U3,4,A7*%
%TO.N,/INP15*%
X45450000Y-38720000D03*
%TO.P,U3,5,A5*%
%TO.N,/INP13*%
X45450000Y-41260000D03*
%TO.P,U3,6,~{E}*%
%TO.N,/LEN*%
X45450000Y-43800000D03*
%TO.P,U3,7,VEE*%
%TO.N,/GND*%
X45450000Y-46340000D03*
%TO.P,U3,8,GND*%
X45450000Y-48880000D03*
%TO.P,U3,9,S2*%
%TO.N,/LS6*%
X53070000Y-48880000D03*
%TO.P,U3,10,S1*%
%TO.N,/LS1*%
X53070000Y-46340000D03*
%TO.P,U3,11,S0*%
%TO.N,/LS0*%
X53070000Y-43800000D03*
%TO.P,U3,12,A3*%
%TO.N,/INP11*%
X53070000Y-41260000D03*
%TO.P,U3,13,A0*%
%TO.N,/INP8*%
X53070000Y-38720000D03*
%TO.P,U3,14,A1*%
%TO.N,/INP9*%
X53070000Y-36180000D03*
%TO.P,U3,15,A2*%
%TO.N,/INP10*%
X53070000Y-33640000D03*
%TO.P,U3,16,VCC*%
%TO.N,/VCC*%
X53070000Y-31100000D03*
%TD*%
D10*
%TO.P,JMP14,1,A*%
%TO.N,/INP45*%
X84250000Y-58750000D03*
%TD*%
D15*
%TO.P,J10,1,Pin_1*%
%TO.N,/INP18*%
X81802670Y-65956506D03*
D16*
%TO.P,J10,2,Pin_2*%
%TO.N,/INP19*%
X80625147Y-66432256D03*
%TD*%
D10*
%TO.P,JMP4,1,A*%
%TO.N,/INP35*%
X25750000Y-53750000D03*
%TD*%
D11*
%TO.P,J2,1,Pin_1*%
%TO.N,/INP2*%
X84250000Y-32450000D03*
D12*
%TO.P,J2,2,Pin_2*%
%TO.N,/INP3*%
X82980000Y-32450000D03*
%TD*%
D10*
%TO.P,JMP10,1,A*%
%TO.N,/INP41*%
X84250000Y-48750000D03*
%TD*%
%TO.P,JMP7,1,A*%
%TO.N,/INP38*%
X25750000Y-61250000D03*
%TD*%
D13*
%TO.P,U6,1,A4*%
%TO.N,unconnected-(U6-A4-Pad1)*%
X34200000Y-61100000D03*
D14*
%TO.P,U6,2,A6*%
%TO.N,unconnected-(U6-A6-Pad2)*%
X34200000Y-63640000D03*
%TO.P,U6,3,A*%
%TO.N,/VCC*%
X34200000Y-66180000D03*
%TO.P,U6,4,A7*%
%TO.N,unconnected-(U6-A7-Pad4)*%
X34200000Y-68720000D03*
%TO.P,U6,5,A5*%
%TO.N,unconnected-(U6-A5-Pad5)*%
X34200000Y-71260000D03*
%TO.P,U6,6,~{E}*%
%TO.N,/LEN*%
X34200000Y-73800000D03*
%TO.P,U6,7,VEE*%
%TO.N,/GND*%
X34200000Y-76340000D03*
%TO.P,U6,8,GND*%
X34200000Y-78880000D03*
%TO.P,U6,9,S2*%
X41820000Y-78880000D03*
%TO.P,U6,10,S1*%
%TO.N,/LS8*%
X41820000Y-76340000D03*
%TO.P,U6,11,S0*%
%TO.N,/LS7*%
X41820000Y-73800000D03*
%TO.P,U6,12,A3*%
%TO.N,Net-(U5-A)*%
X41820000Y-71260000D03*
%TO.P,U6,13,A0*%
%TO.N,Net-(U2-A)*%
X41820000Y-68720000D03*
%TO.P,U6,14,A1*%
%TO.N,Net-(U3-A)*%
X41820000Y-66180000D03*
%TO.P,U6,15,A2*%
%TO.N,Net-(U4-A)*%
X41820000Y-63640000D03*
%TO.P,U6,16,VCC*%
%TO.N,/VCC*%
X41820000Y-61100000D03*
%TD*%
D15*
%TO.P,J8,1,Pin_1*%
%TO.N,/INP14*%
X81802670Y-43456506D03*
D16*
%TO.P,J8,2,Pin_2*%
%TO.N,/INP15*%
X80625147Y-43932256D03*
%TD*%
D17*
%TO.P,J1,1,Pin_1*%
%TO.N,/INP1*%
X28097331Y-28943494D03*
D18*
%TO.P,J1,2,Pin_2*%
%TO.N,/INP0*%
X29274854Y-28467744D03*
%TD*%
D10*
%TO.P,JMP1,1,A*%
%TO.N,/INP32*%
X25750000Y-46250000D03*
%TD*%
D15*
%TO.P,J14,1,Pin_1*%
%TO.N,/INP26*%
X81802670Y-73456506D03*
D16*
%TO.P,J14,2,Pin_2*%
%TO.N,/INP27*%
X80625147Y-73932256D03*
%TD*%
D11*
%TO.P,J15,1,Pin_1*%
%TO.N,/INP29*%
X25650000Y-77450000D03*
D12*
%TO.P,J15,2,Pin_2*%
%TO.N,/INP28*%
X26920000Y-77450000D03*
%TD*%
D10*
%TO.P,JMP8,1,A*%
%TO.N,/INP39*%
X25750000Y-63750000D03*
%TD*%
D13*
%TO.P,U2,1,A4*%
%TO.N,/INP4*%
X34200000Y-31100000D03*
D14*
%TO.P,U2,2,A6*%
%TO.N,/INP6*%
X34200000Y-33640000D03*
%TO.P,U2,3,A*%
%TO.N,Net-(U2-A)*%
X34200000Y-36180000D03*
%TO.P,U2,4,A7*%
%TO.N,/INP7*%
X34200000Y-38720000D03*
%TO.P,U2,5,A5*%
%TO.N,/INP5*%
X34200000Y-41260000D03*
%TO.P,U2,6,~{E}*%
%TO.N,/LEN*%
X34200000Y-43800000D03*
%TO.P,U2,7,VEE*%
%TO.N,/GND*%
X34200000Y-46340000D03*
%TO.P,U2,8,GND*%
X34200000Y-48880000D03*
%TO.P,U2,9,S2*%
%TO.N,/LS6*%
X41820000Y-48880000D03*
%TO.P,U2,10,S1*%
%TO.N,/LS1*%
X41820000Y-46340000D03*
%TO.P,U2,11,S0*%
%TO.N,/LS0*%
X41820000Y-43800000D03*
%TO.P,U2,12,A3*%
%TO.N,/INP3*%
X41820000Y-41260000D03*
%TO.P,U2,13,A0*%
%TO.N,/INP0*%
X41820000Y-38720000D03*
%TO.P,U2,14,A1*%
%TO.N,/INP1*%
X41820000Y-36180000D03*
%TO.P,U2,15,A2*%
%TO.N,/INP2*%
X41820000Y-33640000D03*
%TO.P,U2,16,VCC*%
%TO.N,/VCC*%
X41820000Y-31100000D03*
%TD*%
D11*
%TO.P,J17,1,Pin_1*%
%TO.N,/VIN*%
X25650000Y-32450000D03*
D12*
%TO.P,J17,2,Pin_2*%
%TO.N,/GND*%
X26920000Y-32450000D03*
%TD*%
D10*
%TO.P,JMP11,1,A*%
%TO.N,/INP42*%
X84250000Y-51250000D03*
%TD*%
%TO.P,JMP9,1,A*%
%TO.N,/INP40*%
X84250000Y-46250000D03*
%TD*%
D17*
%TO.P,J9,1,Pin_1*%
%TO.N,/INP17*%
X28097331Y-66443494D03*
D18*
%TO.P,J9,2,Pin_2*%
%TO.N,/INP16*%
X29274854Y-65967744D03*
%TD*%
D13*
%TO.P,U4,1,A4*%
%TO.N,/INP20*%
X56950000Y-31100000D03*
D14*
%TO.P,U4,2,A6*%
%TO.N,/INP22*%
X56950000Y-33640000D03*
%TO.P,U4,3,A*%
%TO.N,Net-(U4-A)*%
X56950000Y-36180000D03*
%TO.P,U4,4,A7*%
%TO.N,/INP23*%
X56950000Y-38720000D03*
%TO.P,U4,5,A5*%
%TO.N,/INP21*%
X56950000Y-41260000D03*
%TO.P,U4,6,~{E}*%
%TO.N,/LEN*%
X56950000Y-43800000D03*
%TO.P,U4,7,VEE*%
%TO.N,/GND*%
X56950000Y-46340000D03*
%TO.P,U4,8,GND*%
X56950000Y-48880000D03*
%TO.P,U4,9,S2*%
%TO.N,/LS6*%
X64570000Y-48880000D03*
%TO.P,U4,10,S1*%
%TO.N,/LS1*%
X64570000Y-46340000D03*
%TO.P,U4,11,S0*%
%TO.N,/LS0*%
X64570000Y-43800000D03*
%TO.P,U4,12,A3*%
%TO.N,/INP19*%
X64570000Y-41260000D03*
%TO.P,U4,13,A0*%
%TO.N,/INP16*%
X64570000Y-38720000D03*
%TO.P,U4,14,A1*%
%TO.N,/INP17*%
X64570000Y-36180000D03*
%TO.P,U4,15,A2*%
%TO.N,/INP18*%
X64570000Y-33640000D03*
%TO.P,U4,16,VCC*%
%TO.N,/VCC*%
X64570000Y-31100000D03*
%TD*%
D17*
%TO.P,J3,1,Pin_1*%
%TO.N,/INP5*%
X28097331Y-36443494D03*
D18*
%TO.P,J3,2,Pin_2*%
%TO.N,/INP4*%
X29274854Y-35967744D03*
%TD*%
D10*
%TO.P,JMP2,1,A*%
%TO.N,/INP33*%
X25750000Y-48750000D03*
%TD*%
%TO.P,JMP5,1,A*%
%TO.N,/INP36*%
X25750000Y-56250000D03*
%TD*%
%TO.P,JMP13,1,A*%
%TO.N,/INP44*%
X84250000Y-56250000D03*
%TD*%
D11*
%TO.P,J11,1,Pin_1*%
%TO.N,/INP21*%
X25650000Y-69950000D03*
D12*
%TO.P,J11,2,Pin_2*%
%TO.N,/INP20*%
X26920000Y-69950000D03*
%TD*%
D13*
%TO.P,U5,1,A4*%
%TO.N,/INP28*%
X68200000Y-31100000D03*
D14*
%TO.P,U5,2,A6*%
%TO.N,/INP30*%
X68200000Y-33640000D03*
%TO.P,U5,3,A*%
%TO.N,Net-(U5-A)*%
X68200000Y-36180000D03*
%TO.P,U5,4,A7*%
%TO.N,/INP31*%
X68200000Y-38720000D03*
%TO.P,U5,5,A5*%
%TO.N,/INP29*%
X68200000Y-41260000D03*
%TO.P,U5,6,~{E}*%
%TO.N,/LEN*%
X68200000Y-43800000D03*
%TO.P,U5,7,VEE*%
%TO.N,/GND*%
X68200000Y-46340000D03*
%TO.P,U5,8,GND*%
X68200000Y-48880000D03*
%TO.P,U5,9,S2*%
%TO.N,/LS6*%
X75820000Y-48880000D03*
%TO.P,U5,10,S1*%
%TO.N,/LS1*%
X75820000Y-46340000D03*
%TO.P,U5,11,S0*%
%TO.N,/LS0*%
X75820000Y-43800000D03*
%TO.P,U5,12,A3*%
%TO.N,/INP27*%
X75820000Y-41260000D03*
%TO.P,U5,13,A0*%
%TO.N,/INP24*%
X75820000Y-38720000D03*
%TO.P,U5,14,A1*%
%TO.N,/INP25*%
X75820000Y-36180000D03*
%TO.P,U5,15,A2*%
%TO.N,/INP26*%
X75820000Y-33640000D03*
%TO.P,U5,16,VCC*%
%TO.N,/VCC*%
X75820000Y-31100000D03*
%TD*%
D13*
%TO.P,U8,1,A4*%
%TO.N,/INP44*%
X56950000Y-61100000D03*
D14*
%TO.P,U8,2,A6*%
%TO.N,/INP46*%
X56950000Y-63640000D03*
%TO.P,U8,3,A*%
%TO.N,Net-(U8-A)*%
X56950000Y-66180000D03*
%TO.P,U8,4,A7*%
%TO.N,/INP47*%
X56950000Y-68720000D03*
%TO.P,U8,5,A5*%
%TO.N,/INP45*%
X56950000Y-71260000D03*
%TO.P,U8,6,~{E}*%
%TO.N,/LEN*%
X56950000Y-73800000D03*
%TO.P,U8,7,VEE*%
%TO.N,/GND*%
X56950000Y-76340000D03*
%TO.P,U8,8,GND*%
X56950000Y-78880000D03*
%TO.P,U8,9,S2*%
%TO.N,/LS4*%
X64570000Y-78880000D03*
%TO.P,U8,10,S1*%
%TO.N,/LS3*%
X64570000Y-76340000D03*
%TO.P,U8,11,S0*%
%TO.N,/LS2*%
X64570000Y-73800000D03*
%TO.P,U8,12,A3*%
%TO.N,/INP43*%
X64570000Y-71260000D03*
%TO.P,U8,13,A0*%
%TO.N,/INP40*%
X64570000Y-68720000D03*
%TO.P,U8,14,A1*%
%TO.N,/INP41*%
X64570000Y-66180000D03*
%TO.P,U8,15,A2*%
%TO.N,/INP42*%
X64570000Y-63640000D03*
%TO.P,U8,16,VCC*%
%TO.N,/VCC*%
X64570000Y-61100000D03*
%TD*%
D11*
%TO.P,J12,1,Pin_1*%
%TO.N,/INP22*%
X84250000Y-69950000D03*
D12*
%TO.P,J12,2,Pin_2*%
%TO.N,/INP23*%
X82980000Y-69950000D03*
%TD*%
D13*
%TO.P,U1,1*%
%TO.N,/VCC*%
X68200000Y-61200000D03*
D14*
%TO.P,U1,2,GND*%
%TO.N,/GND*%
X68200000Y-63740000D03*
%TO.P,U1,3*%
%TO.N,/LS5*%
X68200000Y-66280000D03*
%TO.P,U1,4*%
%TO.N,Net-(U8-A)*%
X75820000Y-66280000D03*
%TO.P,U1,5,VCC*%
%TO.N,/VCC*%
X75820000Y-63740000D03*
%TO.P,U1,6*%
%TO.N,Net-(U7-A)*%
X75820000Y-61200000D03*
%TD*%
D13*
%TO.P,U7,1,A4*%
%TO.N,/INP36*%
X45450000Y-61100000D03*
D14*
%TO.P,U7,2,A6*%
%TO.N,/INP38*%
X45450000Y-63640000D03*
%TO.P,U7,3,A*%
%TO.N,Net-(U7-A)*%
X45450000Y-66180000D03*
%TO.P,U7,4,A7*%
%TO.N,/INP39*%
X45450000Y-68720000D03*
%TO.P,U7,5,A5*%
%TO.N,/INP37*%
X45450000Y-71260000D03*
%TO.P,U7,6,~{E}*%
%TO.N,/LEN*%
X45450000Y-73800000D03*
%TO.P,U7,7,VEE*%
%TO.N,/GND*%
X45450000Y-76340000D03*
%TO.P,U7,8,GND*%
X45450000Y-78880000D03*
%TO.P,U7,9,S2*%
%TO.N,/LS4*%
X53070000Y-78880000D03*
%TO.P,U7,10,S1*%
%TO.N,/LS3*%
X53070000Y-76340000D03*
%TO.P,U7,11,S0*%
%TO.N,/LS2*%
X53070000Y-73800000D03*
%TO.P,U7,12,A3*%
%TO.N,/INP35*%
X53070000Y-71260000D03*
%TO.P,U7,13,A0*%
%TO.N,/INP32*%
X53070000Y-68720000D03*
%TO.P,U7,14,A1*%
%TO.N,/INP33*%
X53070000Y-66180000D03*
%TO.P,U7,15,A2*%
%TO.N,/INP34*%
X53070000Y-63640000D03*
%TO.P,U7,16,VCC*%
%TO.N,/VCC*%
X53070000Y-61100000D03*
%TD*%
D10*
%TO.P,JMP15,1,A*%
%TO.N,/INP46*%
X84250000Y-61250000D03*
%TD*%
D15*
%TO.P,J4,1,Pin_1*%
%TO.N,/INP6*%
X81802670Y-35956506D03*
D16*
%TO.P,J4,2,Pin_2*%
%TO.N,/INP7*%
X80625147Y-36432256D03*
%TD*%
D11*
%TO.P,J5,1,Pin_1*%
%TO.N,/INP9*%
X25650000Y-39950000D03*
D12*
%TO.P,J5,2,Pin_2*%
%TO.N,/INP8*%
X26920000Y-39950000D03*
%TD*%
D17*
%TO.P,J13,1,Pin_1*%
%TO.N,/INP25*%
X28097331Y-73943494D03*
D18*
%TO.P,J13,2,Pin_2*%
%TO.N,/INP24*%
X29274854Y-73467744D03*
%TD*%
D10*
%TO.P,JMP12,1,A*%
%TO.N,/INP43*%
X84250000Y-53750000D03*
%TD*%
D11*
%TO.P,J16,1,Pin_1*%
%TO.N,/INP30*%
X84250000Y-77450000D03*
D12*
%TO.P,J16,2,Pin_2*%
%TO.N,/INP31*%
X82980000Y-77450000D03*
%TD*%
D17*
%TO.P,J7,1,Pin_1*%
%TO.N,/INP13*%
X28097331Y-43943494D03*
D18*
%TO.P,J7,2,Pin_2*%
%TO.N,/INP12*%
X29274854Y-43467744D03*
%TD*%
D11*
%TO.P,J18,1,Pin_1*%
%TO.N,/LS0*%
X35000000Y-83575000D03*
D12*
%TO.P,J18,2,Pin_2*%
%TO.N,/LS1*%
X36270000Y-83575000D03*
%TO.P,J18,3,Pin_3*%
%TO.N,/LS2*%
X37540000Y-83575000D03*
%TO.P,J18,4,Pin_4*%
%TO.N,/LS3*%
X38810000Y-83575000D03*
%TD*%
D11*
%TO.P,J21,1,Pin_1*%
%TO.N,/VCC*%
X73730000Y-26325000D03*
D12*
%TO.P,J21,2,Pin_2*%
%TO.N,/LEN*%
X75000000Y-26325000D03*
%TD*%
D11*
%TO.P,J19,1,Pin_1*%
%TO.N,/LS4*%
X69920000Y-83575000D03*
D12*
%TO.P,J19,2,Pin_2*%
%TO.N,/LS5*%
X71190000Y-83575000D03*
%TO.P,J19,3,Pin_3*%
%TO.N,/LS6*%
X72460000Y-83575000D03*
%TO.P,J19,4,Pin_4*%
%TO.N,/LS7*%
X73730000Y-83575000D03*
%TO.P,J19,5,Pin_5*%
%TO.N,/LS8*%
X75000000Y-83575000D03*
%TD*%
D11*
%TO.P,J20,1,Pin_1*%
%TO.N,/VIN*%
X35000000Y-26325000D03*
D12*
%TO.P,J20,2,Pin_2*%
%TO.N,/GND*%
X36270000Y-26325000D03*
%TD*%
D19*
%TO.N,/GND*%
X61500000Y-46250000D03*
X61500000Y-48750000D03*
X62750000Y-56250000D03*
X48000000Y-75000000D03*
%TO.N,/INP2*%
X46500000Y-27500000D03*
%TO.N,/INP3*%
X43080180Y-36788731D03*
%TO.N,/INP6*%
X39500000Y-27000000D03*
%TO.N,/INP7*%
X36250000Y-36750000D03*
X73472701Y-29777299D03*
%TO.N,/INP10*%
X48713694Y-50729500D03*
X49000000Y-39225500D03*
X80000000Y-59500000D03*
%TO.N,/INP11*%
X79585619Y-58041075D03*
X49713197Y-50729500D03*
X50000000Y-41025500D03*
%TO.N,/INP12*%
X35500000Y-43250000D03*
X40500000Y-43250000D03*
%TO.N,/INP14*%
X51712203Y-50729500D03*
X79405225Y-55905225D03*
%TO.N,/INP15*%
X50712700Y-50729500D03*
X79248021Y-57087027D03*
%TO.N,/INP17*%
X58500000Y-36500000D03*
%TO.N,/INP18*%
X66750000Y-40250000D03*
X66987701Y-50737701D03*
%TO.N,/INP19*%
X66025500Y-42000000D03*
X65988276Y-50750146D03*
%TO.N,/INP21*%
X46759565Y-41753605D03*
X46250000Y-51224500D03*
X46500000Y-55743870D03*
%TO.N,/INP22*%
X59163286Y-50729500D03*
%TO.N,/INP23*%
X60162789Y-50729500D03*
X59724500Y-40000000D03*
%TO.N,/INP25*%
X72250000Y-37500000D03*
%TO.N,/INP24*%
X72000000Y-39500000D03*
%TO.N,/INP26*%
X79868665Y-60500000D03*
%TO.N,/INP27*%
X79144165Y-61253388D03*
%TO.N,/INP29*%
X73437250Y-41312750D03*
%TO.N,/INP30*%
X70049500Y-34500000D03*
X71000000Y-41750000D03*
X77525500Y-45750000D03*
X78132935Y-62974328D03*
%TO.N,/INP31*%
X77661924Y-43026335D03*
X78685376Y-62141373D03*
%TO.N,/LS0*%
X39750000Y-46000000D03*
%TO.N,/LS6*%
X77669500Y-63859898D03*
%TO.N,/LS8*%
X48000000Y-82750000D03*
%TO.N,/INP32*%
X49721000Y-53529000D03*
%TO.N,/INP33*%
X51041256Y-53529000D03*
%TO.N,/INP34*%
X52000000Y-53811511D03*
%TO.N,/INP35*%
X54500000Y-56000000D03*
%TO.N,/INP36*%
X45500000Y-54049500D03*
%TO.N,/INP37*%
X37224500Y-54318023D03*
%TO.N,/INP38*%
X47226305Y-54049500D03*
%TO.N,/INP39*%
X48474500Y-56025500D03*
%TO.N,/INP41*%
X66250000Y-69500000D03*
%TO.N,/INP42*%
X67081637Y-70224500D03*
%TO.N,/INP44*%
X58500000Y-72250000D03*
%TO.N,/INP45*%
X58750000Y-75750000D03*
%TO.N,/INP46*%
X59250000Y-78250000D03*
%TO.N,/INP47*%
X55000000Y-81000000D03*
%TO.N,Net-(U2-A)*%
X38750000Y-51250000D03*
%TO.N,Net-(U3-A)*%
X44000000Y-50729500D03*
%TO.N,Net-(U4-A)*%
X55000000Y-36250000D03*
X55250000Y-52574500D03*
%TO.N,Net-(U5-A)*%
X73500000Y-35000000D03*
X44209484Y-59893370D03*
%TD*%
D20*
%TO.N,/INP1*%
X33642744Y-27642744D02*
X41820000Y-35820000D01*
X28097331Y-28943494D02*
X28097331Y-28404227D01*
X28858814Y-27642744D02*
X33642744Y-27642744D01*
X41820000Y-35820000D02*
X41820000Y-36180000D01*
X28097331Y-28404227D02*
X28858814Y-27642744D01*
%TO.N,/INP0*%
X40695000Y-35345000D02*
X40695000Y-37595000D01*
X40695000Y-37595000D02*
X41820000Y-38720000D01*
X29274854Y-28467744D02*
X33817744Y-28467744D01*
X33817744Y-28467744D02*
X40695000Y-35345000D01*
%TO.N,/INP2*%
X42945000Y-31055000D02*
X42945000Y-32515000D01*
X46500000Y-27500000D02*
X42945000Y-31055000D01*
X42945000Y-32515000D02*
X41820000Y-33640000D01*
%TO.N,/INP3*%
X43080180Y-39999820D02*
X41820000Y-41260000D01*
X43080180Y-36788731D02*
X43080180Y-39999820D01*
%TO.N,/INP5*%
X32913837Y-41260000D02*
X34200000Y-41260000D01*
X28097331Y-36443494D02*
X32913837Y-41260000D01*
%TO.N,/INP4*%
X34142598Y-31100000D02*
X34200000Y-31100000D01*
X29274854Y-35967744D02*
X34142598Y-31100000D01*
%TO.N,/INP6*%
X41250000Y-25250000D02*
X75266727Y-25250000D01*
X75266727Y-25250000D02*
X81802670Y-31785943D01*
X81802670Y-31785943D02*
X81802670Y-35956506D01*
X39500000Y-27000000D02*
X41250000Y-25250000D01*
%TO.N,/INP7*%
X36250000Y-36750000D02*
X36170000Y-36750000D01*
X76088290Y-29777299D02*
X73472701Y-29777299D01*
X80625147Y-36432256D02*
X80625147Y-34314156D01*
X80625147Y-34314156D02*
X76088290Y-29777299D01*
X36170000Y-36750000D02*
X34200000Y-38720000D01*
%TO.N,/INP10*%
X81800147Y-53123938D02*
X81800147Y-45482229D01*
X80000000Y-59500000D02*
X80000000Y-58651293D01*
X80000000Y-58651293D02*
X81500000Y-57151293D01*
X84250000Y-43032376D02*
X84250000Y-39950000D01*
X48750000Y-50693194D02*
X48750000Y-39475500D01*
X48713694Y-50729500D02*
X48750000Y-50693194D01*
X81500000Y-53424085D02*
X81800147Y-53123938D01*
X81800147Y-45482229D02*
X84250000Y-43032376D01*
X81500000Y-57151293D02*
X81500000Y-53424085D01*
X48750000Y-39475500D02*
X49000000Y-39225500D01*
%TO.N,/INP11*%
X49750497Y-41275003D02*
X50000000Y-41025500D01*
X81075147Y-48272519D02*
X81075147Y-45570833D01*
X81350147Y-48547519D02*
X81075147Y-48272519D01*
X82778565Y-43867415D02*
X82778565Y-43045597D01*
X49713197Y-50729500D02*
X49750497Y-50692200D01*
X81000000Y-56626694D02*
X81000000Y-53287689D01*
X81075147Y-45570833D02*
X82778565Y-43867415D01*
X82500000Y-40430000D02*
X82980000Y-39950000D01*
X81350147Y-52937542D02*
X81350147Y-48547519D01*
X79585619Y-58041075D02*
X81000000Y-56626694D01*
X82778565Y-43045597D02*
X82500000Y-42767032D01*
X49750497Y-50692200D02*
X49750497Y-41275003D01*
X81000000Y-53287689D02*
X81350147Y-52937542D01*
X82500000Y-42767032D02*
X82500000Y-40430000D01*
%TO.N,/INP12*%
X34925000Y-42675000D02*
X35500000Y-43250000D01*
X41995991Y-42675000D02*
X43805180Y-40865811D01*
X29274854Y-43467744D02*
X30067598Y-42675000D01*
X43500000Y-33050000D02*
X45450000Y-31100000D01*
X43805180Y-40865811D02*
X43805180Y-36488426D01*
X30067598Y-42675000D02*
X34925000Y-42675000D01*
X41075000Y-42675000D02*
X41995991Y-42675000D01*
X43805180Y-36488426D02*
X43500000Y-36183246D01*
X43500000Y-36183246D02*
X43500000Y-33050000D01*
X40500000Y-43250000D02*
X41075000Y-42675000D01*
%TO.N,/INP14*%
X51762299Y-50679404D02*
X51762299Y-39952299D01*
X79405225Y-55905225D02*
X79800147Y-55510303D01*
X51762299Y-39952299D02*
X45450000Y-33640000D01*
X79800147Y-55510303D02*
X79800147Y-43590529D01*
X80318256Y-43072420D02*
X81418584Y-43072420D01*
X51712203Y-50729500D02*
X51762299Y-50679404D01*
X81418584Y-43072420D02*
X81802670Y-43456506D01*
X79800147Y-43590529D02*
X80318256Y-43072420D01*
%TO.N,/INP15*%
X80625147Y-53026146D02*
X80625147Y-43932256D01*
X79248021Y-57087027D02*
X80550000Y-55785048D01*
X50712700Y-50729500D02*
X50750000Y-50692200D01*
X80550000Y-55785048D02*
X80550000Y-53101293D01*
X46245305Y-38720000D02*
X45450000Y-38720000D01*
X50750000Y-50692200D02*
X50750000Y-39576396D01*
X80550000Y-53101293D02*
X80625147Y-53026146D01*
X46465305Y-38500000D02*
X46245305Y-38720000D01*
X50750000Y-39576396D02*
X49673604Y-38500000D01*
X49673604Y-38500000D02*
X46465305Y-38500000D01*
%TO.N,/INP17*%
X47643376Y-57250000D02*
X47311746Y-56918370D01*
X47311746Y-56918370D02*
X31695234Y-56918370D01*
X29199854Y-64876017D02*
X28097331Y-65978540D01*
X58500000Y-36500000D02*
X58500000Y-50000000D01*
X28097331Y-65978540D02*
X28097331Y-66443494D01*
X29199854Y-59413750D02*
X29199854Y-64876017D01*
X58500000Y-50000000D02*
X56425000Y-52075000D01*
X56111396Y-57250000D02*
X47643376Y-57250000D01*
X56425000Y-56936396D02*
X56111396Y-57250000D01*
X56425000Y-52075000D02*
X56425000Y-56936396D01*
X31695234Y-56918370D02*
X29199854Y-59413750D01*
%TO.N,/INP16*%
X61135542Y-52862250D02*
X61142555Y-52862250D01*
X63500000Y-44320991D02*
X63445000Y-44265991D01*
X31881630Y-57368370D02*
X47125350Y-57368370D01*
X63500000Y-45819009D02*
X63500000Y-44320991D01*
X56297792Y-57700000D02*
X61135542Y-52862250D01*
X47456980Y-57700000D02*
X56297792Y-57700000D01*
X29649854Y-59600146D02*
X31881630Y-57368370D01*
X63445000Y-45874009D02*
X63500000Y-45819009D01*
X29274854Y-65967744D02*
X29649854Y-65592744D01*
X47125350Y-57368370D02*
X47456980Y-57700000D01*
X63445000Y-50449805D02*
X63445000Y-45874009D01*
X61142555Y-52862250D02*
X63500000Y-50504805D01*
X63500000Y-50504805D02*
X63445000Y-50449805D01*
X63445000Y-39845000D02*
X64570000Y-38720000D01*
X63445000Y-44265991D02*
X63445000Y-39845000D01*
X29649854Y-65592744D02*
X29649854Y-59600146D01*
%TO.N,/INP18*%
X66750000Y-40250000D02*
X66750000Y-50500000D01*
X66750000Y-50500000D02*
X66987701Y-50737701D01*
%TO.N,/INP19*%
X66025500Y-50712922D02*
X65988276Y-50750146D01*
X66025500Y-42000000D02*
X66025500Y-50712922D01*
%TO.N,/INP21*%
X31113604Y-56000000D02*
X28250000Y-58863604D01*
X46500000Y-55743870D02*
X46243870Y-56000000D01*
X46750000Y-41763170D02*
X46759565Y-41753605D01*
X28250000Y-58863604D02*
X28250000Y-63750000D01*
X28250000Y-63750000D02*
X25650000Y-66350000D01*
X46750000Y-50724500D02*
X46750000Y-41763170D01*
X25650000Y-66350000D02*
X25650000Y-69950000D01*
X46250000Y-51224500D02*
X46750000Y-50724500D01*
X46243870Y-56000000D02*
X31113604Y-56000000D01*
%TO.N,/INP20*%
X26920000Y-65830000D02*
X28749854Y-64000146D01*
X28749854Y-64000146D02*
X28749854Y-59000146D01*
X47498142Y-56468370D02*
X47779772Y-56750000D01*
X55975000Y-56750000D02*
X55975000Y-49495991D01*
X55825000Y-49345991D02*
X55825000Y-32225000D01*
X28749854Y-59000146D02*
X31281630Y-56468370D01*
X47779772Y-56750000D02*
X55975000Y-56750000D01*
X55825000Y-32225000D02*
X56950000Y-31100000D01*
X55975000Y-49495991D02*
X55825000Y-49345991D01*
X31281630Y-56468370D02*
X47498142Y-56468370D01*
X26920000Y-69950000D02*
X26920000Y-65830000D01*
%TO.N,/INP22*%
X59225000Y-35915000D02*
X56950000Y-33640000D01*
X59000000Y-50566214D02*
X59000000Y-37025305D01*
X59225000Y-36800305D02*
X59225000Y-35915000D01*
X59163286Y-50729500D02*
X59000000Y-50566214D01*
X59000000Y-37025305D02*
X59225000Y-36800305D01*
%TO.N,/INP23*%
X59500000Y-50040909D02*
X59500000Y-40224500D01*
X59888286Y-50429195D02*
X59500000Y-50040909D01*
X59888286Y-50454997D02*
X59888286Y-50429195D01*
X59500000Y-40224500D02*
X59724500Y-40000000D01*
X60162789Y-50729500D02*
X59888286Y-50454997D01*
%TO.N,/INP25*%
X72250000Y-37500000D02*
X72725000Y-37975000D01*
X47084188Y-58600000D02*
X46752558Y-58268370D01*
X72262250Y-53305322D02*
X66967572Y-58600000D01*
X72725000Y-37975000D02*
X72725000Y-40363299D01*
X30549854Y-73450146D02*
X29672420Y-74327580D01*
X46752558Y-58268370D02*
X32731630Y-58268370D01*
X72262250Y-40826049D02*
X72262250Y-53305322D01*
X30549854Y-60450146D02*
X30549854Y-73450146D01*
X32731630Y-58268370D02*
X30549854Y-60450146D01*
X66967572Y-58600000D02*
X47084188Y-58600000D01*
X72725000Y-40363299D02*
X72262250Y-40826049D01*
X29672420Y-74327580D02*
X28481417Y-74327580D01*
X28481417Y-74327580D02*
X28097331Y-73943494D01*
%TO.N,/INP24*%
X30099854Y-72642744D02*
X29274854Y-73467744D01*
X30099854Y-59900146D02*
X30099854Y-72642744D01*
X72000000Y-39500000D02*
X71812250Y-39687750D01*
X71812250Y-53118926D02*
X66781176Y-58150000D01*
X47270584Y-58150000D02*
X46938954Y-57818370D01*
X46938954Y-57818370D02*
X32181630Y-57818370D01*
X71812250Y-39687750D02*
X71812250Y-53118926D01*
X66781176Y-58150000D02*
X47270584Y-58150000D01*
X32181630Y-57818370D02*
X30099854Y-59900146D01*
%TO.N,/INP26*%
X79150500Y-36970500D02*
X75820000Y-33640000D01*
X79150500Y-46423097D02*
X79150500Y-36970500D01*
X78500000Y-59131335D02*
X78500000Y-47073597D01*
X79868665Y-60500000D02*
X78500000Y-59131335D01*
X78500000Y-47073597D02*
X79150500Y-46423097D01*
%TO.N,/INP27*%
X78000000Y-59879821D02*
X78000000Y-46937201D01*
X78000000Y-46937201D02*
X78700500Y-46236701D01*
X79144165Y-61253388D02*
X78295000Y-60404223D01*
X78700500Y-42700500D02*
X77260000Y-41260000D01*
X78295000Y-60404223D02*
X78295000Y-60174821D01*
X78700500Y-46236701D02*
X78700500Y-42700500D01*
X78295000Y-60174821D02*
X78000000Y-59879821D01*
X77260000Y-41260000D02*
X75820000Y-41260000D01*
%TO.N,/INP29*%
X26475000Y-78275000D02*
X25650000Y-77450000D01*
X46379766Y-59168370D02*
X33218026Y-59168370D01*
X31500000Y-60886396D02*
X31500000Y-75750000D01*
X46711396Y-59500000D02*
X46379766Y-59168370D01*
X73162250Y-53109738D02*
X73162250Y-53678114D01*
X31500000Y-75750000D02*
X28975000Y-78275000D01*
X33218026Y-59168370D02*
X31500000Y-60886396D01*
X28975000Y-78275000D02*
X26475000Y-78275000D01*
X67340364Y-59500000D02*
X46711396Y-59500000D01*
X73437250Y-41312750D02*
X73437250Y-52834738D01*
X73437250Y-52834738D02*
X73162250Y-53109738D01*
X73162250Y-53678114D02*
X67340364Y-59500000D01*
%TO.N,/INP28*%
X31000000Y-60750000D02*
X33031630Y-58718370D01*
X72712250Y-53491718D02*
X72712250Y-41012445D01*
X73175000Y-36075000D02*
X68200000Y-31100000D01*
X46897792Y-59050000D02*
X67153968Y-59050000D01*
X26920000Y-77450000D02*
X27627106Y-77450000D01*
X27627106Y-77450000D02*
X31000000Y-74077106D01*
X33031630Y-58718370D02*
X46566162Y-58718370D01*
X46566162Y-58718370D02*
X46897792Y-59050000D01*
X72712250Y-41012445D02*
X73175000Y-40549695D01*
X67153968Y-59050000D02*
X72712250Y-53491718D01*
X73175000Y-40549695D02*
X73175000Y-36075000D01*
X31000000Y-74077106D02*
X31000000Y-60750000D01*
%TO.N,/INP30*%
X77395000Y-61502208D02*
X77395000Y-60547613D01*
X71000000Y-41750000D02*
X71000000Y-35450500D01*
X71000000Y-35450500D02*
X70049500Y-34500000D01*
X77845000Y-62686393D02*
X77845000Y-61952208D01*
X77845000Y-61952208D02*
X77395000Y-61502208D01*
X78132935Y-62974328D02*
X77845000Y-62686393D01*
X77000000Y-60152613D02*
X77000000Y-46275500D01*
X77395000Y-60547613D02*
X77000000Y-60152613D01*
X77000000Y-46275500D02*
X77525500Y-45750000D01*
%TO.N,/INP31*%
X78250500Y-43614911D02*
X77661924Y-43026335D01*
X77500000Y-46800805D02*
X78250500Y-46050305D01*
X78250500Y-46050305D02*
X78250500Y-43614911D01*
X78685376Y-62141373D02*
X77845000Y-61300997D01*
X77500000Y-60016217D02*
X77500000Y-46800805D01*
X77845000Y-61300997D02*
X77845000Y-60361217D01*
X77845000Y-60361217D02*
X77500000Y-60016217D01*
%TO.N,/LS0*%
X39750000Y-45870000D02*
X41820000Y-43800000D01*
X39750000Y-46000000D02*
X39750000Y-45870000D01*
%TO.N,/LS2*%
X41110000Y-80005000D02*
X37540000Y-83575000D01*
X54300000Y-73800000D02*
X55425000Y-74925000D01*
X55425000Y-74925000D02*
X63445000Y-74925000D01*
X53070000Y-73800000D02*
X51950000Y-73800000D01*
X46575000Y-79175000D02*
X46575000Y-79345991D01*
X51950000Y-73800000D02*
X46575000Y-79175000D01*
X63445000Y-74925000D02*
X64570000Y-73800000D01*
X45915991Y-80005000D02*
X41110000Y-80005000D01*
X53070000Y-73800000D02*
X54300000Y-73800000D01*
X46575000Y-79345991D02*
X45915991Y-80005000D01*
%TO.N,/LS3*%
X54340000Y-76340000D02*
X55465000Y-77465000D01*
X63445000Y-77465000D02*
X64570000Y-76340000D01*
X44650000Y-83600000D02*
X51910000Y-76340000D01*
X51910000Y-76340000D02*
X53070000Y-76340000D01*
X44650000Y-83600000D02*
X44625000Y-83575000D01*
X53070000Y-76340000D02*
X54340000Y-76340000D01*
X55465000Y-77465000D02*
X63445000Y-77465000D01*
X44625000Y-83575000D02*
X38810000Y-83575000D01*
%TO.N,/LS4*%
X63445000Y-80005000D02*
X54195000Y-80005000D01*
X64570000Y-78880000D02*
X63445000Y-80005000D01*
X54195000Y-80005000D02*
X53070000Y-78880000D01*
%TO.N,/LS6*%
X75820000Y-53308300D02*
X75820000Y-48880000D01*
X76945000Y-61688604D02*
X76945000Y-60734009D01*
X77395000Y-62138604D02*
X76945000Y-61688604D01*
X77669500Y-63859898D02*
X77395000Y-63585398D01*
X77395000Y-63585398D02*
X77395000Y-62138604D01*
X76500000Y-60289009D02*
X76500000Y-53988300D01*
X76945000Y-60734009D02*
X76500000Y-60289009D01*
X76500000Y-53988300D02*
X75820000Y-53308300D01*
%TO.N,/LS8*%
X48000000Y-82750000D02*
X74175000Y-82750000D01*
X74175000Y-82750000D02*
X75000000Y-83575000D01*
%TO.N,/VCC*%
X42945000Y-62225000D02*
X51945000Y-62225000D01*
X75820000Y-31100000D02*
X76750000Y-32030000D01*
X75839009Y-32030000D02*
X74695000Y-33174009D01*
X53070000Y-61100000D02*
X54195000Y-62225000D01*
X74500000Y-61470991D02*
X75354009Y-62325000D01*
X74695000Y-33174009D02*
X74695000Y-53192488D01*
X41820000Y-61100000D02*
X42945000Y-62225000D01*
X74500000Y-53387488D02*
X74500000Y-61470991D01*
X76750000Y-32030000D02*
X75839009Y-32030000D01*
X75354009Y-62325000D02*
X75354009Y-62354009D01*
X74695000Y-53192488D02*
X74500000Y-53387488D01*
X41820000Y-61100000D02*
X39280000Y-61100000D01*
X63445000Y-62225000D02*
X64570000Y-61100000D01*
X69350000Y-26320000D02*
X64570000Y-31100000D01*
X69350000Y-26300000D02*
X69375000Y-26325000D01*
X64670000Y-61200000D02*
X64570000Y-61100000D01*
X75354009Y-62354009D02*
X75820000Y-62820000D01*
X70740000Y-63740000D02*
X68200000Y-61200000D01*
X75820000Y-63740000D02*
X70740000Y-63740000D01*
X51945000Y-62225000D02*
X53070000Y-61100000D01*
X69350000Y-26300000D02*
X69350000Y-26320000D01*
X69375000Y-26325000D02*
X73730000Y-26325000D01*
X75820000Y-62820000D02*
X75820000Y-63740000D01*
X39280000Y-61100000D02*
X34200000Y-66180000D01*
X54195000Y-62225000D02*
X63445000Y-62225000D01*
%TO.N,/LEN*%
X55825000Y-72675000D02*
X46575000Y-72675000D01*
X69325000Y-42675000D02*
X68200000Y-43800000D01*
X56950000Y-73800000D02*
X55825000Y-72675000D01*
X44325000Y-72675000D02*
X35325000Y-72675000D01*
X75000000Y-26857106D02*
X75000000Y-26325000D01*
X35325000Y-72675000D02*
X34200000Y-73800000D01*
X71882106Y-29975000D02*
X67075000Y-29975000D01*
X67000000Y-32000000D02*
X67515000Y-32515000D01*
X75000000Y-26857106D02*
X71882106Y-29975000D01*
X67075000Y-29975000D02*
X67000000Y-30050000D01*
X69325000Y-33174009D02*
X69325000Y-42675000D01*
X67000000Y-30050000D02*
X67000000Y-32000000D01*
X46575000Y-72675000D02*
X45450000Y-73800000D01*
X68665991Y-32515000D02*
X69325000Y-33174009D01*
X67515000Y-32515000D02*
X68665991Y-32515000D01*
X45450000Y-73800000D02*
X44325000Y-72675000D01*
%TO.N,/INP32*%
X49446000Y-53309604D02*
X48111396Y-51975000D01*
X48111396Y-51975000D02*
X38449695Y-51975000D01*
X27500000Y-46250000D02*
X25750000Y-46250000D01*
X38449695Y-51975000D02*
X37724695Y-51250000D01*
X49446000Y-53529000D02*
X49446000Y-53309604D01*
X32500000Y-51250000D02*
X27500000Y-46250000D01*
X49721000Y-53529000D02*
X49446000Y-53529000D01*
X37724695Y-51250000D02*
X32500000Y-51250000D01*
%TO.N,/INP33*%
X50021305Y-54254000D02*
X49420695Y-54254000D01*
X49420695Y-54254000D02*
X48996000Y-53829305D01*
X47925000Y-52425000D02*
X38263299Y-52425000D01*
X50746305Y-53529000D02*
X50021305Y-54254000D01*
X48996000Y-53496000D02*
X47925000Y-52425000D01*
X28700000Y-51700000D02*
X25750000Y-48750000D01*
X48996000Y-53829305D02*
X48996000Y-53496000D01*
X37538299Y-51700000D02*
X28700000Y-51700000D01*
X51041256Y-53529000D02*
X50746305Y-53529000D01*
X38263299Y-52425000D02*
X37538299Y-51700000D01*
%TO.N,/INP34*%
X37451903Y-52250000D02*
X26750000Y-52250000D01*
X52000000Y-53811511D02*
X51107511Y-54704000D01*
X49234299Y-54704000D02*
X48546000Y-54015701D01*
X26750000Y-52250000D02*
X25750000Y-51250000D01*
X38076903Y-52875000D02*
X37451903Y-52250000D01*
X48546000Y-53682396D02*
X47738604Y-52875000D01*
X47738604Y-52875000D02*
X38076903Y-52875000D01*
X48546000Y-54015701D02*
X48546000Y-53682396D01*
X51107511Y-54704000D02*
X49234299Y-54704000D01*
%TO.N,/INP35*%
X27663604Y-52700000D02*
X27113604Y-53250000D01*
X37890507Y-53325000D02*
X37265507Y-52700000D01*
X26250000Y-53250000D02*
X25750000Y-53750000D01*
X48096000Y-54202097D02*
X48096000Y-53868792D01*
X54500000Y-56000000D02*
X53750000Y-55250000D01*
X37265507Y-52700000D02*
X27663604Y-52700000D01*
X53750000Y-55250000D02*
X49143903Y-55250000D01*
X49143903Y-55250000D02*
X48096000Y-54202097D01*
X27113604Y-53250000D02*
X26250000Y-53250000D01*
X48096000Y-53868792D02*
X47552208Y-53325000D01*
X47552208Y-53325000D02*
X37890507Y-53325000D01*
%TO.N,/INP36*%
X37079111Y-53150000D02*
X28850000Y-53150000D01*
X37704111Y-53775000D02*
X37079111Y-53150000D01*
X28850000Y-53150000D02*
X25750000Y-56250000D01*
X45225500Y-53775000D02*
X37704111Y-53775000D01*
X45500000Y-54049500D02*
X45225500Y-53775000D01*
%TO.N,/INP37*%
X37042523Y-54500000D02*
X30000000Y-54500000D01*
X30000000Y-54500000D02*
X25750000Y-58750000D01*
X37224500Y-54318023D02*
X37042523Y-54500000D01*
%TO.N,/INP38*%
X25750000Y-59916727D02*
X25750000Y-61250000D01*
X46225000Y-54357169D02*
X45532169Y-55050000D01*
X46225000Y-54250000D02*
X46225000Y-54357169D01*
X30616727Y-55050000D02*
X25750000Y-59916727D01*
X47226305Y-54049500D02*
X46425500Y-54049500D01*
X46425500Y-54049500D02*
X46225000Y-54250000D01*
X45532169Y-55050000D02*
X30616727Y-55050000D01*
%TO.N,/INP39*%
X26575000Y-59902208D02*
X30977208Y-55500000D01*
X45718565Y-55500000D02*
X46218565Y-55000000D01*
X47449000Y-55000000D02*
X48474500Y-56025500D01*
X26575000Y-62925000D02*
X26575000Y-59902208D01*
X46218565Y-55000000D02*
X47449000Y-55000000D01*
X30977208Y-55500000D02*
X45718565Y-55500000D01*
X25750000Y-63750000D02*
X26575000Y-62925000D01*
%TO.N,/INP40*%
X79351440Y-63357256D02*
X77395000Y-65313696D01*
X77395000Y-66295991D02*
X74970991Y-68720000D01*
X82250147Y-53310334D02*
X82075000Y-53485481D01*
X80725000Y-62093020D02*
X79460764Y-63357256D01*
X80725000Y-58562689D02*
X80725000Y-62093020D01*
X77395000Y-65313696D02*
X77395000Y-66295991D01*
X82250147Y-48249853D02*
X82250147Y-53310334D01*
X84250000Y-46250000D02*
X82250147Y-48249853D01*
X82075000Y-57212689D02*
X80725000Y-58562689D01*
X82075000Y-53485481D02*
X82075000Y-57212689D01*
X74970991Y-68720000D02*
X64570000Y-68720000D01*
X79460764Y-63357256D02*
X79351440Y-63357256D01*
%TO.N,/INP41*%
X77845000Y-66655000D02*
X75000000Y-69500000D01*
X84250000Y-48750000D02*
X84250000Y-50425000D01*
X81175000Y-62279416D02*
X79647160Y-63807256D01*
X77845000Y-65500092D02*
X77845000Y-66655000D01*
X82525000Y-57399085D02*
X81175000Y-58749085D01*
X83425000Y-50908273D02*
X83425000Y-52771877D01*
X82525000Y-53671877D02*
X82525000Y-57399085D01*
X84250000Y-50425000D02*
X83908273Y-50425000D01*
X79647160Y-63807256D02*
X79537836Y-63807256D01*
X75000000Y-69500000D02*
X66250000Y-69500000D01*
X79537836Y-63807256D02*
X77845000Y-65500092D01*
X83908273Y-50425000D02*
X83425000Y-50908273D01*
X81175000Y-58749085D02*
X81175000Y-62279416D01*
X83425000Y-52771877D02*
X82525000Y-53671877D01*
%TO.N,/INP42*%
X82975000Y-57585481D02*
X81625000Y-58935481D01*
X82975000Y-53858273D02*
X82975000Y-57585481D01*
X78295000Y-65686488D02*
X78295000Y-66841396D01*
X79724232Y-64257256D02*
X78295000Y-65686488D01*
X83908273Y-52925000D02*
X82975000Y-53858273D01*
X79833556Y-64257256D02*
X79724232Y-64257256D01*
X84250000Y-51250000D02*
X84250000Y-52925000D01*
X74911896Y-70224500D02*
X67081637Y-70224500D01*
X84250000Y-52925000D02*
X83908273Y-52925000D01*
X78295000Y-66841396D02*
X74911896Y-70224500D01*
X81625000Y-62465812D02*
X79833556Y-64257256D01*
X81625000Y-58935481D02*
X81625000Y-62465812D01*
%TO.N,/INP43*%
X82075000Y-62652208D02*
X80019952Y-64707256D01*
X74512792Y-71260000D02*
X64570000Y-71260000D01*
X83425000Y-57771877D02*
X82075000Y-59121877D01*
X78745000Y-67027792D02*
X74512792Y-71260000D01*
X82075000Y-59121877D02*
X82075000Y-62652208D01*
X79910628Y-64707256D02*
X78745000Y-65872884D01*
X80019952Y-64707256D02*
X79910628Y-64707256D01*
X84250000Y-53750000D02*
X84250000Y-55425000D01*
X83908273Y-55425000D02*
X83425000Y-55908273D01*
X83425000Y-55908273D02*
X83425000Y-57771877D01*
X84250000Y-55425000D02*
X83908273Y-55425000D01*
X78745000Y-65872884D02*
X78745000Y-67027792D01*
%TO.N,/INP44*%
X79195000Y-66059280D02*
X79195000Y-67214188D01*
X80206348Y-65157256D02*
X80097024Y-65157256D01*
X80097024Y-65157256D02*
X79195000Y-66059280D01*
X82525000Y-59308273D02*
X82525000Y-62838604D01*
X84250000Y-57925000D02*
X83908273Y-57925000D01*
X79195000Y-67214188D02*
X74024188Y-72385000D01*
X83908273Y-57925000D02*
X82525000Y-59308273D01*
X84250000Y-56250000D02*
X84250000Y-57925000D01*
X74024188Y-72385000D02*
X58635000Y-72385000D01*
X82525000Y-62838604D02*
X80206348Y-65157256D01*
X58635000Y-72385000D02*
X58500000Y-72250000D01*
%TO.N,/INP45*%
X79645000Y-67400584D02*
X71917386Y-75128198D01*
X79645000Y-66245676D02*
X79645000Y-67400584D01*
X63256396Y-75750000D02*
X58750000Y-75750000D01*
X84250000Y-58750000D02*
X84250000Y-60425000D01*
X83908273Y-60425000D02*
X82975000Y-61358273D01*
X71917386Y-75128198D02*
X63878198Y-75128198D01*
X63878198Y-75128198D02*
X63256396Y-75750000D01*
X80392744Y-65607256D02*
X80283420Y-65607256D01*
X84250000Y-60425000D02*
X83908273Y-60425000D01*
X80283420Y-65607256D02*
X79645000Y-66245676D01*
X82975000Y-63025000D02*
X80392744Y-65607256D01*
X82975000Y-61358273D02*
X82975000Y-63025000D01*
%TO.N,/INP46*%
X83425000Y-65825000D02*
X71750000Y-77500000D01*
X64046396Y-77500000D02*
X63296396Y-78250000D01*
X63296396Y-78250000D02*
X59250000Y-78250000D01*
X83425000Y-62075000D02*
X83425000Y-65825000D01*
X84250000Y-61250000D02*
X83425000Y-62075000D01*
X71750000Y-77500000D02*
X64046396Y-77500000D01*
%TO.N,/INP47*%
X84250000Y-63750000D02*
X84250000Y-67513273D01*
X84250000Y-67513273D02*
X70763273Y-81000000D01*
X70763273Y-81000000D02*
X55000000Y-81000000D01*
%TO.N,Net-(U2-A)*%
X35905306Y-35380001D02*
X34999999Y-35380001D01*
X34999999Y-35380001D02*
X34200000Y-36180000D01*
X38250000Y-37724695D02*
X35905306Y-35380001D01*
X38250000Y-50750000D02*
X38250000Y-37724695D01*
X38750000Y-51250000D02*
X38250000Y-50750000D01*
%TO.N,Net-(U3-A)*%
X44000000Y-50729500D02*
X44255180Y-50474320D01*
X44255180Y-37374820D02*
X45450000Y-36180000D01*
X44255180Y-50474320D02*
X44255180Y-37374820D01*
%TO.N,Net-(U4-A)*%
X55250000Y-52574500D02*
X55250000Y-36500000D01*
X55250000Y-36500000D02*
X55000000Y-36250000D01*
%TO.N,Net-(U7-A)*%
X76150991Y-65000000D02*
X46630000Y-65000000D01*
X76945000Y-62325000D02*
X76945000Y-64205991D01*
X75820000Y-61200000D02*
X76945000Y-62325000D01*
X46630000Y-65000000D02*
X45450000Y-66180000D01*
X76945000Y-64205991D02*
X76150991Y-65000000D01*
%TO.N,Net-(U5-A)*%
X73612250Y-53864510D02*
X73612250Y-53638842D01*
X52604009Y-59975000D02*
X67525000Y-59975000D01*
X68000000Y-59476760D02*
X73612250Y-53864510D01*
X68000000Y-59500000D02*
X68000000Y-59476760D01*
X73612250Y-53638842D02*
X74245000Y-53006092D01*
X74245000Y-53006092D02*
X74245000Y-35745000D01*
X44209484Y-59893370D02*
X46468370Y-59893370D01*
X74245000Y-35745000D02*
X73500000Y-35000000D01*
X46575000Y-60000000D02*
X52579009Y-60000000D01*
X67525000Y-59975000D02*
X68000000Y-59500000D01*
X52579009Y-60000000D02*
X52604009Y-59975000D01*
X46468370Y-59893370D02*
X46575000Y-60000000D01*
%TO.N,Net-(U8-A)*%
X75820000Y-66280000D02*
X74505000Y-67595000D01*
X58365000Y-67595000D02*
X56950000Y-66180000D01*
X74505000Y-67595000D02*
X58365000Y-67595000D01*
%TD*%
%TA.AperFunction,Conductor*%
%TO.N,/GND*%
G36*
X43597859Y-59508512D02*
G01*
X43642508Y-59548979D01*
X43662809Y-59605715D01*
X43653967Y-59665322D01*
X43624440Y-59736607D01*
X43603801Y-59893370D01*
X43624440Y-60050132D01*
X43684947Y-60196210D01*
X43781201Y-60321652D01*
X43852207Y-60376136D01*
X43906643Y-60417906D01*
X44052722Y-60478414D01*
X44188845Y-60496334D01*
X44209483Y-60499052D01*
X44209483Y-60499051D01*
X44209484Y-60499052D01*
X44309315Y-60485909D01*
X44377905Y-60496466D01*
X44430081Y-60542223D01*
X44449500Y-60608848D01*
X44449500Y-61775500D01*
X44432887Y-61837500D01*
X44387500Y-61882887D01*
X44325500Y-61899500D01*
X43131189Y-61899500D01*
X43083736Y-61890061D01*
X43043508Y-61863181D01*
X42781873Y-61601547D01*
X42749270Y-61543995D01*
X42750894Y-61477870D01*
X42755763Y-61461819D01*
X42806024Y-61296132D01*
X42825341Y-61100000D01*
X42806024Y-60903868D01*
X42748814Y-60715273D01*
X42655910Y-60541462D01*
X42530883Y-60389117D01*
X42378538Y-60264090D01*
X42299361Y-60221769D01*
X42204726Y-60171185D01*
X42016133Y-60113976D01*
X41820000Y-60094659D01*
X41623866Y-60113976D01*
X41435273Y-60171185D01*
X41261463Y-60264089D01*
X41109117Y-60389117D01*
X40984090Y-60541461D01*
X40894563Y-60708954D01*
X40848954Y-60756858D01*
X40785205Y-60774500D01*
X39299628Y-60774500D01*
X39288820Y-60774028D01*
X39251192Y-60770735D01*
X39214704Y-60780512D01*
X39204148Y-60782852D01*
X39165899Y-60789597D01*
X39141193Y-60799831D01*
X39109380Y-60822106D01*
X39100264Y-60827914D01*
X39067545Y-60846805D01*
X39043262Y-60875744D01*
X39035956Y-60883716D01*
X34701546Y-65218126D01*
X34643994Y-65250729D01*
X34577870Y-65249106D01*
X34396130Y-65193975D01*
X34200000Y-65174659D01*
X34003866Y-65193976D01*
X33815273Y-65251185D01*
X33641463Y-65344089D01*
X33489117Y-65469117D01*
X33364089Y-65621463D01*
X33271185Y-65795273D01*
X33213976Y-65983866D01*
X33194659Y-66180000D01*
X33213976Y-66376133D01*
X33271185Y-66564726D01*
X33324637Y-66664727D01*
X33364090Y-66738538D01*
X33489117Y-66890883D01*
X33641462Y-67015910D01*
X33815273Y-67108814D01*
X34003868Y-67166024D01*
X34200000Y-67185341D01*
X34396132Y-67166024D01*
X34584727Y-67108814D01*
X34758538Y-67015910D01*
X34910883Y-66890883D01*
X35035910Y-66738538D01*
X35128814Y-66564727D01*
X35186024Y-66376132D01*
X35205341Y-66180000D01*
X40814659Y-66180000D01*
X40833976Y-66376133D01*
X40891185Y-66564726D01*
X40944637Y-66664727D01*
X40984090Y-66738538D01*
X41109117Y-66890883D01*
X41261462Y-67015910D01*
X41435273Y-67108814D01*
X41623868Y-67166024D01*
X41820000Y-67185341D01*
X42016132Y-67166024D01*
X42204727Y-67108814D01*
X42378538Y-67015910D01*
X42530883Y-66890883D01*
X42655910Y-66738538D01*
X42748814Y-66564727D01*
X42806024Y-66376132D01*
X42825341Y-66180000D01*
X42806024Y-65983868D01*
X42748814Y-65795273D01*
X42655910Y-65621462D01*
X42530883Y-65469117D01*
X42378538Y-65344090D01*
X42267779Y-65284888D01*
X42204726Y-65251185D01*
X42016133Y-65193976D01*
X41820000Y-65174659D01*
X41623866Y-65193976D01*
X41435273Y-65251185D01*
X41261463Y-65344089D01*
X41109117Y-65469117D01*
X40984089Y-65621463D01*
X40891185Y-65795273D01*
X40833976Y-65983866D01*
X40814659Y-66180000D01*
X35205341Y-66180000D01*
X35186024Y-65983868D01*
X35130892Y-65802126D01*
X35129270Y-65736004D01*
X35161873Y-65678452D01*
X37200327Y-63639999D01*
X40814659Y-63639999D01*
X40833976Y-63836133D01*
X40891185Y-64024726D01*
X40922409Y-64083142D01*
X40984090Y-64198538D01*
X41109117Y-64350883D01*
X41261462Y-64475910D01*
X41435273Y-64568814D01*
X41623868Y-64626024D01*
X41820000Y-64645341D01*
X42016132Y-64626024D01*
X42204727Y-64568814D01*
X42378538Y-64475910D01*
X42530883Y-64350883D01*
X42655910Y-64198538D01*
X42748814Y-64024727D01*
X42806024Y-63836132D01*
X42825341Y-63640000D01*
X42806024Y-63443868D01*
X42748814Y-63255273D01*
X42655910Y-63081462D01*
X42530883Y-62929117D01*
X42378538Y-62804090D01*
X42305842Y-62765233D01*
X42204726Y-62711185D01*
X42016133Y-62653976D01*
X41820000Y-62634659D01*
X41623866Y-62653976D01*
X41435273Y-62711185D01*
X41261463Y-62804089D01*
X41109117Y-62929117D01*
X40984089Y-63081463D01*
X40891185Y-63255273D01*
X40833976Y-63443866D01*
X40814659Y-63639999D01*
X37200327Y-63639999D01*
X37259198Y-63581128D01*
X39378506Y-61461819D01*
X39418735Y-61434939D01*
X39466188Y-61425500D01*
X40785205Y-61425500D01*
X40848954Y-61443142D01*
X40894563Y-61491046D01*
X40958036Y-61609794D01*
X40984090Y-61658538D01*
X41109117Y-61810883D01*
X41261462Y-61935910D01*
X41435273Y-62028814D01*
X41623868Y-62086024D01*
X41820000Y-62105341D01*
X42016132Y-62086024D01*
X42197870Y-62030893D01*
X42263995Y-62029270D01*
X42321546Y-62061872D01*
X42520861Y-62261188D01*
X42700955Y-62441282D01*
X42708262Y-62449255D01*
X42732545Y-62478194D01*
X42765266Y-62497085D01*
X42774360Y-62502878D01*
X42805316Y-62524554D01*
X42805317Y-62524554D01*
X42806201Y-62525173D01*
X42830891Y-62535400D01*
X42831954Y-62535587D01*
X42831955Y-62535588D01*
X42869146Y-62542145D01*
X42879704Y-62544486D01*
X42916191Y-62554263D01*
X42916192Y-62554262D01*
X42916193Y-62554263D01*
X42953811Y-62550971D01*
X42964618Y-62550500D01*
X44870860Y-62550500D01*
X44933562Y-62567521D01*
X44979050Y-62613911D01*
X44994836Y-62676935D01*
X44976587Y-62739290D01*
X44929313Y-62783858D01*
X44891463Y-62804089D01*
X44739117Y-62929117D01*
X44614089Y-63081463D01*
X44521185Y-63255273D01*
X44463976Y-63443866D01*
X44444659Y-63639999D01*
X44463976Y-63836133D01*
X44521185Y-64024726D01*
X44552409Y-64083142D01*
X44614090Y-64198538D01*
X44739117Y-64350883D01*
X44891462Y-64475910D01*
X45065273Y-64568814D01*
X45253868Y-64626024D01*
X45450000Y-64645341D01*
X45646132Y-64626024D01*
X45834727Y-64568814D01*
X46008538Y-64475910D01*
X46160883Y-64350883D01*
X46285910Y-64198538D01*
X46378814Y-64024727D01*
X46436024Y-63836132D01*
X46455341Y-63640000D01*
X46436024Y-63443868D01*
X46378814Y-63255273D01*
X46285910Y-63081462D01*
X46160883Y-62929117D01*
X46008538Y-62804090D01*
X45990183Y-62794279D01*
X45970687Y-62783858D01*
X45923413Y-62739290D01*
X45905164Y-62676935D01*
X45920950Y-62613911D01*
X45966438Y-62567521D01*
X46029140Y-62550500D01*
X51925373Y-62550500D01*
X51936180Y-62550971D01*
X51973807Y-62554264D01*
X52010324Y-62544478D01*
X52020830Y-62542149D01*
X52058045Y-62535588D01*
X52058047Y-62535586D01*
X52059112Y-62535399D01*
X52083799Y-62525173D01*
X52084682Y-62524554D01*
X52084684Y-62524554D01*
X52115625Y-62502887D01*
X52124722Y-62497091D01*
X52157455Y-62478194D01*
X52181748Y-62449241D01*
X52189036Y-62441288D01*
X52568453Y-62061871D01*
X52626003Y-62029270D01*
X52692126Y-62030892D01*
X52873868Y-62086024D01*
X53070000Y-62105341D01*
X53266132Y-62086024D01*
X53447870Y-62030893D01*
X53513995Y-62029270D01*
X53571546Y-62061872D01*
X53770861Y-62261188D01*
X53950955Y-62441282D01*
X53958262Y-62449255D01*
X53982545Y-62478194D01*
X54015266Y-62497085D01*
X54024360Y-62502878D01*
X54055316Y-62524554D01*
X54055317Y-62524554D01*
X54056201Y-62525173D01*
X54080891Y-62535400D01*
X54081954Y-62535587D01*
X54081955Y-62535588D01*
X54119146Y-62542145D01*
X54129704Y-62544486D01*
X54166191Y-62554263D01*
X54166192Y-62554262D01*
X54166193Y-62554263D01*
X54203811Y-62550971D01*
X54214618Y-62550500D01*
X56370860Y-62550500D01*
X56433562Y-62567521D01*
X56479050Y-62613911D01*
X56494836Y-62676935D01*
X56476587Y-62739290D01*
X56429313Y-62783858D01*
X56391463Y-62804089D01*
X56239117Y-62929117D01*
X56114089Y-63081463D01*
X56021185Y-63255273D01*
X55963976Y-63443866D01*
X55944659Y-63639999D01*
X55963976Y-63836133D01*
X56021185Y-64024726D01*
X56052409Y-64083142D01*
X56114090Y-64198538D01*
X56239117Y-64350883D01*
X56351020Y-64442720D01*
X56365553Y-64454647D01*
X56401449Y-64503048D01*
X56410291Y-64562655D01*
X56389990Y-64619391D01*
X56345341Y-64659858D01*
X56286888Y-64674500D01*
X53733112Y-64674500D01*
X53674659Y-64659858D01*
X53630010Y-64619391D01*
X53609709Y-64562655D01*
X53618551Y-64503048D01*
X53654447Y-64454647D01*
X53664741Y-64446199D01*
X53780883Y-64350883D01*
X53905910Y-64198538D01*
X53998814Y-64024727D01*
X54056024Y-63836132D01*
X54075341Y-63640000D01*
X54056024Y-63443868D01*
X53998814Y-63255273D01*
X53905910Y-63081462D01*
X53780883Y-62929117D01*
X53628538Y-62804090D01*
X53555842Y-62765233D01*
X53454726Y-62711185D01*
X53266133Y-62653976D01*
X53070000Y-62634659D01*
X52873866Y-62653976D01*
X52685273Y-62711185D01*
X52511463Y-62804089D01*
X52359117Y-62929117D01*
X52234089Y-63081463D01*
X52141185Y-63255273D01*
X52083976Y-63443866D01*
X52064659Y-63639999D01*
X52083976Y-63836133D01*
X52141185Y-64024726D01*
X52172409Y-64083142D01*
X52234090Y-64198538D01*
X52359117Y-64350883D01*
X52471020Y-64442720D01*
X52485553Y-64454647D01*
X52521449Y-64503048D01*
X52530291Y-64562655D01*
X52509990Y-64619391D01*
X52465341Y-64659858D01*
X52406888Y-64674500D01*
X46649628Y-64674500D01*
X46638820Y-64674028D01*
X46601192Y-64670735D01*
X46564704Y-64680512D01*
X46554148Y-64682852D01*
X46515899Y-64689597D01*
X46491193Y-64699831D01*
X46459380Y-64722106D01*
X46450264Y-64727914D01*
X46417545Y-64746805D01*
X46393262Y-64775744D01*
X46385956Y-64783716D01*
X45951546Y-65218126D01*
X45893994Y-65250729D01*
X45827870Y-65249106D01*
X45646130Y-65193975D01*
X45450000Y-65174659D01*
X45253866Y-65193976D01*
X45065273Y-65251185D01*
X44891463Y-65344089D01*
X44739117Y-65469117D01*
X44614089Y-65621463D01*
X44521185Y-65795273D01*
X44463976Y-65983866D01*
X44444659Y-66180000D01*
X44463976Y-66376133D01*
X44521185Y-66564726D01*
X44574637Y-66664727D01*
X44614090Y-66738538D01*
X44739117Y-66890883D01*
X44891462Y-67015910D01*
X45065273Y-67108814D01*
X45253868Y-67166024D01*
X45450000Y-67185341D01*
X45646132Y-67166024D01*
X45834727Y-67108814D01*
X46008538Y-67015910D01*
X46160883Y-66890883D01*
X46285910Y-66738538D01*
X46378814Y-66564727D01*
X46436024Y-66376132D01*
X46455341Y-66180000D01*
X46436024Y-65983868D01*
X46380892Y-65802126D01*
X46379270Y-65736004D01*
X46411873Y-65678452D01*
X46562161Y-65528165D01*
X46728506Y-65361819D01*
X46768735Y-65334939D01*
X46816188Y-65325500D01*
X52214805Y-65325500D01*
X52281145Y-65344738D01*
X52326900Y-65396484D01*
X52337872Y-65464680D01*
X52310658Y-65528163D01*
X52277049Y-65569117D01*
X52234089Y-65621463D01*
X52141185Y-65795273D01*
X52083976Y-65983866D01*
X52064659Y-66180000D01*
X52083976Y-66376133D01*
X52141185Y-66564726D01*
X52194637Y-66664727D01*
X52234090Y-66738538D01*
X52359117Y-66890883D01*
X52511462Y-67015910D01*
X52685273Y-67108814D01*
X52873868Y-67166024D01*
X53070000Y-67185341D01*
X53266132Y-67166024D01*
X53454727Y-67108814D01*
X53628538Y-67015910D01*
X53780883Y-66890883D01*
X53905910Y-66738538D01*
X53998814Y-66564727D01*
X54056024Y-66376132D01*
X54075341Y-66180000D01*
X54056024Y-65983868D01*
X53998814Y-65795273D01*
X53905910Y-65621462D01*
X53829341Y-65528163D01*
X53802128Y-65464680D01*
X53813100Y-65396484D01*
X53858855Y-65344738D01*
X53925195Y-65325500D01*
X56094805Y-65325500D01*
X56161145Y-65344738D01*
X56206900Y-65396484D01*
X56217872Y-65464680D01*
X56190658Y-65528163D01*
X56157049Y-65569117D01*
X56114089Y-65621463D01*
X56021185Y-65795273D01*
X55963976Y-65983866D01*
X55944659Y-66180000D01*
X55963976Y-66376133D01*
X56021185Y-66564726D01*
X56074637Y-66664727D01*
X56114090Y-66738538D01*
X56239117Y-66890883D01*
X56391462Y-67015910D01*
X56565273Y-67108814D01*
X56753868Y-67166024D01*
X56950000Y-67185341D01*
X57146132Y-67166024D01*
X57327870Y-67110893D01*
X57393995Y-67109270D01*
X57451546Y-67141872D01*
X57791637Y-67481964D01*
X58120955Y-67811282D01*
X58128262Y-67819255D01*
X58152545Y-67848194D01*
X58185266Y-67867085D01*
X58194360Y-67872878D01*
X58225316Y-67894554D01*
X58225317Y-67894554D01*
X58226201Y-67895173D01*
X58250891Y-67905400D01*
X58251954Y-67905587D01*
X58251955Y-67905588D01*
X58289146Y-67912145D01*
X58299704Y-67914486D01*
X58336191Y-67924263D01*
X58336192Y-67924262D01*
X58336193Y-67924263D01*
X58373811Y-67920971D01*
X58384618Y-67920500D01*
X63669667Y-67920500D01*
X63736007Y-67939738D01*
X63781762Y-67991483D01*
X63792734Y-68059679D01*
X63765520Y-68123165D01*
X63734089Y-68161463D01*
X63641185Y-68335273D01*
X63583976Y-68523866D01*
X63564659Y-68720000D01*
X63583976Y-68916133D01*
X63641185Y-69104726D01*
X63641186Y-69104727D01*
X63734090Y-69278538D01*
X63859117Y-69430883D01*
X64011462Y-69555910D01*
X64185273Y-69648814D01*
X64373868Y-69706024D01*
X64570000Y-69725341D01*
X64766132Y-69706024D01*
X64954727Y-69648814D01*
X65128538Y-69555910D01*
X65280883Y-69430883D01*
X65405910Y-69278538D01*
X65486147Y-69128424D01*
X65528311Y-69082661D01*
X65587396Y-69063143D01*
X65648523Y-69074782D01*
X65696299Y-69114649D01*
X65718693Y-69172705D01*
X65710067Y-69234329D01*
X65664956Y-69343237D01*
X65644317Y-69500000D01*
X65664956Y-69656762D01*
X65725463Y-69802840D01*
X65821717Y-69928282D01*
X65947158Y-70024535D01*
X65947159Y-70024536D01*
X66093238Y-70085044D01*
X66229361Y-70102964D01*
X66249999Y-70105682D01*
X66249999Y-70105681D01*
X66250000Y-70105682D01*
X66335641Y-70094407D01*
X66391681Y-70099925D01*
X66439502Y-70129660D01*
X66469242Y-70177477D01*
X66472302Y-70208515D01*
X66473824Y-70208315D01*
X66496593Y-70381262D01*
X66557100Y-70527340D01*
X66653354Y-70652782D01*
X66730691Y-70712124D01*
X66768485Y-70760064D01*
X66778823Y-70820229D01*
X66759200Y-70878035D01*
X66714373Y-70919473D01*
X66655205Y-70934500D01*
X65604795Y-70934500D01*
X65541046Y-70916858D01*
X65495437Y-70868954D01*
X65411810Y-70712500D01*
X65405910Y-70701462D01*
X65280883Y-70549117D01*
X65128538Y-70424090D01*
X65048413Y-70381262D01*
X64954726Y-70331185D01*
X64766133Y-70273976D01*
X64570000Y-70254659D01*
X64373866Y-70273976D01*
X64185273Y-70331185D01*
X64011463Y-70424089D01*
X63859117Y-70549117D01*
X63734089Y-70701463D01*
X63641185Y-70875273D01*
X63583976Y-71063866D01*
X63564659Y-71260000D01*
X63583976Y-71456133D01*
X63641185Y-71644726D01*
X63684340Y-71725463D01*
X63734090Y-71818538D01*
X63765520Y-71856835D01*
X63792734Y-71920321D01*
X63781762Y-71988517D01*
X63736007Y-72040262D01*
X63669667Y-72059500D01*
X59153923Y-72059500D01*
X59106470Y-72050061D01*
X59066241Y-72023181D01*
X59039362Y-71982952D01*
X59024536Y-71947159D01*
X58928282Y-71821717D01*
X58802840Y-71725463D01*
X58656762Y-71664956D01*
X58500000Y-71644317D01*
X58343237Y-71664956D01*
X58197159Y-71725463D01*
X58071718Y-71821717D01*
X58044751Y-71856861D01*
X57996934Y-71894598D01*
X57952902Y-71902238D01*
X57963808Y-71924172D01*
X57956300Y-71993423D01*
X57914956Y-72093237D01*
X57894317Y-72250000D01*
X57914956Y-72406762D01*
X57975463Y-72552840D01*
X58071717Y-72678282D01*
X58147099Y-72736124D01*
X58197159Y-72774536D01*
X58343238Y-72835044D01*
X58500000Y-72855682D01*
X58656762Y-72835044D01*
X58802841Y-72774536D01*
X58852900Y-72736124D01*
X58888529Y-72717081D01*
X58928387Y-72710500D01*
X63990860Y-72710500D01*
X64053562Y-72727521D01*
X64099050Y-72773911D01*
X64114836Y-72836935D01*
X64096587Y-72899290D01*
X64049313Y-72943858D01*
X64011463Y-72964089D01*
X63859117Y-73089117D01*
X63734089Y-73241463D01*
X63641185Y-73415273D01*
X63583976Y-73603866D01*
X63564659Y-73799999D01*
X63583975Y-73996130D01*
X63639106Y-74177870D01*
X63640729Y-74243994D01*
X63608126Y-74301546D01*
X63346490Y-74563183D01*
X63306265Y-74590061D01*
X63258812Y-74599500D01*
X57850333Y-74599500D01*
X57783993Y-74580262D01*
X57738238Y-74528517D01*
X57727266Y-74460321D01*
X57754480Y-74396835D01*
X57785910Y-74358538D01*
X57878814Y-74184727D01*
X57936024Y-73996132D01*
X57955341Y-73800000D01*
X57936024Y-73603868D01*
X57878814Y-73415273D01*
X57785910Y-73241462D01*
X57660883Y-73089117D01*
X57508538Y-72964090D01*
X57430132Y-72922181D01*
X57334726Y-72871185D01*
X57146133Y-72813976D01*
X56983069Y-72797916D01*
X56950000Y-72794659D01*
X56949999Y-72794659D01*
X56753869Y-72813975D01*
X56572128Y-72869106D01*
X56506003Y-72870729D01*
X56448452Y-72838126D01*
X56069043Y-72458717D01*
X56061734Y-72450741D01*
X56037454Y-72421805D01*
X56004736Y-72402915D01*
X55995627Y-72397112D01*
X55964684Y-72375446D01*
X55963803Y-72374829D01*
X55939107Y-72364599D01*
X55900852Y-72357853D01*
X55890296Y-72355512D01*
X55853807Y-72345735D01*
X55816180Y-72349028D01*
X55805372Y-72349500D01*
X53649140Y-72349500D01*
X53586438Y-72332479D01*
X53540950Y-72286089D01*
X53525164Y-72223065D01*
X53543413Y-72160710D01*
X53590687Y-72116142D01*
X53596664Y-72112946D01*
X53628538Y-72095910D01*
X53780883Y-71970883D01*
X53905910Y-71818538D01*
X53998814Y-71644727D01*
X54056024Y-71456132D01*
X54075341Y-71260000D01*
X55944659Y-71260000D01*
X55963976Y-71456133D01*
X56021185Y-71644726D01*
X56064340Y-71725463D01*
X56114090Y-71818538D01*
X56239117Y-71970883D01*
X56391462Y-72095910D01*
X56565273Y-72188814D01*
X56753868Y-72246024D01*
X56950000Y-72265341D01*
X57146132Y-72246024D01*
X57334727Y-72188814D01*
X57508538Y-72095910D01*
X57660883Y-71970883D01*
X57745888Y-71867304D01*
X57803421Y-71828040D01*
X57834064Y-71827137D01*
X57822378Y-71782048D01*
X57837016Y-71722924D01*
X57878814Y-71644727D01*
X57936024Y-71456132D01*
X57955341Y-71260000D01*
X57936024Y-71063868D01*
X57878814Y-70875273D01*
X57785910Y-70701462D01*
X57660883Y-70549117D01*
X57508538Y-70424090D01*
X57428413Y-70381262D01*
X57334726Y-70331185D01*
X57146133Y-70273976D01*
X56950000Y-70254659D01*
X56753866Y-70273976D01*
X56565273Y-70331185D01*
X56391463Y-70424089D01*
X56239117Y-70549117D01*
X56114089Y-70701463D01*
X56021185Y-70875273D01*
X55963976Y-71063866D01*
X55944659Y-71260000D01*
X54075341Y-71260000D01*
X54056024Y-71063868D01*
X53998814Y-70875273D01*
X53905910Y-70701462D01*
X53780883Y-70549117D01*
X53628538Y-70424090D01*
X53548413Y-70381262D01*
X53454726Y-70331185D01*
X53266133Y-70273976D01*
X53070000Y-70254659D01*
X52873866Y-70273976D01*
X52685273Y-70331185D01*
X52511463Y-70424089D01*
X52359117Y-70549117D01*
X52234089Y-70701463D01*
X52141185Y-70875273D01*
X52083976Y-71063866D01*
X52064659Y-71260000D01*
X52083976Y-71456133D01*
X52141185Y-71644726D01*
X52184340Y-71725463D01*
X52234090Y-71818538D01*
X52359117Y-71970883D01*
X52511462Y-72095910D01*
X52538988Y-72110623D01*
X52549313Y-72116142D01*
X52596587Y-72160710D01*
X52614836Y-72223065D01*
X52599050Y-72286089D01*
X52553562Y-72332479D01*
X52490860Y-72349500D01*
X46594619Y-72349500D01*
X46583812Y-72349028D01*
X46581298Y-72348808D01*
X46546191Y-72345736D01*
X46509710Y-72355511D01*
X46499155Y-72357852D01*
X46487814Y-72359851D01*
X46461955Y-72364412D01*
X46461953Y-72364412D01*
X46460897Y-72364599D01*
X46436192Y-72374832D01*
X46404378Y-72397107D01*
X46395261Y-72402915D01*
X46362545Y-72421804D01*
X46338262Y-72450743D01*
X46330956Y-72458715D01*
X45951546Y-72838126D01*
X45893995Y-72870729D01*
X45827870Y-72869106D01*
X45646130Y-72813975D01*
X45471426Y-72796769D01*
X45450000Y-72794659D01*
X45449999Y-72794659D01*
X45253869Y-72813975D01*
X45072128Y-72869106D01*
X45006003Y-72870729D01*
X44948452Y-72838126D01*
X44569043Y-72458717D01*
X44561734Y-72450741D01*
X44537454Y-72421805D01*
X44504736Y-72402915D01*
X44495627Y-72397112D01*
X44464684Y-72375446D01*
X44463803Y-72374829D01*
X44439107Y-72364599D01*
X44400852Y-72357853D01*
X44390296Y-72355512D01*
X44353807Y-72345735D01*
X44316180Y-72349028D01*
X44305372Y-72349500D01*
X42399140Y-72349500D01*
X42336438Y-72332479D01*
X42290950Y-72286089D01*
X42275164Y-72223065D01*
X42293413Y-72160710D01*
X42340687Y-72116142D01*
X42346664Y-72112946D01*
X42378538Y-72095910D01*
X42530883Y-71970883D01*
X42655910Y-71818538D01*
X42748814Y-71644727D01*
X42806024Y-71456132D01*
X42825341Y-71260000D01*
X44444659Y-71260000D01*
X44463976Y-71456133D01*
X44521185Y-71644726D01*
X44564340Y-71725463D01*
X44614090Y-71818538D01*
X44739117Y-71970883D01*
X44891462Y-72095910D01*
X45065273Y-72188814D01*
X45253868Y-72246024D01*
X45450000Y-72265341D01*
X45646132Y-72246024D01*
X45834727Y-72188814D01*
X46008538Y-72095910D01*
X46160883Y-71970883D01*
X46285910Y-71818538D01*
X46378814Y-71644727D01*
X46436024Y-71456132D01*
X46455341Y-71260000D01*
X46436024Y-71063868D01*
X46378814Y-70875273D01*
X46285910Y-70701462D01*
X46160883Y-70549117D01*
X46008538Y-70424090D01*
X45928413Y-70381262D01*
X45834726Y-70331185D01*
X45646133Y-70273976D01*
X45450000Y-70254659D01*
X45253866Y-70273976D01*
X45065273Y-70331185D01*
X44891463Y-70424089D01*
X44739117Y-70549117D01*
X44614089Y-70701463D01*
X44521185Y-70875273D01*
X44463976Y-71063866D01*
X44444659Y-71260000D01*
X42825341Y-71260000D01*
X42806024Y-71063868D01*
X42748814Y-70875273D01*
X42655910Y-70701462D01*
X42530883Y-70549117D01*
X42378538Y-70424090D01*
X42298413Y-70381262D01*
X42204726Y-70331185D01*
X42016133Y-70273976D01*
X41820000Y-70254659D01*
X41623866Y-70273976D01*
X41435273Y-70331185D01*
X41261463Y-70424089D01*
X41109117Y-70549117D01*
X40984089Y-70701463D01*
X40891185Y-70875273D01*
X40833976Y-71063866D01*
X40814659Y-71260000D01*
X40833976Y-71456133D01*
X40891185Y-71644726D01*
X40934340Y-71725463D01*
X40984090Y-71818538D01*
X41109117Y-71970883D01*
X41261462Y-72095910D01*
X41288988Y-72110623D01*
X41299313Y-72116142D01*
X41346587Y-72160710D01*
X41364836Y-72223065D01*
X41349050Y-72286089D01*
X41303562Y-72332479D01*
X41240860Y-72349500D01*
X35344619Y-72349500D01*
X35333812Y-72349028D01*
X35331298Y-72348808D01*
X35296191Y-72345736D01*
X35259710Y-72355511D01*
X35249155Y-72357852D01*
X35237814Y-72359851D01*
X35211955Y-72364412D01*
X35211953Y-72364412D01*
X35210897Y-72364599D01*
X35186192Y-72374832D01*
X35154378Y-72397107D01*
X35145261Y-72402915D01*
X35112545Y-72421804D01*
X35088262Y-72450743D01*
X35080956Y-72458715D01*
X34701546Y-72838126D01*
X34643995Y-72870729D01*
X34577870Y-72869106D01*
X34396130Y-72813975D01*
X34221426Y-72796769D01*
X34200000Y-72794659D01*
X34199999Y-72794659D01*
X34003866Y-72813976D01*
X33815273Y-72871185D01*
X33641463Y-72964089D01*
X33489117Y-73089117D01*
X33364089Y-73241463D01*
X33271185Y-73415273D01*
X33213976Y-73603866D01*
X33194659Y-73800000D01*
X33213976Y-73996133D01*
X33271185Y-74184726D01*
X33312795Y-74262572D01*
X33364090Y-74358538D01*
X33489117Y-74510883D01*
X33641462Y-74635910D01*
X33815273Y-74728814D01*
X34003868Y-74786024D01*
X34200000Y-74805341D01*
X34396132Y-74786024D01*
X34584727Y-74728814D01*
X34758538Y-74635910D01*
X34910883Y-74510883D01*
X35035910Y-74358538D01*
X35128814Y-74184727D01*
X35186024Y-73996132D01*
X35205341Y-73800000D01*
X35186024Y-73603868D01*
X35130892Y-73422126D01*
X35129270Y-73356003D01*
X35161871Y-73298454D01*
X35423510Y-73036816D01*
X35463736Y-73009939D01*
X35511189Y-73000500D01*
X40919667Y-73000500D01*
X40986007Y-73019738D01*
X41031762Y-73071483D01*
X41042734Y-73139679D01*
X41015520Y-73203165D01*
X40984089Y-73241463D01*
X40891185Y-73415273D01*
X40833976Y-73603866D01*
X40814659Y-73800000D01*
X40833976Y-73996133D01*
X40891185Y-74184726D01*
X40932795Y-74262572D01*
X40984090Y-74358538D01*
X41109117Y-74510883D01*
X41261462Y-74635910D01*
X41435273Y-74728814D01*
X41623868Y-74786024D01*
X41820000Y-74805341D01*
X42016132Y-74786024D01*
X42204727Y-74728814D01*
X42378538Y-74635910D01*
X42530883Y-74510883D01*
X42655910Y-74358538D01*
X42748814Y-74184727D01*
X42806024Y-73996132D01*
X42825341Y-73800000D01*
X42806024Y-73603868D01*
X42748814Y-73415273D01*
X42655910Y-73241462D01*
X42624479Y-73203164D01*
X42597266Y-73139679D01*
X42608238Y-73071483D01*
X42653993Y-73019738D01*
X42720333Y-73000500D01*
X44138812Y-73000500D01*
X44186265Y-73009939D01*
X44226493Y-73036819D01*
X44488126Y-73298452D01*
X44520729Y-73356003D01*
X44519106Y-73422128D01*
X44463975Y-73603869D01*
X44444659Y-73800000D01*
X44463976Y-73996133D01*
X44521185Y-74184726D01*
X44562795Y-74262572D01*
X44614090Y-74358538D01*
X44739117Y-74510883D01*
X44891462Y-74635910D01*
X45065273Y-74728814D01*
X45253868Y-74786024D01*
X45450000Y-74805341D01*
X45646132Y-74786024D01*
X45834727Y-74728814D01*
X46008538Y-74635910D01*
X46160883Y-74510883D01*
X46285910Y-74358538D01*
X46378814Y-74184727D01*
X46436024Y-73996132D01*
X46455341Y-73800000D01*
X46436024Y-73603868D01*
X46380892Y-73422126D01*
X46379270Y-73356003D01*
X46411871Y-73298454D01*
X46673510Y-73036816D01*
X46713736Y-73009939D01*
X46761189Y-73000500D01*
X52169667Y-73000500D01*
X52236007Y-73019738D01*
X52281762Y-73071483D01*
X52292734Y-73139679D01*
X52265520Y-73203165D01*
X52234090Y-73241461D01*
X52144563Y-73408954D01*
X52098954Y-73456858D01*
X52035205Y-73474500D01*
X51969628Y-73474500D01*
X51958820Y-73474028D01*
X51921192Y-73470735D01*
X51884704Y-73480512D01*
X51874148Y-73482852D01*
X51835899Y-73489597D01*
X51811193Y-73499831D01*
X51779380Y-73522106D01*
X51770264Y-73527914D01*
X51737545Y-73546805D01*
X51713262Y-73575744D01*
X51705956Y-73583716D01*
X46661514Y-78628157D01*
X46606905Y-78659984D01*
X46543703Y-78660760D01*
X46488330Y-78630282D01*
X46455172Y-78576471D01*
X46424766Y-78476235D01*
X46327268Y-78293828D01*
X46196054Y-78133945D01*
X46036171Y-78002731D01*
X45853764Y-77905233D01*
X45700000Y-77858590D01*
X45700000Y-79006000D01*
X45683387Y-79068000D01*
X45638000Y-79113387D01*
X45576000Y-79130000D01*
X44428590Y-79130000D01*
X44475233Y-79283764D01*
X44572731Y-79466171D01*
X44581483Y-79476835D01*
X44608697Y-79540321D01*
X44597725Y-79608517D01*
X44551970Y-79660262D01*
X44485630Y-79679500D01*
X42784370Y-79679500D01*
X42718030Y-79660262D01*
X42672275Y-79608517D01*
X42661303Y-79540321D01*
X42688517Y-79476835D01*
X42697268Y-79466171D01*
X42794766Y-79283764D01*
X42841410Y-79130000D01*
X40798590Y-79130000D01*
X40845233Y-79283764D01*
X40942731Y-79466171D01*
X40992591Y-79526925D01*
X41019556Y-79588513D01*
X41010416Y-79655121D01*
X40967857Y-79707168D01*
X40939377Y-79727108D01*
X40930261Y-79732915D01*
X40897545Y-79751804D01*
X40873262Y-79780743D01*
X40865956Y-79788715D01*
X37798953Y-82855719D01*
X37744571Y-82887483D01*
X37681599Y-82888435D01*
X37625058Y-82874500D01*
X37625056Y-82874500D01*
X37454944Y-82874500D01*
X37422941Y-82882388D01*
X37289775Y-82915209D01*
X37139149Y-82994265D01*
X37139147Y-82994266D01*
X37139148Y-82994266D01*
X37011817Y-83107071D01*
X37011816Y-83107072D01*
X37011813Y-83107075D01*
X37007046Y-83113981D01*
X36962620Y-83153336D01*
X36904995Y-83167537D01*
X36847370Y-83153332D01*
X36802949Y-83113975D01*
X36798183Y-83107071D01*
X36670852Y-82994266D01*
X36638639Y-82977359D01*
X36520224Y-82915209D01*
X36387059Y-82882388D01*
X36355056Y-82874500D01*
X36184944Y-82874500D01*
X36152941Y-82882388D01*
X36019775Y-82915209D01*
X35869145Y-82994267D01*
X35861222Y-83001287D01*
X35798270Y-83030961D01*
X35729247Y-83022050D01*
X35675897Y-82977359D01*
X35644551Y-82930447D01*
X35578230Y-82886132D01*
X35519749Y-82874500D01*
X35519748Y-82874500D01*
X34480252Y-82874500D01*
X34480251Y-82874500D01*
X34421769Y-82886132D01*
X34355447Y-82930447D01*
X34311132Y-82996769D01*
X34299500Y-83055251D01*
X34299500Y-84094749D01*
X34311132Y-84153230D01*
X34355447Y-84219552D01*
X34421769Y-84263867D01*
X34480251Y-84275500D01*
X34480252Y-84275500D01*
X35519748Y-84275500D01*
X35519749Y-84275500D01*
X35548989Y-84269683D01*
X35578231Y-84263867D01*
X35644552Y-84219552D01*
X35675899Y-84172638D01*
X35729248Y-84127949D01*
X35798272Y-84119038D01*
X35861222Y-84148713D01*
X35869148Y-84155734D01*
X36019775Y-84234790D01*
X36184944Y-84275500D01*
X36355055Y-84275500D01*
X36355056Y-84275500D01*
X36520225Y-84234790D01*
X36670852Y-84155734D01*
X36798183Y-84042929D01*
X36802950Y-84036022D01*
X36847369Y-83996668D01*
X36904995Y-83982462D01*
X36962622Y-83996664D01*
X37007048Y-84036020D01*
X37011817Y-84042929D01*
X37139148Y-84155734D01*
X37289775Y-84234790D01*
X37454944Y-84275500D01*
X37625055Y-84275500D01*
X37625056Y-84275500D01*
X37790225Y-84234790D01*
X37940852Y-84155734D01*
X38068183Y-84042929D01*
X38072950Y-84036022D01*
X38117369Y-83996668D01*
X38174995Y-83982462D01*
X38232622Y-83996664D01*
X38277048Y-84036020D01*
X38281817Y-84042929D01*
X38409148Y-84155734D01*
X38559775Y-84234790D01*
X38724944Y-84275500D01*
X38895055Y-84275500D01*
X38895056Y-84275500D01*
X39060225Y-84234790D01*
X39210852Y-84155734D01*
X39338183Y-84042929D01*
X39399525Y-83954059D01*
X39443949Y-83914703D01*
X39501575Y-83900500D01*
X44496735Y-83900500D01*
X44549140Y-83912118D01*
X44564454Y-83919259D01*
X44582466Y-83920834D01*
X44603735Y-83924584D01*
X44621193Y-83929263D01*
X44639194Y-83927688D01*
X44660795Y-83927688D01*
X44678807Y-83929264D01*
X44696263Y-83924585D01*
X44717551Y-83920833D01*
X44732091Y-83919560D01*
X44735545Y-83919259D01*
X44751919Y-83911622D01*
X44772228Y-83904230D01*
X44789684Y-83899554D01*
X44804481Y-83889192D01*
X44823199Y-83878384D01*
X44839579Y-83870747D01*
X44920747Y-83789579D01*
X44920746Y-83789579D01*
X44979329Y-83730996D01*
X44979328Y-83730996D01*
X45960325Y-82749999D01*
X47394317Y-82749999D01*
X47414956Y-82906762D01*
X47475463Y-83052840D01*
X47571717Y-83178282D01*
X47664531Y-83249500D01*
X47697159Y-83274536D01*
X47843238Y-83335044D01*
X48000000Y-83355682D01*
X48156762Y-83335044D01*
X48302841Y-83274536D01*
X48428282Y-83178282D01*
X48469923Y-83124013D01*
X48513455Y-83088288D01*
X48568299Y-83075500D01*
X69095500Y-83075500D01*
X69157500Y-83092113D01*
X69202887Y-83137500D01*
X69219500Y-83199500D01*
X69219500Y-84094749D01*
X69231132Y-84153230D01*
X69275447Y-84219552D01*
X69341769Y-84263867D01*
X69400251Y-84275500D01*
X69400252Y-84275500D01*
X70439748Y-84275500D01*
X70439749Y-84275500D01*
X70468989Y-84269683D01*
X70498231Y-84263867D01*
X70564552Y-84219552D01*
X70595899Y-84172638D01*
X70649248Y-84127949D01*
X70718272Y-84119038D01*
X70781222Y-84148713D01*
X70789148Y-84155734D01*
X70939775Y-84234790D01*
X71104944Y-84275500D01*
X71275055Y-84275500D01*
X71275056Y-84275500D01*
X71440225Y-84234790D01*
X71590852Y-84155734D01*
X71718183Y-84042929D01*
X71722949Y-84036023D01*
X71767373Y-83996666D01*
X71825000Y-83982462D01*
X71882627Y-83996666D01*
X71927051Y-84036024D01*
X71931815Y-84042927D01*
X71931816Y-84042928D01*
X71931817Y-84042929D01*
X72059148Y-84155734D01*
X72209775Y-84234790D01*
X72374944Y-84275500D01*
X72545055Y-84275500D01*
X72545056Y-84275500D01*
X72710225Y-84234790D01*
X72860852Y-84155734D01*
X72988183Y-84042929D01*
X72992949Y-84036023D01*
X73037373Y-83996666D01*
X73095000Y-83982462D01*
X73152627Y-83996666D01*
X73197051Y-84036024D01*
X73201815Y-84042927D01*
X73201816Y-84042928D01*
X73201817Y-84042929D01*
X73329148Y-84155734D01*
X73479775Y-84234790D01*
X73644944Y-84275500D01*
X73815055Y-84275500D01*
X73815056Y-84275500D01*
X73980225Y-84234790D01*
X74130852Y-84155734D01*
X74258183Y-84042929D01*
X74262949Y-84036023D01*
X74307373Y-83996666D01*
X74365000Y-83982462D01*
X74422627Y-83996666D01*
X74467051Y-84036024D01*
X74471815Y-84042927D01*
X74471816Y-84042928D01*
X74471817Y-84042929D01*
X74599148Y-84155734D01*
X74749775Y-84234790D01*
X74914944Y-84275500D01*
X75085055Y-84275500D01*
X75085056Y-84275500D01*
X75250225Y-84234790D01*
X75400852Y-84155734D01*
X75528183Y-84042929D01*
X75624818Y-83902930D01*
X75685140Y-83743872D01*
X75705645Y-83575000D01*
X75685140Y-83406128D01*
X75624818Y-83247070D01*
X75528183Y-83107071D01*
X75400852Y-82994266D01*
X75368639Y-82977359D01*
X75250224Y-82915209D01*
X75117059Y-82882388D01*
X75085056Y-82874500D01*
X74914944Y-82874500D01*
X74914942Y-82874500D01*
X74858400Y-82888435D01*
X74795428Y-82887483D01*
X74741046Y-82855719D01*
X74419043Y-82533717D01*
X74411734Y-82525741D01*
X74387454Y-82496805D01*
X74354736Y-82477915D01*
X74345627Y-82472112D01*
X74314684Y-82450446D01*
X74313803Y-82449829D01*
X74289107Y-82439599D01*
X74250852Y-82432853D01*
X74240296Y-82430512D01*
X74203807Y-82420735D01*
X74166180Y-82424028D01*
X74155372Y-82424500D01*
X48568299Y-82424500D01*
X48513455Y-82411712D01*
X48469923Y-82375986D01*
X48428281Y-82321717D01*
X48302840Y-82225463D01*
X48156762Y-82164956D01*
X48000000Y-82144317D01*
X47843237Y-82164956D01*
X47697159Y-82225463D01*
X47571717Y-82321717D01*
X47475463Y-82447159D01*
X47414956Y-82593237D01*
X47394317Y-82749999D01*
X45960325Y-82749999D01*
X51968768Y-76741558D01*
X52017550Y-76711500D01*
X52074641Y-76706583D01*
X52127847Y-76727860D01*
X52165805Y-76770787D01*
X52233295Y-76897050D01*
X52234090Y-76898538D01*
X52359117Y-77050883D01*
X52511462Y-77175910D01*
X52685273Y-77268814D01*
X52873868Y-77326024D01*
X53070000Y-77345341D01*
X53266132Y-77326024D01*
X53454727Y-77268814D01*
X53628538Y-77175910D01*
X53780883Y-77050883D01*
X53905910Y-76898538D01*
X53969638Y-76779311D01*
X53995437Y-76731046D01*
X54041046Y-76683142D01*
X54104795Y-76665500D01*
X54153812Y-76665500D01*
X54201265Y-76674939D01*
X54241492Y-76701818D01*
X54756941Y-77217268D01*
X55220955Y-77681282D01*
X55228263Y-77689256D01*
X55250936Y-77716277D01*
X55252545Y-77718194D01*
X55285266Y-77737085D01*
X55294360Y-77742878D01*
X55325316Y-77764554D01*
X55325317Y-77764554D01*
X55326201Y-77765173D01*
X55350891Y-77775400D01*
X55351954Y-77775587D01*
X55351955Y-77775588D01*
X55389146Y-77782145D01*
X55399704Y-77784486D01*
X55436191Y-77794263D01*
X55436192Y-77794262D01*
X55436193Y-77794263D01*
X55473811Y-77790971D01*
X55484618Y-77790500D01*
X56275877Y-77790500D01*
X56334330Y-77805142D01*
X56378979Y-77845609D01*
X56399280Y-77902346D01*
X56390438Y-77961952D01*
X56354542Y-78010353D01*
X56203945Y-78133945D01*
X56072731Y-78293828D01*
X55975233Y-78476235D01*
X55928590Y-78630000D01*
X57971410Y-78630000D01*
X57924766Y-78476235D01*
X57827268Y-78293828D01*
X57696054Y-78133945D01*
X57545458Y-78010353D01*
X57509562Y-77961952D01*
X57500720Y-77902346D01*
X57521021Y-77845609D01*
X57565670Y-77805142D01*
X57624123Y-77790500D01*
X58604775Y-77790500D01*
X58663228Y-77805142D01*
X58707877Y-77845609D01*
X58728178Y-77902346D01*
X58719336Y-77961952D01*
X58664956Y-78093237D01*
X58644317Y-78250000D01*
X58664956Y-78406762D01*
X58725463Y-78552840D01*
X58821717Y-78678282D01*
X58947159Y-78774536D01*
X59093238Y-78835044D01*
X59250000Y-78855682D01*
X59406762Y-78835044D01*
X59552841Y-78774536D01*
X59678282Y-78678282D01*
X59719923Y-78624013D01*
X59763455Y-78588288D01*
X59818299Y-78575500D01*
X63276769Y-78575500D01*
X63287576Y-78575971D01*
X63325203Y-78579264D01*
X63361720Y-78569478D01*
X63372226Y-78567149D01*
X63409441Y-78560588D01*
X63409442Y-78560587D01*
X63430980Y-78556790D01*
X63431300Y-78558608D01*
X63463340Y-78550440D01*
X63527496Y-78570183D01*
X63571963Y-78620467D01*
X63583711Y-78686557D01*
X63564659Y-78879999D01*
X63583975Y-79076130D01*
X63639106Y-79257870D01*
X63640729Y-79323994D01*
X63608126Y-79381546D01*
X63346490Y-79643183D01*
X63306265Y-79670061D01*
X63258812Y-79679500D01*
X57914370Y-79679500D01*
X57848030Y-79660262D01*
X57802275Y-79608517D01*
X57791303Y-79540321D01*
X57818517Y-79476835D01*
X57827268Y-79466171D01*
X57924766Y-79283764D01*
X57971410Y-79130000D01*
X55928590Y-79130000D01*
X55975233Y-79283764D01*
X56072731Y-79466171D01*
X56081483Y-79476835D01*
X56108697Y-79540321D01*
X56097725Y-79608517D01*
X56051970Y-79660262D01*
X55985630Y-79679500D01*
X54381189Y-79679500D01*
X54333736Y-79670061D01*
X54293508Y-79643181D01*
X54031873Y-79381547D01*
X53999270Y-79323995D01*
X54000894Y-79257870D01*
X54015062Y-79211164D01*
X54056024Y-79076132D01*
X54075341Y-78880000D01*
X54056024Y-78683868D01*
X53998814Y-78495273D01*
X53905910Y-78321462D01*
X53780883Y-78169117D01*
X53628538Y-78044090D01*
X53540349Y-77996952D01*
X53454726Y-77951185D01*
X53266133Y-77893976D01*
X53070000Y-77874659D01*
X52873866Y-77893976D01*
X52685273Y-77951185D01*
X52511463Y-78044089D01*
X52359117Y-78169117D01*
X52234089Y-78321463D01*
X52141185Y-78495273D01*
X52083976Y-78683866D01*
X52064659Y-78880000D01*
X52083976Y-79076133D01*
X52141185Y-79264726D01*
X52172865Y-79323994D01*
X52234090Y-79438538D01*
X52359117Y-79590883D01*
X52511462Y-79715910D01*
X52685273Y-79808814D01*
X52873868Y-79866024D01*
X53070000Y-79885341D01*
X53266132Y-79866024D01*
X53447870Y-79810893D01*
X53513995Y-79809270D01*
X53571547Y-79841873D01*
X53950955Y-80221282D01*
X53958262Y-80229255D01*
X53982545Y-80258194D01*
X54015266Y-80277085D01*
X54024360Y-80282878D01*
X54055316Y-80304554D01*
X54055317Y-80304554D01*
X54056201Y-80305173D01*
X54080891Y-80315400D01*
X54081954Y-80315587D01*
X54081955Y-80315588D01*
X54119146Y-80322145D01*
X54129704Y-80324486D01*
X54166191Y-80334263D01*
X54166192Y-80334262D01*
X54166193Y-80334263D01*
X54203811Y-80330971D01*
X54214618Y-80330500D01*
X54520787Y-80330500D01*
X54579955Y-80345527D01*
X54624782Y-80386965D01*
X54644405Y-80444771D01*
X54634067Y-80504936D01*
X54596273Y-80552876D01*
X54571717Y-80571717D01*
X54475463Y-80697159D01*
X54414956Y-80843237D01*
X54394317Y-80999999D01*
X54414956Y-81156762D01*
X54475463Y-81302840D01*
X54571717Y-81428282D01*
X54697158Y-81524535D01*
X54697159Y-81524536D01*
X54843238Y-81585044D01*
X55000000Y-81605682D01*
X55156762Y-81585044D01*
X55302841Y-81524536D01*
X55428282Y-81428282D01*
X55469923Y-81374013D01*
X55513455Y-81338288D01*
X55568299Y-81325500D01*
X70743646Y-81325500D01*
X70754453Y-81325971D01*
X70792080Y-81329264D01*
X70828597Y-81319478D01*
X70839103Y-81317149D01*
X70876318Y-81310588D01*
X70876320Y-81310586D01*
X70877385Y-81310399D01*
X70902072Y-81300173D01*
X70902955Y-81299554D01*
X70902957Y-81299554D01*
X70933898Y-81277887D01*
X70942995Y-81272091D01*
X70975728Y-81253194D01*
X71000021Y-81224241D01*
X71007309Y-81216288D01*
X78291343Y-73932255D01*
X79919501Y-73932255D01*
X79940007Y-74101128D01*
X80000329Y-74260186D01*
X80096962Y-74400183D01*
X80096963Y-74400184D01*
X80096964Y-74400185D01*
X80224295Y-74512990D01*
X80374922Y-74592046D01*
X80540091Y-74632756D01*
X80710202Y-74632756D01*
X80710203Y-74632756D01*
X80875372Y-74592046D01*
X81025999Y-74512990D01*
X81153330Y-74400185D01*
X81226191Y-74294627D01*
X81274844Y-74253154D01*
X81337692Y-74241430D01*
X81398027Y-74262572D01*
X81446504Y-74295578D01*
X81524595Y-74311822D01*
X81524596Y-74311821D01*
X81524598Y-74311822D01*
X81583180Y-74300699D01*
X82546984Y-73911297D01*
X82596851Y-73878603D01*
X82641742Y-73812671D01*
X82641742Y-73812670D01*
X82641743Y-73812669D01*
X82657986Y-73734580D01*
X82655978Y-73724004D01*
X82646863Y-73675996D01*
X82257461Y-72712192D01*
X82235229Y-72678282D01*
X82224767Y-72662324D01*
X82158833Y-72617432D01*
X82080744Y-72601189D01*
X82022159Y-72612313D01*
X81058356Y-73001714D01*
X81008488Y-73034408D01*
X80963596Y-73100342D01*
X80951430Y-73158832D01*
X80921526Y-73217271D01*
X80865978Y-73252254D01*
X80800354Y-73253976D01*
X80710203Y-73231756D01*
X80540091Y-73231756D01*
X80518750Y-73237016D01*
X80374922Y-73272465D01*
X80224296Y-73351521D01*
X80096962Y-73464328D01*
X80000329Y-73604325D01*
X79940007Y-73763383D01*
X79919501Y-73932255D01*
X78291343Y-73932255D01*
X82106967Y-70116631D01*
X82159548Y-70085385D01*
X82220672Y-70083076D01*
X82275462Y-70110268D01*
X82310588Y-70160344D01*
X82355181Y-70277928D01*
X82451815Y-70417927D01*
X82451816Y-70417928D01*
X82451817Y-70417929D01*
X82579148Y-70530734D01*
X82729775Y-70609790D01*
X82894944Y-70650500D01*
X83065055Y-70650500D01*
X83065056Y-70650500D01*
X83230225Y-70609790D01*
X83380852Y-70530734D01*
X83388775Y-70523714D01*
X83451725Y-70494038D01*
X83520749Y-70502948D01*
X83574102Y-70547640D01*
X83605447Y-70594552D01*
X83671769Y-70638867D01*
X83730251Y-70650500D01*
X84775500Y-70650500D01*
X84837500Y-70667113D01*
X84882887Y-70712500D01*
X84899500Y-70774500D01*
X84899500Y-76625500D01*
X84882887Y-76687500D01*
X84837500Y-76732887D01*
X84775500Y-76749500D01*
X83730251Y-76749500D01*
X83671769Y-76761132D01*
X83605446Y-76805448D01*
X83574101Y-76852360D01*
X83520750Y-76897050D01*
X83451727Y-76905961D01*
X83388775Y-76876285D01*
X83380853Y-76869267D01*
X83380852Y-76869266D01*
X83305538Y-76829737D01*
X83230224Y-76790209D01*
X83105765Y-76759533D01*
X83065056Y-76749500D01*
X82894944Y-76749500D01*
X82862284Y-76757549D01*
X82729775Y-76790209D01*
X82579149Y-76869265D01*
X82451815Y-76982072D01*
X82355182Y-77122069D01*
X82294860Y-77281127D01*
X82274354Y-77450000D01*
X82294860Y-77618872D01*
X82355182Y-77777930D01*
X82451815Y-77917927D01*
X82451816Y-77917928D01*
X82451817Y-77917929D01*
X82579148Y-78030734D01*
X82729775Y-78109790D01*
X82894944Y-78150500D01*
X83065055Y-78150500D01*
X83065056Y-78150500D01*
X83230225Y-78109790D01*
X83380852Y-78030734D01*
X83388775Y-78023714D01*
X83451725Y-77994038D01*
X83520749Y-78002948D01*
X83574102Y-78047640D01*
X83605447Y-78094552D01*
X83671769Y-78138867D01*
X83730251Y-78150500D01*
X84775500Y-78150500D01*
X84837500Y-78167113D01*
X84882887Y-78212500D01*
X84899500Y-78274500D01*
X84899500Y-84775500D01*
X84882887Y-84837500D01*
X84837500Y-84882887D01*
X84775500Y-84899500D01*
X25124500Y-84899500D01*
X25062500Y-84882887D01*
X25017113Y-84837500D01*
X25000500Y-84775500D01*
X25000500Y-79130000D01*
X33178590Y-79130000D01*
X33225233Y-79283764D01*
X33322731Y-79466171D01*
X33453945Y-79626054D01*
X33613828Y-79757268D01*
X33796235Y-79854766D01*
X33950000Y-79901410D01*
X33950000Y-79130000D01*
X34450000Y-79130000D01*
X34450000Y-79901410D01*
X34603764Y-79854766D01*
X34786171Y-79757268D01*
X34946054Y-79626054D01*
X35077268Y-79466171D01*
X35174766Y-79283764D01*
X35221410Y-79130000D01*
X34450000Y-79130000D01*
X33950000Y-79130000D01*
X33178590Y-79130000D01*
X25000500Y-79130000D01*
X25000500Y-78630000D01*
X33178590Y-78630000D01*
X33950000Y-78630000D01*
X33950000Y-77858590D01*
X34450000Y-77858590D01*
X34450000Y-78630000D01*
X35221410Y-78630000D01*
X40798590Y-78630000D01*
X41570000Y-78630000D01*
X41570000Y-77858590D01*
X42070000Y-77858590D01*
X42070000Y-78630000D01*
X42841410Y-78630000D01*
X44428590Y-78630000D01*
X45200000Y-78630000D01*
X45200000Y-77858590D01*
X45046235Y-77905233D01*
X44863828Y-78002731D01*
X44703945Y-78133945D01*
X44572731Y-78293828D01*
X44475233Y-78476235D01*
X44428590Y-78630000D01*
X42841410Y-78630000D01*
X42794766Y-78476235D01*
X42697268Y-78293828D01*
X42566054Y-78133945D01*
X42406171Y-78002731D01*
X42223764Y-77905233D01*
X42070000Y-77858590D01*
X41570000Y-77858590D01*
X41416235Y-77905233D01*
X41233828Y-78002731D01*
X41073945Y-78133945D01*
X40942731Y-78293828D01*
X40845233Y-78476235D01*
X40798590Y-78630000D01*
X35221410Y-78630000D01*
X35174766Y-78476235D01*
X35077268Y-78293828D01*
X34946054Y-78133945D01*
X34786171Y-78002731D01*
X34603764Y-77905233D01*
X34450000Y-77858590D01*
X33950000Y-77858590D01*
X33796235Y-77905233D01*
X33613828Y-78002731D01*
X33453945Y-78133945D01*
X33322731Y-78293828D01*
X33225233Y-78476235D01*
X33178590Y-78630000D01*
X25000500Y-78630000D01*
X25000500Y-78274500D01*
X25017113Y-78212500D01*
X25062500Y-78167113D01*
X25124500Y-78150500D01*
X25130252Y-78150500D01*
X25838811Y-78150500D01*
X25886264Y-78159939D01*
X25926492Y-78186819D01*
X26230955Y-78491282D01*
X26238263Y-78499256D01*
X26259686Y-78524787D01*
X26262545Y-78528194D01*
X26295266Y-78547085D01*
X26304360Y-78552878D01*
X26335316Y-78574554D01*
X26335317Y-78574554D01*
X26336201Y-78575173D01*
X26360891Y-78585400D01*
X26361954Y-78585587D01*
X26361955Y-78585588D01*
X26399146Y-78592145D01*
X26409704Y-78594486D01*
X26446191Y-78604263D01*
X26446192Y-78604262D01*
X26446193Y-78604263D01*
X26483811Y-78600971D01*
X26494618Y-78600500D01*
X28955373Y-78600500D01*
X28966180Y-78600971D01*
X29003807Y-78604264D01*
X29040324Y-78594478D01*
X29050830Y-78592149D01*
X29088045Y-78585588D01*
X29088047Y-78585586D01*
X29089112Y-78585399D01*
X29113799Y-78575173D01*
X29114682Y-78574554D01*
X29114684Y-78574554D01*
X29145625Y-78552887D01*
X29154722Y-78547091D01*
X29187455Y-78528194D01*
X29211748Y-78499241D01*
X29219036Y-78491288D01*
X31120325Y-76590000D01*
X33178590Y-76590000D01*
X33225233Y-76743764D01*
X33322731Y-76926171D01*
X33453945Y-77086054D01*
X33613828Y-77217268D01*
X33796235Y-77314766D01*
X33950000Y-77361410D01*
X33950000Y-76590000D01*
X34450000Y-76590000D01*
X34450000Y-77361410D01*
X34603764Y-77314766D01*
X34786171Y-77217268D01*
X34946054Y-77086054D01*
X35077268Y-76926171D01*
X35174766Y-76743764D01*
X35221410Y-76590000D01*
X34450000Y-76590000D01*
X33950000Y-76590000D01*
X33178590Y-76590000D01*
X31120325Y-76590000D01*
X31370325Y-76340000D01*
X40814659Y-76340000D01*
X40833976Y-76536133D01*
X40891185Y-76724726D01*
X40953627Y-76841546D01*
X40984090Y-76898538D01*
X41109117Y-77050883D01*
X41261462Y-77175910D01*
X41435273Y-77268814D01*
X41623868Y-77326024D01*
X41820000Y-77345341D01*
X42016132Y-77326024D01*
X42204727Y-77268814D01*
X42378538Y-77175910D01*
X42530883Y-77050883D01*
X42655910Y-76898538D01*
X42748814Y-76724727D01*
X42789683Y-76590000D01*
X44428590Y-76590000D01*
X44475233Y-76743764D01*
X44572731Y-76926171D01*
X44703945Y-77086054D01*
X44863828Y-77217268D01*
X45046235Y-77314766D01*
X45200000Y-77361410D01*
X45200000Y-76590000D01*
X45700000Y-76590000D01*
X45700000Y-77361410D01*
X45853764Y-77314766D01*
X46036171Y-77217268D01*
X46196054Y-77086054D01*
X46327268Y-76926171D01*
X46424766Y-76743764D01*
X46471410Y-76590000D01*
X45700000Y-76590000D01*
X45200000Y-76590000D01*
X44428590Y-76590000D01*
X42789683Y-76590000D01*
X42806024Y-76536132D01*
X42825341Y-76340000D01*
X42806024Y-76143868D01*
X42789683Y-76090000D01*
X44428590Y-76090000D01*
X45200000Y-76090000D01*
X45200000Y-75318590D01*
X45700000Y-75318590D01*
X45700000Y-76090000D01*
X46471410Y-76090000D01*
X46424766Y-75936235D01*
X46327268Y-75753828D01*
X46196054Y-75593945D01*
X46036171Y-75462731D01*
X45853764Y-75365233D01*
X45700000Y-75318590D01*
X45200000Y-75318590D01*
X45046235Y-75365233D01*
X44863828Y-75462731D01*
X44703945Y-75593945D01*
X44572731Y-75753828D01*
X44475233Y-75936235D01*
X44428590Y-76090000D01*
X42789683Y-76090000D01*
X42748814Y-75955273D01*
X42655910Y-75781462D01*
X42530883Y-75629117D01*
X42378538Y-75504090D01*
X42301161Y-75462731D01*
X42204726Y-75411185D01*
X42016133Y-75353976D01*
X41820000Y-75334659D01*
X41623866Y-75353976D01*
X41435273Y-75411185D01*
X41261463Y-75504089D01*
X41109117Y-75629117D01*
X40984089Y-75781463D01*
X40891185Y-75955273D01*
X40833976Y-76143866D01*
X40814659Y-76340000D01*
X31370325Y-76340000D01*
X31620325Y-76090000D01*
X33178590Y-76090000D01*
X33950000Y-76090000D01*
X33950000Y-75318590D01*
X34450000Y-75318590D01*
X34450000Y-76090000D01*
X35221410Y-76090000D01*
X35174766Y-75936235D01*
X35077268Y-75753828D01*
X34946054Y-75593945D01*
X34786171Y-75462731D01*
X34603764Y-75365233D01*
X34450000Y-75318590D01*
X33950000Y-75318590D01*
X33796235Y-75365233D01*
X33613828Y-75462731D01*
X33453945Y-75593945D01*
X33322731Y-75753828D01*
X33225233Y-75936235D01*
X33178590Y-76090000D01*
X31620325Y-76090000D01*
X31716296Y-75994029D01*
X31724249Y-75986741D01*
X31753194Y-75962455D01*
X31772082Y-75929738D01*
X31777881Y-75920635D01*
X31799554Y-75889684D01*
X31799554Y-75889682D01*
X31800173Y-75888799D01*
X31810398Y-75864112D01*
X31810585Y-75863049D01*
X31810588Y-75863045D01*
X31817150Y-75825822D01*
X31819479Y-75815316D01*
X31829263Y-75778807D01*
X31825971Y-75741188D01*
X31825500Y-75730382D01*
X31825500Y-71260000D01*
X33194659Y-71260000D01*
X33213976Y-71456133D01*
X33271185Y-71644726D01*
X33314340Y-71725463D01*
X33364090Y-71818538D01*
X33489117Y-71970883D01*
X33641462Y-72095910D01*
X33815273Y-72188814D01*
X34003868Y-72246024D01*
X34200000Y-72265341D01*
X34396132Y-72246024D01*
X34584727Y-72188814D01*
X34758538Y-72095910D01*
X34910883Y-71970883D01*
X35035910Y-71818538D01*
X35128814Y-71644727D01*
X35186024Y-71456132D01*
X35205341Y-71260000D01*
X35186024Y-71063868D01*
X35128814Y-70875273D01*
X35035910Y-70701462D01*
X34910883Y-70549117D01*
X34758538Y-70424090D01*
X34678413Y-70381262D01*
X34584726Y-70331185D01*
X34396133Y-70273976D01*
X34200000Y-70254659D01*
X34003866Y-70273976D01*
X33815273Y-70331185D01*
X33641463Y-70424089D01*
X33489117Y-70549117D01*
X33364089Y-70701463D01*
X33271185Y-70875273D01*
X33213976Y-71063866D01*
X33194659Y-71260000D01*
X31825500Y-71260000D01*
X31825500Y-68720000D01*
X33194659Y-68720000D01*
X33213976Y-68916133D01*
X33271185Y-69104726D01*
X33271186Y-69104727D01*
X33364090Y-69278538D01*
X33489117Y-69430883D01*
X33641462Y-69555910D01*
X33815273Y-69648814D01*
X34003868Y-69706024D01*
X34200000Y-69725341D01*
X34396132Y-69706024D01*
X34584727Y-69648814D01*
X34758538Y-69555910D01*
X34910883Y-69430883D01*
X35035910Y-69278538D01*
X35128814Y-69104727D01*
X35186024Y-68916132D01*
X35205341Y-68720000D01*
X40814659Y-68720000D01*
X40833976Y-68916133D01*
X40891185Y-69104726D01*
X40891186Y-69104727D01*
X40984090Y-69278538D01*
X41109117Y-69430883D01*
X41261462Y-69555910D01*
X41435273Y-69648814D01*
X41623868Y-69706024D01*
X41820000Y-69725341D01*
X42016132Y-69706024D01*
X42204727Y-69648814D01*
X42378538Y-69555910D01*
X42530883Y-69430883D01*
X42655910Y-69278538D01*
X42748814Y-69104727D01*
X42806024Y-68916132D01*
X42825341Y-68720000D01*
X44444659Y-68720000D01*
X44463976Y-68916133D01*
X44521185Y-69104726D01*
X44521186Y-69104727D01*
X44614090Y-69278538D01*
X44739117Y-69430883D01*
X44891462Y-69555910D01*
X45065273Y-69648814D01*
X45253868Y-69706024D01*
X45450000Y-69725341D01*
X45646132Y-69706024D01*
X45834727Y-69648814D01*
X46008538Y-69555910D01*
X46160883Y-69430883D01*
X46285910Y-69278538D01*
X46378814Y-69104727D01*
X46436024Y-68916132D01*
X46455341Y-68720000D01*
X52064659Y-68720000D01*
X52083976Y-68916133D01*
X52141185Y-69104726D01*
X52141186Y-69104727D01*
X52234090Y-69278538D01*
X52359117Y-69430883D01*
X52511462Y-69555910D01*
X52685273Y-69648814D01*
X52873868Y-69706024D01*
X53070000Y-69725341D01*
X53266132Y-69706024D01*
X53454727Y-69648814D01*
X53628538Y-69555910D01*
X53780883Y-69430883D01*
X53905910Y-69278538D01*
X53998814Y-69104727D01*
X54056024Y-68916132D01*
X54075341Y-68720000D01*
X55944659Y-68720000D01*
X55963976Y-68916133D01*
X56021185Y-69104726D01*
X56021186Y-69104727D01*
X56114090Y-69278538D01*
X56239117Y-69430883D01*
X56391462Y-69555910D01*
X56565273Y-69648814D01*
X56753868Y-69706024D01*
X56950000Y-69725341D01*
X57146132Y-69706024D01*
X57334727Y-69648814D01*
X57508538Y-69555910D01*
X57660883Y-69430883D01*
X57785910Y-69278538D01*
X57878814Y-69104727D01*
X57936024Y-68916132D01*
X57955341Y-68720000D01*
X57936024Y-68523868D01*
X57878814Y-68335273D01*
X57785910Y-68161462D01*
X57660883Y-68009117D01*
X57508538Y-67884090D01*
X57476709Y-67867077D01*
X57334726Y-67791185D01*
X57146133Y-67733976D01*
X56950000Y-67714659D01*
X56753866Y-67733976D01*
X56565273Y-67791185D01*
X56391463Y-67884089D01*
X56239117Y-68009117D01*
X56114089Y-68161463D01*
X56021185Y-68335273D01*
X55963976Y-68523866D01*
X55944659Y-68720000D01*
X54075341Y-68720000D01*
X54056024Y-68523868D01*
X53998814Y-68335273D01*
X53905910Y-68161462D01*
X53780883Y-68009117D01*
X53628538Y-67884090D01*
X53596709Y-67867077D01*
X53454726Y-67791185D01*
X53266133Y-67733976D01*
X53070000Y-67714659D01*
X52873866Y-67733976D01*
X52685273Y-67791185D01*
X52511463Y-67884089D01*
X52359117Y-68009117D01*
X52234089Y-68161463D01*
X52141185Y-68335273D01*
X52083976Y-68523866D01*
X52064659Y-68720000D01*
X46455341Y-68720000D01*
X46436024Y-68523868D01*
X46378814Y-68335273D01*
X46285910Y-68161462D01*
X46160883Y-68009117D01*
X46008538Y-67884090D01*
X45976709Y-67867077D01*
X45834726Y-67791185D01*
X45646133Y-67733976D01*
X45450000Y-67714659D01*
X45253866Y-67733976D01*
X45065273Y-67791185D01*
X44891463Y-67884089D01*
X44739117Y-68009117D01*
X44614089Y-68161463D01*
X44521185Y-68335273D01*
X44463976Y-68523866D01*
X44444659Y-68720000D01*
X42825341Y-68720000D01*
X42806024Y-68523868D01*
X42748814Y-68335273D01*
X42655910Y-68161462D01*
X42530883Y-68009117D01*
X42378538Y-67884090D01*
X42346709Y-67867077D01*
X42204726Y-67791185D01*
X42016133Y-67733976D01*
X41820000Y-67714659D01*
X41623866Y-67733976D01*
X41435273Y-67791185D01*
X41261463Y-67884089D01*
X41109117Y-68009117D01*
X40984089Y-68161463D01*
X40891185Y-68335273D01*
X40833976Y-68523866D01*
X40814659Y-68720000D01*
X35205341Y-68720000D01*
X35186024Y-68523868D01*
X35128814Y-68335273D01*
X35035910Y-68161462D01*
X34910883Y-68009117D01*
X34758538Y-67884090D01*
X34726709Y-67867077D01*
X34584726Y-67791185D01*
X34396133Y-67733976D01*
X34200000Y-67714659D01*
X34003866Y-67733976D01*
X33815273Y-67791185D01*
X33641463Y-67884089D01*
X33489117Y-68009117D01*
X33364089Y-68161463D01*
X33271185Y-68335273D01*
X33213976Y-68523866D01*
X33194659Y-68720000D01*
X31825500Y-68720000D01*
X31825500Y-63640000D01*
X33194659Y-63640000D01*
X33213976Y-63836133D01*
X33271185Y-64024726D01*
X33302409Y-64083142D01*
X33364090Y-64198538D01*
X33489117Y-64350883D01*
X33641462Y-64475910D01*
X33815273Y-64568814D01*
X34003868Y-64626024D01*
X34200000Y-64645341D01*
X34396132Y-64626024D01*
X34584727Y-64568814D01*
X34758538Y-64475910D01*
X34910883Y-64350883D01*
X35035910Y-64198538D01*
X35128814Y-64024727D01*
X35186024Y-63836132D01*
X35205341Y-63640000D01*
X35186024Y-63443868D01*
X35128814Y-63255273D01*
X35035910Y-63081462D01*
X34910883Y-62929117D01*
X34758538Y-62804090D01*
X34685842Y-62765233D01*
X34584726Y-62711185D01*
X34396133Y-62653976D01*
X34200000Y-62634659D01*
X34003866Y-62653976D01*
X33815273Y-62711185D01*
X33641463Y-62804089D01*
X33489117Y-62929117D01*
X33364089Y-63081463D01*
X33271185Y-63255273D01*
X33213976Y-63443866D01*
X33194659Y-63640000D01*
X31825500Y-63640000D01*
X31825500Y-61919749D01*
X33199500Y-61919749D01*
X33211132Y-61978230D01*
X33255447Y-62044552D01*
X33321769Y-62088867D01*
X33380251Y-62100500D01*
X33380252Y-62100500D01*
X35019748Y-62100500D01*
X35019749Y-62100500D01*
X35048989Y-62094683D01*
X35078231Y-62088867D01*
X35144552Y-62044552D01*
X35188867Y-61978231D01*
X35200500Y-61919748D01*
X35200500Y-60280252D01*
X35198696Y-60271185D01*
X35188867Y-60221769D01*
X35144552Y-60155447D01*
X35078230Y-60111132D01*
X35019749Y-60099500D01*
X35019748Y-60099500D01*
X33380252Y-60099500D01*
X33380251Y-60099500D01*
X33321769Y-60111132D01*
X33255447Y-60155447D01*
X33211132Y-60221769D01*
X33199500Y-60280251D01*
X33199500Y-61919749D01*
X31825500Y-61919749D01*
X31825500Y-61072584D01*
X31834939Y-61025131D01*
X31861819Y-60984903D01*
X33316533Y-59530189D01*
X33356761Y-59503309D01*
X33404214Y-59493870D01*
X43539406Y-59493870D01*
X43597859Y-59508512D01*
G37*
%TD.AperFunction*%
%TA.AperFunction,Conductor*%
G36*
X54161265Y-74134939D02*
G01*
X54201492Y-74161818D01*
X54692753Y-74653080D01*
X55180955Y-75141282D01*
X55188263Y-75149256D01*
X55212545Y-75178194D01*
X55245266Y-75197085D01*
X55254360Y-75202878D01*
X55285316Y-75224554D01*
X55285317Y-75224554D01*
X55286201Y-75225173D01*
X55310891Y-75235400D01*
X55311954Y-75235587D01*
X55311955Y-75235588D01*
X55349146Y-75242145D01*
X55359704Y-75244486D01*
X55396191Y-75254263D01*
X55396192Y-75254262D01*
X55396193Y-75254263D01*
X55433811Y-75250971D01*
X55444618Y-75250500D01*
X56275877Y-75250500D01*
X56334330Y-75265142D01*
X56378979Y-75305609D01*
X56399280Y-75362346D01*
X56390438Y-75421952D01*
X56354542Y-75470353D01*
X56203945Y-75593945D01*
X56072731Y-75753828D01*
X55975233Y-75936235D01*
X55928590Y-76090000D01*
X57971411Y-76090000D01*
X57966874Y-76075044D01*
X57964329Y-76012870D01*
X57975713Y-75990253D01*
X57974707Y-75990001D01*
X57927349Y-75941067D01*
X57827268Y-75753828D01*
X57696054Y-75593945D01*
X57545458Y-75470353D01*
X57509562Y-75421952D01*
X57500720Y-75362346D01*
X57521021Y-75305609D01*
X57565670Y-75265142D01*
X57624123Y-75250500D01*
X58124918Y-75250500D01*
X58190398Y-75269199D01*
X58236130Y-75319655D01*
X58248321Y-75386652D01*
X58230560Y-75431599D01*
X58231711Y-75432076D01*
X58164956Y-75593237D01*
X58144317Y-75750000D01*
X58159646Y-75866429D01*
X58149654Y-75933790D01*
X58148184Y-75935521D01*
X58162620Y-75941920D01*
X58200095Y-75991595D01*
X58225464Y-76052841D01*
X58321717Y-76178282D01*
X58447158Y-76274535D01*
X58447159Y-76274536D01*
X58593238Y-76335044D01*
X58750000Y-76355682D01*
X58906762Y-76335044D01*
X59052841Y-76274536D01*
X59178282Y-76178282D01*
X59219923Y-76124013D01*
X59263455Y-76088288D01*
X59318299Y-76075500D01*
X63236769Y-76075500D01*
X63247576Y-76075971D01*
X63285203Y-76079264D01*
X63321720Y-76069478D01*
X63332226Y-76067149D01*
X63369441Y-76060588D01*
X63369443Y-76060586D01*
X63370508Y-76060399D01*
X63397809Y-76049091D01*
X63417207Y-76043895D01*
X63417660Y-76045586D01*
X63452949Y-76033658D01*
X63520607Y-76050504D01*
X63568480Y-76101196D01*
X63581430Y-76169707D01*
X63564658Y-76339999D01*
X63583975Y-76536130D01*
X63639106Y-76717870D01*
X63640729Y-76783994D01*
X63608126Y-76841546D01*
X63346490Y-77103183D01*
X63306265Y-77130061D01*
X63258812Y-77139500D01*
X57914370Y-77139500D01*
X57848030Y-77120262D01*
X57802275Y-77068517D01*
X57791303Y-77000321D01*
X57818517Y-76936835D01*
X57827268Y-76926171D01*
X57924766Y-76743764D01*
X57971410Y-76590000D01*
X55928590Y-76590000D01*
X55975233Y-76743764D01*
X56072731Y-76926171D01*
X56081483Y-76936835D01*
X56108697Y-77000321D01*
X56097725Y-77068517D01*
X56051970Y-77120262D01*
X55985630Y-77139500D01*
X55651189Y-77139500D01*
X55603736Y-77130061D01*
X55563508Y-77103181D01*
X54584043Y-76123717D01*
X54576734Y-76115741D01*
X54552455Y-76086806D01*
X54552454Y-76086805D01*
X54519736Y-76067915D01*
X54510627Y-76062112D01*
X54482782Y-76042615D01*
X54478803Y-76039829D01*
X54454107Y-76029599D01*
X54415852Y-76022853D01*
X54405296Y-76020512D01*
X54368807Y-76010735D01*
X54331180Y-76014028D01*
X54320372Y-76014500D01*
X54104795Y-76014500D01*
X54041046Y-75996858D01*
X53995437Y-75948954D01*
X53945809Y-75856109D01*
X53905910Y-75781462D01*
X53780883Y-75629117D01*
X53628538Y-75504090D01*
X53551161Y-75462731D01*
X53454726Y-75411185D01*
X53266133Y-75353976D01*
X53070000Y-75334659D01*
X52873866Y-75353976D01*
X52685273Y-75411185D01*
X52511463Y-75504089D01*
X52359117Y-75629117D01*
X52234090Y-75781461D01*
X52144563Y-75948954D01*
X52098954Y-75996858D01*
X52035205Y-76014500D01*
X51929616Y-76014500D01*
X51918808Y-76014028D01*
X51881193Y-76010736D01*
X51844716Y-76020510D01*
X51834162Y-76022849D01*
X51795905Y-76029595D01*
X51771190Y-76039834D01*
X51739377Y-76062108D01*
X51730261Y-76067915D01*
X51697545Y-76086804D01*
X51673262Y-76115743D01*
X51665956Y-76123715D01*
X44576493Y-83213181D01*
X44536265Y-83240061D01*
X44488812Y-83249500D01*
X39501575Y-83249500D01*
X39443949Y-83235297D01*
X39399525Y-83195940D01*
X39338184Y-83107072D01*
X39316981Y-83088288D01*
X39210852Y-82994266D01*
X39178639Y-82977359D01*
X39060224Y-82915209D01*
X38952701Y-82888708D01*
X38896029Y-82857307D01*
X38862930Y-82801609D01*
X38862441Y-82736821D01*
X38894695Y-82680630D01*
X39349862Y-82225464D01*
X41208507Y-80366819D01*
X41248736Y-80339939D01*
X41296189Y-80330500D01*
X45896364Y-80330500D01*
X45907171Y-80330971D01*
X45944798Y-80334264D01*
X45981315Y-80324478D01*
X45991821Y-80322149D01*
X46029036Y-80315588D01*
X46029038Y-80315586D01*
X46030103Y-80315399D01*
X46054790Y-80305173D01*
X46055673Y-80304554D01*
X46055675Y-80304554D01*
X46086616Y-80282887D01*
X46095713Y-80277091D01*
X46128446Y-80258194D01*
X46152739Y-80229241D01*
X46160026Y-80221289D01*
X46791296Y-79590020D01*
X46799250Y-79582731D01*
X46828194Y-79558446D01*
X46847102Y-79525694D01*
X46852878Y-79516629D01*
X46874553Y-79485675D01*
X46874553Y-79485672D01*
X46875171Y-79484791D01*
X46885400Y-79460096D01*
X46885586Y-79459038D01*
X46885588Y-79459036D01*
X46892150Y-79421815D01*
X46894480Y-79411303D01*
X46904263Y-79374798D01*
X46903772Y-79369193D01*
X46910777Y-79315979D01*
X46939617Y-79270708D01*
X51982701Y-74227624D01*
X52031483Y-74197566D01*
X52088574Y-74192649D01*
X52141780Y-74213926D01*
X52179738Y-74256853D01*
X52234090Y-74358538D01*
X52359117Y-74510883D01*
X52511462Y-74635910D01*
X52685273Y-74728814D01*
X52873868Y-74786024D01*
X53070000Y-74805341D01*
X53266132Y-74786024D01*
X53454727Y-74728814D01*
X53628538Y-74635910D01*
X53780883Y-74510883D01*
X53905910Y-74358538D01*
X53983207Y-74213926D01*
X53995437Y-74191046D01*
X54041046Y-74143142D01*
X54104795Y-74125500D01*
X54113812Y-74125500D01*
X54161265Y-74134939D01*
G37*
%TD.AperFunction*%
%TA.AperFunction,Conductor*%
G36*
X67137500Y-60317113D02*
G01*
X67182887Y-60362500D01*
X67199500Y-60424500D01*
X67199500Y-62019749D01*
X67211132Y-62078230D01*
X67255447Y-62144552D01*
X67321769Y-62188867D01*
X67380251Y-62200500D01*
X67380252Y-62200500D01*
X68688812Y-62200500D01*
X68736265Y-62209939D01*
X68776492Y-62236818D01*
X69639730Y-63100057D01*
X70495955Y-63956282D01*
X70503263Y-63964256D01*
X70527545Y-63993194D01*
X70541003Y-64000963D01*
X70560261Y-64012083D01*
X70569382Y-64017894D01*
X70601195Y-64040169D01*
X70625901Y-64050402D01*
X70626954Y-64050587D01*
X70626955Y-64050588D01*
X70664143Y-64057145D01*
X70674701Y-64059484D01*
X70711193Y-64069263D01*
X70711193Y-64069262D01*
X70711194Y-64069263D01*
X70732086Y-64067435D01*
X70748811Y-64065971D01*
X70759618Y-64065500D01*
X74785205Y-64065500D01*
X74848954Y-64083142D01*
X74894563Y-64131046D01*
X74950109Y-64234964D01*
X74984090Y-64298538D01*
X75109117Y-64450883D01*
X75113705Y-64454648D01*
X75149601Y-64503049D01*
X75158442Y-64562655D01*
X75138141Y-64619391D01*
X75093492Y-64659858D01*
X75035039Y-64674500D01*
X69053577Y-64674500D01*
X68987237Y-64655262D01*
X68941482Y-64603517D01*
X68930510Y-64535321D01*
X68957724Y-64471835D01*
X69077268Y-64326170D01*
X69174766Y-64143764D01*
X69221410Y-63990000D01*
X67178590Y-63990000D01*
X67225233Y-64143764D01*
X67322731Y-64326170D01*
X67442276Y-64471835D01*
X67469490Y-64535321D01*
X67458518Y-64603517D01*
X67412763Y-64655262D01*
X67346423Y-64674500D01*
X65233112Y-64674500D01*
X65174659Y-64659858D01*
X65130010Y-64619391D01*
X65109709Y-64562655D01*
X65118551Y-64503048D01*
X65154447Y-64454647D01*
X65164741Y-64446199D01*
X65280883Y-64350883D01*
X65405910Y-64198538D01*
X65498814Y-64024727D01*
X65556024Y-63836132D01*
X65575341Y-63640000D01*
X65560568Y-63490000D01*
X67178590Y-63490000D01*
X67950000Y-63490000D01*
X67950000Y-62718590D01*
X68450000Y-62718590D01*
X68450000Y-63490000D01*
X69221410Y-63490000D01*
X69174766Y-63336235D01*
X69077268Y-63153828D01*
X68946054Y-62993945D01*
X68786171Y-62862731D01*
X68603764Y-62765233D01*
X68450000Y-62718590D01*
X67950000Y-62718590D01*
X67796235Y-62765233D01*
X67613828Y-62862731D01*
X67453945Y-62993945D01*
X67322731Y-63153828D01*
X67225233Y-63336235D01*
X67178590Y-63490000D01*
X65560568Y-63490000D01*
X65556024Y-63443868D01*
X65498814Y-63255273D01*
X65405910Y-63081462D01*
X65280883Y-62929117D01*
X65128538Y-62804090D01*
X65055842Y-62765233D01*
X64954726Y-62711185D01*
X64766133Y-62653976D01*
X64570000Y-62634659D01*
X64373866Y-62653976D01*
X64185273Y-62711185D01*
X64011463Y-62804089D01*
X63859117Y-62929117D01*
X63734089Y-63081463D01*
X63641185Y-63255273D01*
X63583976Y-63443866D01*
X63564659Y-63639999D01*
X63583976Y-63836133D01*
X63641185Y-64024726D01*
X63672409Y-64083142D01*
X63734090Y-64198538D01*
X63859117Y-64350883D01*
X63971020Y-64442720D01*
X63985553Y-64454647D01*
X64021449Y-64503048D01*
X64030291Y-64562655D01*
X64009990Y-64619391D01*
X63965341Y-64659858D01*
X63906888Y-64674500D01*
X57613112Y-64674500D01*
X57554659Y-64659858D01*
X57510010Y-64619391D01*
X57489709Y-64562655D01*
X57498551Y-64503048D01*
X57534447Y-64454647D01*
X57544741Y-64446199D01*
X57660883Y-64350883D01*
X57785910Y-64198538D01*
X57878814Y-64024727D01*
X57936024Y-63836132D01*
X57955341Y-63640000D01*
X57936024Y-63443868D01*
X57878814Y-63255273D01*
X57785910Y-63081462D01*
X57660883Y-62929117D01*
X57508538Y-62804090D01*
X57490183Y-62794279D01*
X57470687Y-62783858D01*
X57423413Y-62739290D01*
X57405164Y-62676935D01*
X57420950Y-62613911D01*
X57466438Y-62567521D01*
X57529140Y-62550500D01*
X63425373Y-62550500D01*
X63436180Y-62550971D01*
X63473807Y-62554264D01*
X63510324Y-62544478D01*
X63520830Y-62542149D01*
X63558045Y-62535588D01*
X63558047Y-62535586D01*
X63559112Y-62535399D01*
X63583799Y-62525173D01*
X63584682Y-62524554D01*
X63584684Y-62524554D01*
X63615625Y-62502887D01*
X63624722Y-62497091D01*
X63657455Y-62478194D01*
X63681748Y-62449241D01*
X63689036Y-62441288D01*
X64068453Y-62061871D01*
X64126003Y-62029270D01*
X64192126Y-62030892D01*
X64373868Y-62086024D01*
X64570000Y-62105341D01*
X64766132Y-62086024D01*
X64954727Y-62028814D01*
X65128538Y-61935910D01*
X65280883Y-61810883D01*
X65405910Y-61658538D01*
X65498814Y-61484727D01*
X65556024Y-61296132D01*
X65575341Y-61100000D01*
X65556024Y-60903868D01*
X65498814Y-60715273D01*
X65405910Y-60541462D01*
X65374479Y-60503164D01*
X65347266Y-60439679D01*
X65358238Y-60371483D01*
X65403993Y-60319738D01*
X65470333Y-60300500D01*
X67075500Y-60300500D01*
X67137500Y-60317113D01*
G37*
%TD.AperFunction*%
%TA.AperFunction,Conductor*%
G36*
X69821952Y-35055724D02*
G01*
X69849618Y-35067183D01*
X69892738Y-35085044D01*
X70023606Y-35102273D01*
X70049499Y-35105682D01*
X70049499Y-35105681D01*
X70049500Y-35105682D01*
X70117318Y-35096753D01*
X70173362Y-35102273D01*
X70221185Y-35132011D01*
X70638181Y-35549007D01*
X70665061Y-35589235D01*
X70674500Y-35636688D01*
X70674500Y-41181701D01*
X70661712Y-41236545D01*
X70625986Y-41280077D01*
X70571717Y-41321718D01*
X70475463Y-41447159D01*
X70414956Y-41593237D01*
X70394317Y-41750000D01*
X70414956Y-41906762D01*
X70475463Y-42052840D01*
X70571717Y-42178282D01*
X70685176Y-42265341D01*
X70697159Y-42274536D01*
X70843238Y-42335044D01*
X71000000Y-42355682D01*
X71156762Y-42335044D01*
X71241694Y-42299863D01*
X71315298Y-42269377D01*
X71374905Y-42260535D01*
X71431641Y-42280836D01*
X71472108Y-42325485D01*
X71486750Y-42383938D01*
X71486750Y-52932738D01*
X71477311Y-52980191D01*
X71450431Y-53020419D01*
X66682669Y-57788181D01*
X66642441Y-57815061D01*
X66594988Y-57824500D01*
X56932980Y-57824500D01*
X56876685Y-57810985D01*
X56832662Y-57773385D01*
X56810507Y-57719898D01*
X56815049Y-57662182D01*
X56845299Y-57612819D01*
X57956135Y-56501983D01*
X61314281Y-53143835D01*
X61339954Y-53124135D01*
X61355010Y-53115444D01*
X61379303Y-53086491D01*
X61386590Y-53078539D01*
X63672138Y-50792992D01*
X63672141Y-50792990D01*
X63689579Y-50775552D01*
X63689580Y-50775552D01*
X63770747Y-50694385D01*
X63778385Y-50678005D01*
X63789193Y-50659284D01*
X63799554Y-50644489D01*
X63804229Y-50627037D01*
X63811623Y-50606724D01*
X63819259Y-50590351D01*
X63820834Y-50572342D01*
X63824584Y-50551075D01*
X63829264Y-50533612D01*
X63827688Y-50515602D01*
X63827688Y-50494005D01*
X63829264Y-50475998D01*
X63824585Y-50458540D01*
X63820835Y-50437272D01*
X63819260Y-50419260D01*
X63811622Y-50402880D01*
X63804229Y-50382568D01*
X63799554Y-50365120D01*
X63792926Y-50355655D01*
X63776239Y-50321818D01*
X63770500Y-50284530D01*
X63770500Y-49780333D01*
X63789738Y-49713993D01*
X63841483Y-49668238D01*
X63909679Y-49657266D01*
X63973164Y-49684479D01*
X64011462Y-49715910D01*
X64185273Y-49808814D01*
X64373868Y-49866024D01*
X64570000Y-49885341D01*
X64766132Y-49866024D01*
X64954727Y-49808814D01*
X65128538Y-49715910D01*
X65280883Y-49590883D01*
X65405910Y-49438538D01*
X65466642Y-49324915D01*
X65511210Y-49277642D01*
X65573565Y-49259393D01*
X65636589Y-49275179D01*
X65682979Y-49320667D01*
X65700000Y-49383369D01*
X65700000Y-50153284D01*
X65687212Y-50208128D01*
X65651486Y-50251660D01*
X65559993Y-50321863D01*
X65463739Y-50447305D01*
X65403232Y-50593383D01*
X65382593Y-50750145D01*
X65403232Y-50906908D01*
X65463739Y-51052986D01*
X65559993Y-51178428D01*
X65658530Y-51254037D01*
X65685435Y-51274682D01*
X65831514Y-51335190D01*
X65988276Y-51355828D01*
X66145038Y-51335190D01*
X66291117Y-51274682D01*
X66416558Y-51178428D01*
X66416559Y-51178426D01*
X66420610Y-51175318D01*
X66469258Y-51152632D01*
X66522935Y-51152632D01*
X66571583Y-51175317D01*
X66684860Y-51262237D01*
X66830939Y-51322745D01*
X66987701Y-51343383D01*
X67144463Y-51322745D01*
X67290542Y-51262237D01*
X67415983Y-51165983D01*
X67512237Y-51040542D01*
X67572745Y-50894463D01*
X67593383Y-50737701D01*
X67572745Y-50580939D01*
X67512237Y-50434860D01*
X67500267Y-50419260D01*
X67415983Y-50309418D01*
X67290541Y-50213164D01*
X67152048Y-50155799D01*
X67111819Y-50128919D01*
X67084939Y-50088691D01*
X67075500Y-50041238D01*
X67075500Y-49498669D01*
X67092521Y-49435967D01*
X67138911Y-49390480D01*
X67201935Y-49374693D01*
X67264290Y-49392942D01*
X67308858Y-49440216D01*
X67322731Y-49466170D01*
X67453945Y-49626054D01*
X67613828Y-49757268D01*
X67796235Y-49854766D01*
X67950000Y-49901410D01*
X67950000Y-49130000D01*
X68450000Y-49130000D01*
X68450000Y-49901410D01*
X68603764Y-49854766D01*
X68786171Y-49757268D01*
X68946054Y-49626054D01*
X69077268Y-49466171D01*
X69174766Y-49283764D01*
X69221410Y-49130000D01*
X68450000Y-49130000D01*
X67950000Y-49130000D01*
X67950000Y-47858590D01*
X68450000Y-47858590D01*
X68450000Y-48630000D01*
X69221410Y-48630000D01*
X69174766Y-48476235D01*
X69077268Y-48293828D01*
X68946054Y-48133945D01*
X68786171Y-48002731D01*
X68603764Y-47905233D01*
X68450000Y-47858590D01*
X67950000Y-47858590D01*
X67796235Y-47905233D01*
X67613828Y-48002731D01*
X67453945Y-48133945D01*
X67322731Y-48293829D01*
X67308858Y-48319784D01*
X67264290Y-48367058D01*
X67201935Y-48385307D01*
X67138911Y-48369520D01*
X67092521Y-48324033D01*
X67075500Y-48261331D01*
X67075500Y-46958669D01*
X67092521Y-46895967D01*
X67138911Y-46850480D01*
X67201935Y-46834693D01*
X67264290Y-46852942D01*
X67308858Y-46900216D01*
X67322731Y-46926170D01*
X67453945Y-47086054D01*
X67613828Y-47217268D01*
X67796235Y-47314766D01*
X67950000Y-47361410D01*
X67950000Y-46590000D01*
X68450000Y-46590000D01*
X68450000Y-47361410D01*
X68603764Y-47314766D01*
X68786171Y-47217268D01*
X68946054Y-47086054D01*
X69077268Y-46926171D01*
X69174766Y-46743764D01*
X69221410Y-46590000D01*
X68450000Y-46590000D01*
X67950000Y-46590000D01*
X67950000Y-45318590D01*
X68450000Y-45318590D01*
X68450000Y-46090000D01*
X69221410Y-46090000D01*
X69174766Y-45936235D01*
X69077268Y-45753828D01*
X68946054Y-45593945D01*
X68786171Y-45462731D01*
X68603764Y-45365233D01*
X68450000Y-45318590D01*
X67950000Y-45318590D01*
X67796235Y-45365233D01*
X67613828Y-45462731D01*
X67453945Y-45593945D01*
X67322731Y-45753829D01*
X67308858Y-45779784D01*
X67264290Y-45827058D01*
X67201935Y-45845307D01*
X67138911Y-45829520D01*
X67092521Y-45784033D01*
X67075500Y-45721331D01*
X67075500Y-44313659D01*
X67092521Y-44250957D01*
X67138911Y-44205469D01*
X67201935Y-44189683D01*
X67264290Y-44207932D01*
X67308857Y-44255205D01*
X67364090Y-44358538D01*
X67489117Y-44510883D01*
X67641462Y-44635910D01*
X67815273Y-44728814D01*
X68003868Y-44786024D01*
X68200000Y-44805341D01*
X68396132Y-44786024D01*
X68584727Y-44728814D01*
X68758538Y-44635910D01*
X68910883Y-44510883D01*
X69035910Y-44358538D01*
X69128814Y-44184727D01*
X69186024Y-43996132D01*
X69205341Y-43800000D01*
X69186024Y-43603868D01*
X69130892Y-43422126D01*
X69129270Y-43356004D01*
X69161873Y-43298452D01*
X69320646Y-43139679D01*
X69541296Y-42919029D01*
X69549249Y-42911741D01*
X69578194Y-42887455D01*
X69597082Y-42854738D01*
X69602881Y-42845635D01*
X69624554Y-42814684D01*
X69624554Y-42814682D01*
X69625173Y-42813799D01*
X69635398Y-42789112D01*
X69635585Y-42788049D01*
X69635588Y-42788045D01*
X69642150Y-42750822D01*
X69644479Y-42740316D01*
X69654263Y-42703807D01*
X69650971Y-42666188D01*
X69650500Y-42655382D01*
X69650500Y-35170285D01*
X69665142Y-35111832D01*
X69705609Y-35067183D01*
X69762345Y-35046882D01*
X69821952Y-35055724D01*
G37*
%TD.AperFunction*%
%TA.AperFunction,Conductor*%
G36*
X40796106Y-25014015D02*
G01*
X40840129Y-25051615D01*
X40862284Y-25105102D01*
X40857742Y-25162818D01*
X40827492Y-25212181D01*
X39671684Y-26367988D01*
X39623862Y-26397726D01*
X39567818Y-26403246D01*
X39500000Y-26394317D01*
X39343237Y-26414956D01*
X39197159Y-26475463D01*
X39071717Y-26571717D01*
X38975463Y-26697159D01*
X38914956Y-26843237D01*
X38894317Y-27000000D01*
X38914956Y-27156762D01*
X38975463Y-27302840D01*
X39071717Y-27428282D01*
X39165183Y-27500000D01*
X39197159Y-27524536D01*
X39343238Y-27585044D01*
X39500000Y-27605682D01*
X39656762Y-27585044D01*
X39802841Y-27524536D01*
X39928282Y-27428282D01*
X40024536Y-27302841D01*
X40085044Y-27156762D01*
X40105682Y-27000000D01*
X40102452Y-26975464D01*
X40096753Y-26932180D01*
X40102273Y-26876136D01*
X40132009Y-26828315D01*
X41348506Y-25611819D01*
X41388735Y-25584939D01*
X41436188Y-25575500D01*
X72924106Y-25575500D01*
X72977123Y-25587405D01*
X73019959Y-25620835D01*
X73044390Y-25669370D01*
X73045723Y-25723691D01*
X73029500Y-25805250D01*
X73029500Y-25875500D01*
X73012887Y-25937500D01*
X72967500Y-25982887D01*
X72905500Y-25999500D01*
X69502480Y-25999500D01*
X69470385Y-25995274D01*
X69453196Y-25990668D01*
X69442881Y-25987416D01*
X69406381Y-25974131D01*
X69379876Y-25970642D01*
X69341181Y-25974028D01*
X69330373Y-25974500D01*
X69291534Y-25974500D01*
X69265426Y-25980287D01*
X69230217Y-25996705D01*
X69220230Y-26000842D01*
X69183729Y-26014128D01*
X69161175Y-26028496D01*
X69133701Y-26055969D01*
X69125730Y-26063273D01*
X69095984Y-26088233D01*
X69079706Y-26109447D01*
X69071017Y-26128081D01*
X69046317Y-26163355D01*
X65071546Y-30138126D01*
X65013994Y-30170729D01*
X64947870Y-30169106D01*
X64766130Y-30113975D01*
X64570000Y-30094659D01*
X64373866Y-30113976D01*
X64185273Y-30171185D01*
X64011463Y-30264089D01*
X63859117Y-30389117D01*
X63734089Y-30541463D01*
X63641185Y-30715273D01*
X63583976Y-30903866D01*
X63564659Y-31100000D01*
X63583976Y-31296133D01*
X63641185Y-31484726D01*
X63703628Y-31601547D01*
X63734090Y-31658538D01*
X63859117Y-31810883D01*
X64011462Y-31935910D01*
X64185273Y-32028814D01*
X64373868Y-32086024D01*
X64570000Y-32105341D01*
X64766132Y-32086024D01*
X64954727Y-32028814D01*
X65128538Y-31935910D01*
X65280883Y-31810883D01*
X65405910Y-31658538D01*
X65498814Y-31484727D01*
X65556024Y-31296132D01*
X65575341Y-31100000D01*
X65556024Y-30903868D01*
X65500892Y-30722126D01*
X65499270Y-30656004D01*
X65531873Y-30598452D01*
X69443507Y-26686819D01*
X69483735Y-26659939D01*
X69531188Y-26650500D01*
X72905500Y-26650500D01*
X72967500Y-26667113D01*
X73012887Y-26712500D01*
X73029500Y-26774500D01*
X73029500Y-26844749D01*
X73041132Y-26903230D01*
X73085447Y-26969552D01*
X73151769Y-27013867D01*
X73210251Y-27025500D01*
X74071917Y-27025500D01*
X74128212Y-27039015D01*
X74172235Y-27076615D01*
X74194390Y-27130102D01*
X74189848Y-27187818D01*
X74159598Y-27237181D01*
X71783599Y-29613181D01*
X71743371Y-29640061D01*
X71695918Y-29649500D01*
X67094628Y-29649500D01*
X67083820Y-29649028D01*
X67046192Y-29645735D01*
X67009704Y-29655512D01*
X66999148Y-29657852D01*
X66960899Y-29664597D01*
X66936193Y-29674831D01*
X66904380Y-29697106D01*
X66895264Y-29702914D01*
X66862545Y-29721805D01*
X66838262Y-29750744D01*
X66830956Y-29758716D01*
X66783714Y-29805958D01*
X66775741Y-29813264D01*
X66746806Y-29837544D01*
X66727914Y-29870264D01*
X66722106Y-29879380D01*
X66699831Y-29911193D01*
X66689597Y-29935899D01*
X66682852Y-29974148D01*
X66680512Y-29984704D01*
X66670735Y-30021192D01*
X66674028Y-30058820D01*
X66674500Y-30069628D01*
X66674500Y-31980372D01*
X66674028Y-31991180D01*
X66670735Y-32028807D01*
X66680512Y-32065296D01*
X66682853Y-32075852D01*
X66689599Y-32114107D01*
X66699829Y-32138803D01*
X66700446Y-32139684D01*
X66722112Y-32170627D01*
X66727915Y-32179736D01*
X66746806Y-32212455D01*
X66775742Y-32236735D01*
X66783718Y-32244044D01*
X67270950Y-32731276D01*
X67278258Y-32739250D01*
X67302545Y-32768194D01*
X67319408Y-32777930D01*
X67335256Y-32787080D01*
X67344379Y-32792892D01*
X67393228Y-32827096D01*
X67392210Y-32828549D01*
X67413307Y-32840383D01*
X67445868Y-32892258D01*
X67449627Y-32953390D01*
X67423669Y-33008864D01*
X67364089Y-33081463D01*
X67271185Y-33255273D01*
X67213976Y-33443866D01*
X67194659Y-33640000D01*
X67213976Y-33836133D01*
X67271185Y-34024726D01*
X67302865Y-34083995D01*
X67364090Y-34198538D01*
X67489117Y-34350883D01*
X67641462Y-34475910D01*
X67815273Y-34568814D01*
X68003868Y-34626024D01*
X68200000Y-34645341D01*
X68396132Y-34626024D01*
X68584727Y-34568814D01*
X68758538Y-34475910D01*
X68796835Y-34444479D01*
X68860321Y-34417266D01*
X68928517Y-34428238D01*
X68980262Y-34473993D01*
X68999500Y-34540333D01*
X68999500Y-35279667D01*
X68980262Y-35346007D01*
X68928517Y-35391762D01*
X68860321Y-35402734D01*
X68796835Y-35375520D01*
X68758538Y-35344090D01*
X68696287Y-35310816D01*
X68584726Y-35251185D01*
X68396133Y-35193976D01*
X68200000Y-35174659D01*
X68003866Y-35193976D01*
X67815273Y-35251185D01*
X67641463Y-35344089D01*
X67489117Y-35469117D01*
X67364089Y-35621463D01*
X67271185Y-35795273D01*
X67213976Y-35983866D01*
X67207442Y-36050205D01*
X67194659Y-36180000D01*
X67196153Y-36195165D01*
X67213976Y-36376133D01*
X67271185Y-36564726D01*
X67326517Y-36668244D01*
X67364090Y-36738538D01*
X67489117Y-36890883D01*
X67641462Y-37015910D01*
X67815273Y-37108814D01*
X68003868Y-37166024D01*
X68200000Y-37185341D01*
X68396132Y-37166024D01*
X68584727Y-37108814D01*
X68758538Y-37015910D01*
X68796835Y-36984479D01*
X68860321Y-36957266D01*
X68928517Y-36968238D01*
X68980262Y-37013993D01*
X68999500Y-37080333D01*
X68999500Y-37819667D01*
X68980262Y-37886007D01*
X68928517Y-37931762D01*
X68860321Y-37942734D01*
X68796835Y-37915520D01*
X68791185Y-37910883D01*
X68758538Y-37884090D01*
X68674263Y-37839044D01*
X68584726Y-37791185D01*
X68396133Y-37733976D01*
X68200000Y-37714659D01*
X68003866Y-37733976D01*
X67815273Y-37791185D01*
X67641463Y-37884089D01*
X67489117Y-38009117D01*
X67364089Y-38161463D01*
X67271185Y-38335273D01*
X67213976Y-38523866D01*
X67194659Y-38719999D01*
X67213976Y-38916133D01*
X67271185Y-39104726D01*
X67339689Y-39232887D01*
X67364090Y-39278538D01*
X67489117Y-39430883D01*
X67641462Y-39555910D01*
X67815273Y-39648814D01*
X68003868Y-39706024D01*
X68200000Y-39725341D01*
X68396132Y-39706024D01*
X68584727Y-39648814D01*
X68758538Y-39555910D01*
X68796835Y-39524479D01*
X68860321Y-39497266D01*
X68928517Y-39508238D01*
X68980262Y-39553993D01*
X68999500Y-39620333D01*
X68999500Y-40359667D01*
X68980262Y-40426007D01*
X68928517Y-40471762D01*
X68860321Y-40482734D01*
X68796835Y-40455520D01*
X68783059Y-40444214D01*
X68758538Y-40424090D01*
X68707890Y-40397018D01*
X68584726Y-40331185D01*
X68396133Y-40273976D01*
X68251071Y-40259689D01*
X68200000Y-40254659D01*
X68199999Y-40254659D01*
X68003866Y-40273976D01*
X67815273Y-40331185D01*
X67641462Y-40424089D01*
X67537930Y-40509057D01*
X67485046Y-40534494D01*
X67426388Y-40532766D01*
X67375094Y-40504260D01*
X67342651Y-40455360D01*
X67336326Y-40397021D01*
X67355682Y-40250000D01*
X67335044Y-40093238D01*
X67274536Y-39947159D01*
X67240433Y-39902715D01*
X67178282Y-39821717D01*
X67052840Y-39725463D01*
X66906762Y-39664956D01*
X66750000Y-39644317D01*
X66593237Y-39664956D01*
X66447159Y-39725463D01*
X66321717Y-39821717D01*
X66225463Y-39947159D01*
X66164956Y-40093237D01*
X66144317Y-40249999D01*
X66164956Y-40406762D01*
X66225463Y-40552840D01*
X66295402Y-40643987D01*
X66321718Y-40678282D01*
X66366312Y-40712500D01*
X66375986Y-40719923D01*
X66411712Y-40763455D01*
X66424500Y-40818299D01*
X66424500Y-41329715D01*
X66409858Y-41388168D01*
X66369391Y-41432817D01*
X66312655Y-41453118D01*
X66253048Y-41444276D01*
X66182262Y-41414956D01*
X66025500Y-41394317D01*
X65868737Y-41414956D01*
X65738084Y-41469074D01*
X65675453Y-41477580D01*
X65616765Y-41454110D01*
X65577270Y-41404763D01*
X65567229Y-41342359D01*
X65575341Y-41260000D01*
X65556024Y-41063868D01*
X65498814Y-40875273D01*
X65405910Y-40701462D01*
X65280883Y-40549117D01*
X65128538Y-40424090D01*
X65077890Y-40397018D01*
X64954726Y-40331185D01*
X64766133Y-40273976D01*
X64621071Y-40259689D01*
X64570000Y-40254659D01*
X64569999Y-40254659D01*
X64373866Y-40273976D01*
X64185273Y-40331185D01*
X64011463Y-40424089D01*
X63973165Y-40455520D01*
X63909679Y-40482734D01*
X63841483Y-40471762D01*
X63789738Y-40426007D01*
X63770500Y-40359667D01*
X63770500Y-40031188D01*
X63779939Y-39983735D01*
X63806819Y-39943507D01*
X63936829Y-39813497D01*
X64068452Y-39681872D01*
X64126004Y-39649270D01*
X64192126Y-39650892D01*
X64373868Y-39706024D01*
X64570000Y-39725341D01*
X64766132Y-39706024D01*
X64954727Y-39648814D01*
X65128538Y-39555910D01*
X65280883Y-39430883D01*
X65405910Y-39278538D01*
X65498814Y-39104727D01*
X65556024Y-38916132D01*
X65575341Y-38720000D01*
X65556024Y-38523868D01*
X65498814Y-38335273D01*
X65405910Y-38161462D01*
X65280883Y-38009117D01*
X65128538Y-37884090D01*
X65044263Y-37839044D01*
X64954726Y-37791185D01*
X64766133Y-37733976D01*
X64570000Y-37714659D01*
X64373866Y-37733976D01*
X64185273Y-37791185D01*
X64011463Y-37884089D01*
X63859117Y-38009117D01*
X63734089Y-38161463D01*
X63641185Y-38335273D01*
X63583976Y-38523866D01*
X63564659Y-38719999D01*
X63583975Y-38916130D01*
X63639106Y-39097870D01*
X63640729Y-39163994D01*
X63608126Y-39221546D01*
X63228714Y-39600958D01*
X63220741Y-39608264D01*
X63191806Y-39632544D01*
X63172914Y-39665264D01*
X63167106Y-39674380D01*
X63144831Y-39706193D01*
X63134597Y-39730899D01*
X63127852Y-39769148D01*
X63125512Y-39779704D01*
X63115735Y-39816192D01*
X63119028Y-39853820D01*
X63119500Y-39864628D01*
X63119500Y-44246363D01*
X63119028Y-44257171D01*
X63115735Y-44294798D01*
X63125512Y-44331287D01*
X63127853Y-44341843D01*
X63134599Y-44380098D01*
X63144830Y-44404797D01*
X63152075Y-44415143D01*
X63168761Y-44448979D01*
X63174500Y-44486266D01*
X63174500Y-45653735D01*
X63168761Y-45691022D01*
X63152077Y-45724853D01*
X63150068Y-45727724D01*
X63144830Y-45735204D01*
X63134597Y-45759908D01*
X63127852Y-45798157D01*
X63125512Y-45808713D01*
X63115735Y-45845201D01*
X63119028Y-45882829D01*
X63119500Y-45893637D01*
X63119500Y-50373617D01*
X63110061Y-50421070D01*
X63083181Y-50461298D01*
X60963817Y-52580660D01*
X60938142Y-52600363D01*
X60923087Y-52609055D01*
X60898804Y-52637994D01*
X60891498Y-52645966D01*
X56962181Y-56575285D01*
X56912818Y-56605535D01*
X56855102Y-56610077D01*
X56801615Y-56587922D01*
X56764015Y-56543899D01*
X56750500Y-56487604D01*
X56750500Y-52261188D01*
X56759939Y-52213735D01*
X56786819Y-52173507D01*
X57553564Y-51406762D01*
X58348849Y-50611476D01*
X58401310Y-50580265D01*
X58462308Y-50577869D01*
X58517059Y-50604868D01*
X58552291Y-50654720D01*
X58559467Y-50715342D01*
X58557603Y-50729497D01*
X58578242Y-50886262D01*
X58638749Y-51032340D01*
X58735003Y-51157782D01*
X58821953Y-51224500D01*
X58860445Y-51254036D01*
X59006524Y-51314544D01*
X59163286Y-51335182D01*
X59320048Y-51314544D01*
X59466127Y-51254036D01*
X59587553Y-51160862D01*
X59636198Y-51138179D01*
X59689875Y-51138179D01*
X59738523Y-51160864D01*
X59821456Y-51224500D01*
X59859948Y-51254036D01*
X60006027Y-51314544D01*
X60162789Y-51335182D01*
X60319551Y-51314544D01*
X60465630Y-51254036D01*
X60591071Y-51157782D01*
X60687325Y-51032341D01*
X60747833Y-50886262D01*
X60768471Y-50729500D01*
X60747833Y-50572738D01*
X60687325Y-50426659D01*
X60669079Y-50402880D01*
X60591071Y-50301217D01*
X60465629Y-50204963D01*
X60319551Y-50144456D01*
X60162787Y-50123817D01*
X60117769Y-50129744D01*
X60061726Y-50124224D01*
X60013906Y-50094488D01*
X59861816Y-49942399D01*
X59834939Y-49902174D01*
X59825500Y-49854721D01*
X59825500Y-40690995D01*
X59834939Y-40643542D01*
X59861819Y-40603314D01*
X59902048Y-40576434D01*
X60027341Y-40524536D01*
X60152782Y-40428282D01*
X60249036Y-40302841D01*
X60309544Y-40156762D01*
X60330182Y-40000000D01*
X60309544Y-39843238D01*
X60249036Y-39697159D01*
X60237307Y-39681873D01*
X60152782Y-39571717D01*
X60027340Y-39475463D01*
X59881262Y-39414956D01*
X59724500Y-39394317D01*
X59567737Y-39414956D01*
X59496952Y-39444276D01*
X59437345Y-39453118D01*
X59380609Y-39432817D01*
X59340142Y-39388168D01*
X59325500Y-39329715D01*
X59325500Y-37211494D01*
X59334939Y-37164042D01*
X59361818Y-37123814D01*
X59441284Y-37044346D01*
X59449249Y-37037046D01*
X59478194Y-37012760D01*
X59497091Y-36980027D01*
X59502887Y-36970930D01*
X59524554Y-36939989D01*
X59524554Y-36939987D01*
X59525173Y-36939104D01*
X59535399Y-36914417D01*
X59535586Y-36913352D01*
X59535588Y-36913350D01*
X59542149Y-36876135D01*
X59544478Y-36865629D01*
X59554264Y-36829112D01*
X59550971Y-36791485D01*
X59550500Y-36780678D01*
X59550500Y-36180000D01*
X63564659Y-36180000D01*
X63566153Y-36195165D01*
X63583976Y-36376133D01*
X63641185Y-36564726D01*
X63696517Y-36668244D01*
X63734090Y-36738538D01*
X63859117Y-36890883D01*
X64011462Y-37015910D01*
X64185273Y-37108814D01*
X64373868Y-37166024D01*
X64570000Y-37185341D01*
X64766132Y-37166024D01*
X64954727Y-37108814D01*
X65128538Y-37015910D01*
X65280883Y-36890883D01*
X65405910Y-36738538D01*
X65498814Y-36564727D01*
X65556024Y-36376132D01*
X65575341Y-36180000D01*
X65556024Y-35983868D01*
X65498814Y-35795273D01*
X65405910Y-35621462D01*
X65280883Y-35469117D01*
X65128538Y-35344090D01*
X65066287Y-35310816D01*
X64954726Y-35251185D01*
X64766133Y-35193976D01*
X64570000Y-35174659D01*
X64373866Y-35193976D01*
X64185273Y-35251185D01*
X64011463Y-35344089D01*
X63859117Y-35469117D01*
X63734089Y-35621463D01*
X63641185Y-35795273D01*
X63583976Y-35983866D01*
X63577442Y-36050205D01*
X63564659Y-36180000D01*
X59550500Y-36180000D01*
X59550500Y-35934627D01*
X59550972Y-35923819D01*
X59554264Y-35886192D01*
X59544487Y-35849706D01*
X59542145Y-35839143D01*
X59540702Y-35830959D01*
X59535588Y-35801955D01*
X59535587Y-35801954D01*
X59535400Y-35800891D01*
X59525171Y-35776198D01*
X59524554Y-35775317D01*
X59524554Y-35775316D01*
X59502892Y-35744379D01*
X59497080Y-35735256D01*
X59478194Y-35702544D01*
X59449255Y-35678262D01*
X59441280Y-35670954D01*
X57911873Y-34141547D01*
X57879270Y-34083995D01*
X57880894Y-34017870D01*
X57900536Y-33953118D01*
X57936024Y-33836132D01*
X57955341Y-33640000D01*
X57955341Y-33639999D01*
X63564659Y-33639999D01*
X63583976Y-33836133D01*
X63641185Y-34024726D01*
X63672865Y-34083995D01*
X63734090Y-34198538D01*
X63859117Y-34350883D01*
X64011462Y-34475910D01*
X64185273Y-34568814D01*
X64373868Y-34626024D01*
X64570000Y-34645341D01*
X64766132Y-34626024D01*
X64954727Y-34568814D01*
X65128538Y-34475910D01*
X65280883Y-34350883D01*
X65405910Y-34198538D01*
X65498814Y-34024727D01*
X65556024Y-33836132D01*
X65575341Y-33640000D01*
X65556024Y-33443868D01*
X65498814Y-33255273D01*
X65405910Y-33081462D01*
X65280883Y-32929117D01*
X65128538Y-32804090D01*
X65076988Y-32776536D01*
X64954726Y-32711185D01*
X64766133Y-32653976D01*
X64570000Y-32634659D01*
X64373866Y-32653976D01*
X64185273Y-32711185D01*
X64011463Y-32804089D01*
X63859117Y-32929117D01*
X63734089Y-33081463D01*
X63641185Y-33255273D01*
X63583976Y-33443866D01*
X63564659Y-33639999D01*
X57955341Y-33639999D01*
X57936024Y-33443868D01*
X57878814Y-33255273D01*
X57785910Y-33081462D01*
X57660883Y-32929117D01*
X57508538Y-32804090D01*
X57456988Y-32776536D01*
X57334726Y-32711185D01*
X57146133Y-32653976D01*
X56950000Y-32634659D01*
X56753866Y-32653976D01*
X56565273Y-32711185D01*
X56391463Y-32804089D01*
X56353165Y-32835520D01*
X56289679Y-32862734D01*
X56221483Y-32851762D01*
X56169738Y-32806007D01*
X56150500Y-32739667D01*
X56150500Y-32411188D01*
X56159939Y-32363735D01*
X56186819Y-32323507D01*
X56373507Y-32136819D01*
X56413735Y-32109939D01*
X56461188Y-32100500D01*
X57769749Y-32100500D01*
X57798989Y-32094683D01*
X57828231Y-32088867D01*
X57894552Y-32044552D01*
X57938867Y-31978231D01*
X57947285Y-31935910D01*
X57950500Y-31919749D01*
X57950500Y-30280251D01*
X57938867Y-30221769D01*
X57894552Y-30155447D01*
X57828230Y-30111132D01*
X57769749Y-30099500D01*
X57769748Y-30099500D01*
X56130252Y-30099500D01*
X56130251Y-30099500D01*
X56071769Y-30111132D01*
X56005447Y-30155447D01*
X55961132Y-30221769D01*
X55949500Y-30280251D01*
X55949500Y-31588812D01*
X55940061Y-31636265D01*
X55913183Y-31676490D01*
X55683712Y-31905961D01*
X55608714Y-31980959D01*
X55600741Y-31988264D01*
X55571806Y-32012544D01*
X55552914Y-32045264D01*
X55547106Y-32054380D01*
X55524831Y-32086193D01*
X55514597Y-32110899D01*
X55507852Y-32149148D01*
X55505512Y-32159704D01*
X55495735Y-32196192D01*
X55499028Y-32233820D01*
X55499500Y-32244628D01*
X55499500Y-35624918D01*
X55480801Y-35690398D01*
X55430345Y-35736130D01*
X55363348Y-35748321D01*
X55318400Y-35730560D01*
X55317924Y-35731711D01*
X55156762Y-35664956D01*
X55000000Y-35644317D01*
X54843237Y-35664956D01*
X54697159Y-35725463D01*
X54571717Y-35821717D01*
X54475463Y-35947159D01*
X54414956Y-36093237D01*
X54394317Y-36250000D01*
X54414956Y-36406762D01*
X54475463Y-36552840D01*
X54571717Y-36678282D01*
X54686276Y-36766185D01*
X54697159Y-36774536D01*
X54843238Y-36835044D01*
X54843240Y-36835044D01*
X54847952Y-36836996D01*
X54888181Y-36863875D01*
X54915061Y-36904104D01*
X54924500Y-36951557D01*
X54924500Y-52006201D01*
X54911712Y-52061045D01*
X54875986Y-52104577D01*
X54821717Y-52146218D01*
X54725463Y-52271659D01*
X54664956Y-52417737D01*
X54644317Y-52574499D01*
X54664956Y-52731262D01*
X54725463Y-52877340D01*
X54821717Y-53002782D01*
X54917939Y-53076615D01*
X54947159Y-53099036D01*
X55093238Y-53159544D01*
X55250000Y-53180182D01*
X55406762Y-53159544D01*
X55450382Y-53141476D01*
X55478048Y-53130017D01*
X55537655Y-53121175D01*
X55594391Y-53141476D01*
X55634858Y-53186125D01*
X55649500Y-53244578D01*
X55649500Y-56300500D01*
X55632887Y-56362500D01*
X55587500Y-56407887D01*
X55525500Y-56424500D01*
X55159722Y-56424500D01*
X55101269Y-56409858D01*
X55056620Y-56369391D01*
X55036319Y-56312654D01*
X55045161Y-56253047D01*
X55067286Y-56199633D01*
X55085044Y-56156762D01*
X55105682Y-56000000D01*
X55085044Y-55843238D01*
X55024536Y-55697159D01*
X54993639Y-55656893D01*
X54928282Y-55571717D01*
X54802840Y-55475463D01*
X54656762Y-55414956D01*
X54499999Y-55394317D01*
X54432180Y-55403246D01*
X54376136Y-55397726D01*
X54328314Y-55367988D01*
X53994043Y-55033717D01*
X53986734Y-55025741D01*
X53962454Y-54996805D01*
X53929736Y-54977915D01*
X53920627Y-54972112D01*
X53889684Y-54950446D01*
X53888803Y-54949829D01*
X53864107Y-54939599D01*
X53825852Y-54932853D01*
X53815296Y-54930512D01*
X53778807Y-54920735D01*
X53741180Y-54924028D01*
X53730372Y-54924500D01*
X51646698Y-54924500D01*
X51590403Y-54910985D01*
X51546380Y-54873385D01*
X51524225Y-54819898D01*
X51528767Y-54762182D01*
X51559017Y-54712819D01*
X51674454Y-54597382D01*
X51828315Y-54443520D01*
X51876136Y-54413784D01*
X51932180Y-54408264D01*
X52000000Y-54417193D01*
X52156762Y-54396555D01*
X52302841Y-54336047D01*
X52428282Y-54239793D01*
X52524536Y-54114352D01*
X52585044Y-53968273D01*
X52605682Y-53811511D01*
X52585044Y-53654749D01*
X52524536Y-53508670D01*
X52506327Y-53484939D01*
X52428282Y-53383228D01*
X52302840Y-53286974D01*
X52156762Y-53226467D01*
X52000000Y-53205828D01*
X51843237Y-53226467D01*
X51720791Y-53277185D01*
X51667929Y-53286506D01*
X51616082Y-53272613D01*
X51574963Y-53238110D01*
X51469538Y-53100717D01*
X51344096Y-53004463D01*
X51198018Y-52943956D01*
X51041256Y-52923317D01*
X50884493Y-52943956D01*
X50738415Y-53004463D01*
X50612973Y-53100717D01*
X50516719Y-53226159D01*
X50495687Y-53276933D01*
X50461657Y-53323770D01*
X50410073Y-53350052D01*
X50352178Y-53350052D01*
X50300594Y-53323768D01*
X50266566Y-53276930D01*
X50245536Y-53226159D01*
X50149282Y-53100717D01*
X50023840Y-53004463D01*
X49877762Y-52943956D01*
X49720998Y-52923317D01*
X49604043Y-52938714D01*
X49548000Y-52933194D01*
X49500178Y-52903456D01*
X48355439Y-51758717D01*
X48348130Y-51750741D01*
X48323850Y-51721805D01*
X48291132Y-51702915D01*
X48282023Y-51697112D01*
X48251080Y-51675446D01*
X48250199Y-51674829D01*
X48225503Y-51664599D01*
X48187248Y-51657853D01*
X48176692Y-51655512D01*
X48140203Y-51645735D01*
X48102576Y-51649028D01*
X48091768Y-51649500D01*
X46909515Y-51649500D01*
X46851062Y-51634858D01*
X46806413Y-51594391D01*
X46786112Y-51537654D01*
X46794954Y-51478047D01*
X46835044Y-51381262D01*
X46855682Y-51224500D01*
X46846752Y-51156680D01*
X46852273Y-51100636D01*
X46882009Y-51052815D01*
X46966290Y-50968534D01*
X46974258Y-50961234D01*
X47003192Y-50936957D01*
X47003192Y-50936956D01*
X47003194Y-50936955D01*
X47022091Y-50904222D01*
X47027887Y-50895125D01*
X47049554Y-50864184D01*
X47049554Y-50864182D01*
X47050173Y-50863299D01*
X47060399Y-50838612D01*
X47060586Y-50837547D01*
X47060588Y-50837545D01*
X47067149Y-50800330D01*
X47069478Y-50789824D01*
X47079264Y-50753307D01*
X47075971Y-50715676D01*
X47075500Y-50704870D01*
X47075500Y-42329244D01*
X47088288Y-42274400D01*
X47124014Y-42230868D01*
X47187847Y-42181887D01*
X47234101Y-42121607D01*
X47284101Y-42056446D01*
X47344609Y-41910367D01*
X47365247Y-41753605D01*
X47344609Y-41596843D01*
X47284101Y-41450764D01*
X47255368Y-41413318D01*
X47187847Y-41325322D01*
X47062405Y-41229068D01*
X46916327Y-41168561D01*
X46759565Y-41147922D01*
X46617287Y-41166654D01*
X46602803Y-41168561D01*
X46602802Y-41168561D01*
X46586618Y-41170692D01*
X46586544Y-41170130D01*
X46550355Y-41175952D01*
X46495729Y-41158643D01*
X46454718Y-41118623D01*
X46439873Y-41075464D01*
X46439570Y-41075556D01*
X46437068Y-41067310D01*
X46436080Y-41064436D01*
X46436076Y-41064396D01*
X46436024Y-41063868D01*
X46378814Y-40875273D01*
X46285910Y-40701462D01*
X46160883Y-40549117D01*
X46008538Y-40424090D01*
X45957890Y-40397018D01*
X45834726Y-40331185D01*
X45646133Y-40273976D01*
X45501071Y-40259689D01*
X45450000Y-40254659D01*
X45449999Y-40254659D01*
X45253866Y-40273976D01*
X45065273Y-40331185D01*
X44891462Y-40424089D01*
X44820004Y-40482734D01*
X44797793Y-40500963D01*
X44783345Y-40512820D01*
X44719859Y-40540034D01*
X44651663Y-40529062D01*
X44599918Y-40483307D01*
X44580680Y-40416967D01*
X44580680Y-39563033D01*
X44599918Y-39496693D01*
X44651663Y-39450938D01*
X44719859Y-39439966D01*
X44783344Y-39467179D01*
X44891462Y-39555910D01*
X45065273Y-39648814D01*
X45253868Y-39706024D01*
X45450000Y-39725341D01*
X45646132Y-39706024D01*
X45834727Y-39648814D01*
X46008538Y-39555910D01*
X46160883Y-39430883D01*
X46285910Y-39278538D01*
X46378814Y-39104727D01*
X46396198Y-39047415D01*
X46417732Y-39006323D01*
X46452858Y-38976023D01*
X46457760Y-38973194D01*
X46482048Y-38944247D01*
X46489347Y-38936283D01*
X46563814Y-38861818D01*
X46604042Y-38834939D01*
X46651494Y-38825500D01*
X48330130Y-38825500D01*
X48388583Y-38840142D01*
X48433232Y-38880609D01*
X48453533Y-38937346D01*
X48444691Y-38996950D01*
X48432119Y-39027303D01*
X48414955Y-39068739D01*
X48394317Y-39225499D01*
X48416154Y-39391366D01*
X48422014Y-39416497D01*
X48419938Y-39437577D01*
X48424028Y-39484320D01*
X48424500Y-39495128D01*
X48424500Y-50133342D01*
X48411712Y-50188186D01*
X48375986Y-50231718D01*
X48285411Y-50301217D01*
X48189157Y-50426659D01*
X48128650Y-50572737D01*
X48108011Y-50729499D01*
X48128650Y-50886262D01*
X48189157Y-51032340D01*
X48285411Y-51157782D01*
X48372361Y-51224500D01*
X48410853Y-51254036D01*
X48556932Y-51314544D01*
X48713694Y-51335182D01*
X48870456Y-51314544D01*
X49016535Y-51254036D01*
X49137961Y-51160862D01*
X49186606Y-51138179D01*
X49240283Y-51138179D01*
X49288931Y-51160864D01*
X49371864Y-51224500D01*
X49410356Y-51254036D01*
X49556435Y-51314544D01*
X49713197Y-51335182D01*
X49869959Y-51314544D01*
X50016038Y-51254036D01*
X50137464Y-51160862D01*
X50186109Y-51138179D01*
X50239786Y-51138179D01*
X50288434Y-51160864D01*
X50371367Y-51224500D01*
X50409859Y-51254036D01*
X50555938Y-51314544D01*
X50712700Y-51335182D01*
X50869462Y-51314544D01*
X51015541Y-51254036D01*
X51136967Y-51160862D01*
X51185612Y-51138179D01*
X51239289Y-51138179D01*
X51287937Y-51160864D01*
X51370870Y-51224500D01*
X51409362Y-51254036D01*
X51555441Y-51314544D01*
X51712203Y-51335182D01*
X51868965Y-51314544D01*
X52015044Y-51254036D01*
X52140485Y-51157782D01*
X52236739Y-51032341D01*
X52297247Y-50886262D01*
X52317885Y-50729500D01*
X52297247Y-50572738D01*
X52236739Y-50426659D01*
X52218493Y-50402880D01*
X52140487Y-50301220D01*
X52140485Y-50301219D01*
X52140485Y-50301218D01*
X52136313Y-50298017D01*
X52100587Y-50254486D01*
X52087799Y-50199641D01*
X52087799Y-49606837D01*
X52102441Y-49548384D01*
X52142908Y-49503735D01*
X52199645Y-49483434D01*
X52259252Y-49492276D01*
X52307649Y-49528170D01*
X52359117Y-49590883D01*
X52511462Y-49715910D01*
X52685273Y-49808814D01*
X52873868Y-49866024D01*
X53070000Y-49885341D01*
X53266132Y-49866024D01*
X53454727Y-49808814D01*
X53628538Y-49715910D01*
X53780883Y-49590883D01*
X53905910Y-49438538D01*
X53998814Y-49264727D01*
X54056024Y-49076132D01*
X54075341Y-48880000D01*
X54056024Y-48683868D01*
X53998814Y-48495273D01*
X53905910Y-48321462D01*
X53780883Y-48169117D01*
X53628538Y-48044090D01*
X53512320Y-47981970D01*
X53454726Y-47951185D01*
X53266133Y-47893976D01*
X53070000Y-47874659D01*
X52873866Y-47893976D01*
X52685273Y-47951185D01*
X52511463Y-48044089D01*
X52401976Y-48133943D01*
X52359117Y-48169117D01*
X52307649Y-48231829D01*
X52259252Y-48267724D01*
X52199645Y-48276566D01*
X52142908Y-48256265D01*
X52102441Y-48211616D01*
X52087799Y-48153163D01*
X52087799Y-47066837D01*
X52102441Y-47008384D01*
X52142908Y-46963735D01*
X52199645Y-46943434D01*
X52259252Y-46952276D01*
X52307649Y-46988170D01*
X52359117Y-47050883D01*
X52511462Y-47175910D01*
X52685273Y-47268814D01*
X52873868Y-47326024D01*
X53070000Y-47345341D01*
X53266132Y-47326024D01*
X53454727Y-47268814D01*
X53628538Y-47175910D01*
X53780883Y-47050883D01*
X53905910Y-46898538D01*
X53998814Y-46724727D01*
X54056024Y-46536132D01*
X54075341Y-46340000D01*
X54056024Y-46143868D01*
X53998814Y-45955273D01*
X53905910Y-45781462D01*
X53780883Y-45629117D01*
X53628538Y-45504090D01*
X53551161Y-45462731D01*
X53454726Y-45411185D01*
X53266133Y-45353976D01*
X53070000Y-45334659D01*
X52873866Y-45353976D01*
X52685273Y-45411185D01*
X52511463Y-45504089D01*
X52369051Y-45620964D01*
X52359117Y-45629117D01*
X52307649Y-45691829D01*
X52259252Y-45727724D01*
X52199645Y-45736566D01*
X52142908Y-45716265D01*
X52102441Y-45671616D01*
X52087799Y-45613163D01*
X52087799Y-44526837D01*
X52102441Y-44468384D01*
X52142908Y-44423735D01*
X52199645Y-44403434D01*
X52259252Y-44412276D01*
X52307649Y-44448170D01*
X52359117Y-44510883D01*
X52511462Y-44635910D01*
X52685273Y-44728814D01*
X52873868Y-44786024D01*
X53070000Y-44805341D01*
X53266132Y-44786024D01*
X53454727Y-44728814D01*
X53628538Y-44635910D01*
X53780883Y-44510883D01*
X53905910Y-44358538D01*
X53998814Y-44184727D01*
X54056024Y-43996132D01*
X54075341Y-43800000D01*
X54056024Y-43603868D01*
X53998814Y-43415273D01*
X53905910Y-43241462D01*
X53780883Y-43089117D01*
X53628538Y-42964090D01*
X53567314Y-42931365D01*
X53454726Y-42871185D01*
X53266133Y-42813976D01*
X53070000Y-42794659D01*
X52873866Y-42813976D01*
X52685273Y-42871185D01*
X52511463Y-42964089D01*
X52455595Y-43009939D01*
X52359117Y-43089117D01*
X52307649Y-43151829D01*
X52259252Y-43187724D01*
X52199645Y-43196566D01*
X52142908Y-43176265D01*
X52102441Y-43131616D01*
X52087799Y-43073163D01*
X52087799Y-41986837D01*
X52102441Y-41928384D01*
X52142908Y-41883735D01*
X52199645Y-41863434D01*
X52259252Y-41872276D01*
X52307649Y-41908170D01*
X52359117Y-41970883D01*
X52511462Y-42095910D01*
X52685273Y-42188814D01*
X52873868Y-42246024D01*
X53070000Y-42265341D01*
X53266132Y-42246024D01*
X53454727Y-42188814D01*
X53628538Y-42095910D01*
X53780883Y-41970883D01*
X53905910Y-41818538D01*
X53998814Y-41644727D01*
X54056024Y-41456132D01*
X54075341Y-41260000D01*
X54056024Y-41063868D01*
X53998814Y-40875273D01*
X53905910Y-40701462D01*
X53780883Y-40549117D01*
X53628538Y-40424090D01*
X53577890Y-40397018D01*
X53454726Y-40331185D01*
X53266133Y-40273976D01*
X53121071Y-40259689D01*
X53070000Y-40254659D01*
X53069999Y-40254659D01*
X52873866Y-40273976D01*
X52685273Y-40331185D01*
X52511463Y-40424089D01*
X52359117Y-40549116D01*
X52359117Y-40549117D01*
X52307649Y-40611829D01*
X52259252Y-40647724D01*
X52199645Y-40656566D01*
X52142908Y-40636265D01*
X52102441Y-40591616D01*
X52087799Y-40533163D01*
X52087799Y-39971926D01*
X52088271Y-39961118D01*
X52091563Y-39923491D01*
X52081786Y-39887005D01*
X52079444Y-39876442D01*
X52072887Y-39839254D01*
X52072886Y-39839253D01*
X52072699Y-39838190D01*
X52062470Y-39813497D01*
X52061853Y-39812616D01*
X52061853Y-39812615D01*
X52040191Y-39781678D01*
X52034379Y-39772555D01*
X52015493Y-39739843D01*
X51986554Y-39715561D01*
X51978579Y-39708253D01*
X50990325Y-38719999D01*
X52064659Y-38719999D01*
X52083976Y-38916133D01*
X52141185Y-39104726D01*
X52209689Y-39232887D01*
X52234090Y-39278538D01*
X52359117Y-39430883D01*
X52511462Y-39555910D01*
X52685273Y-39648814D01*
X52873868Y-39706024D01*
X53070000Y-39725341D01*
X53266132Y-39706024D01*
X53454727Y-39648814D01*
X53628538Y-39555910D01*
X53780883Y-39430883D01*
X53905910Y-39278538D01*
X53998814Y-39104727D01*
X54056024Y-38916132D01*
X54075341Y-38720000D01*
X54056024Y-38523868D01*
X53998814Y-38335273D01*
X53905910Y-38161462D01*
X53780883Y-38009117D01*
X53628538Y-37884090D01*
X53544263Y-37839044D01*
X53454726Y-37791185D01*
X53266133Y-37733976D01*
X53070000Y-37714659D01*
X52873866Y-37733976D01*
X52685273Y-37791185D01*
X52511463Y-37884089D01*
X52359117Y-38009117D01*
X52234089Y-38161463D01*
X52141185Y-38335273D01*
X52083976Y-38523866D01*
X52064659Y-38719999D01*
X50990325Y-38719999D01*
X48450326Y-36180000D01*
X52064659Y-36180000D01*
X52066153Y-36195165D01*
X52083976Y-36376133D01*
X52141185Y-36564726D01*
X52196517Y-36668244D01*
X52234090Y-36738538D01*
X52359117Y-36890883D01*
X52511462Y-37015910D01*
X52685273Y-37108814D01*
X52873868Y-37166024D01*
X53070000Y-37185341D01*
X53266132Y-37166024D01*
X53454727Y-37108814D01*
X53628538Y-37015910D01*
X53780883Y-36890883D01*
X53905910Y-36738538D01*
X53998814Y-36564727D01*
X54056024Y-36376132D01*
X54075341Y-36180000D01*
X54056024Y-35983868D01*
X53998814Y-35795273D01*
X53905910Y-35621462D01*
X53780883Y-35469117D01*
X53628538Y-35344090D01*
X53566287Y-35310816D01*
X53454726Y-35251185D01*
X53266133Y-35193976D01*
X53070000Y-35174659D01*
X52873866Y-35193976D01*
X52685273Y-35251185D01*
X52511463Y-35344089D01*
X52359117Y-35469117D01*
X52234089Y-35621463D01*
X52141185Y-35795273D01*
X52083976Y-35983866D01*
X52077442Y-36050205D01*
X52064659Y-36180000D01*
X48450326Y-36180000D01*
X46411873Y-34141547D01*
X46379270Y-34083995D01*
X46380894Y-34017870D01*
X46400536Y-33953118D01*
X46436024Y-33836132D01*
X46455341Y-33640000D01*
X46455341Y-33639999D01*
X52064659Y-33639999D01*
X52083976Y-33836133D01*
X52141185Y-34024726D01*
X52172865Y-34083995D01*
X52234090Y-34198538D01*
X52359117Y-34350883D01*
X52511462Y-34475910D01*
X52685273Y-34568814D01*
X52873868Y-34626024D01*
X53070000Y-34645341D01*
X53266132Y-34626024D01*
X53454727Y-34568814D01*
X53628538Y-34475910D01*
X53780883Y-34350883D01*
X53905910Y-34198538D01*
X53998814Y-34024727D01*
X54056024Y-33836132D01*
X54075341Y-33640000D01*
X54056024Y-33443868D01*
X53998814Y-33255273D01*
X53905910Y-33081462D01*
X53780883Y-32929117D01*
X53628538Y-32804090D01*
X53576988Y-32776536D01*
X53454726Y-32711185D01*
X53266133Y-32653976D01*
X53070000Y-32634659D01*
X52873866Y-32653976D01*
X52685273Y-32711185D01*
X52511463Y-32804089D01*
X52359117Y-32929117D01*
X52234089Y-33081463D01*
X52141185Y-33255273D01*
X52083976Y-33443866D01*
X52064659Y-33639999D01*
X46455341Y-33639999D01*
X46436024Y-33443868D01*
X46378814Y-33255273D01*
X46285910Y-33081462D01*
X46160883Y-32929117D01*
X46008538Y-32804090D01*
X45956988Y-32776536D01*
X45834726Y-32711185D01*
X45646133Y-32653976D01*
X45450000Y-32634659D01*
X45253866Y-32653976D01*
X45065273Y-32711185D01*
X44891463Y-32804089D01*
X44739117Y-32929117D01*
X44614089Y-33081463D01*
X44521185Y-33255273D01*
X44463976Y-33443866D01*
X44444659Y-33639999D01*
X44463976Y-33836133D01*
X44521185Y-34024726D01*
X44552865Y-34083995D01*
X44614090Y-34198538D01*
X44739117Y-34350883D01*
X44891462Y-34475910D01*
X45065273Y-34568814D01*
X45253868Y-34626024D01*
X45450000Y-34645341D01*
X45646132Y-34626024D01*
X45827870Y-34570893D01*
X45893995Y-34569270D01*
X45951547Y-34601873D01*
X49312493Y-37962819D01*
X49342743Y-38012182D01*
X49347285Y-38069898D01*
X49325130Y-38123385D01*
X49281107Y-38160985D01*
X49224812Y-38174500D01*
X46484933Y-38174500D01*
X46474125Y-38174028D01*
X46436497Y-38170735D01*
X46400009Y-38180512D01*
X46389451Y-38182853D01*
X46385731Y-38183509D01*
X46321153Y-38177682D01*
X46268344Y-38140058D01*
X46239126Y-38104456D01*
X46160883Y-38009117D01*
X46008538Y-37884090D01*
X45924263Y-37839044D01*
X45834726Y-37791185D01*
X45646133Y-37733976D01*
X45450000Y-37714659D01*
X45253866Y-37733976D01*
X45065273Y-37791185D01*
X44891462Y-37884089D01*
X44783345Y-37972820D01*
X44719859Y-38000034D01*
X44651663Y-37989062D01*
X44599918Y-37943307D01*
X44580680Y-37876967D01*
X44580680Y-37561008D01*
X44590119Y-37513555D01*
X44616999Y-37473327D01*
X44769329Y-37320997D01*
X44948452Y-37141872D01*
X45006004Y-37109270D01*
X45072126Y-37110892D01*
X45253868Y-37166024D01*
X45450000Y-37185341D01*
X45646132Y-37166024D01*
X45834727Y-37108814D01*
X46008538Y-37015910D01*
X46160883Y-36890883D01*
X46285910Y-36738538D01*
X46378814Y-36564727D01*
X46436024Y-36376132D01*
X46455341Y-36180000D01*
X46436024Y-35983868D01*
X46378814Y-35795273D01*
X46285910Y-35621462D01*
X46160883Y-35469117D01*
X46008538Y-35344090D01*
X45946287Y-35310816D01*
X45834726Y-35251185D01*
X45646133Y-35193976D01*
X45450000Y-35174659D01*
X45253866Y-35193976D01*
X45065273Y-35251185D01*
X44891463Y-35344089D01*
X44739117Y-35469117D01*
X44614089Y-35621463D01*
X44521185Y-35795273D01*
X44463976Y-35983866D01*
X44444659Y-36179999D01*
X44463975Y-36376130D01*
X44519106Y-36557870D01*
X44520729Y-36623994D01*
X44488126Y-36681546D01*
X44342360Y-36827312D01*
X44292998Y-36857562D01*
X44235282Y-36862104D01*
X44181795Y-36839949D01*
X44144195Y-36795926D01*
X44130680Y-36739631D01*
X44130680Y-36508053D01*
X44131152Y-36497245D01*
X44134444Y-36459618D01*
X44124667Y-36423132D01*
X44122325Y-36412569D01*
X44116336Y-36378603D01*
X44115768Y-36375381D01*
X44115767Y-36375380D01*
X44115580Y-36374317D01*
X44105351Y-36349624D01*
X44104734Y-36348743D01*
X44104734Y-36348742D01*
X44083072Y-36317805D01*
X44077260Y-36308682D01*
X44058374Y-36275970D01*
X44029435Y-36251688D01*
X44021460Y-36244380D01*
X43861819Y-36084739D01*
X43834939Y-36044511D01*
X43825500Y-35997058D01*
X43825500Y-33236188D01*
X43834939Y-33188735D01*
X43861819Y-33148507D01*
X44873508Y-32136819D01*
X44913736Y-32109939D01*
X44961189Y-32100500D01*
X46269749Y-32100500D01*
X46298989Y-32094683D01*
X46328231Y-32088867D01*
X46394552Y-32044552D01*
X46438867Y-31978231D01*
X46447285Y-31935910D01*
X46450500Y-31919749D01*
X46450500Y-31100000D01*
X52064659Y-31100000D01*
X52083976Y-31296133D01*
X52141185Y-31484726D01*
X52203628Y-31601547D01*
X52234090Y-31658538D01*
X52359117Y-31810883D01*
X52511462Y-31935910D01*
X52685273Y-32028814D01*
X52873868Y-32086024D01*
X53070000Y-32105341D01*
X53266132Y-32086024D01*
X53454727Y-32028814D01*
X53628538Y-31935910D01*
X53780883Y-31810883D01*
X53905910Y-31658538D01*
X53998814Y-31484727D01*
X54056024Y-31296132D01*
X54075341Y-31100000D01*
X54056024Y-30903868D01*
X53998814Y-30715273D01*
X53905910Y-30541462D01*
X53780883Y-30389117D01*
X53628538Y-30264090D01*
X53596711Y-30247078D01*
X53454726Y-30171185D01*
X53266133Y-30113976D01*
X53070000Y-30094659D01*
X52873866Y-30113976D01*
X52685273Y-30171185D01*
X52511463Y-30264089D01*
X52359117Y-30389117D01*
X52234089Y-30541463D01*
X52141185Y-30715273D01*
X52083976Y-30903866D01*
X52064659Y-31100000D01*
X46450500Y-31100000D01*
X46450500Y-30280251D01*
X46438867Y-30221769D01*
X46394552Y-30155447D01*
X46328230Y-30111132D01*
X46269749Y-30099500D01*
X46269748Y-30099500D01*
X44660188Y-30099500D01*
X44603893Y-30085985D01*
X44559870Y-30048385D01*
X44537715Y-29994898D01*
X44542257Y-29937182D01*
X44572507Y-29887819D01*
X45872996Y-28587329D01*
X46328315Y-28132009D01*
X46376136Y-28102273D01*
X46432180Y-28096753D01*
X46500000Y-28105682D01*
X46656762Y-28085044D01*
X46802841Y-28024536D01*
X46928282Y-27928282D01*
X47024536Y-27802841D01*
X47085044Y-27656762D01*
X47105682Y-27500000D01*
X47085044Y-27343238D01*
X47024536Y-27197159D01*
X47017368Y-27187818D01*
X46928282Y-27071717D01*
X46802840Y-26975463D01*
X46656762Y-26914956D01*
X46500000Y-26894317D01*
X46343237Y-26914956D01*
X46197159Y-26975463D01*
X46071717Y-27071717D01*
X45975463Y-27197159D01*
X45914956Y-27343237D01*
X45894317Y-27500000D01*
X45903246Y-27567818D01*
X45897726Y-27623862D01*
X45867988Y-27671684D01*
X42893367Y-30646305D01*
X42844583Y-30676365D01*
X42787492Y-30681282D01*
X42734286Y-30660005D01*
X42696328Y-30617078D01*
X42678455Y-30583641D01*
X42655910Y-30541462D01*
X42530883Y-30389117D01*
X42378538Y-30264090D01*
X42346711Y-30247078D01*
X42204726Y-30171185D01*
X42016133Y-30113976D01*
X41820000Y-30094659D01*
X41623866Y-30113976D01*
X41435273Y-30171185D01*
X41261463Y-30264089D01*
X41109117Y-30389117D01*
X40984089Y-30541463D01*
X40891185Y-30715273D01*
X40833976Y-30903866D01*
X40814659Y-31100000D01*
X40833976Y-31296133D01*
X40891185Y-31484726D01*
X40953628Y-31601547D01*
X40984090Y-31658538D01*
X41109117Y-31810883D01*
X41261462Y-31935910D01*
X41435273Y-32028814D01*
X41623868Y-32086024D01*
X41820000Y-32105341D01*
X42016132Y-32086024D01*
X42204727Y-32028814D01*
X42378538Y-31935910D01*
X42416835Y-31904479D01*
X42480321Y-31877266D01*
X42548517Y-31888238D01*
X42600262Y-31933993D01*
X42619500Y-32000333D01*
X42619500Y-32328811D01*
X42610061Y-32376264D01*
X42583181Y-32416492D01*
X42321546Y-32678126D01*
X42263994Y-32710729D01*
X42197870Y-32709106D01*
X42016130Y-32653975D01*
X41820000Y-32634659D01*
X41623866Y-32653976D01*
X41435273Y-32711185D01*
X41261463Y-32804089D01*
X41109117Y-32929117D01*
X40984089Y-33081463D01*
X40891185Y-33255273D01*
X40833976Y-33443866D01*
X40814659Y-33639999D01*
X40833976Y-33836133D01*
X40891185Y-34024726D01*
X40963480Y-34159980D01*
X40977740Y-34228162D01*
X40952990Y-34293274D01*
X40897040Y-34334769D01*
X40827548Y-34339552D01*
X40766441Y-34306114D01*
X33886787Y-27426461D01*
X33879478Y-27418485D01*
X33855198Y-27389549D01*
X33822480Y-27370659D01*
X33813371Y-27364856D01*
X33782428Y-27343190D01*
X33781547Y-27342573D01*
X33756851Y-27332343D01*
X33718596Y-27325597D01*
X33708040Y-27323256D01*
X33671551Y-27313479D01*
X33633924Y-27316772D01*
X33623116Y-27317244D01*
X28878442Y-27317244D01*
X28867634Y-27316772D01*
X28830006Y-27313479D01*
X28793518Y-27323256D01*
X28782962Y-27325596D01*
X28744713Y-27332341D01*
X28720007Y-27342575D01*
X28688194Y-27364850D01*
X28679078Y-27370658D01*
X28646359Y-27389549D01*
X28622076Y-27418488D01*
X28614770Y-27426460D01*
X27881045Y-28160185D01*
X27873072Y-28167491D01*
X27844137Y-28191771D01*
X27825245Y-28224491D01*
X27819437Y-28233607D01*
X27786367Y-28280838D01*
X27773511Y-28304762D01*
X27727094Y-28337565D01*
X27353017Y-28488702D01*
X27303149Y-28521396D01*
X27258257Y-28587330D01*
X27242014Y-28665419D01*
X27253138Y-28724004D01*
X27642539Y-29687807D01*
X27675233Y-29737675D01*
X27741167Y-29782567D01*
X27819256Y-29798810D01*
X27819257Y-29798809D01*
X27819259Y-29798810D01*
X27877841Y-29787687D01*
X28841645Y-29398285D01*
X28891512Y-29365591D01*
X28936403Y-29299659D01*
X28948570Y-29241165D01*
X28978474Y-29182729D01*
X29034022Y-29147745D01*
X29099643Y-29146023D01*
X29189798Y-29168244D01*
X29359909Y-29168244D01*
X29359910Y-29168244D01*
X29525079Y-29127534D01*
X29675706Y-29048478D01*
X29803037Y-28935673D01*
X29864379Y-28846803D01*
X29908803Y-28807447D01*
X29966429Y-28793244D01*
X33631556Y-28793244D01*
X33679009Y-28802683D01*
X33719237Y-28829563D01*
X34777493Y-29887819D01*
X34807743Y-29937182D01*
X34812285Y-29994898D01*
X34790130Y-30048385D01*
X34746107Y-30085985D01*
X34689812Y-30099500D01*
X33380251Y-30099500D01*
X33321769Y-30111132D01*
X33255447Y-30155447D01*
X33211132Y-30221769D01*
X33199500Y-30280251D01*
X33199500Y-31531410D01*
X33190061Y-31578863D01*
X33163181Y-31619091D01*
X29533807Y-35248463D01*
X29479425Y-35280227D01*
X29416453Y-35281179D01*
X29359912Y-35267244D01*
X29359910Y-35267244D01*
X29189798Y-35267244D01*
X29157138Y-35275293D01*
X29024629Y-35307953D01*
X28874003Y-35387009D01*
X28746668Y-35499817D01*
X28673809Y-35605371D01*
X28625155Y-35646845D01*
X28562308Y-35658569D01*
X28501973Y-35637428D01*
X28453494Y-35604420D01*
X28375405Y-35588177D01*
X28316820Y-35599301D01*
X27353017Y-35988702D01*
X27303149Y-36021396D01*
X27258257Y-36087330D01*
X27242014Y-36165419D01*
X27253138Y-36224004D01*
X27642539Y-37187807D01*
X27675233Y-37237675D01*
X27741167Y-37282567D01*
X27819257Y-37298810D01*
X27819258Y-37298809D01*
X27819259Y-37298810D01*
X27877841Y-37287687D01*
X28231478Y-37144807D01*
X28278649Y-37135781D01*
X28325714Y-37145356D01*
X28365609Y-37172098D01*
X32669787Y-41476276D01*
X32677095Y-41484250D01*
X32701382Y-41513194D01*
X32725431Y-41527079D01*
X32734093Y-41532080D01*
X32743216Y-41537892D01*
X32774153Y-41559554D01*
X32774154Y-41559554D01*
X32775035Y-41560171D01*
X32799728Y-41570400D01*
X32800791Y-41570587D01*
X32800792Y-41570588D01*
X32837983Y-41577145D01*
X32848541Y-41579486D01*
X32885028Y-41589263D01*
X32885029Y-41589262D01*
X32885030Y-41589263D01*
X32922648Y-41585971D01*
X32933455Y-41585500D01*
X33165205Y-41585500D01*
X33228954Y-41603142D01*
X33274563Y-41651046D01*
X33364089Y-41818536D01*
X33364090Y-41818538D01*
X33489117Y-41970883D01*
X33641462Y-42095910D01*
X33668988Y-42110623D01*
X33679313Y-42116142D01*
X33726587Y-42160710D01*
X33744836Y-42223065D01*
X33729050Y-42286089D01*
X33683562Y-42332479D01*
X33620860Y-42349500D01*
X30087215Y-42349500D01*
X30076407Y-42349028D01*
X30038789Y-42345736D01*
X30002308Y-42355511D01*
X29991753Y-42357852D01*
X29980412Y-42359851D01*
X29954553Y-42364412D01*
X29954551Y-42364412D01*
X29953495Y-42364599D01*
X29928790Y-42374832D01*
X29896976Y-42397107D01*
X29887859Y-42402915D01*
X29855143Y-42421804D01*
X29830860Y-42450743D01*
X29823554Y-42458715D01*
X29533806Y-42748463D01*
X29479424Y-42780227D01*
X29416452Y-42781179D01*
X29359912Y-42767244D01*
X29359910Y-42767244D01*
X29189798Y-42767244D01*
X29157138Y-42775293D01*
X29024629Y-42807953D01*
X28874003Y-42887009D01*
X28746668Y-42999817D01*
X28673809Y-43105371D01*
X28625155Y-43146845D01*
X28562308Y-43158569D01*
X28501973Y-43137428D01*
X28453494Y-43104420D01*
X28375405Y-43088177D01*
X28316820Y-43099301D01*
X27353017Y-43488702D01*
X27303149Y-43521396D01*
X27258257Y-43587330D01*
X27242014Y-43665419D01*
X27253138Y-43724004D01*
X27642539Y-44687807D01*
X27675233Y-44737675D01*
X27741167Y-44782567D01*
X27819256Y-44798810D01*
X27819257Y-44798809D01*
X27819259Y-44798810D01*
X27877841Y-44787687D01*
X28841645Y-44398285D01*
X28891512Y-44365591D01*
X28936403Y-44299659D01*
X28948570Y-44241165D01*
X28978474Y-44182729D01*
X29034022Y-44147745D01*
X29099643Y-44146023D01*
X29189798Y-44168244D01*
X29359909Y-44168244D01*
X29359910Y-44168244D01*
X29525079Y-44127534D01*
X29675706Y-44048478D01*
X29803037Y-43935673D01*
X29899672Y-43795674D01*
X29959994Y-43636616D01*
X29980499Y-43467744D01*
X29961214Y-43308920D01*
X29967093Y-43253526D01*
X29996625Y-43206298D01*
X30166108Y-43036816D01*
X30206335Y-43009939D01*
X30253787Y-43000500D01*
X33299667Y-43000500D01*
X33366007Y-43019738D01*
X33411762Y-43071483D01*
X33422734Y-43139679D01*
X33395520Y-43203165D01*
X33364089Y-43241463D01*
X33271185Y-43415273D01*
X33213976Y-43603866D01*
X33194659Y-43800000D01*
X33213976Y-43996133D01*
X33271185Y-44184726D01*
X33335497Y-44305044D01*
X33364090Y-44358538D01*
X33489117Y-44510883D01*
X33641462Y-44635910D01*
X33815273Y-44728814D01*
X34003868Y-44786024D01*
X34200000Y-44805341D01*
X34396132Y-44786024D01*
X34584727Y-44728814D01*
X34758538Y-44635910D01*
X34910883Y-44510883D01*
X35035910Y-44358538D01*
X35128814Y-44184727D01*
X35186024Y-43996132D01*
X35191140Y-43944181D01*
X35214543Y-43883014D01*
X35265843Y-43842300D01*
X35330728Y-43833397D01*
X35499999Y-43855682D01*
X35499999Y-43855681D01*
X35500000Y-43855682D01*
X35656762Y-43835044D01*
X35802841Y-43774536D01*
X35928282Y-43678282D01*
X36024536Y-43552841D01*
X36085044Y-43406762D01*
X36105682Y-43250000D01*
X36105001Y-43244831D01*
X36096248Y-43178340D01*
X36085044Y-43093238D01*
X36024536Y-42947159D01*
X36024535Y-42947158D01*
X35928282Y-42821717D01*
X35802840Y-42725463D01*
X35656762Y-42664956D01*
X35499999Y-42644317D01*
X35432180Y-42653246D01*
X35376136Y-42647726D01*
X35328314Y-42617988D01*
X35169043Y-42458717D01*
X35161734Y-42450741D01*
X35137454Y-42421805D01*
X35104736Y-42402915D01*
X35095627Y-42397112D01*
X35064684Y-42375446D01*
X35063803Y-42374829D01*
X35039107Y-42364599D01*
X35000852Y-42357853D01*
X34990296Y-42355512D01*
X34953807Y-42345735D01*
X34916180Y-42349028D01*
X34905372Y-42349500D01*
X34779140Y-42349500D01*
X34716438Y-42332479D01*
X34670950Y-42286089D01*
X34655164Y-42223065D01*
X34673413Y-42160710D01*
X34720687Y-42116142D01*
X34726664Y-42112946D01*
X34758538Y-42095910D01*
X34910883Y-41970883D01*
X35035910Y-41818538D01*
X35128814Y-41644727D01*
X35186024Y-41456132D01*
X35205341Y-41260000D01*
X35186024Y-41063868D01*
X35128814Y-40875273D01*
X35035910Y-40701462D01*
X34910883Y-40549117D01*
X34758538Y-40424090D01*
X34707890Y-40397018D01*
X34584726Y-40331185D01*
X34396133Y-40273976D01*
X34251071Y-40259689D01*
X34200000Y-40254659D01*
X34199999Y-40254659D01*
X34003866Y-40273976D01*
X33815273Y-40331185D01*
X33641463Y-40424089D01*
X33489117Y-40549117D01*
X33364090Y-40701461D01*
X33274563Y-40868954D01*
X33228954Y-40916858D01*
X33165205Y-40934500D01*
X33100025Y-40934500D01*
X33052572Y-40925061D01*
X33012344Y-40898181D01*
X28979874Y-36865711D01*
X28948737Y-36813502D01*
X28946156Y-36752770D01*
X28948571Y-36741157D01*
X28978479Y-36682723D01*
X29034026Y-36647744D01*
X29099643Y-36646023D01*
X29189798Y-36668244D01*
X29359909Y-36668244D01*
X29359910Y-36668244D01*
X29525079Y-36627534D01*
X29675706Y-36548478D01*
X29803037Y-36435673D01*
X29899672Y-36295674D01*
X29959994Y-36136616D01*
X29980499Y-35967744D01*
X29961214Y-35808920D01*
X29967093Y-35753525D01*
X29996627Y-35706295D01*
X32062924Y-33639999D01*
X33194659Y-33639999D01*
X33213976Y-33836133D01*
X33271185Y-34024726D01*
X33302865Y-34083995D01*
X33364090Y-34198538D01*
X33489117Y-34350883D01*
X33641462Y-34475910D01*
X33815273Y-34568814D01*
X34003868Y-34626024D01*
X34200000Y-34645341D01*
X34396132Y-34626024D01*
X34584727Y-34568814D01*
X34758538Y-34475910D01*
X34910883Y-34350883D01*
X35035910Y-34198538D01*
X35128814Y-34024727D01*
X35186024Y-33836132D01*
X35205341Y-33640000D01*
X35186024Y-33443868D01*
X35128814Y-33255273D01*
X35035910Y-33081462D01*
X34910883Y-32929117D01*
X34758538Y-32804090D01*
X34706988Y-32776536D01*
X34584726Y-32711185D01*
X34396133Y-32653976D01*
X34200000Y-32634659D01*
X34003866Y-32653976D01*
X33815273Y-32711185D01*
X33641463Y-32804089D01*
X33489117Y-32929117D01*
X33364089Y-33081463D01*
X33271185Y-33255273D01*
X33213976Y-33443866D01*
X33194659Y-33639999D01*
X32062924Y-33639999D01*
X33566104Y-32136819D01*
X33606333Y-32109939D01*
X33653786Y-32100500D01*
X35019749Y-32100500D01*
X35048989Y-32094683D01*
X35078231Y-32088867D01*
X35144552Y-32044552D01*
X35188867Y-31978231D01*
X35197285Y-31935910D01*
X35200500Y-31919749D01*
X35200500Y-30610188D01*
X35214015Y-30553893D01*
X35251615Y-30509870D01*
X35305102Y-30487715D01*
X35362818Y-30492257D01*
X35412181Y-30522507D01*
X40333181Y-35443507D01*
X40360061Y-35483735D01*
X40369500Y-35531188D01*
X40369500Y-37575372D01*
X40369028Y-37586180D01*
X40365735Y-37623807D01*
X40375512Y-37660296D01*
X40377853Y-37670852D01*
X40384599Y-37709107D01*
X40394829Y-37733803D01*
X40395446Y-37734684D01*
X40417112Y-37765627D01*
X40422915Y-37774736D01*
X40441806Y-37807455D01*
X40460572Y-37823202D01*
X40470742Y-37831735D01*
X40478718Y-37839044D01*
X40858126Y-38218452D01*
X40890729Y-38276003D01*
X40889106Y-38342128D01*
X40833975Y-38523869D01*
X40814659Y-38719999D01*
X40833976Y-38916133D01*
X40891185Y-39104726D01*
X40959689Y-39232887D01*
X40984090Y-39278538D01*
X41109117Y-39430883D01*
X41261462Y-39555910D01*
X41435273Y-39648814D01*
X41623868Y-39706024D01*
X41820000Y-39725341D01*
X42016132Y-39706024D01*
X42204727Y-39648814D01*
X42378538Y-39555910D01*
X42530883Y-39430883D01*
X42534829Y-39426074D01*
X42583226Y-39390180D01*
X42642833Y-39381338D01*
X42699570Y-39401639D01*
X42740038Y-39446288D01*
X42754680Y-39504741D01*
X42754680Y-39813632D01*
X42745241Y-39861085D01*
X42718361Y-39901313D01*
X42321546Y-40298126D01*
X42263994Y-40330729D01*
X42197870Y-40329106D01*
X42016130Y-40273975D01*
X41841426Y-40256769D01*
X41820000Y-40254659D01*
X41819999Y-40254659D01*
X41623866Y-40273976D01*
X41435273Y-40331185D01*
X41261463Y-40424089D01*
X41109117Y-40549117D01*
X40984089Y-40701463D01*
X40891185Y-40875273D01*
X40833976Y-41063866D01*
X40814659Y-41259999D01*
X40833976Y-41456133D01*
X40891185Y-41644726D01*
X40950680Y-41756032D01*
X40984090Y-41818538D01*
X41109117Y-41970883D01*
X41261462Y-42095910D01*
X41288988Y-42110623D01*
X41299313Y-42116142D01*
X41346587Y-42160710D01*
X41364836Y-42223065D01*
X41349050Y-42286089D01*
X41303562Y-42332479D01*
X41240860Y-42349500D01*
X41094628Y-42349500D01*
X41083820Y-42349028D01*
X41046192Y-42345735D01*
X41009704Y-42355512D01*
X40999148Y-42357852D01*
X40960899Y-42364597D01*
X40936193Y-42374831D01*
X40904380Y-42397106D01*
X40895264Y-42402914D01*
X40862545Y-42421805D01*
X40838262Y-42450744D01*
X40830956Y-42458716D01*
X40671684Y-42617988D01*
X40623862Y-42647726D01*
X40567818Y-42653246D01*
X40500000Y-42644317D01*
X40343237Y-42664956D01*
X40197159Y-42725463D01*
X40071717Y-42821717D01*
X39975463Y-42947159D01*
X39914956Y-43093237D01*
X39894317Y-43250000D01*
X39914956Y-43406762D01*
X39975463Y-43552840D01*
X40071717Y-43678282D01*
X40169937Y-43753648D01*
X40197159Y-43774536D01*
X40343238Y-43835044D01*
X40500000Y-43855682D01*
X40656762Y-43835044D01*
X40657319Y-43834813D01*
X40713889Y-43825710D01*
X40768517Y-43843014D01*
X40809531Y-43883033D01*
X40828173Y-43937219D01*
X40833975Y-43996130D01*
X40889106Y-44177870D01*
X40890729Y-44243994D01*
X40858126Y-44301546D01*
X39797447Y-45362225D01*
X39764610Y-45385756D01*
X39725952Y-45397483D01*
X39593237Y-45414956D01*
X39447159Y-45475463D01*
X39321717Y-45571717D01*
X39225463Y-45697159D01*
X39164956Y-45843237D01*
X39144317Y-46000000D01*
X39164956Y-46156762D01*
X39225463Y-46302840D01*
X39321717Y-46428282D01*
X39406871Y-46493622D01*
X39447159Y-46524536D01*
X39593238Y-46585044D01*
X39750000Y-46605682D01*
X39906762Y-46585044D01*
X40052841Y-46524536D01*
X40178282Y-46428282D01*
X40246023Y-46340000D01*
X40814659Y-46340000D01*
X40833976Y-46536133D01*
X40891185Y-46724726D01*
X40958402Y-46850480D01*
X40984090Y-46898538D01*
X41109117Y-47050883D01*
X41261462Y-47175910D01*
X41435273Y-47268814D01*
X41623868Y-47326024D01*
X41820000Y-47345341D01*
X42016132Y-47326024D01*
X42204727Y-47268814D01*
X42378538Y-47175910D01*
X42530883Y-47050883D01*
X42655910Y-46898538D01*
X42748814Y-46724727D01*
X42806024Y-46536132D01*
X42825341Y-46340000D01*
X42806024Y-46143868D01*
X42748814Y-45955273D01*
X42655910Y-45781462D01*
X42530883Y-45629117D01*
X42378538Y-45504090D01*
X42301161Y-45462731D01*
X42204726Y-45411185D01*
X42016133Y-45353976D01*
X41820000Y-45334659D01*
X41623866Y-45353976D01*
X41435273Y-45411185D01*
X41261463Y-45504089D01*
X41109117Y-45629117D01*
X40984089Y-45781463D01*
X40891185Y-45955273D01*
X40833976Y-46143866D01*
X40814659Y-46340000D01*
X40246023Y-46340000D01*
X40274536Y-46302841D01*
X40335044Y-46156762D01*
X40355682Y-46000000D01*
X40355261Y-45996805D01*
X40332913Y-45827052D01*
X40333379Y-45826990D01*
X40328620Y-45803073D01*
X40338058Y-45755616D01*
X40364936Y-45715388D01*
X41318453Y-44761871D01*
X41376003Y-44729270D01*
X41442126Y-44730892D01*
X41623868Y-44786024D01*
X41820000Y-44805341D01*
X42016132Y-44786024D01*
X42204727Y-44728814D01*
X42378538Y-44635910D01*
X42530883Y-44510883D01*
X42655910Y-44358538D01*
X42748814Y-44184727D01*
X42806024Y-43996132D01*
X42825341Y-43800000D01*
X42806024Y-43603868D01*
X42748814Y-43415273D01*
X42655910Y-43241462D01*
X42530883Y-43089117D01*
X42378538Y-42964090D01*
X42378537Y-42964089D01*
X42369097Y-42956342D01*
X42371004Y-42954017D01*
X42345372Y-42931365D01*
X42324081Y-42878155D01*
X42328992Y-42821054D01*
X42359053Y-42772262D01*
X43717998Y-41413318D01*
X43767362Y-41383068D01*
X43825078Y-41378526D01*
X43878565Y-41400681D01*
X43916165Y-41444704D01*
X43929680Y-41500999D01*
X43929680Y-50025797D01*
X43920241Y-50073250D01*
X43893361Y-50113478D01*
X43853132Y-50140358D01*
X43697159Y-50204963D01*
X43571717Y-50301217D01*
X43475463Y-50426659D01*
X43414956Y-50572737D01*
X43394317Y-50729499D01*
X43414956Y-50886262D01*
X43475463Y-51032340D01*
X43571717Y-51157782D01*
X43658667Y-51224500D01*
X43697159Y-51254036D01*
X43843238Y-51314544D01*
X44000000Y-51335182D01*
X44156762Y-51314544D01*
X44302841Y-51254036D01*
X44428282Y-51157782D01*
X44524536Y-51032341D01*
X44585044Y-50886262D01*
X44605682Y-50729500D01*
X44602439Y-50704870D01*
X44582913Y-50556551D01*
X44583192Y-50556514D01*
X44580288Y-50544056D01*
X44584248Y-50503856D01*
X44584444Y-50503127D01*
X44581151Y-50465500D01*
X44580680Y-50454693D01*
X44580680Y-49787070D01*
X44599918Y-49720730D01*
X44651663Y-49674975D01*
X44719859Y-49664003D01*
X44783345Y-49691217D01*
X44863828Y-49757268D01*
X45046235Y-49854766D01*
X45200000Y-49901410D01*
X45200000Y-47858590D01*
X45046235Y-47905233D01*
X44863828Y-48002731D01*
X44783345Y-48068783D01*
X44719859Y-48095997D01*
X44651663Y-48085025D01*
X44599918Y-48039270D01*
X44580680Y-47972930D01*
X44580680Y-47247070D01*
X44599918Y-47180730D01*
X44651663Y-47134975D01*
X44719859Y-47124003D01*
X44783345Y-47151217D01*
X44863828Y-47217268D01*
X45046235Y-47314766D01*
X45200000Y-47361410D01*
X45200000Y-45318590D01*
X45046235Y-45365233D01*
X44863828Y-45462731D01*
X44783345Y-45528783D01*
X44719859Y-45555997D01*
X44651663Y-45545025D01*
X44599918Y-45499270D01*
X44580680Y-45432930D01*
X44580680Y-44643033D01*
X44599918Y-44576693D01*
X44651663Y-44530938D01*
X44719859Y-44519966D01*
X44783344Y-44547179D01*
X44891462Y-44635910D01*
X45065273Y-44728814D01*
X45253868Y-44786024D01*
X45450000Y-44805341D01*
X45646132Y-44786024D01*
X45834727Y-44728814D01*
X46008538Y-44635910D01*
X46160883Y-44510883D01*
X46204648Y-44457554D01*
X46253048Y-44421660D01*
X46312654Y-44412818D01*
X46369391Y-44433119D01*
X46409858Y-44477768D01*
X46424500Y-44536221D01*
X46424500Y-45525750D01*
X46409858Y-45584203D01*
X46369391Y-45628852D01*
X46312655Y-45649153D01*
X46253048Y-45640311D01*
X46204647Y-45604416D01*
X46196052Y-45593943D01*
X46036171Y-45462731D01*
X45853764Y-45365233D01*
X45700000Y-45318590D01*
X45700000Y-47361410D01*
X45853764Y-47314766D01*
X46036171Y-47217268D01*
X46196052Y-47086056D01*
X46204647Y-47075584D01*
X46253048Y-47039689D01*
X46312655Y-47030847D01*
X46369391Y-47051148D01*
X46409858Y-47095797D01*
X46424500Y-47154250D01*
X46424500Y-48065750D01*
X46409858Y-48124203D01*
X46369391Y-48168852D01*
X46312655Y-48189153D01*
X46253048Y-48180311D01*
X46204647Y-48144416D01*
X46196052Y-48133943D01*
X46036171Y-48002731D01*
X45853764Y-47905233D01*
X45700000Y-47858590D01*
X45700000Y-49901410D01*
X45853764Y-49854766D01*
X46036171Y-49757268D01*
X46196052Y-49626056D01*
X46204647Y-49615584D01*
X46253048Y-49579689D01*
X46312655Y-49570847D01*
X46369391Y-49591148D01*
X46409858Y-49635797D01*
X46424500Y-49694250D01*
X46424500Y-50500396D01*
X46405081Y-50567021D01*
X46352905Y-50612778D01*
X46284316Y-50623335D01*
X46250001Y-50618817D01*
X46093237Y-50639456D01*
X45947159Y-50699963D01*
X45821717Y-50796217D01*
X45725463Y-50921659D01*
X45664956Y-51067737D01*
X45644317Y-51224499D01*
X45659284Y-51338181D01*
X45664956Y-51381262D01*
X45697335Y-51459431D01*
X45705046Y-51478047D01*
X45713888Y-51537654D01*
X45693587Y-51594391D01*
X45648938Y-51634858D01*
X45590485Y-51649500D01*
X39420078Y-51649500D01*
X39361625Y-51634858D01*
X39316976Y-51594391D01*
X39296675Y-51537655D01*
X39305517Y-51478048D01*
X39321354Y-51439812D01*
X39335044Y-51406762D01*
X39355682Y-51250000D01*
X39335044Y-51093238D01*
X39274536Y-50947159D01*
X39251466Y-50917093D01*
X39178282Y-50821717D01*
X39052840Y-50725463D01*
X38906762Y-50664956D01*
X38749998Y-50644317D01*
X38715684Y-50648835D01*
X38647095Y-50638278D01*
X38594919Y-50592521D01*
X38575500Y-50525896D01*
X38575500Y-48880000D01*
X40814659Y-48880000D01*
X40833976Y-49076133D01*
X40891185Y-49264726D01*
X40955990Y-49385967D01*
X40984090Y-49438538D01*
X41109117Y-49590883D01*
X41261462Y-49715910D01*
X41435273Y-49808814D01*
X41623868Y-49866024D01*
X41820000Y-49885341D01*
X42016132Y-49866024D01*
X42204727Y-49808814D01*
X42378538Y-49715910D01*
X42530883Y-49590883D01*
X42655910Y-49438538D01*
X42748814Y-49264727D01*
X42806024Y-49076132D01*
X42825341Y-48880000D01*
X42806024Y-48683868D01*
X42748814Y-48495273D01*
X42655910Y-48321462D01*
X42530883Y-48169117D01*
X42378538Y-48044090D01*
X42262320Y-47981970D01*
X42204726Y-47951185D01*
X42016133Y-47893976D01*
X41820000Y-47874659D01*
X41623866Y-47893976D01*
X41435273Y-47951185D01*
X41261463Y-48044089D01*
X41109117Y-48169117D01*
X40984089Y-48321463D01*
X40891185Y-48495273D01*
X40833976Y-48683866D01*
X40814659Y-48880000D01*
X38575500Y-48880000D01*
X38575500Y-37744322D01*
X38575972Y-37733514D01*
X38579264Y-37695887D01*
X38569487Y-37659401D01*
X38567145Y-37648838D01*
X38563549Y-37628445D01*
X38560588Y-37611650D01*
X38560587Y-37611649D01*
X38560400Y-37610586D01*
X38550171Y-37585893D01*
X38549554Y-37585012D01*
X38549554Y-37585011D01*
X38527892Y-37554074D01*
X38522080Y-37544951D01*
X38503194Y-37512239D01*
X38474255Y-37487957D01*
X38466280Y-37480649D01*
X36149349Y-35163718D01*
X36142040Y-35155742D01*
X36123349Y-35133467D01*
X36117761Y-35126807D01*
X36117760Y-35126806D01*
X36085042Y-35107916D01*
X36075933Y-35102113D01*
X36048088Y-35082616D01*
X36044109Y-35079830D01*
X36019413Y-35069600D01*
X35981158Y-35062854D01*
X35970602Y-35060513D01*
X35934113Y-35050736D01*
X35896486Y-35054029D01*
X35885678Y-35054501D01*
X35019615Y-35054501D01*
X35008807Y-35054029D01*
X34971192Y-35050737D01*
X34934715Y-35060511D01*
X34924161Y-35062850D01*
X34885904Y-35069596D01*
X34861189Y-35079835D01*
X34829376Y-35102109D01*
X34820260Y-35107916D01*
X34787544Y-35126805D01*
X34763261Y-35155744D01*
X34755955Y-35163716D01*
X34701546Y-35218125D01*
X34643995Y-35250728D01*
X34577870Y-35249105D01*
X34396131Y-35193975D01*
X34200000Y-35174659D01*
X34003866Y-35193976D01*
X33815273Y-35251185D01*
X33641463Y-35344089D01*
X33489117Y-35469117D01*
X33364089Y-35621463D01*
X33271185Y-35795273D01*
X33213976Y-35983866D01*
X33194659Y-36180000D01*
X33213976Y-36376133D01*
X33271185Y-36564726D01*
X33326517Y-36668244D01*
X33364090Y-36738538D01*
X33489117Y-36890883D01*
X33641462Y-37015910D01*
X33815273Y-37108814D01*
X34003868Y-37166024D01*
X34200000Y-37185341D01*
X34396132Y-37166024D01*
X34584727Y-37108814D01*
X34758538Y-37015910D01*
X34910883Y-36890883D01*
X35035910Y-36738538D01*
X35128814Y-36564727D01*
X35186024Y-36376132D01*
X35205341Y-36180000D01*
X35186024Y-35983868D01*
X35150115Y-35865495D01*
X35146601Y-35808302D01*
X35169178Y-35755635D01*
X35213024Y-35718741D01*
X35268776Y-35705501D01*
X35719118Y-35705501D01*
X35766571Y-35714940D01*
X35806799Y-35741820D01*
X36058673Y-35993694D01*
X36089653Y-36045380D01*
X36092609Y-36105566D01*
X36066845Y-36160040D01*
X36018445Y-36195936D01*
X35947158Y-36225463D01*
X35821717Y-36321717D01*
X35725463Y-36447159D01*
X35664956Y-36593237D01*
X35642187Y-36766185D01*
X35642064Y-36766168D01*
X35638419Y-36803170D01*
X35608681Y-36850991D01*
X34701546Y-37758126D01*
X34643994Y-37790729D01*
X34577870Y-37789106D01*
X34396130Y-37733975D01*
X34200000Y-37714659D01*
X34003866Y-37733976D01*
X33815273Y-37791185D01*
X33641463Y-37884089D01*
X33489117Y-38009117D01*
X33364089Y-38161463D01*
X33271185Y-38335273D01*
X33213976Y-38523866D01*
X33194659Y-38719999D01*
X33213976Y-38916133D01*
X33271185Y-39104726D01*
X33339689Y-39232887D01*
X33364090Y-39278538D01*
X33489117Y-39430883D01*
X33641462Y-39555910D01*
X33815273Y-39648814D01*
X34003868Y-39706024D01*
X34200000Y-39725341D01*
X34396132Y-39706024D01*
X34584727Y-39648814D01*
X34758538Y-39555910D01*
X34910883Y-39430883D01*
X35035910Y-39278538D01*
X35128814Y-39104727D01*
X35186024Y-38916132D01*
X35205341Y-38720000D01*
X35186024Y-38523868D01*
X35130892Y-38342126D01*
X35129270Y-38276003D01*
X35161871Y-38218453D01*
X36007622Y-37372702D01*
X36055443Y-37342966D01*
X36111484Y-37337446D01*
X36250000Y-37355682D01*
X36406762Y-37335044D01*
X36552841Y-37274536D01*
X36678282Y-37178282D01*
X36774536Y-37052841D01*
X36804064Y-36981552D01*
X36839958Y-36933154D01*
X36894432Y-36907390D01*
X36954619Y-36910346D01*
X37006305Y-36941326D01*
X37888181Y-37823202D01*
X37915061Y-37863430D01*
X37924500Y-37910883D01*
X37924500Y-50730372D01*
X37924028Y-50741180D01*
X37919055Y-50798016D01*
X37919055Y-50836721D01*
X37886962Y-50892308D01*
X37831375Y-50924401D01*
X37767190Y-50924403D01*
X37753502Y-50920735D01*
X37715875Y-50924028D01*
X37705067Y-50924500D01*
X32686188Y-50924500D01*
X32638735Y-50915061D01*
X32598507Y-50888181D01*
X30840326Y-49130000D01*
X33178590Y-49130000D01*
X33225233Y-49283764D01*
X33322731Y-49466171D01*
X33453945Y-49626054D01*
X33613828Y-49757268D01*
X33796235Y-49854766D01*
X33950000Y-49901410D01*
X33950000Y-49130000D01*
X34450000Y-49130000D01*
X34450000Y-49901410D01*
X34603764Y-49854766D01*
X34786171Y-49757268D01*
X34946054Y-49626054D01*
X35077268Y-49466171D01*
X35174766Y-49283764D01*
X35221410Y-49130000D01*
X34450000Y-49130000D01*
X33950000Y-49130000D01*
X33178590Y-49130000D01*
X30840326Y-49130000D01*
X30340326Y-48630000D01*
X33178590Y-48630000D01*
X33950000Y-48630000D01*
X33950000Y-47858590D01*
X34450000Y-47858590D01*
X34450000Y-48630000D01*
X35221410Y-48630000D01*
X35174766Y-48476235D01*
X35077268Y-48293828D01*
X34946054Y-48133945D01*
X34786171Y-48002731D01*
X34603764Y-47905233D01*
X34450000Y-47858590D01*
X33950000Y-47858590D01*
X33796235Y-47905233D01*
X33613828Y-48002731D01*
X33453945Y-48133945D01*
X33322731Y-48293828D01*
X33225233Y-48476235D01*
X33178590Y-48630000D01*
X30340326Y-48630000D01*
X28300326Y-46590000D01*
X33178590Y-46590000D01*
X33225233Y-46743764D01*
X33322731Y-46926171D01*
X33453945Y-47086054D01*
X33613828Y-47217268D01*
X33796235Y-47314766D01*
X33950000Y-47361410D01*
X33950000Y-46590000D01*
X34450000Y-46590000D01*
X34450000Y-47361410D01*
X34603764Y-47314766D01*
X34786171Y-47217268D01*
X34946054Y-47086054D01*
X35077268Y-46926171D01*
X35174766Y-46743764D01*
X35221410Y-46590000D01*
X34450000Y-46590000D01*
X33950000Y-46590000D01*
X33178590Y-46590000D01*
X28300326Y-46590000D01*
X27800326Y-46090000D01*
X33178590Y-46090000D01*
X33950000Y-46090000D01*
X33950000Y-45318590D01*
X34450000Y-45318590D01*
X34450000Y-46090000D01*
X35221410Y-46090000D01*
X35174766Y-45936235D01*
X35077268Y-45753828D01*
X34946054Y-45593945D01*
X34786171Y-45462731D01*
X34603764Y-45365233D01*
X34450000Y-45318590D01*
X33950000Y-45318590D01*
X33796235Y-45365233D01*
X33613828Y-45462731D01*
X33453945Y-45593945D01*
X33322731Y-45753828D01*
X33225233Y-45936235D01*
X33178590Y-46090000D01*
X27800326Y-46090000D01*
X27744043Y-46033717D01*
X27736734Y-46025741D01*
X27712454Y-45996805D01*
X27679736Y-45977915D01*
X27670627Y-45972112D01*
X27639684Y-45950446D01*
X27638803Y-45949829D01*
X27614107Y-45939599D01*
X27575852Y-45932853D01*
X27565296Y-45930512D01*
X27528807Y-45920735D01*
X27491180Y-45924028D01*
X27480372Y-45924500D01*
X26441575Y-45924500D01*
X26383949Y-45910297D01*
X26339525Y-45870940D01*
X26278184Y-45782072D01*
X26277497Y-45781463D01*
X26150852Y-45669266D01*
X26136588Y-45661779D01*
X26000224Y-45590209D01*
X25875765Y-45559533D01*
X25835056Y-45549500D01*
X25664944Y-45549500D01*
X25632284Y-45557549D01*
X25499775Y-45590209D01*
X25349149Y-45669265D01*
X25349147Y-45669266D01*
X25349148Y-45669266D01*
X25221817Y-45782071D01*
X25221815Y-45782072D01*
X25210547Y-45792056D01*
X25209039Y-45790354D01*
X25179454Y-45815932D01*
X25118508Y-45828629D01*
X25059072Y-45810108D01*
X25016128Y-45765036D01*
X25000500Y-45704774D01*
X25000500Y-40774500D01*
X25017113Y-40712500D01*
X25062500Y-40667113D01*
X25124500Y-40650500D01*
X26169749Y-40650500D01*
X26204728Y-40643542D01*
X26228231Y-40638867D01*
X26294552Y-40594552D01*
X26325899Y-40547638D01*
X26379248Y-40502949D01*
X26448272Y-40494038D01*
X26511222Y-40523713D01*
X26519148Y-40530734D01*
X26669775Y-40609790D01*
X26834944Y-40650500D01*
X27005055Y-40650500D01*
X27005056Y-40650500D01*
X27170225Y-40609790D01*
X27320852Y-40530734D01*
X27448183Y-40417929D01*
X27544818Y-40277930D01*
X27605140Y-40118872D01*
X27625645Y-39950000D01*
X27605140Y-39781128D01*
X27544818Y-39622070D01*
X27480121Y-39528341D01*
X27448184Y-39482072D01*
X27431374Y-39467180D01*
X27320852Y-39369266D01*
X27288639Y-39352359D01*
X27170224Y-39290209D01*
X27045765Y-39259533D01*
X27005056Y-39249500D01*
X26834944Y-39249500D01*
X26802284Y-39257549D01*
X26669775Y-39290209D01*
X26519145Y-39369267D01*
X26511222Y-39376287D01*
X26448270Y-39405961D01*
X26379247Y-39397050D01*
X26325897Y-39352359D01*
X26319802Y-39343238D01*
X26294552Y-39305448D01*
X26271747Y-39290210D01*
X26228230Y-39261132D01*
X26169749Y-39249500D01*
X26169748Y-39249500D01*
X25130252Y-39249500D01*
X25124500Y-39249500D01*
X25062500Y-39232887D01*
X25017113Y-39187500D01*
X25000500Y-39125500D01*
X25000500Y-33274500D01*
X25017113Y-33212500D01*
X25062500Y-33167113D01*
X25124500Y-33150500D01*
X26169749Y-33150500D01*
X26198989Y-33144683D01*
X26228231Y-33138867D01*
X26294552Y-33094552D01*
X26298995Y-33087901D01*
X26346215Y-33046099D01*
X26407892Y-33032928D01*
X26468069Y-33051800D01*
X26592527Y-33130003D01*
X26669999Y-33157111D01*
X26670000Y-33157112D01*
X26670000Y-32700000D01*
X27170000Y-32700000D01*
X27170000Y-33157111D01*
X27247470Y-33130003D01*
X27390576Y-33040083D01*
X27510083Y-32920576D01*
X27600003Y-32777470D01*
X27627111Y-32700000D01*
X27170000Y-32700000D01*
X26670000Y-32700000D01*
X26670000Y-31742889D01*
X26669999Y-31742888D01*
X27170000Y-31742888D01*
X27170000Y-32200000D01*
X27627112Y-32200000D01*
X27627111Y-32199999D01*
X27600003Y-32122529D01*
X27510083Y-31979423D01*
X27390576Y-31859916D01*
X27247470Y-31769996D01*
X27170000Y-31742888D01*
X26669999Y-31742888D01*
X26592530Y-31769995D01*
X26468069Y-31848200D01*
X26407892Y-31867071D01*
X26346216Y-31853901D01*
X26298995Y-31812097D01*
X26294552Y-31805447D01*
X26228230Y-31761132D01*
X26169749Y-31749500D01*
X26169748Y-31749500D01*
X25130252Y-31749500D01*
X25124500Y-31749500D01*
X25062500Y-31732887D01*
X25017113Y-31687500D01*
X25000500Y-31625500D01*
X25000500Y-26844749D01*
X34299500Y-26844749D01*
X34311132Y-26903230D01*
X34355447Y-26969552D01*
X34421769Y-27013867D01*
X34480251Y-27025500D01*
X34480252Y-27025500D01*
X35519748Y-27025500D01*
X35519749Y-27025500D01*
X35548989Y-27019683D01*
X35578231Y-27013867D01*
X35644552Y-26969552D01*
X35648995Y-26962901D01*
X35696215Y-26921099D01*
X35757892Y-26907928D01*
X35818069Y-26926800D01*
X35942527Y-27005003D01*
X36019999Y-27032111D01*
X36020000Y-27032112D01*
X36020000Y-26575000D01*
X36520000Y-26575000D01*
X36520000Y-27032111D01*
X36597470Y-27005003D01*
X36740576Y-26915083D01*
X36860083Y-26795576D01*
X36950003Y-26652470D01*
X36977111Y-26575000D01*
X36520000Y-26575000D01*
X36020000Y-26575000D01*
X36020000Y-25617889D01*
X36019999Y-25617888D01*
X36520000Y-25617888D01*
X36520000Y-26075000D01*
X36977112Y-26075000D01*
X36977111Y-26074999D01*
X36950003Y-25997529D01*
X36860083Y-25854423D01*
X36740576Y-25734916D01*
X36597470Y-25644996D01*
X36520000Y-25617888D01*
X36019999Y-25617888D01*
X35942530Y-25644995D01*
X35818069Y-25723200D01*
X35757892Y-25742071D01*
X35696216Y-25728901D01*
X35648995Y-25687097D01*
X35644552Y-25680447D01*
X35578230Y-25636132D01*
X35519749Y-25624500D01*
X35519748Y-25624500D01*
X34480252Y-25624500D01*
X34480251Y-25624500D01*
X34421769Y-25636132D01*
X34355447Y-25680447D01*
X34311132Y-25746769D01*
X34299500Y-25805251D01*
X34299500Y-26844749D01*
X25000500Y-26844749D01*
X25000500Y-25124500D01*
X25017113Y-25062500D01*
X25062500Y-25017113D01*
X25124500Y-25000500D01*
X40739811Y-25000500D01*
X40796106Y-25014015D01*
G37*
%TD.AperFunction*%
%TA.AperFunction,Conductor*%
G36*
X58102414Y-43933312D02*
G01*
X58154935Y-43979069D01*
X58174500Y-44045922D01*
X58174500Y-45923555D01*
X58154935Y-45990408D01*
X58102414Y-46036165D01*
X58033511Y-46046386D01*
X57969969Y-46017846D01*
X57931840Y-45959551D01*
X57924768Y-45936238D01*
X57827268Y-45753828D01*
X57696054Y-45593945D01*
X57536171Y-45462731D01*
X57353764Y-45365233D01*
X57200000Y-45318590D01*
X57200000Y-47361410D01*
X57353764Y-47314766D01*
X57536171Y-47217268D01*
X57696054Y-47086054D01*
X57827268Y-46926171D01*
X57924768Y-46743761D01*
X57931840Y-46720449D01*
X57969969Y-46662154D01*
X58033511Y-46633614D01*
X58102414Y-46643835D01*
X58154935Y-46689592D01*
X58174500Y-46756445D01*
X58174500Y-48463555D01*
X58154935Y-48530408D01*
X58102414Y-48576165D01*
X58033511Y-48586386D01*
X57969969Y-48557846D01*
X57931840Y-48499551D01*
X57924768Y-48476238D01*
X57827268Y-48293828D01*
X57696054Y-48133945D01*
X57536171Y-48002731D01*
X57353764Y-47905233D01*
X57200000Y-47858590D01*
X57200000Y-49901410D01*
X57353764Y-49854766D01*
X57536171Y-49757268D01*
X57696054Y-49626054D01*
X57827268Y-49466171D01*
X57924768Y-49283761D01*
X57931840Y-49260449D01*
X57969969Y-49202154D01*
X58033511Y-49173614D01*
X58102414Y-49183835D01*
X58154935Y-49229592D01*
X58174500Y-49296445D01*
X58174500Y-49813812D01*
X58165061Y-49861265D01*
X58138181Y-49901493D01*
X56512181Y-51527493D01*
X56462818Y-51557743D01*
X56405102Y-51562285D01*
X56351615Y-51540130D01*
X56314015Y-51496107D01*
X56300500Y-51439812D01*
X56300500Y-49930299D01*
X56316609Y-49869180D01*
X56360751Y-49823941D01*
X56421457Y-49806336D01*
X56482953Y-49820941D01*
X56546235Y-49854766D01*
X56700000Y-49901410D01*
X56700000Y-47858590D01*
X56546235Y-47905233D01*
X56363828Y-48002731D01*
X56353165Y-48011483D01*
X56289679Y-48038697D01*
X56221483Y-48027725D01*
X56169738Y-47981970D01*
X56150500Y-47915630D01*
X56150500Y-47304370D01*
X56169738Y-47238030D01*
X56221483Y-47192275D01*
X56289679Y-47181303D01*
X56353165Y-47208517D01*
X56363828Y-47217268D01*
X56546235Y-47314766D01*
X56700000Y-47361410D01*
X56700000Y-45318590D01*
X56546235Y-45365233D01*
X56363828Y-45462731D01*
X56353165Y-45471483D01*
X56289679Y-45498697D01*
X56221483Y-45487725D01*
X56169738Y-45441970D01*
X56150500Y-45375630D01*
X56150500Y-44700333D01*
X56169738Y-44633993D01*
X56221483Y-44588238D01*
X56289679Y-44577266D01*
X56353164Y-44604479D01*
X56391462Y-44635910D01*
X56565273Y-44728814D01*
X56753868Y-44786024D01*
X56950000Y-44805341D01*
X57146132Y-44786024D01*
X57334727Y-44728814D01*
X57508538Y-44635910D01*
X57660883Y-44510883D01*
X57785910Y-44358538D01*
X57878814Y-44184727D01*
X57920145Y-44048478D01*
X57931840Y-44009926D01*
X57969969Y-43951631D01*
X58033511Y-43923091D01*
X58102414Y-43933312D01*
G37*
%TD.AperFunction*%
%TD*%
M02*
