%TF.GenerationSoftware,KiCad,Pcbnew,7.0.1*%
%TF.CreationDate,2023-09-19T08:25:13-04:00*%
%TF.ProjectId,TacTile-C,54616354-696c-4652-9d43-2e6b69636164,rev?*%
%TF.SameCoordinates,Original*%
%TF.FileFunction,Soldermask,Top*%
%TF.FilePolarity,Negative*%
%FSLAX46Y46*%
G04 Gerber Fmt 4.6, Leading zero omitted, Abs format (unit mm)*
G04 Created by KiCad (PCBNEW 7.0.1) date 2023-09-19 08:25:13*
%MOMM*%
%LPD*%
G01*
G04 APERTURE LIST*
G04 Aperture macros list*
%AMHorizOval*
0 Thick line with rounded ends*
0 $1 width*
0 $2 $3 position (X,Y) of the first rounded end (center of the circle)*
0 $4 $5 position (X,Y) of the second rounded end (center of the circle)*
0 Add line between two ends*
20,1,$1,$2,$3,$4,$5,0*
0 Add two circle primitives to create the rounded ends*
1,1,$1,$2,$3*
1,1,$1,$4,$5*%
%AMRotRect*
0 Rectangle, with rotation*
0 The origin of the aperture is its center*
0 $1 length*
0 $2 width*
0 $3 Rotation angle, in degrees counterclockwise*
0 Add horizontal line*
21,1,$1,$2,0,0,$3*%
G04 Aperture macros list end*
%ADD10C,1.000000*%
%ADD11R,1.000000X1.000000*%
%ADD12O,1.000000X1.000000*%
%ADD13R,1.600000X1.600000*%
%ADD14O,1.600000X1.600000*%
%ADD15RotRect,1.000000X1.000000X292.000000*%
%ADD16HorizOval,1.000000X0.000000X0.000000X0.000000X0.000000X0*%
%ADD17RotRect,1.000000X1.000000X112.000000*%
%ADD18HorizOval,1.000000X0.000000X0.000000X0.000000X0.000000X0*%
%ADD19R,1.700000X1.700000*%
%ADD20O,1.700000X1.700000*%
G04 APERTURE END LIST*
D10*
%TO.C,JMP3*%
X25800000Y-51300000D03*
%TD*%
%TO.C,JMP6*%
X25800000Y-58800000D03*
%TD*%
%TO.C,JMP16*%
X84300000Y-63800000D03*
%TD*%
D11*
%TO.C,J6*%
X84300000Y-40000000D03*
D12*
X83030000Y-40000000D03*
%TD*%
D13*
%TO.C,U2*%
X45500000Y-31150000D03*
D14*
X45500000Y-33690000D03*
X45500000Y-36230000D03*
X45500000Y-38770000D03*
X45500000Y-41310000D03*
X45500000Y-43850000D03*
X45500000Y-46390000D03*
X45500000Y-48930000D03*
X53120000Y-48930000D03*
X53120000Y-46390000D03*
X53120000Y-43850000D03*
X53120000Y-41310000D03*
X53120000Y-38770000D03*
X53120000Y-36230000D03*
X53120000Y-33690000D03*
X53120000Y-31150000D03*
%TD*%
D10*
%TO.C,JMP14*%
X84300000Y-58800000D03*
%TD*%
D15*
%TO.C,J10*%
X81852670Y-66006506D03*
D16*
X80675147Y-66482256D03*
%TD*%
D10*
%TO.C,JMP4*%
X25800000Y-53800000D03*
%TD*%
D11*
%TO.C,J2*%
X84300000Y-32500000D03*
D12*
X83030000Y-32500000D03*
%TD*%
D10*
%TO.C,JMP10*%
X84300000Y-48800000D03*
%TD*%
%TO.C,JMP7*%
X25800000Y-61300000D03*
%TD*%
D13*
%TO.C,U5*%
X34250000Y-61150000D03*
D14*
X34250000Y-63690000D03*
X34250000Y-66230000D03*
X34250000Y-68770000D03*
X34250000Y-71310000D03*
X34250000Y-73850000D03*
X34250000Y-76390000D03*
X34250000Y-78930000D03*
X41870000Y-78930000D03*
X41870000Y-76390000D03*
X41870000Y-73850000D03*
X41870000Y-71310000D03*
X41870000Y-68770000D03*
X41870000Y-66230000D03*
X41870000Y-63690000D03*
X41870000Y-61150000D03*
%TD*%
D15*
%TO.C,J8*%
X81852670Y-43506506D03*
D16*
X80675147Y-43982256D03*
%TD*%
D17*
%TO.C,J1*%
X28147331Y-28993494D03*
D18*
X29324854Y-28517744D03*
%TD*%
D10*
%TO.C,JMP1*%
X25800000Y-46300000D03*
%TD*%
D15*
%TO.C,J14*%
X81852670Y-73506506D03*
D16*
X80675147Y-73982256D03*
%TD*%
D11*
%TO.C,J15*%
X25700000Y-77500000D03*
D12*
X26970000Y-77500000D03*
%TD*%
D10*
%TO.C,JMP8*%
X25800000Y-63800000D03*
%TD*%
D13*
%TO.C,U1*%
X34250000Y-31150000D03*
D14*
X34250000Y-33690000D03*
X34250000Y-36230000D03*
X34250000Y-38770000D03*
X34250000Y-41310000D03*
X34250000Y-43850000D03*
X34250000Y-46390000D03*
X34250000Y-48930000D03*
X41870000Y-48930000D03*
X41870000Y-46390000D03*
X41870000Y-43850000D03*
X41870000Y-41310000D03*
X41870000Y-38770000D03*
X41870000Y-36230000D03*
X41870000Y-33690000D03*
X41870000Y-31150000D03*
%TD*%
D11*
%TO.C,J17*%
X25700000Y-32500000D03*
D12*
X26970000Y-32500000D03*
%TD*%
D10*
%TO.C,JMP11*%
X84300000Y-51300000D03*
%TD*%
%TO.C,JMP9*%
X84300000Y-46300000D03*
%TD*%
D17*
%TO.C,J9*%
X28147331Y-66493494D03*
D18*
X29324854Y-66017744D03*
%TD*%
D13*
%TO.C,U3*%
X57000000Y-31150000D03*
D14*
X57000000Y-33690000D03*
X57000000Y-36230000D03*
X57000000Y-38770000D03*
X57000000Y-41310000D03*
X57000000Y-43850000D03*
X57000000Y-46390000D03*
X57000000Y-48930000D03*
X64620000Y-48930000D03*
X64620000Y-46390000D03*
X64620000Y-43850000D03*
X64620000Y-41310000D03*
X64620000Y-38770000D03*
X64620000Y-36230000D03*
X64620000Y-33690000D03*
X64620000Y-31150000D03*
%TD*%
D17*
%TO.C,J3*%
X28147331Y-36493494D03*
D18*
X29324854Y-36017744D03*
%TD*%
D10*
%TO.C,JMP2*%
X25800000Y-48800000D03*
%TD*%
%TO.C,JMP5*%
X25800000Y-56300000D03*
%TD*%
%TO.C,JMP13*%
X84300000Y-56300000D03*
%TD*%
D13*
%TO.C,U6*%
X68250000Y-61150000D03*
D14*
X68250000Y-63690000D03*
X68250000Y-66230000D03*
X68250000Y-68770000D03*
X68250000Y-71310000D03*
X68250000Y-73850000D03*
X68250000Y-76390000D03*
X68250000Y-78930000D03*
X75870000Y-78930000D03*
X75870000Y-76390000D03*
X75870000Y-73850000D03*
X75870000Y-71310000D03*
X75870000Y-68770000D03*
X75870000Y-66230000D03*
X75870000Y-63690000D03*
X75870000Y-61150000D03*
%TD*%
D11*
%TO.C,J11*%
X25700000Y-70000000D03*
D12*
X26970000Y-70000000D03*
%TD*%
D13*
%TO.C,U4*%
X68250000Y-31150000D03*
D14*
X68250000Y-33690000D03*
X68250000Y-36230000D03*
X68250000Y-38770000D03*
X68250000Y-41310000D03*
X68250000Y-43850000D03*
X68250000Y-46390000D03*
X68250000Y-48930000D03*
X75870000Y-48930000D03*
X75870000Y-46390000D03*
X75870000Y-43850000D03*
X75870000Y-41310000D03*
X75870000Y-38770000D03*
X75870000Y-36230000D03*
X75870000Y-33690000D03*
X75870000Y-31150000D03*
%TD*%
D13*
%TO.C,U8*%
X57000000Y-61150000D03*
D14*
X57000000Y-63690000D03*
X57000000Y-66230000D03*
X57000000Y-68770000D03*
X57000000Y-71310000D03*
X57000000Y-73850000D03*
X57000000Y-76390000D03*
X57000000Y-78930000D03*
X64620000Y-78930000D03*
X64620000Y-76390000D03*
X64620000Y-73850000D03*
X64620000Y-71310000D03*
X64620000Y-68770000D03*
X64620000Y-66230000D03*
X64620000Y-63690000D03*
X64620000Y-61150000D03*
%TD*%
D11*
%TO.C,J12*%
X84300000Y-70000000D03*
D12*
X83030000Y-70000000D03*
%TD*%
D13*
%TO.C,U7*%
X45500000Y-61150000D03*
D14*
X45500000Y-63690000D03*
X45500000Y-66230000D03*
X45500000Y-68770000D03*
X45500000Y-71310000D03*
X45500000Y-73850000D03*
X45500000Y-76390000D03*
X45500000Y-78930000D03*
X53120000Y-78930000D03*
X53120000Y-76390000D03*
X53120000Y-73850000D03*
X53120000Y-71310000D03*
X53120000Y-68770000D03*
X53120000Y-66230000D03*
X53120000Y-63690000D03*
X53120000Y-61150000D03*
%TD*%
D10*
%TO.C,JMP15*%
X84300000Y-61300000D03*
%TD*%
D15*
%TO.C,J4*%
X81852670Y-36006506D03*
D16*
X80675147Y-36482256D03*
%TD*%
D11*
%TO.C,J5*%
X25700000Y-40000000D03*
D12*
X26970000Y-40000000D03*
%TD*%
D17*
%TO.C,J13*%
X28147331Y-73993494D03*
D18*
X29324854Y-73517744D03*
%TD*%
D10*
%TO.C,JMP12*%
X84300000Y-53800000D03*
%TD*%
D11*
%TO.C,J16*%
X84300000Y-77500000D03*
D12*
X83030000Y-77500000D03*
%TD*%
D17*
%TO.C,J7*%
X28147331Y-43993494D03*
D18*
X29324854Y-43517744D03*
%TD*%
D19*
%TO.C,J18*%
X34000000Y-83625000D03*
D20*
X36540000Y-83625000D03*
X39080000Y-83625000D03*
X41620000Y-83625000D03*
%TD*%
D19*
%TO.C,J21*%
X72460000Y-26375000D03*
D20*
X75000000Y-26375000D03*
%TD*%
D19*
%TO.C,J19*%
X65840000Y-83625000D03*
D20*
X68380000Y-83625000D03*
X70920000Y-83625000D03*
X73460000Y-83625000D03*
X76000000Y-83625000D03*
%TD*%
D19*
%TO.C,J20*%
X35000000Y-26375000D03*
D20*
X37540000Y-26375000D03*
%TD*%
M02*
