M48
; DRILL file {KiCad 7.0.1} date Mon Aug 14 10:41:52 2023
; FORMAT={-:-/ absolute / inch / decimal}
; #@! TF.CreationDate,2023-08-14T10:41:52-04:00
; #@! TF.GenerationSoftware,Kicad,Pcbnew,7.0.1
; #@! TF.FileFunction,Plated,1,2,PTH
FMAT,2
INCH
; #@! TA.AperFunction,Plated,PTH,ViaDrill
T1C0.0157
; #@! TA.AperFunction,Plated,PTH,ComponentDrill
T2C0.0157
; #@! TA.AperFunction,Plated,PTH,ComponentDrill
T3C0.0256
; #@! TA.AperFunction,Plated,PTH,ComponentDrill
T4C0.0276
; #@! TA.AperFunction,Plated,PTH,ComponentDrill
T5C0.0315
%
G90
G05
T1
X1.3976Y-1.7028
X1.4272Y-1.4469
X1.4655Y-2.1385
X1.5256Y-2.0177
X1.5551Y-1.063
X1.565Y-1.811
X1.5945Y-1.7028
X1.6961Y-1.4484
X1.7323Y-1.9972
X1.7405Y-2.358
X1.7913Y-2.1279
X1.8209Y-2.0167
X1.8307Y-1.0827
X1.8307Y-2.1946
X1.8409Y-1.6438
X1.8593Y-2.1279
X1.8898Y-2.9528
X1.8898Y-3.2579
X1.9084Y-2.2057
X1.9179Y-1.9972
X1.9291Y-1.5443
X1.9572Y-1.9972
X1.9575Y-2.1074
X1.9685Y-1.6152
X1.9966Y-1.9972
X2.0095Y-2.1074
X2.0359Y-1.9972
X2.0472Y-2.1186
X2.1457Y-2.2047
X2.1654Y-1.4272
X2.1654Y-3.189
X2.1752Y-2.0699
X2.3031Y-1.437
X2.3031Y-2.8445
X2.313Y-2.9823
X2.3293Y-1.9972
X2.3327Y-3.0807
X2.3514Y-1.5748
X2.3686Y-1.9972
X2.4213Y-1.8209
X2.4213Y-1.9193
X2.4705Y-2.2146
X2.598Y-1.998
X2.5994Y-1.6535
X2.6083Y-2.7362
X2.628Y-1.5846
X2.6373Y-1.9975
X2.641Y-2.7647
X2.7579Y-1.3583
X2.7953Y-1.6437
X2.8346Y-1.5551
X2.8445Y-1.4764
X2.8912Y-1.6265
X2.8926Y-1.1723
X2.8937Y-1.378
X3.0522Y-1.8012
X3.0576Y-1.694
X3.0579Y-2.5142
X3.0761Y-2.4793
X3.0978Y-2.4465
X3.1159Y-2.4116
X3.12Y-2.2475
X3.1262Y-2.201
X3.1333Y-2.2851
X3.1444Y-2.3819
X3.1496Y-2.3425
T2
X1.0138Y-1.8209
X1.0138Y-1.9193
X1.0138Y-2.0177
X1.0138Y-2.1161
X1.0138Y-2.2146
X1.0138Y-2.313
X1.0138Y-2.4114
X1.0138Y-2.5098
X3.3169Y-1.8209
X3.3169Y-1.9193
X3.3169Y-2.0177
X3.3169Y-2.1161
X3.3169Y-2.2146
X3.3169Y-2.313
X3.3169Y-2.4114
X3.3169Y-2.5098
T3
X1.378Y-1.0364
X1.378Y-3.2904
X1.428Y-1.0364
X1.428Y-3.2904
X1.478Y-3.2904
X1.528Y-3.2904
X2.7528Y-3.2904
X2.8028Y-3.2904
X2.8528Y-3.2904
X2.9028Y-1.0364
X2.9028Y-3.2904
X2.9528Y-1.0364
X2.9528Y-3.2904
T4
X1.0098Y-1.2776
X1.0098Y-1.5728
X1.0098Y-2.7539
X1.0098Y-3.0492
X1.0598Y-1.2776
X1.0598Y-1.5728
X1.0598Y-2.7539
X1.0598Y-3.0492
X1.1062Y-1.1395
X1.1062Y-1.4348
X1.1062Y-1.7301
X1.1062Y-2.6159
X1.1062Y-2.9112
X1.1526Y-1.1208
X1.1526Y-1.4161
X1.1526Y-1.7113
X1.1526Y-2.5972
X1.1526Y-2.8924
X3.1742Y-1.4343
X3.1742Y-1.7296
X3.1742Y-2.6154
X3.1742Y-2.9107
X3.2206Y-1.4156
X3.2206Y-1.7109
X3.2206Y-2.5967
X3.2206Y-2.892
X3.2669Y-1.2776
X3.2669Y-1.5728
X3.2669Y-2.7539
X3.2669Y-3.0492
X3.3169Y-1.2776
X3.3169Y-1.5728
X3.3169Y-2.7539
X3.3169Y-3.0492
T5
X1.3465Y-1.2244
X1.3465Y-1.3244
X1.3465Y-1.4244
X1.3465Y-1.5244
X1.3465Y-1.6244
X1.3465Y-1.7244
X1.3465Y-1.8244
X1.3465Y-1.9244
X1.3465Y-2.4055
X1.3465Y-2.5055
X1.3465Y-2.6055
X1.3465Y-2.7055
X1.3465Y-2.8055
X1.3465Y-2.9055
X1.3465Y-3.0055
X1.3465Y-3.1055
X1.6465Y-1.2244
X1.6465Y-1.3244
X1.6465Y-1.4244
X1.6465Y-1.5244
X1.6465Y-1.6244
X1.6465Y-1.7244
X1.6465Y-1.8244
X1.6465Y-1.9244
X1.6465Y-2.4055
X1.6465Y-2.5055
X1.6465Y-2.6055
X1.6465Y-2.7055
X1.6465Y-2.8055
X1.6465Y-2.9055
X1.6465Y-3.0055
X1.6465Y-3.1055
X1.7894Y-1.2244
X1.7894Y-1.3244
X1.7894Y-1.4244
X1.7894Y-1.5244
X1.7894Y-1.6244
X1.7894Y-1.7244
X1.7894Y-1.8244
X1.7894Y-1.9244
X1.7894Y-2.4055
X1.7894Y-2.5055
X1.7894Y-2.6055
X1.7894Y-2.7055
X1.7894Y-2.8055
X1.7894Y-2.9055
X1.7894Y-3.0055
X1.7894Y-3.1055
X2.0894Y-1.2244
X2.0894Y-1.3244
X2.0894Y-1.4244
X2.0894Y-1.5244
X2.0894Y-1.6244
X2.0894Y-1.7244
X2.0894Y-1.8244
X2.0894Y-1.9244
X2.0894Y-2.4055
X2.0894Y-2.5055
X2.0894Y-2.6055
X2.0894Y-2.7055
X2.0894Y-2.8055
X2.0894Y-2.9055
X2.0894Y-3.0055
X2.0894Y-3.1055
X2.2421Y-1.2244
X2.2421Y-1.3244
X2.2421Y-1.4244
X2.2421Y-1.5244
X2.2421Y-1.6244
X2.2421Y-1.7244
X2.2421Y-1.8244
X2.2421Y-1.9244
X2.2421Y-2.4055
X2.2421Y-2.5055
X2.2421Y-2.6055
X2.2421Y-2.7055
X2.2421Y-2.8055
X2.2421Y-2.9055
X2.2421Y-3.0055
X2.2421Y-3.1055
X2.5421Y-1.2244
X2.5421Y-1.3244
X2.5421Y-1.4244
X2.5421Y-1.5244
X2.5421Y-1.6244
X2.5421Y-1.7244
X2.5421Y-1.8244
X2.5421Y-1.9244
X2.5421Y-2.4055
X2.5421Y-2.5055
X2.5421Y-2.6055
X2.5421Y-2.7055
X2.5421Y-2.8055
X2.5421Y-2.9055
X2.5421Y-3.0055
X2.5421Y-3.1055
X2.685Y-1.2244
X2.685Y-1.3244
X2.685Y-1.4244
X2.685Y-1.5244
X2.685Y-1.6244
X2.685Y-1.7244
X2.685Y-1.8244
X2.685Y-1.9244
X2.685Y-2.4094
X2.685Y-2.5094
X2.685Y-2.6094
X2.985Y-1.2244
X2.985Y-1.3244
X2.985Y-1.4244
X2.985Y-1.5244
X2.985Y-1.6244
X2.985Y-1.7244
X2.985Y-1.8244
X2.985Y-1.9244
X2.985Y-2.4094
X2.985Y-2.5094
X2.985Y-2.6094
T0
M30
