%TF.GenerationSoftware,KiCad,Pcbnew,7.0.1*%
%TF.CreationDate,2023-08-14T10:41:28-04:00*%
%TF.ProjectId,TacTile-C,54616354-696c-4652-9d43-2e6b69636164,rev?*%
%TF.SameCoordinates,Original*%
%TF.FileFunction,Legend,Bot*%
%TF.FilePolarity,Positive*%
%FSLAX46Y46*%
G04 Gerber Fmt 4.6, Leading zero omitted, Abs format (unit mm)*
G04 Created by KiCad (PCBNEW 7.0.1) date 2023-08-14 10:41:28*
%MOMM*%
%LPD*%
G01*
G04 APERTURE LIST*
%ADD10C,0.150000*%
%ADD11C,0.120000*%
G04 APERTURE END LIST*
D10*
%TO.C,J18*%
X32767619Y-82765476D02*
X33481904Y-82765476D01*
X33481904Y-82765476D02*
X33624761Y-82717857D01*
X33624761Y-82717857D02*
X33720000Y-82622619D01*
X33720000Y-82622619D02*
X33767619Y-82479762D01*
X33767619Y-82479762D02*
X33767619Y-82384524D01*
X33767619Y-83765476D02*
X33767619Y-83194048D01*
X33767619Y-83479762D02*
X32767619Y-83479762D01*
X32767619Y-83479762D02*
X32910476Y-83384524D01*
X32910476Y-83384524D02*
X33005714Y-83289286D01*
X33005714Y-83289286D02*
X33053333Y-83194048D01*
X33196190Y-84336905D02*
X33148571Y-84241667D01*
X33148571Y-84241667D02*
X33100952Y-84194048D01*
X33100952Y-84194048D02*
X33005714Y-84146429D01*
X33005714Y-84146429D02*
X32958095Y-84146429D01*
X32958095Y-84146429D02*
X32862857Y-84194048D01*
X32862857Y-84194048D02*
X32815238Y-84241667D01*
X32815238Y-84241667D02*
X32767619Y-84336905D01*
X32767619Y-84336905D02*
X32767619Y-84527381D01*
X32767619Y-84527381D02*
X32815238Y-84622619D01*
X32815238Y-84622619D02*
X32862857Y-84670238D01*
X32862857Y-84670238D02*
X32958095Y-84717857D01*
X32958095Y-84717857D02*
X33005714Y-84717857D01*
X33005714Y-84717857D02*
X33100952Y-84670238D01*
X33100952Y-84670238D02*
X33148571Y-84622619D01*
X33148571Y-84622619D02*
X33196190Y-84527381D01*
X33196190Y-84527381D02*
X33196190Y-84336905D01*
X33196190Y-84336905D02*
X33243809Y-84241667D01*
X33243809Y-84241667D02*
X33291428Y-84194048D01*
X33291428Y-84194048D02*
X33386666Y-84146429D01*
X33386666Y-84146429D02*
X33577142Y-84146429D01*
X33577142Y-84146429D02*
X33672380Y-84194048D01*
X33672380Y-84194048D02*
X33720000Y-84241667D01*
X33720000Y-84241667D02*
X33767619Y-84336905D01*
X33767619Y-84336905D02*
X33767619Y-84527381D01*
X33767619Y-84527381D02*
X33720000Y-84622619D01*
X33720000Y-84622619D02*
X33672380Y-84670238D01*
X33672380Y-84670238D02*
X33577142Y-84717857D01*
X33577142Y-84717857D02*
X33386666Y-84717857D01*
X33386666Y-84717857D02*
X33291428Y-84670238D01*
X33291428Y-84670238D02*
X33243809Y-84622619D01*
X33243809Y-84622619D02*
X33196190Y-84527381D01*
%TO.C,J21*%
X71497619Y-25515476D02*
X72211904Y-25515476D01*
X72211904Y-25515476D02*
X72354761Y-25467857D01*
X72354761Y-25467857D02*
X72450000Y-25372619D01*
X72450000Y-25372619D02*
X72497619Y-25229762D01*
X72497619Y-25229762D02*
X72497619Y-25134524D01*
X71592857Y-25944048D02*
X71545238Y-25991667D01*
X71545238Y-25991667D02*
X71497619Y-26086905D01*
X71497619Y-26086905D02*
X71497619Y-26325000D01*
X71497619Y-26325000D02*
X71545238Y-26420238D01*
X71545238Y-26420238D02*
X71592857Y-26467857D01*
X71592857Y-26467857D02*
X71688095Y-26515476D01*
X71688095Y-26515476D02*
X71783333Y-26515476D01*
X71783333Y-26515476D02*
X71926190Y-26467857D01*
X71926190Y-26467857D02*
X72497619Y-25896429D01*
X72497619Y-25896429D02*
X72497619Y-26515476D01*
X72497619Y-27467857D02*
X72497619Y-26896429D01*
X72497619Y-27182143D02*
X71497619Y-27182143D01*
X71497619Y-27182143D02*
X71640476Y-27086905D01*
X71640476Y-27086905D02*
X71735714Y-26991667D01*
X71735714Y-26991667D02*
X71783333Y-26896429D01*
%TO.C,J19*%
X67687619Y-82765476D02*
X68401904Y-82765476D01*
X68401904Y-82765476D02*
X68544761Y-82717857D01*
X68544761Y-82717857D02*
X68640000Y-82622619D01*
X68640000Y-82622619D02*
X68687619Y-82479762D01*
X68687619Y-82479762D02*
X68687619Y-82384524D01*
X68687619Y-83765476D02*
X68687619Y-83194048D01*
X68687619Y-83479762D02*
X67687619Y-83479762D01*
X67687619Y-83479762D02*
X67830476Y-83384524D01*
X67830476Y-83384524D02*
X67925714Y-83289286D01*
X67925714Y-83289286D02*
X67973333Y-83194048D01*
X68687619Y-84241667D02*
X68687619Y-84432143D01*
X68687619Y-84432143D02*
X68640000Y-84527381D01*
X68640000Y-84527381D02*
X68592380Y-84575000D01*
X68592380Y-84575000D02*
X68449523Y-84670238D01*
X68449523Y-84670238D02*
X68259047Y-84717857D01*
X68259047Y-84717857D02*
X67878095Y-84717857D01*
X67878095Y-84717857D02*
X67782857Y-84670238D01*
X67782857Y-84670238D02*
X67735238Y-84622619D01*
X67735238Y-84622619D02*
X67687619Y-84527381D01*
X67687619Y-84527381D02*
X67687619Y-84336905D01*
X67687619Y-84336905D02*
X67735238Y-84241667D01*
X67735238Y-84241667D02*
X67782857Y-84194048D01*
X67782857Y-84194048D02*
X67878095Y-84146429D01*
X67878095Y-84146429D02*
X68116190Y-84146429D01*
X68116190Y-84146429D02*
X68211428Y-84194048D01*
X68211428Y-84194048D02*
X68259047Y-84241667D01*
X68259047Y-84241667D02*
X68306666Y-84336905D01*
X68306666Y-84336905D02*
X68306666Y-84527381D01*
X68306666Y-84527381D02*
X68259047Y-84622619D01*
X68259047Y-84622619D02*
X68211428Y-84670238D01*
X68211428Y-84670238D02*
X68116190Y-84717857D01*
%TO.C,J20*%
X32767619Y-25515476D02*
X33481904Y-25515476D01*
X33481904Y-25515476D02*
X33624761Y-25467857D01*
X33624761Y-25467857D02*
X33720000Y-25372619D01*
X33720000Y-25372619D02*
X33767619Y-25229762D01*
X33767619Y-25229762D02*
X33767619Y-25134524D01*
X32862857Y-25944048D02*
X32815238Y-25991667D01*
X32815238Y-25991667D02*
X32767619Y-26086905D01*
X32767619Y-26086905D02*
X32767619Y-26325000D01*
X32767619Y-26325000D02*
X32815238Y-26420238D01*
X32815238Y-26420238D02*
X32862857Y-26467857D01*
X32862857Y-26467857D02*
X32958095Y-26515476D01*
X32958095Y-26515476D02*
X33053333Y-26515476D01*
X33053333Y-26515476D02*
X33196190Y-26467857D01*
X33196190Y-26467857D02*
X33767619Y-25896429D01*
X33767619Y-25896429D02*
X33767619Y-26515476D01*
X32767619Y-27134524D02*
X32767619Y-27229762D01*
X32767619Y-27229762D02*
X32815238Y-27325000D01*
X32815238Y-27325000D02*
X32862857Y-27372619D01*
X32862857Y-27372619D02*
X32958095Y-27420238D01*
X32958095Y-27420238D02*
X33148571Y-27467857D01*
X33148571Y-27467857D02*
X33386666Y-27467857D01*
X33386666Y-27467857D02*
X33577142Y-27420238D01*
X33577142Y-27420238D02*
X33672380Y-27372619D01*
X33672380Y-27372619D02*
X33720000Y-27325000D01*
X33720000Y-27325000D02*
X33767619Y-27229762D01*
X33767619Y-27229762D02*
X33767619Y-27134524D01*
X33767619Y-27134524D02*
X33720000Y-27039286D01*
X33720000Y-27039286D02*
X33672380Y-26991667D01*
X33672380Y-26991667D02*
X33577142Y-26944048D01*
X33577142Y-26944048D02*
X33386666Y-26896429D01*
X33386666Y-26896429D02*
X33148571Y-26896429D01*
X33148571Y-26896429D02*
X32958095Y-26944048D01*
X32958095Y-26944048D02*
X32862857Y-26991667D01*
X32862857Y-26991667D02*
X32815238Y-27039286D01*
X32815238Y-27039286D02*
X32767619Y-27134524D01*
D11*
%TO.C,J18*%
X39505000Y-82465000D02*
X39505000Y-83267470D01*
X35760000Y-82465000D02*
X39505000Y-82465000D01*
X35760000Y-82465000D02*
X35760000Y-83011529D01*
X35000000Y-82465000D02*
X34240000Y-82465000D01*
X34240000Y-82465000D02*
X34240000Y-83575000D01*
X39505000Y-83882530D02*
X39505000Y-84685000D01*
X35760000Y-84138471D02*
X35760000Y-84685000D01*
X35760000Y-84685000D02*
X39505000Y-84685000D01*
%TO.C,J21*%
X75695000Y-25215000D02*
X75695000Y-26017470D01*
X74490000Y-25215000D02*
X75695000Y-25215000D01*
X74490000Y-25215000D02*
X74490000Y-25761529D01*
X73730000Y-25215000D02*
X72970000Y-25215000D01*
X72970000Y-25215000D02*
X72970000Y-26325000D01*
X75695000Y-26632530D02*
X75695000Y-27435000D01*
X74490000Y-26888471D02*
X74490000Y-27435000D01*
X74490000Y-27435000D02*
X75695000Y-27435000D01*
%TO.C,J19*%
X75695000Y-82465000D02*
X75695000Y-83267470D01*
X70680000Y-82465000D02*
X75695000Y-82465000D01*
X70680000Y-82465000D02*
X70680000Y-83011529D01*
X69920000Y-82465000D02*
X69160000Y-82465000D01*
X69160000Y-82465000D02*
X69160000Y-83575000D01*
X75695000Y-83882530D02*
X75695000Y-84685000D01*
X70680000Y-84138471D02*
X70680000Y-84685000D01*
X70680000Y-84685000D02*
X75695000Y-84685000D01*
%TO.C,J20*%
X36965000Y-25215000D02*
X36965000Y-26017470D01*
X35760000Y-25215000D02*
X36965000Y-25215000D01*
X35760000Y-25215000D02*
X35760000Y-25761529D01*
X35000000Y-25215000D02*
X34240000Y-25215000D01*
X34240000Y-25215000D02*
X34240000Y-26325000D01*
X36965000Y-26632530D02*
X36965000Y-27435000D01*
X35760000Y-26888471D02*
X35760000Y-27435000D01*
X35760000Y-27435000D02*
X36965000Y-27435000D01*
%TD*%
M02*
