%TF.GenerationSoftware,KiCad,Pcbnew,7.0.1*%
%TF.CreationDate,2023-08-14T10:41:28-04:00*%
%TF.ProjectId,TacTile-C,54616354-696c-4652-9d43-2e6b69636164,rev?*%
%TF.SameCoordinates,Original*%
%TF.FileFunction,Copper,L2,Bot*%
%TF.FilePolarity,Positive*%
%FSLAX46Y46*%
G04 Gerber Fmt 4.6, Leading zero omitted, Abs format (unit mm)*
G04 Created by KiCad (PCBNEW 7.0.1) date 2023-08-14 10:41:28*
%MOMM*%
%LPD*%
G01*
G04 APERTURE LIST*
G04 Aperture macros list*
%AMHorizOval*
0 Thick line with rounded ends*
0 $1 width*
0 $2 $3 position (X,Y) of the first rounded end (center of the circle)*
0 $4 $5 position (X,Y) of the second rounded end (center of the circle)*
0 Add line between two ends*
20,1,$1,$2,$3,$4,$5,0*
0 Add two circle primitives to create the rounded ends*
1,1,$1,$2,$3*
1,1,$1,$4,$5*%
%AMRotRect*
0 Rectangle, with rotation*
0 The origin of the aperture is its center*
0 $1 length*
0 $2 width*
0 $3 Rotation angle, in degrees counterclockwise*
0 Add horizontal line*
21,1,$1,$2,0,0,$3*%
G04 Aperture macros list end*
%TA.AperFunction,ComponentPad*%
%ADD10C,1.000000*%
%TD*%
%TA.AperFunction,ComponentPad*%
%ADD11R,1.000000X1.000000*%
%TD*%
%TA.AperFunction,ComponentPad*%
%ADD12O,1.000000X1.000000*%
%TD*%
%TA.AperFunction,ComponentPad*%
%ADD13R,1.600000X1.600000*%
%TD*%
%TA.AperFunction,ComponentPad*%
%ADD14O,1.600000X1.600000*%
%TD*%
%TA.AperFunction,ComponentPad*%
%ADD15RotRect,1.000000X1.000000X292.000000*%
%TD*%
%TA.AperFunction,ComponentPad*%
%ADD16HorizOval,1.000000X0.000000X0.000000X0.000000X0.000000X0*%
%TD*%
%TA.AperFunction,ComponentPad*%
%ADD17RotRect,1.000000X1.000000X112.000000*%
%TD*%
%TA.AperFunction,ComponentPad*%
%ADD18HorizOval,1.000000X0.000000X0.000000X0.000000X0.000000X0*%
%TD*%
%TA.AperFunction,ViaPad*%
%ADD19C,0.800000*%
%TD*%
%TA.AperFunction,Conductor*%
%ADD20C,1.000000*%
%TD*%
%TA.AperFunction,Conductor*%
%ADD21C,0.250000*%
%TD*%
G04 APERTURE END LIST*
D10*
%TO.P,JMP3,1,A*%
%TO.N,/INP34*%
X25750000Y-51250000D03*
%TD*%
%TO.P,JMP6,1,A*%
%TO.N,/INP37*%
X25750000Y-58750000D03*
%TD*%
%TO.P,JMP16,1,A*%
%TO.N,/INP47*%
X84250000Y-63750000D03*
%TD*%
D11*
%TO.P,J6,1,Pin_1*%
%TO.N,/INP10*%
X84250000Y-39950000D03*
D12*
%TO.P,J6,2,Pin_2*%
%TO.N,/INP11*%
X82980000Y-39950000D03*
%TD*%
D13*
%TO.P,U3,1,A4*%
%TO.N,/INP12*%
X45450000Y-31100000D03*
D14*
%TO.P,U3,2,A6*%
%TO.N,/INP14*%
X45450000Y-33640000D03*
%TO.P,U3,3,A*%
%TO.N,Net-(U3-A)*%
X45450000Y-36180000D03*
%TO.P,U3,4,A7*%
%TO.N,/INP15*%
X45450000Y-38720000D03*
%TO.P,U3,5,A5*%
%TO.N,/INP13*%
X45450000Y-41260000D03*
%TO.P,U3,6,~{E}*%
%TO.N,/LEN*%
X45450000Y-43800000D03*
%TO.P,U3,7,VEE*%
%TO.N,/GND*%
X45450000Y-46340000D03*
%TO.P,U3,8,GND*%
X45450000Y-48880000D03*
%TO.P,U3,9,S2*%
%TO.N,/LS6*%
X53070000Y-48880000D03*
%TO.P,U3,10,S1*%
%TO.N,/LS1*%
X53070000Y-46340000D03*
%TO.P,U3,11,S0*%
%TO.N,/LS0*%
X53070000Y-43800000D03*
%TO.P,U3,12,A3*%
%TO.N,/INP11*%
X53070000Y-41260000D03*
%TO.P,U3,13,A0*%
%TO.N,/INP8*%
X53070000Y-38720000D03*
%TO.P,U3,14,A1*%
%TO.N,/INP9*%
X53070000Y-36180000D03*
%TO.P,U3,15,A2*%
%TO.N,/INP10*%
X53070000Y-33640000D03*
%TO.P,U3,16,VCC*%
%TO.N,/VCC*%
X53070000Y-31100000D03*
%TD*%
D10*
%TO.P,JMP14,1,A*%
%TO.N,/INP45*%
X84250000Y-58750000D03*
%TD*%
D15*
%TO.P,J10,1,Pin_1*%
%TO.N,/INP18*%
X81802670Y-65956506D03*
D16*
%TO.P,J10,2,Pin_2*%
%TO.N,/INP19*%
X80625147Y-66432256D03*
%TD*%
D10*
%TO.P,JMP4,1,A*%
%TO.N,/INP35*%
X25750000Y-53750000D03*
%TD*%
D11*
%TO.P,J2,1,Pin_1*%
%TO.N,/INP2*%
X84250000Y-32450000D03*
D12*
%TO.P,J2,2,Pin_2*%
%TO.N,/INP3*%
X82980000Y-32450000D03*
%TD*%
D10*
%TO.P,JMP10,1,A*%
%TO.N,/INP41*%
X84250000Y-48750000D03*
%TD*%
%TO.P,JMP7,1,A*%
%TO.N,/INP38*%
X25750000Y-61250000D03*
%TD*%
D13*
%TO.P,U6,1,A4*%
%TO.N,unconnected-(U6-A4-Pad1)*%
X34200000Y-61100000D03*
D14*
%TO.P,U6,2,A6*%
%TO.N,unconnected-(U6-A6-Pad2)*%
X34200000Y-63640000D03*
%TO.P,U6,3,A*%
%TO.N,/VCC*%
X34200000Y-66180000D03*
%TO.P,U6,4,A7*%
%TO.N,unconnected-(U6-A7-Pad4)*%
X34200000Y-68720000D03*
%TO.P,U6,5,A5*%
%TO.N,unconnected-(U6-A5-Pad5)*%
X34200000Y-71260000D03*
%TO.P,U6,6,~{E}*%
%TO.N,/LEN*%
X34200000Y-73800000D03*
%TO.P,U6,7,VEE*%
%TO.N,/GND*%
X34200000Y-76340000D03*
%TO.P,U6,8,GND*%
X34200000Y-78880000D03*
%TO.P,U6,9,S2*%
X41820000Y-78880000D03*
%TO.P,U6,10,S1*%
%TO.N,/LS8*%
X41820000Y-76340000D03*
%TO.P,U6,11,S0*%
%TO.N,/LS7*%
X41820000Y-73800000D03*
%TO.P,U6,12,A3*%
%TO.N,Net-(U5-A)*%
X41820000Y-71260000D03*
%TO.P,U6,13,A0*%
%TO.N,Net-(U2-A)*%
X41820000Y-68720000D03*
%TO.P,U6,14,A1*%
%TO.N,Net-(U3-A)*%
X41820000Y-66180000D03*
%TO.P,U6,15,A2*%
%TO.N,Net-(U4-A)*%
X41820000Y-63640000D03*
%TO.P,U6,16,VCC*%
%TO.N,/VCC*%
X41820000Y-61100000D03*
%TD*%
D15*
%TO.P,J8,1,Pin_1*%
%TO.N,/INP14*%
X81802670Y-43456506D03*
D16*
%TO.P,J8,2,Pin_2*%
%TO.N,/INP15*%
X80625147Y-43932256D03*
%TD*%
D17*
%TO.P,J1,1,Pin_1*%
%TO.N,/INP1*%
X28097331Y-28943494D03*
D18*
%TO.P,J1,2,Pin_2*%
%TO.N,/INP0*%
X29274854Y-28467744D03*
%TD*%
D10*
%TO.P,JMP1,1,A*%
%TO.N,/INP32*%
X25750000Y-46250000D03*
%TD*%
D15*
%TO.P,J14,1,Pin_1*%
%TO.N,/INP26*%
X81802670Y-73456506D03*
D16*
%TO.P,J14,2,Pin_2*%
%TO.N,/INP27*%
X80625147Y-73932256D03*
%TD*%
D11*
%TO.P,J15,1,Pin_1*%
%TO.N,/INP29*%
X25650000Y-77450000D03*
D12*
%TO.P,J15,2,Pin_2*%
%TO.N,/INP28*%
X26920000Y-77450000D03*
%TD*%
D10*
%TO.P,JMP8,1,A*%
%TO.N,/INP39*%
X25750000Y-63750000D03*
%TD*%
D13*
%TO.P,U2,1,A4*%
%TO.N,/INP4*%
X34200000Y-31100000D03*
D14*
%TO.P,U2,2,A6*%
%TO.N,/INP6*%
X34200000Y-33640000D03*
%TO.P,U2,3,A*%
%TO.N,Net-(U2-A)*%
X34200000Y-36180000D03*
%TO.P,U2,4,A7*%
%TO.N,/INP7*%
X34200000Y-38720000D03*
%TO.P,U2,5,A5*%
%TO.N,/INP5*%
X34200000Y-41260000D03*
%TO.P,U2,6,~{E}*%
%TO.N,/LEN*%
X34200000Y-43800000D03*
%TO.P,U2,7,VEE*%
%TO.N,/GND*%
X34200000Y-46340000D03*
%TO.P,U2,8,GND*%
X34200000Y-48880000D03*
%TO.P,U2,9,S2*%
%TO.N,/LS6*%
X41820000Y-48880000D03*
%TO.P,U2,10,S1*%
%TO.N,/LS1*%
X41820000Y-46340000D03*
%TO.P,U2,11,S0*%
%TO.N,/LS0*%
X41820000Y-43800000D03*
%TO.P,U2,12,A3*%
%TO.N,/INP3*%
X41820000Y-41260000D03*
%TO.P,U2,13,A0*%
%TO.N,/INP0*%
X41820000Y-38720000D03*
%TO.P,U2,14,A1*%
%TO.N,/INP1*%
X41820000Y-36180000D03*
%TO.P,U2,15,A2*%
%TO.N,/INP2*%
X41820000Y-33640000D03*
%TO.P,U2,16,VCC*%
%TO.N,/VCC*%
X41820000Y-31100000D03*
%TD*%
D11*
%TO.P,J17,1,Pin_1*%
%TO.N,/VIN*%
X25650000Y-32450000D03*
D12*
%TO.P,J17,2,Pin_2*%
%TO.N,/GND*%
X26920000Y-32450000D03*
%TD*%
D10*
%TO.P,JMP11,1,A*%
%TO.N,/INP42*%
X84250000Y-51250000D03*
%TD*%
%TO.P,JMP9,1,A*%
%TO.N,/INP40*%
X84250000Y-46250000D03*
%TD*%
D17*
%TO.P,J9,1,Pin_1*%
%TO.N,/INP17*%
X28097331Y-66443494D03*
D18*
%TO.P,J9,2,Pin_2*%
%TO.N,/INP16*%
X29274854Y-65967744D03*
%TD*%
D13*
%TO.P,U4,1,A4*%
%TO.N,/INP20*%
X56950000Y-31100000D03*
D14*
%TO.P,U4,2,A6*%
%TO.N,/INP22*%
X56950000Y-33640000D03*
%TO.P,U4,3,A*%
%TO.N,Net-(U4-A)*%
X56950000Y-36180000D03*
%TO.P,U4,4,A7*%
%TO.N,/INP23*%
X56950000Y-38720000D03*
%TO.P,U4,5,A5*%
%TO.N,/INP21*%
X56950000Y-41260000D03*
%TO.P,U4,6,~{E}*%
%TO.N,/LEN*%
X56950000Y-43800000D03*
%TO.P,U4,7,VEE*%
%TO.N,/GND*%
X56950000Y-46340000D03*
%TO.P,U4,8,GND*%
X56950000Y-48880000D03*
%TO.P,U4,9,S2*%
%TO.N,/LS6*%
X64570000Y-48880000D03*
%TO.P,U4,10,S1*%
%TO.N,/LS1*%
X64570000Y-46340000D03*
%TO.P,U4,11,S0*%
%TO.N,/LS0*%
X64570000Y-43800000D03*
%TO.P,U4,12,A3*%
%TO.N,/INP19*%
X64570000Y-41260000D03*
%TO.P,U4,13,A0*%
%TO.N,/INP16*%
X64570000Y-38720000D03*
%TO.P,U4,14,A1*%
%TO.N,/INP17*%
X64570000Y-36180000D03*
%TO.P,U4,15,A2*%
%TO.N,/INP18*%
X64570000Y-33640000D03*
%TO.P,U4,16,VCC*%
%TO.N,/VCC*%
X64570000Y-31100000D03*
%TD*%
D17*
%TO.P,J3,1,Pin_1*%
%TO.N,/INP5*%
X28097331Y-36443494D03*
D18*
%TO.P,J3,2,Pin_2*%
%TO.N,/INP4*%
X29274854Y-35967744D03*
%TD*%
D10*
%TO.P,JMP2,1,A*%
%TO.N,/INP33*%
X25750000Y-48750000D03*
%TD*%
%TO.P,JMP5,1,A*%
%TO.N,/INP36*%
X25750000Y-56250000D03*
%TD*%
%TO.P,JMP13,1,A*%
%TO.N,/INP44*%
X84250000Y-56250000D03*
%TD*%
D11*
%TO.P,J11,1,Pin_1*%
%TO.N,/INP21*%
X25650000Y-69950000D03*
D12*
%TO.P,J11,2,Pin_2*%
%TO.N,/INP20*%
X26920000Y-69950000D03*
%TD*%
D13*
%TO.P,U5,1,A4*%
%TO.N,/INP28*%
X68200000Y-31100000D03*
D14*
%TO.P,U5,2,A6*%
%TO.N,/INP30*%
X68200000Y-33640000D03*
%TO.P,U5,3,A*%
%TO.N,Net-(U5-A)*%
X68200000Y-36180000D03*
%TO.P,U5,4,A7*%
%TO.N,/INP31*%
X68200000Y-38720000D03*
%TO.P,U5,5,A5*%
%TO.N,/INP29*%
X68200000Y-41260000D03*
%TO.P,U5,6,~{E}*%
%TO.N,/LEN*%
X68200000Y-43800000D03*
%TO.P,U5,7,VEE*%
%TO.N,/GND*%
X68200000Y-46340000D03*
%TO.P,U5,8,GND*%
X68200000Y-48880000D03*
%TO.P,U5,9,S2*%
%TO.N,/LS6*%
X75820000Y-48880000D03*
%TO.P,U5,10,S1*%
%TO.N,/LS1*%
X75820000Y-46340000D03*
%TO.P,U5,11,S0*%
%TO.N,/LS0*%
X75820000Y-43800000D03*
%TO.P,U5,12,A3*%
%TO.N,/INP27*%
X75820000Y-41260000D03*
%TO.P,U5,13,A0*%
%TO.N,/INP24*%
X75820000Y-38720000D03*
%TO.P,U5,14,A1*%
%TO.N,/INP25*%
X75820000Y-36180000D03*
%TO.P,U5,15,A2*%
%TO.N,/INP26*%
X75820000Y-33640000D03*
%TO.P,U5,16,VCC*%
%TO.N,/VCC*%
X75820000Y-31100000D03*
%TD*%
D13*
%TO.P,U8,1,A4*%
%TO.N,/INP44*%
X56950000Y-61100000D03*
D14*
%TO.P,U8,2,A6*%
%TO.N,/INP46*%
X56950000Y-63640000D03*
%TO.P,U8,3,A*%
%TO.N,Net-(U8-A)*%
X56950000Y-66180000D03*
%TO.P,U8,4,A7*%
%TO.N,/INP47*%
X56950000Y-68720000D03*
%TO.P,U8,5,A5*%
%TO.N,/INP45*%
X56950000Y-71260000D03*
%TO.P,U8,6,~{E}*%
%TO.N,/LEN*%
X56950000Y-73800000D03*
%TO.P,U8,7,VEE*%
%TO.N,/GND*%
X56950000Y-76340000D03*
%TO.P,U8,8,GND*%
X56950000Y-78880000D03*
%TO.P,U8,9,S2*%
%TO.N,/LS4*%
X64570000Y-78880000D03*
%TO.P,U8,10,S1*%
%TO.N,/LS3*%
X64570000Y-76340000D03*
%TO.P,U8,11,S0*%
%TO.N,/LS2*%
X64570000Y-73800000D03*
%TO.P,U8,12,A3*%
%TO.N,/INP43*%
X64570000Y-71260000D03*
%TO.P,U8,13,A0*%
%TO.N,/INP40*%
X64570000Y-68720000D03*
%TO.P,U8,14,A1*%
%TO.N,/INP41*%
X64570000Y-66180000D03*
%TO.P,U8,15,A2*%
%TO.N,/INP42*%
X64570000Y-63640000D03*
%TO.P,U8,16,VCC*%
%TO.N,/VCC*%
X64570000Y-61100000D03*
%TD*%
D11*
%TO.P,J12,1,Pin_1*%
%TO.N,/INP22*%
X84250000Y-69950000D03*
D12*
%TO.P,J12,2,Pin_2*%
%TO.N,/INP23*%
X82980000Y-69950000D03*
%TD*%
D13*
%TO.P,U1,1*%
%TO.N,/VCC*%
X68200000Y-61200000D03*
D14*
%TO.P,U1,2,GND*%
%TO.N,/GND*%
X68200000Y-63740000D03*
%TO.P,U1,3*%
%TO.N,/LS5*%
X68200000Y-66280000D03*
%TO.P,U1,4*%
%TO.N,Net-(U8-A)*%
X75820000Y-66280000D03*
%TO.P,U1,5,VCC*%
%TO.N,/VCC*%
X75820000Y-63740000D03*
%TO.P,U1,6*%
%TO.N,Net-(U7-A)*%
X75820000Y-61200000D03*
%TD*%
D13*
%TO.P,U7,1,A4*%
%TO.N,/INP36*%
X45450000Y-61100000D03*
D14*
%TO.P,U7,2,A6*%
%TO.N,/INP38*%
X45450000Y-63640000D03*
%TO.P,U7,3,A*%
%TO.N,Net-(U7-A)*%
X45450000Y-66180000D03*
%TO.P,U7,4,A7*%
%TO.N,/INP39*%
X45450000Y-68720000D03*
%TO.P,U7,5,A5*%
%TO.N,/INP37*%
X45450000Y-71260000D03*
%TO.P,U7,6,~{E}*%
%TO.N,/LEN*%
X45450000Y-73800000D03*
%TO.P,U7,7,VEE*%
%TO.N,/GND*%
X45450000Y-76340000D03*
%TO.P,U7,8,GND*%
X45450000Y-78880000D03*
%TO.P,U7,9,S2*%
%TO.N,/LS4*%
X53070000Y-78880000D03*
%TO.P,U7,10,S1*%
%TO.N,/LS3*%
X53070000Y-76340000D03*
%TO.P,U7,11,S0*%
%TO.N,/LS2*%
X53070000Y-73800000D03*
%TO.P,U7,12,A3*%
%TO.N,/INP35*%
X53070000Y-71260000D03*
%TO.P,U7,13,A0*%
%TO.N,/INP32*%
X53070000Y-68720000D03*
%TO.P,U7,14,A1*%
%TO.N,/INP33*%
X53070000Y-66180000D03*
%TO.P,U7,15,A2*%
%TO.N,/INP34*%
X53070000Y-63640000D03*
%TO.P,U7,16,VCC*%
%TO.N,/VCC*%
X53070000Y-61100000D03*
%TD*%
D10*
%TO.P,JMP15,1,A*%
%TO.N,/INP46*%
X84250000Y-61250000D03*
%TD*%
D15*
%TO.P,J4,1,Pin_1*%
%TO.N,/INP6*%
X81802670Y-35956506D03*
D16*
%TO.P,J4,2,Pin_2*%
%TO.N,/INP7*%
X80625147Y-36432256D03*
%TD*%
D11*
%TO.P,J5,1,Pin_1*%
%TO.N,/INP9*%
X25650000Y-39950000D03*
D12*
%TO.P,J5,2,Pin_2*%
%TO.N,/INP8*%
X26920000Y-39950000D03*
%TD*%
D17*
%TO.P,J13,1,Pin_1*%
%TO.N,/INP25*%
X28097331Y-73943494D03*
D18*
%TO.P,J13,2,Pin_2*%
%TO.N,/INP24*%
X29274854Y-73467744D03*
%TD*%
D10*
%TO.P,JMP12,1,A*%
%TO.N,/INP43*%
X84250000Y-53750000D03*
%TD*%
D11*
%TO.P,J16,1,Pin_1*%
%TO.N,/INP30*%
X84250000Y-77450000D03*
D12*
%TO.P,J16,2,Pin_2*%
%TO.N,/INP31*%
X82980000Y-77450000D03*
%TD*%
D17*
%TO.P,J7,1,Pin_1*%
%TO.N,/INP13*%
X28097331Y-43943494D03*
D18*
%TO.P,J7,2,Pin_2*%
%TO.N,/INP12*%
X29274854Y-43467744D03*
%TD*%
D11*
%TO.P,J18,1,Pin_1*%
%TO.N,/LS0*%
X35000000Y-83575000D03*
D12*
%TO.P,J18,2,Pin_2*%
%TO.N,/LS1*%
X36270000Y-83575000D03*
%TO.P,J18,3,Pin_3*%
%TO.N,/LS2*%
X37540000Y-83575000D03*
%TO.P,J18,4,Pin_4*%
%TO.N,/LS3*%
X38810000Y-83575000D03*
%TD*%
D11*
%TO.P,J21,1,Pin_1*%
%TO.N,/VCC*%
X73730000Y-26325000D03*
D12*
%TO.P,J21,2,Pin_2*%
%TO.N,/LEN*%
X75000000Y-26325000D03*
%TD*%
D11*
%TO.P,J19,1,Pin_1*%
%TO.N,/LS4*%
X69920000Y-83575000D03*
D12*
%TO.P,J19,2,Pin_2*%
%TO.N,/LS5*%
X71190000Y-83575000D03*
%TO.P,J19,3,Pin_3*%
%TO.N,/LS6*%
X72460000Y-83575000D03*
%TO.P,J19,4,Pin_4*%
%TO.N,/LS7*%
X73730000Y-83575000D03*
%TO.P,J19,5,Pin_5*%
%TO.N,/LS8*%
X75000000Y-83575000D03*
%TD*%
D11*
%TO.P,J20,1,Pin_1*%
%TO.N,/VIN*%
X35000000Y-26325000D03*
D12*
%TO.P,J20,2,Pin_2*%
%TO.N,/GND*%
X36270000Y-26325000D03*
%TD*%
D19*
%TO.N,/GND*%
X61500000Y-46250000D03*
X61500000Y-48750000D03*
X62750000Y-56250000D03*
X48000000Y-75000000D03*
%TO.N,/INP2*%
X46500000Y-27500000D03*
%TO.N,/INP3*%
X43080180Y-36788731D03*
%TO.N,/INP6*%
X39500000Y-27000000D03*
%TO.N,/INP7*%
X36250000Y-36750000D03*
X73472701Y-29777299D03*
%TO.N,/INP10*%
X48713694Y-50729500D03*
X49000000Y-39225500D03*
X80000000Y-59500000D03*
%TO.N,/INP11*%
X79585619Y-58041075D03*
X49713197Y-50729500D03*
X50000000Y-41025500D03*
%TO.N,/INP12*%
X35500000Y-43250000D03*
X40500000Y-43250000D03*
%TO.N,/INP14*%
X51712203Y-50729500D03*
X79405225Y-55905225D03*
%TO.N,/INP15*%
X50712700Y-50729500D03*
X79248021Y-57087027D03*
%TO.N,/INP17*%
X58500000Y-36500000D03*
%TO.N,/INP18*%
X66750000Y-40250000D03*
X66987701Y-50737701D03*
%TO.N,/INP19*%
X66025500Y-42000000D03*
X65988276Y-50750146D03*
%TO.N,/INP21*%
X46759565Y-41753605D03*
X46250000Y-51224500D03*
X46500000Y-55743870D03*
%TO.N,/INP22*%
X59163286Y-50729500D03*
%TO.N,/INP23*%
X60162789Y-50729500D03*
X59724500Y-40000000D03*
%TO.N,/INP25*%
X72250000Y-37500000D03*
%TO.N,/INP24*%
X72000000Y-39500000D03*
%TO.N,/INP26*%
X79868665Y-60500000D03*
%TO.N,/INP27*%
X79144165Y-61253388D03*
%TO.N,/INP29*%
X73437250Y-41312750D03*
%TO.N,/INP30*%
X70049500Y-34500000D03*
X71000000Y-41750000D03*
X77525500Y-45750000D03*
X78132935Y-62974328D03*
%TO.N,/INP31*%
X77661924Y-43026335D03*
X78685376Y-62141373D03*
%TO.N,/LS0*%
X39750000Y-46000000D03*
%TO.N,/LS6*%
X77669500Y-63859898D03*
%TO.N,/LS8*%
X48000000Y-82750000D03*
%TO.N,/INP32*%
X49721000Y-53529000D03*
%TO.N,/INP33*%
X51041256Y-53529000D03*
%TO.N,/INP34*%
X52000000Y-53811511D03*
%TO.N,/INP35*%
X54500000Y-56000000D03*
%TO.N,/INP36*%
X45500000Y-54049500D03*
%TO.N,/INP37*%
X37224500Y-54318023D03*
%TO.N,/INP38*%
X47226305Y-54049500D03*
%TO.N,/INP39*%
X48474500Y-56025500D03*
%TO.N,/INP41*%
X66250000Y-69500000D03*
%TO.N,/INP42*%
X67081637Y-70224500D03*
%TO.N,/INP44*%
X58500000Y-72250000D03*
%TO.N,/INP45*%
X58750000Y-75750000D03*
%TO.N,/INP46*%
X59250000Y-78250000D03*
%TO.N,/INP47*%
X55000000Y-81000000D03*
%TO.N,Net-(U2-A)*%
X38750000Y-51250000D03*
%TO.N,Net-(U3-A)*%
X44000000Y-50729500D03*
%TO.N,Net-(U4-A)*%
X55000000Y-36250000D03*
X55250000Y-52574500D03*
%TO.N,Net-(U5-A)*%
X73500000Y-35000000D03*
X44209484Y-59893370D03*
%TD*%
D20*
%TO.N,/VIN*%
X35000000Y-26325000D02*
X28798691Y-26325000D01*
X25650000Y-29473691D02*
X25650000Y-32450000D01*
X28798691Y-26325000D02*
X25650000Y-29473691D01*
%TO.N,/GND*%
X34625000Y-27525000D02*
X36200000Y-27525000D01*
X29700000Y-32450000D02*
X34625000Y-27525000D01*
X36200000Y-27525000D02*
X36270000Y-27455000D01*
X26920000Y-32450000D02*
X29700000Y-32450000D01*
X36270000Y-27455000D02*
X36270000Y-26325000D01*
D21*
%TO.N,/INP2*%
X84250000Y-32450000D02*
X77125000Y-25325000D01*
X48675000Y-25325000D02*
X46500000Y-27500000D01*
X77125000Y-25325000D02*
X48675000Y-25325000D01*
%TO.N,/INP3*%
X43080180Y-36788731D02*
X43080180Y-34418829D01*
X45049009Y-32450000D02*
X82980000Y-32450000D01*
X43080180Y-34418829D02*
X45049009Y-32450000D01*
%TO.N,/INP6*%
X37525000Y-30315000D02*
X34200000Y-33640000D01*
X39500000Y-27000000D02*
X37525000Y-28975000D01*
X37525000Y-28975000D02*
X37525000Y-30315000D01*
%TO.N,/INP7*%
X36250000Y-34750000D02*
X36250000Y-36750000D01*
X41475000Y-29525000D02*
X36250000Y-34750000D01*
X73220402Y-29525000D02*
X41475000Y-29525000D01*
X73472701Y-29777299D02*
X73220402Y-29525000D01*
%TO.N,/INP9*%
X28005000Y-37595000D02*
X51655000Y-37595000D01*
X51655000Y-37595000D02*
X53070000Y-36180000D01*
X25650000Y-39950000D02*
X28005000Y-37595000D01*
%TO.N,/INP8*%
X51840000Y-39950000D02*
X53070000Y-38720000D01*
X26920000Y-39950000D02*
X51840000Y-39950000D01*
%TO.N,/INP10*%
X50079692Y-52354500D02*
X48713694Y-50988502D01*
X53535991Y-37305000D02*
X54195000Y-36645991D01*
X80000000Y-59500000D02*
X74200000Y-53700000D01*
X74200000Y-53700000D02*
X68869083Y-53700000D01*
X54195000Y-34765000D02*
X53070000Y-33640000D01*
X54195000Y-36645991D02*
X54195000Y-34765000D01*
X52894009Y-37305000D02*
X53535991Y-37305000D01*
X68406382Y-54162701D02*
X59662701Y-54162701D01*
X50973509Y-39225500D02*
X52894009Y-37305000D01*
X52889800Y-51850000D02*
X52385300Y-52354500D01*
X68869083Y-53700000D02*
X68406382Y-54162701D01*
X59662701Y-54162701D02*
X57350000Y-51850000D01*
X52385300Y-52354500D02*
X50079692Y-52354500D01*
X49000000Y-39225500D02*
X50973509Y-39225500D01*
X48713694Y-50988502D02*
X48713694Y-50729500D01*
X57350000Y-51850000D02*
X52889800Y-51850000D01*
%TO.N,/INP11*%
X50000000Y-41025500D02*
X50234500Y-41260000D01*
X50629195Y-51904500D02*
X49713197Y-50988502D01*
X74386396Y-53250000D02*
X68682687Y-53250000D01*
X59849097Y-53712701D02*
X57536396Y-51400000D01*
X79177471Y-58041075D02*
X74386396Y-53250000D01*
X49713197Y-50988502D02*
X49713197Y-50729500D01*
X50234500Y-41260000D02*
X53070000Y-41260000D01*
X57536396Y-51400000D02*
X52703404Y-51400000D01*
X52198904Y-51904500D02*
X50629195Y-51904500D01*
X68682687Y-53250000D02*
X68219986Y-53712701D01*
X68219986Y-53712701D02*
X59849097Y-53712701D01*
X52703404Y-51400000D02*
X52198904Y-51904500D01*
X79585619Y-58041075D02*
X79177471Y-58041075D01*
%TO.N,/INP13*%
X28097331Y-43943494D02*
X28097331Y-43404227D01*
X42483604Y-42500000D02*
X43723604Y-41260000D01*
X29001558Y-42500000D02*
X42483604Y-42500000D01*
X43723604Y-41260000D02*
X45450000Y-41260000D01*
X28097331Y-43404227D02*
X29001558Y-42500000D01*
%TO.N,/INP12*%
X35500000Y-43250000D02*
X40500000Y-43250000D01*
%TO.N,/INP14*%
X60221889Y-52812701D02*
X57909188Y-50500000D01*
X67847194Y-52812701D02*
X60221889Y-52812701D01*
X57909188Y-50500000D02*
X51941703Y-50500000D01*
X79405225Y-55905225D02*
X78702615Y-55905225D01*
X75450000Y-52652610D02*
X75450000Y-52613604D01*
X51941703Y-50500000D02*
X51712203Y-50729500D01*
X75186396Y-52350000D02*
X68309895Y-52350000D01*
X78702615Y-55905225D02*
X75450000Y-52652610D01*
X75450000Y-52613604D02*
X75186396Y-52350000D01*
X68309895Y-52350000D02*
X67847194Y-52812701D01*
%TO.N,/INP15*%
X52517008Y-50950000D02*
X52012508Y-51454500D01*
X75000000Y-52800000D02*
X68496291Y-52800000D01*
X60035493Y-53262701D02*
X57722792Y-50950000D01*
X50712700Y-50755302D02*
X50712700Y-50729500D01*
X75000000Y-52839006D02*
X75000000Y-52800000D01*
X52012508Y-51454500D02*
X51411898Y-51454500D01*
X68033590Y-53262701D02*
X60035493Y-53262701D01*
X57722792Y-50950000D02*
X52517008Y-50950000D01*
X51411898Y-51454500D02*
X50712700Y-50755302D01*
X68496291Y-52800000D02*
X68033590Y-53262701D01*
X79248021Y-57087027D02*
X75000000Y-52839006D01*
%TO.N,/INP17*%
X64570000Y-36180000D02*
X58820000Y-36180000D01*
X58820000Y-36180000D02*
X58500000Y-36500000D01*
%TO.N,/INP18*%
X79173199Y-53830225D02*
X80264718Y-53830225D01*
X77850000Y-52507026D02*
X79173199Y-53830225D01*
X75909188Y-50500000D02*
X77850000Y-52440812D01*
X77850000Y-52440812D02*
X77850000Y-52507026D01*
X66750000Y-35820000D02*
X64570000Y-33640000D01*
X80264718Y-53830225D02*
X82750000Y-56315507D01*
X66750000Y-40250000D02*
X66750000Y-35820000D01*
X67225402Y-50500000D02*
X75909188Y-50500000D01*
X66987701Y-50737701D02*
X67225402Y-50500000D01*
X82750000Y-56315507D02*
X82750000Y-65009176D01*
X82750000Y-65009176D02*
X81802670Y-65956506D01*
%TO.N,/INP19*%
X82300000Y-64072372D02*
X82300000Y-56501903D01*
X77400000Y-52693422D02*
X77400000Y-52627208D01*
X67750707Y-51000000D02*
X67288006Y-51462701D01*
X82300000Y-56501903D02*
X80078322Y-54280225D01*
X66025500Y-42000000D02*
X65310000Y-42000000D01*
X80625147Y-65747225D02*
X82300000Y-64072372D01*
X65988276Y-50988276D02*
X65988276Y-50750146D01*
X80625147Y-66432256D02*
X80625147Y-65747225D01*
X77400000Y-52627208D02*
X75772792Y-51000000D01*
X75772792Y-51000000D02*
X67750707Y-51000000D01*
X65310000Y-42000000D02*
X64570000Y-41260000D01*
X67288006Y-51462701D02*
X66462701Y-51462701D01*
X78986803Y-54280225D02*
X77400000Y-52693422D01*
X66462701Y-51462701D02*
X65988276Y-50988276D01*
X80078322Y-54280225D02*
X78986803Y-54280225D01*
%TO.N,/INP21*%
X46250000Y-51224500D02*
X46250000Y-55493870D01*
X54660991Y-41260000D02*
X56950000Y-41260000D01*
X52385000Y-42385000D02*
X53535991Y-42385000D01*
X53535991Y-42385000D02*
X54660991Y-41260000D01*
X51753605Y-41753605D02*
X52385000Y-42385000D01*
X46759565Y-41753605D02*
X51753605Y-41753605D01*
X46250000Y-55493870D02*
X46500000Y-55743870D01*
%TO.N,/INP22*%
X59163286Y-51117702D02*
X60408285Y-52362701D01*
X81400000Y-56874695D02*
X81400000Y-63699580D01*
X78614011Y-55180225D02*
X79705530Y-55180225D01*
X83425000Y-70775000D02*
X84250000Y-69950000D01*
X76500000Y-53000000D02*
X76500000Y-53066214D01*
X79705530Y-55180225D02*
X81400000Y-56874695D01*
X75400000Y-51900000D02*
X76500000Y-53000000D01*
X60408285Y-52362701D02*
X67660798Y-52362701D01*
X76500000Y-53066214D02*
X78614011Y-55180225D01*
X79350147Y-67663649D02*
X82461498Y-70775000D01*
X82461498Y-70775000D02*
X83425000Y-70775000D01*
X79350147Y-65749433D02*
X79350147Y-67663649D01*
X81400000Y-63699580D02*
X79350147Y-65749433D01*
X59163286Y-50729500D02*
X59163286Y-51117702D01*
X67660798Y-52362701D02*
X68123499Y-51900000D01*
X68123499Y-51900000D02*
X75400000Y-51900000D01*
%TO.N,/INP23*%
X61345990Y-51912701D02*
X67474402Y-51912701D01*
X76950000Y-52813604D02*
X76950000Y-52879818D01*
X67474402Y-51912701D02*
X67937103Y-51450000D01*
X59724500Y-40000000D02*
X59724500Y-39224500D01*
X60162789Y-50729500D02*
X61345990Y-51912701D01*
X79800147Y-67477253D02*
X82272894Y-69950000D01*
X81850000Y-56688299D02*
X81850000Y-63885976D01*
X78800407Y-54730225D02*
X79891926Y-54730225D01*
X79891926Y-54730225D02*
X81850000Y-56688299D01*
X76950000Y-52879818D02*
X78800407Y-54730225D01*
X82272894Y-69950000D02*
X82980000Y-69950000D01*
X59724500Y-39224500D02*
X59220000Y-38720000D01*
X80175147Y-65715529D02*
X79800147Y-66090529D01*
X67937103Y-51450000D02*
X75586396Y-51450000D01*
X59220000Y-38720000D02*
X56950000Y-38720000D01*
X81850000Y-63885976D02*
X80175147Y-65560829D01*
X80175147Y-65560829D02*
X80175147Y-65715529D01*
X79800147Y-66090529D02*
X79800147Y-67477253D01*
X75586396Y-51450000D02*
X76950000Y-52813604D01*
%TO.N,/INP25*%
X72250000Y-37500000D02*
X73570000Y-36180000D01*
X73570000Y-36180000D02*
X75820000Y-36180000D01*
%TO.N,/INP24*%
X72780000Y-38720000D02*
X75820000Y-38720000D01*
X72000000Y-39500000D02*
X72780000Y-38720000D01*
%TO.N,/INP26*%
X80000000Y-60631335D02*
X80000000Y-64463184D01*
X78900147Y-65563037D02*
X78900147Y-70553983D01*
X79868665Y-60500000D02*
X80000000Y-60631335D01*
X78900147Y-70553983D02*
X81802670Y-73456506D01*
X80000000Y-64463184D02*
X78900147Y-65563037D01*
%TO.N,/INP27*%
X79000000Y-61430692D02*
X79410376Y-61841068D01*
X79000000Y-61397553D02*
X79000000Y-61430692D01*
X79144165Y-61253388D02*
X79000000Y-61397553D01*
X78450147Y-65376641D02*
X78450147Y-71757256D01*
X79410376Y-61841068D02*
X79410376Y-64416412D01*
X78450147Y-71757256D02*
X80625147Y-73932256D01*
X79410376Y-64416412D02*
X78450147Y-65376641D01*
%TO.N,/INP29*%
X73437250Y-41312750D02*
X72874500Y-40750000D01*
X72874500Y-40750000D02*
X70500000Y-40750000D01*
X69990000Y-41260000D02*
X68200000Y-41260000D01*
X70500000Y-40750000D02*
X69990000Y-41260000D01*
%TO.N,/INP30*%
X83425000Y-78275000D02*
X84250000Y-77450000D01*
X75995991Y-42385000D02*
X75135000Y-42385000D01*
X74975000Y-42225000D02*
X71475000Y-42225000D01*
X75135000Y-42385000D02*
X74975000Y-42225000D01*
X78500000Y-64053996D02*
X77550147Y-65003849D01*
X82461498Y-78275000D02*
X83425000Y-78275000D01*
X71475000Y-42225000D02*
X71000000Y-41750000D01*
X77525500Y-45750000D02*
X77525500Y-43914509D01*
X77550147Y-73363649D02*
X82461498Y-78275000D01*
X70049500Y-34500000D02*
X69060000Y-34500000D01*
X78500000Y-63341393D02*
X78500000Y-64053996D01*
X77550147Y-65003849D02*
X77550147Y-73363649D01*
X77525500Y-43914509D02*
X75995991Y-42385000D01*
X78132935Y-62974328D02*
X78500000Y-63341393D01*
X69060000Y-34500000D02*
X68200000Y-33640000D01*
%TO.N,/INP31*%
X78000147Y-73177253D02*
X82272894Y-77450000D01*
X78950000Y-62766088D02*
X78950000Y-64240392D01*
X77661924Y-41510933D02*
X76285991Y-40135000D01*
X78685376Y-62141373D02*
X78685376Y-62501464D01*
X76285991Y-40135000D02*
X72390305Y-40135000D01*
X72390305Y-40135000D02*
X72300305Y-40225000D01*
X77661924Y-43026335D02*
X77661924Y-41510933D01*
X78000147Y-65190245D02*
X78000147Y-73177253D01*
X78950000Y-64240392D02*
X78000147Y-65190245D01*
X72300305Y-40225000D02*
X69705000Y-40225000D01*
X82272894Y-77450000D02*
X82980000Y-77450000D01*
X78685376Y-62501464D02*
X78950000Y-62766088D01*
X69705000Y-40225000D02*
X68200000Y-38720000D01*
%TO.N,/LS0*%
X51945000Y-42675000D02*
X53070000Y-43800000D01*
X35325000Y-83250000D02*
X35325000Y-50425000D01*
X54195000Y-42675000D02*
X63445000Y-42675000D01*
X35325000Y-50425000D02*
X39750000Y-46000000D01*
X75820000Y-43800000D02*
X74695000Y-42675000D01*
X42945000Y-42675000D02*
X51945000Y-42675000D01*
X41820000Y-43800000D02*
X42945000Y-42675000D01*
X65250805Y-43800000D02*
X64570000Y-43800000D01*
X74695000Y-42675000D02*
X66375805Y-42675000D01*
X63445000Y-42675000D02*
X64570000Y-43800000D01*
X53070000Y-43800000D02*
X54195000Y-42675000D01*
X66375805Y-42675000D02*
X65250805Y-43800000D01*
X35000000Y-83575000D02*
X35325000Y-83250000D01*
%TO.N,/LS1*%
X54439695Y-47465000D02*
X62535000Y-47465000D01*
X66465000Y-47465000D02*
X74695000Y-47465000D01*
X52160000Y-46340000D02*
X53070000Y-46340000D01*
X40435305Y-46340000D02*
X40050305Y-46725000D01*
X41820000Y-46340000D02*
X40435305Y-46340000D01*
X53590000Y-46340000D02*
X53775000Y-46525000D01*
X46200991Y-45500000D02*
X51320000Y-45500000D01*
X36270000Y-50230000D02*
X36270000Y-83575000D01*
X44699009Y-45500000D02*
X44984009Y-45215000D01*
X74695000Y-47465000D02*
X75820000Y-46340000D01*
X64570000Y-46340000D02*
X65340000Y-46340000D01*
X45915991Y-45215000D02*
X46200991Y-45500000D01*
X53070000Y-46340000D02*
X53590000Y-46340000D01*
X41820000Y-46340000D02*
X42660000Y-45500000D01*
X39775000Y-46725000D02*
X36270000Y-50230000D01*
X53775000Y-46800305D02*
X54439695Y-47465000D01*
X53775000Y-46525000D02*
X53775000Y-46800305D01*
X42660000Y-45500000D02*
X44699009Y-45500000D01*
X51320000Y-45500000D02*
X52160000Y-46340000D01*
X40050305Y-46725000D02*
X39775000Y-46725000D01*
X63660000Y-46340000D02*
X64570000Y-46340000D01*
X65340000Y-46340000D02*
X66465000Y-47465000D01*
X44984009Y-45215000D02*
X45915991Y-45215000D01*
X62535000Y-47465000D02*
X63660000Y-46340000D01*
%TO.N,/LS4*%
X64570000Y-78880000D02*
X69265000Y-83575000D01*
X69265000Y-83575000D02*
X69920000Y-83575000D01*
%TO.N,/LS5*%
X71190000Y-69270000D02*
X68200000Y-66280000D01*
X71190000Y-69270000D02*
X71190000Y-83575000D01*
%TO.N,/LS6*%
X77100147Y-64817453D02*
X77100147Y-73550045D01*
X51945000Y-50005000D02*
X42945000Y-50005000D01*
X77100147Y-73550045D02*
X79000000Y-75449898D01*
X54195000Y-50005000D02*
X53070000Y-48880000D01*
X78900000Y-77150000D02*
X78885000Y-77150000D01*
X42945000Y-50005000D02*
X41820000Y-48880000D01*
X79000000Y-77050000D02*
X78900000Y-77150000D01*
X77500000Y-64029398D02*
X77500000Y-64417600D01*
X65695000Y-50005000D02*
X64570000Y-48880000D01*
X77669500Y-63859898D02*
X77500000Y-64029398D01*
X74695000Y-50005000D02*
X65695000Y-50005000D01*
X64570000Y-48880000D02*
X63445000Y-50005000D01*
X53070000Y-48880000D02*
X51945000Y-50005000D01*
X79000000Y-75449898D02*
X79000000Y-77050000D01*
X75820000Y-48880000D02*
X74695000Y-50005000D01*
X63445000Y-50005000D02*
X54195000Y-50005000D01*
X77500000Y-64417600D02*
X77100147Y-64817453D01*
X78885000Y-77150000D02*
X72460000Y-83575000D01*
%TO.N,/LS7*%
X72730000Y-84575000D02*
X73730000Y-83575000D01*
X41820000Y-73800000D02*
X40695000Y-74925000D01*
X40695000Y-74925000D02*
X40695000Y-79345991D01*
X40695000Y-79345991D02*
X45924009Y-84575000D01*
X45924009Y-84575000D02*
X72730000Y-84575000D01*
%TO.N,/LS8*%
X41820000Y-76840991D02*
X41820000Y-76340000D01*
X48000000Y-82750000D02*
X47729009Y-82750000D01*
X47729009Y-82750000D02*
X41820000Y-76840991D01*
%TO.N,/VCC*%
X53070000Y-31100000D02*
X51945000Y-29975000D01*
X68100000Y-61100000D02*
X68200000Y-61200000D01*
X64570000Y-61100000D02*
X68100000Y-61100000D01*
X54195000Y-29975000D02*
X53070000Y-31100000D01*
X73730000Y-29010000D02*
X75820000Y-31100000D01*
X63445000Y-29975000D02*
X54195000Y-29975000D01*
X51945000Y-29975000D02*
X42945000Y-29975000D01*
X73730000Y-29010000D02*
X73730000Y-26325000D01*
X42945000Y-29975000D02*
X41820000Y-31100000D01*
X64570000Y-31100000D02*
X63445000Y-29975000D01*
%TO.N,/LEN*%
X68200000Y-43800000D02*
X67075000Y-44925000D01*
X44325000Y-44925000D02*
X35325000Y-44925000D01*
X56950000Y-43800000D02*
X55825000Y-44925000D01*
X33075000Y-72675000D02*
X34200000Y-73800000D01*
X45450000Y-43800000D02*
X44325000Y-44925000D01*
X67075000Y-44925000D02*
X58075000Y-44925000D01*
X35325000Y-44925000D02*
X34200000Y-43800000D01*
X46575000Y-44925000D02*
X45450000Y-43800000D01*
X55825000Y-44925000D02*
X46575000Y-44925000D01*
X34200000Y-43800000D02*
X33075000Y-44925000D01*
X33075000Y-44925000D02*
X33075000Y-72675000D01*
X58075000Y-44925000D02*
X56950000Y-43800000D01*
%TO.N,/INP32*%
X51000000Y-66650000D02*
X53070000Y-68720000D01*
X51000000Y-54808000D02*
X51000000Y-66650000D01*
X49721000Y-53529000D02*
X51000000Y-54808000D01*
%TO.N,/INP33*%
X51495000Y-60447613D02*
X51495000Y-64605000D01*
X51500000Y-60442613D02*
X51495000Y-60447613D01*
X51500000Y-54336816D02*
X51500000Y-60442613D01*
X51041256Y-53878072D02*
X51500000Y-54336816D01*
X51495000Y-64605000D02*
X53070000Y-66180000D01*
X51041256Y-53529000D02*
X51041256Y-53878072D01*
%TO.N,/INP34*%
X51945000Y-62515000D02*
X53070000Y-63640000D01*
X52000000Y-60579009D02*
X51945000Y-60634009D01*
X52000000Y-53811511D02*
X52000000Y-60579009D01*
X51945000Y-60634009D02*
X51945000Y-62515000D01*
%TO.N,/INP35*%
X54500000Y-56000000D02*
X54500000Y-69830000D01*
X54500000Y-69830000D02*
X53070000Y-71260000D01*
%TO.N,/INP36*%
X45500000Y-54049500D02*
X45450000Y-54099500D01*
X45450000Y-54099500D02*
X45450000Y-61100000D01*
%TO.N,/INP37*%
X44325000Y-72385000D02*
X45450000Y-71260000D01*
X38000000Y-55093523D02*
X38000000Y-69030991D01*
X37224500Y-54318023D02*
X38000000Y-55093523D01*
X41354009Y-72385000D02*
X44325000Y-72385000D01*
X38000000Y-69030991D02*
X41354009Y-72385000D01*
%TO.N,/INP38*%
X47750000Y-54573195D02*
X47750000Y-61340000D01*
X47750000Y-61340000D02*
X45450000Y-63640000D01*
X47226305Y-54049500D02*
X47750000Y-54573195D01*
%TO.N,/INP39*%
X48474500Y-65695500D02*
X45450000Y-68720000D01*
X48474500Y-56025500D02*
X48474500Y-65695500D01*
%TO.N,/INP41*%
X66250000Y-67860000D02*
X64570000Y-66180000D01*
X66250000Y-69500000D02*
X66250000Y-67860000D01*
%TO.N,/INP42*%
X67075000Y-70217863D02*
X67075000Y-66145000D01*
X67081637Y-70224500D02*
X67075000Y-70217863D01*
X67075000Y-66145000D02*
X64570000Y-63640000D01*
%TO.N,/INP44*%
X58500000Y-62650000D02*
X56950000Y-61100000D01*
X58500000Y-72250000D02*
X58500000Y-62650000D01*
%TO.N,/INP45*%
X56950000Y-71725305D02*
X56950000Y-71260000D01*
X58750000Y-75750000D02*
X58750000Y-73525305D01*
X58750000Y-73525305D02*
X56950000Y-71725305D01*
%TO.N,/INP46*%
X59475000Y-61375000D02*
X57850000Y-59750000D01*
X55825000Y-59975000D02*
X55825000Y-62515000D01*
X59475000Y-78025000D02*
X59475000Y-61375000D01*
X57850000Y-59750000D02*
X56050000Y-59750000D01*
X55825000Y-62515000D02*
X56950000Y-63640000D01*
X56050000Y-59750000D02*
X55825000Y-59975000D01*
X59250000Y-78250000D02*
X59475000Y-78025000D01*
%TO.N,/INP47*%
X55000000Y-81000000D02*
X55000000Y-70670000D01*
X55000000Y-70670000D02*
X56950000Y-68720000D01*
%TO.N,Net-(U2-A)*%
X38750000Y-51250000D02*
X38750000Y-65650000D01*
X38750000Y-65650000D02*
X41820000Y-68720000D01*
%TO.N,Net-(U3-A)*%
X44000000Y-50729500D02*
X42500000Y-52229500D01*
X42945000Y-60634009D02*
X42945000Y-65055000D01*
X42500000Y-52229500D02*
X42500000Y-60189009D01*
X42500000Y-60189009D02*
X42945000Y-60634009D01*
X42945000Y-65055000D02*
X41820000Y-66180000D01*
%TO.N,Net-(U4-A)*%
X49763389Y-52804500D02*
X55020000Y-52804500D01*
X41500000Y-67500000D02*
X42090991Y-67500000D01*
X41820000Y-63640000D02*
X40695000Y-64765000D01*
X40695000Y-66695000D02*
X41500000Y-67500000D01*
X55020000Y-52804500D02*
X55250000Y-52574500D01*
X43395000Y-59627792D02*
X44450000Y-58572792D01*
X43395000Y-66195991D02*
X43395000Y-59627792D01*
X44450000Y-58572792D02*
X44450000Y-51304805D01*
X56880000Y-36250000D02*
X56950000Y-36180000D01*
X42090991Y-67500000D02*
X43395000Y-66195991D01*
X55000000Y-36250000D02*
X56880000Y-36250000D01*
X44450000Y-51304805D02*
X45254805Y-50500000D01*
X47458889Y-50500000D02*
X49763389Y-52804500D01*
X45254805Y-50500000D02*
X47458889Y-50500000D01*
X40695000Y-64765000D02*
X40695000Y-66695000D01*
%TO.N,Net-(U5-A)*%
X44209484Y-59893370D02*
X44325000Y-60008886D01*
X72320000Y-36180000D02*
X68200000Y-36180000D01*
X44325000Y-60008886D02*
X44325000Y-68755000D01*
X73500000Y-35000000D02*
X72320000Y-36180000D01*
X44325000Y-68755000D02*
X41820000Y-71260000D01*
%TD*%
%TA.AperFunction,Conductor*%
%TO.N,/GND*%
G36*
X33534417Y-40290142D02*
G01*
X33579066Y-40330609D01*
X33599367Y-40387346D01*
X33590525Y-40446952D01*
X33554630Y-40495351D01*
X33520068Y-40523716D01*
X33489117Y-40549117D01*
X33364089Y-40701463D01*
X33271185Y-40875273D01*
X33213976Y-41063866D01*
X33194659Y-41260000D01*
X33213976Y-41456133D01*
X33271185Y-41644726D01*
X33309842Y-41717047D01*
X33364090Y-41818538D01*
X33489117Y-41970883D01*
X33489119Y-41970884D01*
X33489899Y-41971835D01*
X33517113Y-42035321D01*
X33506141Y-42103517D01*
X33460386Y-42155262D01*
X33394046Y-42174500D01*
X29021186Y-42174500D01*
X29010378Y-42174028D01*
X28972750Y-42170735D01*
X28936262Y-42180512D01*
X28925706Y-42182852D01*
X28887457Y-42189597D01*
X28862751Y-42199831D01*
X28830938Y-42222106D01*
X28821822Y-42227914D01*
X28789103Y-42246805D01*
X28764820Y-42275744D01*
X28757514Y-42283716D01*
X27881045Y-43160185D01*
X27873072Y-43167491D01*
X27844137Y-43191771D01*
X27825245Y-43224491D01*
X27819437Y-43233607D01*
X27786367Y-43280838D01*
X27773511Y-43304762D01*
X27727094Y-43337565D01*
X27353017Y-43488702D01*
X27303149Y-43521396D01*
X27258257Y-43587330D01*
X27242014Y-43665419D01*
X27253138Y-43724004D01*
X27642539Y-44687807D01*
X27675233Y-44737675D01*
X27741167Y-44782567D01*
X27819256Y-44798810D01*
X27819257Y-44798809D01*
X27819259Y-44798810D01*
X27877841Y-44787687D01*
X28841645Y-44398285D01*
X28891512Y-44365591D01*
X28936403Y-44299659D01*
X28948570Y-44241165D01*
X28978474Y-44182729D01*
X29034022Y-44147745D01*
X29099643Y-44146023D01*
X29189798Y-44168244D01*
X29359909Y-44168244D01*
X29359910Y-44168244D01*
X29525079Y-44127534D01*
X29675706Y-44048478D01*
X29803037Y-43935673D01*
X29899672Y-43795674D01*
X29959994Y-43636616D01*
X29980499Y-43467744D01*
X29959994Y-43298872D01*
X29899672Y-43139814D01*
X29816926Y-43019937D01*
X29795204Y-42956987D01*
X29809181Y-42891875D01*
X29854828Y-42843383D01*
X29918978Y-42825500D01*
X33463779Y-42825500D01*
X33522232Y-42840142D01*
X33566881Y-42880609D01*
X33587182Y-42937346D01*
X33578340Y-42996952D01*
X33542445Y-43045351D01*
X33510604Y-43071483D01*
X33489117Y-43089117D01*
X33364089Y-43241463D01*
X33271185Y-43415273D01*
X33213976Y-43603866D01*
X33194659Y-43800000D01*
X33213975Y-43996130D01*
X33269106Y-44177870D01*
X33270729Y-44243994D01*
X33238126Y-44301546D01*
X32858714Y-44680958D01*
X32850741Y-44688264D01*
X32821806Y-44712544D01*
X32802914Y-44745264D01*
X32797106Y-44754380D01*
X32774831Y-44786193D01*
X32764597Y-44810899D01*
X32757852Y-44849148D01*
X32755512Y-44859704D01*
X32745735Y-44896192D01*
X32749028Y-44933820D01*
X32749500Y-44944628D01*
X32749500Y-72655372D01*
X32749028Y-72666180D01*
X32745735Y-72703807D01*
X32755512Y-72740296D01*
X32757853Y-72750852D01*
X32764599Y-72789107D01*
X32774829Y-72813803D01*
X32775446Y-72814684D01*
X32797112Y-72845627D01*
X32802915Y-72854736D01*
X32806179Y-72860389D01*
X32821806Y-72887455D01*
X32835910Y-72899290D01*
X32850742Y-72911735D01*
X32858718Y-72919044D01*
X33238126Y-73298452D01*
X33270729Y-73356003D01*
X33269106Y-73422128D01*
X33213975Y-73603869D01*
X33194659Y-73800000D01*
X33213976Y-73996133D01*
X33271185Y-74184726D01*
X33312795Y-74262572D01*
X33364090Y-74358538D01*
X33489117Y-74510883D01*
X33641462Y-74635910D01*
X33815273Y-74728814D01*
X34003868Y-74786024D01*
X34200000Y-74805341D01*
X34396132Y-74786024D01*
X34584727Y-74728814D01*
X34758538Y-74635910D01*
X34796835Y-74604479D01*
X34860321Y-74577266D01*
X34928517Y-74588238D01*
X34980262Y-74633993D01*
X34999500Y-74700333D01*
X34999500Y-75375630D01*
X34980262Y-75441970D01*
X34928517Y-75487725D01*
X34860321Y-75498697D01*
X34796835Y-75471483D01*
X34786171Y-75462731D01*
X34603764Y-75365233D01*
X34450000Y-75318590D01*
X34450000Y-77361410D01*
X34603764Y-77314766D01*
X34786171Y-77217268D01*
X34796835Y-77208517D01*
X34860321Y-77181303D01*
X34928517Y-77192275D01*
X34980262Y-77238030D01*
X34999500Y-77304370D01*
X34999500Y-77915630D01*
X34980262Y-77981970D01*
X34928517Y-78027725D01*
X34860321Y-78038697D01*
X34796835Y-78011483D01*
X34786171Y-78002731D01*
X34603764Y-77905233D01*
X34450000Y-77858590D01*
X34450000Y-79901410D01*
X34603764Y-79854766D01*
X34786171Y-79757268D01*
X34796835Y-79748517D01*
X34860321Y-79721303D01*
X34928517Y-79732275D01*
X34980262Y-79778030D01*
X34999500Y-79844370D01*
X34999500Y-82750500D01*
X34982887Y-82812500D01*
X34937500Y-82857887D01*
X34875500Y-82874500D01*
X34480251Y-82874500D01*
X34421769Y-82886132D01*
X34355447Y-82930447D01*
X34311132Y-82996769D01*
X34299500Y-83055251D01*
X34299500Y-84094749D01*
X34311132Y-84153230D01*
X34355447Y-84219552D01*
X34421769Y-84263867D01*
X34480251Y-84275500D01*
X34480252Y-84275500D01*
X35519748Y-84275500D01*
X35519749Y-84275500D01*
X35548989Y-84269683D01*
X35578231Y-84263867D01*
X35644552Y-84219552D01*
X35675899Y-84172638D01*
X35729248Y-84127949D01*
X35798272Y-84119038D01*
X35861222Y-84148713D01*
X35869148Y-84155734D01*
X36019775Y-84234790D01*
X36184944Y-84275500D01*
X36355055Y-84275500D01*
X36355056Y-84275500D01*
X36520225Y-84234790D01*
X36670852Y-84155734D01*
X36798183Y-84042929D01*
X36802950Y-84036022D01*
X36847369Y-83996668D01*
X36904995Y-83982462D01*
X36962622Y-83996664D01*
X37007048Y-84036020D01*
X37011817Y-84042929D01*
X37139148Y-84155734D01*
X37289775Y-84234790D01*
X37454944Y-84275500D01*
X37625055Y-84275500D01*
X37625056Y-84275500D01*
X37790225Y-84234790D01*
X37940852Y-84155734D01*
X38068183Y-84042929D01*
X38072950Y-84036022D01*
X38117369Y-83996668D01*
X38174995Y-83982462D01*
X38232622Y-83996664D01*
X38277048Y-84036020D01*
X38281817Y-84042929D01*
X38409148Y-84155734D01*
X38559775Y-84234790D01*
X38724944Y-84275500D01*
X38895055Y-84275500D01*
X38895056Y-84275500D01*
X39060225Y-84234790D01*
X39210852Y-84155734D01*
X39338183Y-84042929D01*
X39434818Y-83902930D01*
X39495140Y-83743872D01*
X39515645Y-83575000D01*
X39495140Y-83406128D01*
X39434818Y-83247070D01*
X39338186Y-83107075D01*
X39338184Y-83107072D01*
X39279690Y-83055251D01*
X39210852Y-82994266D01*
X39163429Y-82969376D01*
X39060224Y-82915209D01*
X38927059Y-82882388D01*
X38895056Y-82874500D01*
X38724944Y-82874500D01*
X38692941Y-82882388D01*
X38559775Y-82915209D01*
X38409149Y-82994265D01*
X38409147Y-82994266D01*
X38409148Y-82994266D01*
X38281817Y-83107071D01*
X38281816Y-83107072D01*
X38281813Y-83107075D01*
X38277046Y-83113981D01*
X38232620Y-83153336D01*
X38174995Y-83167537D01*
X38117370Y-83153332D01*
X38072949Y-83113975D01*
X38068183Y-83107071D01*
X37940852Y-82994266D01*
X37893429Y-82969376D01*
X37790224Y-82915209D01*
X37657059Y-82882388D01*
X37625056Y-82874500D01*
X37454944Y-82874500D01*
X37422941Y-82882388D01*
X37289775Y-82915209D01*
X37139149Y-82994265D01*
X37139147Y-82994266D01*
X37139148Y-82994266D01*
X37011817Y-83107071D01*
X37011816Y-83107072D01*
X37011813Y-83107075D01*
X37007046Y-83113981D01*
X36962620Y-83153336D01*
X36904995Y-83167537D01*
X36847370Y-83153332D01*
X36802949Y-83113975D01*
X36798183Y-83107071D01*
X36670852Y-82994266D01*
X36661871Y-82989552D01*
X36613383Y-82943907D01*
X36595500Y-82879758D01*
X36595500Y-54843736D01*
X36614199Y-54778256D01*
X36664656Y-54732524D01*
X36731654Y-54720333D01*
X36794986Y-54745360D01*
X36837857Y-54778256D01*
X36921659Y-54842559D01*
X37067738Y-54903067D01*
X37198606Y-54920296D01*
X37224499Y-54923705D01*
X37224499Y-54923704D01*
X37224500Y-54923705D01*
X37292318Y-54914776D01*
X37348362Y-54920296D01*
X37396185Y-54950034D01*
X37638181Y-55192030D01*
X37665061Y-55232258D01*
X37674500Y-55279711D01*
X37674500Y-69011363D01*
X37674028Y-69022171D01*
X37670735Y-69059798D01*
X37680512Y-69096287D01*
X37682853Y-69106843D01*
X37689599Y-69145098D01*
X37699829Y-69169794D01*
X37700446Y-69170675D01*
X37722112Y-69201618D01*
X37727915Y-69210727D01*
X37745505Y-69241192D01*
X37746806Y-69243446D01*
X37767884Y-69261133D01*
X37775742Y-69267726D01*
X37783718Y-69275035D01*
X41109959Y-72601276D01*
X41117267Y-72609250D01*
X41141554Y-72638194D01*
X41148143Y-72641998D01*
X41174265Y-72657080D01*
X41183388Y-72662892D01*
X41214325Y-72684554D01*
X41214326Y-72684554D01*
X41215207Y-72685171D01*
X41239900Y-72695400D01*
X41240963Y-72695587D01*
X41240964Y-72695588D01*
X41278152Y-72702145D01*
X41288701Y-72704483D01*
X41290972Y-72705091D01*
X41342452Y-72733259D01*
X41375217Y-72781946D01*
X41381925Y-72840245D01*
X41361074Y-72895100D01*
X41317335Y-72934225D01*
X41261463Y-72964089D01*
X41109117Y-73089117D01*
X40984089Y-73241463D01*
X40891185Y-73415273D01*
X40833976Y-73603866D01*
X40814659Y-73800000D01*
X40833975Y-73996130D01*
X40889106Y-74177870D01*
X40890729Y-74243994D01*
X40858126Y-74301546D01*
X40478714Y-74680958D01*
X40470741Y-74688264D01*
X40441806Y-74712544D01*
X40422914Y-74745264D01*
X40417106Y-74754380D01*
X40394831Y-74786193D01*
X40384597Y-74810899D01*
X40377852Y-74849148D01*
X40375512Y-74859704D01*
X40365735Y-74896192D01*
X40369028Y-74933820D01*
X40369500Y-74944628D01*
X40369500Y-79326363D01*
X40369028Y-79337171D01*
X40365735Y-79374798D01*
X40375512Y-79411287D01*
X40377853Y-79421843D01*
X40384599Y-79460098D01*
X40394829Y-79484794D01*
X40395446Y-79485675D01*
X40417112Y-79516618D01*
X40422915Y-79525727D01*
X40441806Y-79558446D01*
X40470742Y-79582726D01*
X40478718Y-79590035D01*
X45576501Y-84687819D01*
X45606751Y-84737182D01*
X45611293Y-84794898D01*
X45589138Y-84848385D01*
X45545115Y-84885985D01*
X45488820Y-84899500D01*
X25124500Y-84899500D01*
X25062500Y-84882887D01*
X25017113Y-84837500D01*
X25000500Y-84775500D01*
X25000500Y-79130000D01*
X33178590Y-79130000D01*
X33225233Y-79283764D01*
X33322731Y-79466171D01*
X33453945Y-79626054D01*
X33613828Y-79757268D01*
X33796235Y-79854766D01*
X33950000Y-79901410D01*
X33950000Y-79130000D01*
X33178590Y-79130000D01*
X25000500Y-79130000D01*
X25000500Y-78630000D01*
X33178590Y-78630000D01*
X33950000Y-78630000D01*
X33950000Y-77858590D01*
X33796235Y-77905233D01*
X33613828Y-78002731D01*
X33453945Y-78133945D01*
X33322731Y-78293828D01*
X33225233Y-78476235D01*
X33178590Y-78630000D01*
X25000500Y-78630000D01*
X25000500Y-78274500D01*
X25017113Y-78212500D01*
X25062500Y-78167113D01*
X25124500Y-78150500D01*
X26169749Y-78150500D01*
X26198989Y-78144683D01*
X26228231Y-78138867D01*
X26294552Y-78094552D01*
X26325899Y-78047638D01*
X26379248Y-78002949D01*
X26448272Y-77994038D01*
X26511222Y-78023713D01*
X26519148Y-78030734D01*
X26669775Y-78109790D01*
X26834944Y-78150500D01*
X27005055Y-78150500D01*
X27005056Y-78150500D01*
X27170225Y-78109790D01*
X27320852Y-78030734D01*
X27448183Y-77917929D01*
X27544818Y-77777930D01*
X27605140Y-77618872D01*
X27625645Y-77450000D01*
X27605140Y-77281128D01*
X27544818Y-77122070D01*
X27448183Y-76982071D01*
X27320852Y-76869266D01*
X27281879Y-76848811D01*
X27170224Y-76790209D01*
X27045765Y-76759533D01*
X27005056Y-76749500D01*
X26834944Y-76749500D01*
X26802284Y-76757549D01*
X26669775Y-76790209D01*
X26519145Y-76869267D01*
X26511222Y-76876287D01*
X26448270Y-76905961D01*
X26379247Y-76897050D01*
X26325897Y-76852359D01*
X26323526Y-76848811D01*
X26294552Y-76805448D01*
X26271747Y-76790210D01*
X26228230Y-76761132D01*
X26169749Y-76749500D01*
X26169748Y-76749500D01*
X25130252Y-76749500D01*
X25124500Y-76749500D01*
X25062500Y-76732887D01*
X25017113Y-76687500D01*
X25000500Y-76625500D01*
X25000500Y-76590000D01*
X33178590Y-76590000D01*
X33225233Y-76743764D01*
X33322731Y-76926171D01*
X33453945Y-77086054D01*
X33613828Y-77217268D01*
X33796235Y-77314766D01*
X33950000Y-77361410D01*
X33950000Y-76590000D01*
X33178590Y-76590000D01*
X25000500Y-76590000D01*
X25000500Y-76090000D01*
X33178590Y-76090000D01*
X33950000Y-76090000D01*
X33950000Y-75318590D01*
X33796235Y-75365233D01*
X33613828Y-75462731D01*
X33453945Y-75593945D01*
X33322731Y-75753828D01*
X33225233Y-75936235D01*
X33178590Y-76090000D01*
X25000500Y-76090000D01*
X25000500Y-73665419D01*
X27242014Y-73665419D01*
X27253138Y-73724004D01*
X27642539Y-74687807D01*
X27675233Y-74737675D01*
X27741167Y-74782567D01*
X27819256Y-74798810D01*
X27819257Y-74798809D01*
X27819259Y-74798810D01*
X27877841Y-74787687D01*
X28841645Y-74398285D01*
X28891512Y-74365591D01*
X28936403Y-74299659D01*
X28948570Y-74241165D01*
X28978474Y-74182729D01*
X29034022Y-74147745D01*
X29099643Y-74146023D01*
X29189798Y-74168244D01*
X29359909Y-74168244D01*
X29359910Y-74168244D01*
X29525079Y-74127534D01*
X29675706Y-74048478D01*
X29803037Y-73935673D01*
X29899672Y-73795674D01*
X29959994Y-73636616D01*
X29980499Y-73467744D01*
X29959994Y-73298872D01*
X29899672Y-73139814D01*
X29818857Y-73022734D01*
X29803038Y-72999816D01*
X29793160Y-72991065D01*
X29675706Y-72887010D01*
X29645554Y-72871185D01*
X29525078Y-72807953D01*
X29385186Y-72773474D01*
X29359910Y-72767244D01*
X29189798Y-72767244D01*
X29164522Y-72773474D01*
X29024629Y-72807953D01*
X28874003Y-72887009D01*
X28746668Y-72999817D01*
X28673809Y-73105371D01*
X28625155Y-73146845D01*
X28562308Y-73158569D01*
X28501973Y-73137428D01*
X28453494Y-73104420D01*
X28375405Y-73088177D01*
X28316820Y-73099301D01*
X27353017Y-73488702D01*
X27303149Y-73521396D01*
X27258257Y-73587330D01*
X27242014Y-73665419D01*
X25000500Y-73665419D01*
X25000500Y-70774500D01*
X25017113Y-70712500D01*
X25062500Y-70667113D01*
X25124500Y-70650500D01*
X26169749Y-70650500D01*
X26216542Y-70641192D01*
X26228231Y-70638867D01*
X26294552Y-70594552D01*
X26325899Y-70547638D01*
X26379248Y-70502949D01*
X26448272Y-70494038D01*
X26511222Y-70523713D01*
X26519148Y-70530734D01*
X26669775Y-70609790D01*
X26834944Y-70650500D01*
X27005055Y-70650500D01*
X27005056Y-70650500D01*
X27170225Y-70609790D01*
X27320852Y-70530734D01*
X27448183Y-70417929D01*
X27544818Y-70277930D01*
X27605140Y-70118872D01*
X27625645Y-69950000D01*
X27605140Y-69781128D01*
X27544818Y-69622070D01*
X27477456Y-69524480D01*
X27448184Y-69482072D01*
X27362272Y-69405961D01*
X27320852Y-69369266D01*
X27271262Y-69343239D01*
X27170224Y-69290209D01*
X27045764Y-69259533D01*
X27005056Y-69249500D01*
X26834944Y-69249500D01*
X26802284Y-69257549D01*
X26669775Y-69290209D01*
X26519145Y-69369267D01*
X26511222Y-69376287D01*
X26448270Y-69405961D01*
X26379247Y-69397050D01*
X26325897Y-69352359D01*
X26319803Y-69343239D01*
X26294552Y-69305448D01*
X26271747Y-69290210D01*
X26228230Y-69261132D01*
X26169749Y-69249500D01*
X26169748Y-69249500D01*
X25130252Y-69249500D01*
X25124500Y-69249500D01*
X25062500Y-69232887D01*
X25017113Y-69187500D01*
X25000500Y-69125500D01*
X25000500Y-66165419D01*
X27242014Y-66165419D01*
X27253138Y-66224004D01*
X27642539Y-67187807D01*
X27675233Y-67237675D01*
X27741167Y-67282567D01*
X27819256Y-67298810D01*
X27819257Y-67298809D01*
X27819259Y-67298810D01*
X27877841Y-67287687D01*
X28841645Y-66898285D01*
X28891512Y-66865591D01*
X28936403Y-66799659D01*
X28948570Y-66741165D01*
X28978474Y-66682729D01*
X29034022Y-66647745D01*
X29099643Y-66646023D01*
X29189798Y-66668244D01*
X29359909Y-66668244D01*
X29359910Y-66668244D01*
X29525079Y-66627534D01*
X29675706Y-66548478D01*
X29803037Y-66435673D01*
X29899672Y-66295674D01*
X29959994Y-66136616D01*
X29980499Y-65967744D01*
X29959994Y-65798872D01*
X29899672Y-65639814D01*
X29838708Y-65551493D01*
X29803038Y-65499816D01*
X29768386Y-65469117D01*
X29675706Y-65387010D01*
X29607448Y-65351185D01*
X29525078Y-65307953D01*
X29389994Y-65274659D01*
X29359910Y-65267244D01*
X29189798Y-65267244D01*
X29159714Y-65274659D01*
X29024629Y-65307953D01*
X28874003Y-65387009D01*
X28746668Y-65499817D01*
X28673809Y-65605371D01*
X28625155Y-65646845D01*
X28562308Y-65658569D01*
X28501973Y-65637428D01*
X28453494Y-65604420D01*
X28375405Y-65588177D01*
X28316820Y-65599301D01*
X27353017Y-65988702D01*
X27303149Y-66021396D01*
X27258257Y-66087330D01*
X27242014Y-66165419D01*
X25000500Y-66165419D01*
X25000500Y-64295226D01*
X25016128Y-64234964D01*
X25059072Y-64189892D01*
X25118508Y-64171371D01*
X25179454Y-64184068D01*
X25209039Y-64209645D01*
X25210547Y-64207944D01*
X25221815Y-64217927D01*
X25221817Y-64217929D01*
X25349148Y-64330734D01*
X25499775Y-64409790D01*
X25664944Y-64450500D01*
X25835055Y-64450500D01*
X25835056Y-64450500D01*
X26000225Y-64409790D01*
X26150852Y-64330734D01*
X26278183Y-64217929D01*
X26374818Y-64077930D01*
X26435140Y-63918872D01*
X26455645Y-63750000D01*
X26435140Y-63581128D01*
X26374818Y-63422070D01*
X26285075Y-63292056D01*
X26278184Y-63282072D01*
X26278183Y-63282071D01*
X26150852Y-63169266D01*
X26114502Y-63150188D01*
X26000224Y-63090209D01*
X25875765Y-63059533D01*
X25835056Y-63049500D01*
X25664944Y-63049500D01*
X25632284Y-63057549D01*
X25499775Y-63090209D01*
X25349149Y-63169265D01*
X25335380Y-63181463D01*
X25221817Y-63282071D01*
X25221815Y-63282072D01*
X25210547Y-63292056D01*
X25209039Y-63290354D01*
X25179454Y-63315932D01*
X25118508Y-63328629D01*
X25059072Y-63310108D01*
X25016128Y-63265036D01*
X25000500Y-63204774D01*
X25000500Y-61795226D01*
X25016128Y-61734964D01*
X25059072Y-61689892D01*
X25118508Y-61671371D01*
X25179454Y-61684068D01*
X25209039Y-61709645D01*
X25210547Y-61707944D01*
X25221815Y-61717927D01*
X25221817Y-61717929D01*
X25349148Y-61830734D01*
X25499775Y-61909790D01*
X25664944Y-61950500D01*
X25835055Y-61950500D01*
X25835056Y-61950500D01*
X26000225Y-61909790D01*
X26150852Y-61830734D01*
X26278183Y-61717929D01*
X26374818Y-61577930D01*
X26435140Y-61418872D01*
X26455645Y-61250000D01*
X26435140Y-61081128D01*
X26374818Y-60922070D01*
X26307888Y-60825106D01*
X26278184Y-60782072D01*
X26249723Y-60756858D01*
X26150852Y-60669266D01*
X26106519Y-60645998D01*
X26000224Y-60590209D01*
X25852879Y-60553893D01*
X25835056Y-60549500D01*
X25664944Y-60549500D01*
X25647121Y-60553893D01*
X25499775Y-60590209D01*
X25349149Y-60669265D01*
X25349147Y-60669266D01*
X25349148Y-60669266D01*
X25221817Y-60782071D01*
X25221815Y-60782072D01*
X25210547Y-60792056D01*
X25209039Y-60790354D01*
X25179454Y-60815932D01*
X25118508Y-60828629D01*
X25059072Y-60810108D01*
X25016128Y-60765036D01*
X25000500Y-60704774D01*
X25000500Y-59295226D01*
X25016128Y-59234964D01*
X25059072Y-59189892D01*
X25118508Y-59171371D01*
X25179454Y-59184068D01*
X25209039Y-59209645D01*
X25210547Y-59207944D01*
X25221815Y-59217927D01*
X25221817Y-59217929D01*
X25349148Y-59330734D01*
X25499775Y-59409790D01*
X25664944Y-59450500D01*
X25835055Y-59450500D01*
X25835056Y-59450500D01*
X26000225Y-59409790D01*
X26150852Y-59330734D01*
X26278183Y-59217929D01*
X26374818Y-59077930D01*
X26435140Y-58918872D01*
X26455645Y-58750000D01*
X26435140Y-58581128D01*
X26374818Y-58422070D01*
X26285075Y-58292056D01*
X26278184Y-58282072D01*
X26258954Y-58265036D01*
X26150852Y-58169266D01*
X26136588Y-58161779D01*
X26000224Y-58090209D01*
X25875764Y-58059533D01*
X25835056Y-58049500D01*
X25664944Y-58049500D01*
X25632284Y-58057549D01*
X25499775Y-58090209D01*
X25349149Y-58169265D01*
X25349147Y-58169266D01*
X25349148Y-58169266D01*
X25221817Y-58282071D01*
X25221815Y-58282072D01*
X25210547Y-58292056D01*
X25209039Y-58290354D01*
X25179454Y-58315932D01*
X25118508Y-58328629D01*
X25059072Y-58310108D01*
X25016128Y-58265036D01*
X25000500Y-58204774D01*
X25000500Y-56795226D01*
X25016128Y-56734964D01*
X25059072Y-56689892D01*
X25118508Y-56671371D01*
X25179454Y-56684068D01*
X25209039Y-56709645D01*
X25210547Y-56707944D01*
X25221815Y-56717927D01*
X25221817Y-56717929D01*
X25349148Y-56830734D01*
X25499775Y-56909790D01*
X25664944Y-56950500D01*
X25835055Y-56950500D01*
X25835056Y-56950500D01*
X26000225Y-56909790D01*
X26150852Y-56830734D01*
X26278183Y-56717929D01*
X26374818Y-56577930D01*
X26435140Y-56418872D01*
X26455645Y-56250000D01*
X26435140Y-56081128D01*
X26374818Y-55922070D01*
X26285075Y-55792056D01*
X26278184Y-55782072D01*
X26258954Y-55765036D01*
X26150852Y-55669266D01*
X26136588Y-55661780D01*
X26000224Y-55590209D01*
X25875765Y-55559533D01*
X25835056Y-55549500D01*
X25664944Y-55549500D01*
X25632284Y-55557549D01*
X25499775Y-55590209D01*
X25349149Y-55669265D01*
X25349147Y-55669266D01*
X25349148Y-55669266D01*
X25221817Y-55782071D01*
X25221815Y-55782072D01*
X25210547Y-55792056D01*
X25209039Y-55790354D01*
X25179454Y-55815932D01*
X25118508Y-55828629D01*
X25059072Y-55810108D01*
X25016128Y-55765036D01*
X25000500Y-55704774D01*
X25000500Y-54295226D01*
X25016128Y-54234964D01*
X25059072Y-54189892D01*
X25118508Y-54171371D01*
X25179454Y-54184068D01*
X25209039Y-54209645D01*
X25210547Y-54207944D01*
X25221815Y-54217927D01*
X25221817Y-54217929D01*
X25349148Y-54330734D01*
X25499775Y-54409790D01*
X25664944Y-54450500D01*
X25835055Y-54450500D01*
X25835056Y-54450500D01*
X26000225Y-54409790D01*
X26150852Y-54330734D01*
X26278183Y-54217929D01*
X26374818Y-54077930D01*
X26435140Y-53918872D01*
X26455645Y-53750000D01*
X26435140Y-53581128D01*
X26374818Y-53422070D01*
X26285075Y-53292056D01*
X26278184Y-53282072D01*
X26235515Y-53244271D01*
X26150852Y-53169266D01*
X26136588Y-53161780D01*
X26000224Y-53090209D01*
X25875764Y-53059533D01*
X25835056Y-53049500D01*
X25664944Y-53049500D01*
X25632284Y-53057549D01*
X25499775Y-53090209D01*
X25349149Y-53169265D01*
X25349147Y-53169266D01*
X25349148Y-53169266D01*
X25221817Y-53282071D01*
X25221815Y-53282072D01*
X25210547Y-53292056D01*
X25209039Y-53290354D01*
X25179454Y-53315932D01*
X25118508Y-53328629D01*
X25059072Y-53310108D01*
X25016128Y-53265036D01*
X25000500Y-53204774D01*
X25000500Y-51795226D01*
X25016128Y-51734964D01*
X25059072Y-51689892D01*
X25118508Y-51671371D01*
X25179454Y-51684068D01*
X25209039Y-51709645D01*
X25210547Y-51707944D01*
X25221815Y-51717927D01*
X25221817Y-51717929D01*
X25349148Y-51830734D01*
X25499775Y-51909790D01*
X25664944Y-51950500D01*
X25835055Y-51950500D01*
X25835056Y-51950500D01*
X26000225Y-51909790D01*
X26150852Y-51830734D01*
X26278183Y-51717929D01*
X26374818Y-51577930D01*
X26435140Y-51418872D01*
X26455645Y-51250000D01*
X26435140Y-51081128D01*
X26374818Y-50922070D01*
X26297536Y-50810108D01*
X26278184Y-50782072D01*
X26242146Y-50750145D01*
X26150852Y-50669266D01*
X26103316Y-50644317D01*
X26000224Y-50590209D01*
X25875765Y-50559533D01*
X25835056Y-50549500D01*
X25664944Y-50549500D01*
X25632284Y-50557549D01*
X25499775Y-50590209D01*
X25349149Y-50669265D01*
X25349147Y-50669266D01*
X25349148Y-50669266D01*
X25221817Y-50782071D01*
X25221815Y-50782072D01*
X25210547Y-50792056D01*
X25209039Y-50790354D01*
X25179454Y-50815932D01*
X25118508Y-50828629D01*
X25059072Y-50810108D01*
X25016128Y-50765036D01*
X25000500Y-50704774D01*
X25000500Y-49295226D01*
X25016128Y-49234964D01*
X25059072Y-49189892D01*
X25118508Y-49171371D01*
X25179454Y-49184068D01*
X25209039Y-49209645D01*
X25210547Y-49207944D01*
X25221815Y-49217927D01*
X25221817Y-49217929D01*
X25349148Y-49330734D01*
X25499775Y-49409790D01*
X25664944Y-49450500D01*
X25835055Y-49450500D01*
X25835056Y-49450500D01*
X26000225Y-49409790D01*
X26150852Y-49330734D01*
X26278183Y-49217929D01*
X26374818Y-49077930D01*
X26435140Y-48918872D01*
X26455645Y-48750000D01*
X26435140Y-48581128D01*
X26374818Y-48422070D01*
X26297536Y-48310108D01*
X26278184Y-48282072D01*
X26258954Y-48265036D01*
X26150852Y-48169266D01*
X26136588Y-48161780D01*
X26000224Y-48090209D01*
X25875764Y-48059533D01*
X25835056Y-48049500D01*
X25664944Y-48049500D01*
X25632284Y-48057549D01*
X25499775Y-48090209D01*
X25349149Y-48169265D01*
X25349147Y-48169266D01*
X25349148Y-48169266D01*
X25221817Y-48282071D01*
X25221815Y-48282072D01*
X25210547Y-48292056D01*
X25209039Y-48290354D01*
X25179454Y-48315932D01*
X25118508Y-48328629D01*
X25059072Y-48310108D01*
X25016128Y-48265036D01*
X25000500Y-48204774D01*
X25000500Y-46795226D01*
X25016128Y-46734964D01*
X25059072Y-46689892D01*
X25118508Y-46671371D01*
X25179454Y-46684068D01*
X25209039Y-46709645D01*
X25210547Y-46707944D01*
X25221815Y-46717927D01*
X25221817Y-46717929D01*
X25349148Y-46830734D01*
X25499775Y-46909790D01*
X25664944Y-46950500D01*
X25835055Y-46950500D01*
X25835056Y-46950500D01*
X26000225Y-46909790D01*
X26150852Y-46830734D01*
X26278183Y-46717929D01*
X26374818Y-46577930D01*
X26435140Y-46418872D01*
X26455645Y-46250000D01*
X26435140Y-46081128D01*
X26374818Y-45922070D01*
X26297536Y-45810108D01*
X26278184Y-45782072D01*
X26277497Y-45781463D01*
X26150852Y-45669266D01*
X26136588Y-45661779D01*
X26000224Y-45590209D01*
X25875765Y-45559533D01*
X25835056Y-45549500D01*
X25664944Y-45549500D01*
X25632284Y-45557549D01*
X25499775Y-45590209D01*
X25349149Y-45669265D01*
X25349147Y-45669266D01*
X25349148Y-45669266D01*
X25221817Y-45782071D01*
X25221815Y-45782072D01*
X25210547Y-45792056D01*
X25209039Y-45790354D01*
X25179454Y-45815932D01*
X25118508Y-45828629D01*
X25059072Y-45810108D01*
X25016128Y-45765036D01*
X25000500Y-45704774D01*
X25000500Y-40774500D01*
X25017113Y-40712500D01*
X25062500Y-40667113D01*
X25124500Y-40650500D01*
X26169749Y-40650500D01*
X26198989Y-40644683D01*
X26228231Y-40638867D01*
X26294552Y-40594552D01*
X26325899Y-40547638D01*
X26379248Y-40502949D01*
X26448272Y-40494038D01*
X26511222Y-40523713D01*
X26519148Y-40530734D01*
X26669775Y-40609790D01*
X26834944Y-40650500D01*
X27005055Y-40650500D01*
X27005056Y-40650500D01*
X27170225Y-40609790D01*
X27320852Y-40530734D01*
X27448183Y-40417929D01*
X27509525Y-40329059D01*
X27553949Y-40289703D01*
X27611575Y-40275500D01*
X33475964Y-40275500D01*
X33534417Y-40290142D01*
G37*
%TD.AperFunction*%
%TA.AperFunction,Conductor*%
G36*
X47320154Y-50834939D02*
G01*
X47360382Y-50861819D01*
X49366198Y-52867635D01*
X49399578Y-52928478D01*
X49395039Y-52997727D01*
X49354003Y-53053692D01*
X49292717Y-53100717D01*
X49196463Y-53226159D01*
X49135956Y-53372237D01*
X49115317Y-53528999D01*
X49135956Y-53685762D01*
X49196463Y-53831840D01*
X49292717Y-53957282D01*
X49393923Y-54034939D01*
X49418159Y-54053536D01*
X49564238Y-54114044D01*
X49695106Y-54131273D01*
X49720999Y-54134682D01*
X49720999Y-54134681D01*
X49721000Y-54134682D01*
X49788818Y-54125753D01*
X49844862Y-54131273D01*
X49892685Y-54161011D01*
X50638181Y-54906507D01*
X50665061Y-54946735D01*
X50674500Y-54994188D01*
X50674500Y-66630372D01*
X50674028Y-66641180D01*
X50670735Y-66678807D01*
X50680512Y-66715296D01*
X50682853Y-66725852D01*
X50689599Y-66764107D01*
X50699829Y-66788803D01*
X50700446Y-66789684D01*
X50722112Y-66820627D01*
X50727915Y-66829736D01*
X50746806Y-66862455D01*
X50775742Y-66886735D01*
X50783718Y-66894044D01*
X52108126Y-68218452D01*
X52140729Y-68276003D01*
X52139106Y-68342128D01*
X52083975Y-68523869D01*
X52064659Y-68720000D01*
X52083976Y-68916133D01*
X52141185Y-69104726D01*
X52196587Y-69208375D01*
X52234090Y-69278538D01*
X52359117Y-69430883D01*
X52511462Y-69555910D01*
X52685273Y-69648814D01*
X52873868Y-69706024D01*
X53070000Y-69725341D01*
X53266132Y-69706024D01*
X53454727Y-69648814D01*
X53628538Y-69555910D01*
X53780883Y-69430883D01*
X53905910Y-69278538D01*
X53941141Y-69212624D01*
X53985710Y-69165350D01*
X54048065Y-69147101D01*
X54111089Y-69162887D01*
X54157479Y-69208375D01*
X54174500Y-69271077D01*
X54174500Y-69643811D01*
X54165061Y-69691264D01*
X54138181Y-69731492D01*
X53571546Y-70298126D01*
X53513994Y-70330729D01*
X53447870Y-70329106D01*
X53266130Y-70273975D01*
X53070000Y-70254659D01*
X52873866Y-70273976D01*
X52685273Y-70331185D01*
X52511463Y-70424089D01*
X52359117Y-70549117D01*
X52234089Y-70701463D01*
X52141185Y-70875273D01*
X52083976Y-71063866D01*
X52064659Y-71260000D01*
X52083976Y-71456133D01*
X52141185Y-71644726D01*
X52190264Y-71736545D01*
X52234090Y-71818538D01*
X52359117Y-71970883D01*
X52511462Y-72095910D01*
X52685273Y-72188814D01*
X52873868Y-72246024D01*
X53070000Y-72265341D01*
X53266132Y-72246024D01*
X53454727Y-72188814D01*
X53628538Y-72095910D01*
X53780883Y-71970883D01*
X53905910Y-71818538D01*
X53998814Y-71644727D01*
X54056024Y-71456132D01*
X54075341Y-71260000D01*
X54056024Y-71063868D01*
X54000892Y-70882126D01*
X53999270Y-70816004D01*
X54031873Y-70758452D01*
X54334849Y-70455476D01*
X54716296Y-70074029D01*
X54724250Y-70066740D01*
X54753194Y-70042455D01*
X54772102Y-70009703D01*
X54777878Y-70000638D01*
X54799553Y-69969684D01*
X54799553Y-69969681D01*
X54800171Y-69968800D01*
X54810400Y-69944105D01*
X54810586Y-69943047D01*
X54810588Y-69943045D01*
X54817150Y-69905824D01*
X54819480Y-69895312D01*
X54829263Y-69858807D01*
X54825971Y-69821188D01*
X54825500Y-69810382D01*
X54825500Y-56568299D01*
X54838288Y-56513455D01*
X54874014Y-56469923D01*
X54928282Y-56428282D01*
X55024536Y-56302841D01*
X55085044Y-56156762D01*
X55105682Y-56000000D01*
X55085044Y-55843238D01*
X55024536Y-55697159D01*
X55003132Y-55669265D01*
X54928282Y-55571717D01*
X54802840Y-55475463D01*
X54656762Y-55414956D01*
X54500000Y-55394317D01*
X54343237Y-55414956D01*
X54197159Y-55475463D01*
X54071717Y-55571717D01*
X53975463Y-55697159D01*
X53914956Y-55843237D01*
X53894317Y-56000000D01*
X53914956Y-56156762D01*
X53975463Y-56302840D01*
X54011306Y-56349552D01*
X54071718Y-56428282D01*
X54125986Y-56469923D01*
X54161712Y-56513455D01*
X54174500Y-56568299D01*
X54174500Y-60548923D01*
X54157479Y-60611625D01*
X54111089Y-60657113D01*
X54048065Y-60672899D01*
X53985710Y-60654650D01*
X53941142Y-60607376D01*
X53931521Y-60589378D01*
X53905910Y-60541462D01*
X53780883Y-60389117D01*
X53628538Y-60264090D01*
X53606091Y-60252091D01*
X53454726Y-60171185D01*
X53266133Y-60113976D01*
X53070000Y-60094659D01*
X52873866Y-60113976D01*
X52685273Y-60171185D01*
X52507953Y-60265965D01*
X52446457Y-60280570D01*
X52385751Y-60262965D01*
X52341609Y-60217726D01*
X52325500Y-60156607D01*
X52325500Y-54379810D01*
X52338288Y-54324966D01*
X52374014Y-54281434D01*
X52428282Y-54239793D01*
X52524536Y-54114352D01*
X52585044Y-53968273D01*
X52605682Y-53811511D01*
X52585044Y-53654749D01*
X52524536Y-53508670D01*
X52508025Y-53487152D01*
X52428282Y-53383228D01*
X52388074Y-53352376D01*
X52350280Y-53304435D01*
X52339942Y-53244271D01*
X52359565Y-53186465D01*
X52404392Y-53145027D01*
X52463560Y-53130000D01*
X54997248Y-53130000D01*
X55044701Y-53139439D01*
X55093238Y-53159544D01*
X55249999Y-53180182D01*
X55249999Y-53180181D01*
X55250000Y-53180182D01*
X55406762Y-53159544D01*
X55552841Y-53099036D01*
X55678282Y-53002782D01*
X55774536Y-52877341D01*
X55835044Y-52731262D01*
X55855682Y-52574500D01*
X55835044Y-52417738D01*
X55811471Y-52360828D01*
X55805724Y-52346952D01*
X55796882Y-52287345D01*
X55817183Y-52230609D01*
X55861832Y-52190142D01*
X55920285Y-52175500D01*
X57163812Y-52175500D01*
X57211265Y-52184939D01*
X57251493Y-52211819D01*
X59418651Y-54378977D01*
X59425959Y-54386951D01*
X59450246Y-54415895D01*
X59473739Y-54429459D01*
X59482957Y-54434781D01*
X59492080Y-54440593D01*
X59500471Y-54446468D01*
X59523017Y-54462255D01*
X59523018Y-54462255D01*
X59523899Y-54462872D01*
X59548592Y-54473101D01*
X59549655Y-54473288D01*
X59549656Y-54473289D01*
X59586847Y-54479846D01*
X59597405Y-54482187D01*
X59633892Y-54491964D01*
X59633893Y-54491963D01*
X59633894Y-54491964D01*
X59671512Y-54488672D01*
X59682319Y-54488201D01*
X68386755Y-54488201D01*
X68397562Y-54488672D01*
X68435189Y-54491965D01*
X68471706Y-54482179D01*
X68482212Y-54479850D01*
X68519427Y-54473289D01*
X68519429Y-54473287D01*
X68520494Y-54473100D01*
X68545181Y-54462874D01*
X68546064Y-54462255D01*
X68546066Y-54462255D01*
X68577007Y-54440588D01*
X68586104Y-54434792D01*
X68618837Y-54415895D01*
X68643130Y-54386942D01*
X68650406Y-54379001D01*
X68967592Y-54061816D01*
X69007818Y-54034939D01*
X69055271Y-54025500D01*
X74013812Y-54025500D01*
X74061265Y-54034939D01*
X74101493Y-54061819D01*
X79367988Y-59328314D01*
X79397726Y-59376136D01*
X79403246Y-59432180D01*
X79394317Y-59499999D01*
X79414956Y-59656762D01*
X79475463Y-59802840D01*
X79516834Y-59856756D01*
X79541397Y-59916057D01*
X79533019Y-59979694D01*
X79493945Y-60030617D01*
X79440383Y-60071716D01*
X79344128Y-60197159D01*
X79283621Y-60343237D01*
X79262982Y-60500000D01*
X79263888Y-60506878D01*
X79255508Y-60570514D01*
X79216434Y-60621435D01*
X79157134Y-60645998D01*
X78987402Y-60668344D01*
X78841324Y-60728851D01*
X78715882Y-60825105D01*
X78619628Y-60950547D01*
X78559121Y-61096625D01*
X78538482Y-61253388D01*
X78561252Y-61426335D01*
X78561092Y-61426356D01*
X78567261Y-61473212D01*
X78542698Y-61532513D01*
X78491775Y-61571588D01*
X78382534Y-61616837D01*
X78257093Y-61713090D01*
X78160839Y-61838532D01*
X78100332Y-61984610D01*
X78079693Y-62141373D01*
X78093827Y-62248725D01*
X78085449Y-62312363D01*
X78046375Y-62363286D01*
X77987074Y-62387848D01*
X77981457Y-62388588D01*
X77976172Y-62389284D01*
X77830093Y-62449792D01*
X77704652Y-62546045D01*
X77608398Y-62671487D01*
X77547891Y-62817565D01*
X77527252Y-62974327D01*
X77550022Y-63147275D01*
X77548834Y-63147431D01*
X77554496Y-63190453D01*
X77529932Y-63249751D01*
X77479010Y-63288824D01*
X77366658Y-63335361D01*
X77241217Y-63431615D01*
X77144963Y-63557057D01*
X77084456Y-63703135D01*
X77063817Y-63859898D01*
X77084456Y-64016660D01*
X77151211Y-64177822D01*
X77151086Y-64177873D01*
X77167444Y-64215049D01*
X77163589Y-64273870D01*
X77133009Y-64324264D01*
X76883861Y-64573411D01*
X76875888Y-64580717D01*
X76846953Y-64604997D01*
X76828061Y-64637717D01*
X76822253Y-64646833D01*
X76799978Y-64678646D01*
X76789744Y-64703352D01*
X76782999Y-64741601D01*
X76780659Y-64752157D01*
X76770882Y-64788645D01*
X76774175Y-64826273D01*
X76774647Y-64837081D01*
X76774647Y-65519588D01*
X76760005Y-65578041D01*
X76719538Y-65622690D01*
X76662802Y-65642991D01*
X76603195Y-65634149D01*
X76554797Y-65598256D01*
X76530883Y-65569117D01*
X76378538Y-65444090D01*
X76356091Y-65432091D01*
X76204726Y-65351185D01*
X76016133Y-65293976D01*
X75820000Y-65274659D01*
X75623866Y-65293976D01*
X75435273Y-65351185D01*
X75261463Y-65444089D01*
X75109117Y-65569117D01*
X74984089Y-65721463D01*
X74891185Y-65895273D01*
X74833976Y-66083866D01*
X74819132Y-66234580D01*
X74814659Y-66280000D01*
X74823190Y-66366614D01*
X74833976Y-66476133D01*
X74891185Y-66664726D01*
X74938451Y-66753154D01*
X74984090Y-66838538D01*
X75109117Y-66990883D01*
X75261462Y-67115910D01*
X75435273Y-67208814D01*
X75623868Y-67266024D01*
X75820000Y-67285341D01*
X76016132Y-67266024D01*
X76204727Y-67208814D01*
X76378538Y-67115910D01*
X76530883Y-66990883D01*
X76554797Y-66961743D01*
X76603195Y-66925851D01*
X76662802Y-66917009D01*
X76719538Y-66937310D01*
X76760005Y-66981959D01*
X76774647Y-67040412D01*
X76774647Y-73530417D01*
X76774175Y-73541225D01*
X76770882Y-73578852D01*
X76780659Y-73615341D01*
X76783000Y-73625897D01*
X76789746Y-73664152D01*
X76799976Y-73688848D01*
X76800593Y-73689729D01*
X76822259Y-73720672D01*
X76828062Y-73729781D01*
X76846953Y-73762500D01*
X76875889Y-73786780D01*
X76883865Y-73794089D01*
X78638181Y-75548405D01*
X78665061Y-75588633D01*
X78674500Y-75636086D01*
X78674500Y-76848811D01*
X78665061Y-76896264D01*
X78638181Y-76936492D01*
X72718953Y-82855719D01*
X72664571Y-82887483D01*
X72601599Y-82888435D01*
X72545058Y-82874500D01*
X72545056Y-82874500D01*
X72374944Y-82874500D01*
X72342941Y-82882388D01*
X72209775Y-82915209D01*
X72059149Y-82994265D01*
X71931814Y-83107073D01*
X71927049Y-83113978D01*
X71882625Y-83153334D01*
X71825000Y-83167537D01*
X71767375Y-83153334D01*
X71722951Y-83113978D01*
X71718185Y-83107073D01*
X71659690Y-83055251D01*
X71590852Y-82994266D01*
X71581871Y-82989552D01*
X71533383Y-82943907D01*
X71515500Y-82879758D01*
X71515500Y-69289627D01*
X71515972Y-69278819D01*
X71519264Y-69241192D01*
X71509487Y-69204706D01*
X71507145Y-69194143D01*
X71502068Y-69165350D01*
X71500588Y-69156955D01*
X71500587Y-69156954D01*
X71500400Y-69155891D01*
X71490171Y-69131198D01*
X71489554Y-69130317D01*
X71489554Y-69130316D01*
X71473118Y-69106843D01*
X71467892Y-69099379D01*
X71462080Y-69090256D01*
X71443194Y-69057544D01*
X71414255Y-69033262D01*
X71406280Y-69025954D01*
X69161873Y-66781547D01*
X69129270Y-66723995D01*
X69130894Y-66657870D01*
X69138655Y-66632285D01*
X69186024Y-66476132D01*
X69205341Y-66280000D01*
X69186024Y-66083868D01*
X69128814Y-65895273D01*
X69035910Y-65721462D01*
X68910883Y-65569117D01*
X68758538Y-65444090D01*
X68736091Y-65432091D01*
X68584726Y-65351185D01*
X68396133Y-65293976D01*
X68200000Y-65274659D01*
X68003866Y-65293976D01*
X67815273Y-65351185D01*
X67641463Y-65444089D01*
X67489117Y-65569117D01*
X67364090Y-65721461D01*
X67355021Y-65738429D01*
X67317063Y-65781356D01*
X67263857Y-65802633D01*
X67206766Y-65797716D01*
X67157982Y-65767656D01*
X65531873Y-64141547D01*
X65499270Y-64083995D01*
X65500894Y-64017870D01*
X65509348Y-63990000D01*
X67178590Y-63990000D01*
X67225233Y-64143764D01*
X67322731Y-64326171D01*
X67453945Y-64486054D01*
X67613828Y-64617268D01*
X67796235Y-64714766D01*
X67950000Y-64761410D01*
X67950000Y-63990000D01*
X68450000Y-63990000D01*
X68450000Y-64761410D01*
X68603764Y-64714766D01*
X68786171Y-64617268D01*
X68946054Y-64486054D01*
X69077268Y-64326171D01*
X69174766Y-64143764D01*
X69221410Y-63990000D01*
X68450000Y-63990000D01*
X67950000Y-63990000D01*
X67178590Y-63990000D01*
X65509348Y-63990000D01*
X65540920Y-63885922D01*
X65556024Y-63836132D01*
X65565492Y-63740000D01*
X74814659Y-63740000D01*
X74824127Y-63836130D01*
X74833976Y-63936133D01*
X74891185Y-64124726D01*
X74950109Y-64234964D01*
X74984090Y-64298538D01*
X75109117Y-64450883D01*
X75261462Y-64575910D01*
X75435273Y-64668814D01*
X75623868Y-64726024D01*
X75820000Y-64745341D01*
X76016132Y-64726024D01*
X76204727Y-64668814D01*
X76378538Y-64575910D01*
X76530883Y-64450883D01*
X76655910Y-64298538D01*
X76748814Y-64124727D01*
X76806024Y-63936132D01*
X76825341Y-63740000D01*
X76806024Y-63543868D01*
X76748814Y-63355273D01*
X76655910Y-63181462D01*
X76530883Y-63029117D01*
X76378538Y-62904090D01*
X76356091Y-62892091D01*
X76204726Y-62811185D01*
X76016133Y-62753976D01*
X75820000Y-62734659D01*
X75623866Y-62753976D01*
X75435273Y-62811185D01*
X75261463Y-62904089D01*
X75109117Y-63029117D01*
X74984089Y-63181463D01*
X74891185Y-63355273D01*
X74833976Y-63543866D01*
X74833975Y-63543868D01*
X74833976Y-63543868D01*
X74814659Y-63740000D01*
X65565492Y-63740000D01*
X65575341Y-63640000D01*
X65560568Y-63490000D01*
X67178590Y-63490000D01*
X67950000Y-63490000D01*
X67950000Y-62718590D01*
X68450000Y-62718590D01*
X68450000Y-63490000D01*
X69221410Y-63490000D01*
X69174766Y-63336235D01*
X69077268Y-63153828D01*
X68946054Y-62993945D01*
X68786171Y-62862731D01*
X68603764Y-62765233D01*
X68450000Y-62718590D01*
X67950000Y-62718590D01*
X67796235Y-62765233D01*
X67613828Y-62862731D01*
X67453945Y-62993945D01*
X67322731Y-63153828D01*
X67225233Y-63336235D01*
X67178590Y-63490000D01*
X65560568Y-63490000D01*
X65556024Y-63443868D01*
X65498814Y-63255273D01*
X65405910Y-63081462D01*
X65280883Y-62929117D01*
X65128538Y-62804090D01*
X65044263Y-62759044D01*
X64954726Y-62711185D01*
X64766133Y-62653976D01*
X64570000Y-62634659D01*
X64373866Y-62653976D01*
X64185273Y-62711185D01*
X64011463Y-62804089D01*
X63859117Y-62929117D01*
X63734089Y-63081463D01*
X63641185Y-63255273D01*
X63583976Y-63443866D01*
X63564659Y-63639999D01*
X63583976Y-63836133D01*
X63641185Y-64024726D01*
X63694637Y-64124727D01*
X63734090Y-64198538D01*
X63859117Y-64350883D01*
X64011462Y-64475910D01*
X64185273Y-64568814D01*
X64373868Y-64626024D01*
X64570000Y-64645341D01*
X64766132Y-64626024D01*
X64947870Y-64570893D01*
X65013995Y-64569270D01*
X65071547Y-64601873D01*
X66713181Y-66243507D01*
X66740061Y-66283735D01*
X66749500Y-66331188D01*
X66749500Y-67611385D01*
X66732887Y-67673385D01*
X66687500Y-67718772D01*
X66625500Y-67735385D01*
X66563500Y-67718772D01*
X66518113Y-67673385D01*
X66503194Y-67647544D01*
X66474255Y-67623262D01*
X66466280Y-67615954D01*
X65531873Y-66681547D01*
X65499270Y-66623995D01*
X65500894Y-66557870D01*
X65556024Y-66376132D01*
X65575341Y-66180000D01*
X65556024Y-65983868D01*
X65498814Y-65795273D01*
X65405910Y-65621462D01*
X65280883Y-65469117D01*
X65128538Y-65344090D01*
X65077658Y-65316894D01*
X64954726Y-65251185D01*
X64766133Y-65193976D01*
X64570000Y-65174659D01*
X64373866Y-65193976D01*
X64185273Y-65251185D01*
X64011463Y-65344089D01*
X63859117Y-65469117D01*
X63734089Y-65621463D01*
X63641185Y-65795273D01*
X63583976Y-65983866D01*
X63564659Y-66180000D01*
X63583976Y-66376133D01*
X63641185Y-66564726D01*
X63694637Y-66664727D01*
X63734090Y-66738538D01*
X63859117Y-66890883D01*
X64011462Y-67015910D01*
X64185273Y-67108814D01*
X64373868Y-67166024D01*
X64570000Y-67185341D01*
X64766132Y-67166024D01*
X64947870Y-67110893D01*
X65013995Y-67109270D01*
X65071547Y-67141873D01*
X65888181Y-67958507D01*
X65915061Y-67998735D01*
X65924500Y-68046188D01*
X65924500Y-68931701D01*
X65911712Y-68986545D01*
X65875986Y-69030077D01*
X65821719Y-69071716D01*
X65719121Y-69205425D01*
X65713534Y-69209568D01*
X65710070Y-69234321D01*
X65664956Y-69343239D01*
X65644317Y-69500000D01*
X65664956Y-69656762D01*
X65725463Y-69802840D01*
X65821717Y-69928282D01*
X65921768Y-70005053D01*
X65947159Y-70024536D01*
X66093238Y-70085044D01*
X66229361Y-70102964D01*
X66249999Y-70105682D01*
X66249999Y-70105681D01*
X66250000Y-70105682D01*
X66335641Y-70094407D01*
X66391681Y-70099925D01*
X66439502Y-70129660D01*
X66469242Y-70177477D01*
X66472302Y-70208515D01*
X66473824Y-70208315D01*
X66496593Y-70381262D01*
X66557100Y-70527340D01*
X66653354Y-70652782D01*
X66716796Y-70701462D01*
X66778796Y-70749036D01*
X66924875Y-70809544D01*
X67081637Y-70830182D01*
X67238399Y-70809544D01*
X67384478Y-70749036D01*
X67509919Y-70652782D01*
X67606173Y-70527341D01*
X67666681Y-70381262D01*
X67687319Y-70224500D01*
X67666681Y-70067738D01*
X67606173Y-69921659D01*
X67529081Y-69821190D01*
X67509919Y-69796217D01*
X67449014Y-69749484D01*
X67413288Y-69705952D01*
X67400500Y-69651108D01*
X67400500Y-67180333D01*
X67419738Y-67113993D01*
X67471483Y-67068238D01*
X67539679Y-67057266D01*
X67603164Y-67084479D01*
X67641462Y-67115910D01*
X67815273Y-67208814D01*
X68003868Y-67266024D01*
X68200000Y-67285341D01*
X68396132Y-67266024D01*
X68577870Y-67210893D01*
X68643995Y-67209270D01*
X68701547Y-67241873D01*
X70828181Y-69368507D01*
X70855061Y-69408735D01*
X70864500Y-69456188D01*
X70864500Y-82879758D01*
X70846617Y-82943907D01*
X70798128Y-82989552D01*
X70793658Y-82991898D01*
X70789145Y-82994267D01*
X70781222Y-83001287D01*
X70718270Y-83030961D01*
X70649247Y-83022050D01*
X70595897Y-82977359D01*
X70591393Y-82970619D01*
X70564552Y-82930448D01*
X70541747Y-82915210D01*
X70498230Y-82886132D01*
X70439749Y-82874500D01*
X70439748Y-82874500D01*
X69400252Y-82874500D01*
X69400251Y-82874500D01*
X69341769Y-82886132D01*
X69263998Y-82938098D01*
X69242056Y-82958987D01*
X69190463Y-82976028D01*
X69136537Y-82969376D01*
X69090632Y-82940306D01*
X65531873Y-79381547D01*
X65499270Y-79323995D01*
X65500894Y-79257870D01*
X65539683Y-79130000D01*
X65556024Y-79076132D01*
X65575341Y-78880000D01*
X65556024Y-78683868D01*
X65498814Y-78495273D01*
X65405910Y-78321462D01*
X65280883Y-78169117D01*
X65128538Y-78044090D01*
X65051161Y-78002731D01*
X64954726Y-77951185D01*
X64766133Y-77893976D01*
X64570000Y-77874659D01*
X64373866Y-77893976D01*
X64185273Y-77951185D01*
X64011463Y-78044089D01*
X63859117Y-78169117D01*
X63734089Y-78321463D01*
X63641185Y-78495273D01*
X63583976Y-78683866D01*
X63564659Y-78880000D01*
X63583976Y-79076133D01*
X63641185Y-79264726D01*
X63672865Y-79323995D01*
X63734090Y-79438538D01*
X63859117Y-79590883D01*
X64011462Y-79715910D01*
X64185273Y-79808814D01*
X64373868Y-79866024D01*
X64570000Y-79885341D01*
X64766132Y-79866024D01*
X64947870Y-79810893D01*
X65013995Y-79809270D01*
X65071547Y-79841873D01*
X69020950Y-83791276D01*
X69028258Y-83799250D01*
X69052545Y-83828194D01*
X69076594Y-83842079D01*
X69085256Y-83847080D01*
X69094379Y-83852892D01*
X69125316Y-83874554D01*
X69125317Y-83874554D01*
X69126198Y-83875171D01*
X69153499Y-83886480D01*
X69157500Y-83888790D01*
X69202887Y-83934177D01*
X69219500Y-83996177D01*
X69219500Y-84094747D01*
X69220805Y-84101307D01*
X69219472Y-84155628D01*
X69195042Y-84204164D01*
X69152205Y-84237594D01*
X69099188Y-84249500D01*
X46110198Y-84249500D01*
X46062745Y-84240061D01*
X46022517Y-84213181D01*
X43985691Y-82176355D01*
X41936578Y-80127243D01*
X41903273Y-80066731D01*
X41907509Y-79997788D01*
X41947972Y-79941807D01*
X42012108Y-79916160D01*
X42025834Y-79914808D01*
X42223764Y-79854766D01*
X42406171Y-79757268D01*
X42566054Y-79626054D01*
X42697268Y-79466171D01*
X42794766Y-79283764D01*
X42841410Y-79130000D01*
X41694000Y-79130000D01*
X41632000Y-79113387D01*
X41586613Y-79068000D01*
X41570000Y-79006000D01*
X41570000Y-77858590D01*
X41416235Y-77905233D01*
X41233828Y-78002731D01*
X41223165Y-78011483D01*
X41159679Y-78038697D01*
X41091483Y-78027725D01*
X41039738Y-77981970D01*
X41020500Y-77915630D01*
X41020500Y-77240333D01*
X41039738Y-77173993D01*
X41091483Y-77128238D01*
X41159679Y-77117266D01*
X41223164Y-77144479D01*
X41261462Y-77175910D01*
X41435273Y-77268814D01*
X41623868Y-77326024D01*
X41820000Y-77345341D01*
X41820003Y-77345340D01*
X41824678Y-77345801D01*
X41865542Y-77357109D01*
X41900206Y-77381523D01*
X42161026Y-77642343D01*
X42193327Y-77698715D01*
X42192690Y-77763682D01*
X42159288Y-77819409D01*
X42102293Y-77850598D01*
X42081595Y-77849988D01*
X42070000Y-77858589D01*
X42070000Y-78630000D01*
X42841412Y-78630000D01*
X42850010Y-78618405D01*
X42849401Y-78597708D01*
X42880589Y-78540712D01*
X42936316Y-78507310D01*
X43001284Y-78506672D01*
X43057656Y-78538973D01*
X47390097Y-82871414D01*
X47416977Y-82911642D01*
X47475464Y-83052841D01*
X47571717Y-83178282D01*
X47696354Y-83273918D01*
X47697159Y-83274536D01*
X47843238Y-83335044D01*
X48000000Y-83355682D01*
X48156762Y-83335044D01*
X48302841Y-83274536D01*
X48428282Y-83178282D01*
X48524536Y-83052841D01*
X48585044Y-82906762D01*
X48605682Y-82750000D01*
X48585044Y-82593238D01*
X48524536Y-82447159D01*
X48524535Y-82447158D01*
X48428282Y-82321717D01*
X48302840Y-82225463D01*
X48156762Y-82164956D01*
X48000000Y-82144317D01*
X47843237Y-82164956D01*
X47750823Y-82203235D01*
X47703371Y-82212674D01*
X47655918Y-82203235D01*
X47615690Y-82176355D01*
X46439334Y-80999999D01*
X54394317Y-80999999D01*
X54414956Y-81156762D01*
X54475463Y-81302840D01*
X54571717Y-81428282D01*
X54697158Y-81524535D01*
X54697159Y-81524536D01*
X54843238Y-81585044D01*
X55000000Y-81605682D01*
X55156762Y-81585044D01*
X55302841Y-81524536D01*
X55428282Y-81428282D01*
X55524536Y-81302841D01*
X55585044Y-81156762D01*
X55605682Y-81000000D01*
X55585044Y-80843238D01*
X55524536Y-80697159D01*
X55428282Y-80571718D01*
X55374013Y-80530076D01*
X55338288Y-80486545D01*
X55325500Y-80431701D01*
X55325500Y-79130000D01*
X55928590Y-79130000D01*
X55975233Y-79283764D01*
X56072731Y-79466171D01*
X56203945Y-79626054D01*
X56363828Y-79757268D01*
X56546235Y-79854766D01*
X56700000Y-79901410D01*
X56700000Y-79130000D01*
X57200000Y-79130000D01*
X57200000Y-79901410D01*
X57353764Y-79854766D01*
X57536171Y-79757268D01*
X57696054Y-79626054D01*
X57827268Y-79466171D01*
X57924766Y-79283764D01*
X57971410Y-79130000D01*
X57200000Y-79130000D01*
X56700000Y-79130000D01*
X55928590Y-79130000D01*
X55325500Y-79130000D01*
X55325500Y-78630000D01*
X55928590Y-78630000D01*
X56700000Y-78630000D01*
X56700000Y-77858590D01*
X57200000Y-77858590D01*
X57200000Y-78630000D01*
X57971410Y-78630000D01*
X57924766Y-78476235D01*
X57827268Y-78293828D01*
X57696054Y-78133945D01*
X57536171Y-78002731D01*
X57353764Y-77905233D01*
X57200000Y-77858590D01*
X56700000Y-77858590D01*
X56546235Y-77905233D01*
X56363828Y-78002731D01*
X56203945Y-78133945D01*
X56072731Y-78293828D01*
X55975233Y-78476235D01*
X55928590Y-78630000D01*
X55325500Y-78630000D01*
X55325500Y-76590000D01*
X55928590Y-76590000D01*
X55975233Y-76743764D01*
X56072731Y-76926171D01*
X56203945Y-77086054D01*
X56363828Y-77217268D01*
X56546235Y-77314766D01*
X56700000Y-77361410D01*
X56700000Y-76590000D01*
X57200000Y-76590000D01*
X57200000Y-77361410D01*
X57353764Y-77314766D01*
X57536171Y-77217268D01*
X57696054Y-77086054D01*
X57827268Y-76926171D01*
X57924766Y-76743764D01*
X57971410Y-76590000D01*
X57200000Y-76590000D01*
X56700000Y-76590000D01*
X55928590Y-76590000D01*
X55325500Y-76590000D01*
X55325500Y-76090000D01*
X55928590Y-76090000D01*
X56700000Y-76090000D01*
X56700000Y-75318590D01*
X57200000Y-75318590D01*
X57200000Y-76090000D01*
X57971411Y-76090000D01*
X57966874Y-76075044D01*
X57964329Y-76012870D01*
X57975713Y-75990253D01*
X57974707Y-75990001D01*
X57927349Y-75941067D01*
X57827268Y-75753828D01*
X57696054Y-75593945D01*
X57536171Y-75462731D01*
X57353764Y-75365233D01*
X57200000Y-75318590D01*
X56700000Y-75318590D01*
X56546235Y-75365233D01*
X56363828Y-75462731D01*
X56203945Y-75593945D01*
X56072731Y-75753828D01*
X55975233Y-75936235D01*
X55928590Y-76090000D01*
X55325500Y-76090000D01*
X55325500Y-70856188D01*
X55334939Y-70808735D01*
X55361819Y-70768507D01*
X55875667Y-70254659D01*
X56448454Y-69681871D01*
X56506004Y-69649270D01*
X56572126Y-69650892D01*
X56753868Y-69706024D01*
X56950000Y-69725341D01*
X57146132Y-69706024D01*
X57334727Y-69648814D01*
X57508538Y-69555910D01*
X57660883Y-69430883D01*
X57785910Y-69278538D01*
X57878814Y-69104727D01*
X57903857Y-69022171D01*
X57931840Y-68929926D01*
X57969969Y-68871631D01*
X58033511Y-68843091D01*
X58102414Y-68853312D01*
X58154935Y-68899069D01*
X58174500Y-68965922D01*
X58174500Y-71014078D01*
X58154935Y-71080931D01*
X58102414Y-71126688D01*
X58033511Y-71136909D01*
X57969969Y-71108369D01*
X57931840Y-71050074D01*
X57878814Y-70875273D01*
X57843681Y-70809544D01*
X57785910Y-70701462D01*
X57660883Y-70549117D01*
X57508538Y-70424090D01*
X57403218Y-70367795D01*
X57334726Y-70331185D01*
X57146133Y-70273976D01*
X56950000Y-70254659D01*
X56753866Y-70273976D01*
X56565273Y-70331185D01*
X56391463Y-70424089D01*
X56239117Y-70549117D01*
X56114089Y-70701463D01*
X56021185Y-70875273D01*
X55963976Y-71063866D01*
X55944659Y-71260000D01*
X55963976Y-71456133D01*
X56021185Y-71644726D01*
X56070264Y-71736545D01*
X56114090Y-71818538D01*
X56239117Y-71970883D01*
X56391462Y-72095910D01*
X56565273Y-72188814D01*
X56753868Y-72246024D01*
X56950000Y-72265341D01*
X56964198Y-72263942D01*
X57018125Y-72270593D01*
X57064033Y-72299664D01*
X57416503Y-72652134D01*
X57448804Y-72708506D01*
X57448166Y-72773474D01*
X57414765Y-72829201D01*
X57357769Y-72860389D01*
X57292828Y-72858476D01*
X57146132Y-72813976D01*
X57146129Y-72813975D01*
X56974054Y-72797028D01*
X56950000Y-72794659D01*
X56949999Y-72794659D01*
X56753866Y-72813976D01*
X56565273Y-72871185D01*
X56391463Y-72964089D01*
X56239117Y-73089117D01*
X56114089Y-73241463D01*
X56021185Y-73415273D01*
X55963976Y-73603866D01*
X55944659Y-73800000D01*
X55963976Y-73996133D01*
X56021185Y-74184726D01*
X56062795Y-74262572D01*
X56114090Y-74358538D01*
X56239117Y-74510883D01*
X56391462Y-74635910D01*
X56565273Y-74728814D01*
X56753868Y-74786024D01*
X56950000Y-74805341D01*
X57146132Y-74786024D01*
X57334727Y-74728814D01*
X57508538Y-74635910D01*
X57660883Y-74510883D01*
X57785910Y-74358538D01*
X57878814Y-74184727D01*
X57936024Y-73996132D01*
X57955341Y-73800000D01*
X57936024Y-73603868D01*
X57891523Y-73457171D01*
X57889610Y-73392232D01*
X57920798Y-73335236D01*
X57976525Y-73301834D01*
X58041493Y-73301196D01*
X58097865Y-73333497D01*
X58388181Y-73623813D01*
X58415061Y-73664041D01*
X58424500Y-73711494D01*
X58424500Y-75181701D01*
X58411712Y-75236545D01*
X58375986Y-75280077D01*
X58321717Y-75321718D01*
X58225463Y-75447159D01*
X58164956Y-75593237D01*
X58144317Y-75750000D01*
X58159646Y-75866429D01*
X58149654Y-75933790D01*
X58148184Y-75935521D01*
X58162620Y-75941920D01*
X58200095Y-75991595D01*
X58225464Y-76052841D01*
X58321717Y-76178282D01*
X58447158Y-76274535D01*
X58447159Y-76274536D01*
X58593238Y-76335044D01*
X58750000Y-76355682D01*
X58906762Y-76335044D01*
X58950382Y-76316976D01*
X58978048Y-76305517D01*
X59037655Y-76296675D01*
X59094391Y-76316976D01*
X59134858Y-76361625D01*
X59149500Y-76420078D01*
X59149500Y-77558798D01*
X59140061Y-77606251D01*
X59113181Y-77646480D01*
X59072952Y-77673358D01*
X59047777Y-77683786D01*
X58947159Y-77725463D01*
X58821717Y-77821717D01*
X58725463Y-77947159D01*
X58664956Y-78093237D01*
X58644317Y-78250000D01*
X58664956Y-78406762D01*
X58725463Y-78552840D01*
X58821717Y-78678282D01*
X58932672Y-78763420D01*
X58947159Y-78774536D01*
X59093238Y-78835044D01*
X59250000Y-78855682D01*
X59406762Y-78835044D01*
X59552841Y-78774536D01*
X59678282Y-78678282D01*
X59774536Y-78552841D01*
X59835044Y-78406762D01*
X59855682Y-78250000D01*
X59835044Y-78093238D01*
X59809938Y-78032629D01*
X59800500Y-77985177D01*
X59800500Y-76340000D01*
X63564659Y-76340000D01*
X63583976Y-76536133D01*
X63641185Y-76724726D01*
X63707510Y-76848811D01*
X63734090Y-76898538D01*
X63859117Y-77050883D01*
X64011462Y-77175910D01*
X64185273Y-77268814D01*
X64373868Y-77326024D01*
X64570000Y-77345341D01*
X64766132Y-77326024D01*
X64954727Y-77268814D01*
X65128538Y-77175910D01*
X65280883Y-77050883D01*
X65405910Y-76898538D01*
X65498814Y-76724727D01*
X65556024Y-76536132D01*
X65575341Y-76340000D01*
X65556024Y-76143868D01*
X65498814Y-75955273D01*
X65405910Y-75781462D01*
X65280883Y-75629117D01*
X65128538Y-75504090D01*
X65012320Y-75441970D01*
X64954726Y-75411185D01*
X64766133Y-75353976D01*
X64570000Y-75334659D01*
X64373866Y-75353976D01*
X64185273Y-75411185D01*
X64011463Y-75504089D01*
X63859117Y-75629117D01*
X63734089Y-75781463D01*
X63641185Y-75955273D01*
X63583976Y-76143866D01*
X63564659Y-76340000D01*
X59800500Y-76340000D01*
X59800500Y-73799999D01*
X63564659Y-73799999D01*
X63583976Y-73996133D01*
X63641185Y-74184726D01*
X63682795Y-74262572D01*
X63734090Y-74358538D01*
X63859117Y-74510883D01*
X64011462Y-74635910D01*
X64185273Y-74728814D01*
X64373868Y-74786024D01*
X64570000Y-74805341D01*
X64766132Y-74786024D01*
X64954727Y-74728814D01*
X65128538Y-74635910D01*
X65280883Y-74510883D01*
X65405910Y-74358538D01*
X65498814Y-74184727D01*
X65556024Y-73996132D01*
X65575341Y-73800000D01*
X65556024Y-73603868D01*
X65498814Y-73415273D01*
X65405910Y-73241462D01*
X65280883Y-73089117D01*
X65128538Y-72964090D01*
X65044263Y-72919044D01*
X64954726Y-72871185D01*
X64766133Y-72813976D01*
X64665482Y-72804063D01*
X64570000Y-72794659D01*
X64569999Y-72794659D01*
X64373866Y-72813976D01*
X64185273Y-72871185D01*
X64011463Y-72964089D01*
X63859117Y-73089117D01*
X63734089Y-73241463D01*
X63641185Y-73415273D01*
X63583976Y-73603866D01*
X63564659Y-73799999D01*
X59800500Y-73799999D01*
X59800500Y-71260000D01*
X63564659Y-71260000D01*
X63583976Y-71456133D01*
X63641185Y-71644726D01*
X63690264Y-71736545D01*
X63734090Y-71818538D01*
X63859117Y-71970883D01*
X64011462Y-72095910D01*
X64185273Y-72188814D01*
X64373868Y-72246024D01*
X64570000Y-72265341D01*
X64766132Y-72246024D01*
X64954727Y-72188814D01*
X65128538Y-72095910D01*
X65280883Y-71970883D01*
X65405910Y-71818538D01*
X65498814Y-71644727D01*
X65556024Y-71456132D01*
X65575341Y-71260000D01*
X65556024Y-71063868D01*
X65498814Y-70875273D01*
X65405910Y-70701462D01*
X65280883Y-70549117D01*
X65128538Y-70424090D01*
X65023218Y-70367795D01*
X64954726Y-70331185D01*
X64766133Y-70273976D01*
X64570000Y-70254659D01*
X64373866Y-70273976D01*
X64185273Y-70331185D01*
X64011463Y-70424089D01*
X63859117Y-70549117D01*
X63734089Y-70701463D01*
X63641185Y-70875273D01*
X63583976Y-71063866D01*
X63564659Y-71260000D01*
X59800500Y-71260000D01*
X59800500Y-68720000D01*
X63564659Y-68720000D01*
X63583976Y-68916133D01*
X63641185Y-69104726D01*
X63696587Y-69208375D01*
X63734090Y-69278538D01*
X63859117Y-69430883D01*
X64011462Y-69555910D01*
X64185273Y-69648814D01*
X64373868Y-69706024D01*
X64570000Y-69725341D01*
X64766132Y-69706024D01*
X64954727Y-69648814D01*
X65128538Y-69555910D01*
X65280883Y-69430883D01*
X65405910Y-69278538D01*
X65486153Y-69128413D01*
X65501798Y-69111432D01*
X65502084Y-69093944D01*
X65556024Y-68916132D01*
X65575341Y-68720000D01*
X65556024Y-68523868D01*
X65498814Y-68335273D01*
X65405910Y-68161462D01*
X65280883Y-68009117D01*
X65128538Y-67884090D01*
X65029575Y-67831193D01*
X64954726Y-67791185D01*
X64766133Y-67733976D01*
X64570000Y-67714659D01*
X64373866Y-67733976D01*
X64185273Y-67791185D01*
X64011463Y-67884089D01*
X63859117Y-68009117D01*
X63734089Y-68161463D01*
X63641185Y-68335273D01*
X63583976Y-68523866D01*
X63564659Y-68720000D01*
X59800500Y-68720000D01*
X59800500Y-61394627D01*
X59800972Y-61383819D01*
X59804264Y-61346192D01*
X59794487Y-61309706D01*
X59792145Y-61299143D01*
X59785400Y-61260891D01*
X59775171Y-61236198D01*
X59774554Y-61235317D01*
X59774554Y-61235316D01*
X59752892Y-61204379D01*
X59747080Y-61195256D01*
X59728194Y-61162544D01*
X59699255Y-61138262D01*
X59691280Y-61130954D01*
X59660325Y-61099999D01*
X63564659Y-61099999D01*
X63583976Y-61296133D01*
X63641185Y-61484726D01*
X63704340Y-61602880D01*
X63734090Y-61658538D01*
X63859117Y-61810883D01*
X64011462Y-61935910D01*
X64185273Y-62028814D01*
X64373868Y-62086024D01*
X64570000Y-62105341D01*
X64766132Y-62086024D01*
X64954727Y-62028814D01*
X65128538Y-61935910D01*
X65280883Y-61810883D01*
X65405910Y-61658538D01*
X65476165Y-61527101D01*
X65495437Y-61491046D01*
X65541046Y-61443142D01*
X65604795Y-61425500D01*
X67075500Y-61425500D01*
X67137500Y-61442113D01*
X67182887Y-61487500D01*
X67199500Y-61549500D01*
X67199500Y-62019749D01*
X67211132Y-62078230D01*
X67255447Y-62144552D01*
X67321769Y-62188867D01*
X67380251Y-62200500D01*
X67380252Y-62200500D01*
X69019748Y-62200500D01*
X69019749Y-62200500D01*
X69048989Y-62194683D01*
X69078231Y-62188867D01*
X69144552Y-62144552D01*
X69188867Y-62078231D01*
X69200500Y-62019748D01*
X69200500Y-61200000D01*
X74814659Y-61200000D01*
X74833976Y-61396133D01*
X74891185Y-61584726D01*
X74959798Y-61713091D01*
X74984090Y-61758538D01*
X75109117Y-61910883D01*
X75261462Y-62035910D01*
X75435273Y-62128814D01*
X75623868Y-62186024D01*
X75820000Y-62205341D01*
X76016132Y-62186024D01*
X76204727Y-62128814D01*
X76378538Y-62035910D01*
X76530883Y-61910883D01*
X76655910Y-61758538D01*
X76748814Y-61584727D01*
X76806024Y-61396132D01*
X76825341Y-61200000D01*
X76806024Y-61003868D01*
X76748814Y-60815273D01*
X76655910Y-60641462D01*
X76530883Y-60489117D01*
X76378538Y-60364090D01*
X76299142Y-60321652D01*
X76204726Y-60271185D01*
X76016133Y-60213976D01*
X75820000Y-60194659D01*
X75623866Y-60213976D01*
X75435273Y-60271185D01*
X75261463Y-60364089D01*
X75109117Y-60489117D01*
X74984089Y-60641463D01*
X74891185Y-60815273D01*
X74833976Y-61003866D01*
X74814659Y-61200000D01*
X69200500Y-61200000D01*
X69200500Y-60380252D01*
X69193137Y-60343238D01*
X69188867Y-60321769D01*
X69144552Y-60255447D01*
X69078230Y-60211132D01*
X69019749Y-60199500D01*
X69019748Y-60199500D01*
X67380252Y-60199500D01*
X67380251Y-60199500D01*
X67321769Y-60211132D01*
X67255447Y-60255447D01*
X67211132Y-60321769D01*
X67199500Y-60380251D01*
X67199500Y-60650500D01*
X67182887Y-60712500D01*
X67137500Y-60757887D01*
X67075500Y-60774500D01*
X65604795Y-60774500D01*
X65541046Y-60756858D01*
X65495437Y-60708954D01*
X65431966Y-60590209D01*
X65405910Y-60541462D01*
X65280883Y-60389117D01*
X65128538Y-60264090D01*
X65106091Y-60252091D01*
X64954726Y-60171185D01*
X64766133Y-60113976D01*
X64570000Y-60094659D01*
X64373866Y-60113976D01*
X64185273Y-60171185D01*
X64011463Y-60264089D01*
X63859117Y-60389117D01*
X63734089Y-60541463D01*
X63641185Y-60715273D01*
X63583976Y-60903866D01*
X63564659Y-61099999D01*
X59660325Y-61099999D01*
X58094043Y-59533717D01*
X58086734Y-59525741D01*
X58062454Y-59496805D01*
X58029736Y-59477915D01*
X58020627Y-59472112D01*
X57989684Y-59450446D01*
X57988803Y-59449829D01*
X57964107Y-59439599D01*
X57925852Y-59432853D01*
X57915296Y-59430512D01*
X57878807Y-59420735D01*
X57841180Y-59424028D01*
X57830372Y-59424500D01*
X56069628Y-59424500D01*
X56058820Y-59424028D01*
X56021192Y-59420735D01*
X55984704Y-59430512D01*
X55974148Y-59432852D01*
X55935899Y-59439597D01*
X55911193Y-59449831D01*
X55879380Y-59472106D01*
X55870264Y-59477914D01*
X55837545Y-59496805D01*
X55813262Y-59525744D01*
X55805956Y-59533716D01*
X55608714Y-59730958D01*
X55600741Y-59738264D01*
X55571806Y-59762544D01*
X55552914Y-59795264D01*
X55547106Y-59804380D01*
X55524831Y-59836193D01*
X55514597Y-59860899D01*
X55507852Y-59899148D01*
X55505512Y-59909704D01*
X55495735Y-59946192D01*
X55499028Y-59983820D01*
X55499500Y-59994628D01*
X55499500Y-62495372D01*
X55499028Y-62506180D01*
X55495735Y-62543807D01*
X55505512Y-62580296D01*
X55507853Y-62590852D01*
X55514599Y-62629107D01*
X55524829Y-62653803D01*
X55525446Y-62654684D01*
X55547112Y-62685627D01*
X55552915Y-62694736D01*
X55571806Y-62727455D01*
X55600742Y-62751735D01*
X55608718Y-62759044D01*
X55988126Y-63138452D01*
X56020729Y-63196003D01*
X56019106Y-63262128D01*
X55963975Y-63443869D01*
X55944659Y-63639999D01*
X55963976Y-63836133D01*
X56021185Y-64024726D01*
X56074637Y-64124727D01*
X56114090Y-64198538D01*
X56239117Y-64350883D01*
X56391462Y-64475910D01*
X56565273Y-64568814D01*
X56753868Y-64626024D01*
X56950000Y-64645341D01*
X57146132Y-64626024D01*
X57334727Y-64568814D01*
X57508538Y-64475910D01*
X57660883Y-64350883D01*
X57785910Y-64198538D01*
X57878814Y-64024727D01*
X57910925Y-63918872D01*
X57931840Y-63849926D01*
X57969969Y-63791631D01*
X58033511Y-63763091D01*
X58102414Y-63773312D01*
X58154935Y-63819069D01*
X58174500Y-63885922D01*
X58174500Y-65934078D01*
X58154935Y-66000931D01*
X58102414Y-66046688D01*
X58033511Y-66056909D01*
X57969969Y-66028369D01*
X57931840Y-65970074D01*
X57878814Y-65795273D01*
X57860383Y-65760791D01*
X57785910Y-65621462D01*
X57660883Y-65469117D01*
X57508538Y-65344090D01*
X57457658Y-65316894D01*
X57334726Y-65251185D01*
X57146133Y-65193976D01*
X56950000Y-65174659D01*
X56753866Y-65193976D01*
X56565273Y-65251185D01*
X56391463Y-65344089D01*
X56239117Y-65469117D01*
X56114089Y-65621463D01*
X56021185Y-65795273D01*
X55963976Y-65983866D01*
X55944659Y-66180000D01*
X55963976Y-66376133D01*
X56021185Y-66564726D01*
X56074637Y-66664727D01*
X56114090Y-66738538D01*
X56239117Y-66890883D01*
X56391462Y-67015910D01*
X56565273Y-67108814D01*
X56753868Y-67166024D01*
X56950000Y-67185341D01*
X57146132Y-67166024D01*
X57334727Y-67108814D01*
X57508538Y-67015910D01*
X57660883Y-66890883D01*
X57785910Y-66738538D01*
X57878814Y-66564727D01*
X57905689Y-66476132D01*
X57931840Y-66389926D01*
X57969969Y-66331631D01*
X58033511Y-66303091D01*
X58102414Y-66313312D01*
X58154935Y-66359069D01*
X58174500Y-66425922D01*
X58174500Y-68474078D01*
X58154935Y-68540931D01*
X58102414Y-68586688D01*
X58033511Y-68596909D01*
X57969969Y-68568369D01*
X57931840Y-68510074D01*
X57878814Y-68335273D01*
X57878813Y-68335272D01*
X57785910Y-68161462D01*
X57660883Y-68009117D01*
X57508538Y-67884090D01*
X57409575Y-67831193D01*
X57334726Y-67791185D01*
X57146133Y-67733976D01*
X56950000Y-67714659D01*
X56753866Y-67733976D01*
X56565273Y-67791185D01*
X56391463Y-67884089D01*
X56239117Y-68009117D01*
X56114089Y-68161463D01*
X56021185Y-68335273D01*
X55963976Y-68523866D01*
X55944659Y-68720000D01*
X55963975Y-68916131D01*
X56019105Y-69097870D01*
X56020728Y-69163995D01*
X55988125Y-69221546D01*
X54783714Y-70425958D01*
X54775741Y-70433264D01*
X54746806Y-70457544D01*
X54727914Y-70490264D01*
X54722106Y-70499380D01*
X54699831Y-70531193D01*
X54689597Y-70555899D01*
X54682852Y-70594148D01*
X54680512Y-70604704D01*
X54670735Y-70641192D01*
X54674028Y-70678820D01*
X54674500Y-70689628D01*
X54674500Y-80431701D01*
X54661712Y-80486545D01*
X54625986Y-80530077D01*
X54571717Y-80571718D01*
X54475463Y-80697159D01*
X54414956Y-80843237D01*
X54394317Y-80999999D01*
X46439334Y-80999999D01*
X45566579Y-80127244D01*
X45533273Y-80066731D01*
X45537509Y-79997788D01*
X45577972Y-79941807D01*
X45642108Y-79916160D01*
X45655834Y-79914808D01*
X45853764Y-79854766D01*
X46036171Y-79757268D01*
X46196054Y-79626054D01*
X46327268Y-79466171D01*
X46424766Y-79283764D01*
X46471410Y-79130000D01*
X45324000Y-79130000D01*
X45262000Y-79113387D01*
X45216613Y-79068000D01*
X45200000Y-79006000D01*
X45200000Y-78880000D01*
X52064659Y-78880000D01*
X52083976Y-79076133D01*
X52141185Y-79264726D01*
X52172865Y-79323995D01*
X52234090Y-79438538D01*
X52359117Y-79590883D01*
X52511462Y-79715910D01*
X52685273Y-79808814D01*
X52873868Y-79866024D01*
X53070000Y-79885341D01*
X53266132Y-79866024D01*
X53454727Y-79808814D01*
X53628538Y-79715910D01*
X53780883Y-79590883D01*
X53905910Y-79438538D01*
X53998814Y-79264727D01*
X54056024Y-79076132D01*
X54075341Y-78880000D01*
X54056024Y-78683868D01*
X53998814Y-78495273D01*
X53905910Y-78321462D01*
X53780883Y-78169117D01*
X53628538Y-78044090D01*
X53551161Y-78002731D01*
X53454726Y-77951185D01*
X53266133Y-77893976D01*
X53070000Y-77874659D01*
X52873866Y-77893976D01*
X52685273Y-77951185D01*
X52511463Y-78044089D01*
X52359117Y-78169117D01*
X52234089Y-78321463D01*
X52141185Y-78495273D01*
X52083976Y-78683866D01*
X52064659Y-78880000D01*
X45200000Y-78880000D01*
X45200000Y-77858590D01*
X45700000Y-77858590D01*
X45700000Y-78630000D01*
X46471410Y-78630000D01*
X46424766Y-78476235D01*
X46327268Y-78293828D01*
X46196054Y-78133945D01*
X46036171Y-78002731D01*
X45853764Y-77905233D01*
X45700000Y-77858590D01*
X45200000Y-77858590D01*
X45046235Y-77905233D01*
X44863828Y-78002731D01*
X44703945Y-78133945D01*
X44572731Y-78293828D01*
X44475233Y-78476235D01*
X44415191Y-78674165D01*
X44413839Y-78687897D01*
X44388189Y-78752030D01*
X44332209Y-78792491D01*
X44263267Y-78796726D01*
X44202755Y-78763420D01*
X42592023Y-77152688D01*
X42561043Y-77101002D01*
X42558087Y-77040816D01*
X42583851Y-76986342D01*
X42619500Y-76942903D01*
X42655910Y-76898538D01*
X42748814Y-76724727D01*
X42789683Y-76590000D01*
X44428590Y-76590000D01*
X44475233Y-76743764D01*
X44572731Y-76926171D01*
X44703945Y-77086054D01*
X44863828Y-77217268D01*
X45046235Y-77314766D01*
X45200000Y-77361410D01*
X45200000Y-76590000D01*
X45700000Y-76590000D01*
X45700000Y-77361410D01*
X45853764Y-77314766D01*
X46036171Y-77217268D01*
X46196054Y-77086054D01*
X46327268Y-76926171D01*
X46424766Y-76743764D01*
X46471410Y-76590000D01*
X45700000Y-76590000D01*
X45200000Y-76590000D01*
X44428590Y-76590000D01*
X42789683Y-76590000D01*
X42806024Y-76536132D01*
X42825341Y-76340000D01*
X52064659Y-76340000D01*
X52083976Y-76536133D01*
X52141185Y-76724726D01*
X52207510Y-76848811D01*
X52234090Y-76898538D01*
X52359117Y-77050883D01*
X52511462Y-77175910D01*
X52685273Y-77268814D01*
X52873868Y-77326024D01*
X53070000Y-77345341D01*
X53266132Y-77326024D01*
X53454727Y-77268814D01*
X53628538Y-77175910D01*
X53780883Y-77050883D01*
X53905910Y-76898538D01*
X53998814Y-76724727D01*
X54056024Y-76536132D01*
X54075341Y-76340000D01*
X54056024Y-76143868D01*
X53998814Y-75955273D01*
X53905910Y-75781462D01*
X53780883Y-75629117D01*
X53628538Y-75504090D01*
X53512320Y-75441970D01*
X53454726Y-75411185D01*
X53266133Y-75353976D01*
X53070000Y-75334659D01*
X52873866Y-75353976D01*
X52685273Y-75411185D01*
X52511463Y-75504089D01*
X52359117Y-75629117D01*
X52234089Y-75781463D01*
X52141185Y-75955273D01*
X52083976Y-76143866D01*
X52064659Y-76340000D01*
X42825341Y-76340000D01*
X42806024Y-76143868D01*
X42789683Y-76090000D01*
X44428590Y-76090000D01*
X45200000Y-76090000D01*
X45200000Y-75318590D01*
X45700000Y-75318590D01*
X45700000Y-76090000D01*
X46471410Y-76090000D01*
X46424766Y-75936235D01*
X46327268Y-75753828D01*
X46196054Y-75593945D01*
X46036171Y-75462731D01*
X45853764Y-75365233D01*
X45700000Y-75318590D01*
X45200000Y-75318590D01*
X45046235Y-75365233D01*
X44863828Y-75462731D01*
X44703945Y-75593945D01*
X44572731Y-75753828D01*
X44475233Y-75936235D01*
X44428590Y-76090000D01*
X42789683Y-76090000D01*
X42748814Y-75955273D01*
X42655910Y-75781462D01*
X42530883Y-75629117D01*
X42378538Y-75504090D01*
X42262320Y-75441970D01*
X42204726Y-75411185D01*
X42016133Y-75353976D01*
X41820000Y-75334659D01*
X41623866Y-75353976D01*
X41435273Y-75411185D01*
X41261463Y-75504089D01*
X41223165Y-75535520D01*
X41159679Y-75562734D01*
X41091483Y-75551762D01*
X41039738Y-75506007D01*
X41020500Y-75439667D01*
X41020500Y-75111188D01*
X41029939Y-75063735D01*
X41056819Y-75023507D01*
X41318452Y-74761873D01*
X41376004Y-74729270D01*
X41442126Y-74730892D01*
X41623868Y-74786024D01*
X41820000Y-74805341D01*
X42016132Y-74786024D01*
X42204727Y-74728814D01*
X42378538Y-74635910D01*
X42530883Y-74510883D01*
X42655910Y-74358538D01*
X42748814Y-74184727D01*
X42806024Y-73996132D01*
X42825341Y-73800000D01*
X44444659Y-73800000D01*
X44463976Y-73996133D01*
X44521185Y-74184726D01*
X44562795Y-74262572D01*
X44614090Y-74358538D01*
X44739117Y-74510883D01*
X44891462Y-74635910D01*
X45065273Y-74728814D01*
X45253868Y-74786024D01*
X45450000Y-74805341D01*
X45646132Y-74786024D01*
X45834727Y-74728814D01*
X46008538Y-74635910D01*
X46160883Y-74510883D01*
X46285910Y-74358538D01*
X46378814Y-74184727D01*
X46436024Y-73996132D01*
X46455341Y-73800000D01*
X52064659Y-73800000D01*
X52083976Y-73996133D01*
X52141185Y-74184726D01*
X52182795Y-74262572D01*
X52234090Y-74358538D01*
X52359117Y-74510883D01*
X52511462Y-74635910D01*
X52685273Y-74728814D01*
X52873868Y-74786024D01*
X53070000Y-74805341D01*
X53266132Y-74786024D01*
X53454727Y-74728814D01*
X53628538Y-74635910D01*
X53780883Y-74510883D01*
X53905910Y-74358538D01*
X53998814Y-74184727D01*
X54056024Y-73996132D01*
X54075341Y-73800000D01*
X54056024Y-73603868D01*
X53998814Y-73415273D01*
X53905910Y-73241462D01*
X53780883Y-73089117D01*
X53628538Y-72964090D01*
X53544263Y-72919044D01*
X53454726Y-72871185D01*
X53266133Y-72813976D01*
X53165482Y-72804063D01*
X53070000Y-72794659D01*
X53069999Y-72794659D01*
X52873866Y-72813976D01*
X52685273Y-72871185D01*
X52511463Y-72964089D01*
X52359117Y-73089117D01*
X52234089Y-73241463D01*
X52141185Y-73415273D01*
X52083976Y-73603866D01*
X52064659Y-73800000D01*
X46455341Y-73800000D01*
X46436024Y-73603868D01*
X46378814Y-73415273D01*
X46285910Y-73241462D01*
X46160883Y-73089117D01*
X46008538Y-72964090D01*
X45924263Y-72919044D01*
X45834726Y-72871185D01*
X45646133Y-72813976D01*
X45545482Y-72804063D01*
X45450000Y-72794659D01*
X45449999Y-72794659D01*
X45253866Y-72813976D01*
X45065273Y-72871185D01*
X44891463Y-72964089D01*
X44739117Y-73089117D01*
X44614089Y-73241463D01*
X44521185Y-73415273D01*
X44463976Y-73603866D01*
X44444659Y-73800000D01*
X42825341Y-73800000D01*
X42806024Y-73603868D01*
X42748814Y-73415273D01*
X42655910Y-73241462D01*
X42530883Y-73089117D01*
X42378538Y-72964090D01*
X42340687Y-72943858D01*
X42293413Y-72899290D01*
X42275164Y-72836935D01*
X42290950Y-72773911D01*
X42336438Y-72727521D01*
X42399140Y-72710500D01*
X44305373Y-72710500D01*
X44316180Y-72710971D01*
X44353807Y-72714264D01*
X44390324Y-72704478D01*
X44400830Y-72702149D01*
X44438045Y-72695588D01*
X44438047Y-72695586D01*
X44439112Y-72695399D01*
X44463799Y-72685173D01*
X44464682Y-72684554D01*
X44464684Y-72684554D01*
X44495625Y-72662887D01*
X44504722Y-72657091D01*
X44537455Y-72638194D01*
X44561748Y-72609241D01*
X44569036Y-72601288D01*
X44948453Y-72221871D01*
X45006003Y-72189270D01*
X45072126Y-72190892D01*
X45253868Y-72246024D01*
X45450000Y-72265341D01*
X45646132Y-72246024D01*
X45834727Y-72188814D01*
X46008538Y-72095910D01*
X46160883Y-71970883D01*
X46285910Y-71818538D01*
X46378814Y-71644727D01*
X46436024Y-71456132D01*
X46455341Y-71260000D01*
X46436024Y-71063868D01*
X46378814Y-70875273D01*
X46285910Y-70701462D01*
X46160883Y-70549117D01*
X46008538Y-70424090D01*
X45903218Y-70367795D01*
X45834726Y-70331185D01*
X45646133Y-70273976D01*
X45450000Y-70254659D01*
X45253866Y-70273976D01*
X45065273Y-70331185D01*
X44891463Y-70424089D01*
X44739117Y-70549117D01*
X44614089Y-70701463D01*
X44521185Y-70875273D01*
X44463976Y-71063866D01*
X44444659Y-71260000D01*
X44463975Y-71456130D01*
X44519106Y-71637870D01*
X44520729Y-71703994D01*
X44488126Y-71761546D01*
X44226490Y-72023183D01*
X44186265Y-72050061D01*
X44138812Y-72059500D01*
X42720333Y-72059500D01*
X42653993Y-72040262D01*
X42608238Y-71988517D01*
X42597266Y-71920321D01*
X42624480Y-71856835D01*
X42655910Y-71818538D01*
X42748814Y-71644727D01*
X42806024Y-71456132D01*
X42825341Y-71260000D01*
X42806024Y-71063868D01*
X42750892Y-70882126D01*
X42749270Y-70816003D01*
X42781871Y-70758453D01*
X44373151Y-69167173D01*
X44421934Y-69137114D01*
X44479025Y-69132198D01*
X44532230Y-69153476D01*
X44570187Y-69196402D01*
X44614090Y-69278538D01*
X44739117Y-69430883D01*
X44891462Y-69555910D01*
X45065273Y-69648814D01*
X45253868Y-69706024D01*
X45450000Y-69725341D01*
X45646132Y-69706024D01*
X45834727Y-69648814D01*
X46008538Y-69555910D01*
X46160883Y-69430883D01*
X46285910Y-69278538D01*
X46378814Y-69104727D01*
X46436024Y-68916132D01*
X46455341Y-68720000D01*
X46436024Y-68523868D01*
X46380892Y-68342126D01*
X46379270Y-68276003D01*
X46411871Y-68218453D01*
X48690790Y-65939534D01*
X48698758Y-65932234D01*
X48727692Y-65907957D01*
X48727692Y-65907956D01*
X48727694Y-65907955D01*
X48746591Y-65875222D01*
X48752387Y-65866125D01*
X48774054Y-65835184D01*
X48774054Y-65835182D01*
X48774673Y-65834299D01*
X48784899Y-65809612D01*
X48785086Y-65808547D01*
X48785088Y-65808545D01*
X48791649Y-65771330D01*
X48793978Y-65760824D01*
X48803764Y-65724307D01*
X48800471Y-65686680D01*
X48800000Y-65675873D01*
X48800000Y-56593799D01*
X48812788Y-56538955D01*
X48848514Y-56495423D01*
X48855231Y-56490269D01*
X48902782Y-56453782D01*
X48999036Y-56328341D01*
X49059544Y-56182262D01*
X49080182Y-56025500D01*
X49059544Y-55868738D01*
X48999036Y-55722659D01*
X48986904Y-55706848D01*
X48902782Y-55597217D01*
X48777340Y-55500963D01*
X48631262Y-55440456D01*
X48474500Y-55419817D01*
X48317737Y-55440456D01*
X48246952Y-55469776D01*
X48187345Y-55478618D01*
X48130609Y-55458317D01*
X48090142Y-55413668D01*
X48075500Y-55355215D01*
X48075500Y-54592822D01*
X48075972Y-54582014D01*
X48079264Y-54544387D01*
X48069487Y-54507901D01*
X48067145Y-54497338D01*
X48065534Y-54488201D01*
X48060588Y-54460150D01*
X48060587Y-54460149D01*
X48060400Y-54459086D01*
X48050171Y-54434393D01*
X48049554Y-54433512D01*
X48049554Y-54433511D01*
X48027892Y-54402574D01*
X48022080Y-54393451D01*
X48003194Y-54360739D01*
X47974255Y-54336457D01*
X47966280Y-54329149D01*
X47858316Y-54221185D01*
X47828578Y-54173362D01*
X47823058Y-54117318D01*
X47830365Y-54061818D01*
X47831987Y-54049500D01*
X47811349Y-53892738D01*
X47750841Y-53746659D01*
X47715908Y-53701133D01*
X47654587Y-53621217D01*
X47529145Y-53524963D01*
X47383067Y-53464456D01*
X47226305Y-53443817D01*
X47069542Y-53464456D01*
X46923464Y-53524963D01*
X46798024Y-53621216D01*
X46797876Y-53621410D01*
X46749935Y-53659203D01*
X46689771Y-53669541D01*
X46631965Y-53649918D01*
X46590527Y-53605091D01*
X46575500Y-53545923D01*
X46575500Y-51792799D01*
X46588288Y-51737955D01*
X46624014Y-51694423D01*
X46637509Y-51684068D01*
X46678282Y-51652782D01*
X46774536Y-51527341D01*
X46835044Y-51381262D01*
X46855682Y-51224500D01*
X46835044Y-51067738D01*
X46820160Y-51031806D01*
X46805724Y-50996952D01*
X46796882Y-50937345D01*
X46817183Y-50880609D01*
X46861832Y-50840142D01*
X46920285Y-50825500D01*
X47272701Y-50825500D01*
X47320154Y-50834939D01*
G37*
%TD.AperFunction*%
%TA.AperFunction,Conductor*%
G36*
X67419352Y-32794738D02*
G01*
X67465107Y-32846484D01*
X67476079Y-32914680D01*
X67448865Y-32978162D01*
X67407776Y-33028231D01*
X67364089Y-33081463D01*
X67271185Y-33255273D01*
X67213976Y-33443866D01*
X67194659Y-33640000D01*
X67213976Y-33836133D01*
X67271185Y-34024726D01*
X67302865Y-34083995D01*
X67364090Y-34198538D01*
X67489117Y-34350883D01*
X67641462Y-34475910D01*
X67815273Y-34568814D01*
X68003868Y-34626024D01*
X68200000Y-34645341D01*
X68396132Y-34626024D01*
X68577870Y-34570893D01*
X68643995Y-34569270D01*
X68701547Y-34601873D01*
X68815950Y-34716276D01*
X68823258Y-34724250D01*
X68847545Y-34753194D01*
X68866632Y-34764214D01*
X68880256Y-34772080D01*
X68889379Y-34777892D01*
X68920316Y-34799554D01*
X68920317Y-34799554D01*
X68921198Y-34800171D01*
X68945891Y-34810400D01*
X68946954Y-34810587D01*
X68946955Y-34810588D01*
X68984143Y-34817145D01*
X68994701Y-34819485D01*
X69031193Y-34829264D01*
X69068823Y-34825971D01*
X69079630Y-34825500D01*
X69481201Y-34825500D01*
X69536045Y-34838288D01*
X69579576Y-34874013D01*
X69621218Y-34928282D01*
X69746659Y-35024536D01*
X69892738Y-35085044D01*
X70015380Y-35101190D01*
X70049499Y-35105682D01*
X70049499Y-35105681D01*
X70049500Y-35105682D01*
X70206262Y-35085044D01*
X70352341Y-35024536D01*
X70477782Y-34928282D01*
X70574036Y-34802841D01*
X70634544Y-34656762D01*
X70655182Y-34500000D01*
X70634544Y-34343238D01*
X70574036Y-34197159D01*
X70531364Y-34141547D01*
X70477782Y-34071717D01*
X70352340Y-33975463D01*
X70206262Y-33914956D01*
X70049499Y-33894317D01*
X69892737Y-33914956D01*
X69746659Y-33975463D01*
X69621218Y-34071717D01*
X69579577Y-34125986D01*
X69536045Y-34161712D01*
X69481201Y-34174500D01*
X69250576Y-34174500D01*
X69194824Y-34161260D01*
X69150978Y-34124367D01*
X69128402Y-34071699D01*
X69131915Y-34014505D01*
X69168373Y-33894318D01*
X69186024Y-33836132D01*
X69205341Y-33640000D01*
X69186024Y-33443868D01*
X69128814Y-33255273D01*
X69035910Y-33081462D01*
X68951134Y-32978162D01*
X68923921Y-32914680D01*
X68934893Y-32846484D01*
X68980648Y-32794738D01*
X69046988Y-32775500D01*
X74973012Y-32775500D01*
X75039352Y-32794738D01*
X75085107Y-32846484D01*
X75096079Y-32914680D01*
X75068865Y-32978162D01*
X75027776Y-33028231D01*
X74984089Y-33081463D01*
X74891185Y-33255273D01*
X74833976Y-33443866D01*
X74814659Y-33639999D01*
X74833976Y-33836133D01*
X74891185Y-34024726D01*
X74922865Y-34083995D01*
X74984090Y-34198538D01*
X75109117Y-34350883D01*
X75261462Y-34475910D01*
X75435273Y-34568814D01*
X75623868Y-34626024D01*
X75820000Y-34645341D01*
X76016132Y-34626024D01*
X76204727Y-34568814D01*
X76378538Y-34475910D01*
X76530883Y-34350883D01*
X76655910Y-34198538D01*
X76748814Y-34024727D01*
X76806024Y-33836132D01*
X76825341Y-33640000D01*
X76806024Y-33443868D01*
X76748814Y-33255273D01*
X76655910Y-33081462D01*
X76571134Y-32978162D01*
X76543921Y-32914680D01*
X76554893Y-32846484D01*
X76600648Y-32794738D01*
X76666988Y-32775500D01*
X82288425Y-32775500D01*
X82346051Y-32789703D01*
X82390475Y-32829060D01*
X82451815Y-32917927D01*
X82451816Y-32917928D01*
X82451817Y-32917929D01*
X82579148Y-33030734D01*
X82729775Y-33109790D01*
X82894944Y-33150500D01*
X83065055Y-33150500D01*
X83065056Y-33150500D01*
X83230225Y-33109790D01*
X83380852Y-33030734D01*
X83388775Y-33023714D01*
X83451725Y-32994038D01*
X83520749Y-33002948D01*
X83574102Y-33047640D01*
X83605447Y-33094552D01*
X83671769Y-33138867D01*
X83730251Y-33150500D01*
X84775500Y-33150500D01*
X84837500Y-33167113D01*
X84882887Y-33212500D01*
X84899500Y-33274500D01*
X84899500Y-39125500D01*
X84882887Y-39187500D01*
X84837500Y-39232887D01*
X84775500Y-39249500D01*
X83730251Y-39249500D01*
X83671769Y-39261132D01*
X83605446Y-39305448D01*
X83574101Y-39352360D01*
X83520750Y-39397050D01*
X83451727Y-39405961D01*
X83388775Y-39376285D01*
X83380853Y-39369267D01*
X83380852Y-39369266D01*
X83292714Y-39323007D01*
X83230224Y-39290209D01*
X83097059Y-39257388D01*
X83065056Y-39249500D01*
X82894944Y-39249500D01*
X82862941Y-39257388D01*
X82729775Y-39290209D01*
X82579149Y-39369265D01*
X82451815Y-39482072D01*
X82355182Y-39622069D01*
X82294860Y-39781127D01*
X82274354Y-39950000D01*
X82294860Y-40118872D01*
X82355182Y-40277930D01*
X82451815Y-40417927D01*
X82451816Y-40417928D01*
X82451817Y-40417929D01*
X82579148Y-40530734D01*
X82729775Y-40609790D01*
X82894944Y-40650500D01*
X83065055Y-40650500D01*
X83065056Y-40650500D01*
X83230225Y-40609790D01*
X83380852Y-40530734D01*
X83388775Y-40523714D01*
X83451725Y-40494038D01*
X83520749Y-40502948D01*
X83574102Y-40547640D01*
X83605447Y-40594552D01*
X83671769Y-40638867D01*
X83730251Y-40650500D01*
X84775500Y-40650500D01*
X84837500Y-40667113D01*
X84882887Y-40712500D01*
X84899500Y-40774500D01*
X84899500Y-45614033D01*
X84886657Y-45668989D01*
X84850788Y-45712561D01*
X84799324Y-45735723D01*
X84742924Y-45733678D01*
X84693273Y-45706848D01*
X84682336Y-45697159D01*
X84650852Y-45669266D01*
X84574355Y-45629117D01*
X84500224Y-45590209D01*
X84375765Y-45559533D01*
X84335056Y-45549500D01*
X84164944Y-45549500D01*
X84132284Y-45557549D01*
X83999775Y-45590209D01*
X83849149Y-45669265D01*
X83721815Y-45782072D01*
X83625182Y-45922069D01*
X83564860Y-46081127D01*
X83544354Y-46249999D01*
X83564860Y-46418872D01*
X83625182Y-46577930D01*
X83721815Y-46717927D01*
X83721816Y-46717928D01*
X83721817Y-46717929D01*
X83849148Y-46830734D01*
X83999775Y-46909790D01*
X84164944Y-46950500D01*
X84335055Y-46950500D01*
X84335056Y-46950500D01*
X84500225Y-46909790D01*
X84650852Y-46830734D01*
X84693274Y-46793151D01*
X84742924Y-46766322D01*
X84799324Y-46764277D01*
X84850788Y-46787439D01*
X84886657Y-46831011D01*
X84899500Y-46885967D01*
X84899500Y-48114033D01*
X84886657Y-48168989D01*
X84850788Y-48212561D01*
X84799324Y-48235723D01*
X84742924Y-48233678D01*
X84693273Y-48206848D01*
X84650853Y-48169267D01*
X84650852Y-48169266D01*
X84575538Y-48129738D01*
X84500224Y-48090209D01*
X84375764Y-48059533D01*
X84335056Y-48049500D01*
X84164944Y-48049500D01*
X84132284Y-48057549D01*
X83999775Y-48090209D01*
X83849149Y-48169265D01*
X83721815Y-48282072D01*
X83625182Y-48422069D01*
X83564860Y-48581127D01*
X83544354Y-48749999D01*
X83564860Y-48918872D01*
X83625182Y-49077930D01*
X83721815Y-49217927D01*
X83721816Y-49217928D01*
X83721817Y-49217929D01*
X83849148Y-49330734D01*
X83999775Y-49409790D01*
X84164944Y-49450500D01*
X84335055Y-49450500D01*
X84335056Y-49450500D01*
X84500225Y-49409790D01*
X84650852Y-49330734D01*
X84693274Y-49293151D01*
X84742924Y-49266322D01*
X84799324Y-49264277D01*
X84850788Y-49287439D01*
X84886657Y-49331011D01*
X84899500Y-49385967D01*
X84899500Y-50614033D01*
X84886657Y-50668989D01*
X84850788Y-50712561D01*
X84799324Y-50735723D01*
X84742924Y-50733678D01*
X84693273Y-50706848D01*
X84678242Y-50693532D01*
X84650852Y-50669266D01*
X84575538Y-50629737D01*
X84500224Y-50590209D01*
X84375765Y-50559533D01*
X84335056Y-50549500D01*
X84164944Y-50549500D01*
X84132284Y-50557549D01*
X83999775Y-50590209D01*
X83849149Y-50669265D01*
X83721815Y-50782072D01*
X83625182Y-50922069D01*
X83564860Y-51081127D01*
X83544354Y-51249999D01*
X83564860Y-51418872D01*
X83625182Y-51577930D01*
X83721815Y-51717927D01*
X83721816Y-51717928D01*
X83721817Y-51717929D01*
X83849148Y-51830734D01*
X83999775Y-51909790D01*
X84164944Y-51950500D01*
X84335055Y-51950500D01*
X84335056Y-51950500D01*
X84500225Y-51909790D01*
X84650852Y-51830734D01*
X84693274Y-51793151D01*
X84742924Y-51766322D01*
X84799324Y-51764277D01*
X84850788Y-51787439D01*
X84886657Y-51831011D01*
X84899500Y-51885967D01*
X84899500Y-53114033D01*
X84886657Y-53168989D01*
X84850788Y-53212561D01*
X84799324Y-53235723D01*
X84742924Y-53233678D01*
X84693273Y-53206848D01*
X84670265Y-53186465D01*
X84650852Y-53169266D01*
X84567464Y-53125500D01*
X84500224Y-53090209D01*
X84375764Y-53059533D01*
X84335056Y-53049500D01*
X84164944Y-53049500D01*
X84132284Y-53057549D01*
X83999775Y-53090209D01*
X83849149Y-53169265D01*
X83721815Y-53282072D01*
X83625182Y-53422069D01*
X83564860Y-53581127D01*
X83544354Y-53750000D01*
X83564860Y-53918872D01*
X83625182Y-54077930D01*
X83721815Y-54217927D01*
X83721816Y-54217928D01*
X83721817Y-54217929D01*
X83849148Y-54330734D01*
X83999775Y-54409790D01*
X84164944Y-54450500D01*
X84335055Y-54450500D01*
X84335056Y-54450500D01*
X84500225Y-54409790D01*
X84650852Y-54330734D01*
X84693274Y-54293151D01*
X84742924Y-54266322D01*
X84799324Y-54264277D01*
X84850788Y-54287439D01*
X84886657Y-54331011D01*
X84899500Y-54385967D01*
X84899500Y-55614033D01*
X84886657Y-55668989D01*
X84850788Y-55712561D01*
X84799324Y-55735723D01*
X84742924Y-55733678D01*
X84693273Y-55706848D01*
X84682336Y-55697159D01*
X84650852Y-55669266D01*
X84575538Y-55629738D01*
X84500224Y-55590209D01*
X84375765Y-55559533D01*
X84335056Y-55549500D01*
X84164944Y-55549500D01*
X84132284Y-55557549D01*
X83999775Y-55590209D01*
X83849149Y-55669265D01*
X83721815Y-55782072D01*
X83625182Y-55922069D01*
X83564860Y-56081127D01*
X83544354Y-56250000D01*
X83564860Y-56418872D01*
X83625182Y-56577930D01*
X83721815Y-56717927D01*
X83721816Y-56717928D01*
X83721817Y-56717929D01*
X83849148Y-56830734D01*
X83999775Y-56909790D01*
X84164944Y-56950500D01*
X84335055Y-56950500D01*
X84335056Y-56950500D01*
X84500225Y-56909790D01*
X84650852Y-56830734D01*
X84693274Y-56793151D01*
X84742924Y-56766322D01*
X84799324Y-56764277D01*
X84850788Y-56787439D01*
X84886657Y-56831011D01*
X84899500Y-56885967D01*
X84899500Y-58114033D01*
X84886657Y-58168989D01*
X84850788Y-58212561D01*
X84799324Y-58235723D01*
X84742924Y-58233678D01*
X84693273Y-58206848D01*
X84650853Y-58169267D01*
X84650852Y-58169266D01*
X84575538Y-58129737D01*
X84500224Y-58090209D01*
X84375764Y-58059533D01*
X84335056Y-58049500D01*
X84164944Y-58049500D01*
X84132284Y-58057549D01*
X83999775Y-58090209D01*
X83849149Y-58169265D01*
X83721815Y-58282072D01*
X83625182Y-58422069D01*
X83564860Y-58581127D01*
X83544354Y-58750000D01*
X83564860Y-58918872D01*
X83625182Y-59077930D01*
X83721815Y-59217927D01*
X83721816Y-59217928D01*
X83721817Y-59217929D01*
X83849148Y-59330734D01*
X83999775Y-59409790D01*
X84164944Y-59450500D01*
X84335055Y-59450500D01*
X84335056Y-59450500D01*
X84500225Y-59409790D01*
X84650852Y-59330734D01*
X84693274Y-59293151D01*
X84742924Y-59266322D01*
X84799324Y-59264277D01*
X84850788Y-59287439D01*
X84886657Y-59331011D01*
X84899500Y-59385967D01*
X84899500Y-60614033D01*
X84886657Y-60668989D01*
X84850788Y-60712561D01*
X84799324Y-60735723D01*
X84742924Y-60733678D01*
X84693273Y-60706848D01*
X84650853Y-60669267D01*
X84650852Y-60669266D01*
X84559719Y-60621435D01*
X84500224Y-60590209D01*
X84352879Y-60553893D01*
X84335056Y-60549500D01*
X84164944Y-60549500D01*
X84147121Y-60553893D01*
X83999775Y-60590209D01*
X83849149Y-60669265D01*
X83721815Y-60782072D01*
X83625182Y-60922069D01*
X83564860Y-61081127D01*
X83544354Y-61250000D01*
X83564860Y-61418872D01*
X83625182Y-61577930D01*
X83721815Y-61717927D01*
X83721816Y-61717928D01*
X83721817Y-61717929D01*
X83849148Y-61830734D01*
X83999775Y-61909790D01*
X84164944Y-61950500D01*
X84335055Y-61950500D01*
X84335056Y-61950500D01*
X84500225Y-61909790D01*
X84650852Y-61830734D01*
X84693274Y-61793151D01*
X84742924Y-61766322D01*
X84799324Y-61764277D01*
X84850788Y-61787439D01*
X84886657Y-61831011D01*
X84899500Y-61885967D01*
X84899500Y-63114033D01*
X84886657Y-63168989D01*
X84850788Y-63212561D01*
X84799324Y-63235723D01*
X84742924Y-63233678D01*
X84693273Y-63206848D01*
X84679504Y-63194650D01*
X84650852Y-63169266D01*
X84575538Y-63129738D01*
X84500224Y-63090209D01*
X84375765Y-63059533D01*
X84335056Y-63049500D01*
X84164944Y-63049500D01*
X84132284Y-63057549D01*
X83999775Y-63090209D01*
X83849149Y-63169265D01*
X83721815Y-63282072D01*
X83625182Y-63422069D01*
X83564860Y-63581127D01*
X83544354Y-63749999D01*
X83564860Y-63918872D01*
X83625182Y-64077930D01*
X83721815Y-64217927D01*
X83721816Y-64217928D01*
X83721817Y-64217929D01*
X83849148Y-64330734D01*
X83999775Y-64409790D01*
X84164944Y-64450500D01*
X84335055Y-64450500D01*
X84335056Y-64450500D01*
X84500225Y-64409790D01*
X84650852Y-64330734D01*
X84693274Y-64293151D01*
X84742924Y-64266322D01*
X84799324Y-64264277D01*
X84850788Y-64287439D01*
X84886657Y-64331011D01*
X84899500Y-64385967D01*
X84899500Y-69125500D01*
X84882887Y-69187500D01*
X84837500Y-69232887D01*
X84775500Y-69249500D01*
X83730251Y-69249500D01*
X83671769Y-69261132D01*
X83605446Y-69305448D01*
X83574101Y-69352360D01*
X83520750Y-69397050D01*
X83451727Y-69405961D01*
X83388775Y-69376285D01*
X83380853Y-69369267D01*
X83380852Y-69369266D01*
X83292516Y-69322903D01*
X83230224Y-69290209D01*
X83105764Y-69259533D01*
X83065056Y-69249500D01*
X82894944Y-69249500D01*
X82862284Y-69257549D01*
X82729775Y-69290209D01*
X82579149Y-69369265D01*
X82579147Y-69369266D01*
X82579148Y-69369266D01*
X82451817Y-69482071D01*
X82451815Y-69482072D01*
X82440547Y-69492056D01*
X82438655Y-69489920D01*
X82420645Y-69506615D01*
X82369329Y-69523026D01*
X82315898Y-69516125D01*
X82270436Y-69487215D01*
X80161966Y-67378746D01*
X80135086Y-67338518D01*
X80125647Y-67291065D01*
X80125647Y-67166337D01*
X80141641Y-67105421D01*
X80185498Y-67060220D01*
X80245903Y-67042394D01*
X80307273Y-67056540D01*
X80374922Y-67092046D01*
X80540091Y-67132756D01*
X80710202Y-67132756D01*
X80710203Y-67132756D01*
X80875372Y-67092046D01*
X81025999Y-67012990D01*
X81153330Y-66900185D01*
X81226191Y-66794627D01*
X81274844Y-66753154D01*
X81337692Y-66741430D01*
X81398027Y-66762572D01*
X81446504Y-66795578D01*
X81524595Y-66811822D01*
X81524596Y-66811821D01*
X81524598Y-66811822D01*
X81583180Y-66800699D01*
X82546984Y-66411297D01*
X82596851Y-66378603D01*
X82641742Y-66312671D01*
X82641742Y-66312670D01*
X82641743Y-66312669D01*
X82657986Y-66234580D01*
X82655978Y-66224004D01*
X82646863Y-66175996D01*
X82520184Y-65862455D01*
X82503984Y-65822358D01*
X82494957Y-65775186D01*
X82504532Y-65728121D01*
X82531271Y-65688229D01*
X82966290Y-65253210D01*
X82974258Y-65245910D01*
X83003192Y-65221633D01*
X83003192Y-65221632D01*
X83003194Y-65221631D01*
X83022091Y-65188898D01*
X83027887Y-65179801D01*
X83049554Y-65148860D01*
X83049554Y-65148858D01*
X83050173Y-65147975D01*
X83060399Y-65123288D01*
X83060586Y-65122223D01*
X83060588Y-65122221D01*
X83067149Y-65085006D01*
X83069478Y-65074500D01*
X83079264Y-65037983D01*
X83075971Y-65000356D01*
X83075500Y-64989549D01*
X83075500Y-56335135D01*
X83075972Y-56324327D01*
X83079264Y-56286701D01*
X83069478Y-56250183D01*
X83067147Y-56239668D01*
X83060588Y-56202462D01*
X83060587Y-56202460D01*
X83060400Y-56201398D01*
X83050174Y-56176708D01*
X83027892Y-56144886D01*
X83022080Y-56135763D01*
X83003194Y-56103051D01*
X82974255Y-56078769D01*
X82966280Y-56071461D01*
X80508761Y-53613942D01*
X80501452Y-53605966D01*
X80477172Y-53577030D01*
X80444454Y-53558140D01*
X80435345Y-53552337D01*
X80404402Y-53530671D01*
X80403521Y-53530054D01*
X80378825Y-53519824D01*
X80340570Y-53513078D01*
X80330014Y-53510737D01*
X80293525Y-53500960D01*
X80255898Y-53504253D01*
X80245090Y-53504725D01*
X79359387Y-53504725D01*
X79311934Y-53495286D01*
X79271706Y-53468406D01*
X78194554Y-52391254D01*
X78172245Y-52360828D01*
X78161642Y-52329590D01*
X78161481Y-52329312D01*
X78150174Y-52302013D01*
X78127892Y-52270191D01*
X78122080Y-52261068D01*
X78103194Y-52228356D01*
X78074255Y-52204074D01*
X78066280Y-52196766D01*
X76153231Y-50283717D01*
X76145922Y-50275741D01*
X76121643Y-50246806D01*
X76121642Y-50246805D01*
X76088924Y-50227915D01*
X76079815Y-50222112D01*
X76048872Y-50200446D01*
X76047991Y-50199829D01*
X76023295Y-50189599D01*
X75985040Y-50182853D01*
X75974484Y-50180512D01*
X75937995Y-50170735D01*
X75900368Y-50174028D01*
X75889560Y-50174500D01*
X75285187Y-50174500D01*
X75228892Y-50160985D01*
X75184869Y-50123385D01*
X75162714Y-50069898D01*
X75167256Y-50012182D01*
X75197506Y-49962819D01*
X75318452Y-49841873D01*
X75376004Y-49809270D01*
X75442126Y-49810892D01*
X75623868Y-49866024D01*
X75820000Y-49885341D01*
X76016132Y-49866024D01*
X76204727Y-49808814D01*
X76378538Y-49715910D01*
X76530883Y-49590883D01*
X76655910Y-49438538D01*
X76748814Y-49264727D01*
X76806024Y-49076132D01*
X76825341Y-48880000D01*
X76806024Y-48683868D01*
X76748814Y-48495273D01*
X76655910Y-48321462D01*
X76530883Y-48169117D01*
X76378538Y-48044090D01*
X76262320Y-47981970D01*
X76204726Y-47951185D01*
X76016133Y-47893976D01*
X75820000Y-47874659D01*
X75623866Y-47893976D01*
X75435273Y-47951185D01*
X75261463Y-48044089D01*
X75109117Y-48169117D01*
X74984089Y-48321463D01*
X74891185Y-48495273D01*
X74833976Y-48683866D01*
X74814659Y-48880000D01*
X74833975Y-49076130D01*
X74889106Y-49257870D01*
X74890729Y-49323994D01*
X74858126Y-49381546D01*
X74596490Y-49643183D01*
X74556265Y-49670061D01*
X74508812Y-49679500D01*
X69164370Y-49679500D01*
X69098030Y-49660262D01*
X69052275Y-49608517D01*
X69041303Y-49540321D01*
X69068517Y-49476835D01*
X69077268Y-49466171D01*
X69174766Y-49283764D01*
X69221410Y-49130000D01*
X67178590Y-49130000D01*
X67225233Y-49283764D01*
X67322731Y-49466171D01*
X67331483Y-49476835D01*
X67358697Y-49540321D01*
X67347725Y-49608517D01*
X67301970Y-49660262D01*
X67235630Y-49679500D01*
X65881189Y-49679500D01*
X65833736Y-49670061D01*
X65793508Y-49643181D01*
X65531873Y-49381547D01*
X65499270Y-49323995D01*
X65500894Y-49257870D01*
X65556024Y-49076132D01*
X65575341Y-48880000D01*
X65556024Y-48683868D01*
X65498814Y-48495273D01*
X65405910Y-48321462D01*
X65280883Y-48169117D01*
X65128538Y-48044090D01*
X65012320Y-47981970D01*
X64954726Y-47951185D01*
X64766133Y-47893976D01*
X64570000Y-47874659D01*
X64373866Y-47893976D01*
X64185273Y-47951185D01*
X64011463Y-48044089D01*
X63859117Y-48169117D01*
X63734089Y-48321463D01*
X63641185Y-48495273D01*
X63583976Y-48683866D01*
X63564659Y-48880000D01*
X63583975Y-49076130D01*
X63639106Y-49257870D01*
X63640729Y-49323994D01*
X63608126Y-49381546D01*
X63346490Y-49643183D01*
X63306265Y-49670061D01*
X63258812Y-49679500D01*
X57914370Y-49679500D01*
X57848030Y-49660262D01*
X57802275Y-49608517D01*
X57791303Y-49540321D01*
X57818517Y-49476835D01*
X57827268Y-49466171D01*
X57924766Y-49283764D01*
X57971410Y-49130000D01*
X55928590Y-49130000D01*
X55975233Y-49283764D01*
X56072731Y-49466171D01*
X56081483Y-49476835D01*
X56108697Y-49540321D01*
X56097725Y-49608517D01*
X56051970Y-49660262D01*
X55985630Y-49679500D01*
X54381189Y-49679500D01*
X54333736Y-49670061D01*
X54293508Y-49643181D01*
X54031873Y-49381547D01*
X53999270Y-49323995D01*
X54000894Y-49257870D01*
X54056024Y-49076132D01*
X54075341Y-48880000D01*
X54056024Y-48683868D01*
X53998814Y-48495273D01*
X53905910Y-48321462D01*
X53780883Y-48169117D01*
X53628538Y-48044090D01*
X53512320Y-47981970D01*
X53454726Y-47951185D01*
X53266133Y-47893976D01*
X53070000Y-47874659D01*
X52873866Y-47893976D01*
X52685273Y-47951185D01*
X52511463Y-48044089D01*
X52359117Y-48169117D01*
X52234089Y-48321463D01*
X52141185Y-48495273D01*
X52083976Y-48683866D01*
X52064659Y-48880000D01*
X52083975Y-49076130D01*
X52139106Y-49257870D01*
X52140729Y-49323994D01*
X52108126Y-49381546D01*
X51846490Y-49643183D01*
X51806265Y-49670061D01*
X51758812Y-49679500D01*
X46414370Y-49679500D01*
X46348030Y-49660262D01*
X46302275Y-49608517D01*
X46291303Y-49540321D01*
X46318517Y-49476835D01*
X46327268Y-49466171D01*
X46424766Y-49283764D01*
X46471410Y-49130000D01*
X44428590Y-49130000D01*
X44475233Y-49283764D01*
X44572731Y-49466171D01*
X44581483Y-49476835D01*
X44608697Y-49540321D01*
X44597725Y-49608517D01*
X44551970Y-49660262D01*
X44485630Y-49679500D01*
X43131189Y-49679500D01*
X43083736Y-49670061D01*
X43043508Y-49643181D01*
X42781873Y-49381547D01*
X42749270Y-49323995D01*
X42750894Y-49257870D01*
X42806024Y-49076132D01*
X42825341Y-48880000D01*
X42806024Y-48683868D01*
X42789683Y-48630000D01*
X44428590Y-48630000D01*
X45200000Y-48630000D01*
X45200000Y-47858590D01*
X45700000Y-47858590D01*
X45700000Y-48630000D01*
X46471410Y-48630000D01*
X46424766Y-48476235D01*
X46327268Y-48293828D01*
X46196054Y-48133945D01*
X46036171Y-48002731D01*
X45853764Y-47905233D01*
X45700000Y-47858590D01*
X45200000Y-47858590D01*
X45046235Y-47905233D01*
X44863828Y-48002731D01*
X44703945Y-48133945D01*
X44572731Y-48293828D01*
X44475233Y-48476235D01*
X44428590Y-48630000D01*
X42789683Y-48630000D01*
X42748814Y-48495273D01*
X42655910Y-48321462D01*
X42530883Y-48169117D01*
X42378538Y-48044090D01*
X42262320Y-47981970D01*
X42204726Y-47951185D01*
X42016133Y-47893976D01*
X41820000Y-47874659D01*
X41623866Y-47893976D01*
X41435273Y-47951185D01*
X41261463Y-48044089D01*
X41109117Y-48169117D01*
X40984089Y-48321463D01*
X40891185Y-48495273D01*
X40833976Y-48683866D01*
X40814659Y-48880000D01*
X40833976Y-49076133D01*
X40891185Y-49264726D01*
X40953627Y-49381546D01*
X40984090Y-49438538D01*
X41109117Y-49590883D01*
X41261462Y-49715910D01*
X41435273Y-49808814D01*
X41623868Y-49866024D01*
X41820000Y-49885341D01*
X42016132Y-49866024D01*
X42197870Y-49810893D01*
X42263995Y-49809270D01*
X42321546Y-49841872D01*
X42549571Y-50069898D01*
X42700955Y-50221282D01*
X42708263Y-50229256D01*
X42722989Y-50246806D01*
X42732545Y-50258194D01*
X42765266Y-50277085D01*
X42774360Y-50282878D01*
X42805316Y-50304554D01*
X42805317Y-50304554D01*
X42806201Y-50305173D01*
X42830891Y-50315400D01*
X42831954Y-50315587D01*
X42831955Y-50315588D01*
X42869146Y-50322145D01*
X42879704Y-50324486D01*
X42916191Y-50334263D01*
X42916192Y-50334262D01*
X42916193Y-50334263D01*
X42953811Y-50330971D01*
X42964618Y-50330500D01*
X43329715Y-50330500D01*
X43388168Y-50345142D01*
X43432817Y-50385609D01*
X43453118Y-50442345D01*
X43444276Y-50501952D01*
X43414956Y-50572737D01*
X43394317Y-50729500D01*
X43403246Y-50797318D01*
X43397726Y-50853362D01*
X43367988Y-50901184D01*
X42283714Y-51985458D01*
X42275741Y-51992764D01*
X42246806Y-52017044D01*
X42227914Y-52049764D01*
X42222106Y-52058880D01*
X42199831Y-52090693D01*
X42189597Y-52115399D01*
X42182852Y-52153648D01*
X42180512Y-52164204D01*
X42170735Y-52200692D01*
X42174028Y-52238320D01*
X42174500Y-52249128D01*
X42174500Y-59994822D01*
X42161259Y-60050575D01*
X42124365Y-60094421D01*
X42071697Y-60116997D01*
X42028368Y-60114334D01*
X42028286Y-60115173D01*
X41820000Y-60094659D01*
X41623866Y-60113976D01*
X41435273Y-60171185D01*
X41261463Y-60264089D01*
X41109117Y-60389117D01*
X40984089Y-60541463D01*
X40891185Y-60715273D01*
X40833976Y-60903866D01*
X40814659Y-61099999D01*
X40833976Y-61296133D01*
X40891185Y-61484726D01*
X40954340Y-61602880D01*
X40984090Y-61658538D01*
X41109117Y-61810883D01*
X41261462Y-61935910D01*
X41435273Y-62028814D01*
X41623868Y-62086024D01*
X41820000Y-62105341D01*
X42016132Y-62086024D01*
X42204727Y-62028814D01*
X42378538Y-61935910D01*
X42416835Y-61904479D01*
X42480321Y-61877266D01*
X42548517Y-61888238D01*
X42600262Y-61933993D01*
X42619500Y-62000333D01*
X42619500Y-62739667D01*
X42600262Y-62806007D01*
X42548517Y-62851762D01*
X42480321Y-62862734D01*
X42416835Y-62835520D01*
X42387183Y-62811185D01*
X42378538Y-62804090D01*
X42294263Y-62759044D01*
X42204726Y-62711185D01*
X42016133Y-62653976D01*
X41820000Y-62634659D01*
X41623866Y-62653976D01*
X41435273Y-62711185D01*
X41261463Y-62804089D01*
X41109117Y-62929117D01*
X40984089Y-63081463D01*
X40891185Y-63255273D01*
X40833976Y-63443866D01*
X40814659Y-63639999D01*
X40833975Y-63836130D01*
X40889106Y-64017870D01*
X40890729Y-64083994D01*
X40858126Y-64141546D01*
X40478714Y-64520958D01*
X40470741Y-64528264D01*
X40441806Y-64552544D01*
X40422914Y-64585264D01*
X40417106Y-64594380D01*
X40394831Y-64626193D01*
X40384597Y-64650899D01*
X40377852Y-64689148D01*
X40375512Y-64699704D01*
X40365735Y-64736192D01*
X40369028Y-64773820D01*
X40369500Y-64784628D01*
X40369500Y-66509812D01*
X40355985Y-66566107D01*
X40318385Y-66610130D01*
X40264898Y-66632285D01*
X40207182Y-66627743D01*
X40157819Y-66597493D01*
X39111819Y-65551493D01*
X39084939Y-65511265D01*
X39075500Y-65463812D01*
X39075500Y-51818299D01*
X39088288Y-51763455D01*
X39124014Y-51719923D01*
X39126615Y-51717927D01*
X39178282Y-51678282D01*
X39274536Y-51552841D01*
X39335044Y-51406762D01*
X39355682Y-51250000D01*
X39335044Y-51093238D01*
X39274536Y-50947159D01*
X39274535Y-50947158D01*
X39178282Y-50821717D01*
X39052840Y-50725463D01*
X38906762Y-50664956D01*
X38750000Y-50644317D01*
X38593237Y-50664956D01*
X38447159Y-50725463D01*
X38321717Y-50821717D01*
X38225463Y-50947159D01*
X38164956Y-51093237D01*
X38144317Y-51249999D01*
X38164956Y-51406762D01*
X38225463Y-51552840D01*
X38244586Y-51577762D01*
X38321718Y-51678282D01*
X38362591Y-51709645D01*
X38375986Y-51719923D01*
X38411712Y-51763455D01*
X38424500Y-51818299D01*
X38424500Y-54758335D01*
X38410985Y-54814630D01*
X38373385Y-54858653D01*
X38319898Y-54880808D01*
X38262182Y-54876266D01*
X38212819Y-54846016D01*
X37856511Y-54489708D01*
X37826773Y-54441885D01*
X37821253Y-54385841D01*
X37830182Y-54318022D01*
X37826908Y-54293152D01*
X37809544Y-54161261D01*
X37749036Y-54015182D01*
X37704608Y-53957282D01*
X37652782Y-53889740D01*
X37527340Y-53793486D01*
X37381262Y-53732979D01*
X37224500Y-53712340D01*
X37067737Y-53732979D01*
X36921659Y-53793486D01*
X36794986Y-53890686D01*
X36731654Y-53915713D01*
X36664656Y-53903522D01*
X36614199Y-53857790D01*
X36595500Y-53792310D01*
X36595500Y-50416188D01*
X36604939Y-50368735D01*
X36631819Y-50328507D01*
X39873507Y-47086819D01*
X39913735Y-47059939D01*
X39961188Y-47050500D01*
X40030678Y-47050500D01*
X40041485Y-47050971D01*
X40079112Y-47054264D01*
X40115629Y-47044478D01*
X40126135Y-47042149D01*
X40163350Y-47035588D01*
X40163352Y-47035586D01*
X40164417Y-47035399D01*
X40189104Y-47025173D01*
X40189987Y-47024554D01*
X40189989Y-47024554D01*
X40220930Y-47002887D01*
X40230027Y-46997091D01*
X40262760Y-46978194D01*
X40287036Y-46949261D01*
X40294347Y-46941283D01*
X40533814Y-46701818D01*
X40574042Y-46674939D01*
X40621495Y-46665500D01*
X40785205Y-46665500D01*
X40848954Y-46683142D01*
X40894563Y-46731046D01*
X40947847Y-46830732D01*
X40984090Y-46898538D01*
X41109117Y-47050883D01*
X41261462Y-47175910D01*
X41435273Y-47268814D01*
X41623868Y-47326024D01*
X41820000Y-47345341D01*
X42016132Y-47326024D01*
X42204727Y-47268814D01*
X42378538Y-47175910D01*
X42530883Y-47050883D01*
X42655910Y-46898538D01*
X42748814Y-46724727D01*
X42789683Y-46590000D01*
X44428590Y-46590000D01*
X44475233Y-46743764D01*
X44572731Y-46926171D01*
X44703945Y-47086054D01*
X44863828Y-47217268D01*
X45046235Y-47314766D01*
X45200000Y-47361410D01*
X45200000Y-46590000D01*
X45700000Y-46590000D01*
X45700000Y-47361410D01*
X45853764Y-47314766D01*
X46036171Y-47217268D01*
X46196054Y-47086054D01*
X46327268Y-46926171D01*
X46424766Y-46743764D01*
X46471410Y-46590000D01*
X45700000Y-46590000D01*
X45200000Y-46590000D01*
X44428590Y-46590000D01*
X42789683Y-46590000D01*
X42806024Y-46536132D01*
X42825341Y-46340000D01*
X42806024Y-46143868D01*
X42757981Y-45985495D01*
X42754467Y-45928301D01*
X42777044Y-45875634D01*
X42820890Y-45838740D01*
X42876642Y-45825500D01*
X44341630Y-45825500D01*
X44397382Y-45838740D01*
X44441228Y-45875633D01*
X44463804Y-45928301D01*
X44460291Y-45985495D01*
X44428590Y-46090000D01*
X46471410Y-46090000D01*
X46439709Y-45985495D01*
X46436196Y-45928301D01*
X46458772Y-45875633D01*
X46502618Y-45838740D01*
X46558370Y-45825500D01*
X51133812Y-45825500D01*
X51181265Y-45834939D01*
X51221493Y-45861819D01*
X51915955Y-46556282D01*
X51923263Y-46564256D01*
X51947545Y-46593194D01*
X51961003Y-46600963D01*
X51980261Y-46612083D01*
X51989382Y-46617894D01*
X52021195Y-46640169D01*
X52045902Y-46650402D01*
X52047843Y-46650745D01*
X52099087Y-46672463D01*
X52135670Y-46714408D01*
X52197847Y-46830732D01*
X52234090Y-46898538D01*
X52359117Y-47050883D01*
X52511462Y-47175910D01*
X52685273Y-47268814D01*
X52873868Y-47326024D01*
X53070000Y-47345341D01*
X53266132Y-47326024D01*
X53454727Y-47268814D01*
X53587672Y-47197753D01*
X53638010Y-47183379D01*
X53689799Y-47191061D01*
X53733801Y-47219432D01*
X54195645Y-47681276D01*
X54202953Y-47689250D01*
X54227240Y-47718194D01*
X54251289Y-47732079D01*
X54259951Y-47737080D01*
X54269074Y-47742892D01*
X54300011Y-47764554D01*
X54300012Y-47764554D01*
X54300893Y-47765171D01*
X54325586Y-47775400D01*
X54326649Y-47775587D01*
X54326650Y-47775588D01*
X54363832Y-47782144D01*
X54363838Y-47782145D01*
X54374396Y-47784485D01*
X54410888Y-47794264D01*
X54448518Y-47790971D01*
X54459325Y-47790500D01*
X56275877Y-47790500D01*
X56334330Y-47805142D01*
X56378979Y-47845609D01*
X56399280Y-47902346D01*
X56390438Y-47961952D01*
X56354542Y-48010353D01*
X56203945Y-48133945D01*
X56072731Y-48293828D01*
X55975233Y-48476235D01*
X55928590Y-48630000D01*
X57971410Y-48630000D01*
X57924766Y-48476235D01*
X57827268Y-48293828D01*
X57696054Y-48133945D01*
X57545458Y-48010353D01*
X57509562Y-47961952D01*
X57500720Y-47902346D01*
X57521021Y-47845609D01*
X57565670Y-47805142D01*
X57624123Y-47790500D01*
X62515373Y-47790500D01*
X62526180Y-47790971D01*
X62563807Y-47794264D01*
X62600324Y-47784478D01*
X62610830Y-47782149D01*
X62648045Y-47775588D01*
X62648047Y-47775586D01*
X62649112Y-47775399D01*
X62673799Y-47765173D01*
X62674682Y-47764554D01*
X62674684Y-47764554D01*
X62705625Y-47742887D01*
X62714722Y-47737091D01*
X62747455Y-47718194D01*
X62771748Y-47689241D01*
X62779036Y-47681288D01*
X63559684Y-46900640D01*
X63619205Y-46867562D01*
X63687221Y-46870904D01*
X63743215Y-46909657D01*
X63859117Y-47050883D01*
X64011462Y-47175910D01*
X64185273Y-47268814D01*
X64373868Y-47326024D01*
X64570000Y-47345341D01*
X64766132Y-47326024D01*
X64954727Y-47268814D01*
X65128538Y-47175910D01*
X65280883Y-47050883D01*
X65333680Y-46986548D01*
X65389670Y-46947798D01*
X65457686Y-46944456D01*
X65517209Y-46977535D01*
X65885013Y-47345340D01*
X66220955Y-47681282D01*
X66228258Y-47689250D01*
X66252545Y-47718194D01*
X66285266Y-47737085D01*
X66294360Y-47742878D01*
X66325316Y-47764554D01*
X66325317Y-47764554D01*
X66326201Y-47765173D01*
X66350891Y-47775400D01*
X66351954Y-47775587D01*
X66351955Y-47775588D01*
X66389146Y-47782145D01*
X66399704Y-47784486D01*
X66436191Y-47794263D01*
X66436192Y-47794262D01*
X66436193Y-47794263D01*
X66473811Y-47790971D01*
X66484618Y-47790500D01*
X67525877Y-47790500D01*
X67584330Y-47805142D01*
X67628979Y-47845609D01*
X67649280Y-47902346D01*
X67640438Y-47961952D01*
X67604542Y-48010353D01*
X67453945Y-48133945D01*
X67322731Y-48293828D01*
X67225233Y-48476235D01*
X67178590Y-48630000D01*
X69221410Y-48630000D01*
X69174766Y-48476235D01*
X69077268Y-48293828D01*
X68946054Y-48133945D01*
X68795458Y-48010353D01*
X68759562Y-47961952D01*
X68750720Y-47902346D01*
X68771021Y-47845609D01*
X68815670Y-47805142D01*
X68874123Y-47790500D01*
X74675373Y-47790500D01*
X74686180Y-47790971D01*
X74723807Y-47794264D01*
X74760324Y-47784478D01*
X74770830Y-47782149D01*
X74808045Y-47775588D01*
X74808047Y-47775586D01*
X74809112Y-47775399D01*
X74833799Y-47765173D01*
X74834682Y-47764554D01*
X74834684Y-47764554D01*
X74865625Y-47742887D01*
X74874722Y-47737091D01*
X74907455Y-47718194D01*
X74931748Y-47689241D01*
X74939036Y-47681288D01*
X75318453Y-47301871D01*
X75376003Y-47269270D01*
X75442126Y-47270892D01*
X75623868Y-47326024D01*
X75820000Y-47345341D01*
X76016132Y-47326024D01*
X76204727Y-47268814D01*
X76378538Y-47175910D01*
X76530883Y-47050883D01*
X76655910Y-46898538D01*
X76748814Y-46724727D01*
X76806024Y-46536132D01*
X76825341Y-46340000D01*
X76809593Y-46180108D01*
X76819716Y-46117521D01*
X76859456Y-46068117D01*
X76918421Y-46044816D01*
X76981198Y-46053708D01*
X77031372Y-46092470D01*
X77097217Y-46178282D01*
X77190683Y-46250000D01*
X77222659Y-46274536D01*
X77368738Y-46335044D01*
X77525500Y-46355682D01*
X77682262Y-46335044D01*
X77828341Y-46274536D01*
X77953782Y-46178282D01*
X78050036Y-46052841D01*
X78110544Y-45906762D01*
X78131182Y-45750000D01*
X78110544Y-45593238D01*
X78050036Y-45447159D01*
X77953782Y-45321718D01*
X77899513Y-45280076D01*
X77863788Y-45236545D01*
X77851000Y-45181701D01*
X77851000Y-43934125D01*
X77851082Y-43932256D01*
X79919501Y-43932256D01*
X79940007Y-44101128D01*
X80000329Y-44260186D01*
X80096962Y-44400183D01*
X80096963Y-44400184D01*
X80096964Y-44400185D01*
X80224295Y-44512990D01*
X80374922Y-44592046D01*
X80540091Y-44632756D01*
X80710202Y-44632756D01*
X80710203Y-44632756D01*
X80875372Y-44592046D01*
X81025999Y-44512990D01*
X81153330Y-44400185D01*
X81226191Y-44294627D01*
X81274844Y-44253154D01*
X81337692Y-44241430D01*
X81398027Y-44262572D01*
X81446504Y-44295578D01*
X81524595Y-44311822D01*
X81524596Y-44311821D01*
X81524598Y-44311822D01*
X81583180Y-44300699D01*
X82546984Y-43911297D01*
X82596851Y-43878603D01*
X82641742Y-43812671D01*
X82641742Y-43812670D01*
X82641743Y-43812669D01*
X82657986Y-43734580D01*
X82655978Y-43724004D01*
X82646863Y-43675996D01*
X82257461Y-42712192D01*
X82239341Y-42684554D01*
X82224767Y-42662324D01*
X82158833Y-42617432D01*
X82080744Y-42601189D01*
X82022159Y-42612313D01*
X81058356Y-43001714D01*
X81008488Y-43034408D01*
X80963596Y-43100342D01*
X80951430Y-43158832D01*
X80921526Y-43217271D01*
X80865978Y-43252254D01*
X80800354Y-43253976D01*
X80710203Y-43231756D01*
X80540091Y-43231756D01*
X80518750Y-43237016D01*
X80374922Y-43272465D01*
X80224296Y-43351521D01*
X80096962Y-43464328D01*
X80000329Y-43604325D01*
X79940007Y-43763383D01*
X79919501Y-43932256D01*
X77851082Y-43932256D01*
X77851472Y-43923317D01*
X77854763Y-43885703D01*
X77854048Y-43883033D01*
X77844983Y-43849206D01*
X77842644Y-43838649D01*
X77842529Y-43837994D01*
X77836088Y-43801464D01*
X77836087Y-43801463D01*
X77835900Y-43800400D01*
X77825671Y-43775707D01*
X77824851Y-43774536D01*
X77823523Y-43772639D01*
X77802755Y-43721716D01*
X77806053Y-43666818D01*
X77832769Y-43618745D01*
X77877645Y-43586957D01*
X77964765Y-43550871D01*
X78090206Y-43454617D01*
X78186460Y-43329176D01*
X78246968Y-43183097D01*
X78267606Y-43026335D01*
X78246968Y-42869573D01*
X78186460Y-42723494D01*
X78090206Y-42598053D01*
X78035937Y-42556411D01*
X78000212Y-42512880D01*
X77987424Y-42458036D01*
X77987424Y-41530552D01*
X77987896Y-41519745D01*
X77989426Y-41502260D01*
X77991187Y-41482126D01*
X77991186Y-41482125D01*
X77991187Y-41482124D01*
X77981410Y-41445637D01*
X77979068Y-41435073D01*
X77972512Y-41397888D01*
X77972511Y-41397887D01*
X77972324Y-41396824D01*
X77962095Y-41372131D01*
X77961478Y-41371250D01*
X77961478Y-41371249D01*
X77939816Y-41340312D01*
X77934004Y-41331189D01*
X77915118Y-41298477D01*
X77886179Y-41274195D01*
X77878204Y-41266887D01*
X76530034Y-39918717D01*
X76522725Y-39910741D01*
X76498445Y-39881805D01*
X76465727Y-39862915D01*
X76456618Y-39857112D01*
X76425675Y-39835446D01*
X76424794Y-39834829D01*
X76400098Y-39824599D01*
X76361843Y-39817853D01*
X76351313Y-39815519D01*
X76349053Y-39814914D01*
X76297562Y-39786752D01*
X76264789Y-39738067D01*
X76258075Y-39679763D01*
X76278924Y-39624902D01*
X76322662Y-39585776D01*
X76378538Y-39555910D01*
X76530883Y-39430883D01*
X76655910Y-39278538D01*
X76748814Y-39104727D01*
X76806024Y-38916132D01*
X76825341Y-38720000D01*
X76806024Y-38523868D01*
X76748814Y-38335273D01*
X76655910Y-38161462D01*
X76530883Y-38009117D01*
X76378538Y-37884090D01*
X76351779Y-37869787D01*
X76204726Y-37791185D01*
X76016133Y-37733976D01*
X75820000Y-37714659D01*
X75623866Y-37733976D01*
X75435273Y-37791185D01*
X75261463Y-37884089D01*
X75109117Y-38009117D01*
X74984090Y-38161461D01*
X74894563Y-38328954D01*
X74848954Y-38376858D01*
X74785205Y-38394500D01*
X72799628Y-38394500D01*
X72788820Y-38394028D01*
X72751192Y-38390735D01*
X72714704Y-38400512D01*
X72704148Y-38402852D01*
X72665899Y-38409597D01*
X72641193Y-38419831D01*
X72609380Y-38442106D01*
X72600264Y-38447914D01*
X72567545Y-38466805D01*
X72543262Y-38495744D01*
X72535956Y-38503716D01*
X72171684Y-38867988D01*
X72123862Y-38897726D01*
X72067818Y-38903246D01*
X72000000Y-38894317D01*
X71843237Y-38914956D01*
X71697159Y-38975463D01*
X71571717Y-39071717D01*
X71475463Y-39197159D01*
X71414956Y-39343237D01*
X71394317Y-39500000D01*
X71414956Y-39656762D01*
X71444483Y-39728048D01*
X71453325Y-39787655D01*
X71433024Y-39844391D01*
X71388375Y-39884858D01*
X71329922Y-39899500D01*
X69891189Y-39899500D01*
X69843736Y-39890061D01*
X69803508Y-39863181D01*
X69483912Y-39543585D01*
X69161872Y-39221546D01*
X69129270Y-39163995D01*
X69130894Y-39097870D01*
X69138827Y-39071718D01*
X69186024Y-38916132D01*
X69205341Y-38720000D01*
X69186024Y-38523868D01*
X69128814Y-38335273D01*
X69035910Y-38161462D01*
X68910883Y-38009117D01*
X68758538Y-37884090D01*
X68731779Y-37869787D01*
X68584726Y-37791185D01*
X68396133Y-37733976D01*
X68200000Y-37714659D01*
X68003866Y-37733976D01*
X67815273Y-37791185D01*
X67641463Y-37884089D01*
X67489117Y-38009117D01*
X67364089Y-38161463D01*
X67308858Y-38264794D01*
X67264290Y-38312068D01*
X67201935Y-38330317D01*
X67138911Y-38314531D01*
X67092521Y-38269043D01*
X67075500Y-38206341D01*
X67075500Y-36693659D01*
X67092521Y-36630957D01*
X67138911Y-36585469D01*
X67201935Y-36569683D01*
X67264290Y-36587932D01*
X67308857Y-36635205D01*
X67364090Y-36738538D01*
X67489117Y-36890883D01*
X67641462Y-37015910D01*
X67815273Y-37108814D01*
X68003868Y-37166024D01*
X68200000Y-37185341D01*
X68396132Y-37166024D01*
X68584727Y-37108814D01*
X68758538Y-37015910D01*
X68910883Y-36890883D01*
X69035910Y-36738538D01*
X69104003Y-36611145D01*
X69125437Y-36571046D01*
X69171046Y-36523142D01*
X69234795Y-36505500D01*
X72300373Y-36505500D01*
X72311180Y-36505971D01*
X72348807Y-36509264D01*
X72385324Y-36499478D01*
X72395830Y-36497149D01*
X72433045Y-36490588D01*
X72433047Y-36490586D01*
X72434112Y-36490399D01*
X72458796Y-36480174D01*
X72459680Y-36479555D01*
X72459684Y-36479554D01*
X72467603Y-36474008D01*
X72524328Y-36452421D01*
X72584506Y-36460342D01*
X72633716Y-36495874D01*
X72660166Y-36550505D01*
X72657519Y-36611145D01*
X72626409Y-36663263D01*
X72421684Y-36867988D01*
X72373862Y-36897726D01*
X72317818Y-36903246D01*
X72250000Y-36894317D01*
X72093237Y-36914956D01*
X71947159Y-36975463D01*
X71821717Y-37071717D01*
X71725463Y-37197159D01*
X71664956Y-37343237D01*
X71644317Y-37500000D01*
X71664956Y-37656762D01*
X71725463Y-37802840D01*
X71821717Y-37928282D01*
X71947159Y-38024536D01*
X72093238Y-38085044D01*
X72250000Y-38105682D01*
X72406762Y-38085044D01*
X72552841Y-38024536D01*
X72678282Y-37928282D01*
X72774536Y-37802841D01*
X72835044Y-37656762D01*
X72855682Y-37500000D01*
X72846753Y-37432180D01*
X72852273Y-37376137D01*
X72882011Y-37328314D01*
X73668507Y-36541819D01*
X73708735Y-36514939D01*
X73756188Y-36505500D01*
X74785205Y-36505500D01*
X74848954Y-36523142D01*
X74894563Y-36571046D01*
X74963929Y-36700820D01*
X74984090Y-36738538D01*
X75109117Y-36890883D01*
X75261462Y-37015910D01*
X75435273Y-37108814D01*
X75623868Y-37166024D01*
X75820000Y-37185341D01*
X76016132Y-37166024D01*
X76204727Y-37108814D01*
X76378538Y-37015910D01*
X76530883Y-36890883D01*
X76655910Y-36738538D01*
X76748814Y-36564727D01*
X76788999Y-36432256D01*
X79919501Y-36432256D01*
X79940007Y-36601128D01*
X80000329Y-36760186D01*
X80096962Y-36900183D01*
X80096963Y-36900184D01*
X80096964Y-36900185D01*
X80224295Y-37012990D01*
X80374922Y-37092046D01*
X80540091Y-37132756D01*
X80710202Y-37132756D01*
X80710203Y-37132756D01*
X80875372Y-37092046D01*
X81025999Y-37012990D01*
X81153330Y-36900185D01*
X81226191Y-36794627D01*
X81274844Y-36753154D01*
X81337692Y-36741430D01*
X81398027Y-36762572D01*
X81446504Y-36795578D01*
X81524595Y-36811822D01*
X81524596Y-36811821D01*
X81524598Y-36811822D01*
X81583180Y-36800699D01*
X82546984Y-36411297D01*
X82596851Y-36378603D01*
X82641742Y-36312671D01*
X82641742Y-36312670D01*
X82641743Y-36312669D01*
X82657986Y-36234580D01*
X82650881Y-36197159D01*
X82646863Y-36175996D01*
X82257461Y-35212192D01*
X82245518Y-35193976D01*
X82224767Y-35162324D01*
X82158833Y-35117432D01*
X82080744Y-35101189D01*
X82022159Y-35112313D01*
X81058356Y-35501714D01*
X81008488Y-35534408D01*
X80963596Y-35600342D01*
X80951430Y-35658832D01*
X80921526Y-35717271D01*
X80865978Y-35752254D01*
X80800354Y-35753976D01*
X80710203Y-35731756D01*
X80540091Y-35731756D01*
X80520998Y-35736462D01*
X80374922Y-35772465D01*
X80224296Y-35851521D01*
X80096962Y-35964328D01*
X80000329Y-36104325D01*
X79940007Y-36263383D01*
X79919501Y-36432256D01*
X76788999Y-36432256D01*
X76806024Y-36376132D01*
X76825341Y-36180000D01*
X76806024Y-35983868D01*
X76748814Y-35795273D01*
X76655910Y-35621462D01*
X76530883Y-35469117D01*
X76378538Y-35344090D01*
X76356091Y-35332091D01*
X76204726Y-35251185D01*
X76016133Y-35193976D01*
X75820000Y-35174659D01*
X75623866Y-35193976D01*
X75435273Y-35251185D01*
X75261463Y-35344089D01*
X75109117Y-35469117D01*
X74984090Y-35621461D01*
X74894563Y-35788954D01*
X74848954Y-35836858D01*
X74785205Y-35854500D01*
X73589628Y-35854500D01*
X73578819Y-35854028D01*
X73541192Y-35850735D01*
X73504706Y-35860512D01*
X73494148Y-35862852D01*
X73455899Y-35869597D01*
X73431192Y-35879831D01*
X73422383Y-35886000D01*
X73365655Y-35907585D01*
X73305479Y-35899661D01*
X73256272Y-35864127D01*
X73229824Y-35809497D01*
X73232473Y-35748859D01*
X73263580Y-35696744D01*
X73328315Y-35632009D01*
X73376136Y-35602273D01*
X73432180Y-35596753D01*
X73438477Y-35597582D01*
X73500000Y-35605682D01*
X73503233Y-35605256D01*
X73512148Y-35606330D01*
X73520747Y-35602950D01*
X73656762Y-35585044D01*
X73802841Y-35524536D01*
X73928282Y-35428282D01*
X74024536Y-35302841D01*
X74085044Y-35156762D01*
X74105682Y-35000000D01*
X74085044Y-34843238D01*
X74024536Y-34697159D01*
X74006879Y-34674148D01*
X73928282Y-34571717D01*
X73802840Y-34475463D01*
X73656762Y-34414956D01*
X73500000Y-34394317D01*
X73343237Y-34414956D01*
X73197159Y-34475463D01*
X73071717Y-34571717D01*
X72975463Y-34697159D01*
X72914956Y-34843237D01*
X72894317Y-35000000D01*
X72903246Y-35067818D01*
X72897726Y-35123862D01*
X72867988Y-35171684D01*
X72221493Y-35818181D01*
X72181265Y-35845061D01*
X72133812Y-35854500D01*
X69234795Y-35854500D01*
X69171046Y-35836858D01*
X69125437Y-35788954D01*
X69074876Y-35694362D01*
X69035910Y-35621462D01*
X68910883Y-35469117D01*
X68758538Y-35344090D01*
X68736091Y-35332091D01*
X68584726Y-35251185D01*
X68396133Y-35193976D01*
X68200000Y-35174659D01*
X68003866Y-35193976D01*
X67815273Y-35251185D01*
X67641463Y-35344089D01*
X67489117Y-35469117D01*
X67364089Y-35621463D01*
X67293698Y-35753155D01*
X67252780Y-35798104D01*
X67195416Y-35818206D01*
X67135391Y-35808632D01*
X67087128Y-35771681D01*
X67062224Y-35716234D01*
X67060400Y-35705891D01*
X67050171Y-35681198D01*
X67049554Y-35680317D01*
X67049554Y-35680316D01*
X67027892Y-35649379D01*
X67022080Y-35640256D01*
X67003194Y-35607544D01*
X66974255Y-35583262D01*
X66966280Y-35575954D01*
X65531873Y-34141547D01*
X65499270Y-34083995D01*
X65500894Y-34017870D01*
X65527064Y-33931599D01*
X65556024Y-33836132D01*
X65575341Y-33640000D01*
X65556024Y-33443868D01*
X65498814Y-33255273D01*
X65405910Y-33081462D01*
X65321134Y-32978162D01*
X65293921Y-32914680D01*
X65304893Y-32846484D01*
X65350648Y-32794738D01*
X65416988Y-32775500D01*
X67353012Y-32775500D01*
X67419352Y-32794738D01*
G37*
%TD.AperFunction*%
%TA.AperFunction,Conductor*%
G36*
X34701546Y-44761872D02*
G01*
X34901479Y-44961806D01*
X35080955Y-45141282D01*
X35088262Y-45149255D01*
X35112545Y-45178194D01*
X35145266Y-45197085D01*
X35154360Y-45202878D01*
X35185316Y-45224554D01*
X35185317Y-45224554D01*
X35186201Y-45225173D01*
X35210891Y-45235400D01*
X35211954Y-45235587D01*
X35211955Y-45235588D01*
X35249146Y-45242145D01*
X35259704Y-45244486D01*
X35296191Y-45254263D01*
X35296192Y-45254262D01*
X35296193Y-45254263D01*
X35333811Y-45250971D01*
X35344618Y-45250500D01*
X39375045Y-45250500D01*
X39434213Y-45265527D01*
X39479040Y-45306965D01*
X39498663Y-45364771D01*
X39488325Y-45424935D01*
X39450531Y-45472876D01*
X39321717Y-45571717D01*
X39225463Y-45697159D01*
X39164956Y-45843237D01*
X39144317Y-46000000D01*
X39153246Y-46067818D01*
X39147726Y-46123862D01*
X39117988Y-46171684D01*
X35108714Y-50180958D01*
X35100741Y-50188264D01*
X35071806Y-50212544D01*
X35052914Y-50245264D01*
X35047106Y-50254380D01*
X35024831Y-50286193D01*
X35014597Y-50310899D01*
X35007852Y-50349148D01*
X35005512Y-50359704D01*
X34995735Y-50396192D01*
X34999028Y-50433820D01*
X34999500Y-50444628D01*
X34999500Y-59975500D01*
X34982887Y-60037500D01*
X34937500Y-60082887D01*
X34875500Y-60099500D01*
X33524500Y-60099500D01*
X33462500Y-60082887D01*
X33417113Y-60037500D01*
X33400500Y-59975500D01*
X33400500Y-49844370D01*
X33419738Y-49778030D01*
X33471483Y-49732275D01*
X33539679Y-49721303D01*
X33603165Y-49748517D01*
X33613828Y-49757268D01*
X33796235Y-49854766D01*
X33950000Y-49901410D01*
X33950000Y-49130000D01*
X34450000Y-49130000D01*
X34450000Y-49901410D01*
X34603764Y-49854766D01*
X34786171Y-49757268D01*
X34946054Y-49626054D01*
X35077268Y-49466171D01*
X35174766Y-49283764D01*
X35221410Y-49130000D01*
X34450000Y-49130000D01*
X33950000Y-49130000D01*
X33950000Y-47858590D01*
X34450000Y-47858590D01*
X34450000Y-48630000D01*
X35221410Y-48630000D01*
X35174766Y-48476235D01*
X35077268Y-48293828D01*
X34946054Y-48133945D01*
X34786171Y-48002731D01*
X34603764Y-47905233D01*
X34450000Y-47858590D01*
X33950000Y-47858590D01*
X33796235Y-47905233D01*
X33613828Y-48002731D01*
X33603165Y-48011483D01*
X33539679Y-48038697D01*
X33471483Y-48027725D01*
X33419738Y-47981970D01*
X33400500Y-47915630D01*
X33400500Y-47304370D01*
X33419738Y-47238030D01*
X33471483Y-47192275D01*
X33539679Y-47181303D01*
X33603165Y-47208517D01*
X33613828Y-47217268D01*
X33796235Y-47314766D01*
X33950000Y-47361410D01*
X33950000Y-46590000D01*
X34450000Y-46590000D01*
X34450000Y-47361410D01*
X34603764Y-47314766D01*
X34786171Y-47217268D01*
X34946054Y-47086054D01*
X35077268Y-46926171D01*
X35174766Y-46743764D01*
X35221410Y-46590000D01*
X34450000Y-46590000D01*
X33950000Y-46590000D01*
X33950000Y-45318590D01*
X34450000Y-45318590D01*
X34450000Y-46090000D01*
X35221410Y-46090000D01*
X35174766Y-45936235D01*
X35077268Y-45753828D01*
X34946054Y-45593945D01*
X34786171Y-45462731D01*
X34603764Y-45365233D01*
X34450000Y-45318590D01*
X33950000Y-45318590D01*
X33796235Y-45365233D01*
X33613828Y-45462731D01*
X33603165Y-45471483D01*
X33539679Y-45498697D01*
X33471483Y-45487725D01*
X33419738Y-45441970D01*
X33400500Y-45375630D01*
X33400500Y-45111188D01*
X33409939Y-45063735D01*
X33436819Y-45023507D01*
X33564134Y-44896192D01*
X33698452Y-44761872D01*
X33756004Y-44729270D01*
X33822126Y-44730892D01*
X34003868Y-44786024D01*
X34200000Y-44805341D01*
X34396132Y-44786024D01*
X34577870Y-44730893D01*
X34643995Y-44729270D01*
X34701546Y-44761872D01*
G37*
%TD.AperFunction*%
%TA.AperFunction,Conductor*%
G36*
X74556265Y-43009939D02*
G01*
X74596493Y-43036819D01*
X74858126Y-43298452D01*
X74890729Y-43356003D01*
X74889106Y-43422128D01*
X74833975Y-43603869D01*
X74814659Y-43800000D01*
X74833976Y-43996133D01*
X74891185Y-44184726D01*
X74932795Y-44262572D01*
X74984090Y-44358538D01*
X75109117Y-44510883D01*
X75261462Y-44635910D01*
X75435273Y-44728814D01*
X75623868Y-44786024D01*
X75820000Y-44805341D01*
X76016132Y-44786024D01*
X76204727Y-44728814D01*
X76378538Y-44635910D01*
X76530883Y-44510883D01*
X76655910Y-44358538D01*
X76748814Y-44184727D01*
X76806024Y-43996132D01*
X76810880Y-43946826D01*
X76836528Y-43882692D01*
X76892508Y-43842230D01*
X76961451Y-43837994D01*
X77021964Y-43871300D01*
X77163681Y-44013017D01*
X77190561Y-44053245D01*
X77200000Y-44100698D01*
X77200000Y-45181701D01*
X77187212Y-45236545D01*
X77151486Y-45280077D01*
X77097217Y-45321718D01*
X77000963Y-45447159D01*
X76940456Y-45593237D01*
X76919817Y-45750000D01*
X76922606Y-45771180D01*
X76912614Y-45838541D01*
X76868557Y-45890468D01*
X76803724Y-45911299D01*
X76737667Y-45894752D01*
X76690309Y-45845818D01*
X76675485Y-45818085D01*
X76655910Y-45781462D01*
X76530883Y-45629117D01*
X76378538Y-45504090D01*
X76230450Y-45424935D01*
X76204726Y-45411185D01*
X76016133Y-45353976D01*
X75820000Y-45334659D01*
X75623866Y-45353976D01*
X75435273Y-45411185D01*
X75261463Y-45504089D01*
X75109117Y-45629117D01*
X74984089Y-45781463D01*
X74891185Y-45955273D01*
X74833976Y-46143866D01*
X74814659Y-46340000D01*
X74833975Y-46536130D01*
X74889106Y-46717870D01*
X74890729Y-46783994D01*
X74858126Y-46841546D01*
X74596490Y-47103183D01*
X74556265Y-47130061D01*
X74508812Y-47139500D01*
X69164370Y-47139500D01*
X69098030Y-47120262D01*
X69052275Y-47068517D01*
X69041303Y-47000321D01*
X69068517Y-46936835D01*
X69077268Y-46926171D01*
X69174766Y-46743764D01*
X69221410Y-46590000D01*
X67178590Y-46590000D01*
X67225233Y-46743764D01*
X67322731Y-46926171D01*
X67331483Y-46936835D01*
X67358697Y-47000321D01*
X67347725Y-47068517D01*
X67301970Y-47120262D01*
X67235630Y-47139500D01*
X66651189Y-47139500D01*
X66603736Y-47130061D01*
X66563508Y-47103181D01*
X65584043Y-46123717D01*
X65576744Y-46115753D01*
X65555135Y-46090000D01*
X67178590Y-46090000D01*
X67950000Y-46090000D01*
X67950000Y-45318590D01*
X68450000Y-45318590D01*
X68450000Y-46090000D01*
X69221410Y-46090000D01*
X69174766Y-45936235D01*
X69077268Y-45753828D01*
X68946054Y-45593945D01*
X68786171Y-45462731D01*
X68603764Y-45365233D01*
X68450000Y-45318590D01*
X67950000Y-45318590D01*
X67796235Y-45365233D01*
X67613828Y-45462731D01*
X67453945Y-45593945D01*
X67322731Y-45753828D01*
X67225233Y-45936235D01*
X67178590Y-46090000D01*
X65555135Y-46090000D01*
X65552455Y-46086806D01*
X65552451Y-46086804D01*
X65547240Y-46080593D01*
X65523569Y-46036883D01*
X65498814Y-45955273D01*
X65405910Y-45781462D01*
X65280883Y-45629117D01*
X65128538Y-45504090D01*
X65118448Y-45498697D01*
X65090687Y-45483858D01*
X65043413Y-45439290D01*
X65025164Y-45376935D01*
X65040950Y-45313911D01*
X65086438Y-45267521D01*
X65149140Y-45250500D01*
X67055373Y-45250500D01*
X67066180Y-45250971D01*
X67103807Y-45254264D01*
X67140324Y-45244478D01*
X67150830Y-45242149D01*
X67188045Y-45235588D01*
X67188047Y-45235586D01*
X67189112Y-45235399D01*
X67213799Y-45225173D01*
X67214682Y-45224554D01*
X67214684Y-45224554D01*
X67245625Y-45202887D01*
X67254722Y-45197091D01*
X67287455Y-45178194D01*
X67311748Y-45149241D01*
X67319036Y-45141288D01*
X67698453Y-44761871D01*
X67756003Y-44729270D01*
X67822126Y-44730892D01*
X68003868Y-44786024D01*
X68200000Y-44805341D01*
X68396132Y-44786024D01*
X68584727Y-44728814D01*
X68758538Y-44635910D01*
X68910883Y-44510883D01*
X69035910Y-44358538D01*
X69128814Y-44184727D01*
X69186024Y-43996132D01*
X69205341Y-43800000D01*
X69186024Y-43603868D01*
X69128814Y-43415273D01*
X69035910Y-43241462D01*
X69004479Y-43203164D01*
X68977266Y-43139679D01*
X68988238Y-43071483D01*
X69033993Y-43019738D01*
X69100333Y-43000500D01*
X74508812Y-43000500D01*
X74556265Y-43009939D01*
G37*
%TD.AperFunction*%
%TA.AperFunction,Conductor*%
G36*
X57451546Y-44761872D02*
G01*
X57651479Y-44961806D01*
X57830955Y-45141282D01*
X57838262Y-45149255D01*
X57862545Y-45178194D01*
X57895266Y-45197085D01*
X57904360Y-45202878D01*
X57935316Y-45224554D01*
X57935317Y-45224554D01*
X57936201Y-45225173D01*
X57960891Y-45235400D01*
X57961954Y-45235587D01*
X57961955Y-45235588D01*
X57999146Y-45242145D01*
X58009704Y-45244486D01*
X58046191Y-45254263D01*
X58046192Y-45254262D01*
X58046193Y-45254263D01*
X58083811Y-45250971D01*
X58094618Y-45250500D01*
X63990860Y-45250500D01*
X64053562Y-45267521D01*
X64099050Y-45313911D01*
X64114836Y-45376935D01*
X64096587Y-45439290D01*
X64049313Y-45483858D01*
X64011463Y-45504089D01*
X63859117Y-45629117D01*
X63734090Y-45781461D01*
X63635669Y-45965593D01*
X63599089Y-46007535D01*
X63547848Y-46029254D01*
X63545901Y-46029597D01*
X63521192Y-46039832D01*
X63489378Y-46062107D01*
X63480261Y-46067915D01*
X63447545Y-46086804D01*
X63423262Y-46115743D01*
X63415956Y-46123715D01*
X62436493Y-47103181D01*
X62396265Y-47130061D01*
X62348812Y-47139500D01*
X57914370Y-47139500D01*
X57848030Y-47120262D01*
X57802275Y-47068517D01*
X57791303Y-47000321D01*
X57818517Y-46936835D01*
X57827268Y-46926171D01*
X57924766Y-46743764D01*
X57971410Y-46590000D01*
X55928590Y-46590000D01*
X55975233Y-46743764D01*
X56072731Y-46926171D01*
X56081483Y-46936835D01*
X56108697Y-47000321D01*
X56097725Y-47068517D01*
X56051970Y-47120262D01*
X55985630Y-47139500D01*
X54625883Y-47139500D01*
X54578430Y-47130061D01*
X54538202Y-47103181D01*
X54136819Y-46701798D01*
X54109939Y-46661570D01*
X54100500Y-46614117D01*
X54100500Y-46544628D01*
X54100972Y-46533820D01*
X54104264Y-46496194D01*
X54094478Y-46459676D01*
X54092147Y-46449161D01*
X54085588Y-46411955D01*
X54085587Y-46411954D01*
X54084159Y-46403849D01*
X54076883Y-46384987D01*
X54074685Y-46346657D01*
X54075341Y-46340000D01*
X54056024Y-46143868D01*
X54039683Y-46090000D01*
X55928590Y-46090000D01*
X56700000Y-46090000D01*
X56700000Y-45318590D01*
X57200000Y-45318590D01*
X57200000Y-46090000D01*
X57971410Y-46090000D01*
X57924766Y-45936235D01*
X57827268Y-45753828D01*
X57696054Y-45593945D01*
X57536171Y-45462731D01*
X57353764Y-45365233D01*
X57200000Y-45318590D01*
X56700000Y-45318590D01*
X56546235Y-45365233D01*
X56363828Y-45462731D01*
X56203945Y-45593945D01*
X56072731Y-45753828D01*
X55975233Y-45936235D01*
X55928590Y-46090000D01*
X54039683Y-46090000D01*
X53998814Y-45955273D01*
X53905910Y-45781462D01*
X53780883Y-45629117D01*
X53628538Y-45504090D01*
X53618448Y-45498697D01*
X53590687Y-45483858D01*
X53543413Y-45439290D01*
X53525164Y-45376935D01*
X53540950Y-45313911D01*
X53586438Y-45267521D01*
X53649140Y-45250500D01*
X55805373Y-45250500D01*
X55816180Y-45250971D01*
X55853807Y-45254264D01*
X55890324Y-45244478D01*
X55900830Y-45242149D01*
X55938045Y-45235588D01*
X55938047Y-45235586D01*
X55939112Y-45235399D01*
X55963799Y-45225173D01*
X55964682Y-45224554D01*
X55964684Y-45224554D01*
X55995625Y-45202887D01*
X56004722Y-45197091D01*
X56037455Y-45178194D01*
X56061748Y-45149241D01*
X56069036Y-45141288D01*
X56448453Y-44761871D01*
X56506003Y-44729270D01*
X56572126Y-44730892D01*
X56753868Y-44786024D01*
X56950000Y-44805341D01*
X57146132Y-44786024D01*
X57327870Y-44730893D01*
X57393995Y-44729270D01*
X57451546Y-44761872D01*
G37*
%TD.AperFunction*%
%TA.AperFunction,Conductor*%
G36*
X48296105Y-25014015D02*
G01*
X48340128Y-25051615D01*
X48362283Y-25105102D01*
X48357741Y-25162818D01*
X48327491Y-25212181D01*
X46671684Y-26867988D01*
X46623862Y-26897726D01*
X46567818Y-26903246D01*
X46500000Y-26894317D01*
X46343237Y-26914956D01*
X46197159Y-26975463D01*
X46071717Y-27071717D01*
X45975463Y-27197159D01*
X45914956Y-27343237D01*
X45894317Y-27500000D01*
X45914956Y-27656762D01*
X45975463Y-27802840D01*
X46071717Y-27928282D01*
X46164942Y-27999815D01*
X46197159Y-28024536D01*
X46343238Y-28085044D01*
X46500000Y-28105682D01*
X46656762Y-28085044D01*
X46802841Y-28024536D01*
X46928282Y-27928282D01*
X47024536Y-27802841D01*
X47085044Y-27656762D01*
X47105682Y-27500000D01*
X47096753Y-27432180D01*
X47102273Y-27376137D01*
X47132011Y-27328314D01*
X47533526Y-26926800D01*
X48773507Y-25686819D01*
X48813736Y-25659939D01*
X48861189Y-25650500D01*
X72909188Y-25650500D01*
X72962205Y-25662406D01*
X73005042Y-25695836D01*
X73029472Y-25744372D01*
X73030805Y-25798693D01*
X73029500Y-25805253D01*
X73029500Y-26844749D01*
X73041132Y-26903230D01*
X73085447Y-26969552D01*
X73151769Y-27013867D01*
X73210251Y-27025500D01*
X73210252Y-27025500D01*
X73280500Y-27025500D01*
X73342500Y-27042113D01*
X73387887Y-27087500D01*
X73404500Y-27149500D01*
X73404500Y-28990372D01*
X73404028Y-29001180D01*
X73400735Y-29038807D01*
X73401128Y-29040272D01*
X73402413Y-29099207D01*
X73376338Y-29152075D01*
X73328798Y-29186928D01*
X73323505Y-29189120D01*
X73284167Y-29198291D01*
X73253982Y-29195318D01*
X73211582Y-29199028D01*
X73200774Y-29199500D01*
X41494628Y-29199500D01*
X41483820Y-29199028D01*
X41446192Y-29195735D01*
X41409704Y-29205512D01*
X41399148Y-29207852D01*
X41360899Y-29214597D01*
X41336193Y-29224831D01*
X41304380Y-29247106D01*
X41295264Y-29252914D01*
X41262545Y-29271805D01*
X41238262Y-29300744D01*
X41230956Y-29308716D01*
X36033714Y-34505958D01*
X36025741Y-34513264D01*
X35996806Y-34537544D01*
X35977914Y-34570264D01*
X35972106Y-34579380D01*
X35949831Y-34611193D01*
X35939597Y-34635899D01*
X35932852Y-34674148D01*
X35930512Y-34684704D01*
X35920735Y-34721192D01*
X35924028Y-34758820D01*
X35924500Y-34769628D01*
X35924500Y-36181701D01*
X35911712Y-36236545D01*
X35875986Y-36280077D01*
X35821717Y-36321718D01*
X35725463Y-36447159D01*
X35664956Y-36593237D01*
X35644317Y-36749999D01*
X35664956Y-36906762D01*
X35725462Y-37052838D01*
X35738641Y-37070013D01*
X35763668Y-37133346D01*
X35751477Y-37200344D01*
X35705745Y-37250801D01*
X35640265Y-37269500D01*
X34779140Y-37269500D01*
X34716438Y-37252479D01*
X34670950Y-37206089D01*
X34655164Y-37143065D01*
X34673413Y-37080710D01*
X34720687Y-37036142D01*
X34731188Y-37030529D01*
X34758538Y-37015910D01*
X34910883Y-36890883D01*
X35035910Y-36738538D01*
X35128814Y-36564727D01*
X35186024Y-36376132D01*
X35205341Y-36180000D01*
X35186024Y-35983868D01*
X35128814Y-35795273D01*
X35035910Y-35621462D01*
X34910883Y-35469117D01*
X34758538Y-35344090D01*
X34736091Y-35332091D01*
X34584726Y-35251185D01*
X34396133Y-35193976D01*
X34200000Y-35174659D01*
X34003866Y-35193976D01*
X33815273Y-35251185D01*
X33641463Y-35344089D01*
X33489117Y-35469117D01*
X33364089Y-35621463D01*
X33271185Y-35795273D01*
X33213976Y-35983866D01*
X33194659Y-36180000D01*
X33213976Y-36376133D01*
X33271185Y-36564726D01*
X33326517Y-36668244D01*
X33364090Y-36738538D01*
X33489117Y-36890883D01*
X33641462Y-37015910D01*
X33668812Y-37030529D01*
X33679313Y-37036142D01*
X33726587Y-37080710D01*
X33744836Y-37143065D01*
X33729050Y-37206089D01*
X33683562Y-37252479D01*
X33620860Y-37269500D01*
X28560781Y-37269500D01*
X28495807Y-37251114D01*
X28450100Y-37201409D01*
X28437216Y-37135124D01*
X28460974Y-37071916D01*
X28514330Y-37030529D01*
X28724801Y-36945493D01*
X28841645Y-36898285D01*
X28891512Y-36865591D01*
X28936403Y-36799659D01*
X28948570Y-36741165D01*
X28978474Y-36682729D01*
X29034022Y-36647745D01*
X29099643Y-36646023D01*
X29189798Y-36668244D01*
X29359909Y-36668244D01*
X29359910Y-36668244D01*
X29525079Y-36627534D01*
X29675706Y-36548478D01*
X29803037Y-36435673D01*
X29899672Y-36295674D01*
X29959994Y-36136616D01*
X29980499Y-35967744D01*
X29959994Y-35798872D01*
X29899672Y-35639814D01*
X29809943Y-35509820D01*
X29803038Y-35499816D01*
X29750997Y-35453712D01*
X29675706Y-35387010D01*
X29653814Y-35375520D01*
X29525078Y-35307953D01*
X29400619Y-35277277D01*
X29359910Y-35267244D01*
X29189798Y-35267244D01*
X29157138Y-35275293D01*
X29024629Y-35307953D01*
X28874003Y-35387009D01*
X28746668Y-35499817D01*
X28673809Y-35605371D01*
X28625155Y-35646845D01*
X28562308Y-35658569D01*
X28501973Y-35637428D01*
X28453494Y-35604420D01*
X28375405Y-35588177D01*
X28316820Y-35599301D01*
X27353017Y-35988702D01*
X27303149Y-36021396D01*
X27258257Y-36087330D01*
X27242014Y-36165419D01*
X27253138Y-36224004D01*
X27642539Y-37187807D01*
X27675234Y-37237675D01*
X27686354Y-37245247D01*
X27723339Y-37284693D01*
X27740021Y-37336128D01*
X27733226Y-37389773D01*
X27704247Y-37435425D01*
X25926493Y-39213181D01*
X25886265Y-39240061D01*
X25838812Y-39249500D01*
X25124500Y-39249500D01*
X25062500Y-39232887D01*
X25017113Y-39187500D01*
X25000500Y-39125500D01*
X25000500Y-33639999D01*
X33194659Y-33639999D01*
X33213976Y-33836133D01*
X33271185Y-34024726D01*
X33302865Y-34083995D01*
X33364090Y-34198538D01*
X33489117Y-34350883D01*
X33641462Y-34475910D01*
X33815273Y-34568814D01*
X34003868Y-34626024D01*
X34200000Y-34645341D01*
X34396132Y-34626024D01*
X34584727Y-34568814D01*
X34758538Y-34475910D01*
X34910883Y-34350883D01*
X35035910Y-34198538D01*
X35128814Y-34024727D01*
X35186024Y-33836132D01*
X35205341Y-33640000D01*
X35186024Y-33443868D01*
X35130892Y-33262126D01*
X35129270Y-33196003D01*
X35161871Y-33138453D01*
X37741290Y-30559034D01*
X37749258Y-30551734D01*
X37778192Y-30527457D01*
X37778192Y-30527456D01*
X37778194Y-30527455D01*
X37797091Y-30494722D01*
X37802887Y-30485625D01*
X37824554Y-30454684D01*
X37824554Y-30454682D01*
X37825173Y-30453799D01*
X37835398Y-30429112D01*
X37835585Y-30428049D01*
X37835588Y-30428045D01*
X37842150Y-30390822D01*
X37844479Y-30380316D01*
X37854263Y-30343807D01*
X37850971Y-30306188D01*
X37850500Y-30295382D01*
X37850500Y-29161188D01*
X37859939Y-29113735D01*
X37886819Y-29073507D01*
X38229368Y-28730958D01*
X39328315Y-27632009D01*
X39376136Y-27602273D01*
X39432180Y-27596753D01*
X39500000Y-27605682D01*
X39656762Y-27585044D01*
X39802841Y-27524536D01*
X39928282Y-27428282D01*
X40024536Y-27302841D01*
X40085044Y-27156762D01*
X40105682Y-27000000D01*
X40085044Y-26843238D01*
X40024536Y-26697159D01*
X39990245Y-26652470D01*
X39928282Y-26571717D01*
X39802840Y-26475463D01*
X39656762Y-26414956D01*
X39500000Y-26394317D01*
X39343237Y-26414956D01*
X39197159Y-26475463D01*
X39071717Y-26571717D01*
X38975463Y-26697159D01*
X38914956Y-26843237D01*
X38894317Y-27000000D01*
X38903246Y-27067818D01*
X38897726Y-27123862D01*
X38867988Y-27171684D01*
X37308714Y-28730958D01*
X37300741Y-28738264D01*
X37271806Y-28762544D01*
X37252914Y-28795264D01*
X37247106Y-28804380D01*
X37224831Y-28836193D01*
X37214597Y-28860899D01*
X37207852Y-28899148D01*
X37205512Y-28909704D01*
X37195735Y-28946192D01*
X37199028Y-28983820D01*
X37199500Y-28994628D01*
X37199500Y-30128812D01*
X37190061Y-30176265D01*
X37163181Y-30216493D01*
X35412181Y-31967492D01*
X35362818Y-31997742D01*
X35305102Y-32002284D01*
X35251615Y-31980129D01*
X35214015Y-31936106D01*
X35200500Y-31879811D01*
X35200500Y-30280251D01*
X35188867Y-30221769D01*
X35144552Y-30155447D01*
X35078230Y-30111132D01*
X35019749Y-30099500D01*
X35019748Y-30099500D01*
X33380252Y-30099500D01*
X33380251Y-30099500D01*
X33321769Y-30111132D01*
X33255447Y-30155447D01*
X33211132Y-30221769D01*
X33199500Y-30280251D01*
X33199500Y-31919749D01*
X33211132Y-31978230D01*
X33255447Y-32044552D01*
X33321769Y-32088867D01*
X33380251Y-32100500D01*
X34979811Y-32100500D01*
X35036106Y-32114015D01*
X35080129Y-32151615D01*
X35102284Y-32205102D01*
X35097742Y-32262818D01*
X35067492Y-32312181D01*
X34701546Y-32678126D01*
X34643994Y-32710729D01*
X34577870Y-32709106D01*
X34396130Y-32653975D01*
X34200000Y-32634659D01*
X34003866Y-32653976D01*
X33815273Y-32711185D01*
X33641463Y-32804089D01*
X33489117Y-32929117D01*
X33364089Y-33081463D01*
X33271185Y-33255273D01*
X33213976Y-33443866D01*
X33194659Y-33639999D01*
X25000500Y-33639999D01*
X25000500Y-33274500D01*
X25017113Y-33212500D01*
X25062500Y-33167113D01*
X25124500Y-33150500D01*
X26169749Y-33150500D01*
X26198989Y-33144683D01*
X26228231Y-33138867D01*
X26294552Y-33094552D01*
X26298995Y-33087901D01*
X26346215Y-33046099D01*
X26407892Y-33032928D01*
X26468069Y-33051800D01*
X26592527Y-33130003D01*
X26669999Y-33157111D01*
X26670000Y-33157112D01*
X26670000Y-32700000D01*
X27170000Y-32700000D01*
X27170000Y-33157111D01*
X27247470Y-33130003D01*
X27390576Y-33040083D01*
X27510083Y-32920576D01*
X27600003Y-32777470D01*
X27627111Y-32700000D01*
X27170000Y-32700000D01*
X26670000Y-32700000D01*
X26670000Y-31742889D01*
X26669999Y-31742888D01*
X27170000Y-31742888D01*
X27170000Y-32200000D01*
X27627112Y-32200000D01*
X27627111Y-32199999D01*
X27600003Y-32122529D01*
X27510083Y-31979423D01*
X27390576Y-31859916D01*
X27247470Y-31769996D01*
X27170000Y-31742888D01*
X26669999Y-31742888D01*
X26592529Y-31769996D01*
X26540473Y-31802706D01*
X26477979Y-31821664D01*
X26414519Y-31806241D01*
X26367697Y-31760715D01*
X26350500Y-31697713D01*
X26350500Y-29815210D01*
X26359939Y-29767757D01*
X26386819Y-29727529D01*
X26966602Y-29147745D01*
X27160148Y-28954197D01*
X27212093Y-28923140D01*
X27272551Y-28920368D01*
X27327119Y-28946543D01*
X27362800Y-28995428D01*
X27642539Y-29687807D01*
X27675233Y-29737675D01*
X27741167Y-29782567D01*
X27819256Y-29798810D01*
X27819257Y-29798809D01*
X27819259Y-29798810D01*
X27877841Y-29787687D01*
X28841645Y-29398285D01*
X28891512Y-29365591D01*
X28936403Y-29299659D01*
X28948570Y-29241165D01*
X28978474Y-29182729D01*
X29034022Y-29147745D01*
X29099643Y-29146023D01*
X29189798Y-29168244D01*
X29359909Y-29168244D01*
X29359910Y-29168244D01*
X29525079Y-29127534D01*
X29675706Y-29048478D01*
X29803037Y-28935673D01*
X29899672Y-28795674D01*
X29959994Y-28636616D01*
X29980499Y-28467744D01*
X29959994Y-28298872D01*
X29899672Y-28139814D01*
X29820101Y-28024536D01*
X29803038Y-27999816D01*
X29803037Y-27999815D01*
X29675706Y-27887010D01*
X29661442Y-27879524D01*
X29525078Y-27807953D01*
X29400618Y-27777277D01*
X29359910Y-27767244D01*
X29189798Y-27767244D01*
X29157138Y-27775293D01*
X29024629Y-27807953D01*
X28874003Y-27887009D01*
X28746668Y-27999817D01*
X28673809Y-28105371D01*
X28625155Y-28146845D01*
X28562308Y-28158569D01*
X28501973Y-28137428D01*
X28453494Y-28104420D01*
X28375404Y-28088177D01*
X28339705Y-28094955D01*
X28277435Y-28090792D01*
X28225080Y-28056824D01*
X28195902Y-28001657D01*
X28197291Y-27939264D01*
X28228893Y-27885453D01*
X29052527Y-27061819D01*
X29092756Y-27034939D01*
X29140209Y-27025500D01*
X35519749Y-27025500D01*
X35548989Y-27019683D01*
X35578231Y-27013867D01*
X35644552Y-26969552D01*
X35648995Y-26962901D01*
X35696215Y-26921099D01*
X35757892Y-26907928D01*
X35818069Y-26926800D01*
X35942527Y-27005003D01*
X36019999Y-27032111D01*
X36020000Y-27032112D01*
X36020000Y-26575000D01*
X36520000Y-26575000D01*
X36520000Y-27032111D01*
X36597470Y-27005003D01*
X36740576Y-26915083D01*
X36860083Y-26795576D01*
X36950003Y-26652470D01*
X36977111Y-26575000D01*
X36520000Y-26575000D01*
X36020000Y-26575000D01*
X36020000Y-25617889D01*
X36019999Y-25617888D01*
X36520000Y-25617888D01*
X36520000Y-26075000D01*
X36977112Y-26075000D01*
X36977111Y-26074999D01*
X36950003Y-25997529D01*
X36860083Y-25854423D01*
X36740576Y-25734916D01*
X36597470Y-25644996D01*
X36520000Y-25617888D01*
X36019999Y-25617888D01*
X35942530Y-25644995D01*
X35818069Y-25723200D01*
X35757892Y-25742071D01*
X35696216Y-25728901D01*
X35648995Y-25687097D01*
X35644552Y-25680447D01*
X35578230Y-25636132D01*
X35519749Y-25624500D01*
X35519748Y-25624500D01*
X35042372Y-25624500D01*
X28823612Y-25624500D01*
X28816125Y-25624274D01*
X28756082Y-25620641D01*
X28696918Y-25631483D01*
X28689519Y-25632610D01*
X28629815Y-25639860D01*
X28620342Y-25643453D01*
X28598738Y-25649476D01*
X28588760Y-25651305D01*
X28533916Y-25675987D01*
X28527001Y-25678851D01*
X28470761Y-25700181D01*
X28462414Y-25705943D01*
X28442878Y-25716961D01*
X28433637Y-25721120D01*
X28386300Y-25758206D01*
X28380270Y-25762643D01*
X28330761Y-25796817D01*
X28290868Y-25841846D01*
X28285735Y-25847298D01*
X25212181Y-28920852D01*
X25162818Y-28951102D01*
X25105102Y-28955644D01*
X25051615Y-28933489D01*
X25014015Y-28889466D01*
X25000500Y-28833171D01*
X25000500Y-25124500D01*
X25017113Y-25062500D01*
X25062500Y-25017113D01*
X25124500Y-25000500D01*
X48239810Y-25000500D01*
X48296105Y-25014015D01*
G37*
%TD.AperFunction*%
%TD*%
M02*
