%TF.GenerationSoftware,KiCad,Pcbnew,7.0.1*%
%TF.CreationDate,2023-08-14T10:41:28-04:00*%
%TF.ProjectId,TacTile-C,54616354-696c-4652-9d43-2e6b69636164,rev?*%
%TF.SameCoordinates,Original*%
%TF.FileFunction,Soldermask,Bot*%
%TF.FilePolarity,Negative*%
%FSLAX46Y46*%
G04 Gerber Fmt 4.6, Leading zero omitted, Abs format (unit mm)*
G04 Created by KiCad (PCBNEW 7.0.1) date 2023-08-14 10:41:28*
%MOMM*%
%LPD*%
G01*
G04 APERTURE LIST*
G04 Aperture macros list*
%AMHorizOval*
0 Thick line with rounded ends*
0 $1 width*
0 $2 $3 position (X,Y) of the first rounded end (center of the circle)*
0 $4 $5 position (X,Y) of the second rounded end (center of the circle)*
0 Add line between two ends*
20,1,$1,$2,$3,$4,$5,0*
0 Add two circle primitives to create the rounded ends*
1,1,$1,$2,$3*
1,1,$1,$4,$5*%
%AMRotRect*
0 Rectangle, with rotation*
0 The origin of the aperture is its center*
0 $1 length*
0 $2 width*
0 $3 Rotation angle, in degrees counterclockwise*
0 Add horizontal line*
21,1,$1,$2,0,0,$3*%
G04 Aperture macros list end*
%ADD10C,1.000000*%
%ADD11R,1.000000X1.000000*%
%ADD12O,1.000000X1.000000*%
%ADD13R,1.600000X1.600000*%
%ADD14O,1.600000X1.600000*%
%ADD15RotRect,1.000000X1.000000X292.000000*%
%ADD16HorizOval,1.000000X0.000000X0.000000X0.000000X0.000000X0*%
%ADD17RotRect,1.000000X1.000000X112.000000*%
%ADD18HorizOval,1.000000X0.000000X0.000000X0.000000X0.000000X0*%
G04 APERTURE END LIST*
D10*
%TO.C,JMP3*%
X25750000Y-51250000D03*
%TD*%
%TO.C,JMP6*%
X25750000Y-58750000D03*
%TD*%
%TO.C,JMP16*%
X84250000Y-63750000D03*
%TD*%
D11*
%TO.C,J6*%
X84250000Y-39950000D03*
D12*
X82980000Y-39950000D03*
%TD*%
D13*
%TO.C,U3*%
X45450000Y-31100000D03*
D14*
X45450000Y-33640000D03*
X45450000Y-36180000D03*
X45450000Y-38720000D03*
X45450000Y-41260000D03*
X45450000Y-43800000D03*
X45450000Y-46340000D03*
X45450000Y-48880000D03*
X53070000Y-48880000D03*
X53070000Y-46340000D03*
X53070000Y-43800000D03*
X53070000Y-41260000D03*
X53070000Y-38720000D03*
X53070000Y-36180000D03*
X53070000Y-33640000D03*
X53070000Y-31100000D03*
%TD*%
D10*
%TO.C,JMP14*%
X84250000Y-58750000D03*
%TD*%
D15*
%TO.C,J10*%
X81802670Y-65956506D03*
D16*
X80625147Y-66432256D03*
%TD*%
D10*
%TO.C,JMP4*%
X25750000Y-53750000D03*
%TD*%
D11*
%TO.C,J2*%
X84250000Y-32450000D03*
D12*
X82980000Y-32450000D03*
%TD*%
D10*
%TO.C,JMP10*%
X84250000Y-48750000D03*
%TD*%
%TO.C,JMP7*%
X25750000Y-61250000D03*
%TD*%
D13*
%TO.C,U6*%
X34200000Y-61100000D03*
D14*
X34200000Y-63640000D03*
X34200000Y-66180000D03*
X34200000Y-68720000D03*
X34200000Y-71260000D03*
X34200000Y-73800000D03*
X34200000Y-76340000D03*
X34200000Y-78880000D03*
X41820000Y-78880000D03*
X41820000Y-76340000D03*
X41820000Y-73800000D03*
X41820000Y-71260000D03*
X41820000Y-68720000D03*
X41820000Y-66180000D03*
X41820000Y-63640000D03*
X41820000Y-61100000D03*
%TD*%
D15*
%TO.C,J8*%
X81802670Y-43456506D03*
D16*
X80625147Y-43932256D03*
%TD*%
D17*
%TO.C,J1*%
X28097331Y-28943494D03*
D18*
X29274854Y-28467744D03*
%TD*%
D10*
%TO.C,JMP1*%
X25750000Y-46250000D03*
%TD*%
D15*
%TO.C,J14*%
X81802670Y-73456506D03*
D16*
X80625147Y-73932256D03*
%TD*%
D11*
%TO.C,J15*%
X25650000Y-77450000D03*
D12*
X26920000Y-77450000D03*
%TD*%
D10*
%TO.C,JMP8*%
X25750000Y-63750000D03*
%TD*%
D13*
%TO.C,U2*%
X34200000Y-31100000D03*
D14*
X34200000Y-33640000D03*
X34200000Y-36180000D03*
X34200000Y-38720000D03*
X34200000Y-41260000D03*
X34200000Y-43800000D03*
X34200000Y-46340000D03*
X34200000Y-48880000D03*
X41820000Y-48880000D03*
X41820000Y-46340000D03*
X41820000Y-43800000D03*
X41820000Y-41260000D03*
X41820000Y-38720000D03*
X41820000Y-36180000D03*
X41820000Y-33640000D03*
X41820000Y-31100000D03*
%TD*%
D11*
%TO.C,J17*%
X25650000Y-32450000D03*
D12*
X26920000Y-32450000D03*
%TD*%
D10*
%TO.C,JMP11*%
X84250000Y-51250000D03*
%TD*%
%TO.C,JMP9*%
X84250000Y-46250000D03*
%TD*%
D17*
%TO.C,J9*%
X28097331Y-66443494D03*
D18*
X29274854Y-65967744D03*
%TD*%
D13*
%TO.C,U4*%
X56950000Y-31100000D03*
D14*
X56950000Y-33640000D03*
X56950000Y-36180000D03*
X56950000Y-38720000D03*
X56950000Y-41260000D03*
X56950000Y-43800000D03*
X56950000Y-46340000D03*
X56950000Y-48880000D03*
X64570000Y-48880000D03*
X64570000Y-46340000D03*
X64570000Y-43800000D03*
X64570000Y-41260000D03*
X64570000Y-38720000D03*
X64570000Y-36180000D03*
X64570000Y-33640000D03*
X64570000Y-31100000D03*
%TD*%
D17*
%TO.C,J3*%
X28097331Y-36443494D03*
D18*
X29274854Y-35967744D03*
%TD*%
D10*
%TO.C,JMP2*%
X25750000Y-48750000D03*
%TD*%
%TO.C,JMP5*%
X25750000Y-56250000D03*
%TD*%
%TO.C,JMP13*%
X84250000Y-56250000D03*
%TD*%
D11*
%TO.C,J11*%
X25650000Y-69950000D03*
D12*
X26920000Y-69950000D03*
%TD*%
D13*
%TO.C,U5*%
X68200000Y-31100000D03*
D14*
X68200000Y-33640000D03*
X68200000Y-36180000D03*
X68200000Y-38720000D03*
X68200000Y-41260000D03*
X68200000Y-43800000D03*
X68200000Y-46340000D03*
X68200000Y-48880000D03*
X75820000Y-48880000D03*
X75820000Y-46340000D03*
X75820000Y-43800000D03*
X75820000Y-41260000D03*
X75820000Y-38720000D03*
X75820000Y-36180000D03*
X75820000Y-33640000D03*
X75820000Y-31100000D03*
%TD*%
D13*
%TO.C,U8*%
X56950000Y-61100000D03*
D14*
X56950000Y-63640000D03*
X56950000Y-66180000D03*
X56950000Y-68720000D03*
X56950000Y-71260000D03*
X56950000Y-73800000D03*
X56950000Y-76340000D03*
X56950000Y-78880000D03*
X64570000Y-78880000D03*
X64570000Y-76340000D03*
X64570000Y-73800000D03*
X64570000Y-71260000D03*
X64570000Y-68720000D03*
X64570000Y-66180000D03*
X64570000Y-63640000D03*
X64570000Y-61100000D03*
%TD*%
D11*
%TO.C,J12*%
X84250000Y-69950000D03*
D12*
X82980000Y-69950000D03*
%TD*%
D13*
%TO.C,U1*%
X68200000Y-61200000D03*
D14*
X68200000Y-63740000D03*
X68200000Y-66280000D03*
X75820000Y-66280000D03*
X75820000Y-63740000D03*
X75820000Y-61200000D03*
%TD*%
D13*
%TO.C,U7*%
X45450000Y-61100000D03*
D14*
X45450000Y-63640000D03*
X45450000Y-66180000D03*
X45450000Y-68720000D03*
X45450000Y-71260000D03*
X45450000Y-73800000D03*
X45450000Y-76340000D03*
X45450000Y-78880000D03*
X53070000Y-78880000D03*
X53070000Y-76340000D03*
X53070000Y-73800000D03*
X53070000Y-71260000D03*
X53070000Y-68720000D03*
X53070000Y-66180000D03*
X53070000Y-63640000D03*
X53070000Y-61100000D03*
%TD*%
D10*
%TO.C,JMP15*%
X84250000Y-61250000D03*
%TD*%
D15*
%TO.C,J4*%
X81802670Y-35956506D03*
D16*
X80625147Y-36432256D03*
%TD*%
D11*
%TO.C,J5*%
X25650000Y-39950000D03*
D12*
X26920000Y-39950000D03*
%TD*%
D17*
%TO.C,J13*%
X28097331Y-73943494D03*
D18*
X29274854Y-73467744D03*
%TD*%
D10*
%TO.C,JMP12*%
X84250000Y-53750000D03*
%TD*%
D11*
%TO.C,J16*%
X84250000Y-77450000D03*
D12*
X82980000Y-77450000D03*
%TD*%
D17*
%TO.C,J7*%
X28097331Y-43943494D03*
D18*
X29274854Y-43467744D03*
%TD*%
D11*
%TO.C,J18*%
X35000000Y-83575000D03*
D12*
X36270000Y-83575000D03*
X37540000Y-83575000D03*
X38810000Y-83575000D03*
%TD*%
D11*
%TO.C,J21*%
X73730000Y-26325000D03*
D12*
X75000000Y-26325000D03*
%TD*%
D11*
%TO.C,J19*%
X69920000Y-83575000D03*
D12*
X71190000Y-83575000D03*
X72460000Y-83575000D03*
X73730000Y-83575000D03*
X75000000Y-83575000D03*
%TD*%
D11*
%TO.C,J20*%
X35000000Y-26325000D03*
D12*
X36270000Y-26325000D03*
%TD*%
M02*
