M48
; DRILL file {KiCad 7.0.1} date Sat Dec 30 23:07:56 2023
; FORMAT={-:-/ absolute / inch / decimal}
; #@! TF.CreationDate,2023-12-30T23:07:56-05:00
; #@! TF.GenerationSoftware,Kicad,Pcbnew,7.0.1
; #@! TF.FileFunction,Plated,1,2,PTH
FMAT,2
INCH
; #@! TA.AperFunction,Plated,PTH,ViaDrill
T1C0.0157
; #@! TA.AperFunction,Plated,PTH,ComponentDrill
T2C0.0157
; #@! TA.AperFunction,Plated,PTH,ComponentDrill
T3C0.0276
; #@! TA.AperFunction,Plated,PTH,ComponentDrill
T4C0.0315
; #@! TA.AperFunction,Plated,PTH,ComponentDrill
T5C0.0394
%
G90
G05
T1
X1.2756Y-2.6063
X1.3996Y-1.7047
X1.4291Y-1.4488
X1.4675Y-2.1405
X1.5276Y-2.0197
X1.5571Y-1.065
X1.5669Y-1.813
X1.5965Y-1.7047
X1.698Y-1.4503
X1.7343Y-1.9992
X1.7425Y-2.36
X1.7933Y-2.1299
X1.8228Y-2.0187
X1.8327Y-1.0846
X1.8327Y-2.1966
X1.8429Y-1.6458
X1.8613Y-2.1299
X1.8917Y-2.9547
X1.8917Y-3.248
X1.9104Y-2.2077
X1.9198Y-1.9992
X1.9311Y-1.5463
X1.9592Y-1.9992
X1.9595Y-2.1094
X1.9705Y-1.6171
X1.9985Y-1.9992
X2.0115Y-2.1094
X2.0379Y-1.9992
X2.0492Y-2.1205
X2.1476Y-2.2067
X2.1673Y-1.4291
X2.1673Y-3.1909
X2.1772Y-2.0718
X2.3051Y-1.439
X2.3125Y-2.8538
X2.315Y-2.9843
X2.3312Y-1.9992
X2.3346Y-3.0827
X2.3533Y-1.5768
X2.3706Y-1.9992
X2.4232Y-1.8228
X2.4232Y-1.9213
X2.4724Y-2.2165
X2.5999Y-2.0
X2.6014Y-1.6555
X2.6142Y-2.7559
X2.6299Y-1.5866
X2.6393Y-1.9995
X2.6639Y-2.8575
X2.7598Y-1.3602
X2.7972Y-1.6457
X2.8366Y-1.5571
X2.8465Y-1.4783
X2.8932Y-1.6285
X2.8946Y-1.1743
X2.8957Y-1.3799
X2.9106Y-2.6063
X2.9391Y-2.5347
X3.0542Y-1.8031
X3.0595Y-1.6959
X3.0598Y-2.5161
X3.0781Y-2.4813
X3.0998Y-2.4485
X3.1179Y-2.4135
X3.122Y-2.2495
X3.1282Y-2.203
X3.1353Y-2.2871
X3.1464Y-2.3839
X3.1516Y-2.3445
T2
X1.0118Y-1.7244
X1.0118Y-1.8228
X1.0118Y-1.9213
X1.0118Y-2.0197
X1.0118Y-2.1181
X1.0118Y-2.2165
X1.0118Y-2.315
X1.0118Y-2.4134
X1.0118Y-2.5118
X3.3189Y-1.8228
X3.3189Y-1.9213
X3.3189Y-2.0197
X3.3189Y-2.1181
X3.3189Y-2.2165
X3.3189Y-2.315
X3.3189Y-2.4134
X3.3189Y-2.5118
T3
X1.0118Y-1.2795
X1.0118Y-1.5748
X1.0118Y-2.7559
X1.0118Y-3.0512
X1.0618Y-1.2795
X1.0618Y-1.5748
X1.0618Y-2.7559
X1.0618Y-3.0512
X1.1082Y-1.1415
X1.1082Y-1.4368
X1.1082Y-1.732
X1.1082Y-2.6179
X1.1082Y-2.9131
X1.1545Y-1.1227
X1.1545Y-1.418
X1.1545Y-1.7133
X1.1545Y-2.5991
X1.1545Y-2.8944
X3.1762Y-1.4363
X3.1762Y-1.7316
X3.1762Y-2.6174
X3.1762Y-2.9127
X3.2225Y-1.4176
X3.2225Y-1.7129
X3.2225Y-2.5987
X3.2225Y-2.894
X3.2689Y-1.2795
X3.2689Y-1.5748
X3.2689Y-2.7559
X3.2689Y-3.0512
X3.3189Y-1.2795
X3.3189Y-1.5748
X3.3189Y-2.7559
X3.3189Y-3.0512
T4
X1.3484Y-1.2264
X1.3484Y-1.3264
X1.3484Y-1.4264
X1.3484Y-1.5264
X1.3484Y-1.6264
X1.3484Y-1.7264
X1.3484Y-1.8264
X1.3484Y-1.9264
X1.3484Y-2.4075
X1.3484Y-2.5075
X1.3484Y-2.6075
X1.3484Y-2.7075
X1.3484Y-2.8075
X1.3484Y-2.9075
X1.3484Y-3.0075
X1.3484Y-3.1075
X1.6484Y-1.2264
X1.6484Y-1.3264
X1.6484Y-1.4264
X1.6484Y-1.5264
X1.6484Y-1.6264
X1.6484Y-1.7264
X1.6484Y-1.8264
X1.6484Y-1.9264
X1.6484Y-2.4075
X1.6484Y-2.5075
X1.6484Y-2.6075
X1.6484Y-2.7075
X1.6484Y-2.8075
X1.6484Y-2.9075
X1.6484Y-3.0075
X1.6484Y-3.1075
X1.7913Y-1.2264
X1.7913Y-1.3264
X1.7913Y-1.4264
X1.7913Y-1.5264
X1.7913Y-1.6264
X1.7913Y-1.7264
X1.7913Y-1.8264
X1.7913Y-1.9264
X1.7913Y-2.4075
X1.7913Y-2.5075
X1.7913Y-2.6075
X1.7913Y-2.7075
X1.7913Y-2.8075
X1.7913Y-2.9075
X1.7913Y-3.0075
X1.7913Y-3.1075
X2.0913Y-1.2264
X2.0913Y-1.3264
X2.0913Y-1.4264
X2.0913Y-1.5264
X2.0913Y-1.6264
X2.0913Y-1.7264
X2.0913Y-1.8264
X2.0913Y-1.9264
X2.0913Y-2.4075
X2.0913Y-2.5075
X2.0913Y-2.6075
X2.0913Y-2.7075
X2.0913Y-2.8075
X2.0913Y-2.9075
X2.0913Y-3.0075
X2.0913Y-3.1075
X2.2441Y-1.2264
X2.2441Y-1.3264
X2.2441Y-1.4264
X2.2441Y-1.5264
X2.2441Y-1.6264
X2.2441Y-1.7264
X2.2441Y-1.8264
X2.2441Y-1.9264
X2.2441Y-2.4075
X2.2441Y-2.5075
X2.2441Y-2.6075
X2.2441Y-2.7075
X2.2441Y-2.8075
X2.2441Y-2.9075
X2.2441Y-3.0075
X2.2441Y-3.1075
X2.5441Y-1.2264
X2.5441Y-1.3264
X2.5441Y-1.4264
X2.5441Y-1.5264
X2.5441Y-1.6264
X2.5441Y-1.7264
X2.5441Y-1.8264
X2.5441Y-1.9264
X2.5441Y-2.4075
X2.5441Y-2.5075
X2.5441Y-2.6075
X2.5441Y-2.7075
X2.5441Y-2.8075
X2.5441Y-2.9075
X2.5441Y-3.0075
X2.5441Y-3.1075
X2.687Y-1.2264
X2.687Y-1.3264
X2.687Y-1.4264
X2.687Y-1.5264
X2.687Y-1.6264
X2.687Y-1.7264
X2.687Y-1.8264
X2.687Y-1.9264
X2.687Y-2.4075
X2.687Y-2.5075
X2.687Y-2.6075
X2.687Y-2.7075
X2.687Y-2.8075
X2.687Y-2.9075
X2.687Y-3.0075
X2.687Y-3.1075
X2.987Y-1.2264
X2.987Y-1.3264
X2.987Y-1.4264
X2.987Y-1.5264
X2.987Y-1.6264
X2.987Y-1.7264
X2.987Y-1.8264
X2.987Y-1.9264
X2.987Y-2.4075
X2.987Y-2.5075
X2.987Y-2.6075
X2.987Y-2.7075
X2.987Y-2.8075
X2.987Y-2.9075
X2.987Y-3.0075
X2.987Y-3.1075
T5
X1.3386Y-3.2923
X1.378Y-1.0384
X1.4386Y-3.2923
X1.478Y-1.0384
X1.5386Y-3.2923
X1.6386Y-3.2923
X2.5921Y-3.2923
X2.6921Y-3.2923
X2.7921Y-3.2923
X2.8528Y-1.0384
X2.8921Y-3.2923
X2.9528Y-1.0384
X2.9921Y-3.2923
T0
M30
