%TF.GenerationSoftware,KiCad,Pcbnew,7.0.1*%
%TF.CreationDate,2023-12-30T23:07:54-05:00*%
%TF.ProjectId,TacTile-C,54616354-696c-4652-9d43-2e6b69636164,rev?*%
%TF.SameCoordinates,Original*%
%TF.FileFunction,Copper,L2,Bot*%
%TF.FilePolarity,Positive*%
%FSLAX46Y46*%
G04 Gerber Fmt 4.6, Leading zero omitted, Abs format (unit mm)*
G04 Created by KiCad (PCBNEW 7.0.1) date 2023-12-30 23:07:54*
%MOMM*%
%LPD*%
G01*
G04 APERTURE LIST*
G04 Aperture macros list*
%AMHorizOval*
0 Thick line with rounded ends*
0 $1 width*
0 $2 $3 position (X,Y) of the first rounded end (center of the circle)*
0 $4 $5 position (X,Y) of the second rounded end (center of the circle)*
0 Add line between two ends*
20,1,$1,$2,$3,$4,$5,0*
0 Add two circle primitives to create the rounded ends*
1,1,$1,$2,$3*
1,1,$1,$4,$5*%
%AMRotRect*
0 Rectangle, with rotation*
0 The origin of the aperture is its center*
0 $1 length*
0 $2 width*
0 $3 Rotation angle, in degrees counterclockwise*
0 Add horizontal line*
21,1,$1,$2,0,0,$3*%
G04 Aperture macros list end*
%TA.AperFunction,ComponentPad*%
%ADD10C,1.000000*%
%TD*%
%TA.AperFunction,ComponentPad*%
%ADD11R,1.000000X1.000000*%
%TD*%
%TA.AperFunction,ComponentPad*%
%ADD12O,1.000000X1.000000*%
%TD*%
%TA.AperFunction,ComponentPad*%
%ADD13R,1.600000X1.600000*%
%TD*%
%TA.AperFunction,ComponentPad*%
%ADD14O,1.600000X1.600000*%
%TD*%
%TA.AperFunction,ComponentPad*%
%ADD15RotRect,1.000000X1.000000X292.000000*%
%TD*%
%TA.AperFunction,ComponentPad*%
%ADD16HorizOval,1.000000X0.000000X0.000000X0.000000X0.000000X0*%
%TD*%
%TA.AperFunction,ComponentPad*%
%ADD17RotRect,1.000000X1.000000X112.000000*%
%TD*%
%TA.AperFunction,ComponentPad*%
%ADD18HorizOval,1.000000X0.000000X0.000000X0.000000X0.000000X0*%
%TD*%
%TA.AperFunction,ComponentPad*%
%ADD19R,1.700000X1.700000*%
%TD*%
%TA.AperFunction,ComponentPad*%
%ADD20O,1.700000X1.700000*%
%TD*%
%TA.AperFunction,ViaPad*%
%ADD21C,0.800000*%
%TD*%
%TA.AperFunction,Conductor*%
%ADD22C,1.000000*%
%TD*%
%TA.AperFunction,Conductor*%
%ADD23C,0.250000*%
%TD*%
G04 APERTURE END LIST*
D10*
%TO.P,JMP3,1,A*%
%TO.N,/A2*%
X25700000Y-51300000D03*
%TD*%
%TO.P,JMP6,1,A*%
%TO.N,/A5*%
X25700000Y-58800000D03*
%TD*%
%TO.P,JMP16,1,A*%
%TO.N,/A15*%
X84300000Y-63800000D03*
%TD*%
D11*
%TO.P,J6,1,Pin_1*%
%TO.N,/B10*%
X84300000Y-40000000D03*
D12*
%TO.P,J6,2,Pin_2*%
%TO.N,/B11*%
X83030000Y-40000000D03*
%TD*%
D13*
%TO.P,U2,1,A4*%
%TO.N,/B12*%
X45500000Y-31150000D03*
D14*
%TO.P,U2,2,A6*%
%TO.N,/B14*%
X45500000Y-33690000D03*
%TO.P,U2,3,A*%
%TO.N,Net-(U2-A)*%
X45500000Y-36230000D03*
%TO.P,U2,4,A7*%
%TO.N,/B15*%
X45500000Y-38770000D03*
%TO.P,U2,5,A5*%
%TO.N,/B13*%
X45500000Y-41310000D03*
%TO.P,U2,6,~{E}*%
%TO.N,/LEN*%
X45500000Y-43850000D03*
%TO.P,U2,7,VEE*%
%TO.N,/GND*%
X45500000Y-46390000D03*
%TO.P,U2,8,GND*%
X45500000Y-48930000D03*
%TO.P,U2,9,S2*%
%TO.N,/LS6*%
X53120000Y-48930000D03*
%TO.P,U2,10,S1*%
%TO.N,/LS1*%
X53120000Y-46390000D03*
%TO.P,U2,11,S0*%
%TO.N,/LS0*%
X53120000Y-43850000D03*
%TO.P,U2,12,A3*%
%TO.N,/B11*%
X53120000Y-41310000D03*
%TO.P,U2,13,A0*%
%TO.N,/B8*%
X53120000Y-38770000D03*
%TO.P,U2,14,A1*%
%TO.N,/B9*%
X53120000Y-36230000D03*
%TO.P,U2,15,A2*%
%TO.N,/B10*%
X53120000Y-33690000D03*
%TO.P,U2,16,VCC*%
%TO.N,/VCC*%
X53120000Y-31150000D03*
%TD*%
D10*
%TO.P,JMP14,1,A*%
%TO.N,/A13*%
X84300000Y-58800000D03*
%TD*%
D15*
%TO.P,J10,1,Pin_1*%
%TO.N,/B18*%
X81852670Y-66006506D03*
D16*
%TO.P,J10,2,Pin_2*%
%TO.N,/B19*%
X80675147Y-66482256D03*
%TD*%
D10*
%TO.P,JMP4,1,A*%
%TO.N,/A3*%
X25700000Y-53800000D03*
%TD*%
D11*
%TO.P,J2,1,Pin_1*%
%TO.N,/B2*%
X84300000Y-32500000D03*
D12*
%TO.P,J2,2,Pin_2*%
%TO.N,/B3*%
X83030000Y-32500000D03*
%TD*%
D10*
%TO.P,JMP10,1,A*%
%TO.N,/A9*%
X84300000Y-48800000D03*
%TD*%
%TO.P,JMP7,1,A*%
%TO.N,/A6*%
X25700000Y-61300000D03*
%TD*%
D13*
%TO.P,U5,1,A4*%
%TO.N,unconnected-(U5-A4-Pad1)*%
X34250000Y-61150000D03*
D14*
%TO.P,U5,2,A6*%
%TO.N,unconnected-(U5-A6-Pad2)*%
X34250000Y-63690000D03*
%TO.P,U5,3,A*%
%TO.N,/VCC*%
X34250000Y-66230000D03*
%TO.P,U5,4,A7*%
%TO.N,unconnected-(U5-A7-Pad4)*%
X34250000Y-68770000D03*
%TO.P,U5,5,A5*%
%TO.N,unconnected-(U5-A5-Pad5)*%
X34250000Y-71310000D03*
%TO.P,U5,6,~{E}*%
%TO.N,/LEN*%
X34250000Y-73850000D03*
%TO.P,U5,7,VEE*%
%TO.N,/GND*%
X34250000Y-76390000D03*
%TO.P,U5,8,GND*%
X34250000Y-78930000D03*
%TO.P,U5,9,S2*%
X41870000Y-78930000D03*
%TO.P,U5,10,S1*%
%TO.N,/LS8*%
X41870000Y-76390000D03*
%TO.P,U5,11,S0*%
%TO.N,/LS7*%
X41870000Y-73850000D03*
%TO.P,U5,12,A3*%
%TO.N,Net-(U4-A)*%
X41870000Y-71310000D03*
%TO.P,U5,13,A0*%
%TO.N,Net-(U1-A)*%
X41870000Y-68770000D03*
%TO.P,U5,14,A1*%
%TO.N,Net-(U2-A)*%
X41870000Y-66230000D03*
%TO.P,U5,15,A2*%
%TO.N,Net-(U3-A)*%
X41870000Y-63690000D03*
%TO.P,U5,16,VCC*%
%TO.N,/VCC*%
X41870000Y-61150000D03*
%TD*%
D15*
%TO.P,J8,1,Pin_1*%
%TO.N,/B14*%
X81852670Y-43506506D03*
D16*
%TO.P,J8,2,Pin_2*%
%TO.N,/B15*%
X80675147Y-43982256D03*
%TD*%
D17*
%TO.P,J1,1,Pin_1*%
%TO.N,/B1*%
X28147331Y-28993494D03*
D18*
%TO.P,J1,2,Pin_2*%
%TO.N,/B0*%
X29324854Y-28517744D03*
%TD*%
D10*
%TO.P,JMP1,1,A*%
%TO.N,/A0*%
X25700000Y-46300000D03*
%TD*%
D15*
%TO.P,J14,1,Pin_1*%
%TO.N,/B26*%
X81852670Y-73506506D03*
D16*
%TO.P,J14,2,Pin_2*%
%TO.N,/B27*%
X80675147Y-73982256D03*
%TD*%
D11*
%TO.P,J15,1,Pin_1*%
%TO.N,/B29*%
X25700000Y-77500000D03*
D12*
%TO.P,J15,2,Pin_2*%
%TO.N,/B28*%
X26970000Y-77500000D03*
%TD*%
D10*
%TO.P,JMP8,1,A*%
%TO.N,/A7*%
X25700000Y-63800000D03*
%TD*%
D13*
%TO.P,U1,1,A4*%
%TO.N,/B4*%
X34250000Y-31150000D03*
D14*
%TO.P,U1,2,A6*%
%TO.N,/B6*%
X34250000Y-33690000D03*
%TO.P,U1,3,A*%
%TO.N,Net-(U1-A)*%
X34250000Y-36230000D03*
%TO.P,U1,4,A7*%
%TO.N,/B7*%
X34250000Y-38770000D03*
%TO.P,U1,5,A5*%
%TO.N,/B5*%
X34250000Y-41310000D03*
%TO.P,U1,6,~{E}*%
%TO.N,/LEN*%
X34250000Y-43850000D03*
%TO.P,U1,7,VEE*%
%TO.N,/GND*%
X34250000Y-46390000D03*
%TO.P,U1,8,GND*%
X34250000Y-48930000D03*
%TO.P,U1,9,S2*%
%TO.N,/LS6*%
X41870000Y-48930000D03*
%TO.P,U1,10,S1*%
%TO.N,/LS1*%
X41870000Y-46390000D03*
%TO.P,U1,11,S0*%
%TO.N,/LS0*%
X41870000Y-43850000D03*
%TO.P,U1,12,A3*%
%TO.N,/B3*%
X41870000Y-41310000D03*
%TO.P,U1,13,A0*%
%TO.N,/B0*%
X41870000Y-38770000D03*
%TO.P,U1,14,A1*%
%TO.N,/B1*%
X41870000Y-36230000D03*
%TO.P,U1,15,A2*%
%TO.N,/B2*%
X41870000Y-33690000D03*
%TO.P,U1,16,VCC*%
%TO.N,/VCC*%
X41870000Y-31150000D03*
%TD*%
D11*
%TO.P,J17,1,Pin_1*%
%TO.N,/VIN*%
X25700000Y-32500000D03*
D12*
%TO.P,J17,2,Pin_2*%
%TO.N,/GND*%
X26970000Y-32500000D03*
%TD*%
D10*
%TO.P,JMP11,1,A*%
%TO.N,/A10*%
X84300000Y-51300000D03*
%TD*%
%TO.P,JMP9,1,A*%
%TO.N,/A8*%
X84300000Y-46300000D03*
%TD*%
D17*
%TO.P,J9,1,Pin_1*%
%TO.N,/B17*%
X28147331Y-66493494D03*
D18*
%TO.P,J9,2,Pin_2*%
%TO.N,/B16*%
X29324854Y-66017744D03*
%TD*%
D13*
%TO.P,U3,1,A4*%
%TO.N,/B20*%
X57000000Y-31150000D03*
D14*
%TO.P,U3,2,A6*%
%TO.N,/B22*%
X57000000Y-33690000D03*
%TO.P,U3,3,A*%
%TO.N,Net-(U3-A)*%
X57000000Y-36230000D03*
%TO.P,U3,4,A7*%
%TO.N,/B23*%
X57000000Y-38770000D03*
%TO.P,U3,5,A5*%
%TO.N,/B21*%
X57000000Y-41310000D03*
%TO.P,U3,6,~{E}*%
%TO.N,/LEN*%
X57000000Y-43850000D03*
%TO.P,U3,7,VEE*%
%TO.N,/GND*%
X57000000Y-46390000D03*
%TO.P,U3,8,GND*%
X57000000Y-48930000D03*
%TO.P,U3,9,S2*%
%TO.N,/LS6*%
X64620000Y-48930000D03*
%TO.P,U3,10,S1*%
%TO.N,/LS1*%
X64620000Y-46390000D03*
%TO.P,U3,11,S0*%
%TO.N,/LS0*%
X64620000Y-43850000D03*
%TO.P,U3,12,A3*%
%TO.N,/B19*%
X64620000Y-41310000D03*
%TO.P,U3,13,A0*%
%TO.N,/B16*%
X64620000Y-38770000D03*
%TO.P,U3,14,A1*%
%TO.N,/B17*%
X64620000Y-36230000D03*
%TO.P,U3,15,A2*%
%TO.N,/B18*%
X64620000Y-33690000D03*
%TO.P,U3,16,VCC*%
%TO.N,/VCC*%
X64620000Y-31150000D03*
%TD*%
D17*
%TO.P,J3,1,Pin_1*%
%TO.N,/B5*%
X28147331Y-36493494D03*
D18*
%TO.P,J3,2,Pin_2*%
%TO.N,/B4*%
X29324854Y-36017744D03*
%TD*%
D10*
%TO.P,JMP2,1,A*%
%TO.N,/A1*%
X25700000Y-48800000D03*
%TD*%
%TO.P,JMP5,1,A*%
%TO.N,/A4*%
X25700000Y-56300000D03*
%TD*%
%TO.P,JMP13,1,A*%
%TO.N,/A12*%
X84300000Y-56300000D03*
%TD*%
D13*
%TO.P,U6,1,A4*%
%TO.N,unconnected-(U6-A4-Pad1)*%
X68250000Y-61150000D03*
D14*
%TO.P,U6,2,A6*%
%TO.N,unconnected-(U6-A6-Pad2)*%
X68250000Y-63690000D03*
%TO.P,U6,3,A*%
%TO.N,/VCC*%
X68250000Y-66230000D03*
%TO.P,U6,4,A7*%
%TO.N,unconnected-(U6-A7-Pad4)*%
X68250000Y-68770000D03*
%TO.P,U6,5,A5*%
%TO.N,unconnected-(U6-A5-Pad5)*%
X68250000Y-71310000D03*
%TO.P,U6,6,~{E}*%
%TO.N,/LEN*%
X68250000Y-73850000D03*
%TO.P,U6,7,VEE*%
%TO.N,/GND*%
X68250000Y-76390000D03*
%TO.P,U6,8,GND*%
X68250000Y-78930000D03*
%TO.P,U6,9,S2*%
X75870000Y-78930000D03*
%TO.P,U6,10,S1*%
X75870000Y-76390000D03*
%TO.P,U6,11,S0*%
%TO.N,/LS5*%
X75870000Y-73850000D03*
%TO.P,U6,12,A3*%
%TO.N,unconnected-(U6-A3-Pad12)*%
X75870000Y-71310000D03*
%TO.P,U6,13,A0*%
%TO.N,Net-(U6-A0)*%
X75870000Y-68770000D03*
%TO.P,U6,14,A1*%
%TO.N,Net-(U6-A1)*%
X75870000Y-66230000D03*
%TO.P,U6,15,A2*%
%TO.N,unconnected-(U6-A2-Pad15)*%
X75870000Y-63690000D03*
%TO.P,U6,16,VCC*%
%TO.N,/VCC*%
X75870000Y-61150000D03*
%TD*%
D11*
%TO.P,J11,1,Pin_1*%
%TO.N,/B21*%
X25700000Y-70000000D03*
D12*
%TO.P,J11,2,Pin_2*%
%TO.N,/B20*%
X26970000Y-70000000D03*
%TD*%
D13*
%TO.P,U4,1,A4*%
%TO.N,/B28*%
X68250000Y-31150000D03*
D14*
%TO.P,U4,2,A6*%
%TO.N,/B30*%
X68250000Y-33690000D03*
%TO.P,U4,3,A*%
%TO.N,Net-(U4-A)*%
X68250000Y-36230000D03*
%TO.P,U4,4,A7*%
%TO.N,/B31*%
X68250000Y-38770000D03*
%TO.P,U4,5,A5*%
%TO.N,/B29*%
X68250000Y-41310000D03*
%TO.P,U4,6,~{E}*%
%TO.N,/LEN*%
X68250000Y-43850000D03*
%TO.P,U4,7,VEE*%
%TO.N,/GND*%
X68250000Y-46390000D03*
%TO.P,U4,8,GND*%
X68250000Y-48930000D03*
%TO.P,U4,9,S2*%
%TO.N,/LS6*%
X75870000Y-48930000D03*
%TO.P,U4,10,S1*%
%TO.N,/LS1*%
X75870000Y-46390000D03*
%TO.P,U4,11,S0*%
%TO.N,/LS0*%
X75870000Y-43850000D03*
%TO.P,U4,12,A3*%
%TO.N,/B27*%
X75870000Y-41310000D03*
%TO.P,U4,13,A0*%
%TO.N,/B24*%
X75870000Y-38770000D03*
%TO.P,U4,14,A1*%
%TO.N,/B25*%
X75870000Y-36230000D03*
%TO.P,U4,15,A2*%
%TO.N,/B26*%
X75870000Y-33690000D03*
%TO.P,U4,16,VCC*%
%TO.N,/VCC*%
X75870000Y-31150000D03*
%TD*%
D10*
%TO.P,JMP17,1,A*%
%TO.N,/VCC*%
X25700000Y-43800000D03*
%TD*%
D13*
%TO.P,U8,1,A4*%
%TO.N,/A12*%
X57000000Y-61150000D03*
D14*
%TO.P,U8,2,A6*%
%TO.N,/A14*%
X57000000Y-63690000D03*
%TO.P,U8,3,A*%
%TO.N,Net-(U6-A1)*%
X57000000Y-66230000D03*
%TO.P,U8,4,A7*%
%TO.N,/A15*%
X57000000Y-68770000D03*
%TO.P,U8,5,A5*%
%TO.N,/A13*%
X57000000Y-71310000D03*
%TO.P,U8,6,~{E}*%
%TO.N,/LEN*%
X57000000Y-73850000D03*
%TO.P,U8,7,VEE*%
%TO.N,/GND*%
X57000000Y-76390000D03*
%TO.P,U8,8,GND*%
X57000000Y-78930000D03*
%TO.P,U8,9,S2*%
%TO.N,/LS4*%
X64620000Y-78930000D03*
%TO.P,U8,10,S1*%
%TO.N,/LS3*%
X64620000Y-76390000D03*
%TO.P,U8,11,S0*%
%TO.N,/LS2*%
X64620000Y-73850000D03*
%TO.P,U8,12,A3*%
%TO.N,/A11*%
X64620000Y-71310000D03*
%TO.P,U8,13,A0*%
%TO.N,/A8*%
X64620000Y-68770000D03*
%TO.P,U8,14,A1*%
%TO.N,/A9*%
X64620000Y-66230000D03*
%TO.P,U8,15,A2*%
%TO.N,/A10*%
X64620000Y-63690000D03*
%TO.P,U8,16,VCC*%
%TO.N,/VCC*%
X64620000Y-61150000D03*
%TD*%
D11*
%TO.P,J12,1,Pin_1*%
%TO.N,/B22*%
X84300000Y-70000000D03*
D12*
%TO.P,J12,2,Pin_2*%
%TO.N,/B23*%
X83030000Y-70000000D03*
%TD*%
D13*
%TO.P,U7,1,A4*%
%TO.N,/A4*%
X45500000Y-61150000D03*
D14*
%TO.P,U7,2,A6*%
%TO.N,/A6*%
X45500000Y-63690000D03*
%TO.P,U7,3,A*%
%TO.N,Net-(U6-A0)*%
X45500000Y-66230000D03*
%TO.P,U7,4,A7*%
%TO.N,/A7*%
X45500000Y-68770000D03*
%TO.P,U7,5,A5*%
%TO.N,/A5*%
X45500000Y-71310000D03*
%TO.P,U7,6,~{E}*%
%TO.N,/LEN*%
X45500000Y-73850000D03*
%TO.P,U7,7,VEE*%
%TO.N,/GND*%
X45500000Y-76390000D03*
%TO.P,U7,8,GND*%
X45500000Y-78930000D03*
%TO.P,U7,9,S2*%
%TO.N,/LS4*%
X53120000Y-78930000D03*
%TO.P,U7,10,S1*%
%TO.N,/LS3*%
X53120000Y-76390000D03*
%TO.P,U7,11,S0*%
%TO.N,/LS2*%
X53120000Y-73850000D03*
%TO.P,U7,12,A3*%
%TO.N,/A3*%
X53120000Y-71310000D03*
%TO.P,U7,13,A0*%
%TO.N,/A0*%
X53120000Y-68770000D03*
%TO.P,U7,14,A1*%
%TO.N,/A1*%
X53120000Y-66230000D03*
%TO.P,U7,15,A2*%
%TO.N,/A2*%
X53120000Y-63690000D03*
%TO.P,U7,16,VCC*%
%TO.N,/VCC*%
X53120000Y-61150000D03*
%TD*%
D10*
%TO.P,JMP15,1,A*%
%TO.N,/A14*%
X84300000Y-61300000D03*
%TD*%
D15*
%TO.P,J4,1,Pin_1*%
%TO.N,/B6*%
X81852670Y-36006506D03*
D16*
%TO.P,J4,2,Pin_2*%
%TO.N,/B7*%
X80675147Y-36482256D03*
%TD*%
D11*
%TO.P,J5,1,Pin_1*%
%TO.N,/B9*%
X25700000Y-40000000D03*
D12*
%TO.P,J5,2,Pin_2*%
%TO.N,/B8*%
X26970000Y-40000000D03*
%TD*%
D17*
%TO.P,J13,1,Pin_1*%
%TO.N,/B25*%
X28147331Y-73993494D03*
D18*
%TO.P,J13,2,Pin_2*%
%TO.N,/B24*%
X29324854Y-73517744D03*
%TD*%
D10*
%TO.P,JMP12,1,A*%
%TO.N,/A11*%
X84300000Y-53800000D03*
%TD*%
D11*
%TO.P,J16,1,Pin_1*%
%TO.N,/B30*%
X84300000Y-77500000D03*
D12*
%TO.P,J16,2,Pin_2*%
%TO.N,/B31*%
X83030000Y-77500000D03*
%TD*%
D17*
%TO.P,J7,1,Pin_1*%
%TO.N,/B13*%
X28147331Y-43993494D03*
D18*
%TO.P,J7,2,Pin_2*%
%TO.N,/B12*%
X29324854Y-43517744D03*
%TD*%
D19*
%TO.P,J18,1,Pin_1*%
%TO.N,/LS0*%
X34000000Y-83625000D03*
D20*
%TO.P,J18,2,Pin_2*%
%TO.N,/LS1*%
X36540000Y-83625000D03*
%TO.P,J18,3,Pin_3*%
%TO.N,/LS2*%
X39080000Y-83625000D03*
%TO.P,J18,4,Pin_4*%
%TO.N,/LS3*%
X41620000Y-83625000D03*
%TD*%
D19*
%TO.P,J21,1,Pin_1*%
%TO.N,/VCC*%
X72460000Y-26375000D03*
D20*
%TO.P,J21,2,Pin_2*%
%TO.N,/LEN*%
X75000000Y-26375000D03*
%TD*%
D19*
%TO.P,J19,1,Pin_1*%
%TO.N,/LS4*%
X65840000Y-83625000D03*
D20*
%TO.P,J19,2,Pin_2*%
%TO.N,/LS5*%
X68380000Y-83625000D03*
%TO.P,J19,3,Pin_3*%
%TO.N,/LS6*%
X70920000Y-83625000D03*
%TO.P,J19,4,Pin_4*%
%TO.N,/LS7*%
X73460000Y-83625000D03*
%TO.P,J19,5,Pin_5*%
%TO.N,/LS8*%
X76000000Y-83625000D03*
%TD*%
D19*
%TO.P,J20,1,Pin_1*%
%TO.N,/VIN*%
X35000000Y-26375000D03*
D20*
%TO.P,J20,2,Pin_2*%
%TO.N,/GND*%
X37540000Y-26375000D03*
%TD*%
D21*
%TO.N,/GND*%
X61550000Y-46300000D03*
X61550000Y-48800000D03*
X62800000Y-56300000D03*
X48050000Y-75050000D03*
%TO.N,/B2*%
X46550000Y-27550000D03*
%TO.N,/B3*%
X43130180Y-36838731D03*
%TO.N,/B6*%
X39550000Y-27050000D03*
%TO.N,/B7*%
X36300000Y-36800000D03*
X73522701Y-29827299D03*
%TO.N,/B10*%
X48763694Y-50779500D03*
X49050000Y-39275500D03*
X80050000Y-59550000D03*
%TO.N,/B11*%
X79635619Y-58091075D03*
X49763197Y-50779500D03*
X50050000Y-41075500D03*
%TO.N,/B12*%
X35550000Y-43300000D03*
X40550000Y-43300000D03*
%TO.N,/B14*%
X51762203Y-50779500D03*
X79455225Y-55955225D03*
%TO.N,/B15*%
X50762700Y-50779500D03*
X79298021Y-57137027D03*
%TO.N,/B17*%
X58550000Y-36550000D03*
%TO.N,/B18*%
X66800000Y-40300000D03*
X67037701Y-50787701D03*
%TO.N,/B19*%
X66075500Y-42050000D03*
X66038276Y-50800146D03*
%TO.N,/B21*%
X46809565Y-41803605D03*
X46300000Y-51274500D03*
X46550000Y-55793870D03*
%TO.N,/B22*%
X59213286Y-50779500D03*
%TO.N,/B23*%
X60212789Y-50779500D03*
X59774500Y-40050000D03*
%TO.N,/B25*%
X72300000Y-37550000D03*
%TO.N,/B24*%
X72050000Y-39550000D03*
%TO.N,/B26*%
X79918665Y-60550000D03*
%TO.N,/B27*%
X79194165Y-61303388D03*
%TO.N,/B29*%
X73487250Y-41362750D03*
%TO.N,/B30*%
X70099500Y-34550000D03*
X71050000Y-41800000D03*
X77575500Y-45800000D03*
X78182935Y-63024328D03*
%TO.N,/B31*%
X77711924Y-43076335D03*
X78735376Y-62191373D03*
%TO.N,/LS0*%
X39800000Y-46050000D03*
%TO.N,/LS6*%
X77719500Y-63909898D03*
%TO.N,/LS8*%
X48050000Y-82500000D03*
%TO.N,/VCC*%
X73928203Y-66200000D03*
X32400500Y-66200000D03*
%TO.N,/A0*%
X49771000Y-53579000D03*
%TO.N,/A1*%
X51091256Y-53579000D03*
%TO.N,/A2*%
X52050000Y-53861511D03*
%TO.N,/A3*%
X54550000Y-56050000D03*
%TO.N,/A4*%
X45550000Y-54099500D03*
%TO.N,/A5*%
X37274500Y-54368023D03*
%TO.N,/A6*%
X47276305Y-54099500D03*
%TO.N,/A7*%
X48524500Y-56075500D03*
%TO.N,/A9*%
X66400500Y-70000000D03*
%TO.N,/A10*%
X67662033Y-72579999D03*
%TO.N,/A12*%
X58736946Y-72487653D03*
%TO.N,/A13*%
X58800000Y-75800000D03*
%TO.N,/A14*%
X59300000Y-78300000D03*
%TO.N,/A15*%
X55050000Y-81050000D03*
%TO.N,Net-(U2-A)*%
X44050000Y-50779500D03*
%TO.N,Net-(U3-A)*%
X55050000Y-36300000D03*
X55300000Y-52624500D03*
%TO.N,Net-(U4-A)*%
X73550000Y-35050000D03*
X44259484Y-59943370D03*
%TO.N,Net-(U1-A)*%
X38800000Y-51300000D03*
%TO.N,Net-(U6-A0)*%
X74652703Y-64380500D03*
%TD*%
D22*
%TO.N,/VIN*%
X35050000Y-26375000D02*
X28848691Y-26375000D01*
X25700000Y-29523691D02*
X25700000Y-32500000D01*
X28848691Y-26375000D02*
X25700000Y-29523691D01*
D23*
%TO.N,/B2*%
X77000000Y-25200000D02*
X48900000Y-25200000D01*
X84300000Y-32500000D02*
X77000000Y-25200000D01*
X48900000Y-25200000D02*
X46550000Y-27550000D01*
%TO.N,/B3*%
X43130180Y-36838731D02*
X43130180Y-34468829D01*
X45099009Y-32500000D02*
X83030000Y-32500000D01*
X43130180Y-34468829D02*
X45099009Y-32500000D01*
%TO.N,/B6*%
X37575000Y-30365000D02*
X34250000Y-33690000D01*
X39550000Y-27050000D02*
X37575000Y-29025000D01*
X37575000Y-29025000D02*
X37575000Y-30365000D01*
%TO.N,/B7*%
X36300000Y-34800000D02*
X36300000Y-36800000D01*
X41525000Y-29575000D02*
X36300000Y-34800000D01*
X73270402Y-29575000D02*
X41525000Y-29575000D01*
X73522701Y-29827299D02*
X73270402Y-29575000D01*
%TO.N,/B9*%
X28055000Y-37645000D02*
X51705000Y-37645000D01*
X51705000Y-37645000D02*
X53120000Y-36230000D01*
X25700000Y-40000000D02*
X28055000Y-37645000D01*
%TO.N,/B8*%
X51890000Y-40000000D02*
X53120000Y-38770000D01*
X26970000Y-40000000D02*
X51890000Y-40000000D01*
%TO.N,/B10*%
X50129692Y-52404500D02*
X48763694Y-51038502D01*
X53585991Y-37355000D02*
X54245000Y-36695991D01*
X80050000Y-59550000D02*
X74250000Y-53750000D01*
X74250000Y-53750000D02*
X68919083Y-53750000D01*
X54245000Y-34815000D02*
X53120000Y-33690000D01*
X54245000Y-36695991D02*
X54245000Y-34815000D01*
X52944009Y-37355000D02*
X53585991Y-37355000D01*
X68456382Y-54212701D02*
X59712701Y-54212701D01*
X51023509Y-39275500D02*
X52944009Y-37355000D01*
X52939800Y-51900000D02*
X52435300Y-52404500D01*
X68919083Y-53750000D02*
X68456382Y-54212701D01*
X59712701Y-54212701D02*
X57400000Y-51900000D01*
X52435300Y-52404500D02*
X50129692Y-52404500D01*
X49050000Y-39275500D02*
X51023509Y-39275500D01*
X48763694Y-51038502D02*
X48763694Y-50779500D01*
X57400000Y-51900000D02*
X52939800Y-51900000D01*
%TO.N,/B11*%
X50050000Y-41075500D02*
X50284500Y-41310000D01*
X50679195Y-51954500D02*
X49763197Y-51038502D01*
X74436396Y-53300000D02*
X68732687Y-53300000D01*
X59899097Y-53762701D02*
X57586396Y-51450000D01*
X79227471Y-58091075D02*
X74436396Y-53300000D01*
X49763197Y-51038502D02*
X49763197Y-50779500D01*
X50284500Y-41310000D02*
X53120000Y-41310000D01*
X57586396Y-51450000D02*
X52753404Y-51450000D01*
X52248904Y-51954500D02*
X50679195Y-51954500D01*
X68732687Y-53300000D02*
X68269986Y-53762701D01*
X68269986Y-53762701D02*
X59899097Y-53762701D01*
X52753404Y-51450000D02*
X52248904Y-51954500D01*
X79635619Y-58091075D02*
X79227471Y-58091075D01*
%TO.N,/B13*%
X28147331Y-43993494D02*
X28147331Y-43454227D01*
X42533604Y-42550000D02*
X43773604Y-41310000D01*
X29051558Y-42550000D02*
X42533604Y-42550000D01*
X43773604Y-41310000D02*
X45500000Y-41310000D01*
X28147331Y-43454227D02*
X29051558Y-42550000D01*
%TO.N,/B12*%
X35550000Y-43300000D02*
X40550000Y-43300000D01*
%TO.N,/B14*%
X60271889Y-52862701D02*
X57959188Y-50550000D01*
X67897194Y-52862701D02*
X60271889Y-52862701D01*
X57959188Y-50550000D02*
X51991703Y-50550000D01*
X79455225Y-55955225D02*
X78752615Y-55955225D01*
X75500000Y-52702610D02*
X75500000Y-52663604D01*
X51991703Y-50550000D02*
X51762203Y-50779500D01*
X75236396Y-52400000D02*
X68359895Y-52400000D01*
X78752615Y-55955225D02*
X75500000Y-52702610D01*
X75500000Y-52663604D02*
X75236396Y-52400000D01*
X68359895Y-52400000D02*
X67897194Y-52862701D01*
%TO.N,/B15*%
X52567008Y-51000000D02*
X52062508Y-51504500D01*
X75050000Y-52850000D02*
X68546291Y-52850000D01*
X60085493Y-53312701D02*
X57772792Y-51000000D01*
X50762700Y-50805302D02*
X50762700Y-50779500D01*
X75050000Y-52889006D02*
X75050000Y-52850000D01*
X52062508Y-51504500D02*
X51461898Y-51504500D01*
X68083590Y-53312701D02*
X60085493Y-53312701D01*
X57772792Y-51000000D02*
X52567008Y-51000000D01*
X51461898Y-51504500D02*
X50762700Y-50805302D01*
X68546291Y-52850000D02*
X68083590Y-53312701D01*
X79298021Y-57137027D02*
X75050000Y-52889006D01*
%TO.N,/B17*%
X64620000Y-36230000D02*
X58870000Y-36230000D01*
X58870000Y-36230000D02*
X58550000Y-36550000D01*
%TO.N,/B18*%
X79223199Y-53880225D02*
X80314718Y-53880225D01*
X77900000Y-52557026D02*
X79223199Y-53880225D01*
X75959188Y-50550000D02*
X77900000Y-52490812D01*
X77900000Y-52490812D02*
X77900000Y-52557026D01*
X66800000Y-35870000D02*
X64620000Y-33690000D01*
X80314718Y-53880225D02*
X82800000Y-56365507D01*
X66800000Y-40300000D02*
X66800000Y-35870000D01*
X67275402Y-50550000D02*
X75959188Y-50550000D01*
X67037701Y-50787701D02*
X67275402Y-50550000D01*
X82800000Y-56365507D02*
X82800000Y-65059176D01*
X82800000Y-65059176D02*
X81852670Y-66006506D01*
%TO.N,/B19*%
X82350000Y-64122372D02*
X82350000Y-56551903D01*
X77450000Y-52743422D02*
X77450000Y-52677208D01*
X67800707Y-51050000D02*
X67338006Y-51512701D01*
X82350000Y-56551903D02*
X80128322Y-54330225D01*
X66075500Y-42050000D02*
X65360000Y-42050000D01*
X80675147Y-65797225D02*
X82350000Y-64122372D01*
X66038276Y-51038276D02*
X66038276Y-50800146D01*
X80675147Y-66482256D02*
X80675147Y-65797225D01*
X77450000Y-52677208D02*
X75822792Y-51050000D01*
X75822792Y-51050000D02*
X67800707Y-51050000D01*
X65360000Y-42050000D02*
X64620000Y-41310000D01*
X67338006Y-51512701D02*
X66512701Y-51512701D01*
X79036803Y-54330225D02*
X77450000Y-52743422D01*
X66512701Y-51512701D02*
X66038276Y-51038276D01*
X80128322Y-54330225D02*
X79036803Y-54330225D01*
%TO.N,/B21*%
X46300000Y-51274500D02*
X46300000Y-55543870D01*
X54710991Y-41310000D02*
X57000000Y-41310000D01*
X52435000Y-42435000D02*
X53585991Y-42435000D01*
X53585991Y-42435000D02*
X54710991Y-41310000D01*
X51803605Y-41803605D02*
X52435000Y-42435000D01*
X46809565Y-41803605D02*
X51803605Y-41803605D01*
X46300000Y-55543870D02*
X46550000Y-55793870D01*
%TO.N,/B22*%
X59213286Y-51167702D02*
X60458285Y-52412701D01*
X81450000Y-56924695D02*
X81450000Y-63749580D01*
X78664011Y-55230225D02*
X79755530Y-55230225D01*
X83475000Y-70825000D02*
X84300000Y-70000000D01*
X76550000Y-53050000D02*
X76550000Y-53116214D01*
X79755530Y-55230225D02*
X81450000Y-56924695D01*
X75450000Y-51950000D02*
X76550000Y-53050000D01*
X60458285Y-52412701D02*
X67710798Y-52412701D01*
X76550000Y-53116214D02*
X78664011Y-55230225D01*
X79400147Y-67713649D02*
X82511498Y-70825000D01*
X82511498Y-70825000D02*
X83475000Y-70825000D01*
X79400147Y-65799433D02*
X79400147Y-67713649D01*
X81450000Y-63749580D02*
X79400147Y-65799433D01*
X59213286Y-50779500D02*
X59213286Y-51167702D01*
X67710798Y-52412701D02*
X68173499Y-51950000D01*
X68173499Y-51950000D02*
X75450000Y-51950000D01*
%TO.N,/B23*%
X61395990Y-51962701D02*
X67524402Y-51962701D01*
X77000000Y-52863604D02*
X77000000Y-52929818D01*
X67524402Y-51962701D02*
X67987103Y-51500000D01*
X59774500Y-40050000D02*
X59774500Y-39274500D01*
X60212789Y-50779500D02*
X61395990Y-51962701D01*
X79850147Y-67527253D02*
X82322894Y-70000000D01*
X81900000Y-56738299D02*
X81900000Y-63935976D01*
X78850407Y-54780225D02*
X79941926Y-54780225D01*
X79941926Y-54780225D02*
X81900000Y-56738299D01*
X77000000Y-52929818D02*
X78850407Y-54780225D01*
X82322894Y-70000000D02*
X83030000Y-70000000D01*
X59774500Y-39274500D02*
X59270000Y-38770000D01*
X80225147Y-65765529D02*
X79850147Y-66140529D01*
X67987103Y-51500000D02*
X75636396Y-51500000D01*
X59270000Y-38770000D02*
X57000000Y-38770000D01*
X81900000Y-63935976D02*
X80225147Y-65610829D01*
X80225147Y-65610829D02*
X80225147Y-65765529D01*
X79850147Y-66140529D02*
X79850147Y-67527253D01*
X75636396Y-51500000D02*
X77000000Y-52863604D01*
%TO.N,/B25*%
X72300000Y-37550000D02*
X73620000Y-36230000D01*
X73620000Y-36230000D02*
X75870000Y-36230000D01*
%TO.N,/B24*%
X72830000Y-38770000D02*
X75870000Y-38770000D01*
X72050000Y-39550000D02*
X72830000Y-38770000D01*
%TO.N,/B26*%
X80050000Y-60681335D02*
X80050000Y-64513184D01*
X78950147Y-65613037D02*
X78950147Y-70603983D01*
X79918665Y-60550000D02*
X80050000Y-60681335D01*
X78950147Y-70603983D02*
X81852670Y-73506506D01*
X80050000Y-64513184D02*
X78950147Y-65613037D01*
%TO.N,/B27*%
X79050000Y-61480692D02*
X79460376Y-61891068D01*
X79050000Y-61447553D02*
X79050000Y-61480692D01*
X79194165Y-61303388D02*
X79050000Y-61447553D01*
X78500147Y-65426641D02*
X78500147Y-71807256D01*
X79460376Y-61891068D02*
X79460376Y-64466412D01*
X78500147Y-71807256D02*
X80675147Y-73982256D01*
X79460376Y-64466412D02*
X78500147Y-65426641D01*
%TO.N,/B29*%
X73487250Y-41362750D02*
X72924500Y-40800000D01*
X72924500Y-40800000D02*
X70550000Y-40800000D01*
X70040000Y-41310000D02*
X68250000Y-41310000D01*
X70550000Y-40800000D02*
X70040000Y-41310000D01*
%TO.N,/B30*%
X83475000Y-78325000D02*
X84300000Y-77500000D01*
X76045991Y-42435000D02*
X75185000Y-42435000D01*
X75025000Y-42275000D02*
X71525000Y-42275000D01*
X75185000Y-42435000D02*
X75025000Y-42275000D01*
X78550000Y-64103996D02*
X77600147Y-65053849D01*
X82511498Y-78325000D02*
X83475000Y-78325000D01*
X71525000Y-42275000D02*
X71050000Y-41800000D01*
X77575500Y-45800000D02*
X77575500Y-43964509D01*
X77600147Y-73413649D02*
X82511498Y-78325000D01*
X70099500Y-34550000D02*
X69110000Y-34550000D01*
X78550000Y-63391393D02*
X78550000Y-64103996D01*
X77600147Y-65053849D02*
X77600147Y-73413649D01*
X77575500Y-43964509D02*
X76045991Y-42435000D01*
X78182935Y-63024328D02*
X78550000Y-63391393D01*
X69110000Y-34550000D02*
X68250000Y-33690000D01*
%TO.N,/B31*%
X78050147Y-73227253D02*
X82322894Y-77500000D01*
X79000000Y-62816088D02*
X79000000Y-64290392D01*
X77711924Y-41560933D02*
X76335991Y-40185000D01*
X78735376Y-62191373D02*
X78735376Y-62551464D01*
X76335991Y-40185000D02*
X72440305Y-40185000D01*
X72440305Y-40185000D02*
X72350305Y-40275000D01*
X77711924Y-43076335D02*
X77711924Y-41560933D01*
X78050147Y-65240245D02*
X78050147Y-73227253D01*
X79000000Y-64290392D02*
X78050147Y-65240245D01*
X72350305Y-40275000D02*
X69755000Y-40275000D01*
X82322894Y-77500000D02*
X83030000Y-77500000D01*
X78735376Y-62551464D02*
X79000000Y-62816088D01*
X69755000Y-40275000D02*
X68250000Y-38770000D01*
%TO.N,/LS0*%
X51995000Y-42725000D02*
X53120000Y-43850000D01*
X54245000Y-42725000D02*
X63495000Y-42725000D01*
X75870000Y-43850000D02*
X74745000Y-42725000D01*
X42995000Y-42725000D02*
X51995000Y-42725000D01*
X35375000Y-82250000D02*
X35375000Y-50475000D01*
X41870000Y-43850000D02*
X42995000Y-42725000D01*
X65300805Y-43850000D02*
X64620000Y-43850000D01*
X74745000Y-42725000D02*
X66425805Y-42725000D01*
X63495000Y-42725000D02*
X64620000Y-43850000D01*
X53120000Y-43850000D02*
X54245000Y-42725000D01*
X35375000Y-50475000D02*
X39800000Y-46050000D01*
X34000000Y-83625000D02*
X35375000Y-82250000D01*
X66425805Y-42725000D02*
X65300805Y-43850000D01*
%TO.N,/LS1*%
X54489695Y-47515000D02*
X62585000Y-47515000D01*
X66515000Y-47515000D02*
X74745000Y-47515000D01*
X52210000Y-46390000D02*
X53120000Y-46390000D01*
X53640000Y-46390000D02*
X53825000Y-46575000D01*
X46250991Y-45550000D02*
X51370000Y-45550000D01*
X44749009Y-45550000D02*
X45034009Y-45265000D01*
X74745000Y-47515000D02*
X75870000Y-46390000D01*
X64620000Y-46390000D02*
X65390000Y-46390000D01*
X36540000Y-83625000D02*
X36540000Y-51720000D01*
X45965991Y-45265000D02*
X46250991Y-45550000D01*
X53120000Y-46390000D02*
X53640000Y-46390000D01*
X36540000Y-51720000D02*
X41870000Y-46390000D01*
X41870000Y-46390000D02*
X42710000Y-45550000D01*
X53825000Y-46850305D02*
X54489695Y-47515000D01*
X53825000Y-46575000D02*
X53825000Y-46850305D01*
X42710000Y-45550000D02*
X44749009Y-45550000D01*
X51370000Y-45550000D02*
X52210000Y-46390000D01*
X63710000Y-46390000D02*
X64620000Y-46390000D01*
X65390000Y-46390000D02*
X66515000Y-47515000D01*
X45034009Y-45265000D02*
X45965991Y-45265000D01*
X62585000Y-47515000D02*
X63710000Y-46390000D01*
%TO.N,/LS4*%
X65840000Y-80150000D02*
X64620000Y-78930000D01*
X65840000Y-83625000D02*
X65840000Y-80150000D01*
%TO.N,/LS5*%
X75870000Y-73850000D02*
X76995000Y-74975000D01*
X72450000Y-80300000D02*
X69125000Y-83625000D01*
X76995000Y-79395991D02*
X76090991Y-80300000D01*
X76090991Y-80300000D02*
X72450000Y-80300000D01*
X76995000Y-74975000D02*
X76995000Y-79395991D01*
X69125000Y-83625000D02*
X68380000Y-83625000D01*
%TO.N,/LS6*%
X51995000Y-50055000D02*
X42995000Y-50055000D01*
X54245000Y-50055000D02*
X53120000Y-48930000D01*
X42995000Y-50055000D02*
X41870000Y-48930000D01*
X73795000Y-80750000D02*
X76277387Y-80750000D01*
X77150147Y-74493751D02*
X77150147Y-64479251D01*
X65745000Y-50055000D02*
X64620000Y-48930000D01*
X77445000Y-74788604D02*
X77150147Y-74493751D01*
X74745000Y-50055000D02*
X65745000Y-50055000D01*
X77150147Y-64479251D02*
X77719500Y-63909898D01*
X76277387Y-80750000D02*
X77445000Y-79582387D01*
X64620000Y-48930000D02*
X63495000Y-50055000D01*
X53120000Y-48930000D02*
X51995000Y-50055000D01*
X75870000Y-48930000D02*
X74745000Y-50055000D01*
X63495000Y-50055000D02*
X54245000Y-50055000D01*
X77445000Y-79582387D02*
X77445000Y-74788604D01*
X70920000Y-83625000D02*
X73795000Y-80750000D01*
%TO.N,/LS7*%
X45675991Y-77515000D02*
X45034009Y-77515000D01*
X73460000Y-83625000D02*
X72285000Y-84800000D01*
X52960991Y-84800000D02*
X45675991Y-77515000D01*
X45034009Y-77515000D02*
X41870000Y-74350991D01*
X41870000Y-74350991D02*
X41870000Y-73850000D01*
X72285000Y-84800000D02*
X52960991Y-84800000D01*
%TO.N,/LS8*%
X48050000Y-82500000D02*
X47479009Y-82500000D01*
X47479009Y-82500000D02*
X41870000Y-76890991D01*
X41870000Y-76890991D02*
X41870000Y-76390000D01*
%TO.N,/VCC*%
X64620000Y-61650991D02*
X68250000Y-65280991D01*
X32400500Y-50500500D02*
X32400500Y-66200000D01*
X53120000Y-31150000D02*
X51995000Y-30025000D01*
X25700000Y-43800000D02*
X32400500Y-50500500D01*
X64620000Y-61150000D02*
X64620000Y-61650991D01*
X73928203Y-66200000D02*
X73928203Y-63091797D01*
X75870000Y-29785000D02*
X72460000Y-26375000D01*
X73928203Y-63091797D02*
X75870000Y-61150000D01*
X54245000Y-30025000D02*
X53120000Y-31150000D01*
X63495000Y-30025000D02*
X54245000Y-30025000D01*
X51995000Y-30025000D02*
X42995000Y-30025000D01*
X75870000Y-31150000D02*
X75870000Y-29785000D01*
X42995000Y-30025000D02*
X41870000Y-31150000D01*
X64620000Y-31150000D02*
X63495000Y-30025000D01*
X68250000Y-65280991D02*
X68250000Y-65880000D01*
%TO.N,/LEN*%
X68250000Y-43850000D02*
X67125000Y-44975000D01*
X44375000Y-44975000D02*
X35375000Y-44975000D01*
X57000000Y-43850000D02*
X55875000Y-44975000D01*
X33125000Y-72725000D02*
X34250000Y-73850000D01*
X45500000Y-43850000D02*
X44375000Y-44975000D01*
X67125000Y-44975000D02*
X58125000Y-44975000D01*
X35375000Y-44975000D02*
X34250000Y-43850000D01*
X46625000Y-44975000D02*
X45500000Y-43850000D01*
X55875000Y-44975000D02*
X46625000Y-44975000D01*
X34250000Y-43850000D02*
X33125000Y-44975000D01*
X33125000Y-44975000D02*
X33125000Y-72725000D01*
X58125000Y-44975000D02*
X57000000Y-43850000D01*
%TO.N,/A0*%
X51050000Y-66700000D02*
X53120000Y-68770000D01*
X51050000Y-54858000D02*
X51050000Y-66700000D01*
X49771000Y-53579000D02*
X51050000Y-54858000D01*
%TO.N,/A1*%
X51545000Y-60497613D02*
X51545000Y-64655000D01*
X51550000Y-60492613D02*
X51545000Y-60497613D01*
X51550000Y-54386816D02*
X51550000Y-60492613D01*
X51091256Y-53928072D02*
X51550000Y-54386816D01*
X51545000Y-64655000D02*
X53120000Y-66230000D01*
X51091256Y-53579000D02*
X51091256Y-53928072D01*
%TO.N,/A2*%
X51995000Y-62565000D02*
X53120000Y-63690000D01*
X52050000Y-60629009D02*
X51995000Y-60684009D01*
X52050000Y-53861511D02*
X52050000Y-60629009D01*
X51995000Y-60684009D02*
X51995000Y-62565000D01*
%TO.N,/A3*%
X54550000Y-56050000D02*
X54550000Y-69880000D01*
X54550000Y-69880000D02*
X53120000Y-71310000D01*
%TO.N,/A4*%
X45550000Y-54099500D02*
X45500000Y-54149500D01*
X45500000Y-54149500D02*
X45500000Y-61150000D01*
%TO.N,/A5*%
X44375000Y-72435000D02*
X45500000Y-71310000D01*
X38050000Y-55143523D02*
X38050000Y-69080991D01*
X37274500Y-54368023D02*
X38050000Y-55143523D01*
X41404009Y-72435000D02*
X44375000Y-72435000D01*
X38050000Y-69080991D02*
X41404009Y-72435000D01*
%TO.N,/A6*%
X47800000Y-54623195D02*
X47800000Y-61390000D01*
X47800000Y-61390000D02*
X45500000Y-63690000D01*
X47276305Y-54099500D02*
X47800000Y-54623195D01*
%TO.N,/A7*%
X48524500Y-65745500D02*
X45500000Y-68770000D01*
X48524500Y-56075500D02*
X48524500Y-65745500D01*
%TO.N,/A9*%
X66400500Y-68010500D02*
X64620000Y-66230000D01*
X66400500Y-70000000D02*
X66400500Y-68010500D01*
%TO.N,/A10*%
X67662033Y-72579999D02*
X67125000Y-72042966D01*
X67125000Y-66195000D02*
X64620000Y-63690000D01*
X67125000Y-72042966D02*
X67125000Y-66195000D01*
%TO.N,/A12*%
X58736946Y-72487653D02*
X58550000Y-72300707D01*
X58550000Y-72300707D02*
X58550000Y-62700000D01*
X58550000Y-62700000D02*
X57000000Y-61150000D01*
%TO.N,/A13*%
X57000000Y-71775305D02*
X57000000Y-71310000D01*
X58800000Y-75800000D02*
X58800000Y-73575305D01*
X58800000Y-73575305D02*
X57000000Y-71775305D01*
%TO.N,/A14*%
X59525000Y-61425000D02*
X57900000Y-59800000D01*
X55875000Y-60025000D02*
X55875000Y-62565000D01*
X59525000Y-78075000D02*
X59525000Y-61425000D01*
X57900000Y-59800000D02*
X56100000Y-59800000D01*
X55875000Y-62565000D02*
X57000000Y-63690000D01*
X56100000Y-59800000D02*
X55875000Y-60025000D01*
X59300000Y-78300000D02*
X59525000Y-78075000D01*
%TO.N,/A15*%
X55050000Y-81050000D02*
X55050000Y-70720000D01*
X55050000Y-70720000D02*
X57000000Y-68770000D01*
%TO.N,Net-(U2-A)*%
X44050000Y-50779500D02*
X42550000Y-52279500D01*
X42995000Y-60684009D02*
X42995000Y-65105000D01*
X42550000Y-52279500D02*
X42550000Y-60239009D01*
X42550000Y-60239009D02*
X42995000Y-60684009D01*
X42995000Y-65105000D02*
X41870000Y-66230000D01*
%TO.N,Net-(U3-A)*%
X49813389Y-52854500D02*
X55070000Y-52854500D01*
X41550000Y-67550000D02*
X42140991Y-67550000D01*
X41870000Y-63690000D02*
X40745000Y-64815000D01*
X40745000Y-66745000D02*
X41550000Y-67550000D01*
X55070000Y-52854500D02*
X55300000Y-52624500D01*
X43445000Y-59677792D02*
X44500000Y-58622792D01*
X43445000Y-66245991D02*
X43445000Y-59677792D01*
X44500000Y-58622792D02*
X44500000Y-51354805D01*
X56930000Y-36300000D02*
X57000000Y-36230000D01*
X42140991Y-67550000D02*
X43445000Y-66245991D01*
X55050000Y-36300000D02*
X56930000Y-36300000D01*
X44500000Y-51354805D02*
X45304805Y-50550000D01*
X47508889Y-50550000D02*
X49813389Y-52854500D01*
X45304805Y-50550000D02*
X47508889Y-50550000D01*
X40745000Y-64815000D02*
X40745000Y-66745000D01*
%TO.N,Net-(U4-A)*%
X44259484Y-59943370D02*
X44375000Y-60058886D01*
X72370000Y-36230000D02*
X68250000Y-36230000D01*
X44375000Y-60058886D02*
X44375000Y-68805000D01*
X73550000Y-35050000D02*
X72370000Y-36230000D01*
X44375000Y-68805000D02*
X41870000Y-71310000D01*
%TO.N,Net-(U1-A)*%
X38800000Y-51300000D02*
X38800000Y-65700000D01*
X38800000Y-65700000D02*
X41870000Y-68770000D01*
%TO.N,Net-(U6-A0)*%
X74652703Y-64380500D02*
X74652703Y-67552703D01*
X74652703Y-67552703D02*
X75870000Y-68770000D01*
%TD*%
%TA.AperFunction,Conductor*%
%TO.N,/GND*%
G36*
X25157075Y-44272027D02*
G01*
X25206725Y-44298855D01*
X25299148Y-44380734D01*
X25449775Y-44459790D01*
X25614944Y-44500500D01*
X25785053Y-44500500D01*
X25785056Y-44500500D01*
X25841600Y-44486563D01*
X25904569Y-44487514D01*
X25958953Y-44519279D01*
X32038681Y-50599007D01*
X32065561Y-50639235D01*
X32075000Y-50686688D01*
X32075000Y-65631701D01*
X32062212Y-65686545D01*
X32026486Y-65730077D01*
X31972217Y-65771718D01*
X31875963Y-65897159D01*
X31815456Y-66043237D01*
X31794817Y-66200000D01*
X31815456Y-66356762D01*
X31875963Y-66502840D01*
X31972217Y-66628282D01*
X32054188Y-66691180D01*
X32097659Y-66724536D01*
X32243738Y-66785044D01*
X32400500Y-66805682D01*
X32557262Y-66785044D01*
X32604938Y-66765296D01*
X32628048Y-66755724D01*
X32687655Y-66746882D01*
X32744391Y-66767183D01*
X32784858Y-66811832D01*
X32799500Y-66870285D01*
X32799500Y-72705372D01*
X32799028Y-72716180D01*
X32795735Y-72753807D01*
X32805512Y-72790296D01*
X32807853Y-72800852D01*
X32814599Y-72839107D01*
X32824829Y-72863803D01*
X32825446Y-72864684D01*
X32847112Y-72895627D01*
X32852915Y-72904736D01*
X32856179Y-72910389D01*
X32871806Y-72937455D01*
X32885910Y-72949290D01*
X32900742Y-72961735D01*
X32908718Y-72969044D01*
X33288126Y-73348452D01*
X33320729Y-73406003D01*
X33319106Y-73472128D01*
X33263975Y-73653869D01*
X33244659Y-73849999D01*
X33263976Y-74046133D01*
X33321185Y-74234726D01*
X33362795Y-74312572D01*
X33414090Y-74408538D01*
X33539117Y-74560883D01*
X33691462Y-74685910D01*
X33865273Y-74778814D01*
X34053868Y-74836024D01*
X34250000Y-74855341D01*
X34446132Y-74836024D01*
X34634727Y-74778814D01*
X34808538Y-74685910D01*
X34846835Y-74654479D01*
X34910321Y-74627266D01*
X34978517Y-74638238D01*
X35030262Y-74683993D01*
X35049500Y-74750333D01*
X35049500Y-75425630D01*
X35030262Y-75491970D01*
X34978517Y-75537725D01*
X34910321Y-75548697D01*
X34846835Y-75521483D01*
X34836171Y-75512731D01*
X34653764Y-75415233D01*
X34500000Y-75368590D01*
X34500000Y-77411410D01*
X34653764Y-77364766D01*
X34836171Y-77267268D01*
X34846835Y-77258517D01*
X34910321Y-77231303D01*
X34978517Y-77242275D01*
X35030262Y-77288030D01*
X35049500Y-77354370D01*
X35049500Y-77965630D01*
X35030262Y-78031970D01*
X34978517Y-78077725D01*
X34910321Y-78088697D01*
X34846835Y-78061483D01*
X34836171Y-78052731D01*
X34653764Y-77955233D01*
X34500000Y-77908590D01*
X34500000Y-79951410D01*
X34653764Y-79904766D01*
X34836171Y-79807268D01*
X34846835Y-79798517D01*
X34910321Y-79771303D01*
X34978517Y-79782275D01*
X35030262Y-79828030D01*
X35049500Y-79894370D01*
X35049500Y-82063812D01*
X35040061Y-82111265D01*
X35013181Y-82151493D01*
X34626493Y-82538181D01*
X34586265Y-82565061D01*
X34538812Y-82574500D01*
X33130251Y-82574500D01*
X33071769Y-82586132D01*
X33005447Y-82630447D01*
X32961132Y-82696769D01*
X32949500Y-82755251D01*
X32949500Y-84494749D01*
X32961132Y-84553230D01*
X33005447Y-84619552D01*
X33071769Y-84663867D01*
X33130251Y-84675500D01*
X33130252Y-84675500D01*
X34869748Y-84675500D01*
X34869749Y-84675500D01*
X34898989Y-84669683D01*
X34928231Y-84663867D01*
X34994552Y-84619552D01*
X35038867Y-84553231D01*
X35050500Y-84494748D01*
X35050500Y-83086188D01*
X35059939Y-83038735D01*
X35086819Y-82998507D01*
X35209924Y-82875402D01*
X35591291Y-82494033D01*
X35599258Y-82486734D01*
X35628192Y-82462457D01*
X35628192Y-82462456D01*
X35628194Y-82462455D01*
X35647091Y-82429722D01*
X35652887Y-82420625D01*
X35674554Y-82389684D01*
X35674554Y-82389682D01*
X35675173Y-82388799D01*
X35685399Y-82364112D01*
X35685586Y-82363047D01*
X35685588Y-82363045D01*
X35692149Y-82325830D01*
X35694478Y-82315324D01*
X35704264Y-82278807D01*
X35700971Y-82241176D01*
X35700500Y-82230370D01*
X35700500Y-50661188D01*
X35709939Y-50613735D01*
X35736819Y-50573507D01*
X36669444Y-49640882D01*
X39628315Y-46682009D01*
X39676136Y-46652273D01*
X39732180Y-46646753D01*
X39800000Y-46655682D01*
X39956762Y-46635044D01*
X40102841Y-46574536D01*
X40228282Y-46478282D01*
X40324536Y-46352841D01*
X40385044Y-46206762D01*
X40405682Y-46050000D01*
X40385044Y-45893238D01*
X40324536Y-45747159D01*
X40294740Y-45708328D01*
X40228282Y-45621717D01*
X40099469Y-45522876D01*
X40061675Y-45474935D01*
X40051337Y-45414771D01*
X40070960Y-45356965D01*
X40115787Y-45315527D01*
X40174955Y-45300500D01*
X41290860Y-45300500D01*
X41353562Y-45317521D01*
X41399050Y-45363911D01*
X41414836Y-45426935D01*
X41396587Y-45489290D01*
X41349313Y-45533858D01*
X41311463Y-45554089D01*
X41159117Y-45679117D01*
X41034089Y-45831463D01*
X40941185Y-46005273D01*
X40883976Y-46193866D01*
X40864659Y-46390000D01*
X40883975Y-46586131D01*
X40939105Y-46767870D01*
X40940728Y-46833995D01*
X40908125Y-46891546D01*
X36323714Y-51475958D01*
X36315741Y-51483264D01*
X36286806Y-51507544D01*
X36267914Y-51540264D01*
X36262106Y-51549380D01*
X36239831Y-51581193D01*
X36229597Y-51605899D01*
X36222852Y-51644148D01*
X36220512Y-51654704D01*
X36210735Y-51691192D01*
X36214028Y-51728820D01*
X36214500Y-51739628D01*
X36214500Y-82534004D01*
X36203447Y-82585179D01*
X36172260Y-82627231D01*
X36145730Y-82641975D01*
X36146818Y-82644010D01*
X35953549Y-82747315D01*
X35793589Y-82878589D01*
X35662314Y-83038551D01*
X35564769Y-83221043D01*
X35504699Y-83419067D01*
X35484417Y-83625000D01*
X35504699Y-83830932D01*
X35504700Y-83830934D01*
X35564768Y-84028954D01*
X35662315Y-84211450D01*
X35711872Y-84271836D01*
X35793589Y-84371410D01*
X35873570Y-84437047D01*
X35953550Y-84502685D01*
X36136046Y-84600232D01*
X36334066Y-84660300D01*
X36540000Y-84680583D01*
X36745934Y-84660300D01*
X36943954Y-84600232D01*
X37126450Y-84502685D01*
X37286410Y-84371410D01*
X37417685Y-84211450D01*
X37515232Y-84028954D01*
X37575300Y-83830934D01*
X37595583Y-83625000D01*
X38024417Y-83625000D01*
X38044699Y-83830932D01*
X38044700Y-83830934D01*
X38104768Y-84028954D01*
X38202315Y-84211450D01*
X38251872Y-84271836D01*
X38333589Y-84371410D01*
X38413570Y-84437047D01*
X38493550Y-84502685D01*
X38676046Y-84600232D01*
X38874066Y-84660300D01*
X39080000Y-84680583D01*
X39285934Y-84660300D01*
X39483954Y-84600232D01*
X39666450Y-84502685D01*
X39826410Y-84371410D01*
X39957685Y-84211450D01*
X40055232Y-84028954D01*
X40115300Y-83830934D01*
X40135583Y-83625000D01*
X40564417Y-83625000D01*
X40584699Y-83830932D01*
X40584700Y-83830934D01*
X40644768Y-84028954D01*
X40742315Y-84211450D01*
X40791872Y-84271836D01*
X40873589Y-84371410D01*
X40953570Y-84437047D01*
X41033550Y-84502685D01*
X41216046Y-84600232D01*
X41414066Y-84660300D01*
X41620000Y-84680583D01*
X41825934Y-84660300D01*
X42023954Y-84600232D01*
X42206450Y-84502685D01*
X42366410Y-84371410D01*
X42497685Y-84211450D01*
X42595232Y-84028954D01*
X42655300Y-83830934D01*
X42675583Y-83625000D01*
X42655300Y-83419066D01*
X42595232Y-83221046D01*
X42497685Y-83038550D01*
X42407191Y-82928282D01*
X42366410Y-82878589D01*
X42216121Y-82755252D01*
X42206450Y-82747315D01*
X42023954Y-82649768D01*
X41924944Y-82619734D01*
X41825932Y-82589699D01*
X41620000Y-82569417D01*
X41414067Y-82589699D01*
X41216043Y-82649769D01*
X41033551Y-82747314D01*
X40873589Y-82878589D01*
X40742314Y-83038551D01*
X40644769Y-83221043D01*
X40584699Y-83419067D01*
X40564417Y-83625000D01*
X40135583Y-83625000D01*
X40115300Y-83419066D01*
X40055232Y-83221046D01*
X39957685Y-83038550D01*
X39867191Y-82928282D01*
X39826410Y-82878589D01*
X39676121Y-82755252D01*
X39666450Y-82747315D01*
X39483954Y-82649768D01*
X39384944Y-82619734D01*
X39285932Y-82589699D01*
X39080000Y-82569417D01*
X38874067Y-82589699D01*
X38676043Y-82649769D01*
X38493551Y-82747314D01*
X38333589Y-82878589D01*
X38202314Y-83038551D01*
X38104769Y-83221043D01*
X38044699Y-83419067D01*
X38024417Y-83625000D01*
X37595583Y-83625000D01*
X37575300Y-83419066D01*
X37515232Y-83221046D01*
X37417685Y-83038550D01*
X37327191Y-82928282D01*
X37286410Y-82878589D01*
X37126450Y-82747315D01*
X36933182Y-82644010D01*
X36934269Y-82641975D01*
X36907740Y-82627231D01*
X36876553Y-82585179D01*
X36865500Y-82534004D01*
X36865500Y-79180000D01*
X40848590Y-79180000D01*
X40895233Y-79333764D01*
X40992731Y-79516171D01*
X41123945Y-79676054D01*
X41283828Y-79807268D01*
X41466235Y-79904766D01*
X41620000Y-79951410D01*
X41620000Y-79180000D01*
X42120000Y-79180000D01*
X42120000Y-79951410D01*
X42273764Y-79904766D01*
X42456171Y-79807268D01*
X42616054Y-79676054D01*
X42747268Y-79516171D01*
X42844766Y-79333764D01*
X42891410Y-79180000D01*
X42120000Y-79180000D01*
X41620000Y-79180000D01*
X40848590Y-79180000D01*
X36865500Y-79180000D01*
X36865500Y-78680000D01*
X40848590Y-78680000D01*
X41620000Y-78680000D01*
X41620000Y-77908590D01*
X41466235Y-77955233D01*
X41283828Y-78052731D01*
X41123945Y-78183945D01*
X40992731Y-78343828D01*
X40895233Y-78526235D01*
X40848590Y-78680000D01*
X36865500Y-78680000D01*
X36865500Y-55034166D01*
X36880142Y-54975713D01*
X36920609Y-54931064D01*
X36977345Y-54910763D01*
X37036952Y-54919605D01*
X37081230Y-54937945D01*
X37117738Y-54953067D01*
X37248606Y-54970296D01*
X37274499Y-54973705D01*
X37274499Y-54973704D01*
X37274500Y-54973705D01*
X37342318Y-54964776D01*
X37398362Y-54970296D01*
X37446185Y-55000034D01*
X37688181Y-55242030D01*
X37715061Y-55282258D01*
X37724500Y-55329711D01*
X37724500Y-69061363D01*
X37724028Y-69072171D01*
X37720735Y-69109798D01*
X37730512Y-69146287D01*
X37732853Y-69156843D01*
X37739599Y-69195098D01*
X37749829Y-69219794D01*
X37750446Y-69220675D01*
X37772112Y-69251618D01*
X37777915Y-69260727D01*
X37796806Y-69293446D01*
X37817884Y-69311133D01*
X37825742Y-69317726D01*
X37833718Y-69325035D01*
X41159959Y-72651276D01*
X41167267Y-72659250D01*
X41191554Y-72688194D01*
X41215603Y-72702079D01*
X41224265Y-72707080D01*
X41233388Y-72712892D01*
X41264325Y-72734554D01*
X41264326Y-72734554D01*
X41265207Y-72735171D01*
X41289900Y-72745400D01*
X41290963Y-72745587D01*
X41290964Y-72745588D01*
X41328152Y-72752145D01*
X41338701Y-72754483D01*
X41340972Y-72755091D01*
X41392452Y-72783259D01*
X41425217Y-72831946D01*
X41431925Y-72890245D01*
X41411074Y-72945100D01*
X41367335Y-72984225D01*
X41311463Y-73014089D01*
X41159117Y-73139117D01*
X41034089Y-73291463D01*
X40941185Y-73465273D01*
X40883976Y-73653866D01*
X40864659Y-73849999D01*
X40883976Y-74046133D01*
X40941185Y-74234726D01*
X40982795Y-74312572D01*
X41034090Y-74408538D01*
X41159117Y-74560883D01*
X41311462Y-74685910D01*
X41485273Y-74778814D01*
X41673868Y-74836024D01*
X41870000Y-74855341D01*
X41870003Y-74855340D01*
X41874678Y-74855801D01*
X41915542Y-74867109D01*
X41950206Y-74891523D01*
X42285278Y-75226595D01*
X42317579Y-75282967D01*
X42316941Y-75347935D01*
X42283540Y-75403662D01*
X42226544Y-75434850D01*
X42161603Y-75432937D01*
X42066132Y-75403976D01*
X42066129Y-75403975D01*
X41870000Y-75384659D01*
X41673866Y-75403976D01*
X41485273Y-75461185D01*
X41311463Y-75554089D01*
X41159117Y-75679117D01*
X41034089Y-75831463D01*
X40941185Y-76005273D01*
X40883976Y-76193866D01*
X40864659Y-76390000D01*
X40883976Y-76586133D01*
X40941185Y-76774726D01*
X40957783Y-76805778D01*
X41034090Y-76948538D01*
X41159117Y-77100883D01*
X41311462Y-77225910D01*
X41485273Y-77318814D01*
X41673868Y-77376024D01*
X41870000Y-77395341D01*
X41870003Y-77395340D01*
X41874678Y-77395801D01*
X41915542Y-77407109D01*
X41950206Y-77431523D01*
X42211026Y-77692343D01*
X42243327Y-77748715D01*
X42242690Y-77813682D01*
X42209288Y-77869409D01*
X42152293Y-77900598D01*
X42131595Y-77899988D01*
X42120000Y-77908589D01*
X42120000Y-78680000D01*
X42891412Y-78680000D01*
X42900010Y-78668405D01*
X42899401Y-78647708D01*
X42930589Y-78590712D01*
X42986316Y-78557310D01*
X43051284Y-78556672D01*
X43107656Y-78588973D01*
X47234959Y-82716276D01*
X47242267Y-82724250D01*
X47266554Y-82753194D01*
X47270119Y-82755252D01*
X47299265Y-82772080D01*
X47308388Y-82777892D01*
X47339325Y-82799554D01*
X47339326Y-82799554D01*
X47340207Y-82800171D01*
X47364900Y-82810400D01*
X47365963Y-82810587D01*
X47365964Y-82810588D01*
X47403152Y-82817145D01*
X47413710Y-82819485D01*
X47450202Y-82829264D01*
X47471959Y-82827360D01*
X47532706Y-82837389D01*
X47581141Y-82875401D01*
X47621718Y-82928282D01*
X47747159Y-83024536D01*
X47893238Y-83085044D01*
X48050000Y-83105682D01*
X48206762Y-83085044D01*
X48352841Y-83024536D01*
X48478282Y-82928282D01*
X48574536Y-82802841D01*
X48635044Y-82656762D01*
X48655682Y-82500000D01*
X48635044Y-82343238D01*
X48574536Y-82197159D01*
X48574535Y-82197158D01*
X48478282Y-82071717D01*
X48352840Y-81975463D01*
X48206762Y-81914956D01*
X48050000Y-81894317D01*
X47893237Y-81914956D01*
X47747159Y-81975463D01*
X47645373Y-82053566D01*
X47591419Y-82077306D01*
X47532599Y-82073451D01*
X47482206Y-82042871D01*
X45616579Y-80177244D01*
X45583273Y-80116731D01*
X45587509Y-80047788D01*
X45627972Y-79991807D01*
X45692108Y-79966160D01*
X45705834Y-79964808D01*
X45903764Y-79904766D01*
X46086171Y-79807268D01*
X46246054Y-79676054D01*
X46377268Y-79516171D01*
X46474766Y-79333764D01*
X46534808Y-79135834D01*
X46536160Y-79122108D01*
X46561807Y-79057972D01*
X46617788Y-79017509D01*
X46686731Y-79013273D01*
X46747244Y-79046579D01*
X52488484Y-84787819D01*
X52518734Y-84837182D01*
X52523276Y-84894898D01*
X52501121Y-84948385D01*
X52457098Y-84985985D01*
X52400803Y-84999500D01*
X25124500Y-84999500D01*
X25062500Y-84982887D01*
X25017113Y-84937500D01*
X25000500Y-84875500D01*
X25000500Y-79180000D01*
X33228590Y-79180000D01*
X33275233Y-79333764D01*
X33372731Y-79516171D01*
X33503945Y-79676054D01*
X33663828Y-79807268D01*
X33846235Y-79904766D01*
X34000000Y-79951410D01*
X34000000Y-79180000D01*
X33228590Y-79180000D01*
X25000500Y-79180000D01*
X25000500Y-78680000D01*
X33228590Y-78680000D01*
X34000000Y-78680000D01*
X34000000Y-77908590D01*
X33846235Y-77955233D01*
X33663828Y-78052731D01*
X33503945Y-78183945D01*
X33372731Y-78343828D01*
X33275233Y-78526235D01*
X33228590Y-78680000D01*
X25000500Y-78680000D01*
X25000500Y-78315839D01*
X25012405Y-78262822D01*
X25045836Y-78219985D01*
X25094372Y-78195555D01*
X25148690Y-78194222D01*
X25180252Y-78200500D01*
X26219748Y-78200500D01*
X26219749Y-78200500D01*
X26251310Y-78194222D01*
X26278231Y-78188867D01*
X26344552Y-78144552D01*
X26375899Y-78097638D01*
X26429248Y-78052949D01*
X26498272Y-78044038D01*
X26561222Y-78073713D01*
X26569148Y-78080734D01*
X26719775Y-78159790D01*
X26884944Y-78200500D01*
X27055055Y-78200500D01*
X27055056Y-78200500D01*
X27220225Y-78159790D01*
X27370852Y-78080734D01*
X27498183Y-77967929D01*
X27594818Y-77827930D01*
X27655140Y-77668872D01*
X27675645Y-77500000D01*
X27655140Y-77331128D01*
X27594818Y-77172070D01*
X27498183Y-77032071D01*
X27370852Y-76919266D01*
X27338639Y-76902359D01*
X27220224Y-76840209D01*
X27080527Y-76805778D01*
X27055056Y-76799500D01*
X26884944Y-76799500D01*
X26864881Y-76804445D01*
X26719775Y-76840209D01*
X26569145Y-76919267D01*
X26561222Y-76926287D01*
X26498270Y-76955961D01*
X26429247Y-76947050D01*
X26375897Y-76902359D01*
X26344551Y-76855447D01*
X26278230Y-76811132D01*
X26219749Y-76799500D01*
X26219748Y-76799500D01*
X25180252Y-76799500D01*
X25148690Y-76805777D01*
X25094372Y-76804445D01*
X25045836Y-76780015D01*
X25012405Y-76737178D01*
X25000500Y-76684161D01*
X25000500Y-76640000D01*
X33228590Y-76640000D01*
X33275233Y-76793764D01*
X33372731Y-76976171D01*
X33503945Y-77136054D01*
X33663828Y-77267268D01*
X33846235Y-77364766D01*
X34000000Y-77411410D01*
X34000000Y-76640000D01*
X33228590Y-76640000D01*
X25000500Y-76640000D01*
X25000500Y-76140000D01*
X33228590Y-76140000D01*
X34000000Y-76140000D01*
X34000000Y-75368590D01*
X33846235Y-75415233D01*
X33663828Y-75512731D01*
X33503945Y-75643945D01*
X33372731Y-75803828D01*
X33275233Y-75986235D01*
X33228590Y-76140000D01*
X25000500Y-76140000D01*
X25000500Y-73715419D01*
X27292014Y-73715419D01*
X27303138Y-73774004D01*
X27692539Y-74737807D01*
X27725233Y-74787675D01*
X27791167Y-74832567D01*
X27869256Y-74848810D01*
X27869257Y-74848809D01*
X27869259Y-74848810D01*
X27927841Y-74837687D01*
X28891645Y-74448285D01*
X28941512Y-74415591D01*
X28986403Y-74349659D01*
X28998570Y-74291165D01*
X29028474Y-74232729D01*
X29084022Y-74197745D01*
X29149643Y-74196023D01*
X29239798Y-74218244D01*
X29409909Y-74218244D01*
X29409910Y-74218244D01*
X29575079Y-74177534D01*
X29725706Y-74098478D01*
X29853037Y-73985673D01*
X29949672Y-73845674D01*
X30009994Y-73686616D01*
X30030499Y-73517744D01*
X30009994Y-73348872D01*
X29949672Y-73189814D01*
X29868857Y-73072734D01*
X29853038Y-73049816D01*
X29843160Y-73041065D01*
X29725706Y-72937010D01*
X29695554Y-72921185D01*
X29575078Y-72857953D01*
X29435186Y-72823474D01*
X29409910Y-72817244D01*
X29239798Y-72817244D01*
X29214522Y-72823474D01*
X29074629Y-72857953D01*
X28924003Y-72937009D01*
X28796668Y-73049817D01*
X28723809Y-73155371D01*
X28675155Y-73196845D01*
X28612308Y-73208569D01*
X28551973Y-73187428D01*
X28503494Y-73154420D01*
X28425405Y-73138177D01*
X28366820Y-73149301D01*
X27403017Y-73538702D01*
X27353149Y-73571396D01*
X27308257Y-73637330D01*
X27292014Y-73715419D01*
X25000500Y-73715419D01*
X25000500Y-70815839D01*
X25012405Y-70762822D01*
X25045836Y-70719985D01*
X25094372Y-70695555D01*
X25148690Y-70694222D01*
X25180252Y-70700500D01*
X26219748Y-70700500D01*
X26219749Y-70700500D01*
X26266542Y-70691192D01*
X26278231Y-70688867D01*
X26344552Y-70644552D01*
X26375899Y-70597638D01*
X26429248Y-70552949D01*
X26498272Y-70544038D01*
X26561222Y-70573713D01*
X26569148Y-70580734D01*
X26719775Y-70659790D01*
X26884944Y-70700500D01*
X27055055Y-70700500D01*
X27055056Y-70700500D01*
X27220225Y-70659790D01*
X27370852Y-70580734D01*
X27498183Y-70467929D01*
X27594818Y-70327930D01*
X27655140Y-70168872D01*
X27675645Y-70000000D01*
X27655140Y-69831128D01*
X27594818Y-69672070D01*
X27527456Y-69574480D01*
X27498184Y-69532072D01*
X27495932Y-69530077D01*
X27370852Y-69419266D01*
X27356588Y-69411780D01*
X27220224Y-69340209D01*
X27080527Y-69305778D01*
X27055056Y-69299500D01*
X26884944Y-69299500D01*
X26864881Y-69304445D01*
X26719775Y-69340209D01*
X26569145Y-69419267D01*
X26561222Y-69426287D01*
X26498270Y-69455961D01*
X26429247Y-69447050D01*
X26375897Y-69402359D01*
X26344551Y-69355447D01*
X26278230Y-69311132D01*
X26219749Y-69299500D01*
X26219748Y-69299500D01*
X25180252Y-69299500D01*
X25148690Y-69305777D01*
X25094372Y-69304445D01*
X25045836Y-69280015D01*
X25012405Y-69237178D01*
X25000500Y-69184161D01*
X25000500Y-66215419D01*
X27292014Y-66215419D01*
X27303138Y-66274004D01*
X27692539Y-67237807D01*
X27725233Y-67287675D01*
X27791167Y-67332567D01*
X27869256Y-67348810D01*
X27869257Y-67348809D01*
X27869259Y-67348810D01*
X27927841Y-67337687D01*
X28891645Y-66948285D01*
X28941512Y-66915591D01*
X28986403Y-66849659D01*
X28998570Y-66791165D01*
X29028474Y-66732729D01*
X29084022Y-66697745D01*
X29149643Y-66696023D01*
X29239798Y-66718244D01*
X29409909Y-66718244D01*
X29409910Y-66718244D01*
X29575079Y-66677534D01*
X29725706Y-66598478D01*
X29853037Y-66485673D01*
X29949672Y-66345674D01*
X30009994Y-66186616D01*
X30030499Y-66017744D01*
X30009994Y-65848872D01*
X29949672Y-65689814D01*
X29888708Y-65601493D01*
X29853038Y-65549816D01*
X29818386Y-65519117D01*
X29725706Y-65437010D01*
X29665506Y-65405414D01*
X29575078Y-65357953D01*
X29423059Y-65320485D01*
X29409910Y-65317244D01*
X29239798Y-65317244D01*
X29226649Y-65320485D01*
X29074629Y-65357953D01*
X28924003Y-65437009D01*
X28796668Y-65549817D01*
X28723809Y-65655371D01*
X28675155Y-65696845D01*
X28612308Y-65708569D01*
X28551973Y-65687428D01*
X28503494Y-65654420D01*
X28425405Y-65638177D01*
X28366820Y-65649301D01*
X27403017Y-66038702D01*
X27353149Y-66071396D01*
X27308257Y-66137330D01*
X27292014Y-66215419D01*
X25000500Y-66215419D01*
X25000500Y-64391672D01*
X25013343Y-64336716D01*
X25049212Y-64293145D01*
X25100676Y-64269982D01*
X25157075Y-64272027D01*
X25206725Y-64298855D01*
X25299148Y-64380734D01*
X25449775Y-64459790D01*
X25614944Y-64500500D01*
X25785055Y-64500500D01*
X25785056Y-64500500D01*
X25950225Y-64459790D01*
X26100852Y-64380734D01*
X26228183Y-64267929D01*
X26324818Y-64127930D01*
X26385140Y-63968872D01*
X26405645Y-63800000D01*
X26385140Y-63631128D01*
X26324818Y-63472070D01*
X26264967Y-63385361D01*
X26228184Y-63332072D01*
X26228183Y-63332071D01*
X26100852Y-63219266D01*
X26064502Y-63200188D01*
X25950224Y-63140209D01*
X25811472Y-63106011D01*
X25785056Y-63099500D01*
X25614944Y-63099500D01*
X25588528Y-63106011D01*
X25449775Y-63140209D01*
X25354330Y-63190304D01*
X25299148Y-63219266D01*
X25206725Y-63301144D01*
X25157075Y-63327973D01*
X25100676Y-63330018D01*
X25049212Y-63306855D01*
X25013343Y-63263284D01*
X25000500Y-63208328D01*
X25000500Y-61891672D01*
X25013343Y-61836716D01*
X25049212Y-61793145D01*
X25100676Y-61769982D01*
X25157075Y-61772027D01*
X25206725Y-61798855D01*
X25299148Y-61880734D01*
X25449775Y-61959790D01*
X25614944Y-62000500D01*
X25785055Y-62000500D01*
X25785056Y-62000500D01*
X25950225Y-61959790D01*
X26100852Y-61880734D01*
X26228183Y-61767929D01*
X26324818Y-61627930D01*
X26385140Y-61468872D01*
X26405645Y-61300000D01*
X26385140Y-61131128D01*
X26324818Y-60972070D01*
X26257888Y-60875106D01*
X26228184Y-60832072D01*
X26228183Y-60832071D01*
X26100852Y-60719266D01*
X26009719Y-60671435D01*
X25950224Y-60640209D01*
X25802879Y-60603893D01*
X25785056Y-60599500D01*
X25614944Y-60599500D01*
X25597121Y-60603893D01*
X25449775Y-60640209D01*
X25390281Y-60671435D01*
X25299148Y-60719266D01*
X25206725Y-60801144D01*
X25157075Y-60827973D01*
X25100676Y-60830018D01*
X25049212Y-60806855D01*
X25013343Y-60763284D01*
X25000500Y-60708328D01*
X25000500Y-59391672D01*
X25013343Y-59336716D01*
X25049212Y-59293145D01*
X25100676Y-59269982D01*
X25157075Y-59272027D01*
X25206725Y-59298855D01*
X25299148Y-59380734D01*
X25449775Y-59459790D01*
X25614944Y-59500500D01*
X25785055Y-59500500D01*
X25785056Y-59500500D01*
X25950225Y-59459790D01*
X26100852Y-59380734D01*
X26228183Y-59267929D01*
X26324818Y-59127930D01*
X26385140Y-58968872D01*
X26405645Y-58800000D01*
X26385140Y-58631128D01*
X26324818Y-58472070D01*
X26228183Y-58332071D01*
X26100852Y-58219266D01*
X26080012Y-58208328D01*
X25950224Y-58140209D01*
X25825764Y-58109533D01*
X25785056Y-58099500D01*
X25614944Y-58099500D01*
X25582284Y-58107549D01*
X25449775Y-58140209D01*
X25350993Y-58192054D01*
X25299148Y-58219266D01*
X25206725Y-58301144D01*
X25157075Y-58327973D01*
X25100676Y-58330018D01*
X25049212Y-58306855D01*
X25013343Y-58263284D01*
X25000500Y-58208328D01*
X25000500Y-56891672D01*
X25013343Y-56836716D01*
X25049212Y-56793145D01*
X25100676Y-56769982D01*
X25157075Y-56772027D01*
X25206725Y-56798855D01*
X25299148Y-56880734D01*
X25449775Y-56959790D01*
X25614944Y-57000500D01*
X25785055Y-57000500D01*
X25785056Y-57000500D01*
X25950225Y-56959790D01*
X26100852Y-56880734D01*
X26228183Y-56767929D01*
X26324818Y-56627930D01*
X26385140Y-56468872D01*
X26405645Y-56300000D01*
X26385140Y-56131128D01*
X26324818Y-55972070D01*
X26228183Y-55832071D01*
X26100852Y-55719266D01*
X26080012Y-55708328D01*
X25950224Y-55640209D01*
X25825764Y-55609533D01*
X25785056Y-55599500D01*
X25614944Y-55599500D01*
X25582284Y-55607549D01*
X25449775Y-55640209D01*
X25350993Y-55692054D01*
X25299148Y-55719266D01*
X25206725Y-55801144D01*
X25157075Y-55827973D01*
X25100676Y-55830018D01*
X25049212Y-55806855D01*
X25013343Y-55763284D01*
X25000500Y-55708328D01*
X25000500Y-54391672D01*
X25013343Y-54336716D01*
X25049212Y-54293145D01*
X25100676Y-54269982D01*
X25157075Y-54272027D01*
X25206725Y-54298855D01*
X25299148Y-54380734D01*
X25449775Y-54459790D01*
X25614944Y-54500500D01*
X25785055Y-54500500D01*
X25785056Y-54500500D01*
X25950225Y-54459790D01*
X26100852Y-54380734D01*
X26228183Y-54267929D01*
X26324818Y-54127930D01*
X26385140Y-53968872D01*
X26405645Y-53800000D01*
X26385140Y-53631128D01*
X26324818Y-53472070D01*
X26228183Y-53332071D01*
X26100852Y-53219266D01*
X26086588Y-53211780D01*
X25950224Y-53140209D01*
X25825764Y-53109533D01*
X25785056Y-53099500D01*
X25614944Y-53099500D01*
X25582284Y-53107549D01*
X25449775Y-53140209D01*
X25355978Y-53189439D01*
X25299148Y-53219266D01*
X25206725Y-53301144D01*
X25157075Y-53327973D01*
X25100676Y-53330018D01*
X25049212Y-53306855D01*
X25013343Y-53263284D01*
X25000500Y-53208328D01*
X25000500Y-51891672D01*
X25013343Y-51836716D01*
X25049212Y-51793145D01*
X25100676Y-51769982D01*
X25157075Y-51772027D01*
X25206725Y-51798855D01*
X25299148Y-51880734D01*
X25449775Y-51959790D01*
X25614944Y-52000500D01*
X25785055Y-52000500D01*
X25785056Y-52000500D01*
X25950225Y-51959790D01*
X26100852Y-51880734D01*
X26228183Y-51767929D01*
X26324818Y-51627930D01*
X26385140Y-51468872D01*
X26405645Y-51300000D01*
X26385140Y-51131128D01*
X26324818Y-50972070D01*
X26255549Y-50871717D01*
X26228184Y-50832072D01*
X26228183Y-50832071D01*
X26100852Y-50719266D01*
X26053316Y-50694317D01*
X25950224Y-50640209D01*
X25825765Y-50609533D01*
X25785056Y-50599500D01*
X25614944Y-50599500D01*
X25582284Y-50607549D01*
X25449775Y-50640209D01*
X25350993Y-50692054D01*
X25299148Y-50719266D01*
X25206725Y-50801144D01*
X25157075Y-50827973D01*
X25100676Y-50830018D01*
X25049212Y-50806855D01*
X25013343Y-50763284D01*
X25000500Y-50708328D01*
X25000500Y-49391672D01*
X25013343Y-49336716D01*
X25049212Y-49293145D01*
X25100676Y-49269982D01*
X25157075Y-49272027D01*
X25206725Y-49298855D01*
X25299148Y-49380734D01*
X25449775Y-49459790D01*
X25614944Y-49500500D01*
X25785055Y-49500500D01*
X25785056Y-49500500D01*
X25950225Y-49459790D01*
X26100852Y-49380734D01*
X26228183Y-49267929D01*
X26324818Y-49127930D01*
X26385140Y-48968872D01*
X26405645Y-48800000D01*
X26385140Y-48631128D01*
X26324818Y-48472070D01*
X26255373Y-48371462D01*
X26228184Y-48332072D01*
X26228183Y-48332071D01*
X26100852Y-48219266D01*
X26080012Y-48208328D01*
X25950224Y-48140209D01*
X25825765Y-48109533D01*
X25785056Y-48099500D01*
X25614944Y-48099500D01*
X25582284Y-48107549D01*
X25449775Y-48140209D01*
X25366446Y-48183945D01*
X25299148Y-48219266D01*
X25206725Y-48301144D01*
X25157075Y-48327973D01*
X25100676Y-48330018D01*
X25049212Y-48306855D01*
X25013343Y-48263284D01*
X25000500Y-48208328D01*
X25000500Y-46891672D01*
X25013343Y-46836716D01*
X25049212Y-46793145D01*
X25100676Y-46769982D01*
X25157075Y-46772027D01*
X25206725Y-46798855D01*
X25299148Y-46880734D01*
X25449775Y-46959790D01*
X25614944Y-47000500D01*
X25785055Y-47000500D01*
X25785056Y-47000500D01*
X25950225Y-46959790D01*
X26100852Y-46880734D01*
X26228183Y-46767929D01*
X26324818Y-46627930D01*
X26385140Y-46468872D01*
X26405645Y-46300000D01*
X26385140Y-46131128D01*
X26324818Y-45972070D01*
X26247867Y-45860588D01*
X26228184Y-45832072D01*
X26227497Y-45831463D01*
X26100852Y-45719266D01*
X26080012Y-45708328D01*
X25950224Y-45640209D01*
X25825764Y-45609533D01*
X25785056Y-45599500D01*
X25614944Y-45599500D01*
X25582284Y-45607549D01*
X25449775Y-45640209D01*
X25350993Y-45692054D01*
X25299148Y-45719266D01*
X25206725Y-45801144D01*
X25157075Y-45827973D01*
X25100676Y-45830018D01*
X25049212Y-45806855D01*
X25013343Y-45763284D01*
X25000500Y-45708328D01*
X25000500Y-44391672D01*
X25013343Y-44336716D01*
X25049212Y-44293145D01*
X25100676Y-44269982D01*
X25157075Y-44272027D01*
G37*
%TD.AperFunction*%
%TA.AperFunction,Conductor*%
G36*
X47370154Y-50884939D02*
G01*
X47410382Y-50911819D01*
X49416198Y-52917635D01*
X49449578Y-52978478D01*
X49445039Y-53047727D01*
X49404003Y-53103692D01*
X49342717Y-53150717D01*
X49246463Y-53276159D01*
X49185956Y-53422237D01*
X49165317Y-53579000D01*
X49185956Y-53735762D01*
X49246463Y-53881840D01*
X49342717Y-54007282D01*
X49443923Y-54084939D01*
X49468159Y-54103536D01*
X49614238Y-54164044D01*
X49745106Y-54181273D01*
X49770999Y-54184682D01*
X49770999Y-54184681D01*
X49771000Y-54184682D01*
X49838818Y-54175753D01*
X49894862Y-54181273D01*
X49942685Y-54211011D01*
X50688181Y-54956507D01*
X50715061Y-54996735D01*
X50724500Y-55044188D01*
X50724500Y-66680372D01*
X50724028Y-66691180D01*
X50720735Y-66728807D01*
X50730512Y-66765296D01*
X50732853Y-66775852D01*
X50739599Y-66814107D01*
X50749829Y-66838803D01*
X50750446Y-66839684D01*
X50772112Y-66870627D01*
X50777915Y-66879736D01*
X50796806Y-66912455D01*
X50825742Y-66936735D01*
X50833718Y-66944044D01*
X52158126Y-68268452D01*
X52190729Y-68326003D01*
X52189106Y-68392128D01*
X52133975Y-68573869D01*
X52114659Y-68770000D01*
X52133976Y-68966133D01*
X52191185Y-69154726D01*
X52246587Y-69258375D01*
X52284090Y-69328538D01*
X52409117Y-69480883D01*
X52561462Y-69605910D01*
X52735273Y-69698814D01*
X52923868Y-69756024D01*
X53120000Y-69775341D01*
X53316132Y-69756024D01*
X53504727Y-69698814D01*
X53678538Y-69605910D01*
X53830883Y-69480883D01*
X53955910Y-69328538D01*
X53991141Y-69262624D01*
X54035710Y-69215350D01*
X54098065Y-69197101D01*
X54161089Y-69212887D01*
X54207479Y-69258375D01*
X54224500Y-69321077D01*
X54224500Y-69693811D01*
X54215061Y-69741264D01*
X54188181Y-69781492D01*
X53621546Y-70348126D01*
X53563994Y-70380729D01*
X53497870Y-70379106D01*
X53316130Y-70323975D01*
X53141426Y-70306769D01*
X53120000Y-70304659D01*
X53119999Y-70304659D01*
X52923866Y-70323976D01*
X52735273Y-70381185D01*
X52561463Y-70474089D01*
X52409117Y-70599117D01*
X52284089Y-70751463D01*
X52191185Y-70925273D01*
X52133976Y-71113866D01*
X52114659Y-71310000D01*
X52133976Y-71506133D01*
X52191185Y-71694726D01*
X52222865Y-71753994D01*
X52284090Y-71868538D01*
X52409117Y-72020883D01*
X52561462Y-72145910D01*
X52735273Y-72238814D01*
X52923868Y-72296024D01*
X53120000Y-72315341D01*
X53316132Y-72296024D01*
X53504727Y-72238814D01*
X53678538Y-72145910D01*
X53830883Y-72020883D01*
X53955910Y-71868538D01*
X54048814Y-71694727D01*
X54106024Y-71506132D01*
X54125341Y-71310000D01*
X54106024Y-71113868D01*
X54050892Y-70932126D01*
X54049270Y-70866004D01*
X54081873Y-70808452D01*
X54384849Y-70505476D01*
X54766296Y-70124029D01*
X54774250Y-70116740D01*
X54803194Y-70092455D01*
X54822102Y-70059703D01*
X54827878Y-70050638D01*
X54849553Y-70019684D01*
X54849553Y-70019681D01*
X54850171Y-70018800D01*
X54860400Y-69994105D01*
X54860586Y-69993047D01*
X54860588Y-69993045D01*
X54867150Y-69955824D01*
X54869480Y-69945312D01*
X54879263Y-69908807D01*
X54875971Y-69871188D01*
X54875500Y-69860382D01*
X54875500Y-56618299D01*
X54888288Y-56563455D01*
X54924014Y-56519923D01*
X54978282Y-56478282D01*
X55074536Y-56352841D01*
X55135044Y-56206762D01*
X55155682Y-56050000D01*
X55135044Y-55893238D01*
X55074536Y-55747159D01*
X54997849Y-55647218D01*
X54978282Y-55621717D01*
X54852840Y-55525463D01*
X54706762Y-55464956D01*
X54550000Y-55444317D01*
X54393237Y-55464956D01*
X54247159Y-55525463D01*
X54121717Y-55621717D01*
X54025463Y-55747159D01*
X53964956Y-55893237D01*
X53944317Y-56050000D01*
X53964956Y-56206762D01*
X54025463Y-56352840D01*
X54061306Y-56399552D01*
X54121718Y-56478282D01*
X54175986Y-56519923D01*
X54211712Y-56563455D01*
X54224500Y-56618299D01*
X54224500Y-60598923D01*
X54207479Y-60661625D01*
X54161089Y-60707113D01*
X54098065Y-60722899D01*
X54035710Y-60704650D01*
X53991142Y-60657376D01*
X53981521Y-60639378D01*
X53955910Y-60591462D01*
X53830883Y-60439117D01*
X53678538Y-60314090D01*
X53656091Y-60302092D01*
X53504726Y-60221185D01*
X53316133Y-60163976D01*
X53120000Y-60144659D01*
X52923866Y-60163976D01*
X52735273Y-60221185D01*
X52557953Y-60315965D01*
X52496457Y-60330570D01*
X52435751Y-60312965D01*
X52391609Y-60267726D01*
X52375500Y-60206607D01*
X52375500Y-54429810D01*
X52388288Y-54374966D01*
X52424014Y-54331434D01*
X52478282Y-54289793D01*
X52574536Y-54164352D01*
X52635044Y-54018273D01*
X52655682Y-53861511D01*
X52635044Y-53704749D01*
X52574536Y-53558670D01*
X52562420Y-53542880D01*
X52478282Y-53433228D01*
X52438074Y-53402376D01*
X52400280Y-53354435D01*
X52389942Y-53294271D01*
X52409565Y-53236465D01*
X52454392Y-53195027D01*
X52513560Y-53180000D01*
X55047248Y-53180000D01*
X55094701Y-53189439D01*
X55143238Y-53209544D01*
X55299999Y-53230182D01*
X55299999Y-53230181D01*
X55300000Y-53230182D01*
X55456762Y-53209544D01*
X55602841Y-53149036D01*
X55728282Y-53052782D01*
X55824536Y-52927341D01*
X55885044Y-52781262D01*
X55905682Y-52624500D01*
X55885044Y-52467738D01*
X55861471Y-52410828D01*
X55855724Y-52396952D01*
X55846882Y-52337345D01*
X55867183Y-52280609D01*
X55911832Y-52240142D01*
X55970285Y-52225500D01*
X57213812Y-52225500D01*
X57261265Y-52234939D01*
X57301493Y-52261819D01*
X59468651Y-54428977D01*
X59475959Y-54436951D01*
X59500246Y-54465895D01*
X59523739Y-54479459D01*
X59532957Y-54484781D01*
X59542080Y-54490593D01*
X59550471Y-54496468D01*
X59573017Y-54512255D01*
X59573018Y-54512255D01*
X59573899Y-54512872D01*
X59598592Y-54523101D01*
X59599655Y-54523288D01*
X59599656Y-54523289D01*
X59636847Y-54529846D01*
X59647405Y-54532187D01*
X59683892Y-54541964D01*
X59683893Y-54541963D01*
X59683894Y-54541964D01*
X59721512Y-54538672D01*
X59732319Y-54538201D01*
X68436755Y-54538201D01*
X68447562Y-54538672D01*
X68485189Y-54541965D01*
X68521706Y-54532179D01*
X68532212Y-54529850D01*
X68569427Y-54523289D01*
X68569429Y-54523287D01*
X68570494Y-54523100D01*
X68595181Y-54512874D01*
X68596064Y-54512255D01*
X68596066Y-54512255D01*
X68627007Y-54490588D01*
X68636104Y-54484792D01*
X68668837Y-54465895D01*
X68693130Y-54436942D01*
X68700406Y-54429001D01*
X69017592Y-54111816D01*
X69057818Y-54084939D01*
X69105271Y-54075500D01*
X74063812Y-54075500D01*
X74111265Y-54084939D01*
X74151493Y-54111819D01*
X79417988Y-59378314D01*
X79447726Y-59426136D01*
X79453246Y-59482180D01*
X79444317Y-59549999D01*
X79464956Y-59706762D01*
X79525463Y-59852840D01*
X79566834Y-59906756D01*
X79591397Y-59966057D01*
X79583019Y-60029694D01*
X79543945Y-60080617D01*
X79490383Y-60121716D01*
X79394128Y-60247159D01*
X79333621Y-60393237D01*
X79312982Y-60550000D01*
X79313888Y-60556878D01*
X79305508Y-60620514D01*
X79266434Y-60671435D01*
X79207134Y-60695998D01*
X79037402Y-60718344D01*
X78891324Y-60778851D01*
X78765882Y-60875105D01*
X78669628Y-61000547D01*
X78609121Y-61146625D01*
X78588482Y-61303387D01*
X78611252Y-61476335D01*
X78611092Y-61476356D01*
X78617261Y-61523212D01*
X78592698Y-61582513D01*
X78541775Y-61621588D01*
X78432534Y-61666837D01*
X78307093Y-61763090D01*
X78210839Y-61888532D01*
X78150332Y-62034610D01*
X78129693Y-62191373D01*
X78143827Y-62298725D01*
X78135449Y-62362363D01*
X78096375Y-62413286D01*
X78037074Y-62437848D01*
X78031457Y-62438588D01*
X78026172Y-62439284D01*
X77880093Y-62499792D01*
X77754652Y-62596045D01*
X77658398Y-62721487D01*
X77597891Y-62867565D01*
X77577252Y-63024328D01*
X77600022Y-63197275D01*
X77598834Y-63197431D01*
X77604496Y-63240453D01*
X77579932Y-63299751D01*
X77529010Y-63338824D01*
X77416658Y-63385361D01*
X77291217Y-63481615D01*
X77194963Y-63607057D01*
X77134456Y-63753135D01*
X77113817Y-63909898D01*
X77122746Y-63977716D01*
X77117226Y-64033760D01*
X77087488Y-64081582D01*
X77020172Y-64148898D01*
X76963800Y-64181199D01*
X76898832Y-64180561D01*
X76843105Y-64147159D01*
X76811917Y-64090163D01*
X76813830Y-64025223D01*
X76856024Y-63886132D01*
X76875341Y-63690000D01*
X76856024Y-63493868D01*
X76798814Y-63305273D01*
X76705910Y-63131462D01*
X76580883Y-62979117D01*
X76428538Y-62854090D01*
X76344263Y-62809044D01*
X76254726Y-62761185D01*
X76066133Y-62703976D01*
X75870000Y-62684659D01*
X75673866Y-62703976D01*
X75485273Y-62761185D01*
X75311463Y-62854089D01*
X75159117Y-62979117D01*
X75034089Y-63131463D01*
X74941185Y-63305273D01*
X74883976Y-63493866D01*
X74866257Y-63673770D01*
X74842853Y-63734938D01*
X74791554Y-63775652D01*
X74726670Y-63784555D01*
X74652704Y-63774817D01*
X74495940Y-63795456D01*
X74425155Y-63824776D01*
X74365548Y-63833618D01*
X74308812Y-63813317D01*
X74268345Y-63768668D01*
X74253703Y-63710215D01*
X74253703Y-63277985D01*
X74263142Y-63230532D01*
X74290022Y-63190304D01*
X74809134Y-62671192D01*
X75368452Y-62111872D01*
X75426004Y-62079270D01*
X75492126Y-62080892D01*
X75673868Y-62136024D01*
X75870000Y-62155341D01*
X76066132Y-62136024D01*
X76254727Y-62078814D01*
X76428538Y-61985910D01*
X76580883Y-61860883D01*
X76705910Y-61708538D01*
X76798814Y-61534727D01*
X76856024Y-61346132D01*
X76875341Y-61150000D01*
X76856024Y-60953868D01*
X76798814Y-60765273D01*
X76705910Y-60591462D01*
X76580883Y-60439117D01*
X76428538Y-60314090D01*
X76406091Y-60302092D01*
X76254726Y-60221185D01*
X76066133Y-60163976D01*
X75870000Y-60144659D01*
X75673866Y-60163976D01*
X75485273Y-60221185D01*
X75311463Y-60314089D01*
X75159117Y-60439117D01*
X75034089Y-60591463D01*
X74941185Y-60765273D01*
X74883976Y-60953866D01*
X74864659Y-61150000D01*
X74883975Y-61346130D01*
X74939106Y-61527870D01*
X74940729Y-61593994D01*
X74908126Y-61651546D01*
X73711917Y-62847755D01*
X73703944Y-62855061D01*
X73675009Y-62879341D01*
X73656117Y-62912061D01*
X73650309Y-62921177D01*
X73628034Y-62952990D01*
X73617800Y-62977696D01*
X73611055Y-63015945D01*
X73608715Y-63026501D01*
X73598938Y-63062989D01*
X73602231Y-63100617D01*
X73602703Y-63111425D01*
X73602703Y-65631701D01*
X73589915Y-65686545D01*
X73554189Y-65730077D01*
X73499920Y-65771718D01*
X73403666Y-65897159D01*
X73343159Y-66043237D01*
X73322520Y-66199999D01*
X73343159Y-66356762D01*
X73403666Y-66502840D01*
X73499920Y-66628282D01*
X73581891Y-66691180D01*
X73625362Y-66724536D01*
X73771441Y-66785044D01*
X73928203Y-66805682D01*
X74084965Y-66785044D01*
X74132641Y-66765296D01*
X74155751Y-66755724D01*
X74215358Y-66746882D01*
X74272094Y-66767183D01*
X74312561Y-66811832D01*
X74327203Y-66870285D01*
X74327203Y-67533075D01*
X74326731Y-67543883D01*
X74323438Y-67581510D01*
X74333215Y-67617999D01*
X74335556Y-67628555D01*
X74342302Y-67666810D01*
X74352532Y-67691506D01*
X74353149Y-67692387D01*
X74374815Y-67723330D01*
X74380618Y-67732439D01*
X74390832Y-67750129D01*
X74399509Y-67765158D01*
X74421935Y-67783976D01*
X74428445Y-67789438D01*
X74436421Y-67796747D01*
X74908126Y-68268452D01*
X74940729Y-68326003D01*
X74939106Y-68392128D01*
X74883975Y-68573869D01*
X74864659Y-68770000D01*
X74883976Y-68966133D01*
X74941185Y-69154726D01*
X74996587Y-69258375D01*
X75034090Y-69328538D01*
X75159117Y-69480883D01*
X75311462Y-69605910D01*
X75485273Y-69698814D01*
X75673868Y-69756024D01*
X75870000Y-69775341D01*
X76066132Y-69756024D01*
X76254727Y-69698814D01*
X76428538Y-69605910D01*
X76580883Y-69480883D01*
X76604797Y-69451743D01*
X76653195Y-69415851D01*
X76712802Y-69407009D01*
X76769538Y-69427310D01*
X76810005Y-69471959D01*
X76824647Y-69530412D01*
X76824647Y-70549588D01*
X76810005Y-70608041D01*
X76769538Y-70652690D01*
X76712802Y-70672991D01*
X76653195Y-70664149D01*
X76604797Y-70628256D01*
X76580883Y-70599117D01*
X76428538Y-70474090D01*
X76384874Y-70450751D01*
X76254726Y-70381185D01*
X76066133Y-70323976D01*
X75968065Y-70314317D01*
X75870000Y-70304659D01*
X75869999Y-70304659D01*
X75673866Y-70323976D01*
X75485273Y-70381185D01*
X75311463Y-70474089D01*
X75159117Y-70599117D01*
X75034089Y-70751463D01*
X74941185Y-70925273D01*
X74883976Y-71113866D01*
X74864659Y-71310000D01*
X74883976Y-71506133D01*
X74941185Y-71694726D01*
X74972865Y-71753994D01*
X75034090Y-71868538D01*
X75159117Y-72020883D01*
X75311462Y-72145910D01*
X75485273Y-72238814D01*
X75673868Y-72296024D01*
X75870000Y-72315341D01*
X76066132Y-72296024D01*
X76254727Y-72238814D01*
X76428538Y-72145910D01*
X76580883Y-72020883D01*
X76604797Y-71991743D01*
X76653195Y-71955851D01*
X76712802Y-71947009D01*
X76769538Y-71967310D01*
X76810005Y-72011959D01*
X76824647Y-72070412D01*
X76824647Y-73089588D01*
X76810005Y-73148041D01*
X76769538Y-73192690D01*
X76712802Y-73212991D01*
X76653195Y-73204149D01*
X76604797Y-73168256D01*
X76580883Y-73139117D01*
X76428538Y-73014090D01*
X76344263Y-72969044D01*
X76254726Y-72921185D01*
X76066133Y-72863976D01*
X75870000Y-72844659D01*
X75673866Y-72863976D01*
X75485273Y-72921185D01*
X75311463Y-73014089D01*
X75159117Y-73139117D01*
X75034089Y-73291463D01*
X74941185Y-73465273D01*
X74883976Y-73653866D01*
X74864659Y-73849999D01*
X74883976Y-74046133D01*
X74941185Y-74234726D01*
X74982795Y-74312572D01*
X75034090Y-74408538D01*
X75159117Y-74560883D01*
X75311462Y-74685910D01*
X75485273Y-74778814D01*
X75673868Y-74836024D01*
X75870000Y-74855341D01*
X76066132Y-74836024D01*
X76247870Y-74780893D01*
X76313995Y-74779270D01*
X76371547Y-74811873D01*
X76633181Y-75073508D01*
X76660061Y-75113736D01*
X76669500Y-75161189D01*
X76669500Y-75425630D01*
X76650262Y-75491970D01*
X76598517Y-75537725D01*
X76530321Y-75548697D01*
X76466835Y-75521483D01*
X76456171Y-75512731D01*
X76273764Y-75415233D01*
X76120000Y-75368590D01*
X76120000Y-77411410D01*
X76273764Y-77364766D01*
X76456171Y-77267268D01*
X76466835Y-77258517D01*
X76530321Y-77231303D01*
X76598517Y-77242275D01*
X76650262Y-77288030D01*
X76669500Y-77354370D01*
X76669500Y-77965630D01*
X76650262Y-78031970D01*
X76598517Y-78077725D01*
X76530321Y-78088697D01*
X76466835Y-78061483D01*
X76456171Y-78052731D01*
X76273764Y-77955233D01*
X76120000Y-77908590D01*
X76120000Y-79056000D01*
X76103387Y-79118000D01*
X76058000Y-79163387D01*
X75996000Y-79180000D01*
X74848590Y-79180000D01*
X74895233Y-79333764D01*
X74992731Y-79516171D01*
X75123945Y-79676054D01*
X75219710Y-79754647D01*
X75255606Y-79803048D01*
X75264448Y-79862654D01*
X75244147Y-79919391D01*
X75199498Y-79959858D01*
X75141045Y-79974500D01*
X72469619Y-79974500D01*
X72458812Y-79974028D01*
X72456298Y-79973808D01*
X72421191Y-79970736D01*
X72384710Y-79980511D01*
X72374155Y-79982852D01*
X72362814Y-79984851D01*
X72336955Y-79989412D01*
X72336953Y-79989412D01*
X72335897Y-79989599D01*
X72311192Y-79999831D01*
X72279380Y-80022106D01*
X72270264Y-80027914D01*
X72237545Y-80046805D01*
X72213262Y-80075744D01*
X72205956Y-80083716D01*
X69351468Y-82938204D01*
X69291944Y-82971284D01*
X69223928Y-82967942D01*
X69167934Y-82929187D01*
X69126410Y-82878590D01*
X68966450Y-82747315D01*
X68783954Y-82649768D01*
X68684944Y-82619734D01*
X68585932Y-82589699D01*
X68380000Y-82569417D01*
X68174067Y-82589699D01*
X67976043Y-82649769D01*
X67793551Y-82747314D01*
X67633589Y-82878589D01*
X67502314Y-83038551D01*
X67404769Y-83221043D01*
X67344699Y-83419067D01*
X67324417Y-83624999D01*
X67344699Y-83830932D01*
X67344700Y-83830934D01*
X67404768Y-84028954D01*
X67502315Y-84211450D01*
X67539419Y-84256661D01*
X67551872Y-84271836D01*
X67579086Y-84335322D01*
X67568113Y-84403517D01*
X67522358Y-84455262D01*
X67456018Y-84474500D01*
X67014500Y-84474500D01*
X66952500Y-84457887D01*
X66907113Y-84412500D01*
X66890500Y-84350500D01*
X66890500Y-82755251D01*
X66878867Y-82696769D01*
X66834552Y-82630447D01*
X66768230Y-82586132D01*
X66709749Y-82574500D01*
X66709748Y-82574500D01*
X66289500Y-82574500D01*
X66227500Y-82557887D01*
X66182113Y-82512500D01*
X66165500Y-82450500D01*
X66165500Y-80169627D01*
X66165972Y-80158819D01*
X66169264Y-80121192D01*
X66159487Y-80084706D01*
X66157145Y-80074143D01*
X66152325Y-80046806D01*
X66150588Y-80036955D01*
X66150587Y-80036954D01*
X66150400Y-80035891D01*
X66140171Y-80011198D01*
X66139554Y-80010317D01*
X66139554Y-80010316D01*
X66119666Y-79981913D01*
X66117892Y-79979379D01*
X66112080Y-79970256D01*
X66093194Y-79937544D01*
X66064255Y-79913262D01*
X66056280Y-79905954D01*
X65581873Y-79431547D01*
X65549270Y-79373995D01*
X65550894Y-79307870D01*
X65589683Y-79180000D01*
X67228590Y-79180000D01*
X67275233Y-79333764D01*
X67372731Y-79516171D01*
X67503945Y-79676054D01*
X67663828Y-79807268D01*
X67846235Y-79904766D01*
X68000000Y-79951410D01*
X68000000Y-79180000D01*
X68500000Y-79180000D01*
X68500000Y-79951410D01*
X68653764Y-79904766D01*
X68836171Y-79807268D01*
X68996054Y-79676054D01*
X69127268Y-79516171D01*
X69224766Y-79333764D01*
X69271410Y-79180000D01*
X68500000Y-79180000D01*
X68000000Y-79180000D01*
X67228590Y-79180000D01*
X65589683Y-79180000D01*
X65606024Y-79126132D01*
X65625341Y-78930000D01*
X65606024Y-78733868D01*
X65589683Y-78680000D01*
X67228590Y-78680000D01*
X68000000Y-78680000D01*
X68000000Y-77908590D01*
X68500000Y-77908590D01*
X68500000Y-78680000D01*
X69271410Y-78680000D01*
X74848590Y-78680000D01*
X75620000Y-78680000D01*
X75620000Y-77908590D01*
X75466235Y-77955233D01*
X75283828Y-78052731D01*
X75123945Y-78183945D01*
X74992731Y-78343828D01*
X74895233Y-78526235D01*
X74848590Y-78680000D01*
X69271410Y-78680000D01*
X69224766Y-78526235D01*
X69127268Y-78343828D01*
X68996054Y-78183945D01*
X68836171Y-78052731D01*
X68653764Y-77955233D01*
X68500000Y-77908590D01*
X68000000Y-77908590D01*
X67846235Y-77955233D01*
X67663828Y-78052731D01*
X67503945Y-78183945D01*
X67372731Y-78343828D01*
X67275233Y-78526235D01*
X67228590Y-78680000D01*
X65589683Y-78680000D01*
X65548814Y-78545273D01*
X65455910Y-78371462D01*
X65330883Y-78219117D01*
X65178538Y-78094090D01*
X65089943Y-78046735D01*
X65004726Y-78001185D01*
X64816133Y-77943976D01*
X64620000Y-77924659D01*
X64423866Y-77943976D01*
X64235273Y-78001185D01*
X64061463Y-78094089D01*
X63909117Y-78219117D01*
X63784089Y-78371463D01*
X63691185Y-78545273D01*
X63633976Y-78733866D01*
X63614659Y-78930000D01*
X63633976Y-79126133D01*
X63691185Y-79314726D01*
X63722865Y-79373995D01*
X63784090Y-79488538D01*
X63909117Y-79640883D01*
X64061462Y-79765910D01*
X64235273Y-79858814D01*
X64423868Y-79916024D01*
X64620000Y-79935341D01*
X64816132Y-79916024D01*
X64997870Y-79860893D01*
X65063995Y-79859270D01*
X65121547Y-79891873D01*
X65478181Y-80248507D01*
X65505061Y-80288735D01*
X65514500Y-80336188D01*
X65514500Y-82450500D01*
X65497887Y-82512500D01*
X65452500Y-82557887D01*
X65390500Y-82574500D01*
X64970251Y-82574500D01*
X64911769Y-82586132D01*
X64845447Y-82630447D01*
X64801132Y-82696769D01*
X64789500Y-82755251D01*
X64789500Y-84350500D01*
X64772887Y-84412500D01*
X64727500Y-84457887D01*
X64665500Y-84474500D01*
X53147179Y-84474500D01*
X53099726Y-84465061D01*
X53059498Y-84438181D01*
X49671317Y-81050000D01*
X54444317Y-81050000D01*
X54464956Y-81206762D01*
X54525463Y-81352840D01*
X54621717Y-81478282D01*
X54747158Y-81574535D01*
X54747159Y-81574536D01*
X54893238Y-81635044D01*
X55050000Y-81655682D01*
X55206762Y-81635044D01*
X55352841Y-81574536D01*
X55478282Y-81478282D01*
X55574536Y-81352841D01*
X55635044Y-81206762D01*
X55655682Y-81050000D01*
X55635044Y-80893238D01*
X55574536Y-80747159D01*
X55478282Y-80621718D01*
X55424013Y-80580076D01*
X55388288Y-80536545D01*
X55375500Y-80481701D01*
X55375500Y-79180000D01*
X55978590Y-79180000D01*
X56025233Y-79333764D01*
X56122731Y-79516171D01*
X56253945Y-79676054D01*
X56413828Y-79807268D01*
X56596235Y-79904766D01*
X56750000Y-79951410D01*
X56750000Y-79180000D01*
X57250000Y-79180000D01*
X57250000Y-79951410D01*
X57403764Y-79904766D01*
X57586171Y-79807268D01*
X57746054Y-79676054D01*
X57877268Y-79516171D01*
X57974766Y-79333764D01*
X58021410Y-79180000D01*
X57250000Y-79180000D01*
X56750000Y-79180000D01*
X55978590Y-79180000D01*
X55375500Y-79180000D01*
X55375500Y-78680000D01*
X55978590Y-78680000D01*
X56750000Y-78680000D01*
X56750000Y-77908590D01*
X57250000Y-77908590D01*
X57250000Y-78680000D01*
X58021410Y-78680000D01*
X57974766Y-78526235D01*
X57877268Y-78343828D01*
X57746054Y-78183945D01*
X57586171Y-78052731D01*
X57403764Y-77955233D01*
X57250000Y-77908590D01*
X56750000Y-77908590D01*
X56596235Y-77955233D01*
X56413828Y-78052731D01*
X56253945Y-78183945D01*
X56122731Y-78343828D01*
X56025233Y-78526235D01*
X55978590Y-78680000D01*
X55375500Y-78680000D01*
X55375500Y-76640000D01*
X55978590Y-76640000D01*
X56025233Y-76793764D01*
X56122731Y-76976171D01*
X56253945Y-77136054D01*
X56413828Y-77267268D01*
X56596235Y-77364766D01*
X56750000Y-77411410D01*
X56750000Y-76640000D01*
X57250000Y-76640000D01*
X57250000Y-77411410D01*
X57403764Y-77364766D01*
X57586171Y-77267268D01*
X57746054Y-77136054D01*
X57877268Y-76976171D01*
X57974766Y-76793764D01*
X58021410Y-76640000D01*
X57250000Y-76640000D01*
X56750000Y-76640000D01*
X55978590Y-76640000D01*
X55375500Y-76640000D01*
X55375500Y-76140000D01*
X55978590Y-76140000D01*
X56750000Y-76140000D01*
X56750000Y-75368590D01*
X57250000Y-75368590D01*
X57250000Y-76140000D01*
X58021411Y-76140000D01*
X58016874Y-76125044D01*
X58014329Y-76062870D01*
X58025713Y-76040253D01*
X58024707Y-76040001D01*
X57977349Y-75991067D01*
X57877268Y-75803828D01*
X57746054Y-75643945D01*
X57586171Y-75512731D01*
X57403764Y-75415233D01*
X57250000Y-75368590D01*
X56750000Y-75368590D01*
X56596235Y-75415233D01*
X56413828Y-75512731D01*
X56253945Y-75643945D01*
X56122731Y-75803828D01*
X56025233Y-75986235D01*
X55978590Y-76140000D01*
X55375500Y-76140000D01*
X55375500Y-70906188D01*
X55384939Y-70858735D01*
X55411819Y-70818507D01*
X55927486Y-70302840D01*
X56498454Y-69731871D01*
X56556004Y-69699270D01*
X56622126Y-69700892D01*
X56803868Y-69756024D01*
X57000000Y-69775341D01*
X57196132Y-69756024D01*
X57384727Y-69698814D01*
X57558538Y-69605910D01*
X57710883Y-69480883D01*
X57835910Y-69328538D01*
X57928814Y-69154727D01*
X57954647Y-69069568D01*
X57981840Y-68979926D01*
X58019969Y-68921631D01*
X58083511Y-68893091D01*
X58152414Y-68903312D01*
X58204935Y-68949069D01*
X58224500Y-69015922D01*
X58224500Y-71064078D01*
X58204935Y-71130931D01*
X58152414Y-71176688D01*
X58083511Y-71186909D01*
X58019969Y-71158369D01*
X57981840Y-71100074D01*
X57928814Y-70925273D01*
X57897133Y-70866003D01*
X57835910Y-70751462D01*
X57710883Y-70599117D01*
X57558538Y-70474090D01*
X57514874Y-70450751D01*
X57384726Y-70381185D01*
X57196133Y-70323976D01*
X57098065Y-70314317D01*
X57000000Y-70304659D01*
X56999999Y-70304659D01*
X56803866Y-70323976D01*
X56615273Y-70381185D01*
X56441463Y-70474089D01*
X56289117Y-70599117D01*
X56164089Y-70751463D01*
X56071185Y-70925273D01*
X56013976Y-71113866D01*
X55994659Y-71310000D01*
X56013976Y-71506133D01*
X56071185Y-71694726D01*
X56102865Y-71753994D01*
X56164090Y-71868538D01*
X56289117Y-72020883D01*
X56441462Y-72145910D01*
X56615273Y-72238814D01*
X56803868Y-72296024D01*
X57000000Y-72315341D01*
X57014198Y-72313942D01*
X57068125Y-72320593D01*
X57114033Y-72349664D01*
X57466503Y-72702134D01*
X57498804Y-72758506D01*
X57498166Y-72823474D01*
X57464765Y-72879201D01*
X57407769Y-72910389D01*
X57342828Y-72908476D01*
X57196132Y-72863976D01*
X57196129Y-72863975D01*
X57000000Y-72844659D01*
X56803866Y-72863976D01*
X56615273Y-72921185D01*
X56441463Y-73014089D01*
X56289117Y-73139117D01*
X56164089Y-73291463D01*
X56071185Y-73465273D01*
X56013976Y-73653866D01*
X55994659Y-73849999D01*
X56013976Y-74046133D01*
X56071185Y-74234726D01*
X56112795Y-74312572D01*
X56164090Y-74408538D01*
X56289117Y-74560883D01*
X56441462Y-74685910D01*
X56615273Y-74778814D01*
X56803868Y-74836024D01*
X57000000Y-74855341D01*
X57196132Y-74836024D01*
X57384727Y-74778814D01*
X57558538Y-74685910D01*
X57710883Y-74560883D01*
X57835910Y-74408538D01*
X57928814Y-74234727D01*
X57986024Y-74046132D01*
X58005341Y-73850000D01*
X57986024Y-73653868D01*
X57941523Y-73507171D01*
X57939610Y-73442232D01*
X57970798Y-73385236D01*
X58026525Y-73351834D01*
X58091493Y-73351196D01*
X58147865Y-73383497D01*
X58438181Y-73673813D01*
X58465061Y-73714041D01*
X58474500Y-73761494D01*
X58474500Y-75231701D01*
X58461712Y-75286545D01*
X58425986Y-75330077D01*
X58371717Y-75371718D01*
X58275463Y-75497159D01*
X58214956Y-75643237D01*
X58194317Y-75800000D01*
X58209646Y-75916429D01*
X58199654Y-75983790D01*
X58198184Y-75985521D01*
X58212620Y-75991920D01*
X58250095Y-76041595D01*
X58275464Y-76102841D01*
X58371717Y-76228282D01*
X58468428Y-76302490D01*
X58497159Y-76324536D01*
X58643238Y-76385044D01*
X58800000Y-76405682D01*
X58956762Y-76385044D01*
X59000382Y-76366976D01*
X59028048Y-76355517D01*
X59087655Y-76346675D01*
X59144391Y-76366976D01*
X59184858Y-76411625D01*
X59199500Y-76470078D01*
X59199500Y-77608798D01*
X59190061Y-77656251D01*
X59163181Y-77696480D01*
X59122952Y-77723358D01*
X59103824Y-77731282D01*
X58997159Y-77775463D01*
X58871717Y-77871717D01*
X58775463Y-77997159D01*
X58714956Y-78143237D01*
X58694317Y-78299999D01*
X58714956Y-78456762D01*
X58775463Y-78602840D01*
X58871717Y-78728282D01*
X58982672Y-78813420D01*
X58997159Y-78824536D01*
X59143238Y-78885044D01*
X59300000Y-78905682D01*
X59456762Y-78885044D01*
X59602841Y-78824536D01*
X59728282Y-78728282D01*
X59824536Y-78602841D01*
X59885044Y-78456762D01*
X59905682Y-78300000D01*
X59900787Y-78262822D01*
X59885044Y-78143238D01*
X59859939Y-78082630D01*
X59850500Y-78035177D01*
X59850500Y-76389999D01*
X63614659Y-76389999D01*
X63633976Y-76586133D01*
X63691185Y-76774726D01*
X63707783Y-76805778D01*
X63784090Y-76948538D01*
X63909117Y-77100883D01*
X64061462Y-77225910D01*
X64235273Y-77318814D01*
X64423868Y-77376024D01*
X64620000Y-77395341D01*
X64816132Y-77376024D01*
X65004727Y-77318814D01*
X65178538Y-77225910D01*
X65330883Y-77100883D01*
X65455910Y-76948538D01*
X65548814Y-76774727D01*
X65589683Y-76640000D01*
X67228590Y-76640000D01*
X67275233Y-76793764D01*
X67372731Y-76976171D01*
X67503945Y-77136054D01*
X67663828Y-77267268D01*
X67846235Y-77364766D01*
X68000000Y-77411410D01*
X68000000Y-76640000D01*
X68500000Y-76640000D01*
X68500000Y-77411410D01*
X68653764Y-77364766D01*
X68836171Y-77267268D01*
X68996054Y-77136054D01*
X69127268Y-76976171D01*
X69224766Y-76793764D01*
X69271410Y-76640000D01*
X74848590Y-76640000D01*
X74895233Y-76793764D01*
X74992731Y-76976171D01*
X75123945Y-77136054D01*
X75283828Y-77267268D01*
X75466235Y-77364766D01*
X75620000Y-77411410D01*
X75620000Y-76640000D01*
X74848590Y-76640000D01*
X69271410Y-76640000D01*
X68500000Y-76640000D01*
X68000000Y-76640000D01*
X67228590Y-76640000D01*
X65589683Y-76640000D01*
X65606024Y-76586132D01*
X65625341Y-76390000D01*
X65606024Y-76193868D01*
X65589683Y-76140000D01*
X67228590Y-76140000D01*
X68000000Y-76140000D01*
X68000000Y-75368590D01*
X68500000Y-75368590D01*
X68500000Y-76140000D01*
X69271410Y-76140000D01*
X74848590Y-76140000D01*
X75620000Y-76140000D01*
X75620000Y-75368590D01*
X75466235Y-75415233D01*
X75283828Y-75512731D01*
X75123945Y-75643945D01*
X74992731Y-75803828D01*
X74895233Y-75986235D01*
X74848590Y-76140000D01*
X69271410Y-76140000D01*
X69224766Y-75986235D01*
X69127268Y-75803828D01*
X68996054Y-75643945D01*
X68836171Y-75512731D01*
X68653764Y-75415233D01*
X68500000Y-75368590D01*
X68000000Y-75368590D01*
X67846235Y-75415233D01*
X67663828Y-75512731D01*
X67503945Y-75643945D01*
X67372731Y-75803828D01*
X67275233Y-75986235D01*
X67228590Y-76140000D01*
X65589683Y-76140000D01*
X65548814Y-76005273D01*
X65455910Y-75831462D01*
X65330883Y-75679117D01*
X65178538Y-75554090D01*
X65062320Y-75491970D01*
X65004726Y-75461185D01*
X64816133Y-75403976D01*
X64620000Y-75384659D01*
X64423866Y-75403976D01*
X64235273Y-75461185D01*
X64061463Y-75554089D01*
X63909117Y-75679117D01*
X63784089Y-75831463D01*
X63691185Y-76005273D01*
X63633976Y-76193866D01*
X63614659Y-76389999D01*
X59850500Y-76389999D01*
X59850500Y-73849999D01*
X63614659Y-73849999D01*
X63633976Y-74046133D01*
X63691185Y-74234726D01*
X63732795Y-74312572D01*
X63784090Y-74408538D01*
X63909117Y-74560883D01*
X64061462Y-74685910D01*
X64235273Y-74778814D01*
X64423868Y-74836024D01*
X64620000Y-74855341D01*
X64816132Y-74836024D01*
X65004727Y-74778814D01*
X65178538Y-74685910D01*
X65330883Y-74560883D01*
X65455910Y-74408538D01*
X65548814Y-74234727D01*
X65606024Y-74046132D01*
X65625341Y-73850000D01*
X65606024Y-73653868D01*
X65548814Y-73465273D01*
X65455910Y-73291462D01*
X65330883Y-73139117D01*
X65178538Y-73014090D01*
X65094263Y-72969044D01*
X65004726Y-72921185D01*
X64816133Y-72863976D01*
X64620000Y-72844659D01*
X64423866Y-72863976D01*
X64235273Y-72921185D01*
X64061463Y-73014089D01*
X63909117Y-73139117D01*
X63784089Y-73291463D01*
X63691185Y-73465273D01*
X63633976Y-73653866D01*
X63614659Y-73849999D01*
X59850500Y-73849999D01*
X59850500Y-71310000D01*
X63614659Y-71310000D01*
X63633976Y-71506133D01*
X63691185Y-71694726D01*
X63722865Y-71753994D01*
X63784090Y-71868538D01*
X63909117Y-72020883D01*
X64061462Y-72145910D01*
X64235273Y-72238814D01*
X64423868Y-72296024D01*
X64620000Y-72315341D01*
X64816132Y-72296024D01*
X65004727Y-72238814D01*
X65178538Y-72145910D01*
X65330883Y-72020883D01*
X65455910Y-71868538D01*
X65548814Y-71694727D01*
X65606024Y-71506132D01*
X65625341Y-71310000D01*
X65606024Y-71113868D01*
X65548814Y-70925273D01*
X65455910Y-70751462D01*
X65330883Y-70599117D01*
X65178538Y-70474090D01*
X65134874Y-70450751D01*
X65004726Y-70381185D01*
X64816133Y-70323976D01*
X64718065Y-70314317D01*
X64620000Y-70304659D01*
X64619999Y-70304659D01*
X64423866Y-70323976D01*
X64235273Y-70381185D01*
X64061463Y-70474089D01*
X63909117Y-70599117D01*
X63784089Y-70751463D01*
X63691185Y-70925273D01*
X63633976Y-71113866D01*
X63614659Y-71310000D01*
X59850500Y-71310000D01*
X59850500Y-68770000D01*
X63614659Y-68770000D01*
X63633976Y-68966133D01*
X63691185Y-69154726D01*
X63746587Y-69258375D01*
X63784090Y-69328538D01*
X63909117Y-69480883D01*
X64061462Y-69605910D01*
X64235273Y-69698814D01*
X64423868Y-69756024D01*
X64620000Y-69775341D01*
X64816132Y-69756024D01*
X65004727Y-69698814D01*
X65178538Y-69605910D01*
X65330883Y-69480883D01*
X65455910Y-69328538D01*
X65548814Y-69154727D01*
X65606024Y-68966132D01*
X65625341Y-68770000D01*
X65606024Y-68573868D01*
X65548814Y-68385273D01*
X65455910Y-68211462D01*
X65330883Y-68059117D01*
X65178538Y-67934090D01*
X65060161Y-67870816D01*
X65004726Y-67841185D01*
X64816133Y-67783976D01*
X64620000Y-67764659D01*
X64423866Y-67783976D01*
X64235273Y-67841185D01*
X64061463Y-67934089D01*
X63909117Y-68059117D01*
X63784089Y-68211463D01*
X63691185Y-68385273D01*
X63633976Y-68573866D01*
X63614659Y-68770000D01*
X59850500Y-68770000D01*
X59850500Y-66230000D01*
X63614659Y-66230000D01*
X63633976Y-66426133D01*
X63691185Y-66614726D01*
X63746517Y-66718244D01*
X63784090Y-66788538D01*
X63909117Y-66940883D01*
X64061462Y-67065910D01*
X64235273Y-67158814D01*
X64423868Y-67216024D01*
X64620000Y-67235341D01*
X64816132Y-67216024D01*
X64997870Y-67160893D01*
X65063995Y-67159270D01*
X65121546Y-67191872D01*
X65595421Y-67665748D01*
X66038681Y-68109008D01*
X66065561Y-68149236D01*
X66075000Y-68196689D01*
X66075000Y-69431701D01*
X66062212Y-69486545D01*
X66026486Y-69530077D01*
X65972217Y-69571718D01*
X65875963Y-69697159D01*
X65815456Y-69843237D01*
X65794817Y-70000000D01*
X65815456Y-70156762D01*
X65875963Y-70302840D01*
X65972217Y-70428282D01*
X66075516Y-70507545D01*
X66097659Y-70524536D01*
X66243738Y-70585044D01*
X66400500Y-70605682D01*
X66557262Y-70585044D01*
X66602399Y-70566347D01*
X66628048Y-70555724D01*
X66687655Y-70546882D01*
X66744391Y-70567183D01*
X66784858Y-70611832D01*
X66799500Y-70670285D01*
X66799500Y-72023338D01*
X66799028Y-72034146D01*
X66795735Y-72071773D01*
X66805512Y-72108262D01*
X66807853Y-72118818D01*
X66814599Y-72157073D01*
X66824829Y-72181769D01*
X66825446Y-72182650D01*
X66847112Y-72213593D01*
X66852915Y-72222702D01*
X66871806Y-72255421D01*
X66900742Y-72279701D01*
X66908718Y-72287010D01*
X67030021Y-72408313D01*
X67059759Y-72456135D01*
X67065279Y-72512179D01*
X67056350Y-72579998D01*
X67076989Y-72736761D01*
X67137496Y-72882839D01*
X67233750Y-73008281D01*
X67359188Y-73104532D01*
X67359192Y-73104535D01*
X67360181Y-73104944D01*
X67406617Y-73138504D01*
X67433010Y-73189360D01*
X67433722Y-73246652D01*
X67417682Y-73279533D01*
X67419847Y-73280691D01*
X67321185Y-73465273D01*
X67263976Y-73653866D01*
X67244659Y-73849999D01*
X67263976Y-74046133D01*
X67321185Y-74234726D01*
X67362795Y-74312572D01*
X67414090Y-74408538D01*
X67539117Y-74560883D01*
X67691462Y-74685910D01*
X67865273Y-74778814D01*
X68053868Y-74836024D01*
X68250000Y-74855341D01*
X68446132Y-74836024D01*
X68634727Y-74778814D01*
X68808538Y-74685910D01*
X68960883Y-74560883D01*
X69085910Y-74408538D01*
X69178814Y-74234727D01*
X69236024Y-74046132D01*
X69255341Y-73850000D01*
X69236024Y-73653868D01*
X69178814Y-73465273D01*
X69085910Y-73291462D01*
X68960883Y-73139117D01*
X68808538Y-73014090D01*
X68724263Y-72969044D01*
X68634726Y-72921185D01*
X68446133Y-72863976D01*
X68360598Y-72855551D01*
X68299430Y-72832147D01*
X68258716Y-72780847D01*
X68249814Y-72715966D01*
X68267715Y-72579999D01*
X68249815Y-72444034D01*
X68258718Y-72379150D01*
X68299432Y-72327850D01*
X68360597Y-72304448D01*
X68446132Y-72296024D01*
X68634727Y-72238814D01*
X68808538Y-72145910D01*
X68960883Y-72020883D01*
X69085910Y-71868538D01*
X69178814Y-71694727D01*
X69236024Y-71506132D01*
X69255341Y-71310000D01*
X69236024Y-71113868D01*
X69178814Y-70925273D01*
X69085910Y-70751462D01*
X68960883Y-70599117D01*
X68808538Y-70474090D01*
X68764874Y-70450751D01*
X68634726Y-70381185D01*
X68446133Y-70323976D01*
X68348065Y-70314317D01*
X68250000Y-70304659D01*
X68249999Y-70304659D01*
X68053866Y-70323976D01*
X67865273Y-70381185D01*
X67691463Y-70474089D01*
X67676860Y-70486072D01*
X67653219Y-70505476D01*
X67653165Y-70505520D01*
X67589679Y-70532734D01*
X67521483Y-70521762D01*
X67469738Y-70476007D01*
X67450500Y-70409667D01*
X67450500Y-69670333D01*
X67469738Y-69603993D01*
X67521483Y-69558238D01*
X67589679Y-69547266D01*
X67653164Y-69574479D01*
X67691462Y-69605910D01*
X67865273Y-69698814D01*
X68053868Y-69756024D01*
X68250000Y-69775341D01*
X68446132Y-69756024D01*
X68634727Y-69698814D01*
X68808538Y-69605910D01*
X68960883Y-69480883D01*
X69085910Y-69328538D01*
X69178814Y-69154727D01*
X69236024Y-68966132D01*
X69255341Y-68770000D01*
X69236024Y-68573868D01*
X69178814Y-68385273D01*
X69085910Y-68211462D01*
X68960883Y-68059117D01*
X68808538Y-67934090D01*
X68690161Y-67870816D01*
X68634726Y-67841185D01*
X68446133Y-67783976D01*
X68250000Y-67764659D01*
X68053866Y-67783976D01*
X67865273Y-67841185D01*
X67691463Y-67934089D01*
X67653165Y-67965520D01*
X67589679Y-67992734D01*
X67521483Y-67981762D01*
X67469738Y-67936007D01*
X67450500Y-67869667D01*
X67450500Y-67130333D01*
X67469738Y-67063993D01*
X67521483Y-67018238D01*
X67589679Y-67007266D01*
X67653164Y-67034479D01*
X67691462Y-67065910D01*
X67865273Y-67158814D01*
X68053868Y-67216024D01*
X68250000Y-67235341D01*
X68446132Y-67216024D01*
X68634727Y-67158814D01*
X68808538Y-67065910D01*
X68960883Y-66940883D01*
X69085910Y-66788538D01*
X69178814Y-66614727D01*
X69236024Y-66426132D01*
X69255341Y-66230000D01*
X69236024Y-66033868D01*
X69178814Y-65845273D01*
X69085910Y-65671462D01*
X68960883Y-65519117D01*
X68808538Y-65394090D01*
X68634727Y-65301186D01*
X68634726Y-65301185D01*
X68632725Y-65300116D01*
X68594051Y-65267844D01*
X68571403Y-65222852D01*
X68569485Y-65215694D01*
X68567144Y-65205131D01*
X68566638Y-65202260D01*
X68560588Y-65167946D01*
X68560587Y-65167945D01*
X68560400Y-65166882D01*
X68550173Y-65142192D01*
X68549554Y-65141308D01*
X68549554Y-65141307D01*
X68527878Y-65110351D01*
X68522085Y-65101257D01*
X68503194Y-65068536D01*
X68481529Y-65050357D01*
X68474261Y-65044258D01*
X68466286Y-65036950D01*
X68321300Y-64891964D01*
X68287994Y-64831451D01*
X68292230Y-64762508D01*
X68332692Y-64706528D01*
X68396827Y-64680880D01*
X68446132Y-64676024D01*
X68634727Y-64618814D01*
X68808538Y-64525910D01*
X68960883Y-64400883D01*
X69085910Y-64248538D01*
X69178814Y-64074727D01*
X69236024Y-63886132D01*
X69255341Y-63690000D01*
X69236024Y-63493868D01*
X69178814Y-63305273D01*
X69085910Y-63131462D01*
X68960883Y-62979117D01*
X68808538Y-62854090D01*
X68724263Y-62809044D01*
X68634726Y-62761185D01*
X68446133Y-62703976D01*
X68250000Y-62684659D01*
X68053866Y-62703976D01*
X67865273Y-62761185D01*
X67691463Y-62854089D01*
X67539117Y-62979117D01*
X67414089Y-63131463D01*
X67321185Y-63305273D01*
X67263976Y-63493866D01*
X67259119Y-63543174D01*
X67233470Y-63607308D01*
X67177489Y-63647770D01*
X67108547Y-63652005D01*
X67048035Y-63618699D01*
X65399085Y-61969749D01*
X67249500Y-61969749D01*
X67261132Y-62028230D01*
X67305447Y-62094552D01*
X67371769Y-62138867D01*
X67430251Y-62150500D01*
X67430252Y-62150500D01*
X69069748Y-62150500D01*
X69069749Y-62150500D01*
X69098989Y-62144683D01*
X69128231Y-62138867D01*
X69194552Y-62094552D01*
X69238867Y-62028231D01*
X69247285Y-61985910D01*
X69250500Y-61969749D01*
X69250500Y-60330251D01*
X69238867Y-60271769D01*
X69194552Y-60205447D01*
X69128230Y-60161132D01*
X69069749Y-60149500D01*
X69069748Y-60149500D01*
X67430252Y-60149500D01*
X67430251Y-60149500D01*
X67371769Y-60161132D01*
X67305447Y-60205447D01*
X67261132Y-60271769D01*
X67249500Y-60330251D01*
X67249500Y-61969749D01*
X65399085Y-61969749D01*
X65392023Y-61962687D01*
X65361043Y-61911001D01*
X65358087Y-61850814D01*
X65383850Y-61796342D01*
X65455910Y-61708538D01*
X65548814Y-61534727D01*
X65606024Y-61346132D01*
X65625341Y-61150000D01*
X65606024Y-60953868D01*
X65548814Y-60765273D01*
X65455910Y-60591462D01*
X65330883Y-60439117D01*
X65178538Y-60314090D01*
X65156091Y-60302092D01*
X65004726Y-60221185D01*
X64816133Y-60163976D01*
X64620000Y-60144659D01*
X64423866Y-60163976D01*
X64235273Y-60221185D01*
X64061463Y-60314089D01*
X63909117Y-60439117D01*
X63784089Y-60591463D01*
X63691185Y-60765273D01*
X63633976Y-60953866D01*
X63614659Y-61150000D01*
X63633976Y-61346133D01*
X63691185Y-61534726D01*
X63753627Y-61651546D01*
X63784090Y-61708538D01*
X63909117Y-61860883D01*
X64061462Y-61985910D01*
X64235273Y-62078814D01*
X64423868Y-62136024D01*
X64620000Y-62155341D01*
X64620003Y-62155340D01*
X64624678Y-62155801D01*
X64665542Y-62167109D01*
X64700206Y-62191523D01*
X65035278Y-62526595D01*
X65067579Y-62582967D01*
X65066941Y-62647935D01*
X65033540Y-62703662D01*
X64976544Y-62734850D01*
X64911603Y-62732937D01*
X64816132Y-62703976D01*
X64816129Y-62703975D01*
X64620000Y-62684659D01*
X64423866Y-62703976D01*
X64235273Y-62761185D01*
X64061463Y-62854089D01*
X63909117Y-62979117D01*
X63784089Y-63131463D01*
X63691185Y-63305273D01*
X63633976Y-63493866D01*
X63614659Y-63689999D01*
X63633976Y-63886133D01*
X63691185Y-64074726D01*
X63748697Y-64182323D01*
X63784090Y-64248538D01*
X63909117Y-64400883D01*
X64061462Y-64525910D01*
X64235273Y-64618814D01*
X64423868Y-64676024D01*
X64620000Y-64695341D01*
X64816132Y-64676024D01*
X64997870Y-64620893D01*
X65063995Y-64619270D01*
X65121547Y-64651873D01*
X66763181Y-66293507D01*
X66790061Y-66333735D01*
X66799500Y-66381188D01*
X66799500Y-67649811D01*
X66785985Y-67706106D01*
X66748385Y-67750129D01*
X66694898Y-67772284D01*
X66637182Y-67767742D01*
X66587819Y-67737492D01*
X66085667Y-67235340D01*
X65581872Y-66731546D01*
X65549270Y-66673995D01*
X65550894Y-66607870D01*
X65606024Y-66426132D01*
X65625341Y-66230000D01*
X65606024Y-66033868D01*
X65548814Y-65845273D01*
X65455910Y-65671462D01*
X65330883Y-65519117D01*
X65178538Y-65394090D01*
X65117140Y-65361272D01*
X65004726Y-65301185D01*
X64816133Y-65243976D01*
X64620000Y-65224659D01*
X64423866Y-65243976D01*
X64235273Y-65301185D01*
X64061463Y-65394089D01*
X63909117Y-65519117D01*
X63784089Y-65671463D01*
X63691185Y-65845273D01*
X63633976Y-66033866D01*
X63614659Y-66230000D01*
X59850500Y-66230000D01*
X59850500Y-61444627D01*
X59850972Y-61433819D01*
X59854264Y-61396192D01*
X59844487Y-61359706D01*
X59842145Y-61349143D01*
X59835400Y-61310891D01*
X59825171Y-61286198D01*
X59824554Y-61285317D01*
X59824554Y-61285316D01*
X59802892Y-61254379D01*
X59797080Y-61245256D01*
X59778194Y-61212544D01*
X59749255Y-61188262D01*
X59741280Y-61180954D01*
X58144043Y-59583717D01*
X58136734Y-59575741D01*
X58112454Y-59546805D01*
X58079736Y-59527915D01*
X58070627Y-59522112D01*
X58039684Y-59500446D01*
X58038803Y-59499829D01*
X58014107Y-59489599D01*
X57975852Y-59482853D01*
X57965296Y-59480512D01*
X57928807Y-59470735D01*
X57891180Y-59474028D01*
X57880372Y-59474500D01*
X56119628Y-59474500D01*
X56108820Y-59474028D01*
X56071192Y-59470735D01*
X56034704Y-59480512D01*
X56024148Y-59482852D01*
X55985899Y-59489597D01*
X55961193Y-59499831D01*
X55929380Y-59522106D01*
X55920264Y-59527914D01*
X55887545Y-59546805D01*
X55863262Y-59575744D01*
X55855956Y-59583716D01*
X55658714Y-59780958D01*
X55650741Y-59788264D01*
X55621806Y-59812544D01*
X55602914Y-59845264D01*
X55597106Y-59854380D01*
X55574831Y-59886193D01*
X55564597Y-59910899D01*
X55557852Y-59949148D01*
X55555512Y-59959704D01*
X55545735Y-59996192D01*
X55549028Y-60033820D01*
X55549500Y-60044628D01*
X55549500Y-62545372D01*
X55549028Y-62556180D01*
X55545735Y-62593807D01*
X55555512Y-62630296D01*
X55557853Y-62640852D01*
X55564599Y-62679107D01*
X55574829Y-62703803D01*
X55575446Y-62704684D01*
X55597112Y-62735627D01*
X55602915Y-62744736D01*
X55621806Y-62777455D01*
X55650742Y-62801735D01*
X55658718Y-62809044D01*
X56038126Y-63188452D01*
X56070729Y-63246003D01*
X56069106Y-63312128D01*
X56013975Y-63493869D01*
X55994659Y-63690000D01*
X56013976Y-63886133D01*
X56071185Y-64074726D01*
X56128697Y-64182323D01*
X56164090Y-64248538D01*
X56289117Y-64400883D01*
X56441462Y-64525910D01*
X56615273Y-64618814D01*
X56803868Y-64676024D01*
X57000000Y-64695341D01*
X57196132Y-64676024D01*
X57384727Y-64618814D01*
X57558538Y-64525910D01*
X57710883Y-64400883D01*
X57835910Y-64248538D01*
X57928814Y-64074727D01*
X57960925Y-63968872D01*
X57981840Y-63899926D01*
X58019969Y-63841631D01*
X58083511Y-63813091D01*
X58152414Y-63823312D01*
X58204935Y-63869069D01*
X58224500Y-63935922D01*
X58224500Y-65984078D01*
X58204935Y-66050931D01*
X58152414Y-66096688D01*
X58083511Y-66106909D01*
X58019969Y-66078369D01*
X57981840Y-66020074D01*
X57928814Y-65845273D01*
X57910383Y-65810791D01*
X57835910Y-65671462D01*
X57710883Y-65519117D01*
X57558538Y-65394090D01*
X57497140Y-65361272D01*
X57384726Y-65301185D01*
X57196133Y-65243976D01*
X57000000Y-65224659D01*
X56803866Y-65243976D01*
X56615273Y-65301185D01*
X56441463Y-65394089D01*
X56289117Y-65519117D01*
X56164089Y-65671463D01*
X56071185Y-65845273D01*
X56013976Y-66033866D01*
X55994659Y-66230000D01*
X56013976Y-66426133D01*
X56071185Y-66614726D01*
X56126517Y-66718244D01*
X56164090Y-66788538D01*
X56289117Y-66940883D01*
X56441462Y-67065910D01*
X56615273Y-67158814D01*
X56803868Y-67216024D01*
X57000000Y-67235341D01*
X57196132Y-67216024D01*
X57384727Y-67158814D01*
X57558538Y-67065910D01*
X57710883Y-66940883D01*
X57835910Y-66788538D01*
X57928814Y-66614727D01*
X57954647Y-66529568D01*
X57981840Y-66439926D01*
X58019969Y-66381631D01*
X58083511Y-66353091D01*
X58152414Y-66363312D01*
X58204935Y-66409069D01*
X58224500Y-66475922D01*
X58224500Y-68524078D01*
X58204935Y-68590931D01*
X58152414Y-68636688D01*
X58083511Y-68646909D01*
X58019969Y-68618369D01*
X57981840Y-68560074D01*
X57928814Y-68385273D01*
X57928813Y-68385272D01*
X57835910Y-68211462D01*
X57710883Y-68059117D01*
X57558538Y-67934090D01*
X57440161Y-67870816D01*
X57384726Y-67841185D01*
X57196133Y-67783976D01*
X57000000Y-67764659D01*
X56803866Y-67783976D01*
X56615273Y-67841185D01*
X56441463Y-67934089D01*
X56289117Y-68059117D01*
X56164089Y-68211463D01*
X56071185Y-68385273D01*
X56013976Y-68573866D01*
X55994659Y-68770000D01*
X56013975Y-68966131D01*
X56069105Y-69147870D01*
X56070728Y-69213995D01*
X56038125Y-69271546D01*
X54833714Y-70475958D01*
X54825741Y-70483264D01*
X54796806Y-70507544D01*
X54777914Y-70540264D01*
X54772106Y-70549380D01*
X54749831Y-70581193D01*
X54739597Y-70605899D01*
X54732852Y-70644148D01*
X54730512Y-70654704D01*
X54720735Y-70691192D01*
X54724028Y-70728820D01*
X54724500Y-70739628D01*
X54724500Y-80481701D01*
X54711712Y-80536545D01*
X54675986Y-80580077D01*
X54621717Y-80621718D01*
X54525463Y-80747159D01*
X54464956Y-80893237D01*
X54444317Y-81050000D01*
X49671317Y-81050000D01*
X47551316Y-78929999D01*
X52114659Y-78929999D01*
X52133976Y-79126133D01*
X52191185Y-79314726D01*
X52222865Y-79373995D01*
X52284090Y-79488538D01*
X52409117Y-79640883D01*
X52561462Y-79765910D01*
X52735273Y-79858814D01*
X52923868Y-79916024D01*
X53120000Y-79935341D01*
X53316132Y-79916024D01*
X53504727Y-79858814D01*
X53678538Y-79765910D01*
X53830883Y-79640883D01*
X53955910Y-79488538D01*
X54048814Y-79314727D01*
X54106024Y-79126132D01*
X54125341Y-78930000D01*
X54106024Y-78733868D01*
X54048814Y-78545273D01*
X53955910Y-78371462D01*
X53830883Y-78219117D01*
X53678538Y-78094090D01*
X53589943Y-78046735D01*
X53504726Y-78001185D01*
X53316133Y-77943976D01*
X53120000Y-77924659D01*
X52923866Y-77943976D01*
X52735273Y-78001185D01*
X52561463Y-78094089D01*
X52409117Y-78219117D01*
X52284089Y-78371463D01*
X52191185Y-78545273D01*
X52133976Y-78733866D01*
X52114659Y-78929999D01*
X47551316Y-78929999D01*
X46074389Y-77453072D01*
X46041309Y-77393549D01*
X46044651Y-77325533D01*
X46083405Y-77269538D01*
X46246054Y-77136054D01*
X46377268Y-76976171D01*
X46474766Y-76793764D01*
X46521410Y-76640000D01*
X45374000Y-76640000D01*
X45312000Y-76623387D01*
X45266613Y-76578000D01*
X45250000Y-76516000D01*
X45250000Y-76389999D01*
X52114659Y-76389999D01*
X52133976Y-76586133D01*
X52191185Y-76774726D01*
X52207783Y-76805778D01*
X52284090Y-76948538D01*
X52409117Y-77100883D01*
X52561462Y-77225910D01*
X52735273Y-77318814D01*
X52923868Y-77376024D01*
X53120000Y-77395341D01*
X53316132Y-77376024D01*
X53504727Y-77318814D01*
X53678538Y-77225910D01*
X53830883Y-77100883D01*
X53955910Y-76948538D01*
X54048814Y-76774727D01*
X54106024Y-76586132D01*
X54125341Y-76390000D01*
X54106024Y-76193868D01*
X54048814Y-76005273D01*
X53955910Y-75831462D01*
X53830883Y-75679117D01*
X53678538Y-75554090D01*
X53562320Y-75491970D01*
X53504726Y-75461185D01*
X53316133Y-75403976D01*
X53120000Y-75384659D01*
X52923866Y-75403976D01*
X52735273Y-75461185D01*
X52561463Y-75554089D01*
X52409117Y-75679117D01*
X52284089Y-75831463D01*
X52191185Y-76005273D01*
X52133976Y-76193866D01*
X52114659Y-76389999D01*
X45250000Y-76389999D01*
X45250000Y-75368590D01*
X45750000Y-75368590D01*
X45750000Y-76140000D01*
X46521410Y-76140000D01*
X46474766Y-75986235D01*
X46377268Y-75803828D01*
X46246054Y-75643945D01*
X46086171Y-75512731D01*
X45903764Y-75415233D01*
X45750000Y-75368590D01*
X45250000Y-75368590D01*
X45096235Y-75415233D01*
X44913828Y-75512731D01*
X44753945Y-75643945D01*
X44622731Y-75803828D01*
X44525233Y-75986235D01*
X44465191Y-76184165D01*
X44463839Y-76197896D01*
X44438189Y-76262029D01*
X44382208Y-76302490D01*
X44313266Y-76306725D01*
X44252755Y-76273419D01*
X42642023Y-74662687D01*
X42611043Y-74611001D01*
X42608087Y-74550814D01*
X42633850Y-74496342D01*
X42705910Y-74408538D01*
X42798814Y-74234727D01*
X42856024Y-74046132D01*
X42875341Y-73850000D01*
X42875341Y-73849999D01*
X44494659Y-73849999D01*
X44513976Y-74046133D01*
X44571185Y-74234726D01*
X44612795Y-74312572D01*
X44664090Y-74408538D01*
X44789117Y-74560883D01*
X44941462Y-74685910D01*
X45115273Y-74778814D01*
X45303868Y-74836024D01*
X45500000Y-74855341D01*
X45696132Y-74836024D01*
X45884727Y-74778814D01*
X46058538Y-74685910D01*
X46210883Y-74560883D01*
X46335910Y-74408538D01*
X46428814Y-74234727D01*
X46486024Y-74046132D01*
X46505341Y-73850000D01*
X46505341Y-73849999D01*
X52114659Y-73849999D01*
X52133976Y-74046133D01*
X52191185Y-74234726D01*
X52232795Y-74312572D01*
X52284090Y-74408538D01*
X52409117Y-74560883D01*
X52561462Y-74685910D01*
X52735273Y-74778814D01*
X52923868Y-74836024D01*
X53120000Y-74855341D01*
X53316132Y-74836024D01*
X53504727Y-74778814D01*
X53678538Y-74685910D01*
X53830883Y-74560883D01*
X53955910Y-74408538D01*
X54048814Y-74234727D01*
X54106024Y-74046132D01*
X54125341Y-73850000D01*
X54106024Y-73653868D01*
X54048814Y-73465273D01*
X53955910Y-73291462D01*
X53830883Y-73139117D01*
X53678538Y-73014090D01*
X53594263Y-72969044D01*
X53504726Y-72921185D01*
X53316133Y-72863976D01*
X53120000Y-72844659D01*
X52923866Y-72863976D01*
X52735273Y-72921185D01*
X52561463Y-73014089D01*
X52409117Y-73139117D01*
X52284089Y-73291463D01*
X52191185Y-73465273D01*
X52133976Y-73653866D01*
X52114659Y-73849999D01*
X46505341Y-73849999D01*
X46486024Y-73653868D01*
X46428814Y-73465273D01*
X46335910Y-73291462D01*
X46210883Y-73139117D01*
X46058538Y-73014090D01*
X45974263Y-72969044D01*
X45884726Y-72921185D01*
X45696133Y-72863976D01*
X45500000Y-72844659D01*
X45303866Y-72863976D01*
X45115273Y-72921185D01*
X44941463Y-73014089D01*
X44789117Y-73139117D01*
X44664089Y-73291463D01*
X44571185Y-73465273D01*
X44513976Y-73653866D01*
X44494659Y-73849999D01*
X42875341Y-73849999D01*
X42856024Y-73653868D01*
X42798814Y-73465273D01*
X42705910Y-73291462D01*
X42580883Y-73139117D01*
X42428538Y-73014090D01*
X42390687Y-72993858D01*
X42343413Y-72949290D01*
X42325164Y-72886935D01*
X42340950Y-72823911D01*
X42386438Y-72777521D01*
X42449140Y-72760500D01*
X44355373Y-72760500D01*
X44366180Y-72760971D01*
X44403807Y-72764264D01*
X44440324Y-72754478D01*
X44450830Y-72752149D01*
X44488045Y-72745588D01*
X44488047Y-72745586D01*
X44489112Y-72745399D01*
X44513799Y-72735173D01*
X44514682Y-72734554D01*
X44514684Y-72734554D01*
X44545625Y-72712887D01*
X44554722Y-72707091D01*
X44587455Y-72688194D01*
X44611748Y-72659241D01*
X44619036Y-72651288D01*
X44998453Y-72271871D01*
X45056003Y-72239270D01*
X45122126Y-72240892D01*
X45303868Y-72296024D01*
X45500000Y-72315341D01*
X45696132Y-72296024D01*
X45884727Y-72238814D01*
X46058538Y-72145910D01*
X46210883Y-72020883D01*
X46335910Y-71868538D01*
X46428814Y-71694727D01*
X46486024Y-71506132D01*
X46505341Y-71310000D01*
X46486024Y-71113868D01*
X46428814Y-70925273D01*
X46335910Y-70751462D01*
X46210883Y-70599117D01*
X46058538Y-70474090D01*
X46014874Y-70450751D01*
X45884726Y-70381185D01*
X45696133Y-70323976D01*
X45598065Y-70314317D01*
X45500000Y-70304659D01*
X45499999Y-70304659D01*
X45303866Y-70323976D01*
X45115273Y-70381185D01*
X44941463Y-70474089D01*
X44789117Y-70599117D01*
X44664089Y-70751463D01*
X44571185Y-70925273D01*
X44513976Y-71113866D01*
X44494659Y-71310000D01*
X44513975Y-71506130D01*
X44569106Y-71687870D01*
X44570729Y-71753994D01*
X44538126Y-71811546D01*
X44276490Y-72073183D01*
X44236265Y-72100061D01*
X44188812Y-72109500D01*
X42770333Y-72109500D01*
X42703993Y-72090262D01*
X42658238Y-72038517D01*
X42647266Y-71970321D01*
X42674480Y-71906835D01*
X42678328Y-71902146D01*
X42705910Y-71868538D01*
X42798814Y-71694727D01*
X42856024Y-71506132D01*
X42875341Y-71310000D01*
X42856024Y-71113868D01*
X42800892Y-70932126D01*
X42799270Y-70866003D01*
X42831871Y-70808453D01*
X44423151Y-69217173D01*
X44471934Y-69187114D01*
X44529025Y-69182198D01*
X44582230Y-69203476D01*
X44620187Y-69246402D01*
X44664090Y-69328538D01*
X44789117Y-69480883D01*
X44941462Y-69605910D01*
X45115273Y-69698814D01*
X45303868Y-69756024D01*
X45500000Y-69775341D01*
X45696132Y-69756024D01*
X45884727Y-69698814D01*
X46058538Y-69605910D01*
X46210883Y-69480883D01*
X46335910Y-69328538D01*
X46428814Y-69154727D01*
X46486024Y-68966132D01*
X46505341Y-68770000D01*
X46486024Y-68573868D01*
X46430892Y-68392126D01*
X46429270Y-68326003D01*
X46461871Y-68268453D01*
X48740790Y-65989534D01*
X48748758Y-65982234D01*
X48777692Y-65957957D01*
X48777692Y-65957956D01*
X48777694Y-65957955D01*
X48796591Y-65925222D01*
X48802387Y-65916125D01*
X48824054Y-65885184D01*
X48824054Y-65885182D01*
X48824673Y-65884299D01*
X48834899Y-65859612D01*
X48835086Y-65858547D01*
X48835088Y-65858545D01*
X48841649Y-65821330D01*
X48843978Y-65810824D01*
X48853764Y-65774307D01*
X48850471Y-65736680D01*
X48850000Y-65725873D01*
X48850000Y-56643799D01*
X48862788Y-56588955D01*
X48898514Y-56545423D01*
X48905231Y-56540269D01*
X48952782Y-56503782D01*
X49049036Y-56378341D01*
X49109544Y-56232262D01*
X49130182Y-56075500D01*
X49109544Y-55918738D01*
X49049036Y-55772659D01*
X49029469Y-55747159D01*
X48952782Y-55647217D01*
X48827340Y-55550963D01*
X48681262Y-55490456D01*
X48524500Y-55469817D01*
X48367737Y-55490456D01*
X48296952Y-55519776D01*
X48237345Y-55528618D01*
X48180609Y-55508317D01*
X48140142Y-55463668D01*
X48125500Y-55405215D01*
X48125500Y-54642822D01*
X48125972Y-54632014D01*
X48129264Y-54594387D01*
X48119487Y-54557901D01*
X48117145Y-54547338D01*
X48115534Y-54538201D01*
X48110588Y-54510150D01*
X48110587Y-54510149D01*
X48110400Y-54509086D01*
X48100171Y-54484393D01*
X48099554Y-54483512D01*
X48099554Y-54483511D01*
X48077892Y-54452574D01*
X48072080Y-54443451D01*
X48053194Y-54410739D01*
X48024255Y-54386457D01*
X48016280Y-54379149D01*
X47908316Y-54271185D01*
X47878578Y-54223362D01*
X47873058Y-54167318D01*
X47880365Y-54111818D01*
X47881987Y-54099500D01*
X47861349Y-53942738D01*
X47800841Y-53796659D01*
X47764572Y-53749392D01*
X47704587Y-53671217D01*
X47579145Y-53574963D01*
X47433067Y-53514456D01*
X47276305Y-53493817D01*
X47119542Y-53514456D01*
X46973464Y-53574963D01*
X46848024Y-53671216D01*
X46847876Y-53671410D01*
X46799935Y-53709203D01*
X46739771Y-53719541D01*
X46681965Y-53699918D01*
X46640527Y-53655091D01*
X46625500Y-53595923D01*
X46625500Y-51842799D01*
X46638288Y-51787955D01*
X46674014Y-51744423D01*
X46680263Y-51739628D01*
X46728282Y-51702782D01*
X46824536Y-51577341D01*
X46885044Y-51431262D01*
X46905682Y-51274500D01*
X46885044Y-51117738D01*
X46870160Y-51081806D01*
X46855724Y-51046952D01*
X46846882Y-50987345D01*
X46867183Y-50930609D01*
X46911832Y-50890142D01*
X46970285Y-50875500D01*
X47322701Y-50875500D01*
X47370154Y-50884939D01*
G37*
%TD.AperFunction*%
%TA.AperFunction,Conductor*%
G36*
X67469352Y-32844738D02*
G01*
X67515107Y-32896484D01*
X67526079Y-32964680D01*
X67498865Y-33028162D01*
X67457776Y-33078231D01*
X67414089Y-33131463D01*
X67321185Y-33305273D01*
X67263976Y-33493866D01*
X67244659Y-33690000D01*
X67263976Y-33886133D01*
X67321185Y-34074726D01*
X67352865Y-34133995D01*
X67414090Y-34248538D01*
X67539117Y-34400883D01*
X67691462Y-34525910D01*
X67865273Y-34618814D01*
X68053868Y-34676024D01*
X68250000Y-34695341D01*
X68446132Y-34676024D01*
X68627870Y-34620893D01*
X68693995Y-34619270D01*
X68751547Y-34651873D01*
X68865950Y-34766276D01*
X68873258Y-34774250D01*
X68897545Y-34803194D01*
X68916632Y-34814214D01*
X68930256Y-34822080D01*
X68939379Y-34827892D01*
X68970316Y-34849554D01*
X68970317Y-34849554D01*
X68971198Y-34850171D01*
X68995891Y-34860400D01*
X68996954Y-34860587D01*
X68996955Y-34860588D01*
X69034143Y-34867145D01*
X69044701Y-34869485D01*
X69081193Y-34879264D01*
X69118823Y-34875971D01*
X69129630Y-34875500D01*
X69531201Y-34875500D01*
X69586045Y-34888288D01*
X69629576Y-34924013D01*
X69671218Y-34978282D01*
X69796659Y-35074536D01*
X69942738Y-35135044D01*
X70065380Y-35151190D01*
X70099499Y-35155682D01*
X70099499Y-35155681D01*
X70099500Y-35155682D01*
X70256262Y-35135044D01*
X70402341Y-35074536D01*
X70527782Y-34978282D01*
X70624036Y-34852841D01*
X70684544Y-34706762D01*
X70705182Y-34550000D01*
X70684544Y-34393238D01*
X70624036Y-34247159D01*
X70581364Y-34191547D01*
X70527782Y-34121717D01*
X70402340Y-34025463D01*
X70256262Y-33964956D01*
X70099500Y-33944317D01*
X69942737Y-33964956D01*
X69796659Y-34025463D01*
X69671218Y-34121717D01*
X69629577Y-34175986D01*
X69586045Y-34211712D01*
X69531201Y-34224500D01*
X69300576Y-34224500D01*
X69244824Y-34211260D01*
X69200978Y-34174367D01*
X69178402Y-34121699D01*
X69181915Y-34064505D01*
X69218373Y-33944318D01*
X69236024Y-33886132D01*
X69255341Y-33690000D01*
X69236024Y-33493868D01*
X69178814Y-33305273D01*
X69085910Y-33131462D01*
X69001134Y-33028162D01*
X68973921Y-32964680D01*
X68984893Y-32896484D01*
X69030648Y-32844738D01*
X69096988Y-32825500D01*
X75023012Y-32825500D01*
X75089352Y-32844738D01*
X75135107Y-32896484D01*
X75146079Y-32964680D01*
X75118865Y-33028162D01*
X75077776Y-33078231D01*
X75034089Y-33131463D01*
X74941185Y-33305273D01*
X74883976Y-33493866D01*
X74864659Y-33690000D01*
X74883976Y-33886133D01*
X74941185Y-34074726D01*
X74972865Y-34133995D01*
X75034090Y-34248538D01*
X75159117Y-34400883D01*
X75311462Y-34525910D01*
X75485273Y-34618814D01*
X75673868Y-34676024D01*
X75870000Y-34695341D01*
X76066132Y-34676024D01*
X76254727Y-34618814D01*
X76428538Y-34525910D01*
X76580883Y-34400883D01*
X76705910Y-34248538D01*
X76798814Y-34074727D01*
X76856024Y-33886132D01*
X76875341Y-33690000D01*
X76856024Y-33493868D01*
X76798814Y-33305273D01*
X76705910Y-33131462D01*
X76621134Y-33028162D01*
X76593921Y-32964680D01*
X76604893Y-32896484D01*
X76650648Y-32844738D01*
X76716988Y-32825500D01*
X82338425Y-32825500D01*
X82396051Y-32839703D01*
X82440475Y-32879060D01*
X82501815Y-32967927D01*
X82501816Y-32967928D01*
X82501817Y-32967929D01*
X82629148Y-33080734D01*
X82779775Y-33159790D01*
X82944944Y-33200500D01*
X83115055Y-33200500D01*
X83115056Y-33200500D01*
X83280225Y-33159790D01*
X83430852Y-33080734D01*
X83438775Y-33073714D01*
X83501725Y-33044038D01*
X83570749Y-33052948D01*
X83624102Y-33097640D01*
X83655447Y-33144552D01*
X83721769Y-33188867D01*
X83780251Y-33200500D01*
X83780252Y-33200500D01*
X84819747Y-33200500D01*
X84819748Y-33200500D01*
X84851309Y-33194222D01*
X84905628Y-33195555D01*
X84954164Y-33219985D01*
X84987595Y-33262822D01*
X84999500Y-33315839D01*
X84999500Y-39184161D01*
X84987595Y-39237178D01*
X84954164Y-39280015D01*
X84905628Y-39304445D01*
X84851309Y-39305777D01*
X84819748Y-39299500D01*
X83780252Y-39299500D01*
X83780251Y-39299500D01*
X83721769Y-39311132D01*
X83655446Y-39355448D01*
X83624101Y-39402360D01*
X83570750Y-39447050D01*
X83501727Y-39455961D01*
X83438775Y-39426285D01*
X83430853Y-39419267D01*
X83430852Y-39419266D01*
X83342714Y-39373007D01*
X83280224Y-39340209D01*
X83140527Y-39305778D01*
X83115056Y-39299500D01*
X82944944Y-39299500D01*
X82924881Y-39304445D01*
X82779775Y-39340209D01*
X82629149Y-39419265D01*
X82501815Y-39532072D01*
X82405182Y-39672069D01*
X82344860Y-39831127D01*
X82324354Y-39999999D01*
X82344860Y-40168872D01*
X82405182Y-40327930D01*
X82501815Y-40467927D01*
X82501816Y-40467928D01*
X82501817Y-40467929D01*
X82629148Y-40580734D01*
X82779775Y-40659790D01*
X82944944Y-40700500D01*
X83115055Y-40700500D01*
X83115056Y-40700500D01*
X83280225Y-40659790D01*
X83430852Y-40580734D01*
X83438775Y-40573714D01*
X83501725Y-40544038D01*
X83570749Y-40552948D01*
X83624102Y-40597640D01*
X83655447Y-40644552D01*
X83721769Y-40688867D01*
X83780251Y-40700500D01*
X83780252Y-40700500D01*
X84819747Y-40700500D01*
X84819748Y-40700500D01*
X84851309Y-40694222D01*
X84905628Y-40695555D01*
X84954164Y-40719985D01*
X84987595Y-40762822D01*
X84999500Y-40815839D01*
X84999500Y-45708328D01*
X84986657Y-45763284D01*
X84950788Y-45806855D01*
X84899324Y-45830018D01*
X84842925Y-45827973D01*
X84793274Y-45801144D01*
X84700852Y-45719266D01*
X84597160Y-45664843D01*
X84550224Y-45640209D01*
X84425764Y-45609533D01*
X84385056Y-45599500D01*
X84214944Y-45599500D01*
X84182284Y-45607549D01*
X84049775Y-45640209D01*
X83899149Y-45719265D01*
X83771815Y-45832072D01*
X83675182Y-45972069D01*
X83614860Y-46131127D01*
X83594354Y-46300000D01*
X83614860Y-46468872D01*
X83675182Y-46627930D01*
X83771815Y-46767927D01*
X83771816Y-46767928D01*
X83771817Y-46767929D01*
X83899148Y-46880734D01*
X84049775Y-46959790D01*
X84214944Y-47000500D01*
X84385055Y-47000500D01*
X84385056Y-47000500D01*
X84550225Y-46959790D01*
X84700852Y-46880734D01*
X84793274Y-46798855D01*
X84842925Y-46772027D01*
X84899324Y-46769982D01*
X84950788Y-46793145D01*
X84986657Y-46836716D01*
X84999500Y-46891672D01*
X84999500Y-48208328D01*
X84986657Y-48263284D01*
X84950788Y-48306855D01*
X84899324Y-48330018D01*
X84842925Y-48327973D01*
X84793274Y-48301144D01*
X84700852Y-48219266D01*
X84597160Y-48164843D01*
X84550224Y-48140209D01*
X84425765Y-48109533D01*
X84385056Y-48099500D01*
X84214944Y-48099500D01*
X84182284Y-48107549D01*
X84049775Y-48140209D01*
X83899149Y-48219265D01*
X83771815Y-48332072D01*
X83675182Y-48472069D01*
X83614860Y-48631127D01*
X83594354Y-48800000D01*
X83614860Y-48968872D01*
X83675182Y-49127930D01*
X83771815Y-49267927D01*
X83771816Y-49267928D01*
X83771817Y-49267929D01*
X83899148Y-49380734D01*
X84049775Y-49459790D01*
X84214944Y-49500500D01*
X84385055Y-49500500D01*
X84385056Y-49500500D01*
X84550225Y-49459790D01*
X84700852Y-49380734D01*
X84793274Y-49298855D01*
X84842925Y-49272027D01*
X84899324Y-49269982D01*
X84950788Y-49293145D01*
X84986657Y-49336716D01*
X84999500Y-49391672D01*
X84999500Y-50708328D01*
X84986657Y-50763284D01*
X84950788Y-50806855D01*
X84899324Y-50830018D01*
X84842925Y-50827973D01*
X84793274Y-50801144D01*
X84700852Y-50719266D01*
X84590195Y-50661188D01*
X84550224Y-50640209D01*
X84425765Y-50609533D01*
X84385056Y-50599500D01*
X84214944Y-50599500D01*
X84182284Y-50607549D01*
X84049775Y-50640209D01*
X83899149Y-50719265D01*
X83771815Y-50832072D01*
X83675182Y-50972069D01*
X83614860Y-51131127D01*
X83594354Y-51300000D01*
X83614860Y-51468872D01*
X83675182Y-51627930D01*
X83771815Y-51767927D01*
X83771816Y-51767928D01*
X83771817Y-51767929D01*
X83899148Y-51880734D01*
X84049775Y-51959790D01*
X84214944Y-52000500D01*
X84385055Y-52000500D01*
X84385056Y-52000500D01*
X84550225Y-51959790D01*
X84700852Y-51880734D01*
X84793274Y-51798855D01*
X84842925Y-51772027D01*
X84899324Y-51769982D01*
X84950788Y-51793145D01*
X84986657Y-51836716D01*
X84999500Y-51891672D01*
X84999500Y-53208328D01*
X84986657Y-53263284D01*
X84950788Y-53306855D01*
X84899324Y-53330018D01*
X84842925Y-53327973D01*
X84793274Y-53301144D01*
X84700852Y-53219266D01*
X84597160Y-53164843D01*
X84550224Y-53140209D01*
X84425764Y-53109533D01*
X84385056Y-53099500D01*
X84214944Y-53099500D01*
X84182284Y-53107549D01*
X84049775Y-53140209D01*
X83899149Y-53219265D01*
X83771815Y-53332072D01*
X83675182Y-53472069D01*
X83614860Y-53631127D01*
X83594354Y-53799999D01*
X83614860Y-53968872D01*
X83675182Y-54127930D01*
X83771815Y-54267927D01*
X83771816Y-54267928D01*
X83771817Y-54267929D01*
X83899148Y-54380734D01*
X84049775Y-54459790D01*
X84214944Y-54500500D01*
X84385055Y-54500500D01*
X84385056Y-54500500D01*
X84550225Y-54459790D01*
X84700852Y-54380734D01*
X84793274Y-54298855D01*
X84842925Y-54272027D01*
X84899324Y-54269982D01*
X84950788Y-54293145D01*
X84986657Y-54336716D01*
X84999500Y-54391672D01*
X84999500Y-55708328D01*
X84986657Y-55763284D01*
X84950788Y-55806855D01*
X84899324Y-55830018D01*
X84842925Y-55827973D01*
X84793274Y-55801144D01*
X84700852Y-55719266D01*
X84597160Y-55664843D01*
X84550224Y-55640209D01*
X84425764Y-55609533D01*
X84385056Y-55599500D01*
X84214944Y-55599500D01*
X84182284Y-55607549D01*
X84049775Y-55640209D01*
X83899149Y-55719265D01*
X83771815Y-55832072D01*
X83675182Y-55972069D01*
X83614860Y-56131127D01*
X83594354Y-56299999D01*
X83614860Y-56468872D01*
X83675182Y-56627930D01*
X83771815Y-56767927D01*
X83771816Y-56767928D01*
X83771817Y-56767929D01*
X83899148Y-56880734D01*
X84049775Y-56959790D01*
X84214944Y-57000500D01*
X84385055Y-57000500D01*
X84385056Y-57000500D01*
X84550225Y-56959790D01*
X84700852Y-56880734D01*
X84793274Y-56798855D01*
X84842925Y-56772027D01*
X84899324Y-56769982D01*
X84950788Y-56793145D01*
X84986657Y-56836716D01*
X84999500Y-56891672D01*
X84999500Y-58208328D01*
X84986657Y-58263284D01*
X84950788Y-58306855D01*
X84899324Y-58330018D01*
X84842925Y-58327973D01*
X84793274Y-58301144D01*
X84700852Y-58219266D01*
X84597160Y-58164843D01*
X84550224Y-58140209D01*
X84425764Y-58109533D01*
X84385056Y-58099500D01*
X84214944Y-58099500D01*
X84182284Y-58107549D01*
X84049775Y-58140209D01*
X83899149Y-58219265D01*
X83771815Y-58332072D01*
X83675182Y-58472069D01*
X83614860Y-58631127D01*
X83594354Y-58799999D01*
X83614860Y-58968872D01*
X83675182Y-59127930D01*
X83771815Y-59267927D01*
X83771816Y-59267928D01*
X83771817Y-59267929D01*
X83899148Y-59380734D01*
X84049775Y-59459790D01*
X84214944Y-59500500D01*
X84385055Y-59500500D01*
X84385056Y-59500500D01*
X84550225Y-59459790D01*
X84700852Y-59380734D01*
X84793274Y-59298855D01*
X84842925Y-59272027D01*
X84899324Y-59269982D01*
X84950788Y-59293145D01*
X84986657Y-59336716D01*
X84999500Y-59391672D01*
X84999500Y-60708328D01*
X84986657Y-60763284D01*
X84950788Y-60806855D01*
X84899324Y-60830018D01*
X84842925Y-60827973D01*
X84793274Y-60801144D01*
X84700852Y-60719266D01*
X84597160Y-60664843D01*
X84550224Y-60640209D01*
X84402879Y-60603893D01*
X84385056Y-60599500D01*
X84214944Y-60599500D01*
X84197121Y-60603893D01*
X84049775Y-60640209D01*
X83899149Y-60719265D01*
X83771815Y-60832072D01*
X83675182Y-60972069D01*
X83614860Y-61131127D01*
X83594354Y-61299999D01*
X83614860Y-61468872D01*
X83675182Y-61627930D01*
X83771815Y-61767927D01*
X83771816Y-61767928D01*
X83771817Y-61767929D01*
X83899148Y-61880734D01*
X84049775Y-61959790D01*
X84214944Y-62000500D01*
X84385055Y-62000500D01*
X84385056Y-62000500D01*
X84550225Y-61959790D01*
X84700852Y-61880734D01*
X84793274Y-61798855D01*
X84842925Y-61772027D01*
X84899324Y-61769982D01*
X84950788Y-61793145D01*
X84986657Y-61836716D01*
X84999500Y-61891672D01*
X84999500Y-63208328D01*
X84986657Y-63263284D01*
X84950788Y-63306855D01*
X84899324Y-63330018D01*
X84842925Y-63327973D01*
X84793274Y-63301144D01*
X84700852Y-63219266D01*
X84597160Y-63164843D01*
X84550224Y-63140209D01*
X84411472Y-63106011D01*
X84385056Y-63099500D01*
X84214944Y-63099500D01*
X84188528Y-63106011D01*
X84049775Y-63140209D01*
X83899149Y-63219265D01*
X83771815Y-63332072D01*
X83675182Y-63472069D01*
X83614860Y-63631127D01*
X83594354Y-63800000D01*
X83614860Y-63968872D01*
X83675182Y-64127930D01*
X83771815Y-64267927D01*
X83771816Y-64267928D01*
X83771817Y-64267929D01*
X83899148Y-64380734D01*
X84049775Y-64459790D01*
X84214944Y-64500500D01*
X84385055Y-64500500D01*
X84385056Y-64500500D01*
X84550225Y-64459790D01*
X84700852Y-64380734D01*
X84793274Y-64298855D01*
X84842925Y-64272027D01*
X84899324Y-64269982D01*
X84950788Y-64293145D01*
X84986657Y-64336716D01*
X84999500Y-64391672D01*
X84999500Y-69184161D01*
X84987595Y-69237178D01*
X84954164Y-69280015D01*
X84905628Y-69304445D01*
X84851309Y-69305777D01*
X84819748Y-69299500D01*
X83780252Y-69299500D01*
X83780251Y-69299500D01*
X83721769Y-69311132D01*
X83655446Y-69355448D01*
X83624101Y-69402360D01*
X83570750Y-69447050D01*
X83501727Y-69455961D01*
X83438775Y-69426285D01*
X83430853Y-69419267D01*
X83430852Y-69419266D01*
X83342516Y-69372903D01*
X83280224Y-69340209D01*
X83140527Y-69305778D01*
X83115056Y-69299500D01*
X82944944Y-69299500D01*
X82924881Y-69304445D01*
X82779775Y-69340209D01*
X82629149Y-69419265D01*
X82629147Y-69419266D01*
X82629148Y-69419266D01*
X82501817Y-69532071D01*
X82501815Y-69532072D01*
X82490547Y-69542056D01*
X82488655Y-69539920D01*
X82470645Y-69556615D01*
X82419329Y-69573026D01*
X82365898Y-69566125D01*
X82320436Y-69537215D01*
X80211966Y-67428746D01*
X80185086Y-67388518D01*
X80175647Y-67341065D01*
X80175647Y-67216337D01*
X80191641Y-67155421D01*
X80235498Y-67110220D01*
X80295903Y-67092394D01*
X80357273Y-67106540D01*
X80424922Y-67142046D01*
X80590091Y-67182756D01*
X80760202Y-67182756D01*
X80760203Y-67182756D01*
X80925372Y-67142046D01*
X81075999Y-67062990D01*
X81203330Y-66950185D01*
X81276191Y-66844627D01*
X81324844Y-66803154D01*
X81387692Y-66791430D01*
X81448027Y-66812572D01*
X81496504Y-66845578D01*
X81574595Y-66861822D01*
X81574596Y-66861821D01*
X81574598Y-66861822D01*
X81633180Y-66850699D01*
X82596984Y-66461297D01*
X82646851Y-66428603D01*
X82691742Y-66362671D01*
X82691742Y-66362670D01*
X82691743Y-66362669D01*
X82707986Y-66284580D01*
X82705978Y-66274004D01*
X82696863Y-66225996D01*
X82564004Y-65897159D01*
X82553984Y-65872358D01*
X82544957Y-65825186D01*
X82554532Y-65778121D01*
X82581271Y-65738229D01*
X83016290Y-65303210D01*
X83024258Y-65295910D01*
X83053192Y-65271633D01*
X83053192Y-65271632D01*
X83053194Y-65271631D01*
X83072091Y-65238898D01*
X83077887Y-65229801D01*
X83099554Y-65198860D01*
X83099554Y-65198858D01*
X83100173Y-65197975D01*
X83110399Y-65173288D01*
X83110586Y-65172223D01*
X83110588Y-65172221D01*
X83117149Y-65135006D01*
X83119478Y-65124500D01*
X83129264Y-65087983D01*
X83125971Y-65050356D01*
X83125500Y-65039549D01*
X83125500Y-56385135D01*
X83125972Y-56374327D01*
X83129264Y-56336701D01*
X83119478Y-56300183D01*
X83117147Y-56289668D01*
X83110588Y-56252462D01*
X83110587Y-56252460D01*
X83110400Y-56251398D01*
X83100174Y-56226708D01*
X83077892Y-56194886D01*
X83072080Y-56185763D01*
X83053194Y-56153051D01*
X83024255Y-56128769D01*
X83016280Y-56121461D01*
X80558761Y-53663942D01*
X80551452Y-53655966D01*
X80527172Y-53627030D01*
X80494454Y-53608140D01*
X80485345Y-53602337D01*
X80454402Y-53580671D01*
X80453521Y-53580054D01*
X80428825Y-53569824D01*
X80390570Y-53563078D01*
X80380014Y-53560737D01*
X80343525Y-53550960D01*
X80305898Y-53554253D01*
X80295090Y-53554725D01*
X79409387Y-53554725D01*
X79361934Y-53545286D01*
X79321706Y-53518406D01*
X78244554Y-52441254D01*
X78222245Y-52410828D01*
X78211642Y-52379590D01*
X78211481Y-52379312D01*
X78200174Y-52352013D01*
X78177892Y-52320191D01*
X78172080Y-52311068D01*
X78153194Y-52278356D01*
X78124255Y-52254074D01*
X78116280Y-52246766D01*
X76203231Y-50333717D01*
X76195922Y-50325741D01*
X76183201Y-50310581D01*
X76171643Y-50296806D01*
X76171642Y-50296805D01*
X76138924Y-50277915D01*
X76129815Y-50272112D01*
X76098872Y-50250446D01*
X76097991Y-50249829D01*
X76073295Y-50239599D01*
X76035040Y-50232853D01*
X76024484Y-50230512D01*
X75987995Y-50220735D01*
X75950368Y-50224028D01*
X75939560Y-50224500D01*
X75335187Y-50224500D01*
X75278892Y-50210985D01*
X75234869Y-50173385D01*
X75212714Y-50119898D01*
X75217256Y-50062182D01*
X75247506Y-50012819D01*
X75368452Y-49891873D01*
X75426004Y-49859270D01*
X75492126Y-49860892D01*
X75673868Y-49916024D01*
X75870000Y-49935341D01*
X76066132Y-49916024D01*
X76254727Y-49858814D01*
X76428538Y-49765910D01*
X76580883Y-49640883D01*
X76705910Y-49488538D01*
X76798814Y-49314727D01*
X76856024Y-49126132D01*
X76875341Y-48930000D01*
X76856024Y-48733868D01*
X76798814Y-48545273D01*
X76705910Y-48371462D01*
X76580883Y-48219117D01*
X76428538Y-48094090D01*
X76312320Y-48031970D01*
X76254726Y-48001185D01*
X76066133Y-47943976D01*
X75968066Y-47934317D01*
X75870000Y-47924659D01*
X75869999Y-47924659D01*
X75673866Y-47943976D01*
X75485273Y-48001185D01*
X75311463Y-48094089D01*
X75159117Y-48219117D01*
X75034089Y-48371463D01*
X74941185Y-48545273D01*
X74883976Y-48733866D01*
X74864659Y-48930000D01*
X74883975Y-49126130D01*
X74939106Y-49307870D01*
X74940729Y-49373994D01*
X74908126Y-49431546D01*
X74646490Y-49693183D01*
X74606265Y-49720061D01*
X74558812Y-49729500D01*
X69214370Y-49729500D01*
X69148030Y-49710262D01*
X69102275Y-49658517D01*
X69091303Y-49590321D01*
X69118517Y-49526835D01*
X69127268Y-49516171D01*
X69224766Y-49333764D01*
X69271410Y-49180000D01*
X67228590Y-49180000D01*
X67275233Y-49333764D01*
X67372731Y-49516171D01*
X67381483Y-49526835D01*
X67408697Y-49590321D01*
X67397725Y-49658517D01*
X67351970Y-49710262D01*
X67285630Y-49729500D01*
X65931189Y-49729500D01*
X65883736Y-49720061D01*
X65843508Y-49693181D01*
X65581873Y-49431547D01*
X65549270Y-49373995D01*
X65550894Y-49307870D01*
X65589683Y-49180000D01*
X65606024Y-49126132D01*
X65625341Y-48930000D01*
X65606024Y-48733868D01*
X65548814Y-48545273D01*
X65455910Y-48371462D01*
X65330883Y-48219117D01*
X65178538Y-48094090D01*
X65062320Y-48031970D01*
X65004726Y-48001185D01*
X64816133Y-47943976D01*
X64718066Y-47934317D01*
X64620000Y-47924659D01*
X64619999Y-47924659D01*
X64423866Y-47943976D01*
X64235273Y-48001185D01*
X64061463Y-48094089D01*
X63909117Y-48219117D01*
X63784089Y-48371463D01*
X63691185Y-48545273D01*
X63633976Y-48733866D01*
X63614659Y-48930000D01*
X63633975Y-49126130D01*
X63689106Y-49307870D01*
X63690729Y-49373994D01*
X63658126Y-49431546D01*
X63396490Y-49693183D01*
X63356265Y-49720061D01*
X63308812Y-49729500D01*
X57964370Y-49729500D01*
X57898030Y-49710262D01*
X57852275Y-49658517D01*
X57841303Y-49590321D01*
X57868517Y-49526835D01*
X57877268Y-49516171D01*
X57974766Y-49333764D01*
X58021410Y-49180000D01*
X55978590Y-49180000D01*
X56025233Y-49333764D01*
X56122731Y-49516171D01*
X56131483Y-49526835D01*
X56158697Y-49590321D01*
X56147725Y-49658517D01*
X56101970Y-49710262D01*
X56035630Y-49729500D01*
X54431189Y-49729500D01*
X54383736Y-49720061D01*
X54343508Y-49693181D01*
X54081873Y-49431547D01*
X54049270Y-49373995D01*
X54050894Y-49307870D01*
X54089683Y-49180000D01*
X54106024Y-49126132D01*
X54125341Y-48930000D01*
X54106024Y-48733868D01*
X54048814Y-48545273D01*
X53955910Y-48371462D01*
X53830883Y-48219117D01*
X53678538Y-48094090D01*
X53562320Y-48031970D01*
X53504726Y-48001185D01*
X53316133Y-47943976D01*
X53218066Y-47934317D01*
X53120000Y-47924659D01*
X53119999Y-47924659D01*
X52923866Y-47943976D01*
X52735273Y-48001185D01*
X52561463Y-48094089D01*
X52409117Y-48219117D01*
X52284089Y-48371463D01*
X52191185Y-48545273D01*
X52133976Y-48733866D01*
X52114659Y-48930000D01*
X52133975Y-49126130D01*
X52189106Y-49307870D01*
X52190729Y-49373994D01*
X52158126Y-49431546D01*
X51896490Y-49693183D01*
X51856265Y-49720061D01*
X51808812Y-49729500D01*
X46464370Y-49729500D01*
X46398030Y-49710262D01*
X46352275Y-49658517D01*
X46341303Y-49590321D01*
X46368517Y-49526835D01*
X46377268Y-49516171D01*
X46474766Y-49333764D01*
X46521410Y-49180000D01*
X44478590Y-49180000D01*
X44525233Y-49333764D01*
X44622731Y-49516171D01*
X44631483Y-49526835D01*
X44658697Y-49590321D01*
X44647725Y-49658517D01*
X44601970Y-49710262D01*
X44535630Y-49729500D01*
X43181189Y-49729500D01*
X43133736Y-49720061D01*
X43093508Y-49693181D01*
X42831873Y-49431547D01*
X42799270Y-49373995D01*
X42800894Y-49307870D01*
X42839683Y-49180000D01*
X42856024Y-49126132D01*
X42875341Y-48930000D01*
X42856024Y-48733868D01*
X42839683Y-48680000D01*
X44478590Y-48680000D01*
X45250000Y-48680000D01*
X45250000Y-47908590D01*
X45750000Y-47908590D01*
X45750000Y-48680000D01*
X46521410Y-48680000D01*
X46474766Y-48526235D01*
X46377268Y-48343828D01*
X46246054Y-48183945D01*
X46086171Y-48052731D01*
X45903764Y-47955233D01*
X45750000Y-47908590D01*
X45250000Y-47908590D01*
X45096235Y-47955233D01*
X44913828Y-48052731D01*
X44753945Y-48183945D01*
X44622731Y-48343828D01*
X44525233Y-48526235D01*
X44478590Y-48680000D01*
X42839683Y-48680000D01*
X42798814Y-48545273D01*
X42705910Y-48371462D01*
X42580883Y-48219117D01*
X42428538Y-48094090D01*
X42312320Y-48031970D01*
X42254726Y-48001185D01*
X42066133Y-47943976D01*
X41870000Y-47924659D01*
X41673866Y-47943976D01*
X41485273Y-48001185D01*
X41311463Y-48094089D01*
X41159117Y-48219117D01*
X41034089Y-48371463D01*
X40941185Y-48545273D01*
X40883976Y-48733866D01*
X40864659Y-48930000D01*
X40883976Y-49126133D01*
X40941185Y-49314726D01*
X40982314Y-49391672D01*
X41034090Y-49488538D01*
X41159117Y-49640883D01*
X41311462Y-49765910D01*
X41485273Y-49858814D01*
X41673868Y-49916024D01*
X41870000Y-49935341D01*
X42066132Y-49916024D01*
X42247870Y-49860893D01*
X42313995Y-49859270D01*
X42371546Y-49891872D01*
X42599571Y-50119898D01*
X42750955Y-50271282D01*
X42758263Y-50279256D01*
X42772989Y-50296806D01*
X42782545Y-50308194D01*
X42815266Y-50327085D01*
X42824360Y-50332878D01*
X42855316Y-50354554D01*
X42855317Y-50354554D01*
X42856201Y-50355173D01*
X42880891Y-50365400D01*
X42881954Y-50365587D01*
X42881955Y-50365588D01*
X42919146Y-50372145D01*
X42929704Y-50374486D01*
X42966191Y-50384263D01*
X42966192Y-50384262D01*
X42966193Y-50384263D01*
X43003811Y-50380971D01*
X43014618Y-50380500D01*
X43379715Y-50380500D01*
X43438168Y-50395142D01*
X43482817Y-50435609D01*
X43503118Y-50492345D01*
X43494276Y-50551952D01*
X43464956Y-50622737D01*
X43444317Y-50779500D01*
X43453246Y-50847318D01*
X43447726Y-50903362D01*
X43417988Y-50951184D01*
X42333714Y-52035458D01*
X42325741Y-52042764D01*
X42296806Y-52067044D01*
X42277914Y-52099764D01*
X42272106Y-52108880D01*
X42249831Y-52140693D01*
X42239597Y-52165399D01*
X42232852Y-52203648D01*
X42230512Y-52214204D01*
X42220735Y-52250692D01*
X42224028Y-52288320D01*
X42224500Y-52299128D01*
X42224500Y-60044822D01*
X42211259Y-60100575D01*
X42174365Y-60144421D01*
X42121697Y-60166997D01*
X42078368Y-60164334D01*
X42078286Y-60165173D01*
X41870000Y-60144659D01*
X41673866Y-60163976D01*
X41485273Y-60221185D01*
X41311463Y-60314089D01*
X41159117Y-60439117D01*
X41034089Y-60591463D01*
X40941185Y-60765273D01*
X40883976Y-60953866D01*
X40864659Y-61150000D01*
X40883976Y-61346133D01*
X40941185Y-61534726D01*
X41003627Y-61651546D01*
X41034090Y-61708538D01*
X41159117Y-61860883D01*
X41311462Y-61985910D01*
X41485273Y-62078814D01*
X41673868Y-62136024D01*
X41870000Y-62155341D01*
X42066132Y-62136024D01*
X42254727Y-62078814D01*
X42428538Y-61985910D01*
X42466835Y-61954479D01*
X42530321Y-61927266D01*
X42598517Y-61938238D01*
X42650262Y-61983993D01*
X42669500Y-62050333D01*
X42669500Y-62789667D01*
X42650262Y-62856007D01*
X42598517Y-62901762D01*
X42530321Y-62912734D01*
X42466835Y-62885520D01*
X42444957Y-62867565D01*
X42428538Y-62854090D01*
X42344263Y-62809044D01*
X42254726Y-62761185D01*
X42066133Y-62703976D01*
X41870000Y-62684659D01*
X41673866Y-62703976D01*
X41485273Y-62761185D01*
X41311463Y-62854089D01*
X41159117Y-62979117D01*
X41034089Y-63131463D01*
X40941185Y-63305273D01*
X40883976Y-63493866D01*
X40864659Y-63690000D01*
X40883975Y-63886130D01*
X40939106Y-64067870D01*
X40940729Y-64133994D01*
X40908126Y-64191546D01*
X40528714Y-64570958D01*
X40520741Y-64578264D01*
X40491806Y-64602544D01*
X40472914Y-64635264D01*
X40467106Y-64644380D01*
X40444831Y-64676193D01*
X40434597Y-64700899D01*
X40427852Y-64739148D01*
X40425512Y-64749704D01*
X40415735Y-64786192D01*
X40419028Y-64823820D01*
X40419500Y-64834628D01*
X40419500Y-66559812D01*
X40405985Y-66616107D01*
X40368385Y-66660130D01*
X40314898Y-66682285D01*
X40257182Y-66677743D01*
X40207819Y-66647493D01*
X39161819Y-65601493D01*
X39134939Y-65561265D01*
X39125500Y-65513812D01*
X39125500Y-51868299D01*
X39138288Y-51813455D01*
X39174014Y-51769923D01*
X39176615Y-51767927D01*
X39228282Y-51728282D01*
X39324536Y-51602841D01*
X39385044Y-51456762D01*
X39405682Y-51300000D01*
X39385044Y-51143238D01*
X39324536Y-50997159D01*
X39228282Y-50871717D01*
X39102840Y-50775463D01*
X38956762Y-50714956D01*
X38800000Y-50694317D01*
X38643237Y-50714956D01*
X38497159Y-50775463D01*
X38371717Y-50871717D01*
X38275463Y-50997159D01*
X38214956Y-51143237D01*
X38194317Y-51300000D01*
X38214956Y-51456762D01*
X38275463Y-51602840D01*
X38343258Y-51691193D01*
X38371718Y-51728282D01*
X38423385Y-51767927D01*
X38425986Y-51769923D01*
X38461712Y-51813455D01*
X38474500Y-51868299D01*
X38474500Y-54808335D01*
X38460985Y-54864630D01*
X38423385Y-54908653D01*
X38369898Y-54930808D01*
X38312182Y-54926266D01*
X38262819Y-54896016D01*
X37906511Y-54539708D01*
X37876773Y-54491885D01*
X37871253Y-54435841D01*
X37878508Y-54380734D01*
X37880182Y-54368023D01*
X37859544Y-54211261D01*
X37799036Y-54065182D01*
X37754608Y-54007282D01*
X37702782Y-53939740D01*
X37577340Y-53843486D01*
X37431262Y-53782979D01*
X37274500Y-53762340D01*
X37117737Y-53782979D01*
X37036952Y-53816441D01*
X36977345Y-53825283D01*
X36920609Y-53804982D01*
X36880142Y-53760333D01*
X36865500Y-53701880D01*
X36865500Y-51906188D01*
X36874939Y-51858735D01*
X36901819Y-51818507D01*
X39130005Y-49590321D01*
X41368454Y-47351871D01*
X41426004Y-47319270D01*
X41492126Y-47320892D01*
X41673868Y-47376024D01*
X41870000Y-47395341D01*
X42066132Y-47376024D01*
X42254727Y-47318814D01*
X42428538Y-47225910D01*
X42580883Y-47100883D01*
X42705910Y-46948538D01*
X42798814Y-46774727D01*
X42839683Y-46640000D01*
X44478590Y-46640000D01*
X44525233Y-46793764D01*
X44622731Y-46976171D01*
X44753945Y-47136054D01*
X44913828Y-47267268D01*
X45096235Y-47364766D01*
X45250000Y-47411410D01*
X45250000Y-46640000D01*
X45750000Y-46640000D01*
X45750000Y-47411410D01*
X45903764Y-47364766D01*
X46086171Y-47267268D01*
X46246054Y-47136054D01*
X46377268Y-46976171D01*
X46474766Y-46793764D01*
X46521410Y-46640000D01*
X45750000Y-46640000D01*
X45250000Y-46640000D01*
X44478590Y-46640000D01*
X42839683Y-46640000D01*
X42856024Y-46586132D01*
X42875341Y-46390000D01*
X42856024Y-46193868D01*
X42807981Y-46035495D01*
X42804467Y-45978301D01*
X42827044Y-45925634D01*
X42870890Y-45888740D01*
X42926642Y-45875500D01*
X44391630Y-45875500D01*
X44447382Y-45888740D01*
X44491228Y-45925633D01*
X44513804Y-45978301D01*
X44510291Y-46035495D01*
X44478590Y-46140000D01*
X46521410Y-46140000D01*
X46489709Y-46035495D01*
X46486196Y-45978301D01*
X46508772Y-45925633D01*
X46552618Y-45888740D01*
X46608370Y-45875500D01*
X51183812Y-45875500D01*
X51231265Y-45884939D01*
X51271492Y-45911818D01*
X51659673Y-46300000D01*
X51965955Y-46606282D01*
X51973263Y-46614256D01*
X51997545Y-46643194D01*
X52003710Y-46646753D01*
X52030261Y-46662083D01*
X52039382Y-46667894D01*
X52071195Y-46690169D01*
X52095902Y-46700402D01*
X52097843Y-46700745D01*
X52149087Y-46722463D01*
X52185670Y-46764408D01*
X52201361Y-46793764D01*
X52284090Y-46948538D01*
X52409117Y-47100883D01*
X52561462Y-47225910D01*
X52735273Y-47318814D01*
X52923868Y-47376024D01*
X53120000Y-47395341D01*
X53316132Y-47376024D01*
X53504727Y-47318814D01*
X53637672Y-47247753D01*
X53688010Y-47233379D01*
X53739799Y-47241061D01*
X53783801Y-47269432D01*
X54245645Y-47731276D01*
X54252953Y-47739250D01*
X54277240Y-47768194D01*
X54301289Y-47782079D01*
X54309951Y-47787080D01*
X54319074Y-47792892D01*
X54350011Y-47814554D01*
X54350012Y-47814554D01*
X54350893Y-47815171D01*
X54375586Y-47825400D01*
X54376649Y-47825587D01*
X54376650Y-47825588D01*
X54413832Y-47832144D01*
X54413838Y-47832145D01*
X54424396Y-47834485D01*
X54460888Y-47844264D01*
X54498518Y-47840971D01*
X54509325Y-47840500D01*
X56325877Y-47840500D01*
X56384330Y-47855142D01*
X56428979Y-47895609D01*
X56449280Y-47952346D01*
X56440438Y-48011952D01*
X56404542Y-48060353D01*
X56253945Y-48183945D01*
X56122731Y-48343828D01*
X56025233Y-48526235D01*
X55978590Y-48680000D01*
X58021410Y-48680000D01*
X57974766Y-48526235D01*
X57877268Y-48343828D01*
X57746054Y-48183945D01*
X57595458Y-48060353D01*
X57559562Y-48011952D01*
X57550720Y-47952346D01*
X57571021Y-47895609D01*
X57615670Y-47855142D01*
X57674123Y-47840500D01*
X62565373Y-47840500D01*
X62576180Y-47840971D01*
X62613807Y-47844264D01*
X62650324Y-47834478D01*
X62660830Y-47832149D01*
X62698045Y-47825588D01*
X62698047Y-47825586D01*
X62699112Y-47825399D01*
X62723799Y-47815173D01*
X62724682Y-47814554D01*
X62724684Y-47814554D01*
X62755625Y-47792887D01*
X62764722Y-47787091D01*
X62797455Y-47768194D01*
X62821748Y-47739241D01*
X62829036Y-47731288D01*
X63609684Y-46950640D01*
X63669205Y-46917562D01*
X63737221Y-46920904D01*
X63793215Y-46959657D01*
X63909117Y-47100883D01*
X64061462Y-47225910D01*
X64235273Y-47318814D01*
X64423868Y-47376024D01*
X64620000Y-47395341D01*
X64816132Y-47376024D01*
X65004727Y-47318814D01*
X65178538Y-47225910D01*
X65330883Y-47100883D01*
X65383680Y-47036548D01*
X65439670Y-46997798D01*
X65507686Y-46994456D01*
X65567209Y-47027535D01*
X65935013Y-47395340D01*
X66270955Y-47731282D01*
X66278258Y-47739250D01*
X66302545Y-47768194D01*
X66335266Y-47787085D01*
X66344360Y-47792878D01*
X66375316Y-47814554D01*
X66375317Y-47814554D01*
X66376201Y-47815173D01*
X66400891Y-47825400D01*
X66401954Y-47825587D01*
X66401955Y-47825588D01*
X66439146Y-47832145D01*
X66449704Y-47834486D01*
X66486191Y-47844263D01*
X66486192Y-47844262D01*
X66486193Y-47844263D01*
X66523811Y-47840971D01*
X66534618Y-47840500D01*
X67575877Y-47840500D01*
X67634330Y-47855142D01*
X67678979Y-47895609D01*
X67699280Y-47952346D01*
X67690438Y-48011952D01*
X67654542Y-48060353D01*
X67503945Y-48183945D01*
X67372731Y-48343828D01*
X67275233Y-48526235D01*
X67228590Y-48680000D01*
X69271410Y-48680000D01*
X69224766Y-48526235D01*
X69127268Y-48343828D01*
X68996054Y-48183945D01*
X68845458Y-48060353D01*
X68809562Y-48011952D01*
X68800720Y-47952346D01*
X68821021Y-47895609D01*
X68865670Y-47855142D01*
X68924123Y-47840500D01*
X74725373Y-47840500D01*
X74736180Y-47840971D01*
X74773807Y-47844264D01*
X74810324Y-47834478D01*
X74820830Y-47832149D01*
X74858045Y-47825588D01*
X74858047Y-47825586D01*
X74859112Y-47825399D01*
X74883799Y-47815173D01*
X74884682Y-47814554D01*
X74884684Y-47814554D01*
X74915625Y-47792887D01*
X74924722Y-47787091D01*
X74957455Y-47768194D01*
X74981748Y-47739241D01*
X74989036Y-47731288D01*
X75368453Y-47351871D01*
X75426003Y-47319270D01*
X75492126Y-47320892D01*
X75673868Y-47376024D01*
X75870000Y-47395341D01*
X76066132Y-47376024D01*
X76254727Y-47318814D01*
X76428538Y-47225910D01*
X76580883Y-47100883D01*
X76705910Y-46948538D01*
X76798814Y-46774727D01*
X76856024Y-46586132D01*
X76875341Y-46390000D01*
X76859593Y-46230108D01*
X76869716Y-46167521D01*
X76909456Y-46118117D01*
X76968421Y-46094816D01*
X77031198Y-46103708D01*
X77081372Y-46142470D01*
X77147217Y-46228282D01*
X77240683Y-46300000D01*
X77272659Y-46324536D01*
X77418738Y-46385044D01*
X77575500Y-46405682D01*
X77732262Y-46385044D01*
X77878341Y-46324536D01*
X78003782Y-46228282D01*
X78100036Y-46102841D01*
X78160544Y-45956762D01*
X78181182Y-45800000D01*
X78160544Y-45643238D01*
X78100036Y-45497159D01*
X78003782Y-45371718D01*
X77949513Y-45330076D01*
X77913788Y-45286545D01*
X77901000Y-45231701D01*
X77901000Y-43984125D01*
X77901082Y-43982256D01*
X79969501Y-43982256D01*
X79990007Y-44151128D01*
X80050329Y-44310186D01*
X80146962Y-44450183D01*
X80146963Y-44450184D01*
X80146964Y-44450185D01*
X80274295Y-44562990D01*
X80424922Y-44642046D01*
X80590091Y-44682756D01*
X80760202Y-44682756D01*
X80760203Y-44682756D01*
X80925372Y-44642046D01*
X81075999Y-44562990D01*
X81203330Y-44450185D01*
X81276191Y-44344627D01*
X81324844Y-44303154D01*
X81387692Y-44291430D01*
X81448027Y-44312572D01*
X81496504Y-44345578D01*
X81574595Y-44361822D01*
X81574596Y-44361821D01*
X81574598Y-44361822D01*
X81633180Y-44350699D01*
X82596984Y-43961297D01*
X82646851Y-43928603D01*
X82691742Y-43862671D01*
X82691742Y-43862670D01*
X82691743Y-43862669D01*
X82707986Y-43784580D01*
X82705978Y-43774004D01*
X82696863Y-43725996D01*
X82307461Y-42762192D01*
X82289341Y-42734554D01*
X82274767Y-42712324D01*
X82208833Y-42667432D01*
X82130744Y-42651189D01*
X82072159Y-42662313D01*
X81108356Y-43051714D01*
X81058488Y-43084408D01*
X81013596Y-43150342D01*
X81001430Y-43208832D01*
X80971526Y-43267271D01*
X80915978Y-43302254D01*
X80850354Y-43303976D01*
X80760203Y-43281756D01*
X80590091Y-43281756D01*
X80568750Y-43287016D01*
X80424922Y-43322465D01*
X80274296Y-43401521D01*
X80146962Y-43514328D01*
X80050329Y-43654325D01*
X79990007Y-43813383D01*
X79969501Y-43982256D01*
X77901082Y-43982256D01*
X77901472Y-43973317D01*
X77904763Y-43935703D01*
X77904048Y-43933033D01*
X77894983Y-43899206D01*
X77892644Y-43888649D01*
X77892529Y-43887994D01*
X77886088Y-43851464D01*
X77886087Y-43851463D01*
X77885900Y-43850400D01*
X77875671Y-43825707D01*
X77874851Y-43824536D01*
X77873523Y-43822639D01*
X77852755Y-43771716D01*
X77856053Y-43716818D01*
X77882769Y-43668745D01*
X77927645Y-43636957D01*
X78014765Y-43600871D01*
X78140206Y-43504617D01*
X78236460Y-43379176D01*
X78296968Y-43233097D01*
X78317606Y-43076335D01*
X78296968Y-42919573D01*
X78236460Y-42773494D01*
X78140206Y-42648053D01*
X78085937Y-42606411D01*
X78050212Y-42562880D01*
X78037424Y-42508036D01*
X78037424Y-41580552D01*
X78037896Y-41569745D01*
X78039426Y-41552260D01*
X78041187Y-41532126D01*
X78041186Y-41532125D01*
X78041187Y-41532124D01*
X78031410Y-41495637D01*
X78029068Y-41485073D01*
X78022512Y-41447888D01*
X78022511Y-41447887D01*
X78022324Y-41446824D01*
X78012095Y-41422131D01*
X78011478Y-41421250D01*
X78011478Y-41421249D01*
X77989816Y-41390312D01*
X77984004Y-41381189D01*
X77965118Y-41348477D01*
X77936179Y-41324195D01*
X77928204Y-41316887D01*
X76580034Y-39968717D01*
X76572725Y-39960741D01*
X76548445Y-39931805D01*
X76515727Y-39912915D01*
X76506618Y-39907112D01*
X76475675Y-39885446D01*
X76474794Y-39884829D01*
X76450098Y-39874599D01*
X76411843Y-39867853D01*
X76401313Y-39865519D01*
X76399053Y-39864914D01*
X76347562Y-39836752D01*
X76314789Y-39788067D01*
X76308075Y-39729763D01*
X76328924Y-39674902D01*
X76372662Y-39635776D01*
X76428538Y-39605910D01*
X76580883Y-39480883D01*
X76705910Y-39328538D01*
X76798814Y-39154727D01*
X76856024Y-38966132D01*
X76875341Y-38770000D01*
X76856024Y-38573868D01*
X76798814Y-38385273D01*
X76705910Y-38211462D01*
X76580883Y-38059117D01*
X76428538Y-37934090D01*
X76401779Y-37919787D01*
X76254726Y-37841185D01*
X76066133Y-37783976D01*
X75870000Y-37764659D01*
X75673866Y-37783976D01*
X75485273Y-37841185D01*
X75311463Y-37934089D01*
X75159117Y-38059117D01*
X75034090Y-38211461D01*
X74944563Y-38378954D01*
X74898954Y-38426858D01*
X74835205Y-38444500D01*
X72849628Y-38444500D01*
X72838820Y-38444028D01*
X72801192Y-38440735D01*
X72764704Y-38450512D01*
X72754148Y-38452852D01*
X72715899Y-38459597D01*
X72691193Y-38469831D01*
X72659380Y-38492106D01*
X72650264Y-38497914D01*
X72617545Y-38516805D01*
X72593262Y-38545744D01*
X72585956Y-38553716D01*
X72221684Y-38917988D01*
X72173862Y-38947726D01*
X72117818Y-38953246D01*
X72050000Y-38944317D01*
X71893237Y-38964956D01*
X71747159Y-39025463D01*
X71621717Y-39121717D01*
X71525463Y-39247159D01*
X71464956Y-39393237D01*
X71444317Y-39549999D01*
X71464956Y-39706762D01*
X71494483Y-39778048D01*
X71503325Y-39837655D01*
X71483024Y-39894391D01*
X71438375Y-39934858D01*
X71379922Y-39949500D01*
X69941189Y-39949500D01*
X69893736Y-39940061D01*
X69853508Y-39913181D01*
X69533912Y-39593585D01*
X69211872Y-39271546D01*
X69179270Y-39213995D01*
X69180894Y-39147870D01*
X69188827Y-39121718D01*
X69236024Y-38966132D01*
X69255341Y-38770000D01*
X69236024Y-38573868D01*
X69178814Y-38385273D01*
X69085910Y-38211462D01*
X68960883Y-38059117D01*
X68808538Y-37934090D01*
X68781779Y-37919787D01*
X68634726Y-37841185D01*
X68446133Y-37783976D01*
X68250000Y-37764659D01*
X68053866Y-37783976D01*
X67865273Y-37841185D01*
X67691463Y-37934089D01*
X67539117Y-38059117D01*
X67414089Y-38211463D01*
X67358858Y-38314794D01*
X67314290Y-38362068D01*
X67251935Y-38380317D01*
X67188911Y-38364531D01*
X67142521Y-38319043D01*
X67125500Y-38256341D01*
X67125500Y-36743659D01*
X67142521Y-36680957D01*
X67188911Y-36635469D01*
X67251935Y-36619683D01*
X67314290Y-36637932D01*
X67358857Y-36685205D01*
X67414090Y-36788538D01*
X67539117Y-36940883D01*
X67691462Y-37065910D01*
X67865273Y-37158814D01*
X68053868Y-37216024D01*
X68250000Y-37235341D01*
X68446132Y-37216024D01*
X68634727Y-37158814D01*
X68808538Y-37065910D01*
X68960883Y-36940883D01*
X69085910Y-36788538D01*
X69154003Y-36661145D01*
X69175437Y-36621046D01*
X69221046Y-36573142D01*
X69284795Y-36555500D01*
X72350373Y-36555500D01*
X72361180Y-36555971D01*
X72398807Y-36559264D01*
X72435324Y-36549478D01*
X72445830Y-36547149D01*
X72483045Y-36540588D01*
X72483047Y-36540586D01*
X72484112Y-36540399D01*
X72508796Y-36530174D01*
X72509680Y-36529555D01*
X72509684Y-36529554D01*
X72517603Y-36524008D01*
X72574328Y-36502421D01*
X72634506Y-36510342D01*
X72683716Y-36545874D01*
X72710166Y-36600505D01*
X72707519Y-36661145D01*
X72676409Y-36713263D01*
X72471684Y-36917988D01*
X72423862Y-36947726D01*
X72367818Y-36953246D01*
X72300000Y-36944317D01*
X72143237Y-36964956D01*
X71997159Y-37025463D01*
X71871717Y-37121717D01*
X71775463Y-37247159D01*
X71714956Y-37393237D01*
X71694317Y-37549999D01*
X71714956Y-37706762D01*
X71775463Y-37852840D01*
X71871717Y-37978282D01*
X71997159Y-38074536D01*
X72143238Y-38135044D01*
X72300000Y-38155682D01*
X72456762Y-38135044D01*
X72602841Y-38074536D01*
X72728282Y-37978282D01*
X72824536Y-37852841D01*
X72885044Y-37706762D01*
X72905682Y-37550000D01*
X72896753Y-37482180D01*
X72902273Y-37426137D01*
X72932011Y-37378314D01*
X73718507Y-36591819D01*
X73758735Y-36564939D01*
X73806188Y-36555500D01*
X74835205Y-36555500D01*
X74898954Y-36573142D01*
X74944563Y-36621046D01*
X75013929Y-36750820D01*
X75034090Y-36788538D01*
X75159117Y-36940883D01*
X75311462Y-37065910D01*
X75485273Y-37158814D01*
X75673868Y-37216024D01*
X75870000Y-37235341D01*
X76066132Y-37216024D01*
X76254727Y-37158814D01*
X76428538Y-37065910D01*
X76580883Y-36940883D01*
X76705910Y-36788538D01*
X76798814Y-36614727D01*
X76838999Y-36482256D01*
X79969501Y-36482256D01*
X79990007Y-36651128D01*
X80050329Y-36810186D01*
X80146962Y-36950183D01*
X80146963Y-36950184D01*
X80146964Y-36950185D01*
X80274295Y-37062990D01*
X80424922Y-37142046D01*
X80590091Y-37182756D01*
X80760202Y-37182756D01*
X80760203Y-37182756D01*
X80925372Y-37142046D01*
X81075999Y-37062990D01*
X81203330Y-36950185D01*
X81276191Y-36844627D01*
X81324844Y-36803154D01*
X81387692Y-36791430D01*
X81448027Y-36812572D01*
X81496504Y-36845578D01*
X81574595Y-36861822D01*
X81574596Y-36861821D01*
X81574598Y-36861822D01*
X81633180Y-36850699D01*
X82596984Y-36461297D01*
X82646851Y-36428603D01*
X82691742Y-36362671D01*
X82691742Y-36362670D01*
X82691743Y-36362669D01*
X82707986Y-36284580D01*
X82700881Y-36247159D01*
X82696863Y-36225996D01*
X82307461Y-35262192D01*
X82295518Y-35243976D01*
X82274767Y-35212324D01*
X82208833Y-35167432D01*
X82130744Y-35151189D01*
X82072159Y-35162313D01*
X81108356Y-35551714D01*
X81058488Y-35584408D01*
X81013596Y-35650342D01*
X81001430Y-35708832D01*
X80971526Y-35767271D01*
X80915978Y-35802254D01*
X80850354Y-35803976D01*
X80760203Y-35781756D01*
X80590091Y-35781756D01*
X80570998Y-35786462D01*
X80424922Y-35822465D01*
X80274296Y-35901521D01*
X80146962Y-36014328D01*
X80050329Y-36154325D01*
X79990007Y-36313383D01*
X79969501Y-36482256D01*
X76838999Y-36482256D01*
X76856024Y-36426132D01*
X76875341Y-36230000D01*
X76856024Y-36033868D01*
X76798814Y-35845273D01*
X76705910Y-35671462D01*
X76580883Y-35519117D01*
X76428538Y-35394090D01*
X76406091Y-35382092D01*
X76254726Y-35301185D01*
X76066133Y-35243976D01*
X75870000Y-35224659D01*
X75673866Y-35243976D01*
X75485273Y-35301185D01*
X75311463Y-35394089D01*
X75159117Y-35519117D01*
X75034090Y-35671461D01*
X74944563Y-35838954D01*
X74898954Y-35886858D01*
X74835205Y-35904500D01*
X73639628Y-35904500D01*
X73628819Y-35904028D01*
X73591192Y-35900735D01*
X73554706Y-35910512D01*
X73544148Y-35912852D01*
X73505899Y-35919597D01*
X73481192Y-35929831D01*
X73472383Y-35936000D01*
X73415655Y-35957585D01*
X73355479Y-35949661D01*
X73306272Y-35914127D01*
X73279824Y-35859497D01*
X73282473Y-35798859D01*
X73313580Y-35746744D01*
X73378315Y-35682009D01*
X73426136Y-35652273D01*
X73482180Y-35646753D01*
X73488477Y-35647582D01*
X73550000Y-35655682D01*
X73553233Y-35655256D01*
X73562148Y-35656330D01*
X73570747Y-35652950D01*
X73706762Y-35635044D01*
X73852841Y-35574536D01*
X73978282Y-35478282D01*
X74074536Y-35352841D01*
X74135044Y-35206762D01*
X74155682Y-35050000D01*
X74135044Y-34893238D01*
X74074536Y-34747159D01*
X74056879Y-34724148D01*
X73978282Y-34621717D01*
X73852840Y-34525463D01*
X73706762Y-34464956D01*
X73550000Y-34444317D01*
X73393237Y-34464956D01*
X73247159Y-34525463D01*
X73121717Y-34621717D01*
X73025463Y-34747159D01*
X72964956Y-34893237D01*
X72944317Y-35050000D01*
X72953246Y-35117818D01*
X72947726Y-35173862D01*
X72917988Y-35221684D01*
X72271493Y-35868181D01*
X72231265Y-35895061D01*
X72183812Y-35904500D01*
X69284795Y-35904500D01*
X69221046Y-35886858D01*
X69175437Y-35838954D01*
X69124876Y-35744362D01*
X69085910Y-35671462D01*
X68960883Y-35519117D01*
X68808538Y-35394090D01*
X68786091Y-35382092D01*
X68634726Y-35301185D01*
X68446133Y-35243976D01*
X68250000Y-35224659D01*
X68053866Y-35243976D01*
X67865273Y-35301185D01*
X67691463Y-35394089D01*
X67539117Y-35519117D01*
X67414089Y-35671463D01*
X67343698Y-35803155D01*
X67302780Y-35848104D01*
X67245416Y-35868206D01*
X67185391Y-35858632D01*
X67137128Y-35821681D01*
X67112224Y-35766234D01*
X67110400Y-35755891D01*
X67100171Y-35731198D01*
X67099554Y-35730317D01*
X67099554Y-35730316D01*
X67077892Y-35699379D01*
X67072080Y-35690256D01*
X67053194Y-35657544D01*
X67024255Y-35633262D01*
X67016280Y-35625954D01*
X65581873Y-34191547D01*
X65549270Y-34133995D01*
X65550894Y-34067870D01*
X65577064Y-33981599D01*
X65606024Y-33886132D01*
X65625341Y-33690000D01*
X65606024Y-33493868D01*
X65548814Y-33305273D01*
X65455910Y-33131462D01*
X65371134Y-33028162D01*
X65343921Y-32964680D01*
X65354893Y-32896484D01*
X65400648Y-32844738D01*
X65466988Y-32825500D01*
X67403012Y-32825500D01*
X67469352Y-32844738D01*
G37*
%TD.AperFunction*%
%TA.AperFunction,Conductor*%
G36*
X34751546Y-44811872D02*
G01*
X34951479Y-45011806D01*
X35130955Y-45191282D01*
X35138262Y-45199255D01*
X35162545Y-45228194D01*
X35195266Y-45247085D01*
X35204360Y-45252878D01*
X35235316Y-45274554D01*
X35235317Y-45274554D01*
X35236201Y-45275173D01*
X35260891Y-45285400D01*
X35261954Y-45285587D01*
X35261955Y-45285588D01*
X35299146Y-45292145D01*
X35309704Y-45294486D01*
X35346191Y-45304263D01*
X35346192Y-45304262D01*
X35346193Y-45304263D01*
X35383811Y-45300971D01*
X35394618Y-45300500D01*
X39425045Y-45300500D01*
X39484213Y-45315527D01*
X39529040Y-45356965D01*
X39548663Y-45414771D01*
X39538325Y-45474935D01*
X39500531Y-45522876D01*
X39371717Y-45621717D01*
X39275463Y-45747159D01*
X39214956Y-45893237D01*
X39194317Y-46050000D01*
X39203246Y-46117818D01*
X39197726Y-46173862D01*
X39167988Y-46221684D01*
X35158714Y-50230958D01*
X35150741Y-50238264D01*
X35121806Y-50262544D01*
X35102914Y-50295264D01*
X35097106Y-50304380D01*
X35074831Y-50336193D01*
X35064597Y-50360899D01*
X35057852Y-50399148D01*
X35055512Y-50409704D01*
X35045735Y-50446192D01*
X35049028Y-50483820D01*
X35049500Y-50494628D01*
X35049500Y-60025500D01*
X35032887Y-60087500D01*
X34987500Y-60132887D01*
X34925500Y-60149500D01*
X33574500Y-60149500D01*
X33512500Y-60132887D01*
X33467113Y-60087500D01*
X33450500Y-60025500D01*
X33450500Y-49894370D01*
X33469738Y-49828030D01*
X33521483Y-49782275D01*
X33589679Y-49771303D01*
X33653165Y-49798517D01*
X33663828Y-49807268D01*
X33846235Y-49904766D01*
X34000000Y-49951410D01*
X34000000Y-49180000D01*
X34500000Y-49180000D01*
X34500000Y-49951410D01*
X34653764Y-49904766D01*
X34836171Y-49807268D01*
X34996054Y-49676054D01*
X35127268Y-49516171D01*
X35224766Y-49333764D01*
X35271410Y-49180000D01*
X34500000Y-49180000D01*
X34000000Y-49180000D01*
X34000000Y-47908590D01*
X34500000Y-47908590D01*
X34500000Y-48680000D01*
X35271410Y-48680000D01*
X35224766Y-48526235D01*
X35127268Y-48343828D01*
X34996054Y-48183945D01*
X34836171Y-48052731D01*
X34653764Y-47955233D01*
X34500000Y-47908590D01*
X34000000Y-47908590D01*
X33846235Y-47955233D01*
X33663828Y-48052731D01*
X33653165Y-48061483D01*
X33589679Y-48088697D01*
X33521483Y-48077725D01*
X33469738Y-48031970D01*
X33450500Y-47965630D01*
X33450500Y-47354370D01*
X33469738Y-47288030D01*
X33521483Y-47242275D01*
X33589679Y-47231303D01*
X33653165Y-47258517D01*
X33663828Y-47267268D01*
X33846235Y-47364766D01*
X34000000Y-47411410D01*
X34000000Y-46640000D01*
X34500000Y-46640000D01*
X34500000Y-47411410D01*
X34653764Y-47364766D01*
X34836171Y-47267268D01*
X34996054Y-47136054D01*
X35127268Y-46976171D01*
X35224766Y-46793764D01*
X35271410Y-46640000D01*
X34500000Y-46640000D01*
X34000000Y-46640000D01*
X34000000Y-45368590D01*
X34500000Y-45368590D01*
X34500000Y-46140000D01*
X35271410Y-46140000D01*
X35224766Y-45986235D01*
X35127268Y-45803828D01*
X34996054Y-45643945D01*
X34836171Y-45512731D01*
X34653764Y-45415233D01*
X34500000Y-45368590D01*
X34000000Y-45368590D01*
X33846235Y-45415233D01*
X33663828Y-45512731D01*
X33653165Y-45521483D01*
X33589679Y-45548697D01*
X33521483Y-45537725D01*
X33469738Y-45491970D01*
X33450500Y-45425630D01*
X33450500Y-45161188D01*
X33459939Y-45113735D01*
X33486819Y-45073507D01*
X33614134Y-44946192D01*
X33748452Y-44811872D01*
X33806004Y-44779270D01*
X33872126Y-44780892D01*
X34053868Y-44836024D01*
X34250000Y-44855341D01*
X34446132Y-44836024D01*
X34627870Y-44780893D01*
X34693995Y-44779270D01*
X34751546Y-44811872D01*
G37*
%TD.AperFunction*%
%TA.AperFunction,Conductor*%
G36*
X74606265Y-43059939D02*
G01*
X74646493Y-43086819D01*
X74908126Y-43348452D01*
X74940729Y-43406003D01*
X74939106Y-43472128D01*
X74883975Y-43653869D01*
X74864659Y-43850000D01*
X74883976Y-44046133D01*
X74941185Y-44234726D01*
X74982795Y-44312572D01*
X75034090Y-44408538D01*
X75159117Y-44560883D01*
X75311462Y-44685910D01*
X75485273Y-44778814D01*
X75673868Y-44836024D01*
X75870000Y-44855341D01*
X76066132Y-44836024D01*
X76254727Y-44778814D01*
X76428538Y-44685910D01*
X76580883Y-44560883D01*
X76705910Y-44408538D01*
X76798814Y-44234727D01*
X76856024Y-44046132D01*
X76860880Y-43996826D01*
X76886528Y-43932692D01*
X76942508Y-43892230D01*
X77011451Y-43887994D01*
X77071964Y-43921300D01*
X77213681Y-44063017D01*
X77240561Y-44103245D01*
X77250000Y-44150698D01*
X77250000Y-45231701D01*
X77237212Y-45286545D01*
X77201486Y-45330077D01*
X77147217Y-45371718D01*
X77050963Y-45497159D01*
X76990456Y-45643237D01*
X76969817Y-45800000D01*
X76972606Y-45821180D01*
X76962614Y-45888541D01*
X76918557Y-45940468D01*
X76853724Y-45961299D01*
X76787667Y-45944752D01*
X76740309Y-45895818D01*
X76720680Y-45859095D01*
X76705910Y-45831462D01*
X76580883Y-45679117D01*
X76428538Y-45554090D01*
X76280450Y-45474935D01*
X76254726Y-45461185D01*
X76066133Y-45403976D01*
X75870000Y-45384659D01*
X75673866Y-45403976D01*
X75485273Y-45461185D01*
X75311463Y-45554089D01*
X75159117Y-45679117D01*
X75034089Y-45831463D01*
X74941185Y-46005273D01*
X74883976Y-46193866D01*
X74864659Y-46390000D01*
X74883975Y-46586130D01*
X74939106Y-46767870D01*
X74940729Y-46833994D01*
X74908126Y-46891546D01*
X74646490Y-47153183D01*
X74606265Y-47180061D01*
X74558812Y-47189500D01*
X69214370Y-47189500D01*
X69148030Y-47170262D01*
X69102275Y-47118517D01*
X69091303Y-47050321D01*
X69118517Y-46986835D01*
X69127268Y-46976171D01*
X69224766Y-46793764D01*
X69271410Y-46640000D01*
X67228590Y-46640000D01*
X67275233Y-46793764D01*
X67372731Y-46976171D01*
X67381483Y-46986835D01*
X67408697Y-47050321D01*
X67397725Y-47118517D01*
X67351970Y-47170262D01*
X67285630Y-47189500D01*
X66701189Y-47189500D01*
X66653736Y-47180061D01*
X66613508Y-47153181D01*
X65634043Y-46173717D01*
X65626744Y-46165753D01*
X65605135Y-46140000D01*
X67228590Y-46140000D01*
X68000000Y-46140000D01*
X68000000Y-45368590D01*
X68500000Y-45368590D01*
X68500000Y-46140000D01*
X69271410Y-46140000D01*
X69224766Y-45986235D01*
X69127268Y-45803828D01*
X68996054Y-45643945D01*
X68836171Y-45512731D01*
X68653764Y-45415233D01*
X68500000Y-45368590D01*
X68000000Y-45368590D01*
X67846235Y-45415233D01*
X67663828Y-45512731D01*
X67503945Y-45643945D01*
X67372731Y-45803828D01*
X67275233Y-45986235D01*
X67228590Y-46140000D01*
X65605135Y-46140000D01*
X65602455Y-46136806D01*
X65602451Y-46136804D01*
X65597240Y-46130593D01*
X65573569Y-46086883D01*
X65548814Y-46005273D01*
X65455910Y-45831462D01*
X65330883Y-45679117D01*
X65178538Y-45554090D01*
X65168448Y-45548697D01*
X65140687Y-45533858D01*
X65093413Y-45489290D01*
X65075164Y-45426935D01*
X65090950Y-45363911D01*
X65136438Y-45317521D01*
X65199140Y-45300500D01*
X67105373Y-45300500D01*
X67116180Y-45300971D01*
X67153807Y-45304264D01*
X67190324Y-45294478D01*
X67200830Y-45292149D01*
X67238045Y-45285588D01*
X67238047Y-45285586D01*
X67239112Y-45285399D01*
X67263799Y-45275173D01*
X67264682Y-45274554D01*
X67264684Y-45274554D01*
X67295625Y-45252887D01*
X67304722Y-45247091D01*
X67337455Y-45228194D01*
X67361748Y-45199241D01*
X67369036Y-45191288D01*
X67748453Y-44811871D01*
X67806003Y-44779270D01*
X67872126Y-44780892D01*
X68053868Y-44836024D01*
X68250000Y-44855341D01*
X68446132Y-44836024D01*
X68634727Y-44778814D01*
X68808538Y-44685910D01*
X68960883Y-44560883D01*
X69085910Y-44408538D01*
X69178814Y-44234727D01*
X69236024Y-44046132D01*
X69255341Y-43850000D01*
X69236024Y-43653868D01*
X69178814Y-43465273D01*
X69085910Y-43291462D01*
X69054479Y-43253164D01*
X69027266Y-43189679D01*
X69038238Y-43121483D01*
X69083993Y-43069738D01*
X69150333Y-43050500D01*
X74558812Y-43050500D01*
X74606265Y-43059939D01*
G37*
%TD.AperFunction*%
%TA.AperFunction,Conductor*%
G36*
X57501546Y-44811872D02*
G01*
X57701479Y-45011806D01*
X57880955Y-45191282D01*
X57888262Y-45199255D01*
X57912545Y-45228194D01*
X57945266Y-45247085D01*
X57954360Y-45252878D01*
X57985316Y-45274554D01*
X57985317Y-45274554D01*
X57986201Y-45275173D01*
X58010891Y-45285400D01*
X58011954Y-45285587D01*
X58011955Y-45285588D01*
X58049146Y-45292145D01*
X58059704Y-45294486D01*
X58096191Y-45304263D01*
X58096192Y-45304262D01*
X58096193Y-45304263D01*
X58133811Y-45300971D01*
X58144618Y-45300500D01*
X64040860Y-45300500D01*
X64103562Y-45317521D01*
X64149050Y-45363911D01*
X64164836Y-45426935D01*
X64146587Y-45489290D01*
X64099313Y-45533858D01*
X64061463Y-45554089D01*
X63909117Y-45679117D01*
X63784090Y-45831461D01*
X63685669Y-46015593D01*
X63649089Y-46057535D01*
X63597848Y-46079254D01*
X63595901Y-46079597D01*
X63571192Y-46089832D01*
X63539378Y-46112107D01*
X63530261Y-46117915D01*
X63497545Y-46136804D01*
X63473262Y-46165743D01*
X63465956Y-46173715D01*
X62486493Y-47153181D01*
X62446265Y-47180061D01*
X62398812Y-47189500D01*
X57964370Y-47189500D01*
X57898030Y-47170262D01*
X57852275Y-47118517D01*
X57841303Y-47050321D01*
X57868517Y-46986835D01*
X57877268Y-46976171D01*
X57974766Y-46793764D01*
X58021410Y-46640000D01*
X55978590Y-46640000D01*
X56025233Y-46793764D01*
X56122731Y-46976171D01*
X56131483Y-46986835D01*
X56158697Y-47050321D01*
X56147725Y-47118517D01*
X56101970Y-47170262D01*
X56035630Y-47189500D01*
X54675883Y-47189500D01*
X54628430Y-47180061D01*
X54588202Y-47153181D01*
X54186819Y-46751798D01*
X54159939Y-46711570D01*
X54150500Y-46664117D01*
X54150500Y-46594628D01*
X54150972Y-46583820D01*
X54151784Y-46574536D01*
X54154264Y-46546194D01*
X54144478Y-46509676D01*
X54142147Y-46499161D01*
X54135588Y-46461955D01*
X54135587Y-46461954D01*
X54134159Y-46453849D01*
X54126883Y-46434987D01*
X54124685Y-46396657D01*
X54125341Y-46390000D01*
X54106024Y-46193868D01*
X54089683Y-46140000D01*
X55978590Y-46140000D01*
X56750000Y-46140000D01*
X56750000Y-45368590D01*
X57250000Y-45368590D01*
X57250000Y-46140000D01*
X58021410Y-46140000D01*
X57974766Y-45986235D01*
X57877268Y-45803828D01*
X57746054Y-45643945D01*
X57586171Y-45512731D01*
X57403764Y-45415233D01*
X57250000Y-45368590D01*
X56750000Y-45368590D01*
X56596235Y-45415233D01*
X56413828Y-45512731D01*
X56253945Y-45643945D01*
X56122731Y-45803828D01*
X56025233Y-45986235D01*
X55978590Y-46140000D01*
X54089683Y-46140000D01*
X54048814Y-46005273D01*
X53955910Y-45831462D01*
X53830883Y-45679117D01*
X53678538Y-45554090D01*
X53668448Y-45548697D01*
X53640687Y-45533858D01*
X53593413Y-45489290D01*
X53575164Y-45426935D01*
X53590950Y-45363911D01*
X53636438Y-45317521D01*
X53699140Y-45300500D01*
X55855373Y-45300500D01*
X55866180Y-45300971D01*
X55903807Y-45304264D01*
X55940324Y-45294478D01*
X55950830Y-45292149D01*
X55988045Y-45285588D01*
X55988047Y-45285586D01*
X55989112Y-45285399D01*
X56013799Y-45275173D01*
X56014682Y-45274554D01*
X56014684Y-45274554D01*
X56045625Y-45252887D01*
X56054722Y-45247091D01*
X56087455Y-45228194D01*
X56111748Y-45199241D01*
X56119036Y-45191288D01*
X56498453Y-44811871D01*
X56556003Y-44779270D01*
X56622126Y-44780892D01*
X56803868Y-44836024D01*
X57000000Y-44855341D01*
X57196132Y-44836024D01*
X57377870Y-44780893D01*
X57443995Y-44779270D01*
X57501546Y-44811872D01*
G37*
%TD.AperFunction*%
%TA.AperFunction,Conductor*%
G36*
X48396107Y-25014015D02*
G01*
X48440130Y-25051615D01*
X48462285Y-25105102D01*
X48457743Y-25162818D01*
X48427493Y-25212181D01*
X46721684Y-26917988D01*
X46673862Y-26947726D01*
X46617818Y-26953246D01*
X46550000Y-26944317D01*
X46393237Y-26964956D01*
X46247159Y-27025463D01*
X46121717Y-27121717D01*
X46025463Y-27247159D01*
X45964956Y-27393237D01*
X45944317Y-27550000D01*
X45964956Y-27706762D01*
X46025463Y-27852840D01*
X46121717Y-27978282D01*
X46214942Y-28049815D01*
X46247159Y-28074536D01*
X46393238Y-28135044D01*
X46550000Y-28155682D01*
X46706762Y-28135044D01*
X46852841Y-28074536D01*
X46978282Y-27978282D01*
X47074536Y-27852841D01*
X47135044Y-27706762D01*
X47155682Y-27550000D01*
X47146752Y-27482180D01*
X47152273Y-27426136D01*
X47182009Y-27378315D01*
X48998506Y-25561819D01*
X49038735Y-25534939D01*
X49086188Y-25525500D01*
X71285500Y-25525500D01*
X71347500Y-25542113D01*
X71392887Y-25587500D01*
X71409500Y-25649500D01*
X71409500Y-27244749D01*
X71421132Y-27303230D01*
X71465447Y-27369552D01*
X71531769Y-27413867D01*
X71590251Y-27425500D01*
X71590252Y-27425500D01*
X72998812Y-27425500D01*
X73046265Y-27434939D01*
X73086493Y-27461819D01*
X75508181Y-29883508D01*
X75535061Y-29923736D01*
X75544500Y-29971189D01*
X75544500Y-30115205D01*
X75526858Y-30178954D01*
X75478954Y-30224563D01*
X75311461Y-30314090D01*
X75159117Y-30439117D01*
X75034089Y-30591463D01*
X74941185Y-30765273D01*
X74883976Y-30953866D01*
X74864659Y-31149999D01*
X74883976Y-31346133D01*
X74941185Y-31534726D01*
X74941186Y-31534727D01*
X75034090Y-31708538D01*
X75159117Y-31860883D01*
X75243106Y-31929811D01*
X75273368Y-31954647D01*
X75309264Y-32003048D01*
X75318106Y-32062655D01*
X75297805Y-32119391D01*
X75253156Y-32159858D01*
X75194703Y-32174500D01*
X69360866Y-32174500D01*
X69307849Y-32162595D01*
X69265012Y-32129164D01*
X69240582Y-32080629D01*
X69239249Y-32026310D01*
X69250500Y-31969748D01*
X69250500Y-30330252D01*
X69238867Y-30271769D01*
X69235342Y-30266493D01*
X69194552Y-30205447D01*
X69128230Y-30161132D01*
X69069749Y-30149500D01*
X69069748Y-30149500D01*
X67430252Y-30149500D01*
X67430251Y-30149500D01*
X67371769Y-30161132D01*
X67305447Y-30205447D01*
X67261132Y-30271769D01*
X67249500Y-30330251D01*
X67249500Y-30330252D01*
X67249500Y-31969748D01*
X67260750Y-32026310D01*
X67259418Y-32080629D01*
X67234988Y-32129164D01*
X67192151Y-32162595D01*
X67139134Y-32174500D01*
X65295297Y-32174500D01*
X65236844Y-32159858D01*
X65192195Y-32119391D01*
X65171894Y-32062655D01*
X65180736Y-32003048D01*
X65216632Y-31954647D01*
X65246894Y-31929811D01*
X65330883Y-31860883D01*
X65455910Y-31708538D01*
X65548814Y-31534727D01*
X65606024Y-31346132D01*
X65625341Y-31150000D01*
X65606024Y-30953868D01*
X65548814Y-30765273D01*
X65455910Y-30591462D01*
X65330883Y-30439117D01*
X65178538Y-30314090D01*
X65099361Y-30271769D01*
X65004726Y-30221185D01*
X64816133Y-30163976D01*
X64652937Y-30147903D01*
X64619999Y-30135812D01*
X64587063Y-30147903D01*
X64423869Y-30163975D01*
X64242128Y-30219106D01*
X64176003Y-30220729D01*
X64118452Y-30188126D01*
X64042507Y-30112181D01*
X64012257Y-30062818D01*
X64007715Y-30005102D01*
X64029870Y-29951615D01*
X64073893Y-29914015D01*
X64130188Y-29900500D01*
X64574909Y-29900500D01*
X64620000Y-29912187D01*
X64665091Y-29900500D01*
X72820191Y-29900500D01*
X72867644Y-29909939D01*
X72907872Y-29936819D01*
X72934752Y-29977047D01*
X72937656Y-29984059D01*
X72937657Y-29984061D01*
X72946373Y-30005103D01*
X72998165Y-30130140D01*
X73094418Y-30255581D01*
X73191731Y-30330251D01*
X73219860Y-30351835D01*
X73365939Y-30412343D01*
X73522701Y-30432981D01*
X73679463Y-30412343D01*
X73825542Y-30351835D01*
X73950983Y-30255581D01*
X74047237Y-30130140D01*
X74107745Y-29984061D01*
X74128383Y-29827299D01*
X74107745Y-29670537D01*
X74047237Y-29524458D01*
X74013956Y-29481085D01*
X73950983Y-29399016D01*
X73825541Y-29302762D01*
X73679463Y-29242255D01*
X73522700Y-29221616D01*
X73352436Y-29244031D01*
X73334167Y-29248291D01*
X73303982Y-29245318D01*
X73261582Y-29249028D01*
X73250774Y-29249500D01*
X41544628Y-29249500D01*
X41533820Y-29249028D01*
X41496192Y-29245735D01*
X41459704Y-29255512D01*
X41449148Y-29257852D01*
X41410899Y-29264597D01*
X41386193Y-29274831D01*
X41354380Y-29297106D01*
X41345264Y-29302914D01*
X41312545Y-29321805D01*
X41288262Y-29350744D01*
X41280956Y-29358716D01*
X36083714Y-34555958D01*
X36075741Y-34563264D01*
X36046806Y-34587544D01*
X36027914Y-34620264D01*
X36022106Y-34629380D01*
X35999831Y-34661193D01*
X35989597Y-34685899D01*
X35982852Y-34724148D01*
X35980512Y-34734704D01*
X35970735Y-34771192D01*
X35974028Y-34808820D01*
X35974500Y-34819628D01*
X35974500Y-36231701D01*
X35961712Y-36286545D01*
X35925986Y-36330077D01*
X35871717Y-36371718D01*
X35775463Y-36497159D01*
X35714956Y-36643237D01*
X35694317Y-36800000D01*
X35714956Y-36956762D01*
X35775462Y-37102838D01*
X35788641Y-37120013D01*
X35813668Y-37183346D01*
X35801477Y-37250344D01*
X35755745Y-37300801D01*
X35690265Y-37319500D01*
X34829140Y-37319500D01*
X34766438Y-37302479D01*
X34720950Y-37256089D01*
X34705164Y-37193065D01*
X34723413Y-37130710D01*
X34770687Y-37086142D01*
X34781188Y-37080529D01*
X34808538Y-37065910D01*
X34960883Y-36940883D01*
X35085910Y-36788538D01*
X35178814Y-36614727D01*
X35236024Y-36426132D01*
X35255341Y-36230000D01*
X35236024Y-36033868D01*
X35178814Y-35845273D01*
X35085910Y-35671462D01*
X34960883Y-35519117D01*
X34808538Y-35394090D01*
X34786091Y-35382092D01*
X34634726Y-35301185D01*
X34446133Y-35243976D01*
X34250000Y-35224659D01*
X34053866Y-35243976D01*
X33865273Y-35301185D01*
X33691463Y-35394089D01*
X33539117Y-35519117D01*
X33414089Y-35671463D01*
X33321185Y-35845273D01*
X33263976Y-36033866D01*
X33244659Y-36230000D01*
X33263976Y-36426133D01*
X33321185Y-36614726D01*
X33376517Y-36718244D01*
X33414090Y-36788538D01*
X33539117Y-36940883D01*
X33691462Y-37065910D01*
X33718812Y-37080529D01*
X33729313Y-37086142D01*
X33776587Y-37130710D01*
X33794836Y-37193065D01*
X33779050Y-37256089D01*
X33733562Y-37302479D01*
X33670860Y-37319500D01*
X28610781Y-37319500D01*
X28545807Y-37301114D01*
X28500100Y-37251409D01*
X28487216Y-37185124D01*
X28510974Y-37121916D01*
X28564330Y-37080529D01*
X28774801Y-36995493D01*
X28891645Y-36948285D01*
X28941512Y-36915591D01*
X28986403Y-36849659D01*
X28998570Y-36791165D01*
X29028474Y-36732729D01*
X29084022Y-36697745D01*
X29149643Y-36696023D01*
X29239798Y-36718244D01*
X29409909Y-36718244D01*
X29409910Y-36718244D01*
X29575079Y-36677534D01*
X29725706Y-36598478D01*
X29853037Y-36485673D01*
X29949672Y-36345674D01*
X30009994Y-36186616D01*
X30030499Y-36017744D01*
X30009994Y-35848872D01*
X29949672Y-35689814D01*
X29859943Y-35559820D01*
X29853038Y-35549816D01*
X29800997Y-35503712D01*
X29725706Y-35437010D01*
X29703814Y-35425520D01*
X29575078Y-35357953D01*
X29450619Y-35327277D01*
X29409910Y-35317244D01*
X29239798Y-35317244D01*
X29207138Y-35325293D01*
X29074629Y-35357953D01*
X28924003Y-35437009D01*
X28796668Y-35549817D01*
X28723809Y-35655371D01*
X28675155Y-35696845D01*
X28612308Y-35708569D01*
X28551973Y-35687428D01*
X28503494Y-35654420D01*
X28425405Y-35638177D01*
X28366820Y-35649301D01*
X27403017Y-36038702D01*
X27353149Y-36071396D01*
X27308257Y-36137330D01*
X27292014Y-36215419D01*
X27303138Y-36274004D01*
X27692539Y-37237807D01*
X27725234Y-37287675D01*
X27736354Y-37295247D01*
X27773339Y-37334693D01*
X27790021Y-37386128D01*
X27783226Y-37439773D01*
X27754247Y-37485425D01*
X25976493Y-39263181D01*
X25936265Y-39290061D01*
X25888812Y-39299500D01*
X25180252Y-39299500D01*
X25148690Y-39305777D01*
X25094372Y-39304445D01*
X25045836Y-39280015D01*
X25012405Y-39237178D01*
X25000500Y-39184161D01*
X25000500Y-33690000D01*
X33244659Y-33690000D01*
X33263976Y-33886133D01*
X33321185Y-34074726D01*
X33352865Y-34133995D01*
X33414090Y-34248538D01*
X33539117Y-34400883D01*
X33691462Y-34525910D01*
X33865273Y-34618814D01*
X34053868Y-34676024D01*
X34250000Y-34695341D01*
X34446132Y-34676024D01*
X34634727Y-34618814D01*
X34808538Y-34525910D01*
X34960883Y-34400883D01*
X35085910Y-34248538D01*
X35178814Y-34074727D01*
X35236024Y-33886132D01*
X35255341Y-33690000D01*
X35236024Y-33493868D01*
X35180892Y-33312126D01*
X35179270Y-33246003D01*
X35211871Y-33188453D01*
X37791290Y-30609034D01*
X37799258Y-30601734D01*
X37828192Y-30577457D01*
X37828192Y-30577456D01*
X37828194Y-30577455D01*
X37847091Y-30544722D01*
X37852887Y-30535625D01*
X37874554Y-30504684D01*
X37874554Y-30504682D01*
X37875173Y-30503799D01*
X37885398Y-30479112D01*
X37885585Y-30478049D01*
X37885588Y-30478045D01*
X37892150Y-30440822D01*
X37894479Y-30430316D01*
X37904263Y-30393807D01*
X37900971Y-30356188D01*
X37900500Y-30345382D01*
X37900500Y-29211188D01*
X37909939Y-29163735D01*
X37936819Y-29123507D01*
X38279368Y-28780958D01*
X39378315Y-27682009D01*
X39426136Y-27652273D01*
X39482180Y-27646753D01*
X39550000Y-27655682D01*
X39706762Y-27635044D01*
X39852841Y-27574536D01*
X39978282Y-27478282D01*
X40074536Y-27352841D01*
X40135044Y-27206762D01*
X40155682Y-27050000D01*
X40135044Y-26893238D01*
X40074536Y-26747159D01*
X39978282Y-26621717D01*
X39852840Y-26525463D01*
X39706762Y-26464956D01*
X39550000Y-26444317D01*
X39393237Y-26464956D01*
X39247159Y-26525463D01*
X39121717Y-26621717D01*
X39025463Y-26747159D01*
X38964956Y-26893237D01*
X38944317Y-27050000D01*
X38953246Y-27117818D01*
X38947726Y-27173862D01*
X38917988Y-27221684D01*
X37358714Y-28780958D01*
X37350741Y-28788264D01*
X37321806Y-28812544D01*
X37302914Y-28845264D01*
X37297106Y-28854380D01*
X37274831Y-28886193D01*
X37264597Y-28910899D01*
X37257852Y-28949148D01*
X37255512Y-28959704D01*
X37245735Y-28996192D01*
X37249028Y-29033820D01*
X37249500Y-29044628D01*
X37249500Y-30178812D01*
X37240061Y-30226265D01*
X37213181Y-30266493D01*
X35462181Y-32017492D01*
X35412818Y-32047742D01*
X35355102Y-32052284D01*
X35301615Y-32030129D01*
X35264015Y-31986106D01*
X35250500Y-31929811D01*
X35250500Y-30330251D01*
X35238867Y-30271769D01*
X35194552Y-30205447D01*
X35128230Y-30161132D01*
X35069749Y-30149500D01*
X35069748Y-30149500D01*
X33430252Y-30149500D01*
X33430251Y-30149500D01*
X33371769Y-30161132D01*
X33305447Y-30205447D01*
X33261132Y-30271769D01*
X33249500Y-30330251D01*
X33249500Y-31969749D01*
X33261132Y-32028230D01*
X33305447Y-32094552D01*
X33371769Y-32138867D01*
X33430251Y-32150500D01*
X35029811Y-32150500D01*
X35086106Y-32164015D01*
X35130129Y-32201615D01*
X35152284Y-32255102D01*
X35147742Y-32312818D01*
X35117492Y-32362181D01*
X34751546Y-32728126D01*
X34693994Y-32760729D01*
X34627870Y-32759106D01*
X34446130Y-32703975D01*
X34250000Y-32684659D01*
X34053866Y-32703976D01*
X33865273Y-32761185D01*
X33691463Y-32854089D01*
X33539117Y-32979117D01*
X33414089Y-33131463D01*
X33321185Y-33305273D01*
X33263976Y-33493866D01*
X33244659Y-33690000D01*
X25000500Y-33690000D01*
X25000500Y-33315839D01*
X25012405Y-33262822D01*
X25045836Y-33219985D01*
X25094372Y-33195555D01*
X25148690Y-33194222D01*
X25180252Y-33200500D01*
X25614944Y-33200500D01*
X26219748Y-33200500D01*
X26219749Y-33200500D01*
X26251310Y-33194222D01*
X26278231Y-33188867D01*
X26344552Y-33144552D01*
X26348995Y-33137901D01*
X26396215Y-33096099D01*
X26457892Y-33082928D01*
X26518069Y-33101800D01*
X26642527Y-33180003D01*
X26719999Y-33207111D01*
X26720000Y-33207112D01*
X26720000Y-32750000D01*
X27220000Y-32750000D01*
X27220000Y-33207111D01*
X27297470Y-33180003D01*
X27440576Y-33090083D01*
X27560083Y-32970576D01*
X27650003Y-32827470D01*
X27677111Y-32750000D01*
X27220000Y-32750000D01*
X26720000Y-32750000D01*
X26720000Y-31792889D01*
X26719999Y-31792888D01*
X27220000Y-31792888D01*
X27220000Y-32250000D01*
X27677112Y-32250000D01*
X27677111Y-32249999D01*
X27650003Y-32172529D01*
X27560083Y-32029423D01*
X27440576Y-31909916D01*
X27297470Y-31819996D01*
X27220000Y-31792888D01*
X26719999Y-31792888D01*
X26642529Y-31819996D01*
X26590473Y-31852706D01*
X26527979Y-31871664D01*
X26464519Y-31856241D01*
X26417697Y-31810715D01*
X26400500Y-31747713D01*
X26400500Y-29865210D01*
X26409939Y-29817757D01*
X26436819Y-29777529D01*
X27016602Y-29197745D01*
X27210148Y-29004197D01*
X27262093Y-28973140D01*
X27322551Y-28970368D01*
X27377119Y-28996543D01*
X27412800Y-29045428D01*
X27692539Y-29737807D01*
X27725233Y-29787675D01*
X27791167Y-29832567D01*
X27869256Y-29848810D01*
X27869257Y-29848809D01*
X27869259Y-29848810D01*
X27927841Y-29837687D01*
X28891645Y-29448285D01*
X28941512Y-29415591D01*
X28986403Y-29349659D01*
X28998570Y-29291165D01*
X29028474Y-29232729D01*
X29084022Y-29197745D01*
X29149643Y-29196023D01*
X29239798Y-29218244D01*
X29409909Y-29218244D01*
X29409910Y-29218244D01*
X29575079Y-29177534D01*
X29725706Y-29098478D01*
X29853037Y-28985673D01*
X29949672Y-28845674D01*
X30009994Y-28686616D01*
X30030499Y-28517744D01*
X30009994Y-28348872D01*
X29949672Y-28189814D01*
X29870101Y-28074536D01*
X29853038Y-28049816D01*
X29853037Y-28049815D01*
X29725706Y-27937010D01*
X29711442Y-27929523D01*
X29575078Y-27857953D01*
X29450618Y-27827277D01*
X29409910Y-27817244D01*
X29239798Y-27817244D01*
X29207138Y-27825293D01*
X29074629Y-27857953D01*
X28924003Y-27937009D01*
X28796668Y-28049817D01*
X28723809Y-28155371D01*
X28675155Y-28196845D01*
X28612308Y-28208569D01*
X28551973Y-28187428D01*
X28503494Y-28154420D01*
X28425404Y-28138177D01*
X28389705Y-28144955D01*
X28327435Y-28140792D01*
X28275080Y-28106824D01*
X28245902Y-28051657D01*
X28247291Y-27989264D01*
X28278893Y-27935453D01*
X29102527Y-27111819D01*
X29142756Y-27084939D01*
X29190209Y-27075500D01*
X33825500Y-27075500D01*
X33887500Y-27092113D01*
X33932887Y-27137500D01*
X33949500Y-27199500D01*
X33949500Y-27244749D01*
X33961132Y-27303230D01*
X34005447Y-27369552D01*
X34071769Y-27413867D01*
X34130251Y-27425500D01*
X34130252Y-27425500D01*
X35869748Y-27425500D01*
X35869749Y-27425500D01*
X35898989Y-27419683D01*
X35928231Y-27413867D01*
X35994552Y-27369552D01*
X36038867Y-27303231D01*
X36048921Y-27252685D01*
X36050500Y-27244749D01*
X36050500Y-26625000D01*
X36467472Y-26625000D01*
X36509886Y-26774069D01*
X36600751Y-26956553D01*
X36723607Y-27119241D01*
X36874259Y-27256578D01*
X37047588Y-27363899D01*
X37237679Y-27437539D01*
X37290000Y-27447320D01*
X37290000Y-26625000D01*
X37790000Y-26625000D01*
X37790000Y-27447320D01*
X37842320Y-27437539D01*
X38032411Y-27363899D01*
X38205740Y-27256578D01*
X38356392Y-27119241D01*
X38479248Y-26956553D01*
X38570113Y-26774069D01*
X38612528Y-26625000D01*
X37790000Y-26625000D01*
X37290000Y-26625000D01*
X36467472Y-26625000D01*
X36050500Y-26625000D01*
X36050500Y-26124999D01*
X36467471Y-26124999D01*
X36467472Y-26125000D01*
X37290000Y-26125000D01*
X37290000Y-25302680D01*
X37790000Y-25302680D01*
X37790000Y-26125000D01*
X38612528Y-26125000D01*
X38612528Y-26124999D01*
X38570113Y-25975930D01*
X38479248Y-25793446D01*
X38356392Y-25630758D01*
X38205740Y-25493421D01*
X38032411Y-25386100D01*
X37842320Y-25312460D01*
X37790000Y-25302680D01*
X37290000Y-25302680D01*
X37237679Y-25312460D01*
X37047588Y-25386100D01*
X36874259Y-25493421D01*
X36723607Y-25630758D01*
X36600751Y-25793446D01*
X36509886Y-25975930D01*
X36467471Y-26124999D01*
X36050500Y-26124999D01*
X36050500Y-25505251D01*
X36038867Y-25446769D01*
X35994552Y-25380447D01*
X35928230Y-25336132D01*
X35869749Y-25324500D01*
X35869748Y-25324500D01*
X34130252Y-25324500D01*
X34130251Y-25324500D01*
X34071769Y-25336132D01*
X34005447Y-25380447D01*
X33961132Y-25446769D01*
X33949500Y-25505251D01*
X33949500Y-25550500D01*
X33932887Y-25612500D01*
X33887500Y-25657887D01*
X33825500Y-25674500D01*
X28873612Y-25674500D01*
X28866125Y-25674274D01*
X28806082Y-25670641D01*
X28746918Y-25681483D01*
X28739519Y-25682610D01*
X28679815Y-25689860D01*
X28670342Y-25693453D01*
X28648738Y-25699476D01*
X28638760Y-25701305D01*
X28583916Y-25725987D01*
X28577001Y-25728851D01*
X28520761Y-25750181D01*
X28512414Y-25755943D01*
X28492878Y-25766961D01*
X28483637Y-25771120D01*
X28436300Y-25808206D01*
X28430270Y-25812643D01*
X28380761Y-25846817D01*
X28340868Y-25891846D01*
X28335735Y-25897298D01*
X25222290Y-29010742D01*
X25216842Y-29015871D01*
X25206733Y-29024828D01*
X25157082Y-29051661D01*
X25100681Y-29053709D01*
X25049214Y-29030548D01*
X25013344Y-28986975D01*
X25000500Y-28932018D01*
X25000500Y-25124500D01*
X25017113Y-25062500D01*
X25062500Y-25017113D01*
X25124500Y-25000500D01*
X48339812Y-25000500D01*
X48396107Y-25014015D01*
G37*
%TD.AperFunction*%
%TD*%
M02*
