M48
; DRILL file {KiCad 7.0.1} date Tue Sep 19 08:28:10 2023
; FORMAT={-:-/ absolute / inch / decimal}
; #@! TF.CreationDate,2023-09-19T08:28:10-04:00
; #@! TF.GenerationSoftware,Kicad,Pcbnew,7.0.1
; #@! TF.FileFunction,NonPlated,1,2,NPTH
FMAT,2
INCH
; #@! TA.AperFunction,NonPlated,NPTH,ComponentDrill
T1C0.1220
%
G90
G05
T1
X1.1319Y-1.1319
X1.1319Y-1.4272
X1.1319Y-1.7224
X1.1319Y-2.0177
X1.1319Y-2.313
X1.1319Y-2.6083
X1.1319Y-2.9035
X1.1319Y-3.1988
X1.4272Y-1.1319
X1.4272Y-1.4272
X1.4272Y-1.7224
X1.4272Y-2.0177
X1.4272Y-2.313
X1.4272Y-2.6083
X1.4272Y-2.9035
X1.4272Y-3.1988
X1.7224Y-1.1319
X1.7224Y-1.4272
X1.7224Y-1.7224
X1.7224Y-2.0177
X1.7224Y-2.313
X1.7224Y-2.6083
X1.7224Y-2.9035
X1.7224Y-3.1988
X2.0177Y-1.1319
X2.0177Y-1.4272
X2.0177Y-1.7224
X2.0177Y-2.0177
X2.0177Y-2.313
X2.0177Y-2.6083
X2.0177Y-2.9035
X2.0177Y-3.1988
X2.313Y-1.1319
X2.313Y-1.4272
X2.313Y-1.7224
X2.313Y-2.0177
X2.313Y-2.313
X2.313Y-2.6083
X2.313Y-2.9035
X2.313Y-3.1988
X2.6083Y-1.1319
X2.6083Y-1.4272
X2.6083Y-1.7224
X2.6083Y-2.0177
X2.6083Y-2.313
X2.6083Y-2.6083
X2.6083Y-2.9035
X2.6083Y-3.1988
X2.9035Y-1.1319
X2.9035Y-1.4272
X2.9035Y-1.7224
X2.9035Y-2.0177
X2.9035Y-2.313
X2.9035Y-2.6083
X2.9035Y-2.9035
X2.9035Y-3.1988
X3.1988Y-1.1319
X3.1988Y-1.4272
X3.1988Y-1.7224
X3.1988Y-2.0177
X3.1988Y-2.313
X3.1988Y-2.6083
X3.1988Y-2.9035
X3.1988Y-3.1988
T0
M30
