%TF.GenerationSoftware,KiCad,Pcbnew,7.0.1*%
%TF.CreationDate,2023-12-27T22:02:36-05:00*%
%TF.ProjectId,TacTile-A,54616354-696c-4652-9d41-2e6b69636164,rev?*%
%TF.SameCoordinates,Original*%
%TF.FileFunction,Copper,L2,Bot*%
%TF.FilePolarity,Positive*%
%FSLAX46Y46*%
G04 Gerber Fmt 4.6, Leading zero omitted, Abs format (unit mm)*
G04 Created by KiCad (PCBNEW 7.0.1) date 2023-12-27 22:02:36*
%MOMM*%
%LPD*%
G01*
G04 APERTURE LIST*
%TA.AperFunction,ComponentPad*%
%ADD10C,1.000000*%
%TD*%
%TA.AperFunction,ComponentPad*%
%ADD11R,1.700000X1.700000*%
%TD*%
%TA.AperFunction,ViaPad*%
%ADD12C,0.600000*%
%TD*%
%TA.AperFunction,Conductor*%
%ADD13C,0.200000*%
%TD*%
%TA.AperFunction,Conductor*%
%ADD14C,1.000000*%
%TD*%
G04 APERTURE END LIST*
D10*
%TO.P,JMP17,1,A*%
%TO.N,/VCC*%
X25750000Y-39250000D03*
%TD*%
%TO.P,L52,1,A*%
%TO.N,/GND6*%
X51250000Y-71000000D03*
%TO.P,L52,2,A*%
X53190000Y-71810000D03*
%TO.P,L52,3,A*%
X54000000Y-73750000D03*
%TO.P,L52,4,A*%
X53190000Y-75690000D03*
%TO.P,L52,5,A*%
%TO.N,/GND7*%
X49310000Y-71810000D03*
%TO.P,L52,6,A*%
X48500000Y-73750000D03*
%TO.P,L52,7,A*%
X49310000Y-75690000D03*
%TO.P,L52,8,A*%
X51250000Y-76500000D03*
%TD*%
%TO.P,L31,1,A*%
%TO.N,/GND12*%
X73750000Y-48500000D03*
%TO.P,L31,2,A*%
X75690000Y-49310000D03*
%TO.P,L31,3,A*%
X76500000Y-51250000D03*
%TO.P,L31,4,A*%
X75690000Y-53190000D03*
%TO.P,L31,5,A*%
%TO.N,/GND13*%
X71810000Y-49310000D03*
%TO.P,L31,6,A*%
X71000000Y-51250000D03*
%TO.P,L31,7,A*%
X71810000Y-53190000D03*
%TO.P,L31,8,A*%
X73750000Y-54000000D03*
%TD*%
%TO.P,L11,1,A*%
%TO.N,/GND4*%
X43750000Y-33500000D03*
%TO.P,L11,2,A*%
X45690000Y-34310000D03*
%TO.P,L11,3,A*%
X46500000Y-36250000D03*
%TO.P,L11,4,A*%
X45690000Y-38190000D03*
%TO.P,L11,5,A*%
%TO.N,/GND5*%
X41810000Y-34310000D03*
%TO.P,L11,6,A*%
X41000000Y-36250000D03*
%TO.P,L11,7,A*%
X41810000Y-38190000D03*
%TO.P,L11,8,A*%
X43750000Y-39000000D03*
%TD*%
%TO.P,L35,1,A*%
%TO.N,/GND4*%
X43750000Y-56000000D03*
%TO.P,L35,2,A*%
X45690000Y-56810000D03*
%TO.P,L35,3,A*%
X46500000Y-58750000D03*
%TO.P,L35,4,A*%
X45690000Y-60690000D03*
%TO.P,L35,5,A*%
%TO.N,/GND5*%
X41810000Y-56810000D03*
%TO.P,L35,6,A*%
X41000000Y-58750000D03*
%TO.P,L35,7,A*%
X41810000Y-60690000D03*
%TO.P,L35,8,A*%
X43750000Y-61500000D03*
%TD*%
%TO.P,JMP2,1,A*%
%TO.N,/INP1*%
X25750000Y-46750000D03*
%TD*%
%TO.P,L27,1,A*%
%TO.N,/GND4*%
X43750000Y-48500000D03*
%TO.P,L27,2,A*%
X45690000Y-49310000D03*
%TO.P,L27,3,A*%
X46500000Y-51250000D03*
%TO.P,L27,4,A*%
X45690000Y-53190000D03*
%TO.P,L27,5,A*%
%TO.N,/GND5*%
X41810000Y-49310000D03*
%TO.P,L27,6,A*%
X41000000Y-51250000D03*
%TO.P,L27,7,A*%
X41810000Y-53190000D03*
%TO.P,L27,8,A*%
X43750000Y-54000000D03*
%TD*%
%TO.P,JMP8,1,A*%
%TO.N,/INP7*%
X25750000Y-69250000D03*
%TD*%
%TO.P,L17,1,A*%
%TO.N,/GND0*%
X28750000Y-41000000D03*
%TO.P,L17,2,A*%
X30690000Y-41810000D03*
%TO.P,L17,3,A*%
X31500000Y-43750000D03*
%TO.P,L17,4,A*%
X30690000Y-45690000D03*
%TO.P,L17,5,A*%
%TO.N,/GND1*%
X26810000Y-41810000D03*
%TO.P,L17,6,A*%
X26000000Y-43750000D03*
%TO.P,L17,7,A*%
X26810000Y-45690000D03*
%TO.P,L17,8,A*%
X28750000Y-46500000D03*
%TD*%
%TO.P,L24,1,A*%
%TO.N,/GND14*%
X81250000Y-41000000D03*
%TO.P,L24,2,A*%
X83190000Y-41810000D03*
%TO.P,L24,3,A*%
X84000000Y-43750000D03*
%TO.P,L24,4,A*%
X83190000Y-45690000D03*
%TO.P,L24,5,A*%
%TO.N,/GND15*%
X79310000Y-41810000D03*
%TO.P,L24,6,A*%
X78500000Y-43750000D03*
%TO.P,L24,7,A*%
X79310000Y-45690000D03*
%TO.P,L24,8,A*%
X81250000Y-46500000D03*
%TD*%
%TO.P,JMP16,1,A*%
%TO.N,/INP15*%
X84250000Y-69250000D03*
%TD*%
%TO.P,JMP6,1,A*%
%TO.N,/INP5*%
X25750000Y-61750000D03*
%TD*%
%TO.P,L4,1,A*%
%TO.N,/GND6*%
X51250000Y-26000000D03*
%TO.P,L4,2,A*%
X53190000Y-26810000D03*
%TO.P,L4,3,A*%
X54000000Y-28750000D03*
%TO.P,L4,4,A*%
X53190000Y-30690000D03*
%TO.P,L4,5,A*%
%TO.N,/GND7*%
X49310000Y-26810000D03*
%TO.P,L4,6,A*%
X48500000Y-28750000D03*
%TO.P,L4,7,A*%
X49310000Y-30690000D03*
%TO.P,L4,8,A*%
X51250000Y-31500000D03*
%TD*%
%TO.P,L62,1,A*%
%TO.N,/GND10*%
X66250000Y-78500000D03*
%TO.P,L62,2,A*%
X68190000Y-79310000D03*
%TO.P,L62,3,A*%
X69000000Y-81250000D03*
%TO.P,L62,4,A*%
X68190000Y-83190000D03*
%TO.P,L62,5,A*%
%TO.N,/GND11*%
X64310000Y-79310000D03*
%TO.P,L62,6,A*%
X63500000Y-81250000D03*
%TO.P,L62,7,A*%
X64310000Y-83190000D03*
%TO.P,L62,8,A*%
X66250000Y-84000000D03*
%TD*%
%TO.P,L53,1,A*%
%TO.N,/GND8*%
X58750000Y-71000000D03*
%TO.P,L53,2,A*%
X60690000Y-71810000D03*
%TO.P,L53,3,A*%
X61500000Y-73750000D03*
%TO.P,L53,4,A*%
X60690000Y-75690000D03*
%TO.P,L53,5,A*%
%TO.N,/GND9*%
X56810000Y-71810000D03*
%TO.P,L53,6,A*%
X56000000Y-73750000D03*
%TO.P,L53,7,A*%
X56810000Y-75690000D03*
%TO.P,L53,8,A*%
X58750000Y-76500000D03*
%TD*%
%TO.P,JMP13,1,A*%
%TO.N,/INP12*%
X84250000Y-55750000D03*
%TD*%
%TO.P,L19,1,A*%
%TO.N,/GND4*%
X43750000Y-41000000D03*
%TO.P,L19,2,A*%
X45690000Y-41810000D03*
%TO.P,L19,3,A*%
X46500000Y-43750000D03*
%TO.P,L19,4,A*%
X45690000Y-45690000D03*
%TO.P,L19,5,A*%
%TO.N,/GND5*%
X41810000Y-41810000D03*
%TO.P,L19,6,A*%
X41000000Y-43750000D03*
%TO.P,L19,7,A*%
X41810000Y-45690000D03*
%TO.P,L19,8,A*%
X43750000Y-46500000D03*
%TD*%
%TO.P,L30,1,A*%
%TO.N,/GND10*%
X66250000Y-48500000D03*
%TO.P,L30,2,A*%
X68190000Y-49310000D03*
%TO.P,L30,3,A*%
X69000000Y-51250000D03*
%TO.P,L30,4,A*%
X68190000Y-53190000D03*
%TO.P,L30,5,A*%
%TO.N,/GND11*%
X64310000Y-49310000D03*
%TO.P,L30,6,A*%
X63500000Y-51250000D03*
%TO.P,L30,7,A*%
X64310000Y-53190000D03*
%TO.P,L30,8,A*%
X66250000Y-54000000D03*
%TD*%
%TO.P,L45,1,A*%
%TO.N,/GND8*%
X58750000Y-63500000D03*
%TO.P,L45,2,A*%
X60690000Y-64310000D03*
%TO.P,L45,3,A*%
X61500000Y-66250000D03*
%TO.P,L45,4,A*%
X60690000Y-68190000D03*
%TO.P,L45,5,A*%
%TO.N,/GND9*%
X56810000Y-64310000D03*
%TO.P,L45,6,A*%
X56000000Y-66250000D03*
%TO.P,L45,7,A*%
X56810000Y-68190000D03*
%TO.P,L45,8,A*%
X58750000Y-69000000D03*
%TD*%
%TO.P,L36,1,A*%
%TO.N,/GND6*%
X51250000Y-56000000D03*
%TO.P,L36,2,A*%
X53190000Y-56810000D03*
%TO.P,L36,3,A*%
X54000000Y-58750000D03*
%TO.P,L36,4,A*%
X53190000Y-60690000D03*
%TO.P,L36,5,A*%
%TO.N,/GND7*%
X49310000Y-56810000D03*
%TO.P,L36,6,A*%
X48500000Y-58750000D03*
%TO.P,L36,7,A*%
X49310000Y-60690000D03*
%TO.P,L36,8,A*%
X51250000Y-61500000D03*
%TD*%
%TO.P,JMP14,1,A*%
%TO.N,/INP13*%
X84250000Y-61750000D03*
%TD*%
%TO.P,L38,1,A*%
%TO.N,/GND10*%
X66250000Y-56000000D03*
%TO.P,L38,2,A*%
X68190000Y-56810000D03*
%TO.P,L38,3,A*%
X69000000Y-58750000D03*
%TO.P,L38,4,A*%
X68190000Y-60690000D03*
%TO.P,L38,5,A*%
%TO.N,/GND11*%
X64310000Y-56810000D03*
%TO.P,L38,6,A*%
X63500000Y-58750000D03*
%TO.P,L38,7,A*%
X64310000Y-60690000D03*
%TO.P,L38,8,A*%
X66250000Y-61500000D03*
%TD*%
%TO.P,L16,1,A*%
%TO.N,/GND14*%
X81250000Y-33500000D03*
%TO.P,L16,2,A*%
X83190000Y-34310000D03*
%TO.P,L16,3,A*%
X84000000Y-36250000D03*
%TO.P,L16,4,A*%
X83190000Y-38190000D03*
%TO.P,L16,5,A*%
%TO.N,/GND15*%
X79310000Y-34310000D03*
%TO.P,L16,6,A*%
X78500000Y-36250000D03*
%TO.P,L16,7,A*%
X79310000Y-38190000D03*
%TO.P,L16,8,A*%
X81250000Y-39000000D03*
%TD*%
%TO.P,L2,1,A*%
%TO.N,/GND2*%
X36250000Y-26000000D03*
%TO.P,L2,2,A*%
X38190000Y-26810000D03*
%TO.P,L2,3,A*%
X39000000Y-28750000D03*
%TO.P,L2,4,A*%
X38190000Y-30690000D03*
%TO.P,L2,5,A*%
%TO.N,/GND3*%
X34310000Y-26810000D03*
%TO.P,L2,6,A*%
X33500000Y-28750000D03*
%TO.P,L2,7,A*%
X34310000Y-30690000D03*
%TO.P,L2,8,A*%
X36250000Y-31500000D03*
%TD*%
%TO.P,JMP4,1,A*%
%TO.N,/INP3*%
X25750000Y-54250000D03*
%TD*%
%TO.P,L59,1,A*%
%TO.N,/GND4*%
X43750000Y-78500000D03*
%TO.P,L59,2,A*%
X45690000Y-79310000D03*
%TO.P,L59,3,A*%
X46500000Y-81250000D03*
%TO.P,L59,4,A*%
X45690000Y-83190000D03*
%TO.P,L59,5,A*%
%TO.N,/GND5*%
X41810000Y-79310000D03*
%TO.P,L59,6,A*%
X41000000Y-81250000D03*
%TO.P,L59,7,A*%
X41810000Y-83190000D03*
%TO.P,L59,8,A*%
X43750000Y-84000000D03*
%TD*%
%TO.P,L34,1,A*%
%TO.N,/GND2*%
X36250000Y-56000000D03*
%TO.P,L34,2,A*%
X38190000Y-56810000D03*
%TO.P,L34,3,A*%
X39000000Y-58750000D03*
%TO.P,L34,4,A*%
X38190000Y-60690000D03*
%TO.P,L34,5,A*%
%TO.N,/GND3*%
X34310000Y-56810000D03*
%TO.P,L34,6,A*%
X33500000Y-58750000D03*
%TO.P,L34,7,A*%
X34310000Y-60690000D03*
%TO.P,L34,8,A*%
X36250000Y-61500000D03*
%TD*%
%TO.P,L49,1,A*%
%TO.N,/GND0*%
X28750000Y-71000000D03*
%TO.P,L49,2,A*%
X30690000Y-71810000D03*
%TO.P,L49,3,A*%
X31500000Y-73750000D03*
%TO.P,L49,4,A*%
X30690000Y-75690000D03*
%TO.P,L49,5,A*%
%TO.N,/GND1*%
X26810000Y-71810000D03*
%TO.P,L49,6,A*%
X26000000Y-73750000D03*
%TO.P,L49,7,A*%
X26810000Y-75690000D03*
%TO.P,L49,8,A*%
X28750000Y-76500000D03*
%TD*%
%TO.P,L15,1,A*%
%TO.N,/GND12*%
X73750000Y-33500000D03*
%TO.P,L15,2,A*%
X75690000Y-34310000D03*
%TO.P,L15,3,A*%
X76500000Y-36250000D03*
%TO.P,L15,4,A*%
X75690000Y-38190000D03*
%TO.P,L15,5,A*%
%TO.N,/GND13*%
X71810000Y-34310000D03*
%TO.P,L15,6,A*%
X71000000Y-36250000D03*
%TO.P,L15,7,A*%
X71810000Y-38190000D03*
%TO.P,L15,8,A*%
X73750000Y-39000000D03*
%TD*%
%TO.P,L39,1,A*%
%TO.N,/GND12*%
X73750000Y-56000000D03*
%TO.P,L39,2,A*%
X75690000Y-56810000D03*
%TO.P,L39,3,A*%
X76500000Y-58750000D03*
%TO.P,L39,4,A*%
X75690000Y-60690000D03*
%TO.P,L39,5,A*%
%TO.N,/GND13*%
X71810000Y-56810000D03*
%TO.P,L39,6,A*%
X71000000Y-58750000D03*
%TO.P,L39,7,A*%
X71810000Y-60690000D03*
%TO.P,L39,8,A*%
X73750000Y-61500000D03*
%TD*%
%TO.P,L47,1,A*%
%TO.N,/GND12*%
X73750000Y-63500000D03*
%TO.P,L47,2,A*%
X75690000Y-64310000D03*
%TO.P,L47,3,A*%
X76500000Y-66250000D03*
%TO.P,L47,4,A*%
X75690000Y-68190000D03*
%TO.P,L47,5,A*%
%TO.N,/GND13*%
X71810000Y-64310000D03*
%TO.P,L47,6,A*%
X71000000Y-66250000D03*
%TO.P,L47,7,A*%
X71810000Y-68190000D03*
%TO.P,L47,8,A*%
X73750000Y-69000000D03*
%TD*%
%TO.P,L64,1,A*%
%TO.N,/GND14*%
X81250000Y-78500000D03*
%TO.P,L64,2,A*%
X83190000Y-79310000D03*
%TO.P,L64,3,A*%
X84000000Y-81250000D03*
%TO.P,L64,4,A*%
X83190000Y-83190000D03*
%TO.P,L64,5,A*%
%TO.N,/GND15*%
X79310000Y-79310000D03*
%TO.P,L64,6,A*%
X78500000Y-81250000D03*
%TO.P,L64,7,A*%
X79310000Y-83190000D03*
%TO.P,L64,8,A*%
X81250000Y-84000000D03*
%TD*%
%TO.P,JMP7,1,A*%
%TO.N,/INP6*%
X25750000Y-63250000D03*
%TD*%
%TO.P,L55,1,A*%
%TO.N,/GND12*%
X73750000Y-71000000D03*
%TO.P,L55,2,A*%
X75690000Y-71810000D03*
%TO.P,L55,3,A*%
X76500000Y-73750000D03*
%TO.P,L55,4,A*%
X75690000Y-75690000D03*
%TO.P,L55,5,A*%
%TO.N,/GND13*%
X71810000Y-71810000D03*
%TO.P,L55,6,A*%
X71000000Y-73750000D03*
%TO.P,L55,7,A*%
X71810000Y-75690000D03*
%TO.P,L55,8,A*%
X73750000Y-76500000D03*
%TD*%
%TO.P,L51,1,A*%
%TO.N,/GND4*%
X43750000Y-71000000D03*
%TO.P,L51,2,A*%
X45690000Y-71810000D03*
%TO.P,L51,3,A*%
X46500000Y-73750000D03*
%TO.P,L51,4,A*%
X45690000Y-75690000D03*
%TO.P,L51,5,A*%
%TO.N,/GND5*%
X41810000Y-71810000D03*
%TO.P,L51,6,A*%
X41000000Y-73750000D03*
%TO.P,L51,7,A*%
X41810000Y-75690000D03*
%TO.P,L51,8,A*%
X43750000Y-76500000D03*
%TD*%
%TO.P,L12,1,A*%
%TO.N,/GND6*%
X51250000Y-33500000D03*
%TO.P,L12,2,A*%
X53190000Y-34310000D03*
%TO.P,L12,3,A*%
X54000000Y-36250000D03*
%TO.P,L12,4,A*%
X53190000Y-38190000D03*
%TO.P,L12,5,A*%
%TO.N,/GND7*%
X49310000Y-34310000D03*
%TO.P,L12,6,A*%
X48500000Y-36250000D03*
%TO.P,L12,7,A*%
X49310000Y-38190000D03*
%TO.P,L12,8,A*%
X51250000Y-39000000D03*
%TD*%
%TO.P,L54,1,A*%
%TO.N,/GND10*%
X66250000Y-71000000D03*
%TO.P,L54,2,A*%
X68190000Y-71810000D03*
%TO.P,L54,3,A*%
X69000000Y-73750000D03*
%TO.P,L54,4,A*%
X68190000Y-75690000D03*
%TO.P,L54,5,A*%
%TO.N,/GND11*%
X64310000Y-71810000D03*
%TO.P,L54,6,A*%
X63500000Y-73750000D03*
%TO.P,L54,7,A*%
X64310000Y-75690000D03*
%TO.P,L54,8,A*%
X66250000Y-76500000D03*
%TD*%
%TO.P,L3,1,A*%
%TO.N,/GND4*%
X43750000Y-26000000D03*
%TO.P,L3,2,A*%
X45690000Y-26810000D03*
%TO.P,L3,3,A*%
X46500000Y-28750000D03*
%TO.P,L3,4,A*%
X45690000Y-30690000D03*
%TO.P,L3,5,A*%
%TO.N,/GND5*%
X41810000Y-26810000D03*
%TO.P,L3,6,A*%
X41000000Y-28750000D03*
%TO.P,L3,7,A*%
X41810000Y-30690000D03*
%TO.P,L3,8,A*%
X43750000Y-31500000D03*
%TD*%
%TO.P,L6,1,A*%
%TO.N,/GND10*%
X66250000Y-26000000D03*
%TO.P,L6,2,A*%
X68190000Y-26810000D03*
%TO.P,L6,3,A*%
X69000000Y-28750000D03*
%TO.P,L6,4,A*%
X68190000Y-30690000D03*
%TO.P,L6,5,A*%
%TO.N,/GND11*%
X64310000Y-26810000D03*
%TO.P,L6,6,A*%
X63500000Y-28750000D03*
%TO.P,L6,7,A*%
X64310000Y-30690000D03*
%TO.P,L6,8,A*%
X66250000Y-31500000D03*
%TD*%
%TO.P,JMP5,1,A*%
%TO.N,/INP4*%
X25750000Y-55750000D03*
%TD*%
D11*
%TO.P,J4,1,Pin_1*%
%TO.N,/GND*%
X55000000Y-78000000D03*
%TD*%
D10*
%TO.P,JMP1,1,A*%
%TO.N,/INP0*%
X25750000Y-40750000D03*
%TD*%
%TO.P,JMP15,1,A*%
%TO.N,/INP14*%
X84250000Y-63250000D03*
%TD*%
%TO.P,L5,1,A*%
%TO.N,/GND8*%
X58750000Y-26000000D03*
%TO.P,L5,2,A*%
X60690000Y-26810000D03*
%TO.P,L5,3,A*%
X61500000Y-28750000D03*
%TO.P,L5,4,A*%
X60690000Y-30690000D03*
%TO.P,L5,5,A*%
%TO.N,/GND9*%
X56810000Y-26810000D03*
%TO.P,L5,6,A*%
X56000000Y-28750000D03*
%TO.P,L5,7,A*%
X56810000Y-30690000D03*
%TO.P,L5,8,A*%
X58750000Y-31500000D03*
%TD*%
%TO.P,L20,1,A*%
%TO.N,/GND6*%
X51250000Y-41000000D03*
%TO.P,L20,2,A*%
X53190000Y-41810000D03*
%TO.P,L20,3,A*%
X54000000Y-43750000D03*
%TO.P,L20,4,A*%
X53190000Y-45690000D03*
%TO.P,L20,5,A*%
%TO.N,/GND7*%
X49310000Y-41810000D03*
%TO.P,L20,6,A*%
X48500000Y-43750000D03*
%TO.P,L20,7,A*%
X49310000Y-45690000D03*
%TO.P,L20,8,A*%
X51250000Y-46500000D03*
%TD*%
%TO.P,L46,1,A*%
%TO.N,/GND10*%
X66250000Y-63500000D03*
%TO.P,L46,2,A*%
X68190000Y-64310000D03*
%TO.P,L46,3,A*%
X69000000Y-66250000D03*
%TO.P,L46,4,A*%
X68190000Y-68190000D03*
%TO.P,L46,5,A*%
%TO.N,/GND11*%
X64310000Y-64310000D03*
%TO.P,L46,6,A*%
X63500000Y-66250000D03*
%TO.P,L46,7,A*%
X64310000Y-68190000D03*
%TO.P,L46,8,A*%
X66250000Y-69000000D03*
%TD*%
%TO.P,L23,1,A*%
%TO.N,/GND12*%
X73750000Y-41000000D03*
%TO.P,L23,2,A*%
X75690000Y-41810000D03*
%TO.P,L23,3,A*%
X76500000Y-43750000D03*
%TO.P,L23,4,A*%
X75690000Y-45690000D03*
%TO.P,L23,5,A*%
%TO.N,/GND13*%
X71810000Y-41810000D03*
%TO.P,L23,6,A*%
X71000000Y-43750000D03*
%TO.P,L23,7,A*%
X71810000Y-45690000D03*
%TO.P,L23,8,A*%
X73750000Y-46500000D03*
%TD*%
%TO.P,L10,1,A*%
%TO.N,/GND2*%
X36250000Y-33500000D03*
%TO.P,L10,2,A*%
X38190000Y-34310000D03*
%TO.P,L10,3,A*%
X39000000Y-36250000D03*
%TO.P,L10,4,A*%
X38190000Y-38190000D03*
%TO.P,L10,5,A*%
%TO.N,/GND3*%
X34310000Y-34310000D03*
%TO.P,L10,6,A*%
X33500000Y-36250000D03*
%TO.P,L10,7,A*%
X34310000Y-38190000D03*
%TO.P,L10,8,A*%
X36250000Y-39000000D03*
%TD*%
%TO.P,JMP9,1,A*%
%TO.N,/INP8*%
X84250000Y-40750000D03*
%TD*%
%TO.P,L56,1,A*%
%TO.N,/GND14*%
X81250000Y-71000000D03*
%TO.P,L56,2,A*%
X83190000Y-71810000D03*
%TO.P,L56,3,A*%
X84000000Y-73750000D03*
%TO.P,L56,4,A*%
X83190000Y-75690000D03*
%TO.P,L56,5,A*%
%TO.N,/GND15*%
X79310000Y-71810000D03*
%TO.P,L56,6,A*%
X78500000Y-73750000D03*
%TO.P,L56,7,A*%
X79310000Y-75690000D03*
%TO.P,L56,8,A*%
X81250000Y-76500000D03*
%TD*%
%TO.P,L37,1,A*%
%TO.N,/GND8*%
X58750000Y-56000000D03*
%TO.P,L37,2,A*%
X60690000Y-56810000D03*
%TO.P,L37,3,A*%
X61500000Y-58750000D03*
%TO.P,L37,4,A*%
X60690000Y-60690000D03*
%TO.P,L37,5,A*%
%TO.N,/GND9*%
X56810000Y-56810000D03*
%TO.P,L37,6,A*%
X56000000Y-58750000D03*
%TO.P,L37,7,A*%
X56810000Y-60690000D03*
%TO.P,L37,8,A*%
X58750000Y-61500000D03*
%TD*%
%TO.P,L33,1,A*%
%TO.N,/GND0*%
X28750000Y-56000000D03*
%TO.P,L33,2,A*%
X30690000Y-56810000D03*
%TO.P,L33,3,A*%
X31500000Y-58750000D03*
%TO.P,L33,4,A*%
X30690000Y-60690000D03*
%TO.P,L33,5,A*%
%TO.N,/GND1*%
X26810000Y-56810000D03*
%TO.P,L33,6,A*%
X26000000Y-58750000D03*
%TO.P,L33,7,A*%
X26810000Y-60690000D03*
%TO.P,L33,8,A*%
X28750000Y-61500000D03*
%TD*%
D11*
%TO.P,J3,1,Pin_1*%
%TO.N,/GND*%
X55000000Y-32300000D03*
%TD*%
D10*
%TO.P,JMP12,1,A*%
%TO.N,/INP11*%
X84250000Y-54250000D03*
%TD*%
%TO.P,L26,1,A*%
%TO.N,/GND2*%
X36250000Y-48500000D03*
%TO.P,L26,2,A*%
X38190000Y-49310000D03*
%TO.P,L26,3,A*%
X39000000Y-51250000D03*
%TO.P,L26,4,A*%
X38190000Y-53190000D03*
%TO.P,L26,5,A*%
%TO.N,/GND3*%
X34310000Y-49310000D03*
%TO.P,L26,6,A*%
X33500000Y-51250000D03*
%TO.P,L26,7,A*%
X34310000Y-53190000D03*
%TO.P,L26,8,A*%
X36250000Y-54000000D03*
%TD*%
%TO.P,L50,1,A*%
%TO.N,/GND2*%
X36250000Y-71000000D03*
%TO.P,L50,2,A*%
X38190000Y-71810000D03*
%TO.P,L50,3,A*%
X39000000Y-73750000D03*
%TO.P,L50,4,A*%
X38190000Y-75690000D03*
%TO.P,L50,5,A*%
%TO.N,/GND3*%
X34310000Y-71810000D03*
%TO.P,L50,6,A*%
X33500000Y-73750000D03*
%TO.P,L50,7,A*%
X34310000Y-75690000D03*
%TO.P,L50,8,A*%
X36250000Y-76500000D03*
%TD*%
%TO.P,L1,1,A*%
%TO.N,/GND0*%
X28750000Y-26000000D03*
%TO.P,L1,2,A*%
X30690000Y-26810000D03*
%TO.P,L1,3,A*%
X31500000Y-28750000D03*
%TO.P,L1,4,A*%
X30690000Y-30690000D03*
%TO.P,L1,5,A*%
%TO.N,/GND1*%
X26810000Y-26810000D03*
%TO.P,L1,6,A*%
X26000000Y-28750000D03*
%TO.P,L1,7,A*%
X26810000Y-30690000D03*
%TO.P,L1,8,A*%
X28750000Y-31500000D03*
%TD*%
%TO.P,L28,1,A*%
%TO.N,/GND6*%
X51250000Y-48500000D03*
%TO.P,L28,2,A*%
X53190000Y-49310000D03*
%TO.P,L28,3,A*%
X54000000Y-51250000D03*
%TO.P,L28,4,A*%
X53190000Y-53190000D03*
%TO.P,L28,5,A*%
%TO.N,/GND7*%
X49310000Y-49310000D03*
%TO.P,L28,6,A*%
X48500000Y-51250000D03*
%TO.P,L28,7,A*%
X49310000Y-53190000D03*
%TO.P,L28,8,A*%
X51250000Y-54000000D03*
%TD*%
%TO.P,L61,1,A*%
%TO.N,/GND8*%
X58750000Y-78500000D03*
%TO.P,L61,2,A*%
X60690000Y-79310000D03*
%TO.P,L61,3,A*%
X61500000Y-81250000D03*
%TO.P,L61,4,A*%
X60690000Y-83190000D03*
%TO.P,L61,5,A*%
%TO.N,/GND9*%
X56810000Y-79310000D03*
%TO.P,L61,6,A*%
X56000000Y-81250000D03*
%TO.P,L61,7,A*%
X56810000Y-83190000D03*
%TO.P,L61,8,A*%
X58750000Y-84000000D03*
%TD*%
%TO.P,JMP3,1,A*%
%TO.N,/INP2*%
X25750000Y-48250000D03*
%TD*%
%TO.P,L8,1,A*%
%TO.N,/GND14*%
X81250000Y-26000000D03*
%TO.P,L8,2,A*%
X83190000Y-26810000D03*
%TO.P,L8,3,A*%
X84000000Y-28750000D03*
%TO.P,L8,4,A*%
X83190000Y-30690000D03*
%TO.P,L8,5,A*%
%TO.N,/GND15*%
X79310000Y-26810000D03*
%TO.P,L8,6,A*%
X78500000Y-28750000D03*
%TO.P,L8,7,A*%
X79310000Y-30690000D03*
%TO.P,L8,8,A*%
X81250000Y-31500000D03*
%TD*%
%TO.P,L42,1,A*%
%TO.N,/GND2*%
X36250000Y-63500000D03*
%TO.P,L42,2,A*%
X38190000Y-64310000D03*
%TO.P,L42,3,A*%
X39000000Y-66250000D03*
%TO.P,L42,4,A*%
X38190000Y-68190000D03*
%TO.P,L42,5,A*%
%TO.N,/GND3*%
X34310000Y-64310000D03*
%TO.P,L42,6,A*%
X33500000Y-66250000D03*
%TO.P,L42,7,A*%
X34310000Y-68190000D03*
%TO.P,L42,8,A*%
X36250000Y-69000000D03*
%TD*%
%TO.P,L63,1,A*%
%TO.N,/GND12*%
X73750000Y-78500000D03*
%TO.P,L63,2,A*%
X75690000Y-79310000D03*
%TO.P,L63,3,A*%
X76500000Y-81250000D03*
%TO.P,L63,4,A*%
X75690000Y-83190000D03*
%TO.P,L63,5,A*%
%TO.N,/GND13*%
X71810000Y-79310000D03*
%TO.P,L63,6,A*%
X71000000Y-81250000D03*
%TO.P,L63,7,A*%
X71810000Y-83190000D03*
%TO.P,L63,8,A*%
X73750000Y-84000000D03*
%TD*%
%TO.P,L25,1,A*%
%TO.N,/GND0*%
X28750000Y-48500000D03*
%TO.P,L25,2,A*%
X30690000Y-49310000D03*
%TO.P,L25,3,A*%
X31500000Y-51250000D03*
%TO.P,L25,4,A*%
X30690000Y-53190000D03*
%TO.P,L25,5,A*%
%TO.N,/GND1*%
X26810000Y-49310000D03*
%TO.P,L25,6,A*%
X26000000Y-51250000D03*
%TO.P,L25,7,A*%
X26810000Y-53190000D03*
%TO.P,L25,8,A*%
X28750000Y-54000000D03*
%TD*%
%TO.P,JMP10,1,A*%
%TO.N,/INP9*%
X84250000Y-46750000D03*
%TD*%
D11*
%TO.P,J2,1,Pin_1*%
%TO.N,/GND*%
X78000000Y-77500000D03*
%TD*%
D10*
%TO.P,L29,1,A*%
%TO.N,/GND8*%
X58750000Y-48500000D03*
%TO.P,L29,2,A*%
X60690000Y-49310000D03*
%TO.P,L29,3,A*%
X61500000Y-51250000D03*
%TO.P,L29,4,A*%
X60690000Y-53190000D03*
%TO.P,L29,5,A*%
%TO.N,/GND9*%
X56810000Y-49310000D03*
%TO.P,L29,6,A*%
X56000000Y-51250000D03*
%TO.P,L29,7,A*%
X56810000Y-53190000D03*
%TO.P,L29,8,A*%
X58750000Y-54000000D03*
%TD*%
%TO.P,L14,1,A*%
%TO.N,/GND10*%
X66250000Y-33500000D03*
%TO.P,L14,2,A*%
X68190000Y-34310000D03*
%TO.P,L14,3,A*%
X69000000Y-36250000D03*
%TO.P,L14,4,A*%
X68190000Y-38190000D03*
%TO.P,L14,5,A*%
%TO.N,/GND11*%
X64310000Y-34310000D03*
%TO.P,L14,6,A*%
X63500000Y-36250000D03*
%TO.P,L14,7,A*%
X64310000Y-38190000D03*
%TO.P,L14,8,A*%
X66250000Y-39000000D03*
%TD*%
%TO.P,L7,1,A*%
%TO.N,/GND12*%
X73750000Y-26000000D03*
%TO.P,L7,2,A*%
X75690000Y-26810000D03*
%TO.P,L7,3,A*%
X76500000Y-28750000D03*
%TO.P,L7,4,A*%
X75690000Y-30690000D03*
%TO.P,L7,5,A*%
%TO.N,/GND13*%
X71810000Y-26810000D03*
%TO.P,L7,6,A*%
X71000000Y-28750000D03*
%TO.P,L7,7,A*%
X71810000Y-30690000D03*
%TO.P,L7,8,A*%
X73750000Y-31500000D03*
%TD*%
%TO.P,L9,1,A*%
%TO.N,/GND0*%
X28750000Y-33500000D03*
%TO.P,L9,2,A*%
X30690000Y-34310000D03*
%TO.P,L9,3,A*%
X31500000Y-36250000D03*
%TO.P,L9,4,A*%
X30690000Y-38190000D03*
%TO.P,L9,5,A*%
%TO.N,/GND1*%
X26810000Y-34310000D03*
%TO.P,L9,6,A*%
X26000000Y-36250000D03*
%TO.P,L9,7,A*%
X26810000Y-38190000D03*
%TO.P,L9,8,A*%
X28750000Y-39000000D03*
%TD*%
%TO.P,L57,1,A*%
%TO.N,/GND0*%
X28750000Y-78500000D03*
%TO.P,L57,2,A*%
X30690000Y-79310000D03*
%TO.P,L57,3,A*%
X31500000Y-81250000D03*
%TO.P,L57,4,A*%
X30690000Y-83190000D03*
%TO.P,L57,5,A*%
%TO.N,/GND1*%
X26810000Y-79310000D03*
%TO.P,L57,6,A*%
X26000000Y-81250000D03*
%TO.P,L57,7,A*%
X26810000Y-83190000D03*
%TO.P,L57,8,A*%
X28750000Y-84000000D03*
%TD*%
%TO.P,L40,1,A*%
%TO.N,/GND14*%
X81250000Y-56000000D03*
%TO.P,L40,2,A*%
X83190000Y-56810000D03*
%TO.P,L40,3,A*%
X84000000Y-58750000D03*
%TO.P,L40,4,A*%
X83190000Y-60690000D03*
%TO.P,L40,5,A*%
%TO.N,/GND15*%
X79310000Y-56810000D03*
%TO.P,L40,6,A*%
X78500000Y-58750000D03*
%TO.P,L40,7,A*%
X79310000Y-60690000D03*
%TO.P,L40,8,A*%
X81250000Y-61500000D03*
%TD*%
%TO.P,L58,1,A*%
%TO.N,/GND2*%
X36250000Y-78500000D03*
%TO.P,L58,2,A*%
X38190000Y-79310000D03*
%TO.P,L58,3,A*%
X39000000Y-81250000D03*
%TO.P,L58,4,A*%
X38190000Y-83190000D03*
%TO.P,L58,5,A*%
%TO.N,/GND3*%
X34310000Y-79310000D03*
%TO.P,L58,6,A*%
X33500000Y-81250000D03*
%TO.P,L58,7,A*%
X34310000Y-83190000D03*
%TO.P,L58,8,A*%
X36250000Y-84000000D03*
%TD*%
%TO.P,L43,1,A*%
%TO.N,/GND4*%
X43750000Y-63500000D03*
%TO.P,L43,2,A*%
X45690000Y-64310000D03*
%TO.P,L43,3,A*%
X46500000Y-66250000D03*
%TO.P,L43,4,A*%
X45690000Y-68190000D03*
%TO.P,L43,5,A*%
%TO.N,/GND5*%
X41810000Y-64310000D03*
%TO.P,L43,6,A*%
X41000000Y-66250000D03*
%TO.P,L43,7,A*%
X41810000Y-68190000D03*
%TO.P,L43,8,A*%
X43750000Y-69000000D03*
%TD*%
%TO.P,JMP11,1,A*%
%TO.N,/INP10*%
X84250000Y-48250000D03*
%TD*%
%TO.P,L41,1,A*%
%TO.N,/GND0*%
X28750000Y-63500000D03*
%TO.P,L41,2,A*%
X30690000Y-64310000D03*
%TO.P,L41,3,A*%
X31500000Y-66250000D03*
%TO.P,L41,4,A*%
X30690000Y-68190000D03*
%TO.P,L41,5,A*%
%TO.N,/GND1*%
X26810000Y-64310000D03*
%TO.P,L41,6,A*%
X26000000Y-66250000D03*
%TO.P,L41,7,A*%
X26810000Y-68190000D03*
%TO.P,L41,8,A*%
X28750000Y-69000000D03*
%TD*%
D11*
%TO.P,J1,1,Pin_1*%
%TO.N,/GND*%
X32300000Y-77500000D03*
%TD*%
D10*
%TO.P,L60,1,A*%
%TO.N,/GND6*%
X51250000Y-78500000D03*
%TO.P,L60,2,A*%
X53190000Y-79310000D03*
%TO.P,L60,3,A*%
X54000000Y-81250000D03*
%TO.P,L60,4,A*%
X53190000Y-83190000D03*
%TO.P,L60,5,A*%
%TO.N,/GND7*%
X49310000Y-79310000D03*
%TO.P,L60,6,A*%
X48500000Y-81250000D03*
%TO.P,L60,7,A*%
X49310000Y-83190000D03*
%TO.P,L60,8,A*%
X51250000Y-84000000D03*
%TD*%
%TO.P,L21,1,A*%
%TO.N,/GND8*%
X58750000Y-41000000D03*
%TO.P,L21,2,A*%
X60690000Y-41810000D03*
%TO.P,L21,3,A*%
X61500000Y-43750000D03*
%TO.P,L21,4,A*%
X60690000Y-45690000D03*
%TO.P,L21,5,A*%
%TO.N,/GND9*%
X56810000Y-41810000D03*
%TO.P,L21,6,A*%
X56000000Y-43750000D03*
%TO.P,L21,7,A*%
X56810000Y-45690000D03*
%TO.P,L21,8,A*%
X58750000Y-46500000D03*
%TD*%
%TO.P,L13,1,A*%
%TO.N,/GND8*%
X58750000Y-33500000D03*
%TO.P,L13,2,A*%
X60690000Y-34310000D03*
%TO.P,L13,3,A*%
X61500000Y-36250000D03*
%TO.P,L13,4,A*%
X60690000Y-38190000D03*
%TO.P,L13,5,A*%
%TO.N,/GND9*%
X56810000Y-34310000D03*
%TO.P,L13,6,A*%
X56000000Y-36250000D03*
%TO.P,L13,7,A*%
X56810000Y-38190000D03*
%TO.P,L13,8,A*%
X58750000Y-39000000D03*
%TD*%
%TO.P,L44,1,A*%
%TO.N,/GND6*%
X51250000Y-63500000D03*
%TO.P,L44,2,A*%
X53190000Y-64310000D03*
%TO.P,L44,3,A*%
X54000000Y-66250000D03*
%TO.P,L44,4,A*%
X53190000Y-68190000D03*
%TO.P,L44,5,A*%
%TO.N,/GND7*%
X49310000Y-64310000D03*
%TO.P,L44,6,A*%
X48500000Y-66250000D03*
%TO.P,L44,7,A*%
X49310000Y-68190000D03*
%TO.P,L44,8,A*%
X51250000Y-69000000D03*
%TD*%
%TO.P,L32,1,A*%
%TO.N,/GND14*%
X81250000Y-48500000D03*
%TO.P,L32,2,A*%
X83190000Y-49310000D03*
%TO.P,L32,3,A*%
X84000000Y-51250000D03*
%TO.P,L32,4,A*%
X83190000Y-53190000D03*
%TO.P,L32,5,A*%
%TO.N,/GND15*%
X79310000Y-49310000D03*
%TO.P,L32,6,A*%
X78500000Y-51250000D03*
%TO.P,L32,7,A*%
X79310000Y-53190000D03*
%TO.P,L32,8,A*%
X81250000Y-54000000D03*
%TD*%
%TO.P,L22,1,A*%
%TO.N,/GND10*%
X66250000Y-41000000D03*
%TO.P,L22,2,A*%
X68190000Y-41810000D03*
%TO.P,L22,3,A*%
X69000000Y-43750000D03*
%TO.P,L22,4,A*%
X68190000Y-45690000D03*
%TO.P,L22,5,A*%
%TO.N,/GND11*%
X64310000Y-41810000D03*
%TO.P,L22,6,A*%
X63500000Y-43750000D03*
%TO.P,L22,7,A*%
X64310000Y-45690000D03*
%TO.P,L22,8,A*%
X66250000Y-46500000D03*
%TD*%
%TO.P,L48,1,A*%
%TO.N,/GND14*%
X81250000Y-63500000D03*
%TO.P,L48,2,A*%
X83190000Y-64310000D03*
%TO.P,L48,3,A*%
X84000000Y-66250000D03*
%TO.P,L48,4,A*%
X83190000Y-68190000D03*
%TO.P,L48,5,A*%
%TO.N,/GND15*%
X79310000Y-64310000D03*
%TO.P,L48,6,A*%
X78500000Y-66250000D03*
%TO.P,L48,7,A*%
X79310000Y-68190000D03*
%TO.P,L48,8,A*%
X81250000Y-69000000D03*
%TD*%
%TO.P,L18,1,A*%
%TO.N,/GND2*%
X36250000Y-41000000D03*
%TO.P,L18,2,A*%
X38190000Y-41810000D03*
%TO.P,L18,3,A*%
X39000000Y-43750000D03*
%TO.P,L18,4,A*%
X38190000Y-45690000D03*
%TO.P,L18,5,A*%
%TO.N,/GND3*%
X34310000Y-41810000D03*
%TO.P,L18,6,A*%
X33500000Y-43750000D03*
%TO.P,L18,7,A*%
X34310000Y-45690000D03*
%TO.P,L18,8,A*%
X36250000Y-46500000D03*
%TD*%
D12*
%TO.N,/INP6*%
X38792185Y-69871322D03*
X41771492Y-69565000D03*
%TO.N,/INP7*%
X40969250Y-70399500D03*
X38271754Y-70478246D03*
%TO.N,/VCC*%
X53831754Y-39831754D03*
X56677561Y-39658932D03*
X46689500Y-68650465D03*
X48315137Y-68608645D03*
%TO.N,/INP1*%
X33430570Y-46164983D03*
X31689500Y-46110713D03*
%TO.N,/INP0*%
X31610386Y-41316878D03*
X33310500Y-41335017D03*
%TO.N,/VCC*%
X33430570Y-38664983D03*
X31689500Y-38671113D03*
X64271493Y-47065000D03*
X61542175Y-47082301D03*
%TO.N,/INP9*%
X70889614Y-46183122D03*
X69250000Y-46250000D03*
%TO.N,/INP8*%
X71168246Y-40168246D03*
X68429852Y-40233655D03*
%TO.N,/INP14*%
X76610386Y-63816878D03*
X78258812Y-63727759D03*
%TO.N,/INP15*%
X76689500Y-68683122D03*
X78389614Y-68683122D03*
%TO.N,/VCC*%
X76610386Y-71316878D03*
X78250000Y-71250000D03*
%TD*%
D13*
%TO.N,/INP6*%
X39098507Y-69565000D02*
X38792185Y-69871322D01*
X41771492Y-69565000D02*
X39098507Y-69565000D01*
%TO.N,/INP7*%
X40969250Y-70399500D02*
X40890504Y-70478246D01*
X40890504Y-70478246D02*
X38271754Y-70478246D01*
%TO.N,/VCC*%
X56677561Y-39658932D02*
X54004576Y-39658932D01*
X54004576Y-39658932D02*
X53831754Y-39831754D01*
X48315137Y-68608645D02*
X46731320Y-68608645D01*
X46731320Y-68608645D02*
X46689500Y-68650465D01*
%TO.N,/INP1*%
X31743770Y-46164983D02*
X33430570Y-46164983D01*
X31689500Y-46110713D02*
X31743770Y-46164983D01*
%TO.N,/INP0*%
X33292361Y-41316878D02*
X33310500Y-41335017D01*
X31610386Y-41316878D02*
X33292361Y-41316878D01*
%TO.N,/VCC*%
X33424440Y-38671113D02*
X33430570Y-38664983D01*
X31689500Y-38671113D02*
X33424440Y-38671113D01*
X61559476Y-47065000D02*
X64271493Y-47065000D01*
X61542175Y-47082301D02*
X61559476Y-47065000D01*
%TO.N,/INP9*%
X70822736Y-46250000D02*
X70889614Y-46183122D01*
X69250000Y-46250000D02*
X70822736Y-46250000D01*
%TO.N,/INP8*%
X71102837Y-40233655D02*
X71168246Y-40168246D01*
X68429852Y-40233655D02*
X71102837Y-40233655D01*
%TO.N,/INP14*%
X76699505Y-63727759D02*
X76610386Y-63816878D01*
X78258812Y-63727759D02*
X76699505Y-63727759D01*
%TO.N,/INP15*%
X78389614Y-68683122D02*
X76689500Y-68683122D01*
%TO.N,/VCC*%
X78250000Y-71250000D02*
X76677264Y-71250000D01*
X76677264Y-71250000D02*
X76610386Y-71316878D01*
D14*
%TO.N,/GND1*%
X28750000Y-54000000D02*
X27620000Y-54000000D01*
X27550000Y-47700000D02*
X27550000Y-48570000D01*
X26000000Y-67380000D02*
X26000000Y-66250000D01*
X26810000Y-70940000D02*
X28750000Y-69000000D01*
X27620000Y-39000000D02*
X26810000Y-38190000D01*
X28750000Y-61500000D02*
X27550000Y-62700000D01*
X26000000Y-81250000D02*
X26000000Y-80120000D01*
X26000000Y-72620000D02*
X26810000Y-71810000D01*
X26810000Y-83190000D02*
X27620000Y-84000000D01*
X26000000Y-57620000D02*
X26810000Y-56810000D01*
X26000000Y-37380000D02*
X26000000Y-36250000D01*
X27620000Y-69000000D02*
X26810000Y-68190000D01*
X26000000Y-43750000D02*
X26000000Y-42620000D01*
X27550000Y-63570000D02*
X26810000Y-64310000D01*
X26000000Y-73750000D02*
X26000000Y-74880000D01*
X26000000Y-80120000D02*
X26810000Y-79310000D01*
X26810000Y-53190000D02*
X26000000Y-52380000D01*
X26810000Y-68190000D02*
X26000000Y-67380000D01*
X27600000Y-55452944D02*
X27600000Y-55650000D01*
X27620000Y-76500000D02*
X26810000Y-75690000D01*
X26810000Y-34310000D02*
X26810000Y-33440000D01*
X27620000Y-31500000D02*
X26810000Y-30690000D01*
X26810000Y-60690000D02*
X26000000Y-59880000D01*
X28750000Y-31500000D02*
X27620000Y-31500000D01*
X27309999Y-40440001D02*
X28750000Y-39000000D01*
X26810000Y-41810000D02*
X27309999Y-41310001D01*
X28750000Y-76500000D02*
X27620000Y-76500000D01*
X26000000Y-52380000D02*
X26000000Y-51250000D01*
X28750000Y-39000000D02*
X27620000Y-39000000D01*
X26000000Y-82380000D02*
X26810000Y-83190000D01*
X27550000Y-62700000D02*
X27550000Y-63570000D01*
X27620000Y-54000000D02*
X26810000Y-53190000D01*
X28750000Y-46500000D02*
X27550000Y-47700000D01*
X27550000Y-48570000D02*
X26810000Y-49310000D01*
X26810000Y-33440000D02*
X28750000Y-31500000D01*
X26000000Y-50120000D02*
X26810000Y-49310000D01*
X26000000Y-66250000D02*
X26000000Y-65120000D01*
X26000000Y-28750000D02*
X26000000Y-27620000D01*
X26000000Y-35120000D02*
X26810000Y-34310000D01*
X26000000Y-58750000D02*
X26000000Y-57620000D01*
X28750000Y-46500000D02*
X27620000Y-46500000D01*
X28750000Y-54302944D02*
X27600000Y-55452944D01*
X26000000Y-73750000D02*
X26000000Y-72620000D01*
X26810000Y-30690000D02*
X26000000Y-29880000D01*
X26000000Y-59880000D02*
X26000000Y-58750000D01*
X26000000Y-74880000D02*
X26810000Y-75690000D01*
X26000000Y-81250000D02*
X26000000Y-82380000D01*
X26000000Y-42620000D02*
X26810000Y-41810000D01*
X26000000Y-44880000D02*
X26000000Y-43750000D01*
X26000000Y-51250000D02*
X26000000Y-50120000D01*
X26810000Y-78440000D02*
X28750000Y-76500000D01*
X27309999Y-41310001D02*
X27309999Y-40440001D01*
X27600000Y-55650000D02*
X26810000Y-56440000D01*
X26810000Y-79310000D02*
X26810000Y-78440000D01*
X26810000Y-38190000D02*
X26000000Y-37380000D01*
X27620000Y-84000000D02*
X28750000Y-84000000D01*
X26000000Y-65120000D02*
X26810000Y-64310000D01*
X26810000Y-71810000D02*
X26810000Y-70940000D01*
X26810000Y-45690000D02*
X26000000Y-44880000D01*
X27620000Y-61500000D02*
X26810000Y-60690000D01*
X28750000Y-61500000D02*
X27620000Y-61500000D01*
X28750000Y-69000000D02*
X27620000Y-69000000D01*
X28750000Y-54000000D02*
X28750000Y-54302944D01*
X26000000Y-36250000D02*
X26000000Y-35120000D01*
X27620000Y-46500000D02*
X26810000Y-45690000D01*
X26000000Y-27620000D02*
X26810000Y-26810000D01*
X26000000Y-29880000D02*
X26000000Y-28750000D01*
X26810000Y-56440000D02*
X26810000Y-56810000D01*
%TO.N,/GND2*%
X38500000Y-57120000D02*
X38190000Y-56810000D01*
X39000000Y-82380000D02*
X39000000Y-81250000D01*
X39000000Y-80120000D02*
X38190000Y-79310000D01*
X38190000Y-53190000D02*
X39000000Y-52380000D01*
X38190000Y-46560000D02*
X36250000Y-48500000D01*
X39000000Y-52380000D02*
X39000000Y-51250000D01*
X39000000Y-29500000D02*
X39000000Y-28750000D01*
X38750000Y-64870000D02*
X38190000Y-64310000D01*
X39000000Y-50120000D02*
X38190000Y-49310000D01*
X39000000Y-36250000D02*
X39000000Y-35120000D01*
X39000000Y-74880000D02*
X39000000Y-73750000D01*
X37380000Y-63500000D02*
X38190000Y-64310000D01*
X38190000Y-61560000D02*
X36250000Y-63500000D01*
X39000000Y-59880000D02*
X39000000Y-58750000D01*
X36250000Y-33500000D02*
X37380000Y-33500000D01*
X39000000Y-43750000D02*
X39000000Y-42620000D01*
X39000000Y-28750000D02*
X39000000Y-27620000D01*
X39000000Y-37380000D02*
X39000000Y-36250000D01*
X36250000Y-56000000D02*
X37380000Y-56000000D01*
X39000000Y-42620000D02*
X38190000Y-41810000D01*
X38190000Y-30690000D02*
X38190000Y-31560000D01*
X38190000Y-45310000D02*
X39000000Y-44500000D01*
X37380000Y-78500000D02*
X38190000Y-79310000D01*
X36250000Y-71000000D02*
X37380000Y-71000000D01*
X39000000Y-66250000D02*
X38750000Y-66000000D01*
X38190000Y-45690000D02*
X38190000Y-46560000D01*
X39000000Y-44500000D02*
X39000000Y-43750000D01*
X38190000Y-26810000D02*
X37380000Y-26000000D01*
X37380000Y-56000000D02*
X38190000Y-56810000D01*
X38190000Y-38190000D02*
X38190000Y-39060000D01*
X38190000Y-60690000D02*
X38190000Y-61560000D01*
X38190000Y-83190000D02*
X39000000Y-82380000D01*
X39000000Y-73750000D02*
X39000000Y-72620000D01*
X39000000Y-35120000D02*
X38190000Y-34310000D01*
X39000000Y-58750000D02*
X38500000Y-58250000D01*
X38190000Y-75690000D02*
X38190000Y-76560000D01*
X38190000Y-30310000D02*
X39000000Y-29500000D01*
X39000000Y-72620000D02*
X38190000Y-71810000D01*
X37380000Y-48500000D02*
X38190000Y-49310000D01*
X37380000Y-26000000D02*
X36250000Y-26000000D01*
X38190000Y-45690000D02*
X38190000Y-45310000D01*
X38500000Y-58250000D02*
X38500000Y-57120000D01*
X37380000Y-33500000D02*
X38190000Y-34310000D01*
X36250000Y-78500000D02*
X37380000Y-78500000D01*
X36250000Y-63500000D02*
X37380000Y-63500000D01*
X39000000Y-51250000D02*
X39000000Y-50120000D01*
X38190000Y-53190000D02*
X38190000Y-54060000D01*
X38190000Y-75690000D02*
X39000000Y-74880000D01*
X38190000Y-30690000D02*
X38190000Y-30310000D01*
X37380000Y-41000000D02*
X38190000Y-41810000D01*
X39000000Y-67380000D02*
X39000000Y-66250000D01*
X36250000Y-41000000D02*
X37380000Y-41000000D01*
X38190000Y-69060000D02*
X36250000Y-71000000D01*
X38190000Y-68190000D02*
X39000000Y-67380000D01*
X37380000Y-71000000D02*
X38190000Y-71810000D01*
X39000000Y-81250000D02*
X39000000Y-80120000D01*
X38190000Y-60690000D02*
X39000000Y-59880000D01*
X39000000Y-27620000D02*
X38190000Y-26810000D01*
X38190000Y-68190000D02*
X38190000Y-69060000D01*
X38190000Y-39060000D02*
X36250000Y-41000000D01*
X38750000Y-66000000D02*
X38750000Y-64870000D01*
X38190000Y-38190000D02*
X39000000Y-37380000D01*
X38190000Y-54060000D02*
X36250000Y-56000000D01*
X36250000Y-48500000D02*
X37380000Y-48500000D01*
X38190000Y-76560000D02*
X36250000Y-78500000D01*
X38190000Y-31560000D02*
X36250000Y-33500000D01*
%TO.N,/GND3*%
X33500000Y-35120000D02*
X34310000Y-34310000D01*
X33500000Y-36250000D02*
X33500000Y-35120000D01*
X33500000Y-81250000D02*
X33500000Y-80120000D01*
X34310000Y-30690000D02*
X33500000Y-29880000D01*
X34310000Y-38190000D02*
X34310000Y-37810000D01*
X34310000Y-60690000D02*
X35120000Y-61500000D01*
X33500000Y-29880000D02*
X33500000Y-28750000D01*
X33500000Y-66250000D02*
X33500000Y-65120000D01*
X36250000Y-69000000D02*
X35120000Y-69000000D01*
X34310000Y-45690000D02*
X34310000Y-45060000D01*
X33500000Y-42620000D02*
X34310000Y-41810000D01*
X35120000Y-31500000D02*
X34310000Y-30690000D01*
X34310000Y-60690000D02*
X33500000Y-59880000D01*
X33500000Y-80120000D02*
X34310000Y-79310000D01*
X33500000Y-73750000D02*
X33500000Y-72620000D01*
X33500000Y-67380000D02*
X33500000Y-66250000D01*
X34310000Y-49310000D02*
X34310000Y-48440000D01*
X34310000Y-71810000D02*
X34310000Y-70940000D01*
X34310000Y-75690000D02*
X33500000Y-74880000D01*
X33500000Y-50120000D02*
X34310000Y-49310000D01*
X34310000Y-70940000D02*
X36250000Y-69000000D01*
X34310000Y-53190000D02*
X33500000Y-52380000D01*
X34310000Y-75690000D02*
X34570000Y-75950000D01*
X34310000Y-83190000D02*
X33500000Y-82380000D01*
X34310000Y-48440000D02*
X36250000Y-46500000D01*
X35120000Y-61500000D02*
X36250000Y-61500000D01*
X33500000Y-51250000D02*
X33500000Y-50120000D01*
X33500000Y-74880000D02*
X33500000Y-73750000D01*
X33500000Y-72620000D02*
X34310000Y-71810000D01*
X34310000Y-33440000D02*
X36250000Y-31500000D01*
X36250000Y-76500000D02*
X34310000Y-78440000D01*
X34310000Y-55940000D02*
X36250000Y-54000000D01*
X35120000Y-69000000D02*
X34310000Y-68190000D01*
X34310000Y-45060000D02*
X33500000Y-44250000D01*
X34310000Y-37810000D02*
X33500000Y-37000000D01*
X33500000Y-82380000D02*
X33500000Y-81250000D01*
X34310000Y-56810000D02*
X34310000Y-55940000D01*
X33500000Y-65120000D02*
X34310000Y-64310000D01*
X35500000Y-75950000D02*
X36050000Y-76500000D01*
X35120000Y-39000000D02*
X34310000Y-38190000D01*
X36250000Y-39000000D02*
X35120000Y-39000000D01*
X34310000Y-41810000D02*
X34310000Y-40940000D01*
X36050000Y-76500000D02*
X36250000Y-76500000D01*
X33500000Y-28750000D02*
X33500000Y-27620000D01*
X36250000Y-54000000D02*
X35120000Y-54000000D01*
X36250000Y-31500000D02*
X35120000Y-31500000D01*
X33500000Y-37000000D02*
X33500000Y-36250000D01*
X33500000Y-59880000D02*
X33500000Y-58750000D01*
X34310000Y-63440000D02*
X34310000Y-64310000D01*
X34000000Y-57120000D02*
X34310000Y-56810000D01*
X33500000Y-43750000D02*
X33500000Y-42620000D01*
X34310000Y-78440000D02*
X34310000Y-79310000D01*
X35120000Y-54000000D02*
X34310000Y-53190000D01*
X34310000Y-68190000D02*
X33500000Y-67380000D01*
X34570000Y-75950000D02*
X35500000Y-75950000D01*
X35120000Y-84000000D02*
X36250000Y-84000000D01*
X34310000Y-83190000D02*
X35120000Y-84000000D01*
X33500000Y-58750000D02*
X34000000Y-58250000D01*
X34000000Y-58250000D02*
X34000000Y-57120000D01*
X34310000Y-40940000D02*
X36250000Y-39000000D01*
X34310000Y-34310000D02*
X34310000Y-33440000D01*
X35120000Y-46500000D02*
X34310000Y-45690000D01*
X33500000Y-27620000D02*
X34310000Y-26810000D01*
X33500000Y-52380000D02*
X33500000Y-51250000D01*
X36250000Y-61500000D02*
X34310000Y-63440000D01*
X36250000Y-46500000D02*
X35120000Y-46500000D01*
X33500000Y-44250000D02*
X33500000Y-43750000D01*
%TO.N,/GND6*%
X53190000Y-46560000D02*
X51250000Y-48500000D01*
X54000000Y-28750000D02*
X54000000Y-27620000D01*
X54000000Y-81250000D02*
X54000000Y-80120000D01*
X53190000Y-60690000D02*
X54000000Y-59880000D01*
X53190000Y-26810000D02*
X52380000Y-26000000D01*
X52380000Y-41000000D02*
X53190000Y-41810000D01*
X54000000Y-44880000D02*
X54000000Y-43750000D01*
X52380000Y-56000000D02*
X53190000Y-56810000D01*
X53190000Y-75690000D02*
X54000000Y-74880000D01*
X51250000Y-48500000D02*
X52380000Y-48500000D01*
X54000000Y-57620000D02*
X53190000Y-56810000D01*
X54000000Y-73750000D02*
X54000000Y-72620000D01*
X53190000Y-53190000D02*
X53190000Y-54060000D01*
X53190000Y-69060000D02*
X53190000Y-68190000D01*
X52380000Y-78500000D02*
X51250000Y-78500000D01*
X53190000Y-68190000D02*
X54000000Y-67380000D01*
X52380000Y-48500000D02*
X53190000Y-49310000D01*
X52380000Y-26000000D02*
X51250000Y-26000000D01*
X54000000Y-42620000D02*
X53190000Y-41810000D01*
X54000000Y-36050000D02*
X54000000Y-36250000D01*
X52380000Y-63500000D02*
X51250000Y-63500000D01*
X53190000Y-64310000D02*
X52380000Y-63500000D01*
X52380000Y-33500000D02*
X53190000Y-34310000D01*
X53190000Y-61560000D02*
X53190000Y-60690000D01*
X53190000Y-30690000D02*
X53190000Y-31560000D01*
X54000000Y-52380000D02*
X54000000Y-51250000D01*
X53190000Y-76560000D02*
X53190000Y-75690000D01*
X54000000Y-37380000D02*
X54000000Y-36250000D01*
X54000000Y-27620000D02*
X53190000Y-26810000D01*
X54000000Y-51250000D02*
X54000000Y-50120000D01*
X54000000Y-50120000D02*
X53190000Y-49310000D01*
X54000000Y-72620000D02*
X53190000Y-71810000D01*
X53190000Y-53190000D02*
X54000000Y-52380000D01*
X53190000Y-38190000D02*
X54000000Y-37380000D01*
X51250000Y-71000000D02*
X53190000Y-69060000D01*
X54000000Y-29880000D02*
X54000000Y-28750000D01*
X54000000Y-80120000D02*
X53190000Y-79310000D01*
X54000000Y-67380000D02*
X54000000Y-66250000D01*
X51250000Y-56000000D02*
X52380000Y-56000000D01*
X54000000Y-59880000D02*
X54000000Y-58750000D01*
X53190000Y-45690000D02*
X54000000Y-44880000D01*
X53190000Y-31560000D02*
X51250000Y-33500000D01*
X54000000Y-65120000D02*
X53190000Y-64310000D01*
X53190000Y-39060000D02*
X51250000Y-41000000D01*
X53190000Y-38190000D02*
X53190000Y-39060000D01*
X53190000Y-45690000D02*
X53190000Y-46560000D01*
X53500001Y-82879999D02*
X53500001Y-81749999D01*
X53450000Y-34570000D02*
X53450000Y-35500000D01*
X51250000Y-78500000D02*
X53190000Y-76560000D01*
X53500001Y-81749999D02*
X54000000Y-81250000D01*
X54000000Y-58750000D02*
X54000000Y-57620000D01*
X53190000Y-83190000D02*
X53500001Y-82879999D01*
X53450000Y-35500000D02*
X54000000Y-36050000D01*
X53190000Y-71810000D02*
X52380000Y-71000000D01*
X51250000Y-63500000D02*
X53190000Y-61560000D01*
X53190000Y-79310000D02*
X52380000Y-78500000D01*
X53190000Y-30690000D02*
X54000000Y-29880000D01*
X51250000Y-41000000D02*
X52380000Y-41000000D01*
X54000000Y-66250000D02*
X54000000Y-65120000D01*
X54000000Y-74880000D02*
X54000000Y-73750000D01*
X51250000Y-33500000D02*
X52380000Y-33500000D01*
X53190000Y-34310000D02*
X53450000Y-34570000D01*
X53190000Y-54060000D02*
X51250000Y-56000000D01*
X54000000Y-43750000D02*
X54000000Y-42620000D01*
X52380000Y-71000000D02*
X51250000Y-71000000D01*
%TO.N,/GND7*%
X49310000Y-41810000D02*
X49310000Y-40940000D01*
X50120000Y-76500000D02*
X51250000Y-76500000D01*
X49310000Y-70940000D02*
X49310000Y-71810000D01*
X51250000Y-61500000D02*
X49310000Y-63440000D01*
X49310000Y-75690000D02*
X50120000Y-76500000D01*
X48750000Y-64870000D02*
X49310000Y-64310000D01*
X49310000Y-68190000D02*
X48500000Y-67380000D01*
X49310000Y-55940000D02*
X51250000Y-54000000D01*
X49310000Y-60690000D02*
X50120000Y-61500000D01*
X50120000Y-31500000D02*
X49310000Y-30690000D01*
X48500000Y-44880000D02*
X48500000Y-43750000D01*
X48500000Y-51250000D02*
X48500000Y-50120000D01*
X48750000Y-72370000D02*
X49310000Y-71810000D01*
X48500000Y-74880000D02*
X48500000Y-73750000D01*
X48500000Y-50120000D02*
X49310000Y-49310000D01*
X50120000Y-84000000D02*
X51250000Y-84000000D01*
X48500000Y-36250000D02*
X48500000Y-37380000D01*
X50120000Y-54000000D02*
X49310000Y-53190000D01*
X48500000Y-67380000D02*
X48500000Y-66250000D01*
X48500000Y-81250000D02*
X48500000Y-80120000D01*
X49310000Y-34310000D02*
X48500000Y-35120000D01*
X50120000Y-46500000D02*
X49310000Y-45690000D01*
X49310000Y-53190000D02*
X48500000Y-52380000D01*
X50120000Y-69000000D02*
X51250000Y-69000000D01*
X51250000Y-31500000D02*
X50120000Y-31500000D01*
X48500000Y-59880000D02*
X48500000Y-58750000D01*
X49310000Y-60690000D02*
X48500000Y-59880000D01*
X49310000Y-34310000D02*
X49310000Y-33440000D01*
X49310000Y-83190000D02*
X50120000Y-84000000D01*
X48500000Y-42620000D02*
X48500000Y-43750000D01*
X48500000Y-52380000D02*
X48500000Y-51250000D01*
X49310000Y-78440000D02*
X49310000Y-79310000D01*
X49310000Y-49310000D02*
X49310000Y-48440000D01*
X49310000Y-40940000D02*
X51250000Y-39000000D01*
X51250000Y-39000000D02*
X50120000Y-39000000D01*
X48500000Y-57620000D02*
X49310000Y-56810000D01*
X49310000Y-68190000D02*
X50120000Y-69000000D01*
X49310000Y-75690000D02*
X48500000Y-74880000D01*
X48750000Y-66000000D02*
X48750000Y-64870000D01*
X50120000Y-61500000D02*
X51250000Y-61500000D01*
X48500000Y-73750000D02*
X48750000Y-73500000D01*
X48500000Y-58750000D02*
X48500000Y-57620000D01*
X48500000Y-35120000D02*
X48500000Y-36250000D01*
X51250000Y-69000000D02*
X49310000Y-70940000D01*
X48750000Y-73500000D02*
X48750000Y-72370000D01*
X49310000Y-41810000D02*
X48500000Y-42620000D01*
X50120000Y-39000000D02*
X49310000Y-38190000D01*
X48500000Y-81250000D02*
X48500000Y-82380000D01*
X49310000Y-45690000D02*
X48500000Y-44880000D01*
X48500000Y-29880000D02*
X49310000Y-30690000D01*
X51250000Y-54000000D02*
X50120000Y-54000000D01*
X49310000Y-26810000D02*
X48500000Y-27620000D01*
X51250000Y-76500000D02*
X49310000Y-78440000D01*
X48500000Y-27620000D02*
X48500000Y-28750000D01*
X51250000Y-46500000D02*
X50120000Y-46500000D01*
X48500000Y-66250000D02*
X48750000Y-66000000D01*
X48500000Y-82380000D02*
X49310000Y-83190000D01*
X48500000Y-80120000D02*
X49310000Y-79310000D01*
X48500000Y-37380000D02*
X49310000Y-38190000D01*
X49310000Y-33440000D02*
X51250000Y-31500000D01*
X49310000Y-63440000D02*
X49310000Y-64310000D01*
X48500000Y-28750000D02*
X48500000Y-29880000D01*
X49310000Y-56810000D02*
X49310000Y-55940000D01*
X49310000Y-48440000D02*
X51250000Y-46500000D01*
%TO.N,/GND8*%
X60690000Y-39060000D02*
X58750000Y-41000000D01*
X60690000Y-68190000D02*
X60690000Y-67610000D01*
X61500000Y-29880000D02*
X60690000Y-30690000D01*
X58750000Y-48500000D02*
X59880000Y-48500000D01*
X60690000Y-54060000D02*
X58750000Y-56000000D01*
X58750000Y-78500000D02*
X59880000Y-78500000D01*
X59880000Y-48500000D02*
X60690000Y-49310000D01*
X61500000Y-28750000D02*
X61500000Y-29880000D01*
X60690000Y-41810000D02*
X61500000Y-42620000D01*
X60690000Y-53190000D02*
X61500000Y-52380000D01*
X59880000Y-63500000D02*
X60690000Y-64310000D01*
X60690000Y-34310000D02*
X61500000Y-35120000D01*
X59880000Y-56000000D02*
X60690000Y-56810000D01*
X61500000Y-74880000D02*
X61500000Y-73750000D01*
X61500000Y-59200000D02*
X60690000Y-60010000D01*
X60690000Y-76560000D02*
X58750000Y-78500000D01*
X58750000Y-71000000D02*
X59880000Y-71000000D01*
X60690000Y-67610000D02*
X61500000Y-66800000D01*
X60690000Y-26810000D02*
X61500000Y-27620000D01*
X60690000Y-60690000D02*
X60690000Y-61560000D01*
X60690000Y-69060000D02*
X58750000Y-71000000D01*
X61500000Y-82380000D02*
X61500000Y-81250000D01*
X61500000Y-73750000D02*
X61500000Y-72620000D01*
X61500000Y-58750000D02*
X61500000Y-59200000D01*
X61500000Y-57620000D02*
X61500000Y-58750000D01*
X61500000Y-44880000D02*
X60690000Y-45690000D01*
X61500000Y-65120000D02*
X61500000Y-66250000D01*
X61500000Y-66800000D02*
X61500000Y-66250000D01*
X61500000Y-27620000D02*
X61500000Y-28750000D01*
X58750000Y-56000000D02*
X59880000Y-56000000D01*
X59880000Y-26000000D02*
X58750000Y-26000000D01*
X58750000Y-33500000D02*
X59880000Y-33500000D01*
X58750000Y-41000000D02*
X59880000Y-41000000D01*
X61500000Y-42620000D02*
X61500000Y-43750000D01*
X60690000Y-64310000D02*
X61500000Y-65120000D01*
X60690000Y-83190000D02*
X61500000Y-82380000D01*
X61500000Y-51250000D02*
X61500000Y-50120000D01*
X61500000Y-72620000D02*
X60690000Y-71810000D01*
X61500000Y-43750000D02*
X61500000Y-44880000D01*
X61500000Y-52380000D02*
X61500000Y-51250000D01*
X60690000Y-26810000D02*
X59880000Y-26000000D01*
X59880000Y-78500000D02*
X60690000Y-79310000D01*
X58750000Y-63500000D02*
X59880000Y-63500000D01*
X60690000Y-68190000D02*
X60690000Y-69060000D01*
X61500000Y-50120000D02*
X60690000Y-49310000D01*
X60690000Y-75690000D02*
X60690000Y-76560000D01*
X60690000Y-60010000D02*
X60690000Y-60690000D01*
X61500000Y-81250000D02*
X61500000Y-80120000D01*
X60690000Y-56810000D02*
X61500000Y-57620000D01*
X60690000Y-46560000D02*
X58750000Y-48500000D01*
X60690000Y-45690000D02*
X60690000Y-46560000D01*
X61500000Y-80120000D02*
X60690000Y-79310000D01*
X60690000Y-53190000D02*
X60690000Y-54060000D01*
X59880000Y-41000000D02*
X60690000Y-41810000D01*
X60690000Y-38190000D02*
X60690000Y-39060000D01*
X61500000Y-35120000D02*
X61500000Y-36250000D01*
X59880000Y-71000000D02*
X60690000Y-71810000D01*
X60690000Y-30690000D02*
X60690000Y-31560000D01*
X61500000Y-37380000D02*
X60690000Y-38190000D01*
X60690000Y-31560000D02*
X58750000Y-33500000D01*
X59880000Y-33500000D02*
X60690000Y-34310000D01*
X60690000Y-61560000D02*
X58750000Y-63500000D01*
X61500000Y-36250000D02*
X61500000Y-37380000D01*
X60690000Y-75690000D02*
X61500000Y-74880000D01*
%TO.N,/GND12*%
X74880000Y-33500000D02*
X75690000Y-34310000D01*
X73750000Y-63500000D02*
X74880000Y-63500000D01*
X75690000Y-30690000D02*
X76500000Y-29880000D01*
X76500000Y-72620000D02*
X75690000Y-71810000D01*
X76500000Y-59880000D02*
X76500000Y-58750000D01*
X74880000Y-63500000D02*
X75690000Y-64310000D01*
X76500000Y-29880000D02*
X76500000Y-28750000D01*
X76150000Y-43400000D02*
X76150000Y-42270000D01*
X76500000Y-36250000D02*
X76500000Y-35120000D01*
X74880000Y-48500000D02*
X75690000Y-49310000D01*
X75690000Y-60690000D02*
X76500000Y-59880000D01*
X74880000Y-26000000D02*
X73750000Y-26000000D01*
X75690000Y-53190000D02*
X75690000Y-52810000D01*
X76500000Y-58750000D02*
X76500000Y-57620000D01*
X76500000Y-74880000D02*
X76500000Y-73750000D01*
X76150000Y-42270000D02*
X75690000Y-41810000D01*
X75690000Y-71810000D02*
X74880000Y-71000000D01*
X75690000Y-38190000D02*
X75690000Y-39060000D01*
X75690000Y-54060000D02*
X73750000Y-56000000D01*
X75690000Y-76560000D02*
X75690000Y-75690000D01*
X73750000Y-33500000D02*
X74880000Y-33500000D01*
X76500000Y-67380000D02*
X76500000Y-66250000D01*
X76500000Y-82380000D02*
X76500000Y-81250000D01*
X76250000Y-49870000D02*
X75690000Y-49310000D01*
X76500000Y-52000000D02*
X76500000Y-51250000D01*
X74880000Y-71000000D02*
X73750000Y-71000000D01*
X75690000Y-68190000D02*
X75690000Y-69060000D01*
X76500000Y-66250000D02*
X76500000Y-65120000D01*
X76500000Y-65120000D02*
X75690000Y-64310000D01*
X75690000Y-39060000D02*
X73750000Y-41000000D01*
X76500000Y-37380000D02*
X76500000Y-36250000D01*
X73750000Y-48500000D02*
X74880000Y-48500000D01*
X75690000Y-53190000D02*
X75690000Y-54060000D01*
X74880000Y-41000000D02*
X75690000Y-41810000D01*
X76500000Y-35120000D02*
X75690000Y-34310000D01*
X76500000Y-44880000D02*
X76500000Y-43750000D01*
X76500000Y-73750000D02*
X76500000Y-72620000D01*
X75690000Y-60690000D02*
X75690000Y-61560000D01*
X74880000Y-78500000D02*
X73750000Y-78500000D01*
X73750000Y-56000000D02*
X74880000Y-56000000D01*
X75690000Y-68190000D02*
X76500000Y-67380000D01*
X75690000Y-45690000D02*
X75690000Y-46560000D01*
X75690000Y-31560000D02*
X73750000Y-33500000D01*
X76500000Y-51250000D02*
X76250000Y-51000000D01*
X75690000Y-52810000D02*
X76500000Y-52000000D01*
X75690000Y-83190000D02*
X76500000Y-82380000D01*
X75690000Y-46560000D02*
X73750000Y-48500000D01*
X74880000Y-56000000D02*
X75690000Y-56810000D01*
X75690000Y-45690000D02*
X76500000Y-44880000D01*
X75690000Y-26810000D02*
X74880000Y-26000000D01*
X75690000Y-61560000D02*
X73750000Y-63500000D01*
X75690000Y-69060000D02*
X73750000Y-71000000D01*
X76500000Y-27620000D02*
X75690000Y-26810000D01*
X76500000Y-43750000D02*
X76150000Y-43400000D01*
X76250000Y-51000000D02*
X76250000Y-49870000D01*
X75690000Y-38190000D02*
X76500000Y-37380000D01*
X75690000Y-30690000D02*
X75690000Y-31560000D01*
X75690000Y-79310000D02*
X74880000Y-78500000D01*
X73750000Y-78500000D02*
X75690000Y-76560000D01*
X76500000Y-81250000D02*
X76500000Y-80120000D01*
X76500000Y-57620000D02*
X75690000Y-56810000D01*
X76500000Y-28750000D02*
X76500000Y-27620000D01*
X73750000Y-41000000D02*
X74880000Y-41000000D01*
X76500000Y-80120000D02*
X75690000Y-79310000D01*
X75690000Y-75690000D02*
X76500000Y-74880000D01*
%TO.N,/GND13*%
X73750000Y-31500000D02*
X72620000Y-31500000D01*
X71000000Y-35120000D02*
X71000000Y-36250000D01*
X71000000Y-73750000D02*
X71000000Y-72620000D01*
X71810000Y-49310000D02*
X71810000Y-48440000D01*
X71810000Y-26810000D02*
X71000000Y-27620000D01*
X73750000Y-76500000D02*
X72620000Y-76500000D01*
X71000000Y-67380000D02*
X71000000Y-66250000D01*
X73750000Y-46500000D02*
X72620000Y-46500000D01*
X71810000Y-40940000D02*
X73750000Y-39000000D01*
X71350000Y-49770000D02*
X71810000Y-49310000D01*
X71000000Y-82380000D02*
X71000000Y-81250000D01*
X71810000Y-48440000D02*
X73750000Y-46500000D01*
X73750000Y-61500000D02*
X72620000Y-61500000D01*
X71810000Y-78440000D02*
X73750000Y-76500000D01*
X72620000Y-39000000D02*
X71810000Y-38190000D01*
X72620000Y-69000000D02*
X71810000Y-68190000D01*
X71000000Y-58750000D02*
X71000000Y-57620000D01*
X71810000Y-60690000D02*
X71810000Y-60110000D01*
X71810000Y-71810000D02*
X71810000Y-70940000D01*
X71000000Y-37380000D02*
X71810000Y-38190000D01*
X73750000Y-39000000D02*
X72620000Y-39000000D01*
X73750000Y-69000000D02*
X72620000Y-69000000D01*
X71000000Y-51250000D02*
X71350000Y-50900000D01*
X72620000Y-46500000D02*
X71810000Y-45690000D01*
X71810000Y-60110000D02*
X71000000Y-59300000D01*
X71000000Y-27620000D02*
X71000000Y-28750000D01*
X71810000Y-45690000D02*
X71000000Y-44880000D01*
X71000000Y-57620000D02*
X71810000Y-56810000D01*
X72620000Y-31500000D02*
X71810000Y-30690000D01*
X72620000Y-61500000D02*
X71810000Y-60690000D01*
X71810000Y-33440000D02*
X73750000Y-31500000D01*
X71000000Y-72620000D02*
X71810000Y-71810000D01*
X71000000Y-74880000D02*
X71000000Y-73750000D01*
X71810000Y-79310000D02*
X71810000Y-78440000D01*
X71810000Y-55940000D02*
X73750000Y-54000000D01*
X71000000Y-59300000D02*
X71000000Y-58750000D01*
X71810000Y-34310000D02*
X71000000Y-35120000D01*
X71810000Y-56810000D02*
X71810000Y-55940000D01*
X71000000Y-29880000D02*
X71810000Y-30690000D01*
X71810000Y-34310000D02*
X71810000Y-33440000D01*
X71000000Y-43750000D02*
X71000000Y-42620000D01*
X71000000Y-81250000D02*
X71000000Y-80120000D01*
X71000000Y-51900000D02*
X71000000Y-51250000D01*
X71810000Y-83190000D02*
X71000000Y-82380000D01*
X71810000Y-53190000D02*
X71810000Y-52710000D01*
X72620000Y-84000000D02*
X73750000Y-84000000D01*
X71000000Y-80120000D02*
X71810000Y-79310000D01*
X71000000Y-36250000D02*
X71000000Y-37380000D01*
X73750000Y-54000000D02*
X72620000Y-54000000D01*
X71810000Y-68190000D02*
X71000000Y-67380000D01*
X71810000Y-63440000D02*
X73750000Y-61500000D01*
X72620000Y-76500000D02*
X71810000Y-75690000D01*
X71000000Y-66250000D02*
X71000000Y-65120000D01*
X71350000Y-50900000D02*
X71350000Y-49770000D01*
X71810000Y-75690000D02*
X71000000Y-74880000D01*
X71810000Y-41810000D02*
X71810000Y-40940000D01*
X72620000Y-54000000D02*
X71810000Y-53190000D01*
X71810000Y-64310000D02*
X71810000Y-63440000D01*
X71810000Y-52710000D02*
X71000000Y-51900000D01*
X71000000Y-28750000D02*
X71000000Y-29880000D01*
X71810000Y-70940000D02*
X73750000Y-69000000D01*
X71000000Y-65120000D02*
X71810000Y-64310000D01*
X71000000Y-42620000D02*
X71810000Y-41810000D01*
X71810000Y-83190000D02*
X72620000Y-84000000D01*
X71000000Y-44880000D02*
X71000000Y-43750000D01*
%TO.N,/GND14*%
X82690001Y-62059999D02*
X81250000Y-63500000D01*
X82690001Y-54559999D02*
X81250000Y-56000000D01*
X81250000Y-41000000D02*
X82380000Y-41000000D01*
X81250000Y-71000000D02*
X82380000Y-71000000D01*
X84000000Y-82380000D02*
X83190000Y-83190000D01*
X82690001Y-46189999D02*
X82690001Y-47059999D01*
X84000000Y-80120000D02*
X84000000Y-81250000D01*
X82690001Y-68689999D02*
X82690001Y-69559999D01*
X84000000Y-35120000D02*
X83190000Y-34310000D01*
X82690001Y-61189999D02*
X82690001Y-62059999D01*
X81250000Y-33500000D02*
X82380000Y-33500000D01*
X82380000Y-48500000D02*
X83190000Y-49310000D01*
X84000000Y-59880000D02*
X84000000Y-58750000D01*
X84000000Y-72620000D02*
X84000000Y-73750000D01*
X81250000Y-48500000D02*
X82380000Y-48500000D01*
X83190000Y-64310000D02*
X84000000Y-65120000D01*
X84000000Y-28750000D02*
X84000000Y-27620000D01*
X83190000Y-53190000D02*
X84000000Y-52380000D01*
X82690001Y-47059999D02*
X81250000Y-48500000D01*
X84000000Y-29880000D02*
X84000000Y-28750000D01*
X82380000Y-26000000D02*
X81250000Y-26000000D01*
X83190000Y-26810000D02*
X82380000Y-26000000D01*
X84000000Y-65120000D02*
X84000000Y-66250000D01*
X84000000Y-36250000D02*
X84000000Y-35120000D01*
X81250000Y-78500000D02*
X82380000Y-78500000D01*
X84000000Y-44880000D02*
X84000000Y-43750000D01*
X83190000Y-79310000D02*
X84000000Y-80120000D01*
X84000000Y-42620000D02*
X83190000Y-41810000D01*
X83190000Y-30690000D02*
X83190000Y-31560000D01*
X84000000Y-73750000D02*
X84000000Y-74880000D01*
X81250000Y-63500000D02*
X82380000Y-63500000D01*
X81250000Y-56000000D02*
X82380000Y-56000000D01*
X84000000Y-81250000D02*
X84000000Y-82380000D01*
X83190000Y-68190000D02*
X82690001Y-68689999D01*
X83190000Y-38190000D02*
X84000000Y-37380000D01*
X83190000Y-45690000D02*
X84000000Y-44880000D01*
X84000000Y-74880000D02*
X83190000Y-75690000D01*
X82380000Y-41000000D02*
X83190000Y-41810000D01*
X84000000Y-57620000D02*
X83190000Y-56810000D01*
X82380000Y-71000000D02*
X83190000Y-71810000D01*
X82690001Y-53689999D02*
X82690001Y-54559999D01*
X83190000Y-45690000D02*
X82690001Y-46189999D01*
X83190000Y-30690000D02*
X84000000Y-29880000D01*
X82690001Y-69559999D02*
X81250000Y-71000000D01*
X84000000Y-27620000D02*
X83190000Y-26810000D01*
X83190000Y-31560000D02*
X81250000Y-33500000D01*
X84000000Y-58750000D02*
X84000000Y-57620000D01*
X84000000Y-50120000D02*
X83190000Y-49310000D01*
X83190000Y-60690000D02*
X82690001Y-61189999D01*
X82380000Y-63500000D02*
X83190000Y-64310000D01*
X83190000Y-75690000D02*
X83190000Y-76560000D01*
X82380000Y-33500000D02*
X83190000Y-34310000D01*
X82380000Y-78500000D02*
X83190000Y-79310000D01*
X84000000Y-37380000D02*
X84000000Y-36250000D01*
X83190000Y-53190000D02*
X82690001Y-53689999D01*
X83190000Y-38190000D02*
X83190000Y-39060000D01*
X84000000Y-43750000D02*
X84000000Y-42620000D01*
X84000000Y-67380000D02*
X83190000Y-68190000D01*
X83190000Y-60690000D02*
X84000000Y-59880000D01*
X83190000Y-39060000D02*
X81250000Y-41000000D01*
X83190000Y-71810000D02*
X84000000Y-72620000D01*
X84000000Y-51250000D02*
X84000000Y-50120000D01*
X84000000Y-66250000D02*
X84000000Y-67380000D01*
X82380000Y-56000000D02*
X83190000Y-56810000D01*
X83190000Y-76560000D02*
X81250000Y-78500000D01*
X84000000Y-52380000D02*
X84000000Y-51250000D01*
%TO.N,/GND15*%
X79750000Y-78870000D02*
X79750000Y-78000000D01*
X78750000Y-52630000D02*
X79310000Y-53190000D01*
X80120000Y-69000000D02*
X79310000Y-68190000D01*
X79310000Y-49760000D02*
X78500000Y-50570000D01*
X78500000Y-67380000D02*
X79310000Y-68190000D01*
X81250000Y-31500000D02*
X80120000Y-31500000D01*
X80120000Y-46500000D02*
X79310000Y-45690000D01*
X79310000Y-83190000D02*
X80120000Y-84000000D01*
X79310000Y-56810000D02*
X79310000Y-55940000D01*
X79310000Y-41810000D02*
X79310000Y-42160000D01*
X79310000Y-79310000D02*
X78500000Y-80120000D01*
X81250000Y-54000000D02*
X80120000Y-54000000D01*
X78500000Y-58750000D02*
X78500000Y-59880000D01*
X78500000Y-66250000D02*
X78500000Y-67380000D01*
X81250000Y-39000000D02*
X80120000Y-39000000D01*
X78500000Y-36250000D02*
X78500000Y-37380000D01*
X78500000Y-44880000D02*
X79310000Y-45690000D01*
X79310000Y-26810000D02*
X78500000Y-27620000D01*
X78500000Y-73750000D02*
X78500000Y-74880000D01*
X81250000Y-69000000D02*
X80120000Y-69000000D01*
X80120000Y-76500000D02*
X79310000Y-75690000D01*
X79310000Y-41810000D02*
X79310000Y-40940000D01*
X78500000Y-51250000D02*
X78750000Y-51500000D01*
X79310000Y-34310000D02*
X79310000Y-33440000D01*
X79310000Y-49310000D02*
X79310000Y-49760000D01*
X78500000Y-29880000D02*
X79310000Y-30690000D01*
X78500000Y-50570000D02*
X78500000Y-51250000D01*
X81250000Y-76500000D02*
X80120000Y-76500000D01*
X78500000Y-57620000D02*
X78500000Y-58750000D01*
X79310000Y-64310000D02*
X78500000Y-65120000D01*
X79310000Y-33440000D02*
X81250000Y-31500000D01*
X79310000Y-48440000D02*
X81250000Y-46500000D01*
X79310000Y-71810000D02*
X78500000Y-72620000D01*
X78500000Y-43750000D02*
X78500000Y-44880000D01*
X80120000Y-31500000D02*
X79310000Y-30690000D01*
X78500000Y-27620000D02*
X78500000Y-28750000D01*
X78500000Y-28750000D02*
X78500000Y-29880000D01*
X78500000Y-80120000D02*
X78500000Y-81250000D01*
X78500000Y-59880000D02*
X79310000Y-60690000D01*
X81250000Y-61500000D02*
X80120000Y-61500000D01*
X79310000Y-56810000D02*
X78500000Y-57620000D01*
X78500000Y-81250000D02*
X78500000Y-82380000D01*
X81250000Y-46500000D02*
X80120000Y-46500000D01*
X80120000Y-54000000D02*
X79310000Y-53190000D01*
X80120000Y-39000000D02*
X79310000Y-38190000D01*
X79310000Y-71810000D02*
X79310000Y-70940000D01*
X79750000Y-78000000D02*
X81250000Y-76500000D01*
X79310000Y-79310000D02*
X79750000Y-78870000D01*
X80120000Y-61500000D02*
X79310000Y-60690000D01*
X79310000Y-34310000D02*
X78500000Y-35120000D01*
X78500000Y-37380000D02*
X79310000Y-38190000D01*
X78500000Y-72620000D02*
X78500000Y-73750000D01*
X79310000Y-55940000D02*
X81250000Y-54000000D01*
X79310000Y-49310000D02*
X79310000Y-48440000D01*
X78750000Y-51500000D02*
X78750000Y-52630000D01*
X79310000Y-40940000D02*
X81250000Y-39000000D01*
X78500000Y-65120000D02*
X78500000Y-66250000D01*
X79310000Y-42160000D02*
X78500000Y-42970000D01*
X78500000Y-74880000D02*
X79310000Y-75690000D01*
X79310000Y-64310000D02*
X79310000Y-63440000D01*
X80120000Y-84000000D02*
X81250000Y-84000000D01*
X78500000Y-35120000D02*
X78500000Y-36250000D01*
X78500000Y-82380000D02*
X79310000Y-83190000D01*
X79310000Y-63440000D02*
X81250000Y-61500000D01*
X78500000Y-42970000D02*
X78500000Y-43750000D01*
X79310000Y-70940000D02*
X81250000Y-69000000D01*
%TO.N,/GND0*%
X31300000Y-37580000D02*
X30690000Y-38190000D01*
X30690000Y-60690000D02*
X30690000Y-61560000D01*
X31000000Y-44250000D02*
X31000000Y-45380000D01*
X31500000Y-28750000D02*
X31500000Y-27620000D01*
X31500000Y-59880000D02*
X30690000Y-60690000D01*
X31500000Y-72620000D02*
X30690000Y-71810000D01*
X30690000Y-68190000D02*
X30690000Y-69060000D01*
X29880000Y-26000000D02*
X28750000Y-26000000D01*
X30690000Y-26810000D02*
X29880000Y-26000000D01*
X31500000Y-58750000D02*
X31050000Y-58300000D01*
X31500000Y-73750000D02*
X31500000Y-72620000D01*
X28750000Y-63500000D02*
X29880000Y-63500000D01*
X29880000Y-56000000D02*
X30690000Y-56810000D01*
X31500000Y-80120000D02*
X31500000Y-81250000D01*
X31500000Y-50120000D02*
X30690000Y-49310000D01*
X31500000Y-35120000D02*
X30690000Y-34310000D01*
X31500000Y-74880000D02*
X30690000Y-75690000D01*
X30690000Y-79310000D02*
X31500000Y-80120000D01*
X29880000Y-78500000D02*
X30690000Y-79310000D01*
X28750000Y-78500000D02*
X29880000Y-78500000D01*
X28750000Y-33500000D02*
X29880000Y-33500000D01*
X30690000Y-69060000D02*
X28750000Y-71000000D01*
X31500000Y-65120000D02*
X30690000Y-64310000D01*
X29880000Y-48500000D02*
X30690000Y-49310000D01*
X31500000Y-81250000D02*
X31500000Y-82380000D01*
X28750000Y-33500000D02*
X30690000Y-31560000D01*
X31500000Y-66250000D02*
X31500000Y-67380000D01*
X31500000Y-73750000D02*
X31500000Y-74880000D01*
X28750000Y-56000000D02*
X29880000Y-56000000D01*
X31500000Y-66250000D02*
X31500000Y-65120000D01*
X31500000Y-52380000D02*
X30690000Y-53190000D01*
X28750000Y-71000000D02*
X29880000Y-71000000D01*
X31500000Y-82380000D02*
X30690000Y-83190000D01*
X31000000Y-45380000D02*
X30690000Y-45690000D01*
X30690000Y-76560000D02*
X28750000Y-78500000D01*
X31500000Y-67380000D02*
X30690000Y-68190000D01*
X28750000Y-48500000D02*
X29880000Y-48500000D01*
X29880000Y-63500000D02*
X30690000Y-64310000D01*
X31500000Y-27620000D02*
X30690000Y-26810000D01*
X30690000Y-53190000D02*
X30690000Y-54060000D01*
X31300000Y-36450000D02*
X31300000Y-37580000D01*
X31050000Y-58300000D02*
X31050000Y-57170000D01*
X28750000Y-41000000D02*
X29880000Y-41000000D01*
X30690000Y-45690000D02*
X30690000Y-46560000D01*
X31500000Y-51250000D02*
X31500000Y-52380000D01*
X31500000Y-36250000D02*
X31500000Y-35120000D01*
X30690000Y-75690000D02*
X30690000Y-76560000D01*
X31500000Y-42620000D02*
X30690000Y-41810000D01*
X30690000Y-39060000D02*
X28750000Y-41000000D01*
X31500000Y-28750000D02*
X31500000Y-29880000D01*
X31500000Y-51250000D02*
X31500000Y-50120000D01*
X31500000Y-43750000D02*
X31500000Y-42620000D01*
X31500000Y-43750000D02*
X31000000Y-44250000D01*
X30690000Y-61560000D02*
X28750000Y-63500000D01*
X29880000Y-71000000D02*
X30690000Y-71810000D01*
X30690000Y-54060000D02*
X28750000Y-56000000D01*
X29880000Y-33500000D02*
X30690000Y-34310000D01*
X30690000Y-38190000D02*
X30690000Y-39060000D01*
X31050000Y-57170000D02*
X30690000Y-56810000D01*
X30690000Y-31560000D02*
X30690000Y-30690000D01*
X30690000Y-46560000D02*
X28750000Y-48500000D01*
X31500000Y-58750000D02*
X31500000Y-59880000D01*
X29880000Y-41000000D02*
X30690000Y-41810000D01*
X31500000Y-36250000D02*
X31300000Y-36450000D01*
X31500000Y-29880000D02*
X30690000Y-30690000D01*
%TO.N,/GND4*%
X44880000Y-71000000D02*
X43750000Y-71000000D01*
X45690000Y-30690000D02*
X45690000Y-31560000D01*
X46500000Y-44880000D02*
X46500000Y-43750000D01*
X45690000Y-39060000D02*
X43750000Y-41000000D01*
X44880000Y-78500000D02*
X43750000Y-78500000D01*
X44880000Y-26000000D02*
X43750000Y-26000000D01*
X46500000Y-66250000D02*
X46050000Y-65800000D01*
X45690000Y-76560000D02*
X45690000Y-75690000D01*
X45690000Y-38190000D02*
X45690000Y-39060000D01*
X46500000Y-58750000D02*
X46500000Y-57620000D01*
X45690000Y-60690000D02*
X46500000Y-59880000D01*
X44880000Y-56000000D02*
X45690000Y-56810000D01*
X44880000Y-48500000D02*
X45690000Y-49310000D01*
X46500000Y-50120000D02*
X45690000Y-49310000D01*
X45690000Y-61560000D02*
X45690000Y-60690000D01*
X44880000Y-63500000D02*
X43750000Y-63500000D01*
X46500000Y-74880000D02*
X45690000Y-75690000D01*
X43750000Y-71000000D02*
X45690000Y-69060000D01*
X46500000Y-82380000D02*
X46500000Y-81250000D01*
X46500000Y-57620000D02*
X45690000Y-56810000D01*
X43750000Y-48500000D02*
X44880000Y-48500000D01*
X45690000Y-83190000D02*
X46500000Y-82380000D01*
X44880000Y-41000000D02*
X45690000Y-41810000D01*
X43750000Y-56000000D02*
X44880000Y-56000000D01*
X45690000Y-31560000D02*
X43750000Y-33500000D01*
X45690000Y-64310000D02*
X44880000Y-63500000D01*
X45690000Y-53190000D02*
X46500000Y-52380000D01*
X46500000Y-59880000D02*
X46500000Y-58750000D01*
X46050000Y-64670000D02*
X45690000Y-64310000D01*
X45690000Y-38190000D02*
X46500000Y-37380000D01*
X45690000Y-46560000D02*
X43750000Y-48500000D01*
X46500000Y-28750000D02*
X46500000Y-27620000D01*
X43750000Y-41000000D02*
X44880000Y-41000000D01*
X45690000Y-69060000D02*
X45690000Y-68190000D01*
X46500000Y-73750000D02*
X46500000Y-74880000D01*
X44880000Y-33500000D02*
X45690000Y-34310000D01*
X46500000Y-81250000D02*
X46500000Y-80120000D01*
X46500000Y-43750000D02*
X46500000Y-42620000D01*
X46500000Y-52380000D02*
X46500000Y-51250000D01*
X45690000Y-45690000D02*
X46500000Y-44880000D01*
X45690000Y-53190000D02*
X45690000Y-54060000D01*
X46500000Y-37380000D02*
X46500000Y-36250000D01*
X46250000Y-73500000D02*
X46500000Y-73750000D01*
X45690000Y-45690000D02*
X45690000Y-46560000D01*
X45690000Y-68190000D02*
X46500000Y-67380000D01*
X46500000Y-51250000D02*
X46500000Y-50120000D01*
X45690000Y-54060000D02*
X43750000Y-56000000D01*
X45690000Y-71810000D02*
X44880000Y-71000000D01*
X46500000Y-42620000D02*
X45690000Y-41810000D01*
X45690000Y-30690000D02*
X46500000Y-29880000D01*
X43750000Y-78500000D02*
X45690000Y-76560000D01*
X46500000Y-29880000D02*
X46500000Y-28750000D01*
X45690000Y-71810000D02*
X46250000Y-72370000D01*
X46500000Y-80120000D02*
X45690000Y-79310000D01*
X45690000Y-26810000D02*
X44880000Y-26000000D01*
X46500000Y-67380000D02*
X46500000Y-66250000D01*
X43750000Y-63500000D02*
X45690000Y-61560000D01*
X43750000Y-33500000D02*
X44880000Y-33500000D01*
X46250000Y-72370000D02*
X46250000Y-73500000D01*
X45690000Y-79310000D02*
X44880000Y-78500000D01*
X46500000Y-35120000D02*
X45690000Y-34310000D01*
X46050000Y-65800000D02*
X46050000Y-64670000D01*
X46500000Y-27620000D02*
X45690000Y-26810000D01*
X46500000Y-36250000D02*
X46500000Y-35120000D01*
%TO.N,/GND9*%
X57620000Y-61500000D02*
X56810000Y-60690000D01*
X57620000Y-31500000D02*
X56810000Y-30690000D01*
X56000000Y-52380000D02*
X56810000Y-53190000D01*
X56810000Y-40940000D02*
X58750000Y-39000000D01*
X56000000Y-35500000D02*
X56000000Y-36250000D01*
X56810000Y-49310000D02*
X56000000Y-50120000D01*
X56810000Y-41810000D02*
X56810000Y-40940000D01*
X57620000Y-39000000D02*
X56810000Y-38190000D01*
X57620000Y-84000000D02*
X58750000Y-84000000D01*
X56000000Y-67380000D02*
X56000000Y-66250000D01*
X56000000Y-37380000D02*
X56000000Y-36250000D01*
X56810000Y-45690000D02*
X56000000Y-44880000D01*
X56000000Y-81250000D02*
X56000000Y-80120000D01*
X56810000Y-56810000D02*
X56810000Y-55940000D01*
X56810000Y-70940000D02*
X58750000Y-69000000D01*
X56000000Y-66250000D02*
X56000000Y-65120000D01*
X56810000Y-64310000D02*
X56810000Y-63440000D01*
X56810000Y-60690000D02*
X56000000Y-59880000D01*
X58750000Y-76500000D02*
X57620000Y-76500000D01*
X58750000Y-61500000D02*
X57620000Y-61500000D01*
X56810000Y-48440000D02*
X58750000Y-46500000D01*
X56810000Y-38190000D02*
X56000000Y-37380000D01*
X56810000Y-56810000D02*
X56000000Y-57620000D01*
X58750000Y-46500000D02*
X57620000Y-46500000D01*
X56810000Y-71810000D02*
X56810000Y-70940000D01*
X56375000Y-82755000D02*
X56375000Y-81625000D01*
X56000000Y-80120000D02*
X56810000Y-79310000D01*
X56000000Y-73750000D02*
X56000000Y-72620000D01*
X56550000Y-35500000D02*
X56000000Y-35500000D01*
X56810000Y-49310000D02*
X56810000Y-48440000D01*
X57620000Y-46500000D02*
X56810000Y-45690000D01*
X56000000Y-51250000D02*
X56000000Y-52380000D01*
X56000000Y-50120000D02*
X56000000Y-51250000D01*
X57620000Y-76500000D02*
X56810000Y-75690000D01*
X56810000Y-34310000D02*
X56810000Y-33440000D01*
X58750000Y-69000000D02*
X57620000Y-69000000D01*
X56000000Y-44880000D02*
X56000000Y-43750000D01*
X56000000Y-57620000D02*
X56000000Y-58750000D01*
X56000000Y-27620000D02*
X56810000Y-26810000D01*
X56000000Y-42620000D02*
X56810000Y-41810000D01*
X56810000Y-79310000D02*
X56810000Y-78440000D01*
X56810000Y-78440000D02*
X58750000Y-76500000D01*
X56810000Y-83190000D02*
X56375000Y-82755000D01*
X58750000Y-31500000D02*
X57620000Y-31500000D01*
X56810000Y-63440000D02*
X58750000Y-61500000D01*
X56000000Y-74880000D02*
X56000000Y-73750000D01*
X56000000Y-59880000D02*
X56000000Y-58750000D01*
X57620000Y-54000000D02*
X56810000Y-53190000D01*
X57620000Y-69000000D02*
X56810000Y-68190000D01*
X56000000Y-72620000D02*
X56810000Y-71810000D01*
X58750000Y-54000000D02*
X57620000Y-54000000D01*
X56810000Y-33440000D02*
X58750000Y-31500000D01*
X56810000Y-34310000D02*
X56550000Y-34570000D01*
X56000000Y-28750000D02*
X56000000Y-27620000D01*
X56810000Y-83190000D02*
X57620000Y-84000000D01*
X56810000Y-68190000D02*
X56000000Y-67380000D01*
X56000000Y-29880000D02*
X56000000Y-28750000D01*
X56810000Y-55940000D02*
X58750000Y-54000000D01*
X56000000Y-43750000D02*
X56000000Y-42620000D01*
X56375000Y-81625000D02*
X56000000Y-81250000D01*
X56000000Y-65120000D02*
X56810000Y-64310000D01*
X56810000Y-30690000D02*
X56000000Y-29880000D01*
X56550000Y-34570000D02*
X56550000Y-35500000D01*
X56810000Y-75690000D02*
X56000000Y-74880000D01*
X58750000Y-39000000D02*
X57620000Y-39000000D01*
%TO.N,/GND10*%
X69000000Y-35120000D02*
X68190000Y-34310000D01*
X68650000Y-51600000D02*
X68650000Y-52730000D01*
X68190000Y-60690000D02*
X68190000Y-61560000D01*
X68190000Y-26810000D02*
X69000000Y-27620000D01*
X67380000Y-71000000D02*
X68190000Y-71810000D01*
X68190000Y-41810000D02*
X69000000Y-42620000D01*
X68190000Y-61560000D02*
X66250000Y-63500000D01*
X66250000Y-33500000D02*
X67380000Y-33500000D01*
X68650000Y-50900000D02*
X69000000Y-51250000D01*
X69000000Y-74880000D02*
X69000000Y-73750000D01*
X68650000Y-49770000D02*
X68650000Y-50900000D01*
X68650000Y-59100000D02*
X68650000Y-60230000D01*
X67380000Y-41000000D02*
X68190000Y-41810000D01*
X69000000Y-81250000D02*
X69000000Y-80120000D01*
X69000000Y-42620000D02*
X69000000Y-43750000D01*
X68190000Y-68190000D02*
X68190000Y-69060000D01*
X66250000Y-78500000D02*
X67380000Y-78500000D01*
X66250000Y-56000000D02*
X67380000Y-56000000D01*
X69000000Y-72620000D02*
X68190000Y-71810000D01*
X68190000Y-49310000D02*
X68650000Y-49770000D01*
X68190000Y-38190000D02*
X68190000Y-39060000D01*
X69000000Y-67380000D02*
X69000000Y-66250000D01*
X67380000Y-56000000D02*
X68190000Y-56810000D01*
X69000000Y-37380000D02*
X69000000Y-36250000D01*
X67380000Y-48500000D02*
X68190000Y-49310000D01*
X68190000Y-68190000D02*
X69000000Y-67380000D01*
X68190000Y-39060000D02*
X66250000Y-41000000D01*
X68190000Y-76560000D02*
X66250000Y-78500000D01*
X69000000Y-58750000D02*
X68650000Y-59100000D01*
X67380000Y-78500000D02*
X68190000Y-79310000D01*
X66250000Y-41000000D02*
X67380000Y-41000000D01*
X67380000Y-33500000D02*
X68190000Y-34310000D01*
X67380000Y-63500000D02*
X68190000Y-64310000D01*
X69000000Y-66250000D02*
X69000000Y-65120000D01*
X69000000Y-80120000D02*
X68190000Y-79310000D01*
X69000000Y-73750000D02*
X69000000Y-72620000D01*
X69000000Y-28750000D02*
X69000000Y-29880000D01*
X68190000Y-38190000D02*
X69000000Y-37380000D01*
X68190000Y-30690000D02*
X68190000Y-31560000D01*
X68190000Y-53190000D02*
X68190000Y-54060000D01*
X67380000Y-26000000D02*
X66250000Y-26000000D01*
X69000000Y-57620000D02*
X69000000Y-58750000D01*
X66250000Y-71000000D02*
X67380000Y-71000000D01*
X68190000Y-75690000D02*
X68190000Y-76560000D01*
X69000000Y-36250000D02*
X69000000Y-35120000D01*
X68190000Y-75690000D02*
X69000000Y-74880000D01*
X69000000Y-27620000D02*
X69000000Y-28750000D01*
X69000000Y-51250000D02*
X68650000Y-51600000D01*
X68190000Y-54060000D02*
X66250000Y-56000000D01*
X66250000Y-63500000D02*
X67380000Y-63500000D01*
X68190000Y-83190000D02*
X69000000Y-82380000D01*
X68190000Y-69060000D02*
X66250000Y-71000000D01*
X69000000Y-29880000D02*
X68190000Y-30690000D01*
X69000000Y-43750000D02*
X69000000Y-44880000D01*
X69000000Y-44880000D02*
X68190000Y-45690000D01*
X69000000Y-65120000D02*
X68190000Y-64310000D01*
X68190000Y-31560000D02*
X66250000Y-33500000D01*
X68190000Y-45690000D02*
X68190000Y-46560000D01*
X69000000Y-82380000D02*
X69000000Y-81250000D01*
X68650000Y-60230000D02*
X68190000Y-60690000D01*
X68650000Y-52730000D02*
X68190000Y-53190000D01*
X68190000Y-46560000D02*
X66250000Y-48500000D01*
X68190000Y-26810000D02*
X67380000Y-26000000D01*
X66250000Y-48500000D02*
X67380000Y-48500000D01*
X68190000Y-56810000D02*
X69000000Y-57620000D01*
%TO.N,/GND11*%
X64310000Y-34310000D02*
X64310000Y-33440000D01*
X63500000Y-51250000D02*
X63500000Y-52380000D01*
X63500000Y-80120000D02*
X64310000Y-79310000D01*
X64310000Y-83190000D02*
X63500000Y-82380000D01*
X64310000Y-75690000D02*
X63500000Y-74880000D01*
X63500000Y-28750000D02*
X63500000Y-29880000D01*
X63500000Y-65120000D02*
X64310000Y-64310000D01*
X63500000Y-29880000D02*
X64310000Y-30690000D01*
X64310000Y-56810000D02*
X64310000Y-55940000D01*
X63500000Y-81250000D02*
X63500000Y-80120000D01*
X66250000Y-46500000D02*
X65120000Y-46500000D01*
X66250000Y-76500000D02*
X65120000Y-76500000D01*
X64310000Y-83190000D02*
X65120000Y-84000000D01*
X66250000Y-61500000D02*
X65120000Y-61500000D01*
X66250000Y-31500000D02*
X65120000Y-31500000D01*
X65120000Y-31500000D02*
X64310000Y-30690000D01*
X64310000Y-64310000D02*
X64310000Y-63440000D01*
X64310000Y-49310000D02*
X64310000Y-48440000D01*
X63500000Y-43750000D02*
X63500000Y-44880000D01*
X63500000Y-44880000D02*
X64310000Y-45690000D01*
X64310000Y-78440000D02*
X66250000Y-76500000D01*
X65120000Y-61500000D02*
X64310000Y-60690000D01*
X63500000Y-57620000D02*
X63500000Y-58750000D01*
X63500000Y-73750000D02*
X63500000Y-72620000D01*
X65120000Y-54000000D02*
X64310000Y-53190000D01*
X63500000Y-82380000D02*
X63500000Y-81250000D01*
X64310000Y-63440000D02*
X66250000Y-61500000D01*
X64310000Y-60690000D02*
X64310000Y-60310000D01*
X63500000Y-74880000D02*
X63500000Y-73750000D01*
X64310000Y-40940000D02*
X66250000Y-39000000D01*
X63500000Y-66250000D02*
X63500000Y-65120000D01*
X63500000Y-50120000D02*
X63500000Y-51250000D01*
X63500000Y-27620000D02*
X63500000Y-28750000D01*
X63500000Y-59500000D02*
X63500000Y-58750000D01*
X65120000Y-46500000D02*
X64310000Y-45690000D01*
X64310000Y-49310000D02*
X63500000Y-50120000D01*
X64310000Y-34310000D02*
X63500000Y-35120000D01*
X64310000Y-70940000D02*
X66250000Y-69000000D01*
X63500000Y-36250000D02*
X63500000Y-37380000D01*
X66250000Y-39000000D02*
X65120000Y-39000000D01*
X63500000Y-52380000D02*
X64310000Y-53190000D01*
X65120000Y-76500000D02*
X64310000Y-75690000D01*
X64310000Y-79310000D02*
X64310000Y-78440000D01*
X64310000Y-56810000D02*
X63500000Y-57620000D01*
X64310000Y-71810000D02*
X64310000Y-70940000D01*
X63500000Y-35120000D02*
X63500000Y-36250000D01*
X65120000Y-39000000D02*
X64310000Y-38190000D01*
X64310000Y-26810000D02*
X63500000Y-27620000D01*
X64310000Y-33440000D02*
X66250000Y-31500000D01*
X66250000Y-69000000D02*
X65120000Y-69000000D01*
X63500000Y-42620000D02*
X63500000Y-43750000D01*
X63500000Y-37380000D02*
X64310000Y-38190000D01*
X64310000Y-68190000D02*
X64310000Y-67710000D01*
X65120000Y-84000000D02*
X66250000Y-84000000D01*
X64310000Y-67710000D02*
X63500000Y-66900000D01*
X64310000Y-55940000D02*
X66250000Y-54000000D01*
X63500000Y-66900000D02*
X63500000Y-66250000D01*
X64310000Y-48440000D02*
X66250000Y-46500000D01*
X65120000Y-69000000D02*
X64310000Y-68190000D01*
X64310000Y-41810000D02*
X64310000Y-40940000D01*
X64310000Y-41810000D02*
X63500000Y-42620000D01*
X64310000Y-60310000D02*
X63500000Y-59500000D01*
X63500000Y-72620000D02*
X64310000Y-71810000D01*
X66250000Y-54000000D02*
X65120000Y-54000000D01*
%TO.N,/GND5*%
X41000000Y-72620000D02*
X41810000Y-71810000D01*
X41000000Y-35120000D02*
X41000000Y-36250000D01*
X41810000Y-75690000D02*
X41000000Y-74880000D01*
X41810000Y-34310000D02*
X41000000Y-35120000D01*
X42620000Y-54000000D02*
X41810000Y-53190000D01*
X41000000Y-74880000D02*
X41000000Y-73750000D01*
X41500000Y-57120000D02*
X41810000Y-56810000D01*
X41810000Y-68190000D02*
X42620000Y-69000000D01*
X41000000Y-59880000D02*
X41000000Y-58750000D01*
X41000000Y-66250000D02*
X41250000Y-66000000D01*
X41810000Y-60690000D02*
X42620000Y-61500000D01*
X41000000Y-27620000D02*
X41000000Y-28750000D01*
X41000000Y-58750000D02*
X41500000Y-58250000D01*
X41810000Y-48440000D02*
X43750000Y-46500000D01*
X41810000Y-56810000D02*
X41810000Y-55940000D01*
X41810000Y-70940000D02*
X41810000Y-71810000D01*
X41250000Y-64870000D02*
X41810000Y-64310000D01*
X43750000Y-76500000D02*
X41810000Y-78440000D01*
X42620000Y-46500000D02*
X41810000Y-45690000D01*
X41810000Y-49310000D02*
X41810000Y-48440000D01*
X41810000Y-45690000D02*
X41810000Y-45060000D01*
X41810000Y-34310000D02*
X41810000Y-33440000D01*
X43750000Y-31500000D02*
X42620000Y-31500000D01*
X41810000Y-26810000D02*
X41000000Y-27620000D01*
X41810000Y-78440000D02*
X41810000Y-79310000D01*
X41000000Y-82380000D02*
X41000000Y-81250000D01*
X42620000Y-61500000D02*
X43750000Y-61500000D01*
X41810000Y-40940000D02*
X43750000Y-39000000D01*
X41000000Y-36250000D02*
X41000000Y-37380000D01*
X41250000Y-66000000D02*
X41250000Y-64870000D01*
X41810000Y-30362944D02*
X41810000Y-30690000D01*
X42620000Y-84000000D02*
X43750000Y-84000000D01*
X41000000Y-51250000D02*
X41000000Y-50120000D01*
X42620000Y-76500000D02*
X43750000Y-76500000D01*
X41000000Y-50120000D02*
X41810000Y-49310000D01*
X42620000Y-39000000D02*
X41810000Y-38190000D01*
X40973528Y-28776472D02*
X40973528Y-29526472D01*
X41810000Y-63440000D02*
X41810000Y-64310000D01*
X41000000Y-67380000D02*
X41000000Y-66250000D01*
X41810000Y-83190000D02*
X42620000Y-84000000D01*
X41810000Y-55940000D02*
X43750000Y-54000000D01*
X41500000Y-58250000D02*
X41500000Y-57120000D01*
X41810000Y-41810000D02*
X41810000Y-40940000D01*
X41000000Y-28750000D02*
X40973528Y-28776472D01*
X41000000Y-80120000D02*
X41810000Y-79310000D01*
X41810000Y-75690000D02*
X42620000Y-76500000D01*
X41000000Y-42620000D02*
X41810000Y-41810000D01*
X42620000Y-69000000D02*
X43750000Y-69000000D01*
X43750000Y-39000000D02*
X42620000Y-39000000D01*
X41810000Y-60690000D02*
X41000000Y-59880000D01*
X42620000Y-31500000D02*
X41810000Y-30690000D01*
X40973528Y-29526472D02*
X41810000Y-30362944D01*
X41000000Y-73750000D02*
X41000000Y-72620000D01*
X41810000Y-83190000D02*
X41000000Y-82380000D01*
X43750000Y-61500000D02*
X41810000Y-63440000D01*
X43750000Y-54000000D02*
X42620000Y-54000000D01*
X41000000Y-37380000D02*
X41810000Y-38190000D01*
X41000000Y-43750000D02*
X41000000Y-42620000D01*
X41000000Y-52380000D02*
X41000000Y-51250000D01*
X41810000Y-68190000D02*
X41000000Y-67380000D01*
X41000000Y-81250000D02*
X41000000Y-80120000D01*
X41810000Y-45060000D02*
X41000000Y-44250000D01*
X43750000Y-69000000D02*
X41810000Y-70940000D01*
X41810000Y-33440000D02*
X43750000Y-31500000D01*
X41810000Y-53190000D02*
X41000000Y-52380000D01*
X43750000Y-46500000D02*
X42620000Y-46500000D01*
X41000000Y-44250000D02*
X41000000Y-43750000D01*
%TD*%
M02*
