M48
; DRILL file {KiCad 7.0.1} date Wed Dec 27 11:57:04 2023
; FORMAT={-:-/ absolute / inch / decimal}
; #@! TF.CreationDate,2023-12-27T11:57:04-05:00
; #@! TF.GenerationSoftware,Kicad,Pcbnew,7.0.1
; #@! TF.FileFunction,Plated,1,2,PTH
FMAT,2
INCH
; #@! TA.AperFunction,Plated,PTH,ViaDrill
T1C0.0118
; #@! TA.AperFunction,Plated,PTH,ComponentDrill
T2C0.0157
; #@! TA.AperFunction,Plated,PTH,ComponentDrill
T3C0.0276
; #@! TA.AperFunction,Plated,PTH,ComponentDrill
T4C0.0394
%
G90
G05
T1
X1.2177Y-2.1746
X1.2177Y-2.4698
X1.2205Y-1.8799
X1.2474Y-1.6296
X1.2476Y-1.8307
X1.2476Y-2.1254
X1.2476Y-2.4207
X1.2476Y-2.716
X1.3114Y-1.6274
X1.3255Y-2.172
X1.3258Y-1.8764
X1.3258Y-2.4669
X1.328Y-1.8316
X1.328Y-2.1269
X1.328Y-2.4222
X1.328Y-2.7175
X1.5091Y-2.4737
X1.513Y-2.1746
X1.5408Y-2.141
X1.5429Y-2.4203
X1.5429Y-2.716
X1.5453Y-1.9193
X1.6067Y-1.9226
X1.6211Y-2.1717
X1.6232Y-2.7175
X1.6241Y-2.464
X1.6296Y-2.1333
X1.6296Y-2.4285
X1.8003Y-2.1825
X1.8351Y-2.5125
X1.8382Y-2.4088
X1.8382Y-2.716
X1.8953Y-2.227
X1.8996Y-2.4114
X1.902Y-2.5129
X1.9185Y-2.7175
X2.1037Y-2.4858
X2.1269Y-1.6232
X2.1334Y-2.7028
X2.1961Y-2.5167
X2.1973Y-1.6264
X2.2038Y-2.7075
X2.4201Y-1.9104
X2.4925Y-1.9218
X2.7154Y-2.501
X2.7868Y-2.5166
X3.0127Y-2.8043
X3.082Y-2.8119
T2
X1.0138Y-1.6043
X1.0138Y-1.8406
X1.0138Y-1.8996
X1.0138Y-2.1358
X1.0138Y-2.1949
X1.0138Y-2.4311
X1.0138Y-2.4902
X1.0138Y-2.7264
X3.3169Y-1.6043
X3.3169Y-1.8406
X3.3169Y-1.8996
X3.3169Y-2.1358
X3.3169Y-2.1949
X3.3169Y-2.4311
X3.3169Y-2.4902
X3.3169Y-2.7264
T3
X1.0236Y-1.1319
X1.0236Y-1.4272
X1.0236Y-1.7224
X1.0236Y-2.0177
X1.0236Y-2.313
X1.0236Y-2.6083
X1.0236Y-2.9035
X1.0236Y-3.1988
X1.0555Y-1.0555
X1.0555Y-1.2083
X1.0555Y-1.3508
X1.0555Y-1.5035
X1.0555Y-1.6461
X1.0555Y-1.7988
X1.0555Y-1.9413
X1.0555Y-2.0941
X1.0555Y-2.2366
X1.0555Y-2.3894
X1.0555Y-2.5319
X1.0555Y-2.6846
X1.0555Y-2.8272
X1.0555Y-2.9799
X1.0555Y-3.1224
X1.0555Y-3.2752
X1.1319Y-1.0236
X1.1319Y-1.2402
X1.1319Y-1.3189
X1.1319Y-1.5354
X1.1319Y-1.6142
X1.1319Y-1.8307
X1.1319Y-1.9094
X1.1319Y-2.126
X1.1319Y-2.2047
X1.1319Y-2.4213
X1.1319Y-2.5
X1.1319Y-2.7165
X1.1319Y-2.7953
X1.1319Y-3.0118
X1.1319Y-3.0906
X1.1319Y-3.3071
X1.2083Y-1.0555
X1.2083Y-1.2083
X1.2083Y-1.3508
X1.2083Y-1.5035
X1.2083Y-1.6461
X1.2083Y-1.7988
X1.2083Y-1.9413
X1.2083Y-2.0941
X1.2083Y-2.2366
X1.2083Y-2.3894
X1.2083Y-2.5319
X1.2083Y-2.6846
X1.2083Y-2.8272
X1.2083Y-2.9799
X1.2083Y-3.1224
X1.2083Y-3.2752
X1.2402Y-1.1319
X1.2402Y-1.4272
X1.2402Y-1.7224
X1.2402Y-2.0177
X1.2402Y-2.313
X1.2402Y-2.6083
X1.2402Y-2.9035
X1.2402Y-3.1988
X1.3189Y-1.1319
X1.3189Y-1.4272
X1.3189Y-1.7224
X1.3189Y-2.0177
X1.3189Y-2.313
X1.3189Y-2.6083
X1.3189Y-2.9035
X1.3189Y-3.1988
X1.3508Y-1.0555
X1.3508Y-1.2083
X1.3508Y-1.3508
X1.3508Y-1.5035
X1.3508Y-1.6461
X1.3508Y-1.7988
X1.3508Y-1.9413
X1.3508Y-2.0941
X1.3508Y-2.2366
X1.3508Y-2.3894
X1.3508Y-2.5319
X1.3508Y-2.6846
X1.3508Y-2.8272
X1.3508Y-2.9799
X1.3508Y-3.1224
X1.3508Y-3.2752
X1.4272Y-1.0236
X1.4272Y-1.2402
X1.4272Y-1.3189
X1.4272Y-1.5354
X1.4272Y-1.6142
X1.4272Y-1.8307
X1.4272Y-1.9094
X1.4272Y-2.126
X1.4272Y-2.2047
X1.4272Y-2.4213
X1.4272Y-2.5
X1.4272Y-2.7165
X1.4272Y-2.7953
X1.4272Y-3.0118
X1.4272Y-3.0906
X1.4272Y-3.3071
X1.5035Y-1.0555
X1.5035Y-1.2083
X1.5035Y-1.3508
X1.5035Y-1.5035
X1.5035Y-1.6461
X1.5035Y-1.7988
X1.5035Y-1.9413
X1.5035Y-2.0941
X1.5035Y-2.2366
X1.5035Y-2.3894
X1.5035Y-2.5319
X1.5035Y-2.6846
X1.5035Y-2.8272
X1.5035Y-2.9799
X1.5035Y-3.1224
X1.5035Y-3.2752
X1.5354Y-1.1319
X1.5354Y-1.4272
X1.5354Y-1.7224
X1.5354Y-2.0177
X1.5354Y-2.313
X1.5354Y-2.6083
X1.5354Y-2.9035
X1.5354Y-3.1988
X1.6142Y-1.1319
X1.6142Y-1.4272
X1.6142Y-1.7224
X1.6142Y-2.0177
X1.6142Y-2.313
X1.6142Y-2.6083
X1.6142Y-2.9035
X1.6142Y-3.1988
X1.6461Y-1.0555
X1.6461Y-1.2083
X1.6461Y-1.3508
X1.6461Y-1.5035
X1.6461Y-1.6461
X1.6461Y-1.7988
X1.6461Y-1.9413
X1.6461Y-2.0941
X1.6461Y-2.2366
X1.6461Y-2.3894
X1.6461Y-2.5319
X1.6461Y-2.6846
X1.6461Y-2.8272
X1.6461Y-2.9799
X1.6461Y-3.1224
X1.6461Y-3.2752
X1.7224Y-1.0236
X1.7224Y-1.2402
X1.7224Y-1.3189
X1.7224Y-1.5354
X1.7224Y-1.6142
X1.7224Y-1.8307
X1.7224Y-1.9094
X1.7224Y-2.126
X1.7224Y-2.2047
X1.7224Y-2.4213
X1.7224Y-2.5
X1.7224Y-2.7165
X1.7224Y-2.7953
X1.7224Y-3.0118
X1.7224Y-3.0906
X1.7224Y-3.3071
X1.7988Y-1.0555
X1.7988Y-1.2083
X1.7988Y-1.3508
X1.7988Y-1.5035
X1.7988Y-1.6461
X1.7988Y-1.7988
X1.7988Y-1.9413
X1.7988Y-2.0941
X1.7988Y-2.2366
X1.7988Y-2.3894
X1.7988Y-2.5319
X1.7988Y-2.6846
X1.7988Y-2.8272
X1.7988Y-2.9799
X1.7988Y-3.1224
X1.7988Y-3.2752
X1.8307Y-1.1319
X1.8307Y-1.4272
X1.8307Y-1.7224
X1.8307Y-2.0177
X1.8307Y-2.313
X1.8307Y-2.6083
X1.8307Y-2.9035
X1.8307Y-3.1988
X1.9094Y-1.1319
X1.9094Y-1.4272
X1.9094Y-1.7224
X1.9094Y-2.0177
X1.9094Y-2.313
X1.9094Y-2.6083
X1.9094Y-2.9035
X1.9094Y-3.1988
X1.9413Y-1.0555
X1.9413Y-1.2083
X1.9413Y-1.3508
X1.9413Y-1.5035
X1.9413Y-1.6461
X1.9413Y-1.7988
X1.9413Y-1.9413
X1.9413Y-2.0941
X1.9413Y-2.2366
X1.9413Y-2.3894
X1.9413Y-2.5319
X1.9413Y-2.6846
X1.9413Y-2.8272
X1.9413Y-2.9799
X1.9413Y-3.1224
X1.9413Y-3.2752
X2.0177Y-1.0236
X2.0177Y-1.2402
X2.0177Y-1.3189
X2.0177Y-1.5354
X2.0177Y-1.6142
X2.0177Y-1.8307
X2.0177Y-1.9094
X2.0177Y-2.126
X2.0177Y-2.2047
X2.0177Y-2.4213
X2.0177Y-2.5
X2.0177Y-2.7165
X2.0177Y-2.7953
X2.0177Y-3.0118
X2.0177Y-3.0906
X2.0177Y-3.3071
X2.0941Y-1.0555
X2.0941Y-1.2083
X2.0941Y-1.3508
X2.0941Y-1.5035
X2.0941Y-1.6461
X2.0941Y-1.7988
X2.0941Y-1.9413
X2.0941Y-2.0941
X2.0941Y-2.2366
X2.0941Y-2.3894
X2.0941Y-2.5319
X2.0941Y-2.6846
X2.0941Y-2.8272
X2.0941Y-2.9799
X2.0941Y-3.1224
X2.0941Y-3.2752
X2.126Y-1.1319
X2.126Y-1.4272
X2.126Y-1.7224
X2.126Y-2.0177
X2.126Y-2.313
X2.126Y-2.6083
X2.126Y-2.9035
X2.126Y-3.1988
X2.2047Y-1.1319
X2.2047Y-1.4272
X2.2047Y-1.7224
X2.2047Y-2.0177
X2.2047Y-2.313
X2.2047Y-2.6083
X2.2047Y-2.9035
X2.2047Y-3.1988
X2.2366Y-1.0555
X2.2366Y-1.2083
X2.2366Y-1.3508
X2.2366Y-1.5035
X2.2366Y-1.6461
X2.2366Y-1.7988
X2.2366Y-1.9413
X2.2366Y-2.0941
X2.2366Y-2.2366
X2.2366Y-2.3894
X2.2366Y-2.5319
X2.2366Y-2.6846
X2.2366Y-2.8272
X2.2366Y-2.9799
X2.2366Y-3.1224
X2.2366Y-3.2752
X2.313Y-1.0236
X2.313Y-1.2402
X2.313Y-1.3189
X2.313Y-1.5354
X2.313Y-1.6142
X2.313Y-1.8307
X2.313Y-1.9094
X2.313Y-2.126
X2.313Y-2.2047
X2.313Y-2.4213
X2.313Y-2.5
X2.313Y-2.7165
X2.313Y-2.7953
X2.313Y-3.0118
X2.313Y-3.0906
X2.313Y-3.3071
X2.3894Y-1.0555
X2.3894Y-1.2083
X2.3894Y-1.3508
X2.3894Y-1.5035
X2.3894Y-1.6461
X2.3894Y-1.7988
X2.3894Y-1.9413
X2.3894Y-2.0941
X2.3894Y-2.2366
X2.3894Y-2.3894
X2.3894Y-2.5319
X2.3894Y-2.6846
X2.3894Y-2.8272
X2.3894Y-2.9799
X2.3894Y-3.1224
X2.3894Y-3.2752
X2.4213Y-1.1319
X2.4213Y-1.4272
X2.4213Y-1.7224
X2.4213Y-2.0177
X2.4213Y-2.313
X2.4213Y-2.6083
X2.4213Y-2.9035
X2.4213Y-3.1988
X2.5Y-1.1319
X2.5Y-1.4272
X2.5Y-1.7224
X2.5Y-2.0177
X2.5Y-2.313
X2.5Y-2.6083
X2.5Y-2.9035
X2.5Y-3.1988
X2.5319Y-1.0555
X2.5319Y-1.2083
X2.5319Y-1.3508
X2.5319Y-1.5035
X2.5319Y-1.6461
X2.5319Y-1.7988
X2.5319Y-1.9413
X2.5319Y-2.0941
X2.5319Y-2.2366
X2.5319Y-2.3894
X2.5319Y-2.5319
X2.5319Y-2.6846
X2.5319Y-2.8272
X2.5319Y-2.9799
X2.5319Y-3.1224
X2.5319Y-3.2752
X2.6083Y-1.0236
X2.6083Y-1.2402
X2.6083Y-1.3189
X2.6083Y-1.5354
X2.6083Y-1.6142
X2.6083Y-1.8307
X2.6083Y-1.9094
X2.6083Y-2.126
X2.6083Y-2.2047
X2.6083Y-2.4213
X2.6083Y-2.5
X2.6083Y-2.7165
X2.6083Y-2.7953
X2.6083Y-3.0118
X2.6083Y-3.0906
X2.6083Y-3.3071
X2.6846Y-1.0555
X2.6846Y-1.2083
X2.6846Y-1.3508
X2.6846Y-1.5035
X2.6846Y-1.6461
X2.6846Y-1.7988
X2.6846Y-1.9413
X2.6846Y-2.0941
X2.6846Y-2.2366
X2.6846Y-2.3894
X2.6846Y-2.5319
X2.6846Y-2.6846
X2.6846Y-2.8272
X2.6846Y-2.9799
X2.6846Y-3.1224
X2.6846Y-3.2752
X2.7165Y-1.1319
X2.7165Y-1.4272
X2.7165Y-1.7224
X2.7165Y-2.0177
X2.7165Y-2.313
X2.7165Y-2.6083
X2.7165Y-2.9035
X2.7165Y-3.1988
X2.7953Y-1.1319
X2.7953Y-1.4272
X2.7953Y-1.7224
X2.7953Y-2.0177
X2.7953Y-2.313
X2.7953Y-2.6083
X2.7953Y-2.9035
X2.7953Y-3.1988
X2.8272Y-1.0555
X2.8272Y-1.2083
X2.8272Y-1.3508
X2.8272Y-1.5035
X2.8272Y-1.6461
X2.8272Y-1.7988
X2.8272Y-1.9413
X2.8272Y-2.0941
X2.8272Y-2.2366
X2.8272Y-2.3894
X2.8272Y-2.5319
X2.8272Y-2.6846
X2.8272Y-2.8272
X2.8272Y-2.9799
X2.8272Y-3.1224
X2.8272Y-3.2752
X2.9035Y-1.0236
X2.9035Y-1.2402
X2.9035Y-1.3189
X2.9035Y-1.5354
X2.9035Y-1.6142
X2.9035Y-1.8307
X2.9035Y-1.9094
X2.9035Y-2.126
X2.9035Y-2.2047
X2.9035Y-2.4213
X2.9035Y-2.5
X2.9035Y-2.7165
X2.9035Y-2.7953
X2.9035Y-3.0118
X2.9035Y-3.0906
X2.9035Y-3.3071
X2.9799Y-1.0555
X2.9799Y-1.2083
X2.9799Y-1.3508
X2.9799Y-1.5035
X2.9799Y-1.6461
X2.9799Y-1.7988
X2.9799Y-1.9413
X2.9799Y-2.0941
X2.9799Y-2.2366
X2.9799Y-2.3894
X2.9799Y-2.5319
X2.9799Y-2.6846
X2.9799Y-2.8272
X2.9799Y-2.9799
X2.9799Y-3.1224
X2.9799Y-3.2752
X3.0118Y-1.1319
X3.0118Y-1.4272
X3.0118Y-1.7224
X3.0118Y-2.0177
X3.0118Y-2.313
X3.0118Y-2.6083
X3.0118Y-2.9035
X3.0118Y-3.1988
X3.0906Y-1.1319
X3.0906Y-1.4272
X3.0906Y-1.7224
X3.0906Y-2.0177
X3.0906Y-2.313
X3.0906Y-2.6083
X3.0906Y-2.9035
X3.0906Y-3.1988
X3.1224Y-1.0555
X3.1224Y-1.2083
X3.1224Y-1.3508
X3.1224Y-1.5035
X3.1224Y-1.6461
X3.1224Y-1.7988
X3.1224Y-1.9413
X3.1224Y-2.0941
X3.1224Y-2.2366
X3.1224Y-2.3894
X3.1224Y-2.5319
X3.1224Y-2.6846
X3.1224Y-2.8272
X3.1224Y-2.9799
X3.1224Y-3.1224
X3.1224Y-3.2752
X3.1988Y-1.0236
X3.1988Y-1.2402
X3.1988Y-1.3189
X3.1988Y-1.5354
X3.1988Y-1.6142
X3.1988Y-1.8307
X3.1988Y-1.9094
X3.1988Y-2.126
X3.1988Y-2.2047
X3.1988Y-2.4213
X3.1988Y-2.5
X3.1988Y-2.7165
X3.1988Y-2.7953
X3.1988Y-3.0118
X3.1988Y-3.0906
X3.1988Y-3.3071
X3.2752Y-1.0555
X3.2752Y-1.2083
X3.2752Y-1.3508
X3.2752Y-1.5035
X3.2752Y-1.6461
X3.2752Y-1.7988
X3.2752Y-1.9413
X3.2752Y-2.0941
X3.2752Y-2.2366
X3.2752Y-2.3894
X3.2752Y-2.5319
X3.2752Y-2.6846
X3.2752Y-2.8272
X3.2752Y-2.9799
X3.2752Y-3.1224
X3.2752Y-3.2752
X3.3071Y-1.1319
X3.3071Y-1.4272
X3.3071Y-1.7224
X3.3071Y-2.0177
X3.3071Y-2.313
X3.3071Y-2.6083
X3.3071Y-2.9035
X3.3071Y-3.1988
T4
X1.2717Y-3.0512
X2.1654Y-1.2717
X2.1654Y-3.0709
X3.0709Y-3.0512
T0
M30
