%TF.GenerationSoftware,KiCad,Pcbnew,7.0.1*%
%TF.CreationDate,2023-12-27T22:02:36-05:00*%
%TF.ProjectId,TacTile-A,54616354-696c-4652-9d41-2e6b69636164,rev?*%
%TF.SameCoordinates,Original*%
%TF.FileFunction,Paste,Top*%
%TF.FilePolarity,Positive*%
%FSLAX46Y46*%
G04 Gerber Fmt 4.6, Leading zero omitted, Abs format (unit mm)*
G04 Created by KiCad (PCBNEW 7.0.1) date 2023-12-27 22:02:36*
%MOMM*%
%LPD*%
G01*
G04 APERTURE LIST*
G04 Aperture macros list*
%AMRoundRect*
0 Rectangle with rounded corners*
0 $1 Rounding radius*
0 $2 $3 $4 $5 $6 $7 $8 $9 X,Y pos of 4 corners*
0 Add a 4 corners polygon primitive as box body*
4,1,4,$2,$3,$4,$5,$6,$7,$8,$9,$2,$3,0*
0 Add four circle primitives for the rounded corners*
1,1,$1+$1,$2,$3*
1,1,$1+$1,$4,$5*
1,1,$1+$1,$6,$7*
1,1,$1+$1,$8,$9*
0 Add four rect primitives between the rounded corners*
20,1,$1+$1,$2,$3,$4,$5,0*
20,1,$1+$1,$4,$5,$6,$7,0*
20,1,$1+$1,$6,$7,$8,$9,0*
20,1,$1+$1,$8,$9,$2,$3,0*%
G04 Aperture macros list end*
%ADD10RoundRect,0.062500X0.325000X0.062500X-0.325000X0.062500X-0.325000X-0.062500X0.325000X-0.062500X0*%
%ADD11RoundRect,0.130000X0.130000X0.150000X-0.130000X0.150000X-0.130000X-0.150000X0.130000X-0.150000X0*%
%ADD12RoundRect,0.130000X-0.130000X-0.150000X0.130000X-0.150000X0.130000X0.150000X-0.130000X0.150000X0*%
%ADD13RoundRect,0.062500X-0.325000X-0.062500X0.325000X-0.062500X0.325000X0.062500X-0.325000X0.062500X0*%
G04 APERTURE END LIST*
D10*
%TO.C,U6*%
X68537500Y-48250000D03*
X68537500Y-47750000D03*
X68537500Y-47250000D03*
X68537500Y-46750000D03*
X71462500Y-46750000D03*
X71462500Y-47250000D03*
X71462500Y-47750000D03*
X71462500Y-48250000D03*
D11*
X69675000Y-47150000D03*
X69675000Y-47850000D03*
X70325000Y-47150000D03*
X70325000Y-47850000D03*
%TD*%
D12*
%TO.C,U8*%
X77175000Y-69650000D03*
X77175000Y-70350000D03*
X77825000Y-69650000D03*
X77825000Y-70350000D03*
D13*
X76037500Y-69250000D03*
X76037500Y-69750000D03*
X76037500Y-70250000D03*
X76037500Y-70750000D03*
X78962500Y-70750000D03*
X78962500Y-70250000D03*
X78962500Y-69750000D03*
X78962500Y-69250000D03*
%TD*%
D11*
%TO.C,U1*%
X32825000Y-40350000D03*
X32825000Y-39650000D03*
X32175000Y-40350000D03*
X32175000Y-39650000D03*
D10*
X33962500Y-40750000D03*
X33962500Y-40250000D03*
X33962500Y-39750000D03*
X33962500Y-39250000D03*
X31037500Y-39250000D03*
X31037500Y-39750000D03*
X31037500Y-40250000D03*
X31037500Y-40750000D03*
%TD*%
D12*
%TO.C,U4*%
X47175000Y-69650000D03*
X47175000Y-70350000D03*
X47825000Y-69650000D03*
X47825000Y-70350000D03*
D13*
X46037500Y-69250000D03*
X46037500Y-69750000D03*
X46037500Y-70250000D03*
X46037500Y-70750000D03*
X48962500Y-70750000D03*
X48962500Y-70250000D03*
X48962500Y-69750000D03*
X48962500Y-69250000D03*
%TD*%
D12*
%TO.C,U3*%
X39675000Y-62150000D03*
X39675000Y-62850000D03*
X40325000Y-62150000D03*
X40325000Y-62850000D03*
D13*
X38537500Y-61750000D03*
X38537500Y-62250000D03*
X38537500Y-62750000D03*
X38537500Y-63250000D03*
X41462500Y-63250000D03*
X41462500Y-62750000D03*
X41462500Y-62250000D03*
X41462500Y-61750000D03*
%TD*%
D12*
%TO.C,U2*%
X32175000Y-47150000D03*
X32175000Y-47850000D03*
X32825000Y-47150000D03*
X32825000Y-47850000D03*
D13*
X31037500Y-46750000D03*
X31037500Y-47250000D03*
X31037500Y-47750000D03*
X31037500Y-48250000D03*
X33962500Y-48250000D03*
X33962500Y-47750000D03*
X33962500Y-47250000D03*
X33962500Y-46750000D03*
%TD*%
D10*
%TO.C,U7*%
X76037500Y-63250000D03*
X76037500Y-62750000D03*
X76037500Y-62250000D03*
X76037500Y-61750000D03*
X78962500Y-61750000D03*
X78962500Y-62250000D03*
X78962500Y-62750000D03*
X78962500Y-63250000D03*
D11*
X77175000Y-62150000D03*
X77175000Y-62850000D03*
X77825000Y-62150000D03*
X77825000Y-62850000D03*
%TD*%
D10*
%TO.C,U5*%
X61037500Y-40750000D03*
X61037500Y-40250000D03*
X61037500Y-39750000D03*
X61037500Y-39250000D03*
X63962500Y-39250000D03*
X63962500Y-39750000D03*
X63962500Y-40250000D03*
X63962500Y-40750000D03*
D11*
X62175000Y-39650000D03*
X62175000Y-40350000D03*
X62825000Y-39650000D03*
X62825000Y-40350000D03*
%TD*%
M02*
