M48
; DRILL file {KiCad 7.0.1} date Mon Aug 14 10:40:26 2023
; FORMAT={-:-/ absolute / inch / decimal}
; #@! TF.CreationDate,2023-08-14T10:40:26-04:00
; #@! TF.GenerationSoftware,Kicad,Pcbnew,7.0.1
; #@! TF.FileFunction,NonPlated,1,2,NPTH
FMAT,2
INCH
; #@! TA.AperFunction,NonPlated,NPTH,ComponentDrill
T1C0.1220
%
G90
G05
T1
X0.9843Y-0.9843
X0.9843Y-1.2795
X0.9843Y-1.5748
X0.9843Y-1.8701
X0.9843Y-2.1654
X0.9843Y-2.4606
X0.9843Y-2.7559
X0.9843Y-3.0512
X1.2795Y-0.9843
X1.2795Y-1.2795
X1.2795Y-1.5748
X1.2795Y-1.8701
X1.2795Y-2.1654
X1.2795Y-2.4606
X1.2795Y-2.7559
X1.2795Y-3.0512
X1.5748Y-0.9843
X1.5748Y-1.2795
X1.5748Y-1.5748
X1.5748Y-1.8701
X1.5748Y-2.1654
X1.5748Y-2.4606
X1.5748Y-2.7559
X1.5748Y-3.0512
X1.8701Y-0.9843
X1.8701Y-1.2795
X1.8701Y-1.5748
X1.8701Y-1.8701
X1.8701Y-2.1654
X1.8701Y-2.4606
X1.8701Y-2.7559
X1.8701Y-3.0512
X2.1654Y-0.9843
X2.1654Y-1.2795
X2.1654Y-1.5748
X2.1654Y-1.8701
X2.1654Y-2.1654
X2.1654Y-2.4606
X2.1654Y-2.7559
X2.1654Y-3.0512
X2.4606Y-0.9843
X2.4606Y-1.2795
X2.4606Y-1.5748
X2.4606Y-1.8701
X2.4606Y-2.1654
X2.4606Y-2.4606
X2.4606Y-2.7559
X2.4606Y-3.0512
X2.7559Y-0.9843
X2.7559Y-1.2795
X2.7559Y-1.5748
X2.7559Y-1.8701
X2.7559Y-2.1654
X2.7559Y-2.4606
X2.7559Y-2.7559
X2.7559Y-3.0512
X3.0512Y-0.9843
X3.0512Y-1.2795
X3.0512Y-1.5748
X3.0512Y-1.8701
X3.0512Y-2.1654
X3.0512Y-2.4606
X3.0512Y-2.7559
X3.0512Y-3.0512
T0
M30
