M48
; DRILL file {KiCad 7.0.1} date Mon Aug 14 10:40:26 2023
; FORMAT={-:-/ absolute / inch / decimal}
; #@! TF.CreationDate,2023-08-14T10:40:26-04:00
; #@! TF.GenerationSoftware,Kicad,Pcbnew,7.0.1
; #@! TF.FileFunction,Plated,1,2,PTH
FMAT,2
INCH
; #@! TA.AperFunction,Plated,PTH,ViaDrill
T1C0.0118
; #@! TA.AperFunction,Plated,PTH,ComponentDrill
T2C0.0157
; #@! TA.AperFunction,Plated,PTH,ComponentDrill
T3C0.0315
%
G90
G05
T1
X1.0746Y-2.3426
X1.0814Y-2.3109
X1.1072Y-2.0808
X1.1516Y-2.1234
X1.1641Y-2.3454
X1.1877Y-2.3098
X1.3908Y-2.5894
X1.3937Y-2.3661
X1.437Y-2.4108
X1.4969Y-2.5911
X2.5663Y-2.5975
X2.5732Y-2.3648
X2.6402Y-2.3661
X2.671Y-2.5982
X2.8516Y-2.3123
X2.8551Y-2.3514
X2.8583Y-2.6009
X2.8685Y-2.0696
X2.8896Y-1.5131
X2.9016Y-1.2185
X2.9016Y-1.3445
X2.9035Y-1.6378
X2.9355Y-2.07
X2.9355Y-2.3524
X2.956Y-2.3131
X2.9633Y-2.6011
T2
X0.8661Y-1.4567
X0.8661Y-1.6929
X0.8661Y-1.752
X0.8661Y-1.9882
X0.8661Y-2.0472
X0.8661Y-2.2835
X0.8661Y-2.3425
X0.8661Y-2.5787
X0.876Y-0.9843
X0.876Y-1.2795
X0.876Y-1.5748
X0.876Y-1.8701
X0.876Y-2.1654
X0.876Y-2.4606
X0.876Y-2.7559
X0.876Y-3.0512
X0.9079Y-0.9079
X0.9079Y-1.0606
X0.9079Y-1.2031
X0.9079Y-1.3559
X0.9079Y-1.4984
X0.9079Y-1.6512
X0.9079Y-1.7937
X0.9079Y-1.9465
X0.9079Y-2.089
X0.9079Y-2.2417
X0.9079Y-2.3843
X0.9079Y-2.537
X0.9079Y-2.6795
X0.9079Y-2.8323
X0.9079Y-2.9748
X0.9079Y-3.1276
X0.9843Y-0.876
X0.9843Y-1.0925
X0.9843Y-1.1713
X0.9843Y-1.3878
X0.9843Y-1.4665
X0.9843Y-1.6831
X0.9843Y-1.7618
X0.9843Y-1.9783
X0.9843Y-2.0571
X0.9843Y-2.2736
X0.9843Y-2.3524
X0.9843Y-2.5689
X0.9843Y-2.6476
X0.9843Y-2.8642
X0.9843Y-2.9429
X0.9843Y-3.1594
X1.0606Y-0.9079
X1.0606Y-1.0606
X1.0606Y-1.2031
X1.0606Y-1.3559
X1.0606Y-1.4984
X1.0606Y-1.6512
X1.0606Y-1.7937
X1.0606Y-1.9465
X1.0606Y-2.089
X1.0606Y-2.2417
X1.0606Y-2.3843
X1.0606Y-2.537
X1.0606Y-2.6795
X1.0606Y-2.8323
X1.0606Y-2.9748
X1.0606Y-3.1276
X1.0925Y-0.9843
X1.0925Y-1.2795
X1.0925Y-1.5748
X1.0925Y-1.8701
X1.0925Y-2.1654
X1.0925Y-2.4606
X1.0925Y-2.7559
X1.0925Y-3.0512
X1.1713Y-0.9843
X1.1713Y-1.2795
X1.1713Y-1.5748
X1.1713Y-1.8701
X1.1713Y-2.1654
X1.1713Y-2.4606
X1.1713Y-2.7559
X1.1713Y-3.0512
X1.2031Y-0.9079
X1.2031Y-1.0606
X1.2031Y-1.2031
X1.2031Y-1.3559
X1.2031Y-1.4984
X1.2031Y-1.6512
X1.2031Y-1.7937
X1.2031Y-1.9465
X1.2031Y-2.089
X1.2031Y-2.2417
X1.2031Y-2.3843
X1.2031Y-2.537
X1.2031Y-2.6795
X1.2031Y-2.8323
X1.2031Y-2.9748
X1.2031Y-3.1276
X1.2795Y-0.876
X1.2795Y-1.0925
X1.2795Y-1.1713
X1.2795Y-1.3878
X1.2795Y-1.4665
X1.2795Y-1.6831
X1.2795Y-1.7618
X1.2795Y-1.9783
X1.2795Y-2.0571
X1.2795Y-2.2736
X1.2795Y-2.3524
X1.2795Y-2.5689
X1.2795Y-2.6476
X1.2795Y-2.8642
X1.2795Y-2.9429
X1.2795Y-3.1594
X1.3559Y-0.9079
X1.3559Y-1.0606
X1.3559Y-1.2031
X1.3559Y-1.3559
X1.3559Y-1.4984
X1.3559Y-1.6512
X1.3559Y-1.7937
X1.3559Y-1.9465
X1.3559Y-2.089
X1.3559Y-2.2417
X1.3559Y-2.3843
X1.3559Y-2.537
X1.3559Y-2.6795
X1.3559Y-2.8323
X1.3559Y-2.9748
X1.3559Y-3.1276
X1.3878Y-0.9843
X1.3878Y-1.2795
X1.3878Y-1.5748
X1.3878Y-1.8701
X1.3878Y-2.1654
X1.3878Y-2.4606
X1.3878Y-2.7559
X1.3878Y-3.0512
X1.4665Y-0.9843
X1.4665Y-1.2795
X1.4665Y-1.5748
X1.4665Y-1.8701
X1.4665Y-2.1654
X1.4665Y-2.4606
X1.4665Y-2.7559
X1.4665Y-3.0512
X1.4984Y-0.9079
X1.4984Y-1.0606
X1.4984Y-1.2031
X1.4984Y-1.3559
X1.4984Y-1.4984
X1.4984Y-1.6512
X1.4984Y-1.7937
X1.4984Y-1.9465
X1.4984Y-2.089
X1.4984Y-2.2417
X1.4984Y-2.3843
X1.4984Y-2.537
X1.4984Y-2.6795
X1.4984Y-2.8323
X1.4984Y-2.9748
X1.4984Y-3.1276
X1.5748Y-0.876
X1.5748Y-1.0925
X1.5748Y-1.1713
X1.5748Y-1.3878
X1.5748Y-1.4665
X1.5748Y-1.6831
X1.5748Y-1.7618
X1.5748Y-1.9783
X1.5748Y-2.0571
X1.5748Y-2.2736
X1.5748Y-2.3524
X1.5748Y-2.5689
X1.5748Y-2.6476
X1.5748Y-2.8642
X1.5748Y-2.9429
X1.5748Y-3.1594
X1.6512Y-0.9079
X1.6512Y-1.0606
X1.6512Y-1.2031
X1.6512Y-1.3559
X1.6512Y-1.4984
X1.6512Y-1.6512
X1.6512Y-1.7937
X1.6512Y-1.9465
X1.6512Y-2.089
X1.6512Y-2.2417
X1.6512Y-2.3843
X1.6512Y-2.537
X1.6512Y-2.6795
X1.6512Y-2.8323
X1.6512Y-2.9748
X1.6512Y-3.1276
X1.6831Y-0.9843
X1.6831Y-1.2795
X1.6831Y-1.5748
X1.6831Y-1.8701
X1.6831Y-2.1654
X1.6831Y-2.4606
X1.6831Y-2.7559
X1.6831Y-3.0512
X1.7618Y-0.9843
X1.7618Y-1.2795
X1.7618Y-1.5748
X1.7618Y-1.8701
X1.7618Y-2.1654
X1.7618Y-2.4606
X1.7618Y-2.7559
X1.7618Y-3.0512
X1.7937Y-0.9079
X1.7937Y-1.0606
X1.7937Y-1.2031
X1.7937Y-1.3559
X1.7937Y-1.4984
X1.7937Y-1.6512
X1.7937Y-1.7937
X1.7937Y-1.9465
X1.7937Y-2.089
X1.7937Y-2.2417
X1.7937Y-2.3843
X1.7937Y-2.537
X1.7937Y-2.6795
X1.7937Y-2.8323
X1.7937Y-2.9748
X1.7937Y-3.1276
X1.8701Y-0.876
X1.8701Y-1.0925
X1.8701Y-1.1713
X1.8701Y-1.3878
X1.8701Y-1.4665
X1.8701Y-1.6831
X1.8701Y-1.7618
X1.8701Y-1.9783
X1.8701Y-2.0571
X1.8701Y-2.2736
X1.8701Y-2.3524
X1.8701Y-2.5689
X1.8701Y-2.6476
X1.8701Y-2.8642
X1.8701Y-2.9429
X1.8701Y-3.1594
X1.9465Y-0.9079
X1.9465Y-1.0606
X1.9465Y-1.2031
X1.9465Y-1.3559
X1.9465Y-1.4984
X1.9465Y-1.6512
X1.9465Y-1.7937
X1.9465Y-1.9465
X1.9465Y-2.089
X1.9465Y-2.2417
X1.9465Y-2.3843
X1.9465Y-2.537
X1.9465Y-2.6795
X1.9465Y-2.8323
X1.9465Y-2.9748
X1.9465Y-3.1276
X1.9783Y-0.9843
X1.9783Y-1.2795
X1.9783Y-1.5748
X1.9783Y-1.8701
X1.9783Y-2.1654
X1.9783Y-2.4606
X1.9783Y-2.7559
X1.9783Y-3.0512
X2.0571Y-0.9843
X2.0571Y-1.2795
X2.0571Y-1.5748
X2.0571Y-1.8701
X2.0571Y-2.1654
X2.0571Y-2.4606
X2.0571Y-2.7559
X2.0571Y-3.0512
X2.089Y-0.9079
X2.089Y-1.0606
X2.089Y-1.2031
X2.089Y-1.3559
X2.089Y-1.4984
X2.089Y-1.6512
X2.089Y-1.7937
X2.089Y-1.9465
X2.089Y-2.089
X2.089Y-2.2417
X2.089Y-2.3843
X2.089Y-2.537
X2.089Y-2.6795
X2.089Y-2.8323
X2.089Y-2.9748
X2.089Y-3.1276
X2.1654Y-0.876
X2.1654Y-1.0925
X2.1654Y-1.1713
X2.1654Y-1.3878
X2.1654Y-1.4665
X2.1654Y-1.6831
X2.1654Y-1.7618
X2.1654Y-1.9783
X2.1654Y-2.0571
X2.1654Y-2.2736
X2.1654Y-2.3524
X2.1654Y-2.5689
X2.1654Y-2.6476
X2.1654Y-2.8642
X2.1654Y-2.9429
X2.1654Y-3.1594
X2.2417Y-0.9079
X2.2417Y-1.0606
X2.2417Y-1.2031
X2.2417Y-1.3559
X2.2417Y-1.4984
X2.2417Y-1.6512
X2.2417Y-1.7937
X2.2417Y-1.9465
X2.2417Y-2.089
X2.2417Y-2.2417
X2.2417Y-2.3843
X2.2417Y-2.537
X2.2417Y-2.6795
X2.2417Y-2.8323
X2.2417Y-2.9748
X2.2417Y-3.1276
X2.2736Y-0.9843
X2.2736Y-1.2795
X2.2736Y-1.5748
X2.2736Y-1.8701
X2.2736Y-2.1654
X2.2736Y-2.4606
X2.2736Y-2.7559
X2.2736Y-3.0512
X2.3524Y-0.9843
X2.3524Y-1.2795
X2.3524Y-1.5748
X2.3524Y-1.8701
X2.3524Y-2.1654
X2.3524Y-2.4606
X2.3524Y-2.7559
X2.3524Y-3.0512
X2.3843Y-0.9079
X2.3843Y-1.0606
X2.3843Y-1.2031
X2.3843Y-1.3559
X2.3843Y-1.4984
X2.3843Y-1.6512
X2.3843Y-1.7937
X2.3843Y-1.9465
X2.3843Y-2.089
X2.3843Y-2.2417
X2.3843Y-2.3843
X2.3843Y-2.537
X2.3843Y-2.6795
X2.3843Y-2.8323
X2.3843Y-2.9748
X2.3843Y-3.1276
X2.4606Y-0.876
X2.4606Y-1.0925
X2.4606Y-1.1713
X2.4606Y-1.3878
X2.4606Y-1.4665
X2.4606Y-1.6831
X2.4606Y-1.7618
X2.4606Y-1.9783
X2.4606Y-2.0571
X2.4606Y-2.2736
X2.4606Y-2.3524
X2.4606Y-2.5689
X2.4606Y-2.6476
X2.4606Y-2.8642
X2.4606Y-2.9429
X2.4606Y-3.1594
X2.537Y-0.9079
X2.537Y-1.0606
X2.537Y-1.2031
X2.537Y-1.3559
X2.537Y-1.4984
X2.537Y-1.6512
X2.537Y-1.7937
X2.537Y-1.9465
X2.537Y-2.089
X2.537Y-2.2417
X2.537Y-2.3843
X2.537Y-2.537
X2.537Y-2.6795
X2.537Y-2.8323
X2.537Y-2.9748
X2.537Y-3.1276
X2.5689Y-0.9843
X2.5689Y-1.2795
X2.5689Y-1.5748
X2.5689Y-1.8701
X2.5689Y-2.1654
X2.5689Y-2.4606
X2.5689Y-2.7559
X2.5689Y-3.0512
X2.6476Y-0.9843
X2.6476Y-1.2795
X2.6476Y-1.5748
X2.6476Y-1.8701
X2.6476Y-2.1654
X2.6476Y-2.4606
X2.6476Y-2.7559
X2.6476Y-3.0512
X2.6795Y-0.9079
X2.6795Y-1.0606
X2.6795Y-1.2031
X2.6795Y-1.3559
X2.6795Y-1.4984
X2.6795Y-1.6512
X2.6795Y-1.7937
X2.6795Y-1.9465
X2.6795Y-2.089
X2.6795Y-2.2417
X2.6795Y-2.3843
X2.6795Y-2.537
X2.6795Y-2.6795
X2.6795Y-2.8323
X2.6795Y-2.9748
X2.6795Y-3.1276
X2.7559Y-0.876
X2.7559Y-1.0925
X2.7559Y-1.1713
X2.7559Y-1.3878
X2.7559Y-1.4665
X2.7559Y-1.6831
X2.7559Y-1.7618
X2.7559Y-1.9783
X2.7559Y-2.0571
X2.7559Y-2.2736
X2.7559Y-2.3524
X2.7559Y-2.5689
X2.7559Y-2.6476
X2.7559Y-2.8642
X2.7559Y-2.9429
X2.7559Y-3.1594
X2.8323Y-0.9079
X2.8323Y-1.0606
X2.8323Y-1.2031
X2.8323Y-1.3559
X2.8323Y-1.4984
X2.8323Y-1.6512
X2.8323Y-1.7937
X2.8323Y-1.9465
X2.8323Y-2.089
X2.8323Y-2.2417
X2.8323Y-2.3843
X2.8323Y-2.537
X2.8323Y-2.6795
X2.8323Y-2.8323
X2.8323Y-2.9748
X2.8323Y-3.1276
X2.8642Y-0.9843
X2.8642Y-1.2795
X2.8642Y-1.5748
X2.8642Y-1.8701
X2.8642Y-2.1654
X2.8642Y-2.4606
X2.8642Y-2.7559
X2.8642Y-3.0512
X2.9429Y-0.9843
X2.9429Y-1.2795
X2.9429Y-1.5748
X2.9429Y-1.8701
X2.9429Y-2.1654
X2.9429Y-2.4606
X2.9429Y-2.7559
X2.9429Y-3.0512
X2.9748Y-0.9079
X2.9748Y-1.0606
X2.9748Y-1.2031
X2.9748Y-1.3559
X2.9748Y-1.4984
X2.9748Y-1.6512
X2.9748Y-1.7937
X2.9748Y-1.9465
X2.9748Y-2.089
X2.9748Y-2.2417
X2.9748Y-2.3843
X2.9748Y-2.537
X2.9748Y-2.6795
X2.9748Y-2.8323
X2.9748Y-2.9748
X2.9748Y-3.1276
X3.0512Y-0.876
X3.0512Y-1.0925
X3.0512Y-1.1713
X3.0512Y-1.3878
X3.0512Y-1.4665
X3.0512Y-1.6831
X3.0512Y-1.7618
X3.0512Y-1.9783
X3.0512Y-2.0571
X3.0512Y-2.2736
X3.0512Y-2.3524
X3.0512Y-2.5689
X3.0512Y-2.6476
X3.0512Y-2.8642
X3.0512Y-2.9429
X3.0512Y-3.1594
X3.1276Y-0.9079
X3.1276Y-1.0606
X3.1276Y-1.2031
X3.1276Y-1.3559
X3.1276Y-1.4984
X3.1276Y-1.6512
X3.1276Y-1.7937
X3.1276Y-1.9465
X3.1276Y-2.089
X3.1276Y-2.2417
X3.1276Y-2.3843
X3.1276Y-2.537
X3.1276Y-2.6795
X3.1276Y-2.8323
X3.1276Y-2.9748
X3.1276Y-3.1276
X3.1594Y-0.9843
X3.1594Y-1.2795
X3.1594Y-1.5748
X3.1594Y-1.8701
X3.1594Y-2.1654
X3.1594Y-2.4606
X3.1594Y-2.7559
X3.1594Y-3.0512
X3.1693Y-1.4567
X3.1693Y-1.6929
X3.1693Y-1.752
X3.1693Y-1.9882
X3.1693Y-2.0472
X3.1693Y-2.2835
X3.1693Y-2.3425
X3.1693Y-2.5787
T3
X1.185Y-2.9055
X2.0177Y-1.185
X2.0177Y-3.1122
X3.1122Y-2.9035
T0
M30
