%TF.GenerationSoftware,KiCad,Pcbnew,7.0.1*%
%TF.CreationDate,2023-10-04T10:52:32-04:00*%
%TF.ProjectId,TacTile-L2,54616354-696c-4652-9d4c-322e6b696361,rev?*%
%TF.SameCoordinates,Original*%
%TF.FileFunction,Soldermask,Top*%
%TF.FilePolarity,Negative*%
%FSLAX46Y46*%
G04 Gerber Fmt 4.6, Leading zero omitted, Abs format (unit mm)*
G04 Created by KiCad (PCBNEW 7.0.1) date 2023-10-04 10:52:32*
%MOMM*%
%LPD*%
G01*
G04 APERTURE LIST*
%ADD10R,1.700000X1.700000*%
%ADD11O,1.700000X1.700000*%
%ADD12C,4.000000*%
%ADD13C,1.500000*%
%ADD14R,1.600000X1.600000*%
%ADD15O,1.600000X1.600000*%
G04 APERTURE END LIST*
D10*
%TO.C,J1*%
X48000000Y-35100000D03*
D11*
X45460000Y-35100000D03*
X42920000Y-35100000D03*
X40380000Y-35100000D03*
X37840000Y-35100000D03*
%TD*%
D12*
%TO.C,R2*%
X27750000Y-36250000D03*
D13*
X31750000Y-34750000D03*
X31750000Y-37750000D03*
%TD*%
D12*
%TO.C,R8*%
X27750000Y-81250000D03*
D13*
X31750000Y-79750000D03*
X31750000Y-82750000D03*
%TD*%
D12*
%TO.C,R6*%
X27750000Y-66250000D03*
D13*
X31750000Y-64750000D03*
X31750000Y-67750000D03*
%TD*%
D12*
%TO.C,R4*%
X27750000Y-51250000D03*
D13*
X31750000Y-49750000D03*
X31750000Y-52750000D03*
%TD*%
D12*
%TO.C,R7*%
X27750000Y-73750000D03*
D13*
X31750000Y-72250000D03*
X31750000Y-75250000D03*
%TD*%
D12*
%TO.C,R3*%
X27750000Y-43750000D03*
D13*
X31750000Y-42250000D03*
X31750000Y-45250000D03*
%TD*%
D14*
%TO.C,U1*%
X38000000Y-46125000D03*
D15*
X38000000Y-48665000D03*
X38000000Y-51205000D03*
X38000000Y-53745000D03*
X38000000Y-56285000D03*
X38000000Y-58825000D03*
X38000000Y-61365000D03*
X38000000Y-63905000D03*
X45620000Y-63905000D03*
X45620000Y-61365000D03*
X45620000Y-58825000D03*
X45620000Y-56285000D03*
X45620000Y-53745000D03*
X45620000Y-51205000D03*
X45620000Y-48665000D03*
X45620000Y-46125000D03*
%TD*%
D12*
%TO.C,R1*%
X27750000Y-28750000D03*
D13*
X31750000Y-27250000D03*
X31750000Y-30250000D03*
%TD*%
D12*
%TO.C,R5*%
X27750000Y-58750000D03*
D13*
X31750000Y-57250000D03*
X31750000Y-60250000D03*
%TD*%
D10*
%TO.C,J2*%
X48000000Y-80875000D03*
D11*
X45460000Y-80875000D03*
X42920000Y-80875000D03*
X40380000Y-80875000D03*
X37840000Y-80875000D03*
%TD*%
M02*
