%TF.GenerationSoftware,KiCad,Pcbnew,7.0.1*%
%TF.CreationDate,2023-08-30T09:29:13-04:00*%
%TF.ProjectId,TacTile-L2,54616354-696c-4652-9d4c-322e6b696361,rev?*%
%TF.SameCoordinates,Original*%
%TF.FileFunction,Copper,L1,Top*%
%TF.FilePolarity,Positive*%
%FSLAX46Y46*%
G04 Gerber Fmt 4.6, Leading zero omitted, Abs format (unit mm)*
G04 Created by KiCad (PCBNEW 7.0.1) date 2023-08-30 09:29:13*
%MOMM*%
%LPD*%
G01*
G04 APERTURE LIST*
%TA.AperFunction,ComponentPad*%
%ADD10R,1.700000X1.700000*%
%TD*%
%TA.AperFunction,ComponentPad*%
%ADD11O,1.700000X1.700000*%
%TD*%
%TA.AperFunction,ComponentPad*%
%ADD12C,1.500000*%
%TD*%
%TA.AperFunction,ComponentPad*%
%ADD13R,1.600000X1.600000*%
%TD*%
%TA.AperFunction,ComponentPad*%
%ADD14O,1.600000X1.600000*%
%TD*%
%TA.AperFunction,Conductor*%
%ADD15C,0.250000*%
%TD*%
G04 APERTURE END LIST*
D10*
%TO.P,J1,1,Pin_1*%
%TO.N,/OUT*%
X48000000Y-35100000D03*
D11*
%TO.P,J1,2,Pin_2*%
%TO.N,/SIN*%
X45460000Y-35100000D03*
%TO.P,J1,3,Pin_3*%
%TO.N,/CLK*%
X42920000Y-35100000D03*
%TO.P,J1,4,Pin_4*%
%TO.N,/GND*%
X40380000Y-35100000D03*
%TO.P,J1,5,Pin_5*%
%TO.N,/VCC*%
X37840000Y-35100000D03*
%TD*%
D12*
%TO.P,R2,1*%
%TO.N,/OUT*%
X31750000Y-34750000D03*
%TO.P,R2,2*%
%TO.N,Net-(U1-QB)*%
X31750000Y-37750000D03*
%TD*%
%TO.P,R8,1*%
%TO.N,/OUT*%
X31750000Y-79750000D03*
%TO.P,R8,2*%
%TO.N,Net-(U1-QH)*%
X31750000Y-82750000D03*
%TD*%
%TO.P,R6,1*%
%TO.N,/OUT*%
X31750000Y-64750000D03*
%TO.P,R6,2*%
%TO.N,Net-(U1-QF)*%
X31750000Y-67750000D03*
%TD*%
%TO.P,R4,1*%
%TO.N,/OUT*%
X31750000Y-49750000D03*
%TO.P,R4,2*%
%TO.N,Net-(U1-QD)*%
X31750000Y-52750000D03*
%TD*%
%TO.P,R7,1*%
%TO.N,/OUT*%
X31750000Y-72250000D03*
%TO.P,R7,2*%
%TO.N,Net-(U1-QG)*%
X31750000Y-75250000D03*
%TD*%
%TO.P,R3,1*%
%TO.N,/OUT*%
X31750000Y-42250000D03*
%TO.P,R3,2*%
%TO.N,Net-(U1-QC)*%
X31750000Y-45250000D03*
%TD*%
D13*
%TO.P,U1,1,QB*%
%TO.N,Net-(U1-QB)*%
X38000000Y-46125000D03*
D14*
%TO.P,U1,2,QC*%
%TO.N,Net-(U1-QC)*%
X38000000Y-48665000D03*
%TO.P,U1,3,QD*%
%TO.N,Net-(U1-QD)*%
X38000000Y-51205000D03*
%TO.P,U1,4,QE*%
%TO.N,Net-(U1-QE)*%
X38000000Y-53745000D03*
%TO.P,U1,5,QF*%
%TO.N,Net-(U1-QF)*%
X38000000Y-56285000D03*
%TO.P,U1,6,QG*%
%TO.N,Net-(U1-QG)*%
X38000000Y-58825000D03*
%TO.P,U1,7,QH*%
%TO.N,Net-(U1-QH)*%
X38000000Y-61365000D03*
%TO.P,U1,8,GND*%
%TO.N,/GND*%
X38000000Y-63905000D03*
%TO.P,U1,9,QH'*%
%TO.N,/SOUT*%
X45620000Y-63905000D03*
%TO.P,U1,10,~{SRCLR}*%
%TO.N,/VCC*%
X45620000Y-61365000D03*
%TO.P,U1,11,SRCLK*%
%TO.N,/CLK*%
X45620000Y-58825000D03*
%TO.P,U1,12,RCLK*%
X45620000Y-56285000D03*
%TO.P,U1,13,~{OE}*%
%TO.N,/GND*%
X45620000Y-53745000D03*
%TO.P,U1,14,SER*%
%TO.N,/SIN*%
X45620000Y-51205000D03*
%TO.P,U1,15,QA*%
%TO.N,Net-(U1-QA)*%
X45620000Y-48665000D03*
%TO.P,U1,16,VCC*%
%TO.N,/VCC*%
X45620000Y-46125000D03*
%TD*%
D12*
%TO.P,R1,1*%
%TO.N,/OUT*%
X31750000Y-27250000D03*
%TO.P,R1,2*%
%TO.N,Net-(U1-QA)*%
X31750000Y-30250000D03*
%TD*%
%TO.P,R5,1*%
%TO.N,/OUT*%
X31750000Y-57250000D03*
%TO.P,R5,2*%
%TO.N,Net-(U1-QE)*%
X31750000Y-60250000D03*
%TD*%
D10*
%TO.P,J2,1,Pin_1*%
%TO.N,/OUT*%
X48000000Y-80875000D03*
D11*
%TO.P,J2,2,Pin_2*%
%TO.N,/SOUT*%
X45460000Y-80875000D03*
%TO.P,J2,3,Pin_3*%
%TO.N,/CLK*%
X42920000Y-80875000D03*
%TO.P,J2,4,Pin_4*%
%TO.N,/GND*%
X40380000Y-80875000D03*
%TO.P,J2,5,Pin_5*%
%TO.N,/VCC*%
X37840000Y-80875000D03*
%TD*%
D15*
%TO.N,/GND*%
X40380000Y-35100000D02*
X40380000Y-48505000D01*
X40380000Y-66285000D02*
X38000000Y-63905000D01*
X40380000Y-48505000D02*
X45620000Y-53745000D01*
X44495000Y-57410000D02*
X44495000Y-54870000D01*
X38000000Y-63905000D02*
X44495000Y-57410000D01*
X40380000Y-80875000D02*
X40380000Y-66285000D01*
X44495000Y-54870000D02*
X45620000Y-53745000D01*
%TO.N,/CLK*%
X45620000Y-56285000D02*
X45620000Y-58825000D01*
X45154009Y-52330000D02*
X42920000Y-50095991D01*
X45795991Y-52330000D02*
X45154009Y-52330000D01*
X45620000Y-56285000D02*
X46745000Y-55160000D01*
X46745000Y-53279009D02*
X45795991Y-52330000D01*
X42920000Y-50095991D02*
X42920000Y-35100000D01*
X42920000Y-61525000D02*
X42920000Y-80875000D01*
X45620000Y-58825000D02*
X42920000Y-61525000D01*
X46745000Y-55160000D02*
X46745000Y-53279009D01*
%TO.N,/SIN*%
X46745000Y-36385000D02*
X46745000Y-50080000D01*
X45460000Y-35100000D02*
X46745000Y-36385000D01*
X46745000Y-50080000D02*
X45620000Y-51205000D01*
%TO.N,/SOUT*%
X45460000Y-64065000D02*
X45620000Y-63905000D01*
X45460000Y-80875000D02*
X45460000Y-64065000D01*
%TD*%
%TA.AperFunction,Conductor*%
%TO.N,/OUT*%
G36*
X49937500Y-25017113D02*
G01*
X49982887Y-25062500D01*
X49999500Y-25124500D01*
X49999500Y-84875500D01*
X49982887Y-84937500D01*
X49937500Y-84982887D01*
X49875500Y-84999500D01*
X25124500Y-84999500D01*
X25062500Y-84982887D01*
X25017113Y-84937500D01*
X25000500Y-84875500D01*
X25000500Y-82749999D01*
X30494722Y-82749999D01*
X30513792Y-82967974D01*
X30513793Y-82967977D01*
X30570425Y-83179330D01*
X30662898Y-83377639D01*
X30788402Y-83556877D01*
X30943123Y-83711598D01*
X31122361Y-83837102D01*
X31320670Y-83929575D01*
X31532023Y-83986207D01*
X31750000Y-84005277D01*
X31967977Y-83986207D01*
X32179330Y-83929575D01*
X32377639Y-83837102D01*
X32556877Y-83711598D01*
X32711598Y-83556877D01*
X32837102Y-83377639D01*
X32929575Y-83179330D01*
X32986207Y-82967977D01*
X33005277Y-82750000D01*
X32986207Y-82532023D01*
X32929575Y-82320670D01*
X32837102Y-82122362D01*
X32711598Y-81943123D01*
X32556877Y-81788402D01*
X32377639Y-81662898D01*
X32286205Y-81620261D01*
X32179331Y-81570425D01*
X31967974Y-81513792D01*
X31750000Y-81494722D01*
X31532025Y-81513792D01*
X31320668Y-81570425D01*
X31122361Y-81662898D01*
X30943122Y-81788402D01*
X30788402Y-81943122D01*
X30662898Y-82122361D01*
X30570425Y-82320668D01*
X30513792Y-82532025D01*
X30494722Y-82749999D01*
X25000500Y-82749999D01*
X25000500Y-81306328D01*
X25495709Y-81306328D01*
X25525925Y-81529388D01*
X25561211Y-81637988D01*
X25595483Y-81743464D01*
X25702148Y-81941681D01*
X25842492Y-82117666D01*
X26012004Y-82265765D01*
X26012006Y-82265766D01*
X26205237Y-82381216D01*
X26323214Y-82425493D01*
X26415976Y-82460307D01*
X26637453Y-82500500D01*
X26806153Y-82500500D01*
X26806155Y-82500500D01*
X26974188Y-82485377D01*
X27191170Y-82425493D01*
X27393973Y-82327829D01*
X27576078Y-82195522D01*
X27731632Y-82032825D01*
X27855635Y-81844968D01*
X27944103Y-81637988D01*
X27994191Y-81418537D01*
X28004290Y-81193670D01*
X27974075Y-80970613D01*
X27916405Y-80793124D01*
X31060426Y-80793124D01*
X31060427Y-80793125D01*
X31122610Y-80836666D01*
X31320840Y-80929102D01*
X31532113Y-80985712D01*
X31750000Y-81004775D01*
X31967886Y-80985712D01*
X32179159Y-80929102D01*
X32295180Y-80875000D01*
X36484340Y-80875000D01*
X36504936Y-81110407D01*
X36527247Y-81193671D01*
X36566097Y-81338663D01*
X36665965Y-81552830D01*
X36801505Y-81746401D01*
X36968599Y-81913495D01*
X37162170Y-82049035D01*
X37376337Y-82148903D01*
X37604592Y-82210063D01*
X37840000Y-82230659D01*
X38075408Y-82210063D01*
X38303663Y-82148903D01*
X38517830Y-82049035D01*
X38711401Y-81913495D01*
X38878495Y-81746401D01*
X39008426Y-81560839D01*
X39052743Y-81521975D01*
X39110000Y-81507964D01*
X39167257Y-81521975D01*
X39211573Y-81560839D01*
X39341505Y-81746401D01*
X39508599Y-81913495D01*
X39702170Y-82049035D01*
X39916337Y-82148903D01*
X40144592Y-82210063D01*
X40380000Y-82230659D01*
X40615408Y-82210063D01*
X40843663Y-82148903D01*
X41057830Y-82049035D01*
X41251401Y-81913495D01*
X41418495Y-81746401D01*
X41548426Y-81560839D01*
X41592743Y-81521975D01*
X41650000Y-81507964D01*
X41707257Y-81521975D01*
X41751573Y-81560839D01*
X41881505Y-81746401D01*
X42048599Y-81913495D01*
X42242170Y-82049035D01*
X42456337Y-82148903D01*
X42684592Y-82210063D01*
X42920000Y-82230659D01*
X43155408Y-82210063D01*
X43383663Y-82148903D01*
X43597830Y-82049035D01*
X43791401Y-81913495D01*
X43958495Y-81746401D01*
X44088426Y-81560839D01*
X44132743Y-81521975D01*
X44190000Y-81507964D01*
X44247257Y-81521975D01*
X44291573Y-81560839D01*
X44421505Y-81746401D01*
X44588599Y-81913495D01*
X44782170Y-82049035D01*
X44996337Y-82148903D01*
X45224592Y-82210063D01*
X45460000Y-82230659D01*
X45695408Y-82210063D01*
X45923663Y-82148903D01*
X46137830Y-82049035D01*
X46331401Y-81913495D01*
X46453717Y-81791178D01*
X46506460Y-81759885D01*
X46567752Y-81757696D01*
X46622597Y-81785149D01*
X46657577Y-81835528D01*
X46706647Y-81967088D01*
X46792811Y-82082188D01*
X46907910Y-82168352D01*
X47042624Y-82218597D01*
X47102176Y-82225000D01*
X47750000Y-82225000D01*
X47750000Y-81125000D01*
X48250000Y-81125000D01*
X48250000Y-82225000D01*
X48897824Y-82225000D01*
X48957375Y-82218597D01*
X49092089Y-82168352D01*
X49207188Y-82082188D01*
X49293352Y-81967089D01*
X49343597Y-81832375D01*
X49350000Y-81772824D01*
X49350000Y-81125000D01*
X48250000Y-81125000D01*
X47750000Y-81125000D01*
X47750000Y-79525000D01*
X48250000Y-79525000D01*
X48250000Y-80625000D01*
X49350000Y-80625000D01*
X49350000Y-79977176D01*
X49343597Y-79917624D01*
X49293352Y-79782910D01*
X49207188Y-79667811D01*
X49092089Y-79581647D01*
X48957375Y-79531402D01*
X48897824Y-79525000D01*
X48250000Y-79525000D01*
X47750000Y-79525000D01*
X47102176Y-79525000D01*
X47042624Y-79531402D01*
X46907910Y-79581647D01*
X46792811Y-79667811D01*
X46706646Y-79782913D01*
X46657576Y-79914472D01*
X46622597Y-79964850D01*
X46567753Y-79992303D01*
X46506460Y-79990114D01*
X46453714Y-79958818D01*
X46331404Y-79836508D01*
X46331401Y-79836505D01*
X46138374Y-79701346D01*
X46099511Y-79657030D01*
X46085500Y-79599773D01*
X46085500Y-65201873D01*
X46104919Y-65135248D01*
X46157093Y-65089492D01*
X46272734Y-65035568D01*
X46459139Y-64905047D01*
X46620047Y-64744139D01*
X46750568Y-64557734D01*
X46846739Y-64351496D01*
X46905635Y-64131692D01*
X46925468Y-63905000D01*
X46905635Y-63678308D01*
X46846739Y-63458504D01*
X46750568Y-63252266D01*
X46620047Y-63065861D01*
X46620046Y-63065859D01*
X46459140Y-62904953D01*
X46272733Y-62774431D01*
X46214725Y-62747382D01*
X46162549Y-62701625D01*
X46143129Y-62635000D01*
X46162549Y-62568375D01*
X46214725Y-62522618D01*
X46272734Y-62495568D01*
X46459139Y-62365047D01*
X46620047Y-62204139D01*
X46750568Y-62017734D01*
X46846739Y-61811496D01*
X46905635Y-61591692D01*
X46925468Y-61365000D01*
X46905635Y-61138308D01*
X46846739Y-60918504D01*
X46750568Y-60712266D01*
X46727506Y-60679330D01*
X46620046Y-60525859D01*
X46459140Y-60364953D01*
X46272733Y-60234431D01*
X46214725Y-60207382D01*
X46162549Y-60161625D01*
X46143129Y-60095000D01*
X46162549Y-60028375D01*
X46214725Y-59982618D01*
X46272734Y-59955568D01*
X46459139Y-59825047D01*
X46620047Y-59664139D01*
X46750568Y-59477734D01*
X46846739Y-59271496D01*
X46905635Y-59051692D01*
X46925468Y-58825000D01*
X46905635Y-58598308D01*
X46846739Y-58378504D01*
X46750568Y-58172266D01*
X46670782Y-58058319D01*
X46620046Y-57985859D01*
X46459140Y-57824953D01*
X46298377Y-57712387D01*
X46259511Y-57668069D01*
X46245500Y-57610812D01*
X46245500Y-57499188D01*
X46259511Y-57441931D01*
X46298377Y-57397613D01*
X46459140Y-57285046D01*
X46620046Y-57124140D01*
X46637265Y-57099548D01*
X46750568Y-56937734D01*
X46846739Y-56731496D01*
X46905635Y-56511692D01*
X46925468Y-56285000D01*
X46905635Y-56058308D01*
X46887319Y-55989951D01*
X46887319Y-55925763D01*
X46919411Y-55870178D01*
X47128789Y-55660800D01*
X47144885Y-55647906D01*
X47146873Y-55645787D01*
X47146877Y-55645786D01*
X47192948Y-55596723D01*
X47195566Y-55594023D01*
X47215120Y-55574471D01*
X47217581Y-55571298D01*
X47225156Y-55562427D01*
X47255062Y-55530582D01*
X47264717Y-55513018D01*
X47275394Y-55496764D01*
X47287673Y-55480936D01*
X47305018Y-55440852D01*
X47310160Y-55430356D01*
X47331197Y-55392092D01*
X47336179Y-55372684D01*
X47342481Y-55354280D01*
X47350437Y-55335896D01*
X47357269Y-55292752D01*
X47359633Y-55281338D01*
X47370500Y-55239019D01*
X47370500Y-55218984D01*
X47372027Y-55199585D01*
X47372068Y-55199321D01*
X47375160Y-55179804D01*
X47371050Y-55136325D01*
X47370500Y-55124656D01*
X47370500Y-53361749D01*
X47372763Y-53341245D01*
X47370561Y-53271153D01*
X47370500Y-53267259D01*
X47370500Y-53239666D01*
X47370500Y-53239659D01*
X47369995Y-53235662D01*
X47369080Y-53224032D01*
X47367709Y-53180381D01*
X47362119Y-53161143D01*
X47358174Y-53142091D01*
X47355664Y-53122217D01*
X47343805Y-53092266D01*
X47339578Y-53081590D01*
X47335805Y-53070569D01*
X47323617Y-53028619D01*
X47313421Y-53011378D01*
X47304863Y-52993911D01*
X47297486Y-52975277D01*
X47271798Y-52939921D01*
X47265409Y-52930193D01*
X47243170Y-52892588D01*
X47229006Y-52878424D01*
X47216369Y-52863629D01*
X47204595Y-52847423D01*
X47204594Y-52847422D01*
X47170935Y-52819577D01*
X47162305Y-52811723D01*
X46595065Y-52244483D01*
X46562971Y-52188895D01*
X46562972Y-52124707D01*
X46595064Y-52069121D01*
X46620047Y-52044139D01*
X46750568Y-51857734D01*
X46846739Y-51651496D01*
X46905635Y-51431692D01*
X46925468Y-51205000D01*
X46905635Y-50978308D01*
X46887319Y-50909951D01*
X46887319Y-50845763D01*
X46919411Y-50790178D01*
X47128789Y-50580800D01*
X47144885Y-50567906D01*
X47146873Y-50565787D01*
X47146877Y-50565786D01*
X47192948Y-50516723D01*
X47195566Y-50514023D01*
X47215120Y-50494471D01*
X47217581Y-50491298D01*
X47225156Y-50482427D01*
X47255062Y-50450582D01*
X47264717Y-50433018D01*
X47275394Y-50416764D01*
X47287673Y-50400936D01*
X47305018Y-50360852D01*
X47310160Y-50350356D01*
X47331197Y-50312092D01*
X47336179Y-50292684D01*
X47342481Y-50274280D01*
X47350437Y-50255896D01*
X47357269Y-50212752D01*
X47359633Y-50201338D01*
X47370500Y-50159019D01*
X47370500Y-50138984D01*
X47372027Y-50119585D01*
X47374566Y-50103553D01*
X47375160Y-50099804D01*
X47371050Y-50056325D01*
X47370500Y-50044656D01*
X47370500Y-36574000D01*
X47387113Y-36512000D01*
X47432500Y-36466613D01*
X47494500Y-36450000D01*
X47750000Y-36450000D01*
X47750000Y-35350000D01*
X48250000Y-35350000D01*
X48250000Y-36450000D01*
X48897824Y-36450000D01*
X48957375Y-36443597D01*
X49092089Y-36393352D01*
X49207188Y-36307188D01*
X49293352Y-36192089D01*
X49343597Y-36057375D01*
X49350000Y-35997824D01*
X49350000Y-35350000D01*
X48250000Y-35350000D01*
X47750000Y-35350000D01*
X47750000Y-33750000D01*
X48250000Y-33750000D01*
X48250000Y-34850000D01*
X49350000Y-34850000D01*
X49350000Y-34202176D01*
X49343597Y-34142624D01*
X49293352Y-34007910D01*
X49207188Y-33892811D01*
X49092089Y-33806647D01*
X48957375Y-33756402D01*
X48897824Y-33750000D01*
X48250000Y-33750000D01*
X47750000Y-33750000D01*
X47102176Y-33750000D01*
X47042624Y-33756402D01*
X46907910Y-33806647D01*
X46792811Y-33892811D01*
X46706646Y-34007913D01*
X46657576Y-34139472D01*
X46622597Y-34189850D01*
X46567753Y-34217303D01*
X46506460Y-34215114D01*
X46453714Y-34183818D01*
X46331404Y-34061508D01*
X46331401Y-34061505D01*
X46137830Y-33925965D01*
X45923663Y-33826097D01*
X45851074Y-33806647D01*
X45695407Y-33764936D01*
X45460000Y-33744340D01*
X45224592Y-33764936D01*
X44996336Y-33826097D01*
X44782170Y-33925965D01*
X44588598Y-34061505D01*
X44421505Y-34228598D01*
X44291575Y-34414159D01*
X44247257Y-34453025D01*
X44190000Y-34467036D01*
X44132743Y-34453025D01*
X44088425Y-34414159D01*
X44073449Y-34392771D01*
X43958495Y-34228599D01*
X43791401Y-34061505D01*
X43597830Y-33925965D01*
X43383663Y-33826097D01*
X43311074Y-33806647D01*
X43155407Y-33764936D01*
X42920000Y-33744340D01*
X42684592Y-33764936D01*
X42456336Y-33826097D01*
X42242170Y-33925965D01*
X42048598Y-34061505D01*
X41881505Y-34228598D01*
X41751575Y-34414159D01*
X41707257Y-34453025D01*
X41650000Y-34467036D01*
X41592743Y-34453025D01*
X41548425Y-34414159D01*
X41533449Y-34392771D01*
X41418495Y-34228599D01*
X41251401Y-34061505D01*
X41057830Y-33925965D01*
X40843663Y-33826097D01*
X40771074Y-33806647D01*
X40615407Y-33764936D01*
X40380000Y-33744340D01*
X40144592Y-33764936D01*
X39916336Y-33826097D01*
X39702170Y-33925965D01*
X39508598Y-34061505D01*
X39341505Y-34228598D01*
X39211575Y-34414159D01*
X39167257Y-34453025D01*
X39110000Y-34467036D01*
X39052743Y-34453025D01*
X39008425Y-34414159D01*
X38993449Y-34392771D01*
X38878495Y-34228599D01*
X38711401Y-34061505D01*
X38517830Y-33925965D01*
X38303663Y-33826097D01*
X38231074Y-33806647D01*
X38075407Y-33764936D01*
X37840000Y-33744340D01*
X37604592Y-33764936D01*
X37376336Y-33826097D01*
X37162170Y-33925965D01*
X36968598Y-34061505D01*
X36801505Y-34228598D01*
X36665965Y-34422170D01*
X36566097Y-34636336D01*
X36504936Y-34864592D01*
X36484340Y-35100000D01*
X36504936Y-35335407D01*
X36532847Y-35439571D01*
X36566097Y-35563663D01*
X36665965Y-35777830D01*
X36801505Y-35971401D01*
X36968599Y-36138495D01*
X37162170Y-36274035D01*
X37376337Y-36373903D01*
X37604592Y-36435063D01*
X37840000Y-36455659D01*
X38075408Y-36435063D01*
X38303663Y-36373903D01*
X38517830Y-36274035D01*
X38711401Y-36138495D01*
X38878495Y-35971401D01*
X39008426Y-35785839D01*
X39052743Y-35746975D01*
X39110000Y-35732964D01*
X39167257Y-35746975D01*
X39211573Y-35785839D01*
X39341505Y-35971401D01*
X39508599Y-36138495D01*
X39701625Y-36273653D01*
X39740489Y-36317970D01*
X39754500Y-36375227D01*
X39754500Y-48422256D01*
X39752235Y-48442762D01*
X39754439Y-48512873D01*
X39754500Y-48516768D01*
X39754500Y-48544349D01*
X39755003Y-48548334D01*
X39755918Y-48559967D01*
X39757290Y-48603626D01*
X39762879Y-48622860D01*
X39766825Y-48641916D01*
X39769335Y-48661792D01*
X39785414Y-48702404D01*
X39789197Y-48713451D01*
X39801382Y-48755391D01*
X39811580Y-48772635D01*
X39820136Y-48790100D01*
X39827514Y-48808732D01*
X39827515Y-48808733D01*
X39853180Y-48844059D01*
X39859593Y-48853822D01*
X39881826Y-48891416D01*
X39881829Y-48891419D01*
X39881830Y-48891420D01*
X39895995Y-48905585D01*
X39908627Y-48920375D01*
X39920406Y-48936587D01*
X39954058Y-48964426D01*
X39962699Y-48972289D01*
X44320586Y-53330177D01*
X44352680Y-53385764D01*
X44352680Y-53449950D01*
X44334364Y-53518307D01*
X44314531Y-53744999D01*
X44334364Y-53971690D01*
X44352680Y-54040047D01*
X44352680Y-54104234D01*
X44320586Y-54159821D01*
X44111208Y-54369199D01*
X44095110Y-54382096D01*
X44047096Y-54433225D01*
X44044391Y-54436017D01*
X44024874Y-54455534D01*
X44022415Y-54458705D01*
X44014842Y-54467572D01*
X43984935Y-54499420D01*
X43975285Y-54516974D01*
X43964609Y-54533228D01*
X43952326Y-54549063D01*
X43934975Y-54589158D01*
X43929838Y-54599644D01*
X43908802Y-54637907D01*
X43903821Y-54657309D01*
X43897520Y-54675711D01*
X43889561Y-54694102D01*
X43882728Y-54737242D01*
X43880360Y-54748674D01*
X43869500Y-54790978D01*
X43869500Y-54811016D01*
X43867973Y-54830415D01*
X43864840Y-54850194D01*
X43868950Y-54893675D01*
X43869500Y-54905344D01*
X43869500Y-57099548D01*
X43860061Y-57147001D01*
X43833181Y-57187229D01*
X39512819Y-61507588D01*
X39461392Y-61538489D01*
X39401477Y-61541629D01*
X39347102Y-61516273D01*
X39310995Y-61468357D01*
X39301610Y-61409099D01*
X39305468Y-61364999D01*
X39290289Y-61191507D01*
X39285635Y-61138308D01*
X39226739Y-60918504D01*
X39130568Y-60712266D01*
X39107506Y-60679330D01*
X39000046Y-60525859D01*
X38839140Y-60364953D01*
X38652733Y-60234431D01*
X38594725Y-60207382D01*
X38542549Y-60161625D01*
X38523129Y-60095000D01*
X38542549Y-60028375D01*
X38594725Y-59982618D01*
X38652734Y-59955568D01*
X38839139Y-59825047D01*
X39000047Y-59664139D01*
X39130568Y-59477734D01*
X39226739Y-59271496D01*
X39285635Y-59051692D01*
X39305468Y-58825000D01*
X39285635Y-58598308D01*
X39226739Y-58378504D01*
X39130568Y-58172266D01*
X39050782Y-58058319D01*
X39000046Y-57985859D01*
X38839140Y-57824953D01*
X38652736Y-57694433D01*
X38604993Y-57672170D01*
X38594722Y-57667380D01*
X38542548Y-57621623D01*
X38523129Y-57554997D01*
X38542549Y-57488372D01*
X38594721Y-57442619D01*
X38652734Y-57415568D01*
X38839139Y-57285047D01*
X39000047Y-57124139D01*
X39130568Y-56937734D01*
X39226739Y-56731496D01*
X39285635Y-56511692D01*
X39305468Y-56285000D01*
X39285635Y-56058308D01*
X39226739Y-55838504D01*
X39130568Y-55632266D01*
X39104729Y-55595364D01*
X39000046Y-55445859D01*
X38839140Y-55284953D01*
X38652733Y-55154431D01*
X38594725Y-55127382D01*
X38542549Y-55081625D01*
X38523129Y-55015000D01*
X38542549Y-54948375D01*
X38594725Y-54902618D01*
X38652734Y-54875568D01*
X38839139Y-54745047D01*
X39000047Y-54584139D01*
X39130568Y-54397734D01*
X39226739Y-54191496D01*
X39285635Y-53971692D01*
X39305468Y-53745000D01*
X39285635Y-53518308D01*
X39226739Y-53298504D01*
X39130568Y-53092266D01*
X39086002Y-53028619D01*
X39000046Y-52905859D01*
X38839140Y-52744953D01*
X38652736Y-52614433D01*
X38594723Y-52587381D01*
X38542548Y-52541623D01*
X38523129Y-52474997D01*
X38542549Y-52408372D01*
X38594721Y-52362619D01*
X38652734Y-52335568D01*
X38839139Y-52205047D01*
X39000047Y-52044139D01*
X39130568Y-51857734D01*
X39226739Y-51651496D01*
X39285635Y-51431692D01*
X39305468Y-51205000D01*
X39285635Y-50978308D01*
X39226739Y-50758504D01*
X39130568Y-50552266D01*
X39104729Y-50515364D01*
X39000046Y-50365859D01*
X38839140Y-50204953D01*
X38652733Y-50074431D01*
X38594725Y-50047382D01*
X38542549Y-50001625D01*
X38523129Y-49935000D01*
X38542549Y-49868375D01*
X38594725Y-49822618D01*
X38652734Y-49795568D01*
X38839139Y-49665047D01*
X39000047Y-49504139D01*
X39130568Y-49317734D01*
X39226739Y-49111496D01*
X39285635Y-48891692D01*
X39305468Y-48665000D01*
X39285635Y-48438308D01*
X39226739Y-48218504D01*
X39130568Y-48012266D01*
X39000047Y-47825861D01*
X39000046Y-47825859D01*
X38839140Y-47664953D01*
X38814537Y-47647726D01*
X38775399Y-47602884D01*
X38761666Y-47544970D01*
X38776500Y-47487328D01*
X38816485Y-47443239D01*
X38872406Y-47422861D01*
X38907483Y-47419091D01*
X39042331Y-47368796D01*
X39157546Y-47282546D01*
X39243796Y-47167331D01*
X39294091Y-47032483D01*
X39300500Y-46972873D01*
X39300499Y-45277128D01*
X39294091Y-45217517D01*
X39243796Y-45082669D01*
X39157546Y-44967454D01*
X39042331Y-44881204D01*
X38907483Y-44830909D01*
X38847873Y-44824500D01*
X38847869Y-44824500D01*
X37152130Y-44824500D01*
X37092515Y-44830909D01*
X36957669Y-44881204D01*
X36842454Y-44967454D01*
X36756204Y-45082668D01*
X36705909Y-45217516D01*
X36699500Y-45277130D01*
X36699500Y-46972869D01*
X36705909Y-47032483D01*
X36756204Y-47167331D01*
X36842454Y-47282546D01*
X36957669Y-47368796D01*
X37092517Y-47419091D01*
X37127594Y-47422862D01*
X37183513Y-47443239D01*
X37223497Y-47487327D01*
X37238332Y-47544968D01*
X37224600Y-47602881D01*
X37185464Y-47647724D01*
X37160860Y-47664952D01*
X36999953Y-47825859D01*
X36869432Y-48012264D01*
X36773261Y-48218502D01*
X36714364Y-48438310D01*
X36694531Y-48665000D01*
X36714364Y-48891689D01*
X36773261Y-49111497D01*
X36869432Y-49317735D01*
X36999953Y-49504140D01*
X37160859Y-49665046D01*
X37347263Y-49795566D01*
X37347266Y-49795568D01*
X37405275Y-49822618D01*
X37457450Y-49868375D01*
X37476869Y-49935000D01*
X37457450Y-50001625D01*
X37405275Y-50047382D01*
X37347263Y-50074433D01*
X37160859Y-50204953D01*
X36999953Y-50365859D01*
X36869432Y-50552264D01*
X36773261Y-50758502D01*
X36714364Y-50978310D01*
X36694531Y-51205000D01*
X36714364Y-51431689D01*
X36773261Y-51651497D01*
X36869432Y-51857735D01*
X36999953Y-52044140D01*
X37160859Y-52205046D01*
X37325986Y-52320668D01*
X37347266Y-52335568D01*
X37405275Y-52362618D01*
X37457450Y-52408375D01*
X37476869Y-52475000D01*
X37457450Y-52541625D01*
X37405275Y-52587382D01*
X37347263Y-52614433D01*
X37160859Y-52744953D01*
X36999953Y-52905859D01*
X36869432Y-53092264D01*
X36773261Y-53298502D01*
X36714364Y-53518310D01*
X36694531Y-53745000D01*
X36714364Y-53971689D01*
X36773261Y-54191497D01*
X36869432Y-54397735D01*
X36999953Y-54584140D01*
X37160859Y-54745046D01*
X37347263Y-54875566D01*
X37347266Y-54875568D01*
X37405275Y-54902618D01*
X37457450Y-54948375D01*
X37476869Y-55015000D01*
X37457450Y-55081625D01*
X37405275Y-55127382D01*
X37347263Y-55154433D01*
X37160859Y-55284953D01*
X36999953Y-55445859D01*
X36869432Y-55632264D01*
X36773261Y-55838502D01*
X36714364Y-56058310D01*
X36694531Y-56285000D01*
X36714364Y-56511689D01*
X36773261Y-56731497D01*
X36869432Y-56937735D01*
X36999953Y-57124140D01*
X37160859Y-57285046D01*
X37321623Y-57397613D01*
X37347266Y-57415568D01*
X37405275Y-57442618D01*
X37457450Y-57488375D01*
X37476869Y-57555000D01*
X37457450Y-57621625D01*
X37405275Y-57667381D01*
X37395007Y-57672170D01*
X37347263Y-57694433D01*
X37160859Y-57824953D01*
X36999953Y-57985859D01*
X36869432Y-58172264D01*
X36773261Y-58378502D01*
X36714364Y-58598310D01*
X36694531Y-58825000D01*
X36714364Y-59051689D01*
X36773261Y-59271497D01*
X36869432Y-59477735D01*
X36999953Y-59664140D01*
X37160859Y-59825046D01*
X37304314Y-59925493D01*
X37347266Y-59955568D01*
X37405273Y-59982617D01*
X37457449Y-60028373D01*
X37476869Y-60094997D01*
X37457451Y-60161622D01*
X37405276Y-60207380D01*
X37347266Y-60234431D01*
X37160859Y-60364953D01*
X36999953Y-60525859D01*
X36869432Y-60712264D01*
X36773261Y-60918502D01*
X36714364Y-61138310D01*
X36694531Y-61365000D01*
X36714364Y-61591689D01*
X36773261Y-61811497D01*
X36869432Y-62017735D01*
X36999953Y-62204140D01*
X37160859Y-62365046D01*
X37347263Y-62495566D01*
X37347266Y-62495568D01*
X37405275Y-62522618D01*
X37457450Y-62568375D01*
X37476869Y-62635000D01*
X37457450Y-62701625D01*
X37405275Y-62747382D01*
X37347263Y-62774433D01*
X37160859Y-62904953D01*
X36999953Y-63065859D01*
X36869432Y-63252264D01*
X36773261Y-63458502D01*
X36714364Y-63678310D01*
X36694531Y-63905000D01*
X36714364Y-64131689D01*
X36773261Y-64351497D01*
X36869432Y-64557735D01*
X36999953Y-64744140D01*
X37160859Y-64905046D01*
X37347264Y-65035567D01*
X37347265Y-65035567D01*
X37347266Y-65035568D01*
X37553504Y-65131739D01*
X37773308Y-65190635D01*
X38000000Y-65210468D01*
X38226692Y-65190635D01*
X38295048Y-65172319D01*
X38359234Y-65172319D01*
X38414822Y-65204413D01*
X39718181Y-66507772D01*
X39745061Y-66548000D01*
X39754500Y-66595453D01*
X39754500Y-79599774D01*
X39740489Y-79657031D01*
X39701623Y-79701349D01*
X39508598Y-79836505D01*
X39341505Y-80003598D01*
X39211575Y-80189159D01*
X39167257Y-80228025D01*
X39110000Y-80242036D01*
X39052743Y-80228025D01*
X39008425Y-80189159D01*
X38878494Y-80003598D01*
X38711404Y-79836508D01*
X38711401Y-79836505D01*
X38517830Y-79700965D01*
X38303663Y-79601097D01*
X38231074Y-79581647D01*
X38075407Y-79539936D01*
X37840000Y-79519340D01*
X37604592Y-79539936D01*
X37376336Y-79601097D01*
X37162170Y-79700965D01*
X36968598Y-79836505D01*
X36801505Y-80003598D01*
X36665965Y-80197170D01*
X36566097Y-80411336D01*
X36504936Y-80639592D01*
X36484340Y-80875000D01*
X32295180Y-80875000D01*
X32377385Y-80836667D01*
X32439572Y-80793124D01*
X31750001Y-80103553D01*
X31750000Y-80103553D01*
X31060426Y-80793124D01*
X27916405Y-80793124D01*
X27904517Y-80756536D01*
X27797852Y-80558319D01*
X27657508Y-80382334D01*
X27487996Y-80234235D01*
X27487993Y-80234233D01*
X27294762Y-80118783D01*
X27084025Y-80039693D01*
X26862547Y-79999500D01*
X26693845Y-79999500D01*
X26648312Y-80003598D01*
X26525809Y-80014623D01*
X26308828Y-80074507D01*
X26106027Y-80172170D01*
X25923925Y-80304475D01*
X25768365Y-80467178D01*
X25644365Y-80655031D01*
X25555896Y-80862012D01*
X25505809Y-81081462D01*
X25495709Y-81306328D01*
X25000500Y-81306328D01*
X25000500Y-79749999D01*
X30495224Y-79749999D01*
X30514287Y-79967886D01*
X30570898Y-80179161D01*
X30663331Y-80377386D01*
X30706873Y-80439571D01*
X30706875Y-80439572D01*
X31396447Y-79750001D01*
X31396447Y-79750000D01*
X32103553Y-79750000D01*
X32793124Y-80439572D01*
X32836667Y-80377385D01*
X32929102Y-80179159D01*
X32985712Y-79967886D01*
X33004775Y-79750000D01*
X32985712Y-79532113D01*
X32929102Y-79320840D01*
X32836667Y-79122615D01*
X32793123Y-79060428D01*
X32103553Y-79750000D01*
X31396447Y-79750000D01*
X30706875Y-79060427D01*
X30706874Y-79060428D01*
X30663333Y-79122611D01*
X30570897Y-79320840D01*
X30514287Y-79532113D01*
X30495224Y-79749999D01*
X25000500Y-79749999D01*
X25000500Y-78706875D01*
X31060427Y-78706875D01*
X31750000Y-79396447D01*
X31750001Y-79396447D01*
X32439572Y-78706875D01*
X32439571Y-78706873D01*
X32377386Y-78663331D01*
X32179161Y-78570898D01*
X31967886Y-78514287D01*
X31750000Y-78495224D01*
X31532113Y-78514287D01*
X31320840Y-78570897D01*
X31122611Y-78663333D01*
X31060428Y-78706874D01*
X31060427Y-78706875D01*
X25000500Y-78706875D01*
X25000500Y-75250000D01*
X30494722Y-75250000D01*
X30513792Y-75467974D01*
X30513793Y-75467977D01*
X30570425Y-75679330D01*
X30662898Y-75877639D01*
X30788402Y-76056877D01*
X30943123Y-76211598D01*
X31122361Y-76337102D01*
X31320670Y-76429575D01*
X31532023Y-76486207D01*
X31750000Y-76505277D01*
X31967977Y-76486207D01*
X32179330Y-76429575D01*
X32377639Y-76337102D01*
X32556877Y-76211598D01*
X32711598Y-76056877D01*
X32837102Y-75877639D01*
X32929575Y-75679330D01*
X32986207Y-75467977D01*
X33005277Y-75250000D01*
X32986207Y-75032023D01*
X32929575Y-74820670D01*
X32837102Y-74622362D01*
X32711598Y-74443123D01*
X32556877Y-74288402D01*
X32377639Y-74162898D01*
X32286205Y-74120261D01*
X32179331Y-74070425D01*
X31967974Y-74013792D01*
X31749999Y-73994722D01*
X31532025Y-74013792D01*
X31320668Y-74070425D01*
X31122361Y-74162898D01*
X30943122Y-74288402D01*
X30788402Y-74443122D01*
X30662898Y-74622361D01*
X30570425Y-74820668D01*
X30513792Y-75032025D01*
X30494722Y-75250000D01*
X25000500Y-75250000D01*
X25000500Y-73806328D01*
X25495709Y-73806328D01*
X25525925Y-74029388D01*
X25561211Y-74137988D01*
X25595483Y-74243464D01*
X25702148Y-74441681D01*
X25842492Y-74617666D01*
X26012004Y-74765765D01*
X26012006Y-74765766D01*
X26205237Y-74881216D01*
X26323214Y-74925493D01*
X26415976Y-74960307D01*
X26637453Y-75000500D01*
X26806153Y-75000500D01*
X26806155Y-75000500D01*
X26974188Y-74985377D01*
X27191170Y-74925493D01*
X27393973Y-74827829D01*
X27576078Y-74695522D01*
X27731632Y-74532825D01*
X27855635Y-74344968D01*
X27944103Y-74137988D01*
X27994191Y-73918537D01*
X28004290Y-73693670D01*
X27974075Y-73470613D01*
X27916405Y-73293124D01*
X31060426Y-73293124D01*
X31060427Y-73293125D01*
X31122610Y-73336666D01*
X31320840Y-73429102D01*
X31532113Y-73485712D01*
X31750000Y-73504775D01*
X31967886Y-73485712D01*
X32179159Y-73429102D01*
X32377385Y-73336667D01*
X32439572Y-73293124D01*
X31750001Y-72603553D01*
X31750000Y-72603553D01*
X31060426Y-73293124D01*
X27916405Y-73293124D01*
X27904517Y-73256536D01*
X27797852Y-73058319D01*
X27657508Y-72882334D01*
X27487996Y-72734235D01*
X27487993Y-72734233D01*
X27294762Y-72618783D01*
X27084025Y-72539693D01*
X26862547Y-72499500D01*
X26693845Y-72499500D01*
X26626631Y-72505549D01*
X26525809Y-72514623D01*
X26308828Y-72574507D01*
X26106027Y-72672170D01*
X25923925Y-72804475D01*
X25768365Y-72967178D01*
X25644365Y-73155031D01*
X25555896Y-73362012D01*
X25505809Y-73581462D01*
X25495709Y-73806328D01*
X25000500Y-73806328D01*
X25000500Y-72250000D01*
X30495224Y-72250000D01*
X30514287Y-72467886D01*
X30570898Y-72679161D01*
X30663331Y-72877386D01*
X30706873Y-72939571D01*
X30706875Y-72939572D01*
X31396447Y-72250001D01*
X31396447Y-72250000D01*
X32103553Y-72250000D01*
X32793124Y-72939572D01*
X32836667Y-72877385D01*
X32929102Y-72679159D01*
X32985712Y-72467886D01*
X33004775Y-72250000D01*
X32985712Y-72032113D01*
X32929102Y-71820840D01*
X32836667Y-71622615D01*
X32793123Y-71560428D01*
X32103553Y-72250000D01*
X31396447Y-72250000D01*
X30706875Y-71560427D01*
X30706874Y-71560428D01*
X30663333Y-71622611D01*
X30570897Y-71820840D01*
X30514287Y-72032113D01*
X30495224Y-72250000D01*
X25000500Y-72250000D01*
X25000500Y-71206875D01*
X31060427Y-71206875D01*
X31750000Y-71896447D01*
X31750001Y-71896447D01*
X32439572Y-71206875D01*
X32439571Y-71206873D01*
X32377386Y-71163331D01*
X32179161Y-71070898D01*
X31967886Y-71014287D01*
X31750000Y-70995224D01*
X31532113Y-71014287D01*
X31320840Y-71070897D01*
X31122611Y-71163333D01*
X31060428Y-71206874D01*
X31060427Y-71206875D01*
X25000500Y-71206875D01*
X25000500Y-67749999D01*
X30494722Y-67749999D01*
X30513792Y-67967974D01*
X30513793Y-67967977D01*
X30570425Y-68179330D01*
X30662898Y-68377639D01*
X30788402Y-68556877D01*
X30943123Y-68711598D01*
X31122361Y-68837102D01*
X31320670Y-68929575D01*
X31532023Y-68986207D01*
X31750000Y-69005277D01*
X31967977Y-68986207D01*
X32179330Y-68929575D01*
X32377639Y-68837102D01*
X32556877Y-68711598D01*
X32711598Y-68556877D01*
X32837102Y-68377639D01*
X32929575Y-68179330D01*
X32986207Y-67967977D01*
X33005277Y-67750000D01*
X32986207Y-67532023D01*
X32929575Y-67320670D01*
X32837102Y-67122362D01*
X32711598Y-66943123D01*
X32556877Y-66788402D01*
X32377639Y-66662898D01*
X32233003Y-66595453D01*
X32179331Y-66570425D01*
X31967974Y-66513792D01*
X31750000Y-66494722D01*
X31532025Y-66513792D01*
X31320668Y-66570425D01*
X31122361Y-66662898D01*
X30943122Y-66788402D01*
X30788402Y-66943122D01*
X30662898Y-67122361D01*
X30570425Y-67320668D01*
X30513792Y-67532025D01*
X30494722Y-67749999D01*
X25000500Y-67749999D01*
X25000500Y-66306328D01*
X25495709Y-66306328D01*
X25525925Y-66529388D01*
X25561211Y-66637988D01*
X25595483Y-66743464D01*
X25702148Y-66941681D01*
X25842492Y-67117666D01*
X26012004Y-67265765D01*
X26012006Y-67265766D01*
X26205237Y-67381216D01*
X26323214Y-67425493D01*
X26415976Y-67460307D01*
X26637453Y-67500500D01*
X26806153Y-67500500D01*
X26806155Y-67500500D01*
X26974188Y-67485377D01*
X27191170Y-67425493D01*
X27393973Y-67327829D01*
X27576078Y-67195522D01*
X27731632Y-67032825D01*
X27855635Y-66844968D01*
X27944103Y-66637988D01*
X27994191Y-66418537D01*
X28004290Y-66193670D01*
X27974075Y-65970613D01*
X27916405Y-65793124D01*
X31060426Y-65793124D01*
X31060427Y-65793125D01*
X31122610Y-65836666D01*
X31320840Y-65929102D01*
X31532113Y-65985712D01*
X31750000Y-66004775D01*
X31967886Y-65985712D01*
X32179159Y-65929102D01*
X32377385Y-65836667D01*
X32439572Y-65793124D01*
X31750001Y-65103553D01*
X31750000Y-65103553D01*
X31060426Y-65793124D01*
X27916405Y-65793124D01*
X27904517Y-65756536D01*
X27797852Y-65558319D01*
X27657508Y-65382334D01*
X27487996Y-65234235D01*
X27487993Y-65234233D01*
X27294762Y-65118783D01*
X27084025Y-65039693D01*
X26862547Y-64999500D01*
X26693845Y-64999500D01*
X26626631Y-65005549D01*
X26525809Y-65014623D01*
X26308828Y-65074507D01*
X26106027Y-65172170D01*
X25923925Y-65304475D01*
X25768365Y-65467178D01*
X25644365Y-65655031D01*
X25555896Y-65862012D01*
X25505809Y-66081462D01*
X25495709Y-66306328D01*
X25000500Y-66306328D01*
X25000500Y-64750000D01*
X30495224Y-64750000D01*
X30514287Y-64967886D01*
X30570898Y-65179161D01*
X30663331Y-65377386D01*
X30706873Y-65439571D01*
X30706875Y-65439572D01*
X31396447Y-64750001D01*
X31396447Y-64750000D01*
X32103553Y-64750000D01*
X32793124Y-65439572D01*
X32836667Y-65377385D01*
X32929102Y-65179159D01*
X32985712Y-64967886D01*
X33004775Y-64750000D01*
X32985712Y-64532113D01*
X32929102Y-64320840D01*
X32836667Y-64122615D01*
X32793123Y-64060428D01*
X32103553Y-64750000D01*
X31396447Y-64750000D01*
X30706875Y-64060427D01*
X30706874Y-64060428D01*
X30663333Y-64122611D01*
X30570897Y-64320840D01*
X30514287Y-64532113D01*
X30495224Y-64750000D01*
X25000500Y-64750000D01*
X25000500Y-63706875D01*
X31060427Y-63706875D01*
X31750000Y-64396447D01*
X31750001Y-64396447D01*
X32439572Y-63706875D01*
X32439571Y-63706873D01*
X32377386Y-63663331D01*
X32179161Y-63570898D01*
X31967886Y-63514287D01*
X31750000Y-63495224D01*
X31532113Y-63514287D01*
X31320840Y-63570897D01*
X31122611Y-63663333D01*
X31060428Y-63706874D01*
X31060427Y-63706875D01*
X25000500Y-63706875D01*
X25000500Y-60250000D01*
X30494722Y-60250000D01*
X30513792Y-60467974D01*
X30513793Y-60467977D01*
X30570425Y-60679330D01*
X30662898Y-60877639D01*
X30788402Y-61056877D01*
X30943123Y-61211598D01*
X31122361Y-61337102D01*
X31320670Y-61429575D01*
X31532023Y-61486207D01*
X31750000Y-61505277D01*
X31967977Y-61486207D01*
X32179330Y-61429575D01*
X32377639Y-61337102D01*
X32556877Y-61211598D01*
X32711598Y-61056877D01*
X32837102Y-60877639D01*
X32929575Y-60679330D01*
X32986207Y-60467977D01*
X33005277Y-60250000D01*
X32986207Y-60032023D01*
X32929575Y-59820670D01*
X32837102Y-59622362D01*
X32711598Y-59443123D01*
X32556877Y-59288402D01*
X32377639Y-59162898D01*
X32285745Y-59120047D01*
X32179331Y-59070425D01*
X31967974Y-59013792D01*
X31750000Y-58994722D01*
X31532025Y-59013792D01*
X31320668Y-59070425D01*
X31122361Y-59162898D01*
X30943122Y-59288402D01*
X30788402Y-59443122D01*
X30662898Y-59622361D01*
X30570425Y-59820668D01*
X30513792Y-60032025D01*
X30494722Y-60250000D01*
X25000500Y-60250000D01*
X25000500Y-58806328D01*
X25495709Y-58806328D01*
X25525925Y-59029388D01*
X25561211Y-59137988D01*
X25595483Y-59243464D01*
X25702148Y-59441681D01*
X25842492Y-59617666D01*
X26012004Y-59765765D01*
X26012006Y-59765766D01*
X26205237Y-59881216D01*
X26323214Y-59925493D01*
X26415976Y-59960307D01*
X26637453Y-60000500D01*
X26806153Y-60000500D01*
X26806155Y-60000500D01*
X26974188Y-59985377D01*
X27191170Y-59925493D01*
X27393973Y-59827829D01*
X27576078Y-59695522D01*
X27731632Y-59532825D01*
X27855635Y-59344968D01*
X27944103Y-59137988D01*
X27994191Y-58918537D01*
X28004290Y-58693670D01*
X27974075Y-58470613D01*
X27916405Y-58293124D01*
X31060426Y-58293124D01*
X31060427Y-58293125D01*
X31122610Y-58336666D01*
X31320840Y-58429102D01*
X31532113Y-58485712D01*
X31750000Y-58504775D01*
X31967886Y-58485712D01*
X32179159Y-58429102D01*
X32377385Y-58336667D01*
X32439572Y-58293124D01*
X31750001Y-57603553D01*
X31750000Y-57603553D01*
X31060426Y-58293124D01*
X27916405Y-58293124D01*
X27904517Y-58256536D01*
X27797852Y-58058319D01*
X27657508Y-57882334D01*
X27487996Y-57734235D01*
X27487993Y-57734233D01*
X27294762Y-57618783D01*
X27084025Y-57539693D01*
X26862547Y-57499500D01*
X26693845Y-57499500D01*
X26626631Y-57505549D01*
X26525809Y-57514623D01*
X26308828Y-57574507D01*
X26106027Y-57672170D01*
X25923925Y-57804475D01*
X25768365Y-57967178D01*
X25644365Y-58155031D01*
X25555896Y-58362012D01*
X25505809Y-58581462D01*
X25495709Y-58806328D01*
X25000500Y-58806328D01*
X25000500Y-57249999D01*
X30495224Y-57249999D01*
X30514287Y-57467886D01*
X30570898Y-57679161D01*
X30663331Y-57877386D01*
X30706873Y-57939571D01*
X30706875Y-57939572D01*
X31396447Y-57250001D01*
X31396447Y-57250000D01*
X32103553Y-57250000D01*
X32793124Y-57939572D01*
X32836667Y-57877385D01*
X32929102Y-57679159D01*
X32985712Y-57467886D01*
X33004775Y-57249999D01*
X32985712Y-57032113D01*
X32929102Y-56820840D01*
X32836667Y-56622615D01*
X32793123Y-56560428D01*
X32103553Y-57250000D01*
X31396447Y-57250000D01*
X30706875Y-56560427D01*
X30706874Y-56560428D01*
X30663333Y-56622611D01*
X30570897Y-56820840D01*
X30514287Y-57032113D01*
X30495224Y-57249999D01*
X25000500Y-57249999D01*
X25000500Y-56206875D01*
X31060427Y-56206875D01*
X31750000Y-56896447D01*
X31750001Y-56896447D01*
X32439572Y-56206875D01*
X32439571Y-56206873D01*
X32377386Y-56163331D01*
X32179161Y-56070898D01*
X31967886Y-56014287D01*
X31750000Y-55995224D01*
X31532113Y-56014287D01*
X31320840Y-56070897D01*
X31122611Y-56163333D01*
X31060428Y-56206874D01*
X31060427Y-56206875D01*
X25000500Y-56206875D01*
X25000500Y-52750000D01*
X30494722Y-52750000D01*
X30513792Y-52967974D01*
X30570425Y-53179331D01*
X30596704Y-53235686D01*
X30662898Y-53377639D01*
X30788402Y-53556877D01*
X30943123Y-53711598D01*
X31122361Y-53837102D01*
X31320670Y-53929575D01*
X31532023Y-53986207D01*
X31750000Y-54005277D01*
X31967977Y-53986207D01*
X32179330Y-53929575D01*
X32377639Y-53837102D01*
X32556877Y-53711598D01*
X32711598Y-53556877D01*
X32837102Y-53377639D01*
X32929575Y-53179330D01*
X32986207Y-52967977D01*
X33005277Y-52750000D01*
X32986207Y-52532023D01*
X32929575Y-52320670D01*
X32837102Y-52122362D01*
X32711598Y-51943123D01*
X32556877Y-51788402D01*
X32377639Y-51662898D01*
X32286205Y-51620261D01*
X32179331Y-51570425D01*
X31967974Y-51513792D01*
X31750000Y-51494722D01*
X31532025Y-51513792D01*
X31320668Y-51570425D01*
X31122361Y-51662898D01*
X30943122Y-51788402D01*
X30788402Y-51943122D01*
X30662898Y-52122361D01*
X30570425Y-52320668D01*
X30513792Y-52532025D01*
X30494722Y-52750000D01*
X25000500Y-52750000D01*
X25000500Y-51306328D01*
X25495709Y-51306328D01*
X25525925Y-51529388D01*
X25565600Y-51651496D01*
X25595483Y-51743464D01*
X25702148Y-51941681D01*
X25842492Y-52117666D01*
X26012004Y-52265765D01*
X26012006Y-52265766D01*
X26205237Y-52381216D01*
X26323214Y-52425493D01*
X26415976Y-52460307D01*
X26637453Y-52500500D01*
X26806153Y-52500500D01*
X26806155Y-52500500D01*
X26974188Y-52485377D01*
X27191170Y-52425493D01*
X27393973Y-52327829D01*
X27576078Y-52195522D01*
X27731632Y-52032825D01*
X27855635Y-51844968D01*
X27944103Y-51637988D01*
X27994191Y-51418537D01*
X28004290Y-51193670D01*
X27974075Y-50970613D01*
X27916405Y-50793124D01*
X31060426Y-50793124D01*
X31060427Y-50793125D01*
X31122610Y-50836666D01*
X31320840Y-50929102D01*
X31532113Y-50985712D01*
X31750000Y-51004775D01*
X31967886Y-50985712D01*
X32179159Y-50929102D01*
X32377385Y-50836667D01*
X32439572Y-50793124D01*
X31750001Y-50103553D01*
X31750000Y-50103553D01*
X31060426Y-50793124D01*
X27916405Y-50793124D01*
X27904517Y-50756536D01*
X27797852Y-50558319D01*
X27657508Y-50382334D01*
X27487996Y-50234235D01*
X27438986Y-50204953D01*
X27294762Y-50118783D01*
X27084025Y-50039693D01*
X26862547Y-49999500D01*
X26693845Y-49999500D01*
X26626631Y-50005549D01*
X26525809Y-50014623D01*
X26308828Y-50074507D01*
X26106027Y-50172170D01*
X25923925Y-50304475D01*
X25768365Y-50467178D01*
X25644365Y-50655031D01*
X25555896Y-50862012D01*
X25505809Y-51081462D01*
X25495709Y-51306328D01*
X25000500Y-51306328D01*
X25000500Y-49749999D01*
X30495224Y-49749999D01*
X30514287Y-49967886D01*
X30570898Y-50179161D01*
X30663331Y-50377386D01*
X30706873Y-50439571D01*
X30706875Y-50439572D01*
X31396447Y-49750001D01*
X31396447Y-49750000D01*
X32103553Y-49750000D01*
X32793124Y-50439572D01*
X32836667Y-50377385D01*
X32929102Y-50179159D01*
X32985712Y-49967886D01*
X33004775Y-49750000D01*
X32985712Y-49532113D01*
X32929102Y-49320840D01*
X32836667Y-49122615D01*
X32793123Y-49060428D01*
X32103553Y-49750000D01*
X31396447Y-49750000D01*
X30706875Y-49060427D01*
X30706874Y-49060428D01*
X30663333Y-49122611D01*
X30570897Y-49320840D01*
X30514287Y-49532113D01*
X30495224Y-49749999D01*
X25000500Y-49749999D01*
X25000500Y-48706875D01*
X31060427Y-48706875D01*
X31750000Y-49396447D01*
X31750001Y-49396447D01*
X32439572Y-48706875D01*
X32439571Y-48706873D01*
X32377386Y-48663331D01*
X32179161Y-48570898D01*
X31967886Y-48514287D01*
X31750000Y-48495224D01*
X31532113Y-48514287D01*
X31320840Y-48570897D01*
X31122611Y-48663333D01*
X31060428Y-48706874D01*
X31060427Y-48706875D01*
X25000500Y-48706875D01*
X25000500Y-45250000D01*
X30494722Y-45250000D01*
X30513792Y-45467974D01*
X30570203Y-45678504D01*
X30570425Y-45679330D01*
X30662898Y-45877639D01*
X30788402Y-46056877D01*
X30943123Y-46211598D01*
X31122361Y-46337102D01*
X31320670Y-46429575D01*
X31532023Y-46486207D01*
X31750000Y-46505277D01*
X31967977Y-46486207D01*
X32179330Y-46429575D01*
X32377639Y-46337102D01*
X32556877Y-46211598D01*
X32711598Y-46056877D01*
X32837102Y-45877639D01*
X32929575Y-45679330D01*
X32986207Y-45467977D01*
X33005277Y-45250000D01*
X32986207Y-45032023D01*
X32929575Y-44820670D01*
X32837102Y-44622362D01*
X32711598Y-44443123D01*
X32556877Y-44288402D01*
X32377639Y-44162898D01*
X32286205Y-44120261D01*
X32179331Y-44070425D01*
X31967974Y-44013792D01*
X31750000Y-43994722D01*
X31532025Y-44013792D01*
X31320668Y-44070425D01*
X31122361Y-44162898D01*
X30943122Y-44288402D01*
X30788402Y-44443122D01*
X30662898Y-44622361D01*
X30570425Y-44820668D01*
X30513792Y-45032025D01*
X30494722Y-45250000D01*
X25000500Y-45250000D01*
X25000500Y-43806328D01*
X25495709Y-43806328D01*
X25525925Y-44029388D01*
X25561211Y-44137988D01*
X25595483Y-44243464D01*
X25702148Y-44441681D01*
X25842492Y-44617666D01*
X26012004Y-44765765D01*
X26012006Y-44765766D01*
X26205237Y-44881216D01*
X26323214Y-44925493D01*
X26415976Y-44960307D01*
X26637453Y-45000500D01*
X26806153Y-45000500D01*
X26806155Y-45000500D01*
X26974188Y-44985377D01*
X27191170Y-44925493D01*
X27393973Y-44827829D01*
X27576078Y-44695522D01*
X27731632Y-44532825D01*
X27855635Y-44344968D01*
X27944103Y-44137988D01*
X27994191Y-43918537D01*
X28004290Y-43693670D01*
X27974075Y-43470613D01*
X27916405Y-43293124D01*
X31060426Y-43293124D01*
X31060427Y-43293125D01*
X31122610Y-43336666D01*
X31320840Y-43429102D01*
X31532113Y-43485712D01*
X31750000Y-43504775D01*
X31967886Y-43485712D01*
X32179159Y-43429102D01*
X32377385Y-43336667D01*
X32439572Y-43293124D01*
X31750001Y-42603553D01*
X31750000Y-42603553D01*
X31060426Y-43293124D01*
X27916405Y-43293124D01*
X27904517Y-43256536D01*
X27797852Y-43058319D01*
X27657508Y-42882334D01*
X27487996Y-42734235D01*
X27487993Y-42734233D01*
X27294762Y-42618783D01*
X27084025Y-42539693D01*
X26862547Y-42499500D01*
X26693845Y-42499500D01*
X26626631Y-42505549D01*
X26525809Y-42514623D01*
X26308828Y-42574507D01*
X26106027Y-42672170D01*
X25923925Y-42804475D01*
X25768365Y-42967178D01*
X25644365Y-43155031D01*
X25555896Y-43362012D01*
X25505809Y-43581462D01*
X25495709Y-43806328D01*
X25000500Y-43806328D01*
X25000500Y-42250000D01*
X30495224Y-42250000D01*
X30514287Y-42467886D01*
X30570898Y-42679161D01*
X30663331Y-42877386D01*
X30706873Y-42939571D01*
X30706875Y-42939572D01*
X31396447Y-42250001D01*
X31396447Y-42250000D01*
X32103553Y-42250000D01*
X32793124Y-42939572D01*
X32836667Y-42877385D01*
X32929102Y-42679159D01*
X32985712Y-42467886D01*
X33004775Y-42250000D01*
X32985712Y-42032113D01*
X32929102Y-41820840D01*
X32836667Y-41622615D01*
X32793123Y-41560428D01*
X32103553Y-42250000D01*
X31396447Y-42250000D01*
X30706875Y-41560427D01*
X30706874Y-41560428D01*
X30663333Y-41622611D01*
X30570897Y-41820840D01*
X30514287Y-42032113D01*
X30495224Y-42250000D01*
X25000500Y-42250000D01*
X25000500Y-41206875D01*
X31060427Y-41206875D01*
X31750000Y-41896447D01*
X31750001Y-41896447D01*
X32439572Y-41206875D01*
X32439571Y-41206873D01*
X32377386Y-41163331D01*
X32179161Y-41070898D01*
X31967886Y-41014287D01*
X31750000Y-40995224D01*
X31532113Y-41014287D01*
X31320840Y-41070897D01*
X31122611Y-41163333D01*
X31060428Y-41206874D01*
X31060427Y-41206875D01*
X25000500Y-41206875D01*
X25000500Y-37750000D01*
X30494722Y-37750000D01*
X30513792Y-37967974D01*
X30513793Y-37967977D01*
X30570425Y-38179330D01*
X30662898Y-38377639D01*
X30788402Y-38556877D01*
X30943123Y-38711598D01*
X31122361Y-38837102D01*
X31320670Y-38929575D01*
X31532023Y-38986207D01*
X31750000Y-39005277D01*
X31967977Y-38986207D01*
X32179330Y-38929575D01*
X32377639Y-38837102D01*
X32556877Y-38711598D01*
X32711598Y-38556877D01*
X32837102Y-38377639D01*
X32929575Y-38179330D01*
X32986207Y-37967977D01*
X33005277Y-37750000D01*
X32986207Y-37532023D01*
X32929575Y-37320670D01*
X32837102Y-37122362D01*
X32711598Y-36943123D01*
X32556877Y-36788402D01*
X32377639Y-36662898D01*
X32259421Y-36607772D01*
X32179331Y-36570425D01*
X31967974Y-36513792D01*
X31750000Y-36494722D01*
X31532025Y-36513792D01*
X31320668Y-36570425D01*
X31122361Y-36662898D01*
X30943122Y-36788402D01*
X30788402Y-36943122D01*
X30662898Y-37122361D01*
X30570425Y-37320668D01*
X30513792Y-37532025D01*
X30494722Y-37750000D01*
X25000500Y-37750000D01*
X25000500Y-36306328D01*
X25495709Y-36306328D01*
X25525925Y-36529388D01*
X25564464Y-36648000D01*
X25595483Y-36743464D01*
X25702148Y-36941681D01*
X25842492Y-37117666D01*
X26012004Y-37265765D01*
X26012006Y-37265766D01*
X26205237Y-37381216D01*
X26323214Y-37425493D01*
X26415976Y-37460307D01*
X26637453Y-37500500D01*
X26806153Y-37500500D01*
X26806155Y-37500500D01*
X26974188Y-37485377D01*
X27191170Y-37425493D01*
X27393973Y-37327829D01*
X27576078Y-37195522D01*
X27731632Y-37032825D01*
X27855635Y-36844968D01*
X27944103Y-36637988D01*
X27994191Y-36418537D01*
X28004290Y-36193670D01*
X27974075Y-35970613D01*
X27916405Y-35793124D01*
X31060426Y-35793124D01*
X31060427Y-35793125D01*
X31122610Y-35836666D01*
X31320840Y-35929102D01*
X31532113Y-35985712D01*
X31750000Y-36004775D01*
X31967886Y-35985712D01*
X32179159Y-35929102D01*
X32377385Y-35836667D01*
X32439572Y-35793124D01*
X31750001Y-35103553D01*
X31750000Y-35103553D01*
X31060426Y-35793124D01*
X27916405Y-35793124D01*
X27904517Y-35756536D01*
X27797852Y-35558319D01*
X27657508Y-35382334D01*
X27487996Y-35234235D01*
X27487993Y-35234233D01*
X27294762Y-35118783D01*
X27084025Y-35039693D01*
X26862547Y-34999500D01*
X26693845Y-34999500D01*
X26626631Y-35005549D01*
X26525809Y-35014623D01*
X26308828Y-35074507D01*
X26106027Y-35172170D01*
X25923925Y-35304475D01*
X25768365Y-35467178D01*
X25644365Y-35655031D01*
X25555896Y-35862012D01*
X25505809Y-36081462D01*
X25495709Y-36306328D01*
X25000500Y-36306328D01*
X25000500Y-34750000D01*
X30495224Y-34750000D01*
X30514287Y-34967886D01*
X30570898Y-35179161D01*
X30663331Y-35377386D01*
X30706873Y-35439571D01*
X30706875Y-35439572D01*
X31396447Y-34750001D01*
X31396447Y-34750000D01*
X32103553Y-34750000D01*
X32793124Y-35439572D01*
X32836667Y-35377385D01*
X32929102Y-35179159D01*
X32985712Y-34967886D01*
X33004775Y-34750000D01*
X32985712Y-34532113D01*
X32929102Y-34320840D01*
X32836667Y-34122615D01*
X32793123Y-34060428D01*
X32103553Y-34750000D01*
X31396447Y-34750000D01*
X30706875Y-34060427D01*
X30706874Y-34060428D01*
X30663333Y-34122611D01*
X30570897Y-34320840D01*
X30514287Y-34532113D01*
X30495224Y-34750000D01*
X25000500Y-34750000D01*
X25000500Y-33706875D01*
X31060427Y-33706875D01*
X31750000Y-34396447D01*
X31750001Y-34396447D01*
X32439572Y-33706875D01*
X32439571Y-33706873D01*
X32377386Y-33663331D01*
X32179161Y-33570898D01*
X31967886Y-33514287D01*
X31750000Y-33495224D01*
X31532113Y-33514287D01*
X31320840Y-33570897D01*
X31122611Y-33663333D01*
X31060428Y-33706874D01*
X31060427Y-33706875D01*
X25000500Y-33706875D01*
X25000500Y-30250000D01*
X30494722Y-30250000D01*
X30513792Y-30467974D01*
X30513793Y-30467977D01*
X30570425Y-30679330D01*
X30662898Y-30877639D01*
X30788402Y-31056877D01*
X30943123Y-31211598D01*
X31122361Y-31337102D01*
X31320670Y-31429575D01*
X31532023Y-31486207D01*
X31750000Y-31505277D01*
X31967977Y-31486207D01*
X32179330Y-31429575D01*
X32377639Y-31337102D01*
X32556877Y-31211598D01*
X32711598Y-31056877D01*
X32837102Y-30877639D01*
X32929575Y-30679330D01*
X32986207Y-30467977D01*
X33005277Y-30250000D01*
X32986207Y-30032023D01*
X32929575Y-29820670D01*
X32837102Y-29622362D01*
X32711598Y-29443123D01*
X32556877Y-29288402D01*
X32377639Y-29162898D01*
X32286205Y-29120261D01*
X32179331Y-29070425D01*
X31967974Y-29013792D01*
X31750000Y-28994722D01*
X31532025Y-29013792D01*
X31320668Y-29070425D01*
X31122361Y-29162898D01*
X30943122Y-29288402D01*
X30788402Y-29443122D01*
X30662898Y-29622361D01*
X30570425Y-29820668D01*
X30513792Y-30032025D01*
X30494722Y-30250000D01*
X25000500Y-30250000D01*
X25000500Y-28806328D01*
X25495709Y-28806328D01*
X25525925Y-29029388D01*
X25561211Y-29137988D01*
X25595483Y-29243464D01*
X25702148Y-29441681D01*
X25842492Y-29617666D01*
X26012004Y-29765765D01*
X26012006Y-29765766D01*
X26205237Y-29881216D01*
X26323214Y-29925493D01*
X26415976Y-29960307D01*
X26637453Y-30000500D01*
X26806153Y-30000500D01*
X26806155Y-30000500D01*
X26974188Y-29985377D01*
X27191170Y-29925493D01*
X27393973Y-29827829D01*
X27576078Y-29695522D01*
X27731632Y-29532825D01*
X27855635Y-29344968D01*
X27944103Y-29137988D01*
X27994191Y-28918537D01*
X28004290Y-28693670D01*
X27974075Y-28470613D01*
X27916405Y-28293124D01*
X31060426Y-28293124D01*
X31060427Y-28293125D01*
X31122610Y-28336666D01*
X31320840Y-28429102D01*
X31532113Y-28485712D01*
X31750000Y-28504775D01*
X31967886Y-28485712D01*
X32179159Y-28429102D01*
X32377385Y-28336667D01*
X32439572Y-28293124D01*
X31750001Y-27603553D01*
X31750000Y-27603553D01*
X31060426Y-28293124D01*
X27916405Y-28293124D01*
X27904517Y-28256536D01*
X27797852Y-28058319D01*
X27657508Y-27882334D01*
X27487996Y-27734235D01*
X27487993Y-27734233D01*
X27294762Y-27618783D01*
X27084025Y-27539693D01*
X26862547Y-27499500D01*
X26693845Y-27499500D01*
X26626631Y-27505549D01*
X26525809Y-27514623D01*
X26308828Y-27574507D01*
X26106027Y-27672170D01*
X25923925Y-27804475D01*
X25768365Y-27967178D01*
X25644365Y-28155031D01*
X25555896Y-28362012D01*
X25505809Y-28581462D01*
X25495709Y-28806328D01*
X25000500Y-28806328D01*
X25000500Y-27249999D01*
X30495224Y-27249999D01*
X30514287Y-27467886D01*
X30570898Y-27679161D01*
X30663331Y-27877386D01*
X30706873Y-27939571D01*
X30706875Y-27939572D01*
X31396447Y-27250001D01*
X31396447Y-27250000D01*
X32103553Y-27250000D01*
X32793124Y-27939572D01*
X32836667Y-27877385D01*
X32929102Y-27679159D01*
X32985712Y-27467886D01*
X33004775Y-27249999D01*
X32985712Y-27032113D01*
X32929102Y-26820840D01*
X32836667Y-26622615D01*
X32793123Y-26560428D01*
X32103553Y-27250000D01*
X31396447Y-27250000D01*
X30706875Y-26560427D01*
X30706874Y-26560428D01*
X30663333Y-26622611D01*
X30570897Y-26820840D01*
X30514287Y-27032113D01*
X30495224Y-27249999D01*
X25000500Y-27249999D01*
X25000500Y-26206875D01*
X31060427Y-26206875D01*
X31750000Y-26896447D01*
X31750001Y-26896447D01*
X32439572Y-26206875D01*
X32439571Y-26206873D01*
X32377386Y-26163331D01*
X32179161Y-26070898D01*
X31967886Y-26014287D01*
X31750000Y-25995224D01*
X31532113Y-26014287D01*
X31320840Y-26070897D01*
X31122611Y-26163333D01*
X31060428Y-26206874D01*
X31060427Y-26206875D01*
X25000500Y-26206875D01*
X25000500Y-25124500D01*
X25017113Y-25062500D01*
X25062500Y-25017113D01*
X25124500Y-25000500D01*
X49875500Y-25000500D01*
X49937500Y-25017113D01*
G37*
%TD.AperFunction*%
%TD*%
M02*
