%TF.GenerationSoftware,KiCad,Pcbnew,7.0.1*%
%TF.CreationDate,2023-08-30T09:29:13-04:00*%
%TF.ProjectId,TacTile-L2,54616354-696c-4652-9d4c-322e6b696361,rev?*%
%TF.SameCoordinates,Original*%
%TF.FileFunction,Copper,L2,Bot*%
%TF.FilePolarity,Positive*%
%FSLAX46Y46*%
G04 Gerber Fmt 4.6, Leading zero omitted, Abs format (unit mm)*
G04 Created by KiCad (PCBNEW 7.0.1) date 2023-08-30 09:29:13*
%MOMM*%
%LPD*%
G01*
G04 APERTURE LIST*
%TA.AperFunction,ComponentPad*%
%ADD10R,1.700000X1.700000*%
%TD*%
%TA.AperFunction,ComponentPad*%
%ADD11O,1.700000X1.700000*%
%TD*%
%TA.AperFunction,ComponentPad*%
%ADD12C,1.500000*%
%TD*%
%TA.AperFunction,ComponentPad*%
%ADD13R,1.600000X1.600000*%
%TD*%
%TA.AperFunction,ComponentPad*%
%ADD14O,1.600000X1.600000*%
%TD*%
%TA.AperFunction,Conductor*%
%ADD15C,0.250000*%
%TD*%
G04 APERTURE END LIST*
D10*
%TO.P,J1,1,Pin_1*%
%TO.N,/OUT*%
X48000000Y-35100000D03*
D11*
%TO.P,J1,2,Pin_2*%
%TO.N,/SIN*%
X45460000Y-35100000D03*
%TO.P,J1,3,Pin_3*%
%TO.N,/CLK*%
X42920000Y-35100000D03*
%TO.P,J1,4,Pin_4*%
%TO.N,/GND*%
X40380000Y-35100000D03*
%TO.P,J1,5,Pin_5*%
%TO.N,/VCC*%
X37840000Y-35100000D03*
%TD*%
D12*
%TO.P,R2,1*%
%TO.N,/OUT*%
X31750000Y-34750000D03*
%TO.P,R2,2*%
%TO.N,Net-(U1-QB)*%
X31750000Y-37750000D03*
%TD*%
%TO.P,R8,1*%
%TO.N,/OUT*%
X31750000Y-79750000D03*
%TO.P,R8,2*%
%TO.N,Net-(U1-QH)*%
X31750000Y-82750000D03*
%TD*%
%TO.P,R6,1*%
%TO.N,/OUT*%
X31750000Y-64750000D03*
%TO.P,R6,2*%
%TO.N,Net-(U1-QF)*%
X31750000Y-67750000D03*
%TD*%
%TO.P,R4,1*%
%TO.N,/OUT*%
X31750000Y-49750000D03*
%TO.P,R4,2*%
%TO.N,Net-(U1-QD)*%
X31750000Y-52750000D03*
%TD*%
%TO.P,R7,1*%
%TO.N,/OUT*%
X31750000Y-72250000D03*
%TO.P,R7,2*%
%TO.N,Net-(U1-QG)*%
X31750000Y-75250000D03*
%TD*%
%TO.P,R3,1*%
%TO.N,/OUT*%
X31750000Y-42250000D03*
%TO.P,R3,2*%
%TO.N,Net-(U1-QC)*%
X31750000Y-45250000D03*
%TD*%
D13*
%TO.P,U1,1,QB*%
%TO.N,Net-(U1-QB)*%
X38000000Y-46125000D03*
D14*
%TO.P,U1,2,QC*%
%TO.N,Net-(U1-QC)*%
X38000000Y-48665000D03*
%TO.P,U1,3,QD*%
%TO.N,Net-(U1-QD)*%
X38000000Y-51205000D03*
%TO.P,U1,4,QE*%
%TO.N,Net-(U1-QE)*%
X38000000Y-53745000D03*
%TO.P,U1,5,QF*%
%TO.N,Net-(U1-QF)*%
X38000000Y-56285000D03*
%TO.P,U1,6,QG*%
%TO.N,Net-(U1-QG)*%
X38000000Y-58825000D03*
%TO.P,U1,7,QH*%
%TO.N,Net-(U1-QH)*%
X38000000Y-61365000D03*
%TO.P,U1,8,GND*%
%TO.N,/GND*%
X38000000Y-63905000D03*
%TO.P,U1,9,QH'*%
%TO.N,/SOUT*%
X45620000Y-63905000D03*
%TO.P,U1,10,~{SRCLR}*%
%TO.N,/VCC*%
X45620000Y-61365000D03*
%TO.P,U1,11,SRCLK*%
%TO.N,/CLK*%
X45620000Y-58825000D03*
%TO.P,U1,12,RCLK*%
X45620000Y-56285000D03*
%TO.P,U1,13,~{OE}*%
%TO.N,/GND*%
X45620000Y-53745000D03*
%TO.P,U1,14,SER*%
%TO.N,/SIN*%
X45620000Y-51205000D03*
%TO.P,U1,15,QA*%
%TO.N,Net-(U1-QA)*%
X45620000Y-48665000D03*
%TO.P,U1,16,VCC*%
%TO.N,/VCC*%
X45620000Y-46125000D03*
%TD*%
D12*
%TO.P,R1,1*%
%TO.N,/OUT*%
X31750000Y-27250000D03*
%TO.P,R1,2*%
%TO.N,Net-(U1-QA)*%
X31750000Y-30250000D03*
%TD*%
%TO.P,R5,1*%
%TO.N,/OUT*%
X31750000Y-57250000D03*
%TO.P,R5,2*%
%TO.N,Net-(U1-QE)*%
X31750000Y-60250000D03*
%TD*%
D10*
%TO.P,J2,1,Pin_1*%
%TO.N,/OUT*%
X48000000Y-80875000D03*
D11*
%TO.P,J2,2,Pin_2*%
%TO.N,/SOUT*%
X45460000Y-80875000D03*
%TO.P,J2,3,Pin_3*%
%TO.N,/CLK*%
X42920000Y-80875000D03*
%TO.P,J2,4,Pin_4*%
%TO.N,/GND*%
X40380000Y-80875000D03*
%TO.P,J2,5,Pin_5*%
%TO.N,/VCC*%
X37840000Y-80875000D03*
%TD*%
D15*
%TO.N,Net-(U1-QB)*%
X31750000Y-37750000D02*
X38000000Y-44000000D01*
X38000000Y-44000000D02*
X38000000Y-46125000D01*
%TO.N,Net-(U1-QC)*%
X31750000Y-45250000D02*
X34585000Y-45250000D01*
X34585000Y-45250000D02*
X38000000Y-48665000D01*
%TO.N,Net-(U1-QD)*%
X31750000Y-52750000D02*
X36455000Y-52750000D01*
X36455000Y-52750000D02*
X38000000Y-51205000D01*
%TO.N,Net-(U1-QE)*%
X38000000Y-54000000D02*
X38000000Y-53745000D01*
X31750000Y-60250000D02*
X38000000Y-54000000D01*
%TO.N,Net-(U1-QF)*%
X31750000Y-67750000D02*
X32825000Y-66675000D01*
X32825000Y-61460000D02*
X38000000Y-56285000D01*
X32825000Y-66675000D02*
X32825000Y-61460000D01*
%TO.N,Net-(U1-QG)*%
X39125000Y-67875000D02*
X39125000Y-59950000D01*
X31750000Y-75250000D02*
X39125000Y-67875000D01*
X39125000Y-59950000D02*
X38000000Y-58825000D01*
%TO.N,Net-(U1-QH)*%
X36875000Y-62490000D02*
X38000000Y-61365000D01*
X30675000Y-81675000D02*
X30675000Y-70575000D01*
X31750000Y-82750000D02*
X30675000Y-81675000D01*
X30675000Y-70575000D02*
X36875000Y-64375000D01*
X36875000Y-64375000D02*
X36875000Y-62490000D01*
%TO.N,Net-(U1-QA)*%
X33750000Y-33310660D02*
X33750000Y-36795000D01*
X33750000Y-36795000D02*
X45620000Y-48665000D01*
X31750000Y-30250000D02*
X31750000Y-31310660D01*
X31750000Y-31310660D02*
X33750000Y-33310660D01*
%TD*%
%TA.AperFunction,Conductor*%
%TO.N,/VCC*%
G36*
X49937500Y-25017113D02*
G01*
X49982887Y-25062500D01*
X49999500Y-25124500D01*
X49999500Y-84875500D01*
X49982887Y-84937500D01*
X49937500Y-84982887D01*
X49875500Y-84999500D01*
X25124500Y-84999500D01*
X25062500Y-84982887D01*
X25017113Y-84937500D01*
X25000500Y-84875500D01*
X25000500Y-81306328D01*
X25495709Y-81306328D01*
X25525925Y-81529388D01*
X25591097Y-81729967D01*
X25595483Y-81743464D01*
X25702148Y-81941681D01*
X25787760Y-82049035D01*
X25833656Y-82106587D01*
X25842492Y-82117666D01*
X26012004Y-82265765D01*
X26012006Y-82265766D01*
X26205237Y-82381216D01*
X26323214Y-82425493D01*
X26415976Y-82460307D01*
X26637453Y-82500500D01*
X26806153Y-82500500D01*
X26806155Y-82500500D01*
X26974188Y-82485377D01*
X27191170Y-82425493D01*
X27393973Y-82327829D01*
X27576078Y-82195522D01*
X27731632Y-82032825D01*
X27855635Y-81844968D01*
X27944103Y-81637988D01*
X27994191Y-81418537D01*
X28004290Y-81193670D01*
X27974075Y-80970613D01*
X27904517Y-80756536D01*
X27797852Y-80558319D01*
X27657508Y-80382334D01*
X27487996Y-80234235D01*
X27487993Y-80234233D01*
X27294762Y-80118783D01*
X27084025Y-80039693D01*
X26862547Y-79999500D01*
X26693845Y-79999500D01*
X26648312Y-80003598D01*
X26525809Y-80014623D01*
X26308828Y-80074507D01*
X26106027Y-80172170D01*
X25923925Y-80304475D01*
X25768365Y-80467178D01*
X25644365Y-80655031D01*
X25555896Y-80862012D01*
X25505809Y-81081462D01*
X25495709Y-81306328D01*
X25000500Y-81306328D01*
X25000500Y-73806328D01*
X25495709Y-73806328D01*
X25525925Y-74029388D01*
X25561211Y-74137988D01*
X25595483Y-74243464D01*
X25702148Y-74441681D01*
X25842492Y-74617666D01*
X26012004Y-74765765D01*
X26012006Y-74765766D01*
X26205237Y-74881216D01*
X26323214Y-74925493D01*
X26415976Y-74960307D01*
X26637453Y-75000500D01*
X26806153Y-75000500D01*
X26806155Y-75000500D01*
X26974188Y-74985377D01*
X27191170Y-74925493D01*
X27393973Y-74827829D01*
X27576078Y-74695522D01*
X27731632Y-74532825D01*
X27855635Y-74344968D01*
X27944103Y-74137988D01*
X27994191Y-73918537D01*
X28004290Y-73693670D01*
X27974075Y-73470613D01*
X27904517Y-73256536D01*
X27797852Y-73058319D01*
X27657508Y-72882334D01*
X27487996Y-72734235D01*
X27396102Y-72679331D01*
X27294762Y-72618783D01*
X27084025Y-72539693D01*
X26862547Y-72499500D01*
X26693845Y-72499500D01*
X26626631Y-72505549D01*
X26525809Y-72514623D01*
X26308828Y-72574507D01*
X26106027Y-72672170D01*
X25923925Y-72804475D01*
X25768365Y-72967178D01*
X25644365Y-73155031D01*
X25555896Y-73362012D01*
X25505809Y-73581462D01*
X25495709Y-73806328D01*
X25000500Y-73806328D01*
X25000500Y-70555194D01*
X30044840Y-70555194D01*
X30048950Y-70598675D01*
X30049500Y-70610344D01*
X30049500Y-81592256D01*
X30047235Y-81612762D01*
X30049439Y-81682873D01*
X30049500Y-81686768D01*
X30049500Y-81714349D01*
X30050003Y-81718334D01*
X30050918Y-81729967D01*
X30052290Y-81773626D01*
X30057879Y-81792860D01*
X30061825Y-81811916D01*
X30064335Y-81831792D01*
X30080414Y-81872404D01*
X30084197Y-81883451D01*
X30096382Y-81925391D01*
X30106580Y-81942635D01*
X30115136Y-81960100D01*
X30122514Y-81978732D01*
X30122515Y-81978733D01*
X30148180Y-82014059D01*
X30154593Y-82023822D01*
X30176826Y-82061416D01*
X30176829Y-82061419D01*
X30176830Y-82061420D01*
X30190995Y-82075585D01*
X30203627Y-82090375D01*
X30215406Y-82106587D01*
X30249058Y-82134426D01*
X30257699Y-82142289D01*
X30491411Y-82376001D01*
X30523505Y-82431588D01*
X30523505Y-82495774D01*
X30513792Y-82532022D01*
X30494722Y-82750000D01*
X30513792Y-82967974D01*
X30513793Y-82967977D01*
X30570425Y-83179330D01*
X30662898Y-83377639D01*
X30788402Y-83556877D01*
X30943123Y-83711598D01*
X31122361Y-83837102D01*
X31320670Y-83929575D01*
X31532023Y-83986207D01*
X31750000Y-84005277D01*
X31967977Y-83986207D01*
X32179330Y-83929575D01*
X32377639Y-83837102D01*
X32556877Y-83711598D01*
X32711598Y-83556877D01*
X32837102Y-83377639D01*
X32929575Y-83179330D01*
X32986207Y-82967977D01*
X33005277Y-82750000D01*
X32986207Y-82532023D01*
X32929575Y-82320670D01*
X32837102Y-82122362D01*
X32711598Y-81943123D01*
X32556877Y-81788402D01*
X32377639Y-81662898D01*
X32226147Y-81592256D01*
X32179331Y-81570425D01*
X31967974Y-81513792D01*
X31750000Y-81494722D01*
X31532024Y-81513792D01*
X31495776Y-81523505D01*
X31431589Y-81523505D01*
X31376002Y-81491411D01*
X31336819Y-81452228D01*
X31309939Y-81412000D01*
X31300500Y-81364547D01*
X31300500Y-81125000D01*
X36509364Y-81125000D01*
X36566569Y-81338492D01*
X36666399Y-81552576D01*
X36801893Y-81746081D01*
X36968918Y-81913106D01*
X37162423Y-82048600D01*
X37376507Y-82148430D01*
X37589999Y-82205635D01*
X37590000Y-82205636D01*
X37590000Y-82205635D01*
X38090000Y-82205635D01*
X38303492Y-82148430D01*
X38517576Y-82048600D01*
X38711081Y-81913106D01*
X38878109Y-81746078D01*
X39008119Y-81560405D01*
X39052437Y-81521539D01*
X39109694Y-81507528D01*
X39166951Y-81521539D01*
X39211267Y-81560402D01*
X39341505Y-81746401D01*
X39508599Y-81913495D01*
X39702170Y-82049035D01*
X39916337Y-82148903D01*
X40144592Y-82210063D01*
X40380000Y-82230659D01*
X40615408Y-82210063D01*
X40843663Y-82148903D01*
X41057830Y-82049035D01*
X41251401Y-81913495D01*
X41418495Y-81746401D01*
X41548426Y-81560839D01*
X41592743Y-81521975D01*
X41650000Y-81507964D01*
X41707257Y-81521975D01*
X41751573Y-81560839D01*
X41881505Y-81746401D01*
X42048599Y-81913495D01*
X42242170Y-82049035D01*
X42456337Y-82148903D01*
X42684592Y-82210063D01*
X42920000Y-82230659D01*
X43155408Y-82210063D01*
X43383663Y-82148903D01*
X43597830Y-82049035D01*
X43791401Y-81913495D01*
X43958495Y-81746401D01*
X44088426Y-81560839D01*
X44132743Y-81521975D01*
X44190000Y-81507964D01*
X44247257Y-81521975D01*
X44291573Y-81560839D01*
X44421505Y-81746401D01*
X44588599Y-81913495D01*
X44782170Y-82049035D01*
X44996337Y-82148903D01*
X45224592Y-82210063D01*
X45460000Y-82230659D01*
X45695408Y-82210063D01*
X45923663Y-82148903D01*
X46137830Y-82049035D01*
X46331401Y-81913495D01*
X46453329Y-81791566D01*
X46506072Y-81760273D01*
X46567365Y-81758084D01*
X46622209Y-81785537D01*
X46657189Y-81835916D01*
X46672825Y-81877837D01*
X46706204Y-81967331D01*
X46792454Y-82082546D01*
X46907669Y-82168796D01*
X47042517Y-82219091D01*
X47102127Y-82225500D01*
X48897872Y-82225499D01*
X48957483Y-82219091D01*
X49092331Y-82168796D01*
X49207546Y-82082546D01*
X49293796Y-81967331D01*
X49344091Y-81832483D01*
X49350500Y-81772873D01*
X49350499Y-79977128D01*
X49344091Y-79917517D01*
X49293796Y-79782669D01*
X49207546Y-79667454D01*
X49092331Y-79581204D01*
X48957483Y-79530909D01*
X48897873Y-79524500D01*
X48897869Y-79524500D01*
X47102130Y-79524500D01*
X47042515Y-79530909D01*
X46907669Y-79581204D01*
X46792454Y-79667454D01*
X46706204Y-79782669D01*
X46657189Y-79914083D01*
X46622209Y-79964462D01*
X46567365Y-79991915D01*
X46506072Y-79989726D01*
X46453326Y-79958430D01*
X46331404Y-79836508D01*
X46331401Y-79836505D01*
X46137830Y-79700965D01*
X45923663Y-79601097D01*
X45862502Y-79584709D01*
X45695407Y-79539936D01*
X45460000Y-79519340D01*
X45224592Y-79539936D01*
X44996336Y-79601097D01*
X44782170Y-79700965D01*
X44588598Y-79836505D01*
X44421505Y-80003598D01*
X44291575Y-80189159D01*
X44247257Y-80228025D01*
X44190000Y-80242036D01*
X44132743Y-80228025D01*
X44088425Y-80189159D01*
X43958494Y-80003598D01*
X43791404Y-79836508D01*
X43791401Y-79836505D01*
X43597830Y-79700965D01*
X43383663Y-79601097D01*
X43322502Y-79584709D01*
X43155407Y-79539936D01*
X42920000Y-79519340D01*
X42684592Y-79539936D01*
X42456336Y-79601097D01*
X42242170Y-79700965D01*
X42048598Y-79836505D01*
X41881505Y-80003598D01*
X41751575Y-80189159D01*
X41707257Y-80228025D01*
X41650000Y-80242036D01*
X41592743Y-80228025D01*
X41548425Y-80189159D01*
X41418494Y-80003598D01*
X41251404Y-79836508D01*
X41251401Y-79836505D01*
X41057830Y-79700965D01*
X40843663Y-79601097D01*
X40782502Y-79584709D01*
X40615407Y-79539936D01*
X40380000Y-79519340D01*
X40144592Y-79539936D01*
X39916336Y-79601097D01*
X39702170Y-79700965D01*
X39508598Y-79836505D01*
X39341508Y-80003595D01*
X39211269Y-80189596D01*
X39166951Y-80228461D01*
X39109694Y-80242472D01*
X39052437Y-80228461D01*
X39008119Y-80189595D01*
X38878109Y-80003921D01*
X38711081Y-79836893D01*
X38517576Y-79701399D01*
X38303492Y-79601569D01*
X38090000Y-79544364D01*
X38090000Y-82205635D01*
X37590000Y-82205635D01*
X37590000Y-81125000D01*
X36509364Y-81125000D01*
X31300500Y-81125000D01*
X31300500Y-81085771D01*
X31313288Y-81030927D01*
X31349014Y-80987395D01*
X31400309Y-80964154D01*
X31456594Y-80965996D01*
X31476151Y-80971236D01*
X31532023Y-80986207D01*
X31750000Y-81005277D01*
X31967977Y-80986207D01*
X32179330Y-80929575D01*
X32377639Y-80837102D01*
X32556877Y-80711598D01*
X32643475Y-80625000D01*
X36509364Y-80625000D01*
X37590000Y-80625000D01*
X37590000Y-79544364D01*
X37589999Y-79544364D01*
X37376507Y-79601569D01*
X37162421Y-79701400D01*
X36968921Y-79836890D01*
X36801890Y-80003921D01*
X36666400Y-80197421D01*
X36566569Y-80411507D01*
X36509364Y-80624999D01*
X36509364Y-80625000D01*
X32643475Y-80625000D01*
X32711598Y-80556877D01*
X32837102Y-80377639D01*
X32929575Y-80179330D01*
X32986207Y-79967977D01*
X33005277Y-79750000D01*
X32986207Y-79532023D01*
X32929575Y-79320670D01*
X32837102Y-79122362D01*
X32711598Y-78943123D01*
X32556877Y-78788402D01*
X32377639Y-78662898D01*
X32286205Y-78620261D01*
X32179331Y-78570425D01*
X31967974Y-78513792D01*
X31750000Y-78494722D01*
X31532025Y-78513792D01*
X31456594Y-78534004D01*
X31400309Y-78535846D01*
X31349014Y-78512605D01*
X31313288Y-78469073D01*
X31300500Y-78414229D01*
X31300500Y-76585771D01*
X31313288Y-76530927D01*
X31349014Y-76487395D01*
X31400309Y-76464154D01*
X31456594Y-76465996D01*
X31476151Y-76471236D01*
X31532023Y-76486207D01*
X31750000Y-76505277D01*
X31967977Y-76486207D01*
X32179330Y-76429575D01*
X32377639Y-76337102D01*
X32556877Y-76211598D01*
X32711598Y-76056877D01*
X32837102Y-75877639D01*
X32929575Y-75679330D01*
X32986207Y-75467977D01*
X33005277Y-75250000D01*
X32986207Y-75032023D01*
X32986207Y-75032021D01*
X32976495Y-74995776D01*
X32976494Y-74931588D01*
X33008586Y-74876002D01*
X39508789Y-68375800D01*
X39524885Y-68362906D01*
X39526873Y-68360787D01*
X39526877Y-68360786D01*
X39572948Y-68311723D01*
X39575566Y-68309023D01*
X39595120Y-68289471D01*
X39597581Y-68286298D01*
X39605156Y-68277427D01*
X39635062Y-68245582D01*
X39644712Y-68228027D01*
X39655400Y-68211757D01*
X39667671Y-68195938D01*
X39667673Y-68195936D01*
X39685026Y-68155832D01*
X39690157Y-68145362D01*
X39711197Y-68107092D01*
X39716175Y-68087699D01*
X39722481Y-68069282D01*
X39724018Y-68065728D01*
X39730438Y-68050896D01*
X39737272Y-68007745D01*
X39739635Y-67996331D01*
X39750500Y-67954019D01*
X39750500Y-67933984D01*
X39752027Y-67914585D01*
X39755160Y-67894804D01*
X39751050Y-67851325D01*
X39750500Y-67839656D01*
X39750500Y-63905000D01*
X44314531Y-63905000D01*
X44334364Y-64131689D01*
X44393261Y-64351497D01*
X44489432Y-64557735D01*
X44619953Y-64744140D01*
X44780859Y-64905046D01*
X44967264Y-65035567D01*
X44967265Y-65035567D01*
X44967266Y-65035568D01*
X45173504Y-65131739D01*
X45393308Y-65190635D01*
X45620000Y-65210468D01*
X45846692Y-65190635D01*
X46066496Y-65131739D01*
X46272734Y-65035568D01*
X46459139Y-64905047D01*
X46620047Y-64744139D01*
X46750568Y-64557734D01*
X46846739Y-64351496D01*
X46905635Y-64131692D01*
X46925468Y-63905000D01*
X46905635Y-63678308D01*
X46846739Y-63458504D01*
X46750568Y-63252266D01*
X46620047Y-63065861D01*
X46620046Y-63065859D01*
X46459140Y-62904953D01*
X46272736Y-62774433D01*
X46272730Y-62774430D01*
X46214132Y-62747105D01*
X46161958Y-62701348D01*
X46142539Y-62634723D01*
X46161959Y-62568098D01*
X46214135Y-62522342D01*
X46272479Y-62495135D01*
X46458819Y-62364658D01*
X46619658Y-62203819D01*
X46750134Y-62017480D01*
X46846266Y-61811326D01*
X46898872Y-61615000D01*
X44341128Y-61615000D01*
X44393733Y-61811326D01*
X44489865Y-62017480D01*
X44620341Y-62203819D01*
X44781180Y-62364658D01*
X44967519Y-62495134D01*
X45025865Y-62522342D01*
X45078040Y-62568099D01*
X45097460Y-62634723D01*
X45078041Y-62701348D01*
X45025866Y-62747105D01*
X44967267Y-62774430D01*
X44780859Y-62904953D01*
X44619953Y-63065859D01*
X44489432Y-63252264D01*
X44393261Y-63458502D01*
X44334364Y-63678310D01*
X44314531Y-63905000D01*
X39750500Y-63905000D01*
X39750500Y-60032740D01*
X39752763Y-60012236D01*
X39752394Y-60000500D01*
X39750561Y-59942144D01*
X39750500Y-59938250D01*
X39750500Y-59910657D01*
X39750500Y-59910650D01*
X39749995Y-59906653D01*
X39749080Y-59895023D01*
X39747709Y-59851373D01*
X39742120Y-59832140D01*
X39738174Y-59813082D01*
X39735664Y-59793208D01*
X39719588Y-59752606D01*
X39715804Y-59741552D01*
X39703619Y-59699613D01*
X39703618Y-59699612D01*
X39703618Y-59699610D01*
X39693417Y-59682361D01*
X39684860Y-59664895D01*
X39677486Y-59646268D01*
X39651813Y-59610932D01*
X39645402Y-59601172D01*
X39623169Y-59563578D01*
X39609006Y-59549415D01*
X39596369Y-59534620D01*
X39584595Y-59518414D01*
X39584594Y-59518413D01*
X39550935Y-59490568D01*
X39542305Y-59482714D01*
X39299413Y-59239822D01*
X39267319Y-59184234D01*
X39267319Y-59120047D01*
X39280615Y-59070425D01*
X39285635Y-59051692D01*
X39305468Y-58825000D01*
X39285635Y-58598308D01*
X39226739Y-58378504D01*
X39130568Y-58172266D01*
X39128997Y-58170023D01*
X39000046Y-57985859D01*
X38839140Y-57824953D01*
X38652736Y-57694433D01*
X38594723Y-57667381D01*
X38542548Y-57621623D01*
X38523129Y-57554997D01*
X38542549Y-57488372D01*
X38594721Y-57442619D01*
X38652734Y-57415568D01*
X38839139Y-57285047D01*
X39000047Y-57124139D01*
X39130568Y-56937734D01*
X39226739Y-56731496D01*
X39285635Y-56511692D01*
X39305468Y-56285000D01*
X39285635Y-56058308D01*
X39226739Y-55838504D01*
X39130568Y-55632266D01*
X39000047Y-55445861D01*
X39000046Y-55445859D01*
X38839140Y-55284953D01*
X38652733Y-55154431D01*
X38594725Y-55127382D01*
X38542549Y-55081625D01*
X38523129Y-55015000D01*
X38542549Y-54948375D01*
X38594725Y-54902618D01*
X38652734Y-54875568D01*
X38839139Y-54745047D01*
X39000047Y-54584139D01*
X39130568Y-54397734D01*
X39226739Y-54191496D01*
X39285635Y-53971692D01*
X39305468Y-53745000D01*
X39285635Y-53518308D01*
X39226739Y-53298504D01*
X39130568Y-53092266D01*
X39000047Y-52905861D01*
X39000046Y-52905859D01*
X38839140Y-52744953D01*
X38652736Y-52614433D01*
X38594723Y-52587381D01*
X38542548Y-52541623D01*
X38523129Y-52474997D01*
X38542549Y-52408372D01*
X38594721Y-52362619D01*
X38652734Y-52335568D01*
X38839139Y-52205047D01*
X39000047Y-52044139D01*
X39130568Y-51857734D01*
X39226739Y-51651496D01*
X39285635Y-51431692D01*
X39305468Y-51205000D01*
X39285635Y-50978308D01*
X39226739Y-50758504D01*
X39130568Y-50552266D01*
X39070989Y-50467178D01*
X39000046Y-50365859D01*
X38839140Y-50204953D01*
X38652733Y-50074431D01*
X38594725Y-50047382D01*
X38542549Y-50001625D01*
X38523129Y-49935000D01*
X38542549Y-49868375D01*
X38594725Y-49822618D01*
X38652734Y-49795568D01*
X38839139Y-49665047D01*
X39000047Y-49504139D01*
X39130568Y-49317734D01*
X39226739Y-49111496D01*
X39285635Y-48891692D01*
X39305468Y-48665000D01*
X39285635Y-48438308D01*
X39226739Y-48218504D01*
X39130568Y-48012266D01*
X39000047Y-47825861D01*
X39000046Y-47825859D01*
X38839140Y-47664953D01*
X38814537Y-47647726D01*
X38775399Y-47602884D01*
X38761666Y-47544970D01*
X38776500Y-47487328D01*
X38816485Y-47443239D01*
X38872406Y-47422861D01*
X38907483Y-47419091D01*
X39042331Y-47368796D01*
X39157546Y-47282546D01*
X39243796Y-47167331D01*
X39294091Y-47032483D01*
X39300500Y-46972873D01*
X39300499Y-45277128D01*
X39294091Y-45217517D01*
X39243796Y-45082669D01*
X39157546Y-44967454D01*
X39042331Y-44881204D01*
X38907483Y-44830909D01*
X38847873Y-44824500D01*
X38847869Y-44824500D01*
X38749500Y-44824500D01*
X38687500Y-44807887D01*
X38642113Y-44762500D01*
X38625500Y-44700500D01*
X38625500Y-44082744D01*
X38627764Y-44062236D01*
X38625561Y-43992113D01*
X38625500Y-43988219D01*
X38625500Y-43960654D01*
X38625500Y-43960650D01*
X38624997Y-43956670D01*
X38624081Y-43945028D01*
X38622710Y-43901373D01*
X38617118Y-43882126D01*
X38613174Y-43863085D01*
X38610664Y-43843208D01*
X38594579Y-43802583D01*
X38590808Y-43791568D01*
X38578618Y-43749610D01*
X38568414Y-43732355D01*
X38559861Y-43714895D01*
X38552486Y-43696269D01*
X38552486Y-43696268D01*
X38526808Y-43660925D01*
X38520401Y-43651171D01*
X38498169Y-43613579D01*
X38484006Y-43599416D01*
X38471367Y-43584617D01*
X38459595Y-43568413D01*
X38425941Y-43540573D01*
X38417299Y-43532709D01*
X33008588Y-38123997D01*
X32976494Y-38068408D01*
X32976494Y-38004221D01*
X32986207Y-37967977D01*
X33005277Y-37750000D01*
X32986207Y-37532023D01*
X32929575Y-37320670D01*
X32837102Y-37122362D01*
X32711598Y-36943123D01*
X32556877Y-36788402D01*
X32377639Y-36662898D01*
X32286205Y-36620261D01*
X32179331Y-36570425D01*
X31967974Y-36513792D01*
X31750000Y-36494722D01*
X31532025Y-36513792D01*
X31320668Y-36570425D01*
X31122361Y-36662898D01*
X30943122Y-36788402D01*
X30788402Y-36943122D01*
X30662898Y-37122361D01*
X30570425Y-37320668D01*
X30513792Y-37532025D01*
X30494722Y-37750000D01*
X30513792Y-37967974D01*
X30555598Y-38123997D01*
X30570425Y-38179330D01*
X30662898Y-38377639D01*
X30788402Y-38556877D01*
X30943123Y-38711598D01*
X31122361Y-38837102D01*
X31320670Y-38929575D01*
X31532023Y-38986207D01*
X31750000Y-39005277D01*
X31967977Y-38986207D01*
X32004221Y-38976494D01*
X32068409Y-38976494D01*
X32123998Y-39008588D01*
X37338181Y-44222771D01*
X37365061Y-44262999D01*
X37374500Y-44310452D01*
X37374500Y-44700501D01*
X37357887Y-44762501D01*
X37312500Y-44807888D01*
X37250500Y-44824501D01*
X37152128Y-44824501D01*
X37122322Y-44827704D01*
X37092515Y-44830909D01*
X36957669Y-44881204D01*
X36842454Y-44967454D01*
X36756204Y-45082668D01*
X36705909Y-45217516D01*
X36699500Y-45277131D01*
X36699500Y-46180547D01*
X36685985Y-46236842D01*
X36648385Y-46280865D01*
X36594898Y-46303020D01*
X36537182Y-46298478D01*
X36487819Y-46268228D01*
X35085802Y-44866211D01*
X35072906Y-44850113D01*
X35021775Y-44802098D01*
X35018978Y-44799387D01*
X34999470Y-44779879D01*
X34996290Y-44777412D01*
X34987424Y-44769839D01*
X34955582Y-44739938D01*
X34938024Y-44730285D01*
X34921764Y-44719604D01*
X34905936Y-44707327D01*
X34865851Y-44689980D01*
X34855361Y-44684841D01*
X34817091Y-44663802D01*
X34797691Y-44658821D01*
X34779284Y-44652519D01*
X34760897Y-44644562D01*
X34717758Y-44637729D01*
X34706324Y-44635361D01*
X34664019Y-44624500D01*
X34643984Y-44624500D01*
X34624586Y-44622973D01*
X34617162Y-44621797D01*
X34604805Y-44619840D01*
X34604804Y-44619840D01*
X34571751Y-44622964D01*
X34561325Y-44623950D01*
X34549656Y-44624500D01*
X32903149Y-44624500D01*
X32845892Y-44610489D01*
X32801574Y-44571623D01*
X32774407Y-44532825D01*
X32711598Y-44443123D01*
X32556877Y-44288402D01*
X32377639Y-44162898D01*
X32286205Y-44120261D01*
X32179331Y-44070425D01*
X31967974Y-44013792D01*
X31750000Y-43994722D01*
X31532025Y-44013792D01*
X31320668Y-44070425D01*
X31122361Y-44162898D01*
X30943122Y-44288402D01*
X30788402Y-44443122D01*
X30662898Y-44622361D01*
X30570425Y-44820668D01*
X30513792Y-45032025D01*
X30494722Y-45250000D01*
X30513792Y-45467974D01*
X30513793Y-45467977D01*
X30570425Y-45679330D01*
X30662898Y-45877639D01*
X30788402Y-46056877D01*
X30943123Y-46211598D01*
X31122361Y-46337102D01*
X31320670Y-46429575D01*
X31532023Y-46486207D01*
X31750000Y-46505277D01*
X31967977Y-46486207D01*
X32179330Y-46429575D01*
X32377639Y-46337102D01*
X32556877Y-46211598D01*
X32711598Y-46056877D01*
X32801576Y-45928375D01*
X32845892Y-45889511D01*
X32903149Y-45875500D01*
X34274548Y-45875500D01*
X34322001Y-45884939D01*
X34362229Y-45911819D01*
X36700586Y-48250177D01*
X36732680Y-48305764D01*
X36732680Y-48369950D01*
X36714364Y-48438307D01*
X36694531Y-48665000D01*
X36714364Y-48891689D01*
X36773261Y-49111497D01*
X36869432Y-49317735D01*
X36999953Y-49504140D01*
X37160859Y-49665046D01*
X37347263Y-49795566D01*
X37347266Y-49795568D01*
X37405275Y-49822618D01*
X37457450Y-49868375D01*
X37476869Y-49935000D01*
X37457450Y-50001625D01*
X37405275Y-50047382D01*
X37347263Y-50074433D01*
X37160859Y-50204953D01*
X36999953Y-50365859D01*
X36869432Y-50552264D01*
X36773261Y-50758502D01*
X36714364Y-50978310D01*
X36694531Y-51204999D01*
X36714364Y-51431690D01*
X36732680Y-51500047D01*
X36732680Y-51564234D01*
X36700586Y-51619821D01*
X36232228Y-52088181D01*
X36192000Y-52115061D01*
X36144547Y-52124500D01*
X32903149Y-52124500D01*
X32845892Y-52110489D01*
X32801574Y-52071623D01*
X32782330Y-52044140D01*
X32711598Y-51943123D01*
X32556877Y-51788402D01*
X32377639Y-51662898D01*
X32285260Y-51619821D01*
X32179331Y-51570425D01*
X31967974Y-51513792D01*
X31750000Y-51494722D01*
X31532025Y-51513792D01*
X31320668Y-51570425D01*
X31122361Y-51662898D01*
X30943122Y-51788402D01*
X30788402Y-51943122D01*
X30662898Y-52122361D01*
X30570425Y-52320668D01*
X30513792Y-52532025D01*
X30494722Y-52750000D01*
X30513792Y-52967974D01*
X30547095Y-53092264D01*
X30570425Y-53179330D01*
X30662898Y-53377639D01*
X30788402Y-53556877D01*
X30943123Y-53711598D01*
X31122361Y-53837102D01*
X31320670Y-53929575D01*
X31532023Y-53986207D01*
X31750000Y-54005277D01*
X31967977Y-53986207D01*
X32179330Y-53929575D01*
X32377639Y-53837102D01*
X32556877Y-53711598D01*
X32711598Y-53556877D01*
X32801576Y-53428375D01*
X32845892Y-53389511D01*
X32903149Y-53375500D01*
X36372256Y-53375500D01*
X36392762Y-53377764D01*
X36395665Y-53377672D01*
X36395667Y-53377673D01*
X36462872Y-53375561D01*
X36466768Y-53375500D01*
X36494349Y-53375500D01*
X36494350Y-53375500D01*
X36498319Y-53374998D01*
X36509965Y-53374080D01*
X36553627Y-53372709D01*
X36558906Y-53371174D01*
X36623707Y-53369983D01*
X36680259Y-53401647D01*
X36713110Y-53457518D01*
X36713245Y-53507319D01*
X36715310Y-53507500D01*
X36694531Y-53745000D01*
X36714364Y-53971689D01*
X36773261Y-54191497D01*
X36784476Y-54215547D01*
X36796042Y-54264345D01*
X36787333Y-54313733D01*
X36759775Y-54355633D01*
X32903485Y-58211923D01*
X32851368Y-58243033D01*
X32790729Y-58245680D01*
X32736098Y-58219231D01*
X32700565Y-58170023D01*
X32692642Y-58109846D01*
X32714227Y-58053121D01*
X32837102Y-57877639D01*
X32929575Y-57679330D01*
X32986207Y-57467977D01*
X33005277Y-57250000D01*
X32986207Y-57032023D01*
X32929575Y-56820670D01*
X32837102Y-56622362D01*
X32711598Y-56443123D01*
X32556877Y-56288402D01*
X32377639Y-56162898D01*
X32286205Y-56120261D01*
X32179331Y-56070425D01*
X31967974Y-56013792D01*
X31750000Y-55994722D01*
X31532025Y-56013792D01*
X31320668Y-56070425D01*
X31122361Y-56162898D01*
X30943122Y-56288402D01*
X30788402Y-56443122D01*
X30662898Y-56622361D01*
X30570425Y-56820668D01*
X30513792Y-57032025D01*
X30494722Y-57250000D01*
X30513792Y-57467974D01*
X30570425Y-57679331D01*
X30620261Y-57786205D01*
X30662898Y-57877639D01*
X30788402Y-58056877D01*
X30943123Y-58211598D01*
X31122361Y-58337102D01*
X31320670Y-58429575D01*
X31532023Y-58486207D01*
X31750000Y-58505277D01*
X31967977Y-58486207D01*
X32179330Y-58429575D01*
X32377639Y-58337102D01*
X32553122Y-58214226D01*
X32609845Y-58192642D01*
X32670022Y-58200565D01*
X32719230Y-58236098D01*
X32745679Y-58290729D01*
X32743032Y-58351368D01*
X32711922Y-58403485D01*
X32123997Y-58991410D01*
X32068411Y-59023504D01*
X32004225Y-59023504D01*
X31967979Y-59013792D01*
X31749999Y-58994722D01*
X31532025Y-59013792D01*
X31320668Y-59070425D01*
X31122361Y-59162898D01*
X30943122Y-59288402D01*
X30788402Y-59443122D01*
X30662898Y-59622361D01*
X30570425Y-59820668D01*
X30513792Y-60032025D01*
X30494722Y-60250000D01*
X30513792Y-60467974D01*
X30513793Y-60467977D01*
X30570425Y-60679330D01*
X30662898Y-60877639D01*
X30788402Y-61056877D01*
X30943123Y-61211598D01*
X31122361Y-61337102D01*
X31320670Y-61429575D01*
X31532023Y-61486207D01*
X31750000Y-61505277D01*
X31967977Y-61486207D01*
X32029134Y-61469819D01*
X32043406Y-61465996D01*
X32099691Y-61464154D01*
X32150986Y-61487395D01*
X32186712Y-61530927D01*
X32199500Y-61585771D01*
X32199500Y-63414229D01*
X32186712Y-63469073D01*
X32150986Y-63512605D01*
X32099691Y-63535846D01*
X32043406Y-63534004D01*
X31967974Y-63513792D01*
X31750000Y-63494722D01*
X31532025Y-63513792D01*
X31320668Y-63570425D01*
X31122361Y-63662898D01*
X30943122Y-63788402D01*
X30788402Y-63943122D01*
X30662898Y-64122361D01*
X30570425Y-64320668D01*
X30513792Y-64532025D01*
X30494722Y-64750000D01*
X30513792Y-64967974D01*
X30570425Y-65179331D01*
X30616966Y-65279137D01*
X30662898Y-65377639D01*
X30788402Y-65556877D01*
X30943123Y-65711598D01*
X31122361Y-65837102D01*
X31320670Y-65929575D01*
X31532023Y-65986207D01*
X31750000Y-66005277D01*
X31967977Y-65986207D01*
X32029134Y-65969819D01*
X32043406Y-65965996D01*
X32099691Y-65964154D01*
X32150986Y-65987395D01*
X32186712Y-66030927D01*
X32199500Y-66085771D01*
X32199500Y-66364547D01*
X32190060Y-66412001D01*
X32163179Y-66452230D01*
X32123995Y-66491412D01*
X32068409Y-66523504D01*
X32004225Y-66523504D01*
X31967979Y-66513792D01*
X31749999Y-66494722D01*
X31532025Y-66513792D01*
X31320668Y-66570425D01*
X31122361Y-66662898D01*
X30943122Y-66788402D01*
X30788402Y-66943122D01*
X30662898Y-67122361D01*
X30570425Y-67320668D01*
X30513792Y-67532025D01*
X30494722Y-67749999D01*
X30513792Y-67967974D01*
X30570425Y-68179331D01*
X30601318Y-68245580D01*
X30662898Y-68377639D01*
X30788402Y-68556877D01*
X30943123Y-68711598D01*
X31122361Y-68837102D01*
X31238713Y-68891357D01*
X31284683Y-68928253D01*
X31308423Y-68982207D01*
X31304568Y-69041027D01*
X31273988Y-69091420D01*
X30291208Y-70074199D01*
X30275110Y-70087096D01*
X30227096Y-70138225D01*
X30224391Y-70141017D01*
X30204874Y-70160534D01*
X30202415Y-70163705D01*
X30194842Y-70172572D01*
X30164935Y-70204420D01*
X30155285Y-70221974D01*
X30144609Y-70238228D01*
X30132326Y-70254063D01*
X30114975Y-70294158D01*
X30109838Y-70304644D01*
X30088802Y-70342907D01*
X30083821Y-70362309D01*
X30077520Y-70380711D01*
X30069561Y-70399102D01*
X30062728Y-70442242D01*
X30060360Y-70453674D01*
X30049500Y-70495978D01*
X30049500Y-70516016D01*
X30047973Y-70535415D01*
X30044840Y-70555194D01*
X25000500Y-70555194D01*
X25000500Y-66306328D01*
X25495709Y-66306328D01*
X25525925Y-66529388D01*
X25593713Y-66738019D01*
X25595483Y-66743464D01*
X25702148Y-66941681D01*
X25842492Y-67117666D01*
X26012004Y-67265765D01*
X26012006Y-67265766D01*
X26205237Y-67381216D01*
X26323214Y-67425493D01*
X26415976Y-67460307D01*
X26637453Y-67500500D01*
X26806153Y-67500500D01*
X26806155Y-67500500D01*
X26974188Y-67485377D01*
X27191170Y-67425493D01*
X27393973Y-67327829D01*
X27576078Y-67195522D01*
X27731632Y-67032825D01*
X27855635Y-66844968D01*
X27944103Y-66637988D01*
X27994191Y-66418537D01*
X28004290Y-66193670D01*
X27974075Y-65970613D01*
X27904517Y-65756536D01*
X27797852Y-65558319D01*
X27657508Y-65382334D01*
X27487996Y-65234235D01*
X27471356Y-65224293D01*
X27294762Y-65118783D01*
X27084025Y-65039693D01*
X26862547Y-64999500D01*
X26693845Y-64999500D01*
X26626631Y-65005549D01*
X26525809Y-65014623D01*
X26308828Y-65074507D01*
X26106027Y-65172170D01*
X25923925Y-65304475D01*
X25768365Y-65467178D01*
X25644365Y-65655031D01*
X25555896Y-65862012D01*
X25505809Y-66081462D01*
X25495709Y-66306328D01*
X25000500Y-66306328D01*
X25000500Y-58806328D01*
X25495709Y-58806328D01*
X25525925Y-59029388D01*
X25594299Y-59239822D01*
X25595483Y-59243464D01*
X25702148Y-59441681D01*
X25799358Y-59563578D01*
X25837125Y-59610937D01*
X25842492Y-59617666D01*
X26012004Y-59765765D01*
X26012006Y-59765766D01*
X26205237Y-59881216D01*
X26323214Y-59925493D01*
X26415976Y-59960307D01*
X26637453Y-60000500D01*
X26806153Y-60000500D01*
X26806155Y-60000500D01*
X26974188Y-59985377D01*
X27191170Y-59925493D01*
X27393973Y-59827829D01*
X27576078Y-59695522D01*
X27731632Y-59532825D01*
X27855635Y-59344968D01*
X27944103Y-59137988D01*
X27994191Y-58918537D01*
X28004290Y-58693670D01*
X27974075Y-58470613D01*
X27904517Y-58256536D01*
X27797852Y-58058319D01*
X27657508Y-57882334D01*
X27487996Y-57734235D01*
X27487993Y-57734233D01*
X27294762Y-57618783D01*
X27084025Y-57539693D01*
X26862547Y-57499500D01*
X26693845Y-57499500D01*
X26626631Y-57505549D01*
X26525809Y-57514623D01*
X26308828Y-57574507D01*
X26106027Y-57672170D01*
X25923925Y-57804475D01*
X25768365Y-57967178D01*
X25644365Y-58155031D01*
X25555896Y-58362012D01*
X25505809Y-58581462D01*
X25495709Y-58806328D01*
X25000500Y-58806328D01*
X25000500Y-51306328D01*
X25495709Y-51306328D01*
X25525925Y-51529388D01*
X25565600Y-51651496D01*
X25595483Y-51743464D01*
X25702148Y-51941681D01*
X25783856Y-52044139D01*
X25840414Y-52115061D01*
X25842492Y-52117666D01*
X26012004Y-52265765D01*
X26012006Y-52265766D01*
X26205237Y-52381216D01*
X26323214Y-52425493D01*
X26415976Y-52460307D01*
X26637453Y-52500500D01*
X26806153Y-52500500D01*
X26806155Y-52500500D01*
X26974188Y-52485377D01*
X27191170Y-52425493D01*
X27393973Y-52327829D01*
X27576078Y-52195522D01*
X27731632Y-52032825D01*
X27855635Y-51844968D01*
X27944103Y-51637988D01*
X27994191Y-51418537D01*
X28004290Y-51193670D01*
X27974075Y-50970613D01*
X27904517Y-50756536D01*
X27797852Y-50558319D01*
X27657508Y-50382334D01*
X27487996Y-50234235D01*
X27396102Y-50179331D01*
X27294762Y-50118783D01*
X27084025Y-50039693D01*
X26862547Y-49999500D01*
X26693845Y-49999500D01*
X26626631Y-50005549D01*
X26525809Y-50014623D01*
X26308828Y-50074507D01*
X26106027Y-50172170D01*
X25923925Y-50304475D01*
X25768365Y-50467178D01*
X25644365Y-50655031D01*
X25555896Y-50862012D01*
X25505809Y-51081462D01*
X25495709Y-51306328D01*
X25000500Y-51306328D01*
X25000500Y-49749999D01*
X30494722Y-49749999D01*
X30513792Y-49967974D01*
X30570425Y-50179331D01*
X30620261Y-50286205D01*
X30662898Y-50377639D01*
X30788402Y-50556877D01*
X30943123Y-50711598D01*
X31122361Y-50837102D01*
X31320670Y-50929575D01*
X31532023Y-50986207D01*
X31750000Y-51005277D01*
X31967977Y-50986207D01*
X32179330Y-50929575D01*
X32377639Y-50837102D01*
X32556877Y-50711598D01*
X32711598Y-50556877D01*
X32837102Y-50377639D01*
X32929575Y-50179330D01*
X32986207Y-49967977D01*
X33005277Y-49750000D01*
X32986207Y-49532023D01*
X32929575Y-49320670D01*
X32837102Y-49122362D01*
X32711598Y-48943123D01*
X32556877Y-48788402D01*
X32377639Y-48662898D01*
X32286205Y-48620261D01*
X32179331Y-48570425D01*
X31967974Y-48513792D01*
X31750000Y-48494722D01*
X31532025Y-48513792D01*
X31320668Y-48570425D01*
X31122361Y-48662898D01*
X30943122Y-48788402D01*
X30788402Y-48943122D01*
X30662898Y-49122361D01*
X30570425Y-49320668D01*
X30513792Y-49532025D01*
X30494722Y-49749999D01*
X25000500Y-49749999D01*
X25000500Y-43806328D01*
X25495709Y-43806328D01*
X25525925Y-44029388D01*
X25561211Y-44137988D01*
X25595483Y-44243464D01*
X25702148Y-44441681D01*
X25802032Y-44566931D01*
X25836768Y-44610489D01*
X25842492Y-44617666D01*
X26012004Y-44765765D01*
X26012006Y-44765766D01*
X26205237Y-44881216D01*
X26323214Y-44925493D01*
X26415976Y-44960307D01*
X26637453Y-45000500D01*
X26806153Y-45000500D01*
X26806155Y-45000500D01*
X26974188Y-44985377D01*
X27191170Y-44925493D01*
X27393973Y-44827829D01*
X27576078Y-44695522D01*
X27731632Y-44532825D01*
X27855635Y-44344968D01*
X27944103Y-44137988D01*
X27994191Y-43918537D01*
X28004290Y-43693670D01*
X27974075Y-43470613D01*
X27904517Y-43256536D01*
X27797852Y-43058319D01*
X27657508Y-42882334D01*
X27487996Y-42734235D01*
X27396102Y-42679331D01*
X27294762Y-42618783D01*
X27084025Y-42539693D01*
X26862547Y-42499500D01*
X26693845Y-42499500D01*
X26626631Y-42505549D01*
X26525809Y-42514623D01*
X26308828Y-42574507D01*
X26106027Y-42672170D01*
X25923925Y-42804475D01*
X25768365Y-42967178D01*
X25644365Y-43155031D01*
X25555896Y-43362012D01*
X25505809Y-43581462D01*
X25495709Y-43806328D01*
X25000500Y-43806328D01*
X25000500Y-42249999D01*
X30494722Y-42249999D01*
X30513792Y-42467974D01*
X30570425Y-42679331D01*
X30620261Y-42786205D01*
X30662898Y-42877639D01*
X30788402Y-43056877D01*
X30943123Y-43211598D01*
X31122361Y-43337102D01*
X31320670Y-43429575D01*
X31532023Y-43486207D01*
X31677340Y-43498920D01*
X31749999Y-43505277D01*
X31749999Y-43505276D01*
X31750000Y-43505277D01*
X31967977Y-43486207D01*
X32179330Y-43429575D01*
X32377639Y-43337102D01*
X32556877Y-43211598D01*
X32711598Y-43056877D01*
X32837102Y-42877639D01*
X32929575Y-42679330D01*
X32986207Y-42467977D01*
X33005277Y-42250000D01*
X32986207Y-42032023D01*
X32929575Y-41820670D01*
X32837102Y-41622362D01*
X32711598Y-41443123D01*
X32556877Y-41288402D01*
X32377639Y-41162898D01*
X32286205Y-41120261D01*
X32179331Y-41070425D01*
X31967974Y-41013792D01*
X31750000Y-40994722D01*
X31532025Y-41013792D01*
X31320668Y-41070425D01*
X31122361Y-41162898D01*
X30943122Y-41288402D01*
X30788402Y-41443122D01*
X30662898Y-41622361D01*
X30570425Y-41820668D01*
X30513792Y-42032025D01*
X30494722Y-42249999D01*
X25000500Y-42249999D01*
X25000500Y-36306328D01*
X25495709Y-36306328D01*
X25525925Y-36529388D01*
X25592949Y-36735667D01*
X25595483Y-36743464D01*
X25702148Y-36941681D01*
X25798606Y-37062635D01*
X25827392Y-37098732D01*
X25842492Y-37117666D01*
X26012004Y-37265765D01*
X26012006Y-37265766D01*
X26205237Y-37381216D01*
X26323214Y-37425493D01*
X26415976Y-37460307D01*
X26637453Y-37500500D01*
X26806153Y-37500500D01*
X26806155Y-37500500D01*
X26974188Y-37485377D01*
X27191170Y-37425493D01*
X27393973Y-37327829D01*
X27576078Y-37195522D01*
X27731632Y-37032825D01*
X27855635Y-36844968D01*
X27944103Y-36637988D01*
X27994191Y-36418537D01*
X28004290Y-36193670D01*
X27974075Y-35970613D01*
X27904517Y-35756536D01*
X27797852Y-35558319D01*
X27657508Y-35382334D01*
X27487996Y-35234235D01*
X27460554Y-35217839D01*
X27294762Y-35118783D01*
X27084025Y-35039693D01*
X26862547Y-34999500D01*
X26693845Y-34999500D01*
X26626631Y-35005549D01*
X26525809Y-35014623D01*
X26308828Y-35074507D01*
X26106027Y-35172170D01*
X25923925Y-35304475D01*
X25768365Y-35467178D01*
X25644365Y-35655031D01*
X25555896Y-35862012D01*
X25505809Y-36081462D01*
X25495709Y-36306328D01*
X25000500Y-36306328D01*
X25000500Y-34750000D01*
X30494722Y-34750000D01*
X30513792Y-34967974D01*
X30570425Y-35179331D01*
X30606538Y-35256775D01*
X30662898Y-35377639D01*
X30788402Y-35556877D01*
X30943123Y-35711598D01*
X31122361Y-35837102D01*
X31320670Y-35929575D01*
X31532023Y-35986207D01*
X31750000Y-36005277D01*
X31967977Y-35986207D01*
X32179330Y-35929575D01*
X32377639Y-35837102D01*
X32556877Y-35711598D01*
X32711598Y-35556877D01*
X32837102Y-35377639D01*
X32888117Y-35268235D01*
X32931160Y-35217839D01*
X32994011Y-35196810D01*
X33058715Y-35211155D01*
X33106789Y-35256775D01*
X33124500Y-35320640D01*
X33124500Y-36712256D01*
X33122235Y-36732762D01*
X33124439Y-36802873D01*
X33124500Y-36806768D01*
X33124500Y-36834349D01*
X33125003Y-36838334D01*
X33125918Y-36849967D01*
X33127290Y-36893626D01*
X33132879Y-36912860D01*
X33136825Y-36931916D01*
X33139335Y-36951792D01*
X33155414Y-36992404D01*
X33159197Y-37003451D01*
X33171382Y-37045391D01*
X33181580Y-37062635D01*
X33190136Y-37080100D01*
X33197514Y-37098732D01*
X33197515Y-37098733D01*
X33223180Y-37134059D01*
X33229593Y-37143822D01*
X33251826Y-37181416D01*
X33251829Y-37181419D01*
X33251830Y-37181420D01*
X33265995Y-37195585D01*
X33278627Y-37210375D01*
X33290406Y-37226587D01*
X33324058Y-37254426D01*
X33332699Y-37262289D01*
X44320586Y-48250177D01*
X44352680Y-48305764D01*
X44352680Y-48369950D01*
X44334364Y-48438307D01*
X44314531Y-48665000D01*
X44334364Y-48891689D01*
X44393261Y-49111497D01*
X44489432Y-49317735D01*
X44619953Y-49504140D01*
X44780859Y-49665046D01*
X44967263Y-49795566D01*
X44967266Y-49795568D01*
X45025275Y-49822618D01*
X45077450Y-49868375D01*
X45096869Y-49935000D01*
X45077450Y-50001625D01*
X45025275Y-50047382D01*
X44967263Y-50074433D01*
X44780859Y-50204953D01*
X44619953Y-50365859D01*
X44489432Y-50552264D01*
X44393261Y-50758502D01*
X44334364Y-50978310D01*
X44314531Y-51205000D01*
X44334364Y-51431689D01*
X44393261Y-51651497D01*
X44489432Y-51857735D01*
X44619953Y-52044140D01*
X44780859Y-52205046D01*
X44945986Y-52320668D01*
X44967266Y-52335568D01*
X45025275Y-52362618D01*
X45077450Y-52408375D01*
X45096869Y-52475000D01*
X45077450Y-52541625D01*
X45025275Y-52587382D01*
X44967263Y-52614433D01*
X44780859Y-52744953D01*
X44619953Y-52905859D01*
X44489432Y-53092264D01*
X44393261Y-53298502D01*
X44334364Y-53518310D01*
X44314531Y-53745000D01*
X44334364Y-53971689D01*
X44393261Y-54191497D01*
X44489432Y-54397735D01*
X44619953Y-54584140D01*
X44780859Y-54745046D01*
X44967263Y-54875566D01*
X44967266Y-54875568D01*
X45025275Y-54902618D01*
X45077450Y-54948375D01*
X45096869Y-55015000D01*
X45077450Y-55081625D01*
X45025275Y-55127382D01*
X44967263Y-55154433D01*
X44780859Y-55284953D01*
X44619953Y-55445859D01*
X44489432Y-55632264D01*
X44393261Y-55838502D01*
X44334364Y-56058310D01*
X44314531Y-56285000D01*
X44334364Y-56511689D01*
X44393261Y-56731497D01*
X44489432Y-56937735D01*
X44619953Y-57124140D01*
X44780859Y-57285046D01*
X44967263Y-57415566D01*
X44967266Y-57415568D01*
X45025275Y-57442618D01*
X45077450Y-57488375D01*
X45096869Y-57555000D01*
X45077450Y-57621625D01*
X45025275Y-57667382D01*
X44967263Y-57694433D01*
X44780859Y-57824953D01*
X44619953Y-57985859D01*
X44489432Y-58172264D01*
X44393261Y-58378502D01*
X44334364Y-58598310D01*
X44314531Y-58825000D01*
X44334364Y-59051689D01*
X44393261Y-59271497D01*
X44489432Y-59477735D01*
X44619953Y-59664140D01*
X44780859Y-59825046D01*
X44967264Y-59955567D01*
X44967265Y-59955567D01*
X44967266Y-59955568D01*
X45025865Y-59982893D01*
X45078040Y-60028650D01*
X45097460Y-60095274D01*
X45078041Y-60161899D01*
X45025866Y-60207656D01*
X44967522Y-60234863D01*
X44781180Y-60365341D01*
X44620341Y-60526180D01*
X44489865Y-60712519D01*
X44393733Y-60918673D01*
X44341128Y-61114999D01*
X44341128Y-61115000D01*
X46898872Y-61115000D01*
X46898871Y-61114999D01*
X46846266Y-60918673D01*
X46750134Y-60712519D01*
X46619658Y-60526180D01*
X46458819Y-60365341D01*
X46272482Y-60234866D01*
X46214133Y-60207657D01*
X46161958Y-60161899D01*
X46142539Y-60095274D01*
X46161959Y-60028649D01*
X46214134Y-59982893D01*
X46272734Y-59955568D01*
X46459139Y-59825047D01*
X46620047Y-59664139D01*
X46750568Y-59477734D01*
X46846739Y-59271496D01*
X46905635Y-59051692D01*
X46925468Y-58825000D01*
X46905635Y-58598308D01*
X46846739Y-58378504D01*
X46750568Y-58172266D01*
X46748997Y-58170023D01*
X46620046Y-57985859D01*
X46459140Y-57824953D01*
X46272736Y-57694433D01*
X46214723Y-57667381D01*
X46162548Y-57621623D01*
X46143129Y-57554997D01*
X46162549Y-57488372D01*
X46214721Y-57442619D01*
X46272734Y-57415568D01*
X46459139Y-57285047D01*
X46620047Y-57124139D01*
X46750568Y-56937734D01*
X46846739Y-56731496D01*
X46905635Y-56511692D01*
X46925468Y-56285000D01*
X46905635Y-56058308D01*
X46846739Y-55838504D01*
X46750568Y-55632266D01*
X46620047Y-55445861D01*
X46620046Y-55445859D01*
X46459140Y-55284953D01*
X46272733Y-55154431D01*
X46214725Y-55127382D01*
X46162549Y-55081625D01*
X46143129Y-55015000D01*
X46162549Y-54948375D01*
X46214725Y-54902618D01*
X46272734Y-54875568D01*
X46459139Y-54745047D01*
X46620047Y-54584139D01*
X46750568Y-54397734D01*
X46846739Y-54191496D01*
X46905635Y-53971692D01*
X46925468Y-53745000D01*
X46905635Y-53518308D01*
X46846739Y-53298504D01*
X46750568Y-53092266D01*
X46620047Y-52905861D01*
X46620046Y-52905859D01*
X46459140Y-52744953D01*
X46272736Y-52614433D01*
X46214723Y-52587381D01*
X46162548Y-52541623D01*
X46143129Y-52474997D01*
X46162549Y-52408372D01*
X46214721Y-52362619D01*
X46272734Y-52335568D01*
X46459139Y-52205047D01*
X46620047Y-52044139D01*
X46750568Y-51857734D01*
X46846739Y-51651496D01*
X46905635Y-51431692D01*
X46925468Y-51205000D01*
X46905635Y-50978308D01*
X46846739Y-50758504D01*
X46750568Y-50552266D01*
X46690989Y-50467178D01*
X46620046Y-50365859D01*
X46459140Y-50204953D01*
X46272733Y-50074431D01*
X46214725Y-50047382D01*
X46162549Y-50001625D01*
X46143129Y-49935000D01*
X46162549Y-49868375D01*
X46214725Y-49822618D01*
X46272734Y-49795568D01*
X46459139Y-49665047D01*
X46620047Y-49504139D01*
X46750568Y-49317734D01*
X46846739Y-49111496D01*
X46905635Y-48891692D01*
X46925468Y-48665000D01*
X46905635Y-48438308D01*
X46846739Y-48218504D01*
X46750568Y-48012266D01*
X46620047Y-47825861D01*
X46620046Y-47825859D01*
X46459140Y-47664953D01*
X46272736Y-47534433D01*
X46272734Y-47534432D01*
X46214132Y-47507105D01*
X46161958Y-47461348D01*
X46142539Y-47394723D01*
X46161959Y-47328098D01*
X46214135Y-47282342D01*
X46272479Y-47255135D01*
X46458819Y-47124658D01*
X46619658Y-46963819D01*
X46750134Y-46777480D01*
X46846266Y-46571326D01*
X46898872Y-46375000D01*
X44316918Y-46375000D01*
X44316291Y-46375460D01*
X44247045Y-46379995D01*
X44186207Y-46346616D01*
X43714591Y-45875000D01*
X44341128Y-45875000D01*
X45370000Y-45875000D01*
X45370000Y-44846128D01*
X45870000Y-44846128D01*
X45870000Y-45875000D01*
X46898872Y-45875000D01*
X46898871Y-45874999D01*
X46846266Y-45678673D01*
X46750134Y-45472519D01*
X46619658Y-45286180D01*
X46458819Y-45125341D01*
X46272480Y-44994865D01*
X46066326Y-44898733D01*
X45870000Y-44846128D01*
X45370000Y-44846128D01*
X45369999Y-44846128D01*
X45173673Y-44898733D01*
X44967519Y-44994865D01*
X44781180Y-45125341D01*
X44620341Y-45286180D01*
X44489865Y-45472519D01*
X44393733Y-45678673D01*
X44341128Y-45874999D01*
X44341128Y-45875000D01*
X43714591Y-45875000D01*
X34411819Y-36572228D01*
X34384939Y-36532000D01*
X34375500Y-36484547D01*
X34375500Y-35350000D01*
X36509364Y-35350000D01*
X36566569Y-35563492D01*
X36666399Y-35777576D01*
X36801893Y-35971081D01*
X36968918Y-36138106D01*
X37162423Y-36273600D01*
X37376507Y-36373430D01*
X37589999Y-36430635D01*
X37590000Y-36430636D01*
X37590000Y-36430635D01*
X38090000Y-36430635D01*
X38303492Y-36373430D01*
X38517576Y-36273600D01*
X38711081Y-36138106D01*
X38878109Y-35971078D01*
X39008119Y-35785405D01*
X39052437Y-35746539D01*
X39109694Y-35732528D01*
X39166951Y-35746539D01*
X39211267Y-35785402D01*
X39341505Y-35971401D01*
X39508599Y-36138495D01*
X39702170Y-36274035D01*
X39916337Y-36373903D01*
X40144592Y-36435063D01*
X40380000Y-36455659D01*
X40615408Y-36435063D01*
X40843663Y-36373903D01*
X41057830Y-36274035D01*
X41251401Y-36138495D01*
X41418495Y-35971401D01*
X41548426Y-35785839D01*
X41592743Y-35746975D01*
X41650000Y-35732964D01*
X41707257Y-35746975D01*
X41751573Y-35785839D01*
X41881505Y-35971401D01*
X42048599Y-36138495D01*
X42242170Y-36274035D01*
X42456337Y-36373903D01*
X42684592Y-36435063D01*
X42920000Y-36455659D01*
X43155408Y-36435063D01*
X43383663Y-36373903D01*
X43597830Y-36274035D01*
X43791401Y-36138495D01*
X43958495Y-35971401D01*
X44088426Y-35785839D01*
X44132743Y-35746975D01*
X44190000Y-35732964D01*
X44247257Y-35746975D01*
X44291573Y-35785839D01*
X44421505Y-35971401D01*
X44588599Y-36138495D01*
X44782170Y-36274035D01*
X44996337Y-36373903D01*
X45224592Y-36435063D01*
X45460000Y-36455659D01*
X45695408Y-36435063D01*
X45923663Y-36373903D01*
X46137830Y-36274035D01*
X46331401Y-36138495D01*
X46453329Y-36016566D01*
X46506072Y-35985273D01*
X46567365Y-35983084D01*
X46622209Y-36010537D01*
X46657189Y-36060916D01*
X46664853Y-36081463D01*
X46706204Y-36192331D01*
X46792454Y-36307546D01*
X46907669Y-36393796D01*
X47042517Y-36444091D01*
X47102127Y-36450500D01*
X48897872Y-36450499D01*
X48957483Y-36444091D01*
X49092331Y-36393796D01*
X49207546Y-36307546D01*
X49293796Y-36192331D01*
X49344091Y-36057483D01*
X49350500Y-35997873D01*
X49350499Y-34202128D01*
X49344091Y-34142517D01*
X49293796Y-34007669D01*
X49207546Y-33892454D01*
X49092331Y-33806204D01*
X48957483Y-33755909D01*
X48897873Y-33749500D01*
X48897869Y-33749500D01*
X47102130Y-33749500D01*
X47042515Y-33755909D01*
X46907669Y-33806204D01*
X46792454Y-33892454D01*
X46706204Y-34007669D01*
X46657189Y-34139083D01*
X46622209Y-34189462D01*
X46567365Y-34216915D01*
X46506072Y-34214726D01*
X46453326Y-34183430D01*
X46331404Y-34061508D01*
X46331401Y-34061505D01*
X46137830Y-33925965D01*
X45923663Y-33826097D01*
X45862501Y-33809709D01*
X45695407Y-33764936D01*
X45460000Y-33744340D01*
X45224592Y-33764936D01*
X44996336Y-33826097D01*
X44782170Y-33925965D01*
X44588598Y-34061505D01*
X44421505Y-34228598D01*
X44291575Y-34414159D01*
X44247257Y-34453025D01*
X44190000Y-34467036D01*
X44132743Y-34453025D01*
X44088425Y-34414159D01*
X44073449Y-34392771D01*
X43958495Y-34228599D01*
X43791401Y-34061505D01*
X43597830Y-33925965D01*
X43383663Y-33826097D01*
X43322501Y-33809709D01*
X43155407Y-33764936D01*
X42920000Y-33744340D01*
X42684592Y-33764936D01*
X42456336Y-33826097D01*
X42242170Y-33925965D01*
X42048598Y-34061505D01*
X41881505Y-34228598D01*
X41751575Y-34414159D01*
X41707257Y-34453025D01*
X41650000Y-34467036D01*
X41592743Y-34453025D01*
X41548425Y-34414159D01*
X41533449Y-34392771D01*
X41418495Y-34228599D01*
X41251401Y-34061505D01*
X41057830Y-33925965D01*
X40843663Y-33826097D01*
X40782501Y-33809709D01*
X40615407Y-33764936D01*
X40380000Y-33744340D01*
X40144592Y-33764936D01*
X39916336Y-33826097D01*
X39702170Y-33925965D01*
X39508598Y-34061505D01*
X39341508Y-34228595D01*
X39341505Y-34228598D01*
X39341505Y-34228599D01*
X39237258Y-34377479D01*
X39211269Y-34414596D01*
X39166951Y-34453461D01*
X39109694Y-34467472D01*
X39052437Y-34453461D01*
X39008119Y-34414595D01*
X38878109Y-34228921D01*
X38711081Y-34061893D01*
X38517576Y-33926399D01*
X38303492Y-33826569D01*
X38090000Y-33769364D01*
X38090000Y-36430635D01*
X37590000Y-36430635D01*
X37590000Y-35350000D01*
X36509364Y-35350000D01*
X34375500Y-35350000D01*
X34375500Y-34850000D01*
X36509364Y-34850000D01*
X37590000Y-34850000D01*
X37590000Y-33769364D01*
X37589999Y-33769364D01*
X37376507Y-33826569D01*
X37162421Y-33926400D01*
X36968921Y-34061890D01*
X36801890Y-34228921D01*
X36666400Y-34422421D01*
X36566569Y-34636507D01*
X36509364Y-34849999D01*
X36509364Y-34850000D01*
X34375500Y-34850000D01*
X34375500Y-33393401D01*
X34377763Y-33372897D01*
X34375561Y-33302805D01*
X34375500Y-33298911D01*
X34375500Y-33271317D01*
X34375500Y-33271310D01*
X34374995Y-33267313D01*
X34374080Y-33255683D01*
X34372709Y-33212033D01*
X34367120Y-33192800D01*
X34363174Y-33173742D01*
X34360664Y-33153868D01*
X34344588Y-33113266D01*
X34340804Y-33102212D01*
X34328619Y-33060273D01*
X34328618Y-33060272D01*
X34328618Y-33060270D01*
X34318417Y-33043021D01*
X34309860Y-33025555D01*
X34302486Y-33006928D01*
X34276813Y-32971592D01*
X34270402Y-32961832D01*
X34248169Y-32924238D01*
X34234006Y-32910075D01*
X34221369Y-32895280D01*
X34209595Y-32879074D01*
X34209594Y-32879073D01*
X34175935Y-32851228D01*
X34167305Y-32843374D01*
X32633884Y-31309953D01*
X32601790Y-31254366D01*
X32601790Y-31190178D01*
X32633884Y-31134591D01*
X32633884Y-31134590D01*
X32711598Y-31056877D01*
X32837102Y-30877639D01*
X32929575Y-30679330D01*
X32986207Y-30467977D01*
X33005277Y-30250000D01*
X32986207Y-30032023D01*
X32929575Y-29820670D01*
X32837102Y-29622362D01*
X32711598Y-29443123D01*
X32556877Y-29288402D01*
X32377639Y-29162898D01*
X32286205Y-29120261D01*
X32179331Y-29070425D01*
X31967974Y-29013792D01*
X31750000Y-28994722D01*
X31532025Y-29013792D01*
X31320668Y-29070425D01*
X31122361Y-29162898D01*
X30943122Y-29288402D01*
X30788402Y-29443122D01*
X30662898Y-29622361D01*
X30570425Y-29820668D01*
X30513792Y-30032025D01*
X30494722Y-30250000D01*
X30513792Y-30467974D01*
X30513793Y-30467977D01*
X30570425Y-30679330D01*
X30662898Y-30877639D01*
X30788402Y-31056877D01*
X30943123Y-31211598D01*
X31074217Y-31303391D01*
X31112169Y-31345986D01*
X31127032Y-31401066D01*
X31127290Y-31409285D01*
X31132879Y-31428520D01*
X31136825Y-31447576D01*
X31139335Y-31467452D01*
X31155414Y-31508064D01*
X31159197Y-31519111D01*
X31171382Y-31561051D01*
X31181580Y-31578295D01*
X31190136Y-31595760D01*
X31197514Y-31614392D01*
X31197515Y-31614393D01*
X31223180Y-31649719D01*
X31229593Y-31659482D01*
X31251826Y-31697076D01*
X31251829Y-31697079D01*
X31251830Y-31697080D01*
X31265995Y-31711245D01*
X31278627Y-31726035D01*
X31290406Y-31742247D01*
X31324058Y-31770086D01*
X31332699Y-31777949D01*
X33088181Y-33533432D01*
X33115061Y-33573660D01*
X33124500Y-33621113D01*
X33124500Y-34179361D01*
X33106789Y-34243226D01*
X33058715Y-34288846D01*
X32994011Y-34303191D01*
X32931160Y-34282162D01*
X32888118Y-34231766D01*
X32837102Y-34122362D01*
X32711598Y-33943123D01*
X32556877Y-33788402D01*
X32377639Y-33662898D01*
X32286205Y-33620261D01*
X32179331Y-33570425D01*
X31967974Y-33513792D01*
X31750000Y-33494722D01*
X31532025Y-33513792D01*
X31320668Y-33570425D01*
X31122361Y-33662898D01*
X30943122Y-33788402D01*
X30788402Y-33943122D01*
X30662898Y-34122361D01*
X30570425Y-34320668D01*
X30513792Y-34532025D01*
X30494722Y-34750000D01*
X25000500Y-34750000D01*
X25000500Y-28806328D01*
X25495709Y-28806328D01*
X25525925Y-29029388D01*
X25561211Y-29137988D01*
X25595483Y-29243464D01*
X25702148Y-29441681D01*
X25842492Y-29617666D01*
X26012004Y-29765765D01*
X26012006Y-29765766D01*
X26205237Y-29881216D01*
X26323214Y-29925493D01*
X26415976Y-29960307D01*
X26637453Y-30000500D01*
X26806153Y-30000500D01*
X26806155Y-30000500D01*
X26974188Y-29985377D01*
X27191170Y-29925493D01*
X27393973Y-29827829D01*
X27576078Y-29695522D01*
X27731632Y-29532825D01*
X27855635Y-29344968D01*
X27944103Y-29137988D01*
X27994191Y-28918537D01*
X28004290Y-28693670D01*
X27974075Y-28470613D01*
X27904517Y-28256536D01*
X27797852Y-28058319D01*
X27657508Y-27882334D01*
X27487996Y-27734235D01*
X27396102Y-27679331D01*
X27294762Y-27618783D01*
X27084025Y-27539693D01*
X26862547Y-27499500D01*
X26693845Y-27499500D01*
X26626631Y-27505549D01*
X26525809Y-27514623D01*
X26308828Y-27574507D01*
X26106027Y-27672170D01*
X25923925Y-27804475D01*
X25768365Y-27967178D01*
X25644365Y-28155031D01*
X25555896Y-28362012D01*
X25505809Y-28581462D01*
X25495709Y-28806328D01*
X25000500Y-28806328D01*
X25000500Y-27249999D01*
X30494722Y-27249999D01*
X30513792Y-27467974D01*
X30570425Y-27679331D01*
X30620261Y-27786205D01*
X30662898Y-27877639D01*
X30788402Y-28056877D01*
X30943123Y-28211598D01*
X31122361Y-28337102D01*
X31320670Y-28429575D01*
X31532023Y-28486207D01*
X31750000Y-28505277D01*
X31967977Y-28486207D01*
X32179330Y-28429575D01*
X32377639Y-28337102D01*
X32556877Y-28211598D01*
X32711598Y-28056877D01*
X32837102Y-27877639D01*
X32929575Y-27679330D01*
X32986207Y-27467977D01*
X33005277Y-27250000D01*
X32986207Y-27032023D01*
X32929575Y-26820670D01*
X32837102Y-26622362D01*
X32711598Y-26443123D01*
X32556877Y-26288402D01*
X32377639Y-26162898D01*
X32286205Y-26120261D01*
X32179331Y-26070425D01*
X31967974Y-26013792D01*
X31750000Y-25994722D01*
X31532025Y-26013792D01*
X31320668Y-26070425D01*
X31122361Y-26162898D01*
X30943122Y-26288402D01*
X30788402Y-26443122D01*
X30662898Y-26622361D01*
X30570425Y-26820668D01*
X30513792Y-27032025D01*
X30494722Y-27249999D01*
X25000500Y-27249999D01*
X25000500Y-25124500D01*
X25017113Y-25062500D01*
X25062500Y-25017113D01*
X25124500Y-25000500D01*
X49875500Y-25000500D01*
X49937500Y-25017113D01*
G37*
%TD.AperFunction*%
%TD*%
M02*
