M48
; DRILL file {KiCad 7.0.1} date Wed Aug 30 09:29:16 2023
; FORMAT={-:-/ absolute / inch / decimal}
; #@! TF.CreationDate,2023-08-30T09:29:16-04:00
; #@! TF.GenerationSoftware,Kicad,Pcbnew,7.0.1
; #@! TF.FileFunction,Plated,1,2,PTH
FMAT,2
INCH
; #@! TA.AperFunction,Plated,PTH,ComponentDrill
T1C0.0295
; #@! TA.AperFunction,Plated,PTH,ComponentDrill
T2C0.0315
; #@! TA.AperFunction,Plated,PTH,ComponentDrill
T3C0.0394
%
G90
G05
T1
X1.25Y-1.0728
X1.25Y-1.1909
X1.25Y-1.3681
X1.25Y-1.4862
X1.25Y-1.6634
X1.25Y-1.7815
X1.25Y-1.9587
X1.25Y-2.0768
X1.25Y-2.2539
X1.25Y-2.372
X1.25Y-2.5492
X1.25Y-2.6673
X1.25Y-2.8445
X1.25Y-2.9626
X1.25Y-3.1398
X1.25Y-3.2579
T2
X1.4961Y-1.8159
X1.4961Y-1.9159
X1.4961Y-2.0159
X1.4961Y-2.1159
X1.4961Y-2.2159
X1.4961Y-2.3159
X1.4961Y-2.4159
X1.4961Y-2.5159
X1.7961Y-1.8159
X1.7961Y-1.9159
X1.7961Y-2.0159
X1.7961Y-2.1159
X1.7961Y-2.2159
X1.7961Y-2.3159
X1.7961Y-2.4159
X1.7961Y-2.5159
T3
X1.4898Y-1.3819
X1.4898Y-3.1841
X1.5898Y-1.3819
X1.5898Y-3.1841
X1.6898Y-1.3819
X1.6898Y-3.1841
X1.7898Y-1.3819
X1.7898Y-3.1841
X1.8898Y-1.3819
X1.8898Y-3.1841
T0
M30
