%TF.GenerationSoftware,KiCad,Pcbnew,7.0.1*%
%TF.CreationDate,2023-10-04T10:51:44-04:00*%
%TF.ProjectId,TacTile-L1,54616354-696c-4652-9d4c-312e6b696361,rev?*%
%TF.SameCoordinates,Original*%
%TF.FileFunction,Copper,L2,Bot*%
%TF.FilePolarity,Positive*%
%FSLAX46Y46*%
G04 Gerber Fmt 4.6, Leading zero omitted, Abs format (unit mm)*
G04 Created by KiCad (PCBNEW 7.0.1) date 2023-10-04 10:51:44*
%MOMM*%
%LPD*%
G01*
G04 APERTURE LIST*
%TA.AperFunction,ComponentPad*%
%ADD10C,1.500000*%
%TD*%
%TA.AperFunction,ComponentPad*%
%ADD11R,1.700000X1.700000*%
%TD*%
%TA.AperFunction,ComponentPad*%
%ADD12O,1.700000X1.700000*%
%TD*%
G04 APERTURE END LIST*
D10*
%TO.P,LD6,1,K*%
%TO.N,/GND*%
X33500000Y-68000000D03*
%TO.P,LD6,2,A*%
%TO.N,/VCC*%
X33500000Y-64500000D03*
%TD*%
%TO.P,LD2,1,K*%
%TO.N,/GND*%
X33500000Y-38000000D03*
%TO.P,LD2,2,A*%
%TO.N,/VCC*%
X33500000Y-34500000D03*
%TD*%
%TO.P,LD7,1,K*%
%TO.N,/GND*%
X33500000Y-75500000D03*
%TO.P,LD7,2,A*%
%TO.N,/VCC*%
X33500000Y-72000000D03*
%TD*%
%TO.P,LD8,1,K*%
%TO.N,/GND*%
X33500000Y-83000000D03*
%TO.P,LD8,2,A*%
%TO.N,/VCC*%
X33500000Y-79500000D03*
%TD*%
D11*
%TO.P,J2,1,Pin_1*%
%TO.N,/GND*%
X29500000Y-80875000D03*
D12*
%TO.P,J2,2,Pin_2*%
%TO.N,/VCC*%
X26960000Y-80875000D03*
%TD*%
D10*
%TO.P,LD5,1,K*%
%TO.N,/GND*%
X33500000Y-60500000D03*
%TO.P,LD5,2,A*%
%TO.N,/VCC*%
X33500000Y-57000000D03*
%TD*%
D11*
%TO.P,J1,1,Pin_1*%
%TO.N,/GND*%
X29500000Y-35100000D03*
D12*
%TO.P,J1,2,Pin_2*%
%TO.N,/VCC*%
X26960000Y-35100000D03*
%TD*%
D10*
%TO.P,LD3,1,K*%
%TO.N,/GND*%
X33500000Y-45500000D03*
%TO.P,LD3,2,A*%
%TO.N,/VCC*%
X33500000Y-42000000D03*
%TD*%
%TO.P,LD1,1,K*%
%TO.N,/GND*%
X33500000Y-30500000D03*
%TO.P,LD1,2,A*%
%TO.N,/VCC*%
X33500000Y-27000000D03*
%TD*%
%TO.P,LD4,1,K*%
%TO.N,/GND*%
X33500000Y-53000000D03*
%TO.P,LD4,2,A*%
%TO.N,/VCC*%
X33500000Y-49500000D03*
%TD*%
%TA.AperFunction,Conductor*%
%TO.N,/GND*%
G36*
X49937500Y-25017113D02*
G01*
X49982887Y-25062500D01*
X49999500Y-25124500D01*
X49999500Y-84875500D01*
X49982887Y-84937500D01*
X49937500Y-84982887D01*
X49875500Y-84999500D01*
X25124500Y-84999500D01*
X25062500Y-84982887D01*
X25017113Y-84937500D01*
X25000500Y-84875500D01*
X25000500Y-84043124D01*
X32810426Y-84043124D01*
X32810427Y-84043125D01*
X32872610Y-84086666D01*
X33070840Y-84179102D01*
X33282113Y-84235712D01*
X33500000Y-84254775D01*
X33717886Y-84235712D01*
X33929159Y-84179102D01*
X34127385Y-84086667D01*
X34189572Y-84043124D01*
X33500001Y-83353553D01*
X33500000Y-83353553D01*
X32810426Y-84043124D01*
X25000500Y-84043124D01*
X25000500Y-83000000D01*
X32245224Y-83000000D01*
X32264287Y-83217886D01*
X32320898Y-83429161D01*
X32413331Y-83627386D01*
X32456873Y-83689571D01*
X32456875Y-83689572D01*
X33146447Y-83000001D01*
X33853553Y-83000001D01*
X34543124Y-83689572D01*
X34586667Y-83627385D01*
X34679102Y-83429159D01*
X34735712Y-83217886D01*
X34754775Y-83000000D01*
X34735712Y-82782113D01*
X34679102Y-82570840D01*
X34586667Y-82372615D01*
X34543123Y-82310428D01*
X33853553Y-83000000D01*
X33853553Y-83000001D01*
X33146447Y-83000001D01*
X33146447Y-83000000D01*
X32456875Y-82310427D01*
X32456874Y-82310428D01*
X32413333Y-82372611D01*
X32320897Y-82570840D01*
X32264287Y-82782113D01*
X32245224Y-83000000D01*
X25000500Y-83000000D01*
X25000500Y-80875000D01*
X25604340Y-80875000D01*
X25624936Y-81110407D01*
X25642144Y-81174627D01*
X25686097Y-81338663D01*
X25785965Y-81552830D01*
X25921505Y-81746401D01*
X26088599Y-81913495D01*
X26282170Y-82049035D01*
X26496337Y-82148903D01*
X26724592Y-82210063D01*
X26960000Y-82230659D01*
X27195408Y-82210063D01*
X27423663Y-82148903D01*
X27637830Y-82049035D01*
X27831401Y-81913495D01*
X27953717Y-81791178D01*
X28006460Y-81759885D01*
X28067752Y-81757696D01*
X28122597Y-81785149D01*
X28157577Y-81835528D01*
X28206647Y-81967088D01*
X28292811Y-82082188D01*
X28407910Y-82168352D01*
X28542624Y-82218597D01*
X28602176Y-82225000D01*
X29250000Y-82225000D01*
X29250000Y-81125000D01*
X29750000Y-81125000D01*
X29750000Y-82225000D01*
X30397824Y-82225000D01*
X30457375Y-82218597D01*
X30592089Y-82168352D01*
X30707188Y-82082188D01*
X30793352Y-81967089D01*
X30797162Y-81956875D01*
X32810427Y-81956875D01*
X33500000Y-82646447D01*
X33500001Y-82646447D01*
X34189572Y-81956875D01*
X34189571Y-81956873D01*
X34127386Y-81913331D01*
X33929161Y-81820898D01*
X33717886Y-81764287D01*
X33500000Y-81745224D01*
X33282113Y-81764287D01*
X33070840Y-81820897D01*
X32872611Y-81913333D01*
X32810428Y-81956874D01*
X32810427Y-81956875D01*
X30797162Y-81956875D01*
X30843597Y-81832375D01*
X30850000Y-81772824D01*
X30850000Y-81325372D01*
X35745723Y-81325372D01*
X35775881Y-81625160D01*
X35845731Y-81918262D01*
X35954021Y-82199432D01*
X36027750Y-82333970D01*
X36098825Y-82463665D01*
X36277554Y-82706238D01*
X36487020Y-82922824D01*
X36723485Y-83109558D01*
X36982730Y-83263109D01*
X37260128Y-83380736D01*
X37260129Y-83380736D01*
X37260131Y-83380737D01*
X37324179Y-83398281D01*
X37550729Y-83460340D01*
X37849347Y-83500500D01*
X38075244Y-83500500D01*
X38075246Y-83500500D01*
X38300635Y-83485412D01*
X38423994Y-83460338D01*
X38595903Y-83425396D01*
X38880537Y-83326560D01*
X39149459Y-83190668D01*
X39397869Y-83020144D01*
X39621333Y-82818032D01*
X39815865Y-82587939D01*
X39977993Y-82333970D01*
X40104823Y-82060658D01*
X40194093Y-81772879D01*
X40244209Y-81475770D01*
X40249237Y-81325372D01*
X44995723Y-81325372D01*
X45025881Y-81625160D01*
X45095731Y-81918262D01*
X45204021Y-82199432D01*
X45277750Y-82333970D01*
X45348825Y-82463665D01*
X45527554Y-82706238D01*
X45737020Y-82922824D01*
X45973485Y-83109558D01*
X46232730Y-83263109D01*
X46510128Y-83380736D01*
X46510129Y-83380736D01*
X46510131Y-83380737D01*
X46574179Y-83398281D01*
X46800729Y-83460340D01*
X47099347Y-83500500D01*
X47325244Y-83500500D01*
X47325246Y-83500500D01*
X47550635Y-83485412D01*
X47673994Y-83460338D01*
X47845903Y-83425396D01*
X48130537Y-83326560D01*
X48399459Y-83190668D01*
X48647869Y-83020144D01*
X48871333Y-82818032D01*
X49065865Y-82587939D01*
X49227993Y-82333970D01*
X49354823Y-82060658D01*
X49444093Y-81772879D01*
X49494209Y-81475770D01*
X49504277Y-81174631D01*
X49474118Y-80874838D01*
X49404269Y-80581739D01*
X49374814Y-80505262D01*
X49295978Y-80300567D01*
X49151175Y-80036335D01*
X48972445Y-79793761D01*
X48762979Y-79577175D01*
X48526514Y-79390441D01*
X48343471Y-79282025D01*
X48267270Y-79236891D01*
X48085671Y-79159886D01*
X47989868Y-79119262D01*
X47699275Y-79039661D01*
X47699274Y-79039660D01*
X47699271Y-79039660D01*
X47400653Y-78999500D01*
X47174756Y-78999500D01*
X47174754Y-78999500D01*
X46949364Y-79014587D01*
X46654098Y-79074603D01*
X46369459Y-79173441D01*
X46100546Y-79309328D01*
X45852127Y-79479858D01*
X45628668Y-79681966D01*
X45434135Y-79912061D01*
X45272005Y-80166032D01*
X45145178Y-80439339D01*
X45055907Y-80727120D01*
X45005791Y-81024230D01*
X44995723Y-81325372D01*
X40249237Y-81325372D01*
X40254277Y-81174631D01*
X40224118Y-80874838D01*
X40154269Y-80581739D01*
X40124814Y-80505262D01*
X40045978Y-80300567D01*
X39901175Y-80036335D01*
X39722445Y-79793761D01*
X39512979Y-79577175D01*
X39276514Y-79390441D01*
X39093471Y-79282025D01*
X39017270Y-79236891D01*
X38835671Y-79159886D01*
X38739868Y-79119262D01*
X38449275Y-79039661D01*
X38449274Y-79039660D01*
X38449271Y-79039660D01*
X38150653Y-78999500D01*
X37924756Y-78999500D01*
X37924754Y-78999500D01*
X37699364Y-79014587D01*
X37404098Y-79074603D01*
X37119459Y-79173441D01*
X36850546Y-79309328D01*
X36602127Y-79479858D01*
X36378668Y-79681966D01*
X36184135Y-79912061D01*
X36022005Y-80166032D01*
X35895178Y-80439339D01*
X35805907Y-80727120D01*
X35755791Y-81024230D01*
X35745723Y-81325372D01*
X30850000Y-81325372D01*
X30850000Y-81125000D01*
X29750000Y-81125000D01*
X29250000Y-81125000D01*
X29250000Y-79525000D01*
X29750000Y-79525000D01*
X29750000Y-80625000D01*
X30850000Y-80625000D01*
X30850000Y-79977176D01*
X30843597Y-79917624D01*
X30793352Y-79782910D01*
X30707188Y-79667811D01*
X30592089Y-79581647D01*
X30457375Y-79531402D01*
X30397824Y-79525000D01*
X29750000Y-79525000D01*
X29250000Y-79525000D01*
X28602176Y-79525000D01*
X28542624Y-79531402D01*
X28407910Y-79581647D01*
X28292811Y-79667811D01*
X28206646Y-79782913D01*
X28157576Y-79914472D01*
X28122597Y-79964850D01*
X28067753Y-79992303D01*
X28006460Y-79990114D01*
X27953714Y-79958818D01*
X27831404Y-79836508D01*
X27831401Y-79836505D01*
X27637830Y-79700965D01*
X27423663Y-79601097D01*
X27334384Y-79577175D01*
X27195407Y-79539936D01*
X26960000Y-79519340D01*
X26724592Y-79539936D01*
X26496336Y-79601097D01*
X26282170Y-79700965D01*
X26088598Y-79836505D01*
X25921505Y-80003598D01*
X25785965Y-80197170D01*
X25686097Y-80411336D01*
X25624936Y-80639592D01*
X25604340Y-80875000D01*
X25000500Y-80875000D01*
X25000500Y-79499999D01*
X32244722Y-79499999D01*
X32263792Y-79717974D01*
X32295552Y-79836505D01*
X32320425Y-79929330D01*
X32412898Y-80127639D01*
X32538402Y-80306877D01*
X32693123Y-80461598D01*
X32872361Y-80587102D01*
X33070670Y-80679575D01*
X33282023Y-80736207D01*
X33500000Y-80755277D01*
X33717977Y-80736207D01*
X33929330Y-80679575D01*
X34127639Y-80587102D01*
X34306877Y-80461598D01*
X34461598Y-80306877D01*
X34587102Y-80127639D01*
X34679575Y-79929330D01*
X34736207Y-79717977D01*
X34755277Y-79500000D01*
X34736207Y-79282023D01*
X34679575Y-79070670D01*
X34587102Y-78872362D01*
X34461598Y-78693123D01*
X34306877Y-78538402D01*
X34127639Y-78412898D01*
X34036205Y-78370261D01*
X33929331Y-78320425D01*
X33717974Y-78263792D01*
X33500000Y-78244722D01*
X33282025Y-78263792D01*
X33070668Y-78320425D01*
X32872361Y-78412898D01*
X32693122Y-78538402D01*
X32538402Y-78693122D01*
X32412898Y-78872361D01*
X32320425Y-79070668D01*
X32263792Y-79282025D01*
X32244722Y-79499999D01*
X25000500Y-79499999D01*
X25000500Y-76543124D01*
X32810426Y-76543124D01*
X32810427Y-76543125D01*
X32872610Y-76586666D01*
X33070840Y-76679102D01*
X33282113Y-76735712D01*
X33500000Y-76754775D01*
X33717886Y-76735712D01*
X33929159Y-76679102D01*
X34127385Y-76586667D01*
X34189572Y-76543124D01*
X33500001Y-75853553D01*
X33500000Y-75853553D01*
X32810426Y-76543124D01*
X25000500Y-76543124D01*
X25000500Y-75500000D01*
X32245224Y-75500000D01*
X32264287Y-75717886D01*
X32320898Y-75929161D01*
X32413331Y-76127386D01*
X32456873Y-76189571D01*
X32456875Y-76189572D01*
X33146447Y-75500001D01*
X33853553Y-75500001D01*
X34543124Y-76189572D01*
X34586667Y-76127385D01*
X34679102Y-75929159D01*
X34735712Y-75717886D01*
X34754775Y-75500000D01*
X34735712Y-75282113D01*
X34679102Y-75070840D01*
X34586667Y-74872615D01*
X34543123Y-74810428D01*
X33853553Y-75500000D01*
X33853553Y-75500001D01*
X33146447Y-75500001D01*
X33146447Y-75500000D01*
X32456875Y-74810427D01*
X32456874Y-74810428D01*
X32413333Y-74872611D01*
X32320897Y-75070840D01*
X32264287Y-75282113D01*
X32245224Y-75500000D01*
X25000500Y-75500000D01*
X25000500Y-74456875D01*
X32810427Y-74456875D01*
X33500000Y-75146447D01*
X33500001Y-75146447D01*
X34189572Y-74456875D01*
X34189571Y-74456873D01*
X34127386Y-74413331D01*
X33929161Y-74320898D01*
X33717886Y-74264287D01*
X33500000Y-74245224D01*
X33282113Y-74264287D01*
X33070840Y-74320897D01*
X32872611Y-74413333D01*
X32810428Y-74456874D01*
X32810427Y-74456875D01*
X25000500Y-74456875D01*
X25000500Y-73825372D01*
X35745723Y-73825372D01*
X35775881Y-74125160D01*
X35845731Y-74418262D01*
X35954021Y-74699432D01*
X36027750Y-74833970D01*
X36098825Y-74963665D01*
X36277554Y-75206238D01*
X36487020Y-75422824D01*
X36723485Y-75609558D01*
X36982730Y-75763109D01*
X37260128Y-75880736D01*
X37260129Y-75880736D01*
X37260131Y-75880737D01*
X37324179Y-75898281D01*
X37550729Y-75960340D01*
X37849347Y-76000500D01*
X38075244Y-76000500D01*
X38075246Y-76000500D01*
X38300635Y-75985412D01*
X38423994Y-75960338D01*
X38595903Y-75925396D01*
X38880537Y-75826560D01*
X39149459Y-75690668D01*
X39397869Y-75520144D01*
X39621333Y-75318032D01*
X39815865Y-75087939D01*
X39977993Y-74833970D01*
X40104823Y-74560658D01*
X40194093Y-74272879D01*
X40244209Y-73975770D01*
X40249237Y-73825372D01*
X44995723Y-73825372D01*
X45025881Y-74125160D01*
X45095731Y-74418262D01*
X45204021Y-74699432D01*
X45277750Y-74833970D01*
X45348825Y-74963665D01*
X45527554Y-75206238D01*
X45737020Y-75422824D01*
X45973485Y-75609558D01*
X46232730Y-75763109D01*
X46510128Y-75880736D01*
X46510129Y-75880736D01*
X46510131Y-75880737D01*
X46574179Y-75898281D01*
X46800729Y-75960340D01*
X47099347Y-76000500D01*
X47325244Y-76000500D01*
X47325246Y-76000500D01*
X47550635Y-75985412D01*
X47673994Y-75960338D01*
X47845903Y-75925396D01*
X48130537Y-75826560D01*
X48399459Y-75690668D01*
X48647869Y-75520144D01*
X48871333Y-75318032D01*
X49065865Y-75087939D01*
X49227993Y-74833970D01*
X49354823Y-74560658D01*
X49444093Y-74272879D01*
X49494209Y-73975770D01*
X49504277Y-73674631D01*
X49474118Y-73374838D01*
X49404269Y-73081739D01*
X49374814Y-73005262D01*
X49295978Y-72800567D01*
X49151175Y-72536335D01*
X48972445Y-72293761D01*
X48762979Y-72077175D01*
X48526514Y-71890441D01*
X48343471Y-71782025D01*
X48267270Y-71736891D01*
X48085671Y-71659886D01*
X47989868Y-71619262D01*
X47699275Y-71539661D01*
X47699274Y-71539660D01*
X47699271Y-71539660D01*
X47400653Y-71499500D01*
X47174756Y-71499500D01*
X47174754Y-71499500D01*
X46949364Y-71514587D01*
X46654098Y-71574603D01*
X46369459Y-71673441D01*
X46100546Y-71809328D01*
X45852127Y-71979858D01*
X45628668Y-72181966D01*
X45434135Y-72412061D01*
X45272005Y-72666032D01*
X45145178Y-72939339D01*
X45055907Y-73227120D01*
X45005791Y-73524230D01*
X44995723Y-73825372D01*
X40249237Y-73825372D01*
X40254277Y-73674631D01*
X40224118Y-73374838D01*
X40154269Y-73081739D01*
X40124814Y-73005262D01*
X40045978Y-72800567D01*
X39901175Y-72536335D01*
X39722445Y-72293761D01*
X39512979Y-72077175D01*
X39276514Y-71890441D01*
X39093471Y-71782025D01*
X39017270Y-71736891D01*
X38835671Y-71659886D01*
X38739868Y-71619262D01*
X38449275Y-71539661D01*
X38449274Y-71539660D01*
X38449271Y-71539660D01*
X38150653Y-71499500D01*
X37924756Y-71499500D01*
X37924754Y-71499500D01*
X37699364Y-71514587D01*
X37404098Y-71574603D01*
X37119459Y-71673441D01*
X36850546Y-71809328D01*
X36602127Y-71979858D01*
X36378668Y-72181966D01*
X36184135Y-72412061D01*
X36022005Y-72666032D01*
X35895178Y-72939339D01*
X35805907Y-73227120D01*
X35755791Y-73524230D01*
X35745723Y-73825372D01*
X25000500Y-73825372D01*
X25000500Y-72000000D01*
X32244722Y-72000000D01*
X32263792Y-72217974D01*
X32284099Y-72293762D01*
X32320425Y-72429330D01*
X32412898Y-72627639D01*
X32538402Y-72806877D01*
X32693123Y-72961598D01*
X32872361Y-73087102D01*
X33070670Y-73179575D01*
X33282023Y-73236207D01*
X33500000Y-73255277D01*
X33717977Y-73236207D01*
X33929330Y-73179575D01*
X34127639Y-73087102D01*
X34306877Y-72961598D01*
X34461598Y-72806877D01*
X34587102Y-72627639D01*
X34679575Y-72429330D01*
X34736207Y-72217977D01*
X34755277Y-72000000D01*
X34736207Y-71782023D01*
X34679575Y-71570670D01*
X34587102Y-71372362D01*
X34461598Y-71193123D01*
X34306877Y-71038402D01*
X34127639Y-70912898D01*
X34036205Y-70870261D01*
X33929331Y-70820425D01*
X33717974Y-70763792D01*
X33499999Y-70744722D01*
X33282025Y-70763792D01*
X33070668Y-70820425D01*
X32872361Y-70912898D01*
X32693122Y-71038402D01*
X32538402Y-71193122D01*
X32412898Y-71372361D01*
X32320425Y-71570668D01*
X32263792Y-71782025D01*
X32244722Y-72000000D01*
X25000500Y-72000000D01*
X25000500Y-69043124D01*
X32810426Y-69043124D01*
X32810427Y-69043125D01*
X32872610Y-69086666D01*
X33070840Y-69179102D01*
X33282113Y-69235712D01*
X33500000Y-69254775D01*
X33717886Y-69235712D01*
X33929159Y-69179102D01*
X34127385Y-69086667D01*
X34189572Y-69043124D01*
X33500001Y-68353553D01*
X33500000Y-68353553D01*
X32810426Y-69043124D01*
X25000500Y-69043124D01*
X25000500Y-67999999D01*
X32245224Y-67999999D01*
X32264287Y-68217886D01*
X32320898Y-68429161D01*
X32413331Y-68627386D01*
X32456873Y-68689571D01*
X32456875Y-68689572D01*
X33146447Y-68000001D01*
X33853553Y-68000001D01*
X34543124Y-68689572D01*
X34586667Y-68627385D01*
X34679102Y-68429159D01*
X34735712Y-68217886D01*
X34754775Y-67999999D01*
X34735712Y-67782113D01*
X34679102Y-67570840D01*
X34586667Y-67372615D01*
X34543123Y-67310428D01*
X33853553Y-68000000D01*
X33853553Y-68000001D01*
X33146447Y-68000001D01*
X33146447Y-68000000D01*
X32456875Y-67310427D01*
X32456874Y-67310428D01*
X32413333Y-67372611D01*
X32320897Y-67570840D01*
X32264287Y-67782113D01*
X32245224Y-67999999D01*
X25000500Y-67999999D01*
X25000500Y-66956875D01*
X32810427Y-66956875D01*
X33500000Y-67646447D01*
X33500001Y-67646447D01*
X34189572Y-66956875D01*
X34189571Y-66956873D01*
X34127386Y-66913331D01*
X33929161Y-66820898D01*
X33717886Y-66764287D01*
X33500000Y-66745224D01*
X33282113Y-66764287D01*
X33070840Y-66820897D01*
X32872611Y-66913333D01*
X32810428Y-66956874D01*
X32810427Y-66956875D01*
X25000500Y-66956875D01*
X25000500Y-66325372D01*
X35745723Y-66325372D01*
X35775881Y-66625160D01*
X35845731Y-66918262D01*
X35954021Y-67199432D01*
X36027750Y-67333970D01*
X36098825Y-67463665D01*
X36277554Y-67706238D01*
X36487020Y-67922824D01*
X36723485Y-68109558D01*
X36982730Y-68263109D01*
X37260128Y-68380736D01*
X37260129Y-68380736D01*
X37260131Y-68380737D01*
X37324179Y-68398281D01*
X37550729Y-68460340D01*
X37849347Y-68500500D01*
X38075244Y-68500500D01*
X38075246Y-68500500D01*
X38300635Y-68485412D01*
X38423994Y-68460338D01*
X38595903Y-68425396D01*
X38880537Y-68326560D01*
X39149459Y-68190668D01*
X39397869Y-68020144D01*
X39621333Y-67818032D01*
X39815865Y-67587939D01*
X39977993Y-67333970D01*
X40104823Y-67060658D01*
X40194093Y-66772879D01*
X40244209Y-66475770D01*
X40249237Y-66325372D01*
X44995723Y-66325372D01*
X45025881Y-66625160D01*
X45095731Y-66918262D01*
X45204021Y-67199432D01*
X45277750Y-67333970D01*
X45348825Y-67463665D01*
X45527554Y-67706238D01*
X45737020Y-67922824D01*
X45973485Y-68109558D01*
X46232730Y-68263109D01*
X46510128Y-68380736D01*
X46510129Y-68380736D01*
X46510131Y-68380737D01*
X46574179Y-68398281D01*
X46800729Y-68460340D01*
X47099347Y-68500500D01*
X47325244Y-68500500D01*
X47325246Y-68500500D01*
X47550635Y-68485412D01*
X47673994Y-68460338D01*
X47845903Y-68425396D01*
X48130537Y-68326560D01*
X48399459Y-68190668D01*
X48647869Y-68020144D01*
X48871333Y-67818032D01*
X49065865Y-67587939D01*
X49227993Y-67333970D01*
X49354823Y-67060658D01*
X49444093Y-66772879D01*
X49494209Y-66475770D01*
X49504277Y-66174631D01*
X49474118Y-65874838D01*
X49404269Y-65581739D01*
X49374814Y-65505262D01*
X49295978Y-65300567D01*
X49151175Y-65036335D01*
X48972445Y-64793761D01*
X48762979Y-64577175D01*
X48526514Y-64390441D01*
X48343471Y-64282025D01*
X48267270Y-64236891D01*
X48085671Y-64159886D01*
X47989868Y-64119262D01*
X47699275Y-64039661D01*
X47699274Y-64039660D01*
X47699271Y-64039660D01*
X47400653Y-63999500D01*
X47174756Y-63999500D01*
X47174754Y-63999500D01*
X46949364Y-64014587D01*
X46654098Y-64074603D01*
X46369459Y-64173441D01*
X46100546Y-64309328D01*
X45852127Y-64479858D01*
X45628668Y-64681966D01*
X45434135Y-64912061D01*
X45272005Y-65166032D01*
X45145178Y-65439339D01*
X45055907Y-65727120D01*
X45005791Y-66024230D01*
X44995723Y-66325372D01*
X40249237Y-66325372D01*
X40254277Y-66174631D01*
X40224118Y-65874838D01*
X40154269Y-65581739D01*
X40124814Y-65505262D01*
X40045978Y-65300567D01*
X39901175Y-65036335D01*
X39722445Y-64793761D01*
X39512979Y-64577175D01*
X39276514Y-64390441D01*
X39093471Y-64282025D01*
X39017270Y-64236891D01*
X38835671Y-64159886D01*
X38739868Y-64119262D01*
X38449275Y-64039661D01*
X38449274Y-64039660D01*
X38449271Y-64039660D01*
X38150653Y-63999500D01*
X37924756Y-63999500D01*
X37924754Y-63999500D01*
X37699364Y-64014587D01*
X37404098Y-64074603D01*
X37119459Y-64173441D01*
X36850546Y-64309328D01*
X36602127Y-64479858D01*
X36378668Y-64681966D01*
X36184135Y-64912061D01*
X36022005Y-65166032D01*
X35895178Y-65439339D01*
X35805907Y-65727120D01*
X35755791Y-66024230D01*
X35745723Y-66325372D01*
X25000500Y-66325372D01*
X25000500Y-64500000D01*
X32244722Y-64500000D01*
X32263792Y-64717974D01*
X32284099Y-64793762D01*
X32320425Y-64929330D01*
X32412898Y-65127639D01*
X32538402Y-65306877D01*
X32693123Y-65461598D01*
X32872361Y-65587102D01*
X33070670Y-65679575D01*
X33282023Y-65736207D01*
X33500000Y-65755277D01*
X33717977Y-65736207D01*
X33929330Y-65679575D01*
X34127639Y-65587102D01*
X34306877Y-65461598D01*
X34461598Y-65306877D01*
X34587102Y-65127639D01*
X34679575Y-64929330D01*
X34736207Y-64717977D01*
X34755277Y-64500000D01*
X34736207Y-64282023D01*
X34679575Y-64070670D01*
X34587102Y-63872362D01*
X34461598Y-63693123D01*
X34306877Y-63538402D01*
X34127639Y-63412898D01*
X34036205Y-63370261D01*
X33929331Y-63320425D01*
X33717974Y-63263792D01*
X33500000Y-63244722D01*
X33282025Y-63263792D01*
X33070668Y-63320425D01*
X32872361Y-63412898D01*
X32693122Y-63538402D01*
X32538402Y-63693122D01*
X32412898Y-63872361D01*
X32320425Y-64070668D01*
X32263792Y-64282025D01*
X32244722Y-64500000D01*
X25000500Y-64500000D01*
X25000500Y-61543124D01*
X32810426Y-61543124D01*
X32810427Y-61543125D01*
X32872610Y-61586666D01*
X33070840Y-61679102D01*
X33282113Y-61735712D01*
X33500000Y-61754775D01*
X33717886Y-61735712D01*
X33929159Y-61679102D01*
X34127385Y-61586667D01*
X34189572Y-61543124D01*
X33500001Y-60853553D01*
X33500000Y-60853553D01*
X32810426Y-61543124D01*
X25000500Y-61543124D01*
X25000500Y-60499999D01*
X32245224Y-60499999D01*
X32264287Y-60717886D01*
X32320898Y-60929161D01*
X32413331Y-61127386D01*
X32456873Y-61189571D01*
X32456875Y-61189572D01*
X33146447Y-60500001D01*
X33853553Y-60500001D01*
X34543124Y-61189572D01*
X34586667Y-61127385D01*
X34679102Y-60929159D01*
X34735712Y-60717886D01*
X34754775Y-60499999D01*
X34735712Y-60282113D01*
X34679102Y-60070840D01*
X34586667Y-59872615D01*
X34543123Y-59810428D01*
X33853553Y-60500000D01*
X33853553Y-60500001D01*
X33146447Y-60500001D01*
X33146447Y-60500000D01*
X32456875Y-59810427D01*
X32456874Y-59810428D01*
X32413333Y-59872611D01*
X32320897Y-60070840D01*
X32264287Y-60282113D01*
X32245224Y-60499999D01*
X25000500Y-60499999D01*
X25000500Y-59456875D01*
X32810427Y-59456875D01*
X33500000Y-60146447D01*
X33500001Y-60146447D01*
X34189572Y-59456875D01*
X34189571Y-59456873D01*
X34127386Y-59413331D01*
X33929161Y-59320898D01*
X33717886Y-59264287D01*
X33500000Y-59245224D01*
X33282113Y-59264287D01*
X33070840Y-59320897D01*
X32872611Y-59413333D01*
X32810428Y-59456874D01*
X32810427Y-59456875D01*
X25000500Y-59456875D01*
X25000500Y-58825372D01*
X35745723Y-58825372D01*
X35775881Y-59125160D01*
X35845731Y-59418262D01*
X35954021Y-59699432D01*
X36027750Y-59833970D01*
X36098825Y-59963665D01*
X36277554Y-60206238D01*
X36487020Y-60422824D01*
X36723485Y-60609558D01*
X36982730Y-60763109D01*
X37260128Y-60880736D01*
X37260129Y-60880736D01*
X37260131Y-60880737D01*
X37324179Y-60898281D01*
X37550729Y-60960340D01*
X37849347Y-61000500D01*
X38075244Y-61000500D01*
X38075246Y-61000500D01*
X38300635Y-60985412D01*
X38423994Y-60960338D01*
X38595903Y-60925396D01*
X38880537Y-60826560D01*
X39149459Y-60690668D01*
X39397869Y-60520144D01*
X39621333Y-60318032D01*
X39815865Y-60087939D01*
X39977993Y-59833970D01*
X40104823Y-59560658D01*
X40194093Y-59272879D01*
X40244209Y-58975770D01*
X40249237Y-58825372D01*
X44995723Y-58825372D01*
X45025881Y-59125160D01*
X45095731Y-59418262D01*
X45204021Y-59699432D01*
X45277750Y-59833970D01*
X45348825Y-59963665D01*
X45527554Y-60206238D01*
X45737020Y-60422824D01*
X45973485Y-60609558D01*
X46232730Y-60763109D01*
X46510128Y-60880736D01*
X46510129Y-60880736D01*
X46510131Y-60880737D01*
X46574179Y-60898281D01*
X46800729Y-60960340D01*
X47099347Y-61000500D01*
X47325244Y-61000500D01*
X47325246Y-61000500D01*
X47550635Y-60985412D01*
X47673994Y-60960338D01*
X47845903Y-60925396D01*
X48130537Y-60826560D01*
X48399459Y-60690668D01*
X48647869Y-60520144D01*
X48871333Y-60318032D01*
X49065865Y-60087939D01*
X49227993Y-59833970D01*
X49354823Y-59560658D01*
X49444093Y-59272879D01*
X49494209Y-58975770D01*
X49504277Y-58674631D01*
X49474118Y-58374838D01*
X49404269Y-58081739D01*
X49374814Y-58005262D01*
X49295978Y-57800567D01*
X49151175Y-57536335D01*
X48972445Y-57293761D01*
X48762979Y-57077175D01*
X48526514Y-56890441D01*
X48343471Y-56782025D01*
X48267270Y-56736891D01*
X48085671Y-56659886D01*
X47989868Y-56619262D01*
X47699275Y-56539661D01*
X47699274Y-56539660D01*
X47699271Y-56539660D01*
X47400653Y-56499500D01*
X47174756Y-56499500D01*
X47174754Y-56499500D01*
X46949364Y-56514587D01*
X46654098Y-56574603D01*
X46369459Y-56673441D01*
X46100546Y-56809328D01*
X45852127Y-56979858D01*
X45628668Y-57181966D01*
X45434135Y-57412061D01*
X45272005Y-57666032D01*
X45145178Y-57939339D01*
X45055907Y-58227120D01*
X45005791Y-58524230D01*
X44995723Y-58825372D01*
X40249237Y-58825372D01*
X40254277Y-58674631D01*
X40224118Y-58374838D01*
X40154269Y-58081739D01*
X40124814Y-58005262D01*
X40045978Y-57800567D01*
X39901175Y-57536335D01*
X39722445Y-57293761D01*
X39512979Y-57077175D01*
X39276514Y-56890441D01*
X39093471Y-56782025D01*
X39017270Y-56736891D01*
X38835671Y-56659886D01*
X38739868Y-56619262D01*
X38449275Y-56539661D01*
X38449274Y-56539660D01*
X38449271Y-56539660D01*
X38150653Y-56499500D01*
X37924756Y-56499500D01*
X37924754Y-56499500D01*
X37699364Y-56514587D01*
X37404098Y-56574603D01*
X37119459Y-56673441D01*
X36850546Y-56809328D01*
X36602127Y-56979858D01*
X36378668Y-57181966D01*
X36184135Y-57412061D01*
X36022005Y-57666032D01*
X35895178Y-57939339D01*
X35805907Y-58227120D01*
X35755791Y-58524230D01*
X35745723Y-58825372D01*
X25000500Y-58825372D01*
X25000500Y-56999999D01*
X32244722Y-56999999D01*
X32263792Y-57217974D01*
X32284099Y-57293762D01*
X32320425Y-57429330D01*
X32412898Y-57627639D01*
X32538402Y-57806877D01*
X32693123Y-57961598D01*
X32872361Y-58087102D01*
X33070670Y-58179575D01*
X33282023Y-58236207D01*
X33500000Y-58255277D01*
X33717977Y-58236207D01*
X33929330Y-58179575D01*
X34127639Y-58087102D01*
X34306877Y-57961598D01*
X34461598Y-57806877D01*
X34587102Y-57627639D01*
X34679575Y-57429330D01*
X34736207Y-57217977D01*
X34755277Y-57000000D01*
X34736207Y-56782023D01*
X34679575Y-56570670D01*
X34587102Y-56372362D01*
X34461598Y-56193123D01*
X34306877Y-56038402D01*
X34127639Y-55912898D01*
X34036205Y-55870261D01*
X33929331Y-55820425D01*
X33717974Y-55763792D01*
X33500000Y-55744722D01*
X33282025Y-55763792D01*
X33070668Y-55820425D01*
X32872361Y-55912898D01*
X32693122Y-56038402D01*
X32538402Y-56193122D01*
X32412898Y-56372361D01*
X32320425Y-56570668D01*
X32263792Y-56782025D01*
X32244722Y-56999999D01*
X25000500Y-56999999D01*
X25000500Y-54043124D01*
X32810426Y-54043124D01*
X32810427Y-54043125D01*
X32872610Y-54086666D01*
X33070840Y-54179102D01*
X33282113Y-54235712D01*
X33500000Y-54254775D01*
X33717886Y-54235712D01*
X33929159Y-54179102D01*
X34127385Y-54086667D01*
X34189572Y-54043124D01*
X33500001Y-53353553D01*
X33500000Y-53353553D01*
X32810426Y-54043124D01*
X25000500Y-54043124D01*
X25000500Y-53000000D01*
X32245224Y-53000000D01*
X32264287Y-53217886D01*
X32320898Y-53429161D01*
X32413331Y-53627386D01*
X32456873Y-53689571D01*
X32456875Y-53689572D01*
X33146447Y-53000001D01*
X33853553Y-53000001D01*
X34543124Y-53689572D01*
X34586667Y-53627385D01*
X34679102Y-53429159D01*
X34735712Y-53217886D01*
X34754775Y-53000000D01*
X34735712Y-52782113D01*
X34679102Y-52570840D01*
X34586667Y-52372615D01*
X34543123Y-52310428D01*
X33853553Y-53000000D01*
X33853553Y-53000001D01*
X33146447Y-53000001D01*
X33146447Y-53000000D01*
X32456875Y-52310427D01*
X32456874Y-52310428D01*
X32413333Y-52372611D01*
X32320897Y-52570840D01*
X32264287Y-52782113D01*
X32245224Y-53000000D01*
X25000500Y-53000000D01*
X25000500Y-51956875D01*
X32810427Y-51956875D01*
X33500000Y-52646447D01*
X33500001Y-52646447D01*
X34189572Y-51956875D01*
X34189571Y-51956873D01*
X34127386Y-51913331D01*
X33929161Y-51820898D01*
X33717886Y-51764287D01*
X33500000Y-51745224D01*
X33282113Y-51764287D01*
X33070840Y-51820897D01*
X32872611Y-51913333D01*
X32810428Y-51956874D01*
X32810427Y-51956875D01*
X25000500Y-51956875D01*
X25000500Y-51325372D01*
X35745723Y-51325372D01*
X35775881Y-51625160D01*
X35845731Y-51918262D01*
X35954021Y-52199432D01*
X36027750Y-52333970D01*
X36098825Y-52463665D01*
X36277554Y-52706238D01*
X36487020Y-52922824D01*
X36723485Y-53109558D01*
X36982730Y-53263109D01*
X37260128Y-53380736D01*
X37260129Y-53380736D01*
X37260131Y-53380737D01*
X37324179Y-53398281D01*
X37550729Y-53460340D01*
X37849347Y-53500500D01*
X38075244Y-53500500D01*
X38075246Y-53500500D01*
X38300635Y-53485412D01*
X38423994Y-53460338D01*
X38595903Y-53425396D01*
X38880537Y-53326560D01*
X39149459Y-53190668D01*
X39397869Y-53020144D01*
X39621333Y-52818032D01*
X39815865Y-52587939D01*
X39977993Y-52333970D01*
X40104823Y-52060658D01*
X40194093Y-51772879D01*
X40244209Y-51475770D01*
X40249237Y-51325372D01*
X44995723Y-51325372D01*
X45025881Y-51625160D01*
X45095731Y-51918262D01*
X45204021Y-52199432D01*
X45277750Y-52333970D01*
X45348825Y-52463665D01*
X45527554Y-52706238D01*
X45737020Y-52922824D01*
X45973485Y-53109558D01*
X46232730Y-53263109D01*
X46510128Y-53380736D01*
X46510129Y-53380736D01*
X46510131Y-53380737D01*
X46574179Y-53398281D01*
X46800729Y-53460340D01*
X47099347Y-53500500D01*
X47325244Y-53500500D01*
X47325246Y-53500500D01*
X47550635Y-53485412D01*
X47673994Y-53460338D01*
X47845903Y-53425396D01*
X48130537Y-53326560D01*
X48399459Y-53190668D01*
X48647869Y-53020144D01*
X48871333Y-52818032D01*
X49065865Y-52587939D01*
X49227993Y-52333970D01*
X49354823Y-52060658D01*
X49444093Y-51772879D01*
X49494209Y-51475770D01*
X49504277Y-51174631D01*
X49474118Y-50874838D01*
X49404269Y-50581739D01*
X49374814Y-50505262D01*
X49295978Y-50300567D01*
X49151175Y-50036335D01*
X48972445Y-49793761D01*
X48762979Y-49577175D01*
X48526514Y-49390441D01*
X48343471Y-49282025D01*
X48267270Y-49236891D01*
X48085671Y-49159886D01*
X47989868Y-49119262D01*
X47699275Y-49039661D01*
X47699274Y-49039660D01*
X47699271Y-49039660D01*
X47400653Y-48999500D01*
X47174756Y-48999500D01*
X47174754Y-48999500D01*
X46949364Y-49014587D01*
X46654098Y-49074603D01*
X46369459Y-49173441D01*
X46100546Y-49309328D01*
X45852127Y-49479858D01*
X45628668Y-49681966D01*
X45434135Y-49912061D01*
X45272005Y-50166032D01*
X45145178Y-50439339D01*
X45055907Y-50727120D01*
X45005791Y-51024230D01*
X44995723Y-51325372D01*
X40249237Y-51325372D01*
X40254277Y-51174631D01*
X40224118Y-50874838D01*
X40154269Y-50581739D01*
X40124814Y-50505262D01*
X40045978Y-50300567D01*
X39901175Y-50036335D01*
X39722445Y-49793761D01*
X39512979Y-49577175D01*
X39276514Y-49390441D01*
X39093471Y-49282025D01*
X39017270Y-49236891D01*
X38835671Y-49159886D01*
X38739868Y-49119262D01*
X38449275Y-49039661D01*
X38449274Y-49039660D01*
X38449271Y-49039660D01*
X38150653Y-48999500D01*
X37924756Y-48999500D01*
X37924754Y-48999500D01*
X37699364Y-49014587D01*
X37404098Y-49074603D01*
X37119459Y-49173441D01*
X36850546Y-49309328D01*
X36602127Y-49479858D01*
X36378668Y-49681966D01*
X36184135Y-49912061D01*
X36022005Y-50166032D01*
X35895178Y-50439339D01*
X35805907Y-50727120D01*
X35755791Y-51024230D01*
X35745723Y-51325372D01*
X25000500Y-51325372D01*
X25000500Y-49500000D01*
X32244722Y-49500000D01*
X32263792Y-49717974D01*
X32284099Y-49793762D01*
X32320425Y-49929330D01*
X32412898Y-50127639D01*
X32538402Y-50306877D01*
X32693123Y-50461598D01*
X32872361Y-50587102D01*
X33070670Y-50679575D01*
X33282023Y-50736207D01*
X33500000Y-50755277D01*
X33717977Y-50736207D01*
X33929330Y-50679575D01*
X34127639Y-50587102D01*
X34306877Y-50461598D01*
X34461598Y-50306877D01*
X34587102Y-50127639D01*
X34679575Y-49929330D01*
X34736207Y-49717977D01*
X34755277Y-49500000D01*
X34736207Y-49282023D01*
X34679575Y-49070670D01*
X34587102Y-48872362D01*
X34461598Y-48693123D01*
X34306877Y-48538402D01*
X34127639Y-48412898D01*
X34036205Y-48370261D01*
X33929331Y-48320425D01*
X33717974Y-48263792D01*
X33500000Y-48244722D01*
X33282025Y-48263792D01*
X33070668Y-48320425D01*
X32872361Y-48412898D01*
X32693122Y-48538402D01*
X32538402Y-48693122D01*
X32412898Y-48872361D01*
X32320425Y-49070668D01*
X32263792Y-49282025D01*
X32244722Y-49500000D01*
X25000500Y-49500000D01*
X25000500Y-46543124D01*
X32810426Y-46543124D01*
X32810427Y-46543125D01*
X32872610Y-46586666D01*
X33070840Y-46679102D01*
X33282113Y-46735712D01*
X33500000Y-46754775D01*
X33717886Y-46735712D01*
X33929159Y-46679102D01*
X34127385Y-46586667D01*
X34189572Y-46543124D01*
X33500001Y-45853553D01*
X33500000Y-45853553D01*
X32810426Y-46543124D01*
X25000500Y-46543124D01*
X25000500Y-45500000D01*
X32245224Y-45500000D01*
X32264287Y-45717886D01*
X32320898Y-45929161D01*
X32413331Y-46127386D01*
X32456873Y-46189571D01*
X32456875Y-46189572D01*
X33146447Y-45500001D01*
X33853553Y-45500001D01*
X34543124Y-46189572D01*
X34586667Y-46127385D01*
X34679102Y-45929159D01*
X34735712Y-45717886D01*
X34754775Y-45500000D01*
X34735712Y-45282113D01*
X34679102Y-45070840D01*
X34586667Y-44872615D01*
X34543123Y-44810428D01*
X33853553Y-45500000D01*
X33853553Y-45500001D01*
X33146447Y-45500001D01*
X33146447Y-45500000D01*
X32456875Y-44810427D01*
X32456874Y-44810428D01*
X32413333Y-44872611D01*
X32320897Y-45070840D01*
X32264287Y-45282113D01*
X32245224Y-45500000D01*
X25000500Y-45500000D01*
X25000500Y-44456875D01*
X32810427Y-44456875D01*
X33500000Y-45146447D01*
X33500001Y-45146447D01*
X34189572Y-44456875D01*
X34189571Y-44456873D01*
X34127386Y-44413331D01*
X33929161Y-44320898D01*
X33717886Y-44264287D01*
X33500000Y-44245224D01*
X33282113Y-44264287D01*
X33070840Y-44320897D01*
X32872611Y-44413333D01*
X32810428Y-44456874D01*
X32810427Y-44456875D01*
X25000500Y-44456875D01*
X25000500Y-43825372D01*
X35745723Y-43825372D01*
X35775881Y-44125160D01*
X35845731Y-44418262D01*
X35954021Y-44699432D01*
X36027750Y-44833970D01*
X36098825Y-44963665D01*
X36277554Y-45206238D01*
X36487020Y-45422824D01*
X36723485Y-45609558D01*
X36982730Y-45763109D01*
X37260128Y-45880736D01*
X37260129Y-45880736D01*
X37260131Y-45880737D01*
X37324179Y-45898281D01*
X37550729Y-45960340D01*
X37849347Y-46000500D01*
X38075244Y-46000500D01*
X38075246Y-46000500D01*
X38300635Y-45985412D01*
X38423994Y-45960338D01*
X38595903Y-45925396D01*
X38880537Y-45826560D01*
X39149459Y-45690668D01*
X39397869Y-45520144D01*
X39621333Y-45318032D01*
X39815865Y-45087939D01*
X39977993Y-44833970D01*
X40104823Y-44560658D01*
X40194093Y-44272879D01*
X40244209Y-43975770D01*
X40249237Y-43825372D01*
X44995723Y-43825372D01*
X45025881Y-44125160D01*
X45095731Y-44418262D01*
X45204021Y-44699432D01*
X45277750Y-44833970D01*
X45348825Y-44963665D01*
X45527554Y-45206238D01*
X45737020Y-45422824D01*
X45973485Y-45609558D01*
X46232730Y-45763109D01*
X46510128Y-45880736D01*
X46510129Y-45880736D01*
X46510131Y-45880737D01*
X46574179Y-45898281D01*
X46800729Y-45960340D01*
X47099347Y-46000500D01*
X47325244Y-46000500D01*
X47325246Y-46000500D01*
X47550635Y-45985412D01*
X47673994Y-45960338D01*
X47845903Y-45925396D01*
X48130537Y-45826560D01*
X48399459Y-45690668D01*
X48647869Y-45520144D01*
X48871333Y-45318032D01*
X49065865Y-45087939D01*
X49227993Y-44833970D01*
X49354823Y-44560658D01*
X49444093Y-44272879D01*
X49494209Y-43975770D01*
X49504277Y-43674631D01*
X49474118Y-43374838D01*
X49404269Y-43081739D01*
X49374814Y-43005262D01*
X49295978Y-42800567D01*
X49151175Y-42536335D01*
X48972445Y-42293761D01*
X48762979Y-42077175D01*
X48526514Y-41890441D01*
X48343471Y-41782025D01*
X48267270Y-41736891D01*
X48085671Y-41659886D01*
X47989868Y-41619262D01*
X47699275Y-41539661D01*
X47699274Y-41539660D01*
X47699271Y-41539660D01*
X47400653Y-41499500D01*
X47174756Y-41499500D01*
X47174754Y-41499500D01*
X46949364Y-41514587D01*
X46654098Y-41574603D01*
X46369459Y-41673441D01*
X46100546Y-41809328D01*
X45852127Y-41979858D01*
X45628668Y-42181966D01*
X45434135Y-42412061D01*
X45272005Y-42666032D01*
X45145178Y-42939339D01*
X45055907Y-43227120D01*
X45005791Y-43524230D01*
X44995723Y-43825372D01*
X40249237Y-43825372D01*
X40254277Y-43674631D01*
X40224118Y-43374838D01*
X40154269Y-43081739D01*
X40124814Y-43005262D01*
X40045978Y-42800567D01*
X39901175Y-42536335D01*
X39722445Y-42293761D01*
X39512979Y-42077175D01*
X39276514Y-41890441D01*
X39093471Y-41782025D01*
X39017270Y-41736891D01*
X38835671Y-41659886D01*
X38739868Y-41619262D01*
X38449275Y-41539661D01*
X38449274Y-41539660D01*
X38449271Y-41539660D01*
X38150653Y-41499500D01*
X37924756Y-41499500D01*
X37924754Y-41499500D01*
X37699364Y-41514587D01*
X37404098Y-41574603D01*
X37119459Y-41673441D01*
X36850546Y-41809328D01*
X36602127Y-41979858D01*
X36378668Y-42181966D01*
X36184135Y-42412061D01*
X36022005Y-42666032D01*
X35895178Y-42939339D01*
X35805907Y-43227120D01*
X35755791Y-43524230D01*
X35745723Y-43825372D01*
X25000500Y-43825372D01*
X25000500Y-41999999D01*
X32244722Y-41999999D01*
X32263792Y-42217974D01*
X32284099Y-42293762D01*
X32320425Y-42429330D01*
X32412898Y-42627639D01*
X32538402Y-42806877D01*
X32693123Y-42961598D01*
X32872361Y-43087102D01*
X33070670Y-43179575D01*
X33282023Y-43236207D01*
X33500000Y-43255277D01*
X33717977Y-43236207D01*
X33929330Y-43179575D01*
X34127639Y-43087102D01*
X34306877Y-42961598D01*
X34461598Y-42806877D01*
X34587102Y-42627639D01*
X34679575Y-42429330D01*
X34736207Y-42217977D01*
X34755277Y-42000000D01*
X34736207Y-41782023D01*
X34679575Y-41570670D01*
X34587102Y-41372362D01*
X34461598Y-41193123D01*
X34306877Y-41038402D01*
X34127639Y-40912898D01*
X34036205Y-40870261D01*
X33929331Y-40820425D01*
X33717974Y-40763792D01*
X33500000Y-40744722D01*
X33282025Y-40763792D01*
X33070668Y-40820425D01*
X32872361Y-40912898D01*
X32693122Y-41038402D01*
X32538402Y-41193122D01*
X32412898Y-41372361D01*
X32320425Y-41570668D01*
X32263792Y-41782025D01*
X32244722Y-41999999D01*
X25000500Y-41999999D01*
X25000500Y-39043124D01*
X32810426Y-39043124D01*
X32810427Y-39043125D01*
X32872610Y-39086666D01*
X33070840Y-39179102D01*
X33282113Y-39235712D01*
X33500000Y-39254775D01*
X33717886Y-39235712D01*
X33929159Y-39179102D01*
X34127385Y-39086667D01*
X34189572Y-39043124D01*
X33500001Y-38353553D01*
X33500000Y-38353553D01*
X32810426Y-39043124D01*
X25000500Y-39043124D01*
X25000500Y-37999999D01*
X32245224Y-37999999D01*
X32264287Y-38217886D01*
X32320898Y-38429161D01*
X32413331Y-38627386D01*
X32456873Y-38689571D01*
X32456875Y-38689572D01*
X33146447Y-38000001D01*
X33853553Y-38000001D01*
X34543124Y-38689572D01*
X34586667Y-38627385D01*
X34679102Y-38429159D01*
X34735712Y-38217886D01*
X34754775Y-37999999D01*
X34735712Y-37782113D01*
X34679102Y-37570840D01*
X34586667Y-37372615D01*
X34543123Y-37310428D01*
X33853553Y-38000000D01*
X33853553Y-38000001D01*
X33146447Y-38000001D01*
X33146447Y-38000000D01*
X32456875Y-37310427D01*
X32456874Y-37310428D01*
X32413333Y-37372611D01*
X32320897Y-37570840D01*
X32264287Y-37782113D01*
X32245224Y-37999999D01*
X25000500Y-37999999D01*
X25000500Y-36956875D01*
X32810427Y-36956875D01*
X33500000Y-37646447D01*
X33500001Y-37646447D01*
X34189572Y-36956875D01*
X34189571Y-36956873D01*
X34127386Y-36913331D01*
X33929161Y-36820898D01*
X33717886Y-36764287D01*
X33500000Y-36745224D01*
X33282113Y-36764287D01*
X33070840Y-36820897D01*
X32872611Y-36913333D01*
X32810428Y-36956874D01*
X32810427Y-36956875D01*
X25000500Y-36956875D01*
X25000500Y-35100000D01*
X25604340Y-35100000D01*
X25624936Y-35335407D01*
X25658748Y-35461594D01*
X25686097Y-35563663D01*
X25785965Y-35777830D01*
X25921505Y-35971401D01*
X26088599Y-36138495D01*
X26282170Y-36274035D01*
X26496337Y-36373903D01*
X26724592Y-36435063D01*
X26960000Y-36455659D01*
X27195408Y-36435063D01*
X27423663Y-36373903D01*
X27637830Y-36274035D01*
X27831401Y-36138495D01*
X27953717Y-36016178D01*
X28006460Y-35984885D01*
X28067752Y-35982696D01*
X28122597Y-36010149D01*
X28157577Y-36060528D01*
X28206647Y-36192088D01*
X28292811Y-36307188D01*
X28407910Y-36393352D01*
X28542624Y-36443597D01*
X28602176Y-36450000D01*
X29250000Y-36450000D01*
X29250000Y-35350000D01*
X29750000Y-35350000D01*
X29750000Y-36450000D01*
X30397824Y-36450000D01*
X30457375Y-36443597D01*
X30592089Y-36393352D01*
X30682898Y-36325372D01*
X35745723Y-36325372D01*
X35775881Y-36625160D01*
X35845731Y-36918262D01*
X35954021Y-37199432D01*
X36027750Y-37333970D01*
X36098825Y-37463665D01*
X36277554Y-37706238D01*
X36487020Y-37922824D01*
X36723485Y-38109558D01*
X36982730Y-38263109D01*
X37260128Y-38380736D01*
X37260129Y-38380736D01*
X37260131Y-38380737D01*
X37324179Y-38398281D01*
X37550729Y-38460340D01*
X37849347Y-38500500D01*
X38075244Y-38500500D01*
X38075246Y-38500500D01*
X38300635Y-38485412D01*
X38423994Y-38460338D01*
X38595903Y-38425396D01*
X38880537Y-38326560D01*
X39149459Y-38190668D01*
X39397869Y-38020144D01*
X39621333Y-37818032D01*
X39815865Y-37587939D01*
X39977993Y-37333970D01*
X40104823Y-37060658D01*
X40194093Y-36772879D01*
X40244209Y-36475770D01*
X40249237Y-36325372D01*
X44995723Y-36325372D01*
X45025881Y-36625160D01*
X45095731Y-36918262D01*
X45204021Y-37199432D01*
X45277750Y-37333970D01*
X45348825Y-37463665D01*
X45527554Y-37706238D01*
X45737020Y-37922824D01*
X45973485Y-38109558D01*
X46232730Y-38263109D01*
X46510128Y-38380736D01*
X46510129Y-38380736D01*
X46510131Y-38380737D01*
X46574179Y-38398281D01*
X46800729Y-38460340D01*
X47099347Y-38500500D01*
X47325244Y-38500500D01*
X47325246Y-38500500D01*
X47550635Y-38485412D01*
X47673994Y-38460338D01*
X47845903Y-38425396D01*
X48130537Y-38326560D01*
X48399459Y-38190668D01*
X48647869Y-38020144D01*
X48871333Y-37818032D01*
X49065865Y-37587939D01*
X49227993Y-37333970D01*
X49354823Y-37060658D01*
X49444093Y-36772879D01*
X49494209Y-36475770D01*
X49504277Y-36174631D01*
X49474118Y-35874838D01*
X49404269Y-35581739D01*
X49374814Y-35505262D01*
X49295978Y-35300567D01*
X49151175Y-35036335D01*
X48972445Y-34793761D01*
X48762979Y-34577175D01*
X48526514Y-34390441D01*
X48343471Y-34282025D01*
X48267270Y-34236891D01*
X48044962Y-34142624D01*
X47989868Y-34119262D01*
X47699275Y-34039661D01*
X47699274Y-34039660D01*
X47699271Y-34039660D01*
X47400653Y-33999500D01*
X47174756Y-33999500D01*
X47174754Y-33999500D01*
X46949364Y-34014587D01*
X46654098Y-34074603D01*
X46369459Y-34173441D01*
X46100546Y-34309328D01*
X45852127Y-34479858D01*
X45628668Y-34681966D01*
X45434135Y-34912061D01*
X45272005Y-35166032D01*
X45145178Y-35439339D01*
X45055907Y-35727120D01*
X45005791Y-36024230D01*
X44995723Y-36325372D01*
X40249237Y-36325372D01*
X40254277Y-36174631D01*
X40224118Y-35874838D01*
X40154269Y-35581739D01*
X40124814Y-35505262D01*
X40045978Y-35300567D01*
X39901175Y-35036335D01*
X39722445Y-34793761D01*
X39512979Y-34577175D01*
X39276514Y-34390441D01*
X39093471Y-34282025D01*
X39017270Y-34236891D01*
X38794962Y-34142624D01*
X38739868Y-34119262D01*
X38449275Y-34039661D01*
X38449274Y-34039660D01*
X38449271Y-34039660D01*
X38150653Y-33999500D01*
X37924756Y-33999500D01*
X37924754Y-33999500D01*
X37699364Y-34014587D01*
X37404098Y-34074603D01*
X37119459Y-34173441D01*
X36850546Y-34309328D01*
X36602127Y-34479858D01*
X36378668Y-34681966D01*
X36184135Y-34912061D01*
X36022005Y-35166032D01*
X35895178Y-35439339D01*
X35805907Y-35727120D01*
X35755791Y-36024230D01*
X35745723Y-36325372D01*
X30682898Y-36325372D01*
X30707188Y-36307188D01*
X30793352Y-36192089D01*
X30843597Y-36057375D01*
X30850000Y-35997824D01*
X30850000Y-35350000D01*
X29750000Y-35350000D01*
X29250000Y-35350000D01*
X29250000Y-33750000D01*
X29750000Y-33750000D01*
X29750000Y-34850000D01*
X30850000Y-34850000D01*
X30850000Y-34500000D01*
X32244722Y-34500000D01*
X32263792Y-34717974D01*
X32299168Y-34850000D01*
X32320425Y-34929330D01*
X32412898Y-35127639D01*
X32538402Y-35306877D01*
X32693123Y-35461598D01*
X32872361Y-35587102D01*
X33070670Y-35679575D01*
X33282023Y-35736207D01*
X33500000Y-35755277D01*
X33717977Y-35736207D01*
X33929330Y-35679575D01*
X34127639Y-35587102D01*
X34306877Y-35461598D01*
X34461598Y-35306877D01*
X34587102Y-35127639D01*
X34679575Y-34929330D01*
X34736207Y-34717977D01*
X34755277Y-34500000D01*
X34736207Y-34282023D01*
X34679575Y-34070670D01*
X34587102Y-33872362D01*
X34461598Y-33693123D01*
X34306877Y-33538402D01*
X34127639Y-33412898D01*
X34036205Y-33370261D01*
X33929331Y-33320425D01*
X33717974Y-33263792D01*
X33500000Y-33244722D01*
X33282025Y-33263792D01*
X33070668Y-33320425D01*
X32872361Y-33412898D01*
X32693122Y-33538402D01*
X32538402Y-33693122D01*
X32412898Y-33872361D01*
X32320425Y-34070668D01*
X32263792Y-34282025D01*
X32244722Y-34500000D01*
X30850000Y-34500000D01*
X30850000Y-34202176D01*
X30843597Y-34142624D01*
X30793352Y-34007910D01*
X30707188Y-33892811D01*
X30592089Y-33806647D01*
X30457375Y-33756402D01*
X30397824Y-33750000D01*
X29750000Y-33750000D01*
X29250000Y-33750000D01*
X28602176Y-33750000D01*
X28542624Y-33756402D01*
X28407910Y-33806647D01*
X28292811Y-33892811D01*
X28206646Y-34007913D01*
X28157576Y-34139472D01*
X28122597Y-34189850D01*
X28067753Y-34217303D01*
X28006460Y-34215114D01*
X27953714Y-34183818D01*
X27831404Y-34061508D01*
X27831401Y-34061505D01*
X27637830Y-33925965D01*
X27423663Y-33826097D01*
X27351074Y-33806647D01*
X27195407Y-33764936D01*
X26960000Y-33744340D01*
X26724592Y-33764936D01*
X26496336Y-33826097D01*
X26282170Y-33925965D01*
X26088598Y-34061505D01*
X25921505Y-34228598D01*
X25785965Y-34422170D01*
X25686097Y-34636336D01*
X25624936Y-34864592D01*
X25604340Y-35100000D01*
X25000500Y-35100000D01*
X25000500Y-31543124D01*
X32810426Y-31543124D01*
X32810427Y-31543125D01*
X32872610Y-31586666D01*
X33070840Y-31679102D01*
X33282113Y-31735712D01*
X33500000Y-31754775D01*
X33717886Y-31735712D01*
X33929159Y-31679102D01*
X34127385Y-31586667D01*
X34189572Y-31543124D01*
X33500001Y-30853553D01*
X33500000Y-30853553D01*
X32810426Y-31543124D01*
X25000500Y-31543124D01*
X25000500Y-30499999D01*
X32245224Y-30499999D01*
X32264287Y-30717886D01*
X32320898Y-30929161D01*
X32413331Y-31127386D01*
X32456873Y-31189571D01*
X32456875Y-31189572D01*
X33146447Y-30500001D01*
X33853553Y-30500001D01*
X34543124Y-31189572D01*
X34586667Y-31127385D01*
X34679102Y-30929159D01*
X34735712Y-30717886D01*
X34754775Y-30499999D01*
X34735712Y-30282113D01*
X34679102Y-30070840D01*
X34586667Y-29872615D01*
X34543123Y-29810428D01*
X33853553Y-30500000D01*
X33853553Y-30500001D01*
X33146447Y-30500001D01*
X33146447Y-30500000D01*
X32456875Y-29810427D01*
X32456874Y-29810428D01*
X32413333Y-29872611D01*
X32320897Y-30070840D01*
X32264287Y-30282113D01*
X32245224Y-30499999D01*
X25000500Y-30499999D01*
X25000500Y-29456875D01*
X32810427Y-29456875D01*
X33500000Y-30146447D01*
X33500001Y-30146447D01*
X34189572Y-29456875D01*
X34189571Y-29456873D01*
X34127386Y-29413331D01*
X33929161Y-29320898D01*
X33717886Y-29264287D01*
X33500000Y-29245224D01*
X33282113Y-29264287D01*
X33070840Y-29320897D01*
X32872611Y-29413333D01*
X32810428Y-29456874D01*
X32810427Y-29456875D01*
X25000500Y-29456875D01*
X25000500Y-28825372D01*
X35745723Y-28825372D01*
X35775881Y-29125160D01*
X35845731Y-29418262D01*
X35954021Y-29699432D01*
X36027750Y-29833970D01*
X36098825Y-29963665D01*
X36277554Y-30206238D01*
X36487020Y-30422824D01*
X36723485Y-30609558D01*
X36982730Y-30763109D01*
X37260128Y-30880736D01*
X37260129Y-30880736D01*
X37260131Y-30880737D01*
X37324179Y-30898281D01*
X37550729Y-30960340D01*
X37849347Y-31000500D01*
X38075244Y-31000500D01*
X38075246Y-31000500D01*
X38300635Y-30985412D01*
X38423994Y-30960338D01*
X38595903Y-30925396D01*
X38880537Y-30826560D01*
X39149459Y-30690668D01*
X39397869Y-30520144D01*
X39621333Y-30318032D01*
X39815865Y-30087939D01*
X39977993Y-29833970D01*
X40104823Y-29560658D01*
X40194093Y-29272879D01*
X40244209Y-28975770D01*
X40249237Y-28825372D01*
X44995723Y-28825372D01*
X45025881Y-29125160D01*
X45095731Y-29418262D01*
X45204021Y-29699432D01*
X45277750Y-29833970D01*
X45348825Y-29963665D01*
X45527554Y-30206238D01*
X45737020Y-30422824D01*
X45973485Y-30609558D01*
X46232730Y-30763109D01*
X46510128Y-30880736D01*
X46510129Y-30880736D01*
X46510131Y-30880737D01*
X46574179Y-30898281D01*
X46800729Y-30960340D01*
X47099347Y-31000500D01*
X47325244Y-31000500D01*
X47325246Y-31000500D01*
X47550635Y-30985412D01*
X47673994Y-30960338D01*
X47845903Y-30925396D01*
X48130537Y-30826560D01*
X48399459Y-30690668D01*
X48647869Y-30520144D01*
X48871333Y-30318032D01*
X49065865Y-30087939D01*
X49227993Y-29833970D01*
X49354823Y-29560658D01*
X49444093Y-29272879D01*
X49494209Y-28975770D01*
X49504277Y-28674631D01*
X49474118Y-28374838D01*
X49404269Y-28081739D01*
X49374814Y-28005262D01*
X49295978Y-27800567D01*
X49151175Y-27536335D01*
X48972445Y-27293761D01*
X48762979Y-27077175D01*
X48526514Y-26890441D01*
X48343471Y-26782025D01*
X48267270Y-26736891D01*
X48085671Y-26659886D01*
X47989868Y-26619262D01*
X47699275Y-26539661D01*
X47699274Y-26539660D01*
X47699271Y-26539660D01*
X47400653Y-26499500D01*
X47174756Y-26499500D01*
X47174754Y-26499500D01*
X46949364Y-26514587D01*
X46654098Y-26574603D01*
X46369459Y-26673441D01*
X46100546Y-26809328D01*
X45852127Y-26979858D01*
X45628668Y-27181966D01*
X45434135Y-27412061D01*
X45272005Y-27666032D01*
X45145178Y-27939339D01*
X45055907Y-28227120D01*
X45005791Y-28524230D01*
X44995723Y-28825372D01*
X40249237Y-28825372D01*
X40254277Y-28674631D01*
X40224118Y-28374838D01*
X40154269Y-28081739D01*
X40124814Y-28005262D01*
X40045978Y-27800567D01*
X39901175Y-27536335D01*
X39722445Y-27293761D01*
X39512979Y-27077175D01*
X39276514Y-26890441D01*
X39093471Y-26782025D01*
X39017270Y-26736891D01*
X38835671Y-26659886D01*
X38739868Y-26619262D01*
X38449275Y-26539661D01*
X38449274Y-26539660D01*
X38449271Y-26539660D01*
X38150653Y-26499500D01*
X37924756Y-26499500D01*
X37924754Y-26499500D01*
X37699364Y-26514587D01*
X37404098Y-26574603D01*
X37119459Y-26673441D01*
X36850546Y-26809328D01*
X36602127Y-26979858D01*
X36378668Y-27181966D01*
X36184135Y-27412061D01*
X36022005Y-27666032D01*
X35895178Y-27939339D01*
X35805907Y-28227120D01*
X35755791Y-28524230D01*
X35745723Y-28825372D01*
X25000500Y-28825372D01*
X25000500Y-27000000D01*
X32244722Y-27000000D01*
X32263792Y-27217974D01*
X32284099Y-27293762D01*
X32320425Y-27429330D01*
X32412898Y-27627639D01*
X32538402Y-27806877D01*
X32693123Y-27961598D01*
X32872361Y-28087102D01*
X33070670Y-28179575D01*
X33282023Y-28236207D01*
X33500000Y-28255277D01*
X33717977Y-28236207D01*
X33929330Y-28179575D01*
X34127639Y-28087102D01*
X34306877Y-27961598D01*
X34461598Y-27806877D01*
X34587102Y-27627639D01*
X34679575Y-27429330D01*
X34736207Y-27217977D01*
X34755277Y-27000000D01*
X34736207Y-26782023D01*
X34679575Y-26570670D01*
X34587102Y-26372362D01*
X34461598Y-26193123D01*
X34306877Y-26038402D01*
X34127639Y-25912898D01*
X34036205Y-25870261D01*
X33929331Y-25820425D01*
X33717974Y-25763792D01*
X33500000Y-25744722D01*
X33282025Y-25763792D01*
X33070668Y-25820425D01*
X32872361Y-25912898D01*
X32693122Y-26038402D01*
X32538402Y-26193122D01*
X32412898Y-26372361D01*
X32320425Y-26570668D01*
X32263792Y-26782025D01*
X32244722Y-27000000D01*
X25000500Y-27000000D01*
X25000500Y-25124500D01*
X25017113Y-25062500D01*
X25062500Y-25017113D01*
X25124500Y-25000500D01*
X49875500Y-25000500D01*
X49937500Y-25017113D01*
G37*
%TD.AperFunction*%
%TD*%
M02*
