M48
; DRILL file {KiCad 7.0.1} date Wed Oct  4 10:51:46 2023
; FORMAT={-:-/ absolute / inch / decimal}
; #@! TF.CreationDate,2023-10-04T10:51:46-04:00
; #@! TF.GenerationSoftware,Kicad,Pcbnew,7.0.1
; #@! TF.FileFunction,Plated,1,2,PTH
FMAT,2
INCH
; #@! TA.AperFunction,Plated,PTH,ComponentDrill
T1C0.0197
; #@! TA.AperFunction,Plated,PTH,ComponentDrill
T2C0.0394
%
G90
G05
T1
X1.3189Y-1.063
X1.3189Y-1.2008
X1.3189Y-1.3583
X1.3189Y-1.4961
X1.3189Y-1.6535
X1.3189Y-1.7913
X1.3189Y-1.9488
X1.3189Y-2.0866
X1.3189Y-2.2441
X1.3189Y-2.3819
X1.3189Y-2.5394
X1.3189Y-2.6772
X1.3189Y-2.8346
X1.3189Y-2.9724
X1.3189Y-3.1299
X1.3189Y-3.2677
T2
X1.0614Y-1.3819
X1.0614Y-3.1841
X1.1614Y-1.3819
X1.1614Y-3.1841
T0
M30
