%TF.GenerationSoftware,KiCad,Pcbnew,7.0.1*%
%TF.CreationDate,2023-08-30T09:28:39-04:00*%
%TF.ProjectId,TacTile-L1,54616354-696c-4652-9d4c-312e6b696361,rev?*%
%TF.SameCoordinates,Original*%
%TF.FileFunction,Legend,Top*%
%TF.FilePolarity,Positive*%
%FSLAX46Y46*%
G04 Gerber Fmt 4.6, Leading zero omitted, Abs format (unit mm)*
G04 Created by KiCad (PCBNEW 7.0.1) date 2023-08-30 09:28:39*
%MOMM*%
%LPD*%
G01*
G04 APERTURE LIST*
%ADD10C,0.100000*%
%ADD11C,0.150000*%
%ADD12C,0.120000*%
G04 APERTURE END LIST*
D10*
%TO.C,LD6*%
X43291666Y-65787380D02*
X43767856Y-65787380D01*
X43767856Y-65787380D02*
X43767856Y-66787380D01*
X42958332Y-65787380D02*
X42958332Y-66787380D01*
X42958332Y-66787380D02*
X42720237Y-66787380D01*
X42720237Y-66787380D02*
X42577380Y-66739761D01*
X42577380Y-66739761D02*
X42482142Y-66644523D01*
X42482142Y-66644523D02*
X42434523Y-66549285D01*
X42434523Y-66549285D02*
X42386904Y-66358809D01*
X42386904Y-66358809D02*
X42386904Y-66215952D01*
X42386904Y-66215952D02*
X42434523Y-66025476D01*
X42434523Y-66025476D02*
X42482142Y-65930238D01*
X42482142Y-65930238D02*
X42577380Y-65835000D01*
X42577380Y-65835000D02*
X42720237Y-65787380D01*
X42720237Y-65787380D02*
X42958332Y-65787380D01*
X41529761Y-66787380D02*
X41720237Y-66787380D01*
X41720237Y-66787380D02*
X41815475Y-66739761D01*
X41815475Y-66739761D02*
X41863094Y-66692142D01*
X41863094Y-66692142D02*
X41958332Y-66549285D01*
X41958332Y-66549285D02*
X42005951Y-66358809D01*
X42005951Y-66358809D02*
X42005951Y-65977857D01*
X42005951Y-65977857D02*
X41958332Y-65882619D01*
X41958332Y-65882619D02*
X41910713Y-65835000D01*
X41910713Y-65835000D02*
X41815475Y-65787380D01*
X41815475Y-65787380D02*
X41624999Y-65787380D01*
X41624999Y-65787380D02*
X41529761Y-65835000D01*
X41529761Y-65835000D02*
X41482142Y-65882619D01*
X41482142Y-65882619D02*
X41434523Y-65977857D01*
X41434523Y-65977857D02*
X41434523Y-66215952D01*
X41434523Y-66215952D02*
X41482142Y-66311190D01*
X41482142Y-66311190D02*
X41529761Y-66358809D01*
X41529761Y-66358809D02*
X41624999Y-66406428D01*
X41624999Y-66406428D02*
X41815475Y-66406428D01*
X41815475Y-66406428D02*
X41910713Y-66358809D01*
X41910713Y-66358809D02*
X41958332Y-66311190D01*
X41958332Y-66311190D02*
X42005951Y-66215952D01*
%TO.C,LD2*%
X43291666Y-35787380D02*
X43767856Y-35787380D01*
X43767856Y-35787380D02*
X43767856Y-36787380D01*
X42958332Y-35787380D02*
X42958332Y-36787380D01*
X42958332Y-36787380D02*
X42720237Y-36787380D01*
X42720237Y-36787380D02*
X42577380Y-36739761D01*
X42577380Y-36739761D02*
X42482142Y-36644523D01*
X42482142Y-36644523D02*
X42434523Y-36549285D01*
X42434523Y-36549285D02*
X42386904Y-36358809D01*
X42386904Y-36358809D02*
X42386904Y-36215952D01*
X42386904Y-36215952D02*
X42434523Y-36025476D01*
X42434523Y-36025476D02*
X42482142Y-35930238D01*
X42482142Y-35930238D02*
X42577380Y-35835000D01*
X42577380Y-35835000D02*
X42720237Y-35787380D01*
X42720237Y-35787380D02*
X42958332Y-35787380D01*
X42005951Y-36692142D02*
X41958332Y-36739761D01*
X41958332Y-36739761D02*
X41863094Y-36787380D01*
X41863094Y-36787380D02*
X41624999Y-36787380D01*
X41624999Y-36787380D02*
X41529761Y-36739761D01*
X41529761Y-36739761D02*
X41482142Y-36692142D01*
X41482142Y-36692142D02*
X41434523Y-36596904D01*
X41434523Y-36596904D02*
X41434523Y-36501666D01*
X41434523Y-36501666D02*
X41482142Y-36358809D01*
X41482142Y-36358809D02*
X42053570Y-35787380D01*
X42053570Y-35787380D02*
X41434523Y-35787380D01*
%TO.C,LD7*%
X43291666Y-73287380D02*
X43767856Y-73287380D01*
X43767856Y-73287380D02*
X43767856Y-74287380D01*
X42958332Y-73287380D02*
X42958332Y-74287380D01*
X42958332Y-74287380D02*
X42720237Y-74287380D01*
X42720237Y-74287380D02*
X42577380Y-74239761D01*
X42577380Y-74239761D02*
X42482142Y-74144523D01*
X42482142Y-74144523D02*
X42434523Y-74049285D01*
X42434523Y-74049285D02*
X42386904Y-73858809D01*
X42386904Y-73858809D02*
X42386904Y-73715952D01*
X42386904Y-73715952D02*
X42434523Y-73525476D01*
X42434523Y-73525476D02*
X42482142Y-73430238D01*
X42482142Y-73430238D02*
X42577380Y-73335000D01*
X42577380Y-73335000D02*
X42720237Y-73287380D01*
X42720237Y-73287380D02*
X42958332Y-73287380D01*
X42053570Y-74287380D02*
X41386904Y-74287380D01*
X41386904Y-74287380D02*
X41815475Y-73287380D01*
%TO.C,LD8*%
X43291666Y-80787380D02*
X43767856Y-80787380D01*
X43767856Y-80787380D02*
X43767856Y-81787380D01*
X42958332Y-80787380D02*
X42958332Y-81787380D01*
X42958332Y-81787380D02*
X42720237Y-81787380D01*
X42720237Y-81787380D02*
X42577380Y-81739761D01*
X42577380Y-81739761D02*
X42482142Y-81644523D01*
X42482142Y-81644523D02*
X42434523Y-81549285D01*
X42434523Y-81549285D02*
X42386904Y-81358809D01*
X42386904Y-81358809D02*
X42386904Y-81215952D01*
X42386904Y-81215952D02*
X42434523Y-81025476D01*
X42434523Y-81025476D02*
X42482142Y-80930238D01*
X42482142Y-80930238D02*
X42577380Y-80835000D01*
X42577380Y-80835000D02*
X42720237Y-80787380D01*
X42720237Y-80787380D02*
X42958332Y-80787380D01*
X41815475Y-81358809D02*
X41910713Y-81406428D01*
X41910713Y-81406428D02*
X41958332Y-81454047D01*
X41958332Y-81454047D02*
X42005951Y-81549285D01*
X42005951Y-81549285D02*
X42005951Y-81596904D01*
X42005951Y-81596904D02*
X41958332Y-81692142D01*
X41958332Y-81692142D02*
X41910713Y-81739761D01*
X41910713Y-81739761D02*
X41815475Y-81787380D01*
X41815475Y-81787380D02*
X41624999Y-81787380D01*
X41624999Y-81787380D02*
X41529761Y-81739761D01*
X41529761Y-81739761D02*
X41482142Y-81692142D01*
X41482142Y-81692142D02*
X41434523Y-81596904D01*
X41434523Y-81596904D02*
X41434523Y-81549285D01*
X41434523Y-81549285D02*
X41482142Y-81454047D01*
X41482142Y-81454047D02*
X41529761Y-81406428D01*
X41529761Y-81406428D02*
X41624999Y-81358809D01*
X41624999Y-81358809D02*
X41815475Y-81358809D01*
X41815475Y-81358809D02*
X41910713Y-81311190D01*
X41910713Y-81311190D02*
X41958332Y-81263571D01*
X41958332Y-81263571D02*
X42005951Y-81168333D01*
X42005951Y-81168333D02*
X42005951Y-80977857D01*
X42005951Y-80977857D02*
X41958332Y-80882619D01*
X41958332Y-80882619D02*
X41910713Y-80835000D01*
X41910713Y-80835000D02*
X41815475Y-80787380D01*
X41815475Y-80787380D02*
X41624999Y-80787380D01*
X41624999Y-80787380D02*
X41529761Y-80835000D01*
X41529761Y-80835000D02*
X41482142Y-80882619D01*
X41482142Y-80882619D02*
X41434523Y-80977857D01*
X41434523Y-80977857D02*
X41434523Y-81168333D01*
X41434523Y-81168333D02*
X41482142Y-81263571D01*
X41482142Y-81263571D02*
X41529761Y-81311190D01*
X41529761Y-81311190D02*
X41624999Y-81358809D01*
D11*
%TO.C,J2*%
X31232619Y-85593333D02*
X31946904Y-85593333D01*
X31946904Y-85593333D02*
X32089761Y-85640952D01*
X32089761Y-85640952D02*
X32185000Y-85736190D01*
X32185000Y-85736190D02*
X32232619Y-85879047D01*
X32232619Y-85879047D02*
X32232619Y-85974285D01*
X31327857Y-85164761D02*
X31280238Y-85117142D01*
X31280238Y-85117142D02*
X31232619Y-85021904D01*
X31232619Y-85021904D02*
X31232619Y-84783809D01*
X31232619Y-84783809D02*
X31280238Y-84688571D01*
X31280238Y-84688571D02*
X31327857Y-84640952D01*
X31327857Y-84640952D02*
X31423095Y-84593333D01*
X31423095Y-84593333D02*
X31518333Y-84593333D01*
X31518333Y-84593333D02*
X31661190Y-84640952D01*
X31661190Y-84640952D02*
X32232619Y-85212380D01*
X32232619Y-85212380D02*
X32232619Y-84593333D01*
D10*
%TO.C,LD5*%
X43291666Y-58287380D02*
X43767856Y-58287380D01*
X43767856Y-58287380D02*
X43767856Y-59287380D01*
X42958332Y-58287380D02*
X42958332Y-59287380D01*
X42958332Y-59287380D02*
X42720237Y-59287380D01*
X42720237Y-59287380D02*
X42577380Y-59239761D01*
X42577380Y-59239761D02*
X42482142Y-59144523D01*
X42482142Y-59144523D02*
X42434523Y-59049285D01*
X42434523Y-59049285D02*
X42386904Y-58858809D01*
X42386904Y-58858809D02*
X42386904Y-58715952D01*
X42386904Y-58715952D02*
X42434523Y-58525476D01*
X42434523Y-58525476D02*
X42482142Y-58430238D01*
X42482142Y-58430238D02*
X42577380Y-58335000D01*
X42577380Y-58335000D02*
X42720237Y-58287380D01*
X42720237Y-58287380D02*
X42958332Y-58287380D01*
X41482142Y-59287380D02*
X41958332Y-59287380D01*
X41958332Y-59287380D02*
X42005951Y-58811190D01*
X42005951Y-58811190D02*
X41958332Y-58858809D01*
X41958332Y-58858809D02*
X41863094Y-58906428D01*
X41863094Y-58906428D02*
X41624999Y-58906428D01*
X41624999Y-58906428D02*
X41529761Y-58858809D01*
X41529761Y-58858809D02*
X41482142Y-58811190D01*
X41482142Y-58811190D02*
X41434523Y-58715952D01*
X41434523Y-58715952D02*
X41434523Y-58477857D01*
X41434523Y-58477857D02*
X41482142Y-58382619D01*
X41482142Y-58382619D02*
X41529761Y-58335000D01*
X41529761Y-58335000D02*
X41624999Y-58287380D01*
X41624999Y-58287380D02*
X41863094Y-58287380D01*
X41863094Y-58287380D02*
X41958332Y-58335000D01*
X41958332Y-58335000D02*
X42005951Y-58382619D01*
D11*
%TO.C,J1*%
X31732619Y-31053333D02*
X32446904Y-31053333D01*
X32446904Y-31053333D02*
X32589761Y-31100952D01*
X32589761Y-31100952D02*
X32685000Y-31196190D01*
X32685000Y-31196190D02*
X32732619Y-31339047D01*
X32732619Y-31339047D02*
X32732619Y-31434285D01*
X32732619Y-30053333D02*
X32732619Y-30624761D01*
X32732619Y-30339047D02*
X31732619Y-30339047D01*
X31732619Y-30339047D02*
X31875476Y-30434285D01*
X31875476Y-30434285D02*
X31970714Y-30529523D01*
X31970714Y-30529523D02*
X32018333Y-30624761D01*
D10*
%TO.C,LD3*%
X43291666Y-43287380D02*
X43767856Y-43287380D01*
X43767856Y-43287380D02*
X43767856Y-44287380D01*
X42958332Y-43287380D02*
X42958332Y-44287380D01*
X42958332Y-44287380D02*
X42720237Y-44287380D01*
X42720237Y-44287380D02*
X42577380Y-44239761D01*
X42577380Y-44239761D02*
X42482142Y-44144523D01*
X42482142Y-44144523D02*
X42434523Y-44049285D01*
X42434523Y-44049285D02*
X42386904Y-43858809D01*
X42386904Y-43858809D02*
X42386904Y-43715952D01*
X42386904Y-43715952D02*
X42434523Y-43525476D01*
X42434523Y-43525476D02*
X42482142Y-43430238D01*
X42482142Y-43430238D02*
X42577380Y-43335000D01*
X42577380Y-43335000D02*
X42720237Y-43287380D01*
X42720237Y-43287380D02*
X42958332Y-43287380D01*
X42053570Y-44287380D02*
X41434523Y-44287380D01*
X41434523Y-44287380D02*
X41767856Y-43906428D01*
X41767856Y-43906428D02*
X41624999Y-43906428D01*
X41624999Y-43906428D02*
X41529761Y-43858809D01*
X41529761Y-43858809D02*
X41482142Y-43811190D01*
X41482142Y-43811190D02*
X41434523Y-43715952D01*
X41434523Y-43715952D02*
X41434523Y-43477857D01*
X41434523Y-43477857D02*
X41482142Y-43382619D01*
X41482142Y-43382619D02*
X41529761Y-43335000D01*
X41529761Y-43335000D02*
X41624999Y-43287380D01*
X41624999Y-43287380D02*
X41910713Y-43287380D01*
X41910713Y-43287380D02*
X42005951Y-43335000D01*
X42005951Y-43335000D02*
X42053570Y-43382619D01*
%TO.C,LD1*%
X43291666Y-28287380D02*
X43767856Y-28287380D01*
X43767856Y-28287380D02*
X43767856Y-29287380D01*
X42958332Y-28287380D02*
X42958332Y-29287380D01*
X42958332Y-29287380D02*
X42720237Y-29287380D01*
X42720237Y-29287380D02*
X42577380Y-29239761D01*
X42577380Y-29239761D02*
X42482142Y-29144523D01*
X42482142Y-29144523D02*
X42434523Y-29049285D01*
X42434523Y-29049285D02*
X42386904Y-28858809D01*
X42386904Y-28858809D02*
X42386904Y-28715952D01*
X42386904Y-28715952D02*
X42434523Y-28525476D01*
X42434523Y-28525476D02*
X42482142Y-28430238D01*
X42482142Y-28430238D02*
X42577380Y-28335000D01*
X42577380Y-28335000D02*
X42720237Y-28287380D01*
X42720237Y-28287380D02*
X42958332Y-28287380D01*
X41434523Y-28287380D02*
X42005951Y-28287380D01*
X41720237Y-28287380D02*
X41720237Y-29287380D01*
X41720237Y-29287380D02*
X41815475Y-29144523D01*
X41815475Y-29144523D02*
X41910713Y-29049285D01*
X41910713Y-29049285D02*
X42005951Y-29001666D01*
%TO.C,LD4*%
X43291666Y-50787380D02*
X43767856Y-50787380D01*
X43767856Y-50787380D02*
X43767856Y-51787380D01*
X42958332Y-50787380D02*
X42958332Y-51787380D01*
X42958332Y-51787380D02*
X42720237Y-51787380D01*
X42720237Y-51787380D02*
X42577380Y-51739761D01*
X42577380Y-51739761D02*
X42482142Y-51644523D01*
X42482142Y-51644523D02*
X42434523Y-51549285D01*
X42434523Y-51549285D02*
X42386904Y-51358809D01*
X42386904Y-51358809D02*
X42386904Y-51215952D01*
X42386904Y-51215952D02*
X42434523Y-51025476D01*
X42434523Y-51025476D02*
X42482142Y-50930238D01*
X42482142Y-50930238D02*
X42577380Y-50835000D01*
X42577380Y-50835000D02*
X42720237Y-50787380D01*
X42720237Y-50787380D02*
X42958332Y-50787380D01*
X41529761Y-51454047D02*
X41529761Y-50787380D01*
X41767856Y-51835000D02*
X42005951Y-51120714D01*
X42005951Y-51120714D02*
X41386904Y-51120714D01*
%TO.C,LD6*%
X49325000Y-69350000D02*
X35925000Y-69350000D01*
X35925000Y-69350000D02*
X35925000Y-63150000D01*
X35925000Y-63150000D02*
X49325000Y-63150000D01*
X49325000Y-63150000D02*
X49325000Y-69350000D01*
%TO.C,LD2*%
X49325000Y-39350000D02*
X35925000Y-39350000D01*
X35925000Y-39350000D02*
X35925000Y-33150000D01*
X35925000Y-33150000D02*
X49325000Y-33150000D01*
X49325000Y-33150000D02*
X49325000Y-39350000D01*
%TO.C,LD7*%
X49325000Y-76850000D02*
X35925000Y-76850000D01*
X35925000Y-76850000D02*
X35925000Y-70650000D01*
X35925000Y-70650000D02*
X49325000Y-70650000D01*
X49325000Y-70650000D02*
X49325000Y-76850000D01*
%TO.C,LD8*%
X49325000Y-84350000D02*
X35925000Y-84350000D01*
X35925000Y-84350000D02*
X35925000Y-78150000D01*
X35925000Y-78150000D02*
X49325000Y-78150000D01*
X49325000Y-78150000D02*
X49325000Y-84350000D01*
D12*
%TO.C,J2*%
X30770000Y-79605000D02*
X30770000Y-80875000D01*
X29500000Y-79605000D02*
X30770000Y-79605000D01*
X27340000Y-81917929D02*
X27340000Y-82315000D01*
X26580000Y-81917929D02*
X26580000Y-82315000D01*
X29880000Y-81985000D02*
X29880000Y-82315000D01*
X29120000Y-81985000D02*
X29120000Y-82315000D01*
X30830000Y-82315000D02*
X25630000Y-82315000D01*
X28230000Y-82315000D02*
X28230000Y-84975000D01*
X25630000Y-82315000D02*
X25630000Y-84975000D01*
X30830000Y-84975000D02*
X30830000Y-82315000D01*
X29880000Y-84975000D02*
X29880000Y-90975000D01*
X29820000Y-84975000D02*
X29820000Y-90975000D01*
X29700000Y-84975000D02*
X29700000Y-90975000D01*
X29580000Y-84975000D02*
X29580000Y-90975000D01*
X29460000Y-84975000D02*
X29460000Y-90975000D01*
X29340000Y-84975000D02*
X29340000Y-90975000D01*
X29220000Y-84975000D02*
X29220000Y-90975000D01*
X27340000Y-84975000D02*
X27340000Y-90975000D01*
X25630000Y-84975000D02*
X30830000Y-84975000D01*
X29880000Y-90975000D02*
X29120000Y-90975000D01*
X29120000Y-90975000D02*
X29120000Y-84975000D01*
X27340000Y-90975000D02*
X26580000Y-90975000D01*
X26580000Y-90975000D02*
X26580000Y-84975000D01*
D10*
%TO.C,LD5*%
X49325000Y-61850000D02*
X35925000Y-61850000D01*
X35925000Y-61850000D02*
X35925000Y-55650000D01*
X35925000Y-55650000D02*
X49325000Y-55650000D01*
X49325000Y-55650000D02*
X49325000Y-61850000D01*
D12*
%TO.C,J1*%
X30830000Y-25010000D02*
X25630000Y-25010000D01*
X30830000Y-25010000D02*
X30830000Y-33640000D01*
X30710000Y-25010000D02*
X30710000Y-33640000D01*
X30591905Y-25010000D02*
X30591905Y-33640000D01*
X30473810Y-25010000D02*
X30473810Y-33640000D01*
X30355715Y-25010000D02*
X30355715Y-33640000D01*
X30237620Y-25010000D02*
X30237620Y-33640000D01*
X30119525Y-25010000D02*
X30119525Y-33640000D01*
X30001430Y-25010000D02*
X30001430Y-33640000D01*
X29883335Y-25010000D02*
X29883335Y-33640000D01*
X29765240Y-25010000D02*
X29765240Y-33640000D01*
X29647145Y-25010000D02*
X29647145Y-33640000D01*
X29529050Y-25010000D02*
X29529050Y-33640000D01*
X29410955Y-25010000D02*
X29410955Y-33640000D01*
X29292860Y-25010000D02*
X29292860Y-33640000D01*
X29174765Y-25010000D02*
X29174765Y-33640000D01*
X29056670Y-25010000D02*
X29056670Y-33640000D01*
X28938575Y-25010000D02*
X28938575Y-33640000D01*
X28820480Y-25010000D02*
X28820480Y-33640000D01*
X28702385Y-25010000D02*
X28702385Y-33640000D01*
X28584290Y-25010000D02*
X28584290Y-33640000D01*
X28466195Y-25010000D02*
X28466195Y-33640000D01*
X28348100Y-25010000D02*
X28348100Y-33640000D01*
X28230000Y-25010000D02*
X28230000Y-33640000D01*
X25630000Y-25010000D02*
X25630000Y-33640000D01*
X30830000Y-33640000D02*
X25630000Y-33640000D01*
X29860000Y-33640000D02*
X29860000Y-33990000D01*
X29140000Y-33640000D02*
X29140000Y-33990000D01*
X27320000Y-33640000D02*
X27320000Y-34050000D01*
X26600000Y-33640000D02*
X26600000Y-34050000D01*
X30830000Y-35100000D02*
X30830000Y-36210000D01*
X30830000Y-36210000D02*
X29500000Y-36210000D01*
D10*
%TO.C,LD3*%
X49325000Y-46850000D02*
X35925000Y-46850000D01*
X35925000Y-46850000D02*
X35925000Y-40650000D01*
X35925000Y-40650000D02*
X49325000Y-40650000D01*
X49325000Y-40650000D02*
X49325000Y-46850000D01*
%TO.C,LD1*%
X49325000Y-31850000D02*
X35925000Y-31850000D01*
X35925000Y-31850000D02*
X35925000Y-25650000D01*
X35925000Y-25650000D02*
X49325000Y-25650000D01*
X49325000Y-25650000D02*
X49325000Y-31850000D01*
%TO.C,LD4*%
X49325000Y-54350000D02*
X35925000Y-54350000D01*
X35925000Y-54350000D02*
X35925000Y-48150000D01*
X35925000Y-48150000D02*
X49325000Y-48150000D01*
X49325000Y-48150000D02*
X49325000Y-54350000D01*
%TD*%
M02*
