%TF.GenerationSoftware,KiCad,Pcbnew,7.0.1*%
%TF.CreationDate,2023-08-30T09:30:18-04:00*%
%TF.ProjectId,TacTile-L2C,54616354-696c-4652-9d4c-32432e6b6963,rev?*%
%TF.SameCoordinates,Original*%
%TF.FileFunction,Copper,L1,Top*%
%TF.FilePolarity,Positive*%
%FSLAX46Y46*%
G04 Gerber Fmt 4.6, Leading zero omitted, Abs format (unit mm)*
G04 Created by KiCad (PCBNEW 7.0.1) date 2023-08-30 09:30:18*
%MOMM*%
%LPD*%
G01*
G04 APERTURE LIST*
%TA.AperFunction,ComponentPad*%
%ADD10R,1.700000X1.700000*%
%TD*%
%TA.AperFunction,ComponentPad*%
%ADD11O,1.700000X1.700000*%
%TD*%
%TA.AperFunction,Conductor*%
%ADD12C,0.250000*%
%TD*%
G04 APERTURE END LIST*
D10*
%TO.P,J1,1,Pin_1*%
%TO.N,/OUT*%
X48000000Y-35100000D03*
D11*
%TO.P,J1,2,Pin_2*%
%TO.N,/SER*%
X45460000Y-35100000D03*
%TO.P,J1,3,Pin_3*%
%TO.N,/CLK*%
X42920000Y-35100000D03*
%TO.P,J1,4,Pin_4*%
%TO.N,/GND*%
X40380000Y-35100000D03*
%TO.P,J1,5,Pin_5*%
%TO.N,/VCC*%
X37840000Y-35100000D03*
%TD*%
D10*
%TO.P,J2,1,Pin_1*%
%TO.N,/OUT*%
X29125000Y-48000000D03*
D11*
%TO.P,J2,2,Pin_2*%
%TO.N,/SER*%
X29125000Y-45460000D03*
%TO.P,J2,3,Pin_3*%
%TO.N,/CLK*%
X29125000Y-42920000D03*
%TO.P,J2,4,Pin_4*%
%TO.N,/GND*%
X29125000Y-40380000D03*
%TO.P,J2,5,Pin_5*%
%TO.N,/VCC*%
X29125000Y-37840000D03*
%TD*%
D12*
%TO.N,/GND*%
X40380000Y-35100000D02*
X35100000Y-40380000D01*
X35100000Y-40380000D02*
X29125000Y-40380000D01*
%TO.N,/CLK*%
X42920000Y-35100000D02*
X35100000Y-42920000D01*
X35100000Y-42920000D02*
X29125000Y-42920000D01*
%TO.N,/SER*%
X45460000Y-35100000D02*
X35100000Y-45460000D01*
X35100000Y-45460000D02*
X29125000Y-45460000D01*
%TD*%
%TA.AperFunction,Conductor*%
%TO.N,/OUT*%
G36*
X49937500Y-25017113D02*
G01*
X49982887Y-25062500D01*
X49999500Y-25124500D01*
X49999500Y-49875500D01*
X49982887Y-49937500D01*
X49937500Y-49982887D01*
X49875500Y-49999500D01*
X25124500Y-49999500D01*
X25062500Y-49982887D01*
X25017113Y-49937500D01*
X25000500Y-49875500D01*
X25000500Y-48250000D01*
X27775000Y-48250000D01*
X27775000Y-48897824D01*
X27781402Y-48957375D01*
X27831647Y-49092089D01*
X27917811Y-49207188D01*
X28032910Y-49293352D01*
X28167624Y-49343597D01*
X28227176Y-49350000D01*
X28875000Y-49350000D01*
X28875000Y-48250000D01*
X29375000Y-48250000D01*
X29375000Y-49350000D01*
X30022824Y-49350000D01*
X30082375Y-49343597D01*
X30217089Y-49293352D01*
X30332188Y-49207188D01*
X30418352Y-49092089D01*
X30468597Y-48957375D01*
X30475000Y-48897824D01*
X30475000Y-48250000D01*
X29375000Y-48250000D01*
X28875000Y-48250000D01*
X27775000Y-48250000D01*
X25000500Y-48250000D01*
X25000500Y-45459999D01*
X27769340Y-45459999D01*
X27789936Y-45695407D01*
X27834709Y-45862501D01*
X27851097Y-45923663D01*
X27950965Y-46137830D01*
X28086505Y-46331401D01*
X28086508Y-46331404D01*
X28208818Y-46453714D01*
X28240114Y-46506460D01*
X28242303Y-46567753D01*
X28214850Y-46622597D01*
X28164472Y-46657576D01*
X28032913Y-46706646D01*
X27917811Y-46792811D01*
X27831647Y-46907910D01*
X27781402Y-47042624D01*
X27775000Y-47102176D01*
X27775000Y-47750000D01*
X30475000Y-47750000D01*
X30475000Y-47102176D01*
X30468597Y-47042624D01*
X30418352Y-46907910D01*
X30332188Y-46792811D01*
X30217088Y-46706647D01*
X30085528Y-46657577D01*
X30035149Y-46622597D01*
X30007696Y-46567752D01*
X30009885Y-46506460D01*
X30041178Y-46453717D01*
X30163495Y-46331401D01*
X30298653Y-46138374D01*
X30342970Y-46099511D01*
X30400227Y-46085500D01*
X35017256Y-46085500D01*
X35037762Y-46087764D01*
X35040665Y-46087672D01*
X35040667Y-46087673D01*
X35107872Y-46085561D01*
X35111768Y-46085500D01*
X35139349Y-46085500D01*
X35139350Y-46085500D01*
X35143319Y-46084998D01*
X35154965Y-46084080D01*
X35198627Y-46082709D01*
X35217859Y-46077120D01*
X35236918Y-46073174D01*
X35243196Y-46072381D01*
X35256792Y-46070664D01*
X35297407Y-46054582D01*
X35308444Y-46050803D01*
X35350390Y-46038618D01*
X35367629Y-46028422D01*
X35385102Y-46019862D01*
X35403732Y-46012486D01*
X35439064Y-45986814D01*
X35448830Y-45980400D01*
X35486418Y-45958171D01*
X35486417Y-45958171D01*
X35486420Y-45958170D01*
X35500585Y-45944004D01*
X35515373Y-45931373D01*
X35531587Y-45919594D01*
X35559438Y-45885926D01*
X35567279Y-45877309D01*
X45004353Y-36440235D01*
X45059939Y-36408143D01*
X45124126Y-36408143D01*
X45224592Y-36435063D01*
X45460000Y-36455659D01*
X45695408Y-36435063D01*
X45923663Y-36373903D01*
X46137830Y-36274035D01*
X46331401Y-36138495D01*
X46453717Y-36016178D01*
X46506460Y-35984885D01*
X46567752Y-35982696D01*
X46622597Y-36010149D01*
X46657577Y-36060528D01*
X46706647Y-36192088D01*
X46792811Y-36307188D01*
X46907910Y-36393352D01*
X47042624Y-36443597D01*
X47102176Y-36450000D01*
X47750000Y-36450000D01*
X47750000Y-35350000D01*
X48250000Y-35350000D01*
X48250000Y-36450000D01*
X48897824Y-36450000D01*
X48957375Y-36443597D01*
X49092089Y-36393352D01*
X49207188Y-36307188D01*
X49293352Y-36192089D01*
X49343597Y-36057375D01*
X49350000Y-35997824D01*
X49350000Y-35350000D01*
X48250000Y-35350000D01*
X47750000Y-35350000D01*
X47750000Y-33750000D01*
X48250000Y-33750000D01*
X48250000Y-34850000D01*
X49350000Y-34850000D01*
X49350000Y-34202176D01*
X49343597Y-34142624D01*
X49293352Y-34007910D01*
X49207188Y-33892811D01*
X49092089Y-33806647D01*
X48957375Y-33756402D01*
X48897824Y-33750000D01*
X48250000Y-33750000D01*
X47750000Y-33750000D01*
X47102176Y-33750000D01*
X47042624Y-33756402D01*
X46907910Y-33806647D01*
X46792811Y-33892811D01*
X46706646Y-34007913D01*
X46657576Y-34139472D01*
X46622597Y-34189850D01*
X46567753Y-34217303D01*
X46506460Y-34215114D01*
X46453714Y-34183818D01*
X46331404Y-34061508D01*
X46331401Y-34061505D01*
X46137830Y-33925965D01*
X45923663Y-33826097D01*
X45851074Y-33806647D01*
X45695407Y-33764936D01*
X45460000Y-33744340D01*
X45224592Y-33764936D01*
X44996336Y-33826097D01*
X44782170Y-33925965D01*
X44588598Y-34061505D01*
X44421505Y-34228598D01*
X44291575Y-34414159D01*
X44247257Y-34453025D01*
X44190000Y-34467036D01*
X44132743Y-34453025D01*
X44088425Y-34414159D01*
X43958494Y-34228598D01*
X43791404Y-34061508D01*
X43791401Y-34061505D01*
X43597830Y-33925965D01*
X43383663Y-33826097D01*
X43311074Y-33806647D01*
X43155407Y-33764936D01*
X42920000Y-33744340D01*
X42684592Y-33764936D01*
X42456336Y-33826097D01*
X42242170Y-33925965D01*
X42048598Y-34061505D01*
X41881505Y-34228598D01*
X41751575Y-34414159D01*
X41707257Y-34453025D01*
X41650000Y-34467036D01*
X41592743Y-34453025D01*
X41548425Y-34414159D01*
X41418494Y-34228598D01*
X41251404Y-34061508D01*
X41251401Y-34061505D01*
X41057830Y-33925965D01*
X40843663Y-33826097D01*
X40771074Y-33806647D01*
X40615407Y-33764936D01*
X40380000Y-33744340D01*
X40144592Y-33764936D01*
X39916336Y-33826097D01*
X39702170Y-33925965D01*
X39508598Y-34061505D01*
X39341505Y-34228598D01*
X39211575Y-34414159D01*
X39167257Y-34453025D01*
X39110000Y-34467036D01*
X39052743Y-34453025D01*
X39008425Y-34414159D01*
X38878494Y-34228598D01*
X38711404Y-34061508D01*
X38711401Y-34061505D01*
X38517830Y-33925965D01*
X38303663Y-33826097D01*
X38231074Y-33806647D01*
X38075407Y-33764936D01*
X37840000Y-33744340D01*
X37604592Y-33764936D01*
X37376336Y-33826097D01*
X37162170Y-33925965D01*
X36968598Y-34061505D01*
X36801505Y-34228598D01*
X36665965Y-34422170D01*
X36566097Y-34636336D01*
X36504936Y-34864592D01*
X36484340Y-35100000D01*
X36504936Y-35335407D01*
X36549709Y-35502502D01*
X36566097Y-35563663D01*
X36665965Y-35777830D01*
X36801505Y-35971401D01*
X36968599Y-36138495D01*
X37162170Y-36274035D01*
X37376337Y-36373903D01*
X37604592Y-36435063D01*
X37850728Y-36456598D01*
X37915407Y-36481750D01*
X37956442Y-36537716D01*
X37960981Y-36606965D01*
X37927601Y-36667807D01*
X34877228Y-39718181D01*
X34837000Y-39745061D01*
X34789547Y-39754500D01*
X30400226Y-39754500D01*
X30342969Y-39740489D01*
X30298651Y-39701623D01*
X30163494Y-39508598D01*
X29996401Y-39341505D01*
X29996400Y-39341504D01*
X29810839Y-39211573D01*
X29771975Y-39167257D01*
X29757964Y-39110000D01*
X29771975Y-39052743D01*
X29810839Y-39008426D01*
X29996401Y-38878495D01*
X30163495Y-38711401D01*
X30299035Y-38517830D01*
X30398903Y-38303663D01*
X30460063Y-38075408D01*
X30480659Y-37840000D01*
X30460063Y-37604592D01*
X30398903Y-37376337D01*
X30299035Y-37162171D01*
X30163495Y-36968599D01*
X29996401Y-36801505D01*
X29802830Y-36665965D01*
X29588663Y-36566097D01*
X29527502Y-36549709D01*
X29360407Y-36504936D01*
X29125000Y-36484340D01*
X28889592Y-36504936D01*
X28661336Y-36566097D01*
X28447170Y-36665965D01*
X28253598Y-36801505D01*
X28086505Y-36968598D01*
X27950965Y-37162170D01*
X27851097Y-37376336D01*
X27789936Y-37604592D01*
X27769340Y-37840000D01*
X27789936Y-38075407D01*
X27834709Y-38242501D01*
X27851097Y-38303663D01*
X27950965Y-38517830D01*
X28086505Y-38711401D01*
X28253599Y-38878495D01*
X28439160Y-39008426D01*
X28478024Y-39052743D01*
X28492035Y-39110000D01*
X28478024Y-39167257D01*
X28439159Y-39211575D01*
X28253595Y-39341508D01*
X28086505Y-39508598D01*
X27950965Y-39702170D01*
X27851097Y-39916336D01*
X27789936Y-40144592D01*
X27769340Y-40380000D01*
X27789936Y-40615407D01*
X27834709Y-40782501D01*
X27851097Y-40843663D01*
X27950965Y-41057830D01*
X28086505Y-41251401D01*
X28253599Y-41418495D01*
X28439160Y-41548426D01*
X28478024Y-41592743D01*
X28492035Y-41650000D01*
X28478024Y-41707257D01*
X28439159Y-41751575D01*
X28253595Y-41881508D01*
X28086505Y-42048598D01*
X27950965Y-42242170D01*
X27851097Y-42456336D01*
X27789936Y-42684592D01*
X27769340Y-42920000D01*
X27789936Y-43155407D01*
X27834709Y-43322501D01*
X27851097Y-43383663D01*
X27950965Y-43597830D01*
X28086505Y-43791401D01*
X28253599Y-43958495D01*
X28439160Y-44088426D01*
X28478024Y-44132743D01*
X28492035Y-44190000D01*
X28478024Y-44247257D01*
X28439159Y-44291575D01*
X28253595Y-44421508D01*
X28086505Y-44588598D01*
X27950965Y-44782170D01*
X27851097Y-44996336D01*
X27789936Y-45224592D01*
X27769340Y-45459999D01*
X25000500Y-45459999D01*
X25000500Y-25124500D01*
X25017113Y-25062500D01*
X25062500Y-25017113D01*
X25124500Y-25000500D01*
X49875500Y-25000500D01*
X49937500Y-25017113D01*
G37*
%TD.AperFunction*%
%TD*%
M02*
