%TF.GenerationSoftware,KiCad,Pcbnew,7.0.1*%
%TF.CreationDate,2023-08-30T09:30:18-04:00*%
%TF.ProjectId,TacTile-L2C,54616354-696c-4652-9d4c-32432e6b6963,rev?*%
%TF.SameCoordinates,Original*%
%TF.FileFunction,Copper,L2,Bot*%
%TF.FilePolarity,Positive*%
%FSLAX46Y46*%
G04 Gerber Fmt 4.6, Leading zero omitted, Abs format (unit mm)*
G04 Created by KiCad (PCBNEW 7.0.1) date 2023-08-30 09:30:18*
%MOMM*%
%LPD*%
G01*
G04 APERTURE LIST*
%TA.AperFunction,ComponentPad*%
%ADD10R,1.700000X1.700000*%
%TD*%
%TA.AperFunction,ComponentPad*%
%ADD11O,1.700000X1.700000*%
%TD*%
G04 APERTURE END LIST*
D10*
%TO.P,J1,1,Pin_1*%
%TO.N,/OUT*%
X48000000Y-35100000D03*
D11*
%TO.P,J1,2,Pin_2*%
%TO.N,/SER*%
X45460000Y-35100000D03*
%TO.P,J1,3,Pin_3*%
%TO.N,/CLK*%
X42920000Y-35100000D03*
%TO.P,J1,4,Pin_4*%
%TO.N,/GND*%
X40380000Y-35100000D03*
%TO.P,J1,5,Pin_5*%
%TO.N,/VCC*%
X37840000Y-35100000D03*
%TD*%
D10*
%TO.P,J2,1,Pin_1*%
%TO.N,/OUT*%
X29125000Y-48000000D03*
D11*
%TO.P,J2,2,Pin_2*%
%TO.N,/SER*%
X29125000Y-45460000D03*
%TO.P,J2,3,Pin_3*%
%TO.N,/CLK*%
X29125000Y-42920000D03*
%TO.P,J2,4,Pin_4*%
%TO.N,/GND*%
X29125000Y-40380000D03*
%TO.P,J2,5,Pin_5*%
%TO.N,/VCC*%
X29125000Y-37840000D03*
%TD*%
%TA.AperFunction,Conductor*%
%TO.N,/VCC*%
G36*
X49937500Y-25017113D02*
G01*
X49982887Y-25062500D01*
X49999500Y-25124500D01*
X49999500Y-49875500D01*
X49982887Y-49937500D01*
X49937500Y-49982887D01*
X49875500Y-49999500D01*
X25124500Y-49999500D01*
X25062500Y-49982887D01*
X25017113Y-49937500D01*
X25000500Y-49875500D01*
X25000500Y-45459999D01*
X27769340Y-45459999D01*
X27789936Y-45695407D01*
X27834709Y-45862501D01*
X27851097Y-45923663D01*
X27950965Y-46137830D01*
X28086505Y-46331401D01*
X28086508Y-46331404D01*
X28208430Y-46453326D01*
X28239726Y-46506072D01*
X28241915Y-46567365D01*
X28214462Y-46622209D01*
X28164083Y-46657189D01*
X28032669Y-46706204D01*
X27917454Y-46792454D01*
X27831204Y-46907668D01*
X27780909Y-47042516D01*
X27774500Y-47102130D01*
X27774500Y-48897869D01*
X27780909Y-48957483D01*
X27831204Y-49092331D01*
X27917454Y-49207546D01*
X28032669Y-49293796D01*
X28167517Y-49344091D01*
X28227127Y-49350500D01*
X30022872Y-49350499D01*
X30082483Y-49344091D01*
X30217331Y-49293796D01*
X30332546Y-49207546D01*
X30418796Y-49092331D01*
X30469091Y-48957483D01*
X30475500Y-48897873D01*
X30475499Y-47102128D01*
X30469091Y-47042517D01*
X30418796Y-46907669D01*
X30332546Y-46792454D01*
X30217331Y-46706204D01*
X30155898Y-46683291D01*
X30085916Y-46657189D01*
X30035537Y-46622209D01*
X30008084Y-46567365D01*
X30010273Y-46506072D01*
X30041566Y-46453329D01*
X30163495Y-46331401D01*
X30299035Y-46137830D01*
X30398903Y-45923663D01*
X30460063Y-45695408D01*
X30480659Y-45460000D01*
X30460063Y-45224592D01*
X30398903Y-44996337D01*
X30299035Y-44782171D01*
X30163495Y-44588599D01*
X29996401Y-44421505D01*
X29810839Y-44291573D01*
X29771975Y-44247257D01*
X29757964Y-44190000D01*
X29771975Y-44132743D01*
X29810839Y-44088426D01*
X29996401Y-43958495D01*
X30163495Y-43791401D01*
X30299035Y-43597830D01*
X30398903Y-43383663D01*
X30460063Y-43155408D01*
X30480659Y-42920000D01*
X30460063Y-42684592D01*
X30398903Y-42456337D01*
X30299035Y-42242171D01*
X30163495Y-42048599D01*
X29996401Y-41881505D01*
X29810839Y-41751573D01*
X29771975Y-41707257D01*
X29757964Y-41650000D01*
X29771975Y-41592743D01*
X29810839Y-41548426D01*
X29996401Y-41418495D01*
X30163495Y-41251401D01*
X30299035Y-41057830D01*
X30398903Y-40843663D01*
X30460063Y-40615408D01*
X30480659Y-40380000D01*
X30460063Y-40144592D01*
X30398903Y-39916337D01*
X30299035Y-39702171D01*
X30163495Y-39508599D01*
X29996401Y-39341505D01*
X29810402Y-39211267D01*
X29771539Y-39166951D01*
X29757528Y-39109694D01*
X29771539Y-39052437D01*
X29810405Y-39008119D01*
X29996078Y-38878109D01*
X30163106Y-38711081D01*
X30298600Y-38517576D01*
X30398430Y-38303492D01*
X30455636Y-38090000D01*
X27794364Y-38090000D01*
X27851569Y-38303492D01*
X27951399Y-38517576D01*
X28086893Y-38711081D01*
X28253918Y-38878106D01*
X28439595Y-39008119D01*
X28478460Y-39052437D01*
X28492471Y-39109694D01*
X28478460Y-39166951D01*
X28439595Y-39211269D01*
X28253595Y-39341508D01*
X28086505Y-39508598D01*
X27950965Y-39702170D01*
X27851097Y-39916336D01*
X27789936Y-40144592D01*
X27769340Y-40380000D01*
X27789936Y-40615407D01*
X27834709Y-40782501D01*
X27851097Y-40843663D01*
X27950965Y-41057830D01*
X28086505Y-41251401D01*
X28253599Y-41418495D01*
X28439160Y-41548426D01*
X28478024Y-41592743D01*
X28492035Y-41650000D01*
X28478024Y-41707257D01*
X28439159Y-41751575D01*
X28253595Y-41881508D01*
X28086505Y-42048598D01*
X27950965Y-42242170D01*
X27851097Y-42456336D01*
X27789936Y-42684592D01*
X27769340Y-42920000D01*
X27789936Y-43155407D01*
X27834709Y-43322501D01*
X27851097Y-43383663D01*
X27950965Y-43597830D01*
X28086505Y-43791401D01*
X28253599Y-43958495D01*
X28439160Y-44088426D01*
X28478024Y-44132743D01*
X28492035Y-44190000D01*
X28478024Y-44247257D01*
X28439159Y-44291575D01*
X28253595Y-44421508D01*
X28086505Y-44588598D01*
X27950965Y-44782170D01*
X27851097Y-44996336D01*
X27789936Y-45224592D01*
X27769340Y-45459999D01*
X25000500Y-45459999D01*
X25000500Y-37590000D01*
X27794364Y-37590000D01*
X28875000Y-37590000D01*
X28875000Y-36509364D01*
X29375000Y-36509364D01*
X29375000Y-37590000D01*
X30455636Y-37590000D01*
X30455635Y-37589999D01*
X30398430Y-37376507D01*
X30298599Y-37162421D01*
X30163109Y-36968921D01*
X29996081Y-36801893D01*
X29802576Y-36666399D01*
X29588492Y-36566569D01*
X29375000Y-36509364D01*
X28875000Y-36509364D01*
X28874999Y-36509364D01*
X28661507Y-36566569D01*
X28447421Y-36666400D01*
X28253921Y-36801890D01*
X28086890Y-36968921D01*
X27951400Y-37162421D01*
X27851569Y-37376507D01*
X27794364Y-37589999D01*
X27794364Y-37590000D01*
X25000500Y-37590000D01*
X25000500Y-35350000D01*
X36509364Y-35350000D01*
X36566569Y-35563492D01*
X36666399Y-35777576D01*
X36801893Y-35971081D01*
X36968918Y-36138106D01*
X37162423Y-36273600D01*
X37376507Y-36373430D01*
X37589999Y-36430635D01*
X37590000Y-36430636D01*
X37590000Y-36430635D01*
X38090000Y-36430635D01*
X38303492Y-36373430D01*
X38517576Y-36273600D01*
X38711081Y-36138106D01*
X38878109Y-35971078D01*
X39008119Y-35785405D01*
X39052437Y-35746539D01*
X39109694Y-35732528D01*
X39166951Y-35746539D01*
X39211267Y-35785402D01*
X39341505Y-35971401D01*
X39508599Y-36138495D01*
X39702170Y-36274035D01*
X39916337Y-36373903D01*
X40144592Y-36435063D01*
X40380000Y-36455659D01*
X40615408Y-36435063D01*
X40843663Y-36373903D01*
X41057830Y-36274035D01*
X41251401Y-36138495D01*
X41418495Y-35971401D01*
X41548426Y-35785839D01*
X41592743Y-35746975D01*
X41650000Y-35732964D01*
X41707257Y-35746975D01*
X41751573Y-35785839D01*
X41881505Y-35971401D01*
X42048599Y-36138495D01*
X42242170Y-36274035D01*
X42456337Y-36373903D01*
X42684592Y-36435063D01*
X42920000Y-36455659D01*
X43155408Y-36435063D01*
X43383663Y-36373903D01*
X43597830Y-36274035D01*
X43791401Y-36138495D01*
X43958495Y-35971401D01*
X44088426Y-35785839D01*
X44132743Y-35746975D01*
X44190000Y-35732964D01*
X44247257Y-35746975D01*
X44291573Y-35785839D01*
X44421505Y-35971401D01*
X44588599Y-36138495D01*
X44782170Y-36274035D01*
X44996337Y-36373903D01*
X45224592Y-36435063D01*
X45460000Y-36455659D01*
X45695408Y-36435063D01*
X45923663Y-36373903D01*
X46137830Y-36274035D01*
X46331401Y-36138495D01*
X46453329Y-36016566D01*
X46506072Y-35985273D01*
X46567365Y-35983084D01*
X46622209Y-36010537D01*
X46657189Y-36060916D01*
X46706204Y-36192331D01*
X46792454Y-36307546D01*
X46907669Y-36393796D01*
X47042517Y-36444091D01*
X47102127Y-36450500D01*
X48897872Y-36450499D01*
X48957483Y-36444091D01*
X49092331Y-36393796D01*
X49207546Y-36307546D01*
X49293796Y-36192331D01*
X49344091Y-36057483D01*
X49350500Y-35997873D01*
X49350499Y-34202128D01*
X49344091Y-34142517D01*
X49293796Y-34007669D01*
X49207546Y-33892454D01*
X49092331Y-33806204D01*
X48957483Y-33755909D01*
X48897873Y-33749500D01*
X48897869Y-33749500D01*
X47102130Y-33749500D01*
X47042515Y-33755909D01*
X46907669Y-33806204D01*
X46792454Y-33892454D01*
X46706204Y-34007669D01*
X46657189Y-34139083D01*
X46622209Y-34189462D01*
X46567365Y-34216915D01*
X46506072Y-34214726D01*
X46453326Y-34183430D01*
X46331404Y-34061508D01*
X46331401Y-34061505D01*
X46137830Y-33925965D01*
X45923663Y-33826097D01*
X45862501Y-33809709D01*
X45695407Y-33764936D01*
X45460000Y-33744340D01*
X45224592Y-33764936D01*
X44996336Y-33826097D01*
X44782170Y-33925965D01*
X44588598Y-34061505D01*
X44421505Y-34228598D01*
X44291575Y-34414159D01*
X44247257Y-34453025D01*
X44190000Y-34467036D01*
X44132743Y-34453025D01*
X44088425Y-34414159D01*
X43958494Y-34228598D01*
X43791404Y-34061508D01*
X43791401Y-34061505D01*
X43597830Y-33925965D01*
X43383663Y-33826097D01*
X43322501Y-33809709D01*
X43155407Y-33764936D01*
X42920000Y-33744340D01*
X42684592Y-33764936D01*
X42456336Y-33826097D01*
X42242170Y-33925965D01*
X42048598Y-34061505D01*
X41881505Y-34228598D01*
X41751575Y-34414159D01*
X41707257Y-34453025D01*
X41650000Y-34467036D01*
X41592743Y-34453025D01*
X41548425Y-34414159D01*
X41418494Y-34228598D01*
X41251404Y-34061508D01*
X41251401Y-34061505D01*
X41057830Y-33925965D01*
X40843663Y-33826097D01*
X40782501Y-33809709D01*
X40615407Y-33764936D01*
X40380000Y-33744340D01*
X40144592Y-33764936D01*
X39916336Y-33826097D01*
X39702170Y-33925965D01*
X39508598Y-34061505D01*
X39341508Y-34228595D01*
X39211269Y-34414596D01*
X39166951Y-34453461D01*
X39109694Y-34467472D01*
X39052437Y-34453461D01*
X39008119Y-34414595D01*
X38878109Y-34228921D01*
X38711081Y-34061893D01*
X38517576Y-33926399D01*
X38303492Y-33826569D01*
X38090000Y-33769364D01*
X38090000Y-36430635D01*
X37590000Y-36430635D01*
X37590000Y-35350000D01*
X36509364Y-35350000D01*
X25000500Y-35350000D01*
X25000500Y-34850000D01*
X36509364Y-34850000D01*
X37590000Y-34850000D01*
X37590000Y-33769364D01*
X37589999Y-33769364D01*
X37376507Y-33826569D01*
X37162421Y-33926400D01*
X36968921Y-34061890D01*
X36801890Y-34228921D01*
X36666400Y-34422421D01*
X36566569Y-34636507D01*
X36509364Y-34849999D01*
X36509364Y-34850000D01*
X25000500Y-34850000D01*
X25000500Y-25124500D01*
X25017113Y-25062500D01*
X25062500Y-25017113D01*
X25124500Y-25000500D01*
X49875500Y-25000500D01*
X49937500Y-25017113D01*
G37*
%TD.AperFunction*%
%TD*%
M02*
