%TF.GenerationSoftware,KiCad,Pcbnew,7.0.1*%
%TF.CreationDate,2023-10-04T10:52:54-04:00*%
%TF.ProjectId,TacTile-L2C,54616354-696c-4652-9d4c-32432e6b6963,rev?*%
%TF.SameCoordinates,Original*%
%TF.FileFunction,Legend,Top*%
%TF.FilePolarity,Positive*%
%FSLAX46Y46*%
G04 Gerber Fmt 4.6, Leading zero omitted, Abs format (unit mm)*
G04 Created by KiCad (PCBNEW 7.0.1) date 2023-10-04 10:52:54*
%MOMM*%
%LPD*%
G01*
G04 APERTURE LIST*
%ADD10C,0.150000*%
%ADD11C,0.120000*%
G04 APERTURE END LIST*
D10*
%TO.C,J1*%
X51732619Y-31053333D02*
X52446904Y-31053333D01*
X52446904Y-31053333D02*
X52589761Y-31100952D01*
X52589761Y-31100952D02*
X52685000Y-31196190D01*
X52685000Y-31196190D02*
X52732619Y-31339047D01*
X52732619Y-31339047D02*
X52732619Y-31434285D01*
X52732619Y-30053333D02*
X52732619Y-30624761D01*
X52732619Y-30339047D02*
X51732619Y-30339047D01*
X51732619Y-30339047D02*
X51875476Y-30434285D01*
X51875476Y-30434285D02*
X51970714Y-30529523D01*
X51970714Y-30529523D02*
X52018333Y-30624761D01*
%TO.C,J2*%
X24406666Y-51232619D02*
X24406666Y-51946904D01*
X24406666Y-51946904D02*
X24359047Y-52089761D01*
X24359047Y-52089761D02*
X24263809Y-52185000D01*
X24263809Y-52185000D02*
X24120952Y-52232619D01*
X24120952Y-52232619D02*
X24025714Y-52232619D01*
X24835238Y-51327857D02*
X24882857Y-51280238D01*
X24882857Y-51280238D02*
X24978095Y-51232619D01*
X24978095Y-51232619D02*
X25216190Y-51232619D01*
X25216190Y-51232619D02*
X25311428Y-51280238D01*
X25311428Y-51280238D02*
X25359047Y-51327857D01*
X25359047Y-51327857D02*
X25406666Y-51423095D01*
X25406666Y-51423095D02*
X25406666Y-51518333D01*
X25406666Y-51518333D02*
X25359047Y-51661190D01*
X25359047Y-51661190D02*
X24787619Y-52232619D01*
X24787619Y-52232619D02*
X25406666Y-52232619D01*
D11*
%TO.C,J1*%
X50830000Y-25010000D02*
X38010000Y-25010000D01*
X50830000Y-25010000D02*
X50830000Y-33640000D01*
X50710000Y-25010000D02*
X50710000Y-33640000D01*
X50591905Y-25010000D02*
X50591905Y-33640000D01*
X50473810Y-25010000D02*
X50473810Y-33640000D01*
X50355715Y-25010000D02*
X50355715Y-33640000D01*
X50237620Y-25010000D02*
X50237620Y-33640000D01*
X50119525Y-25010000D02*
X50119525Y-33640000D01*
X50001430Y-25010000D02*
X50001430Y-33640000D01*
X49883335Y-25010000D02*
X49883335Y-33640000D01*
X49765240Y-25010000D02*
X49765240Y-33640000D01*
X49647145Y-25010000D02*
X49647145Y-33640000D01*
X49529050Y-25010000D02*
X49529050Y-33640000D01*
X49410955Y-25010000D02*
X49410955Y-33640000D01*
X49292860Y-25010000D02*
X49292860Y-33640000D01*
X49174765Y-25010000D02*
X49174765Y-33640000D01*
X49056670Y-25010000D02*
X49056670Y-33640000D01*
X48938575Y-25010000D02*
X48938575Y-33640000D01*
X48820480Y-25010000D02*
X48820480Y-33640000D01*
X48702385Y-25010000D02*
X48702385Y-33640000D01*
X48584290Y-25010000D02*
X48584290Y-33640000D01*
X48466195Y-25010000D02*
X48466195Y-33640000D01*
X48348100Y-25010000D02*
X48348100Y-33640000D01*
X48230000Y-25010000D02*
X48230000Y-33640000D01*
X45690000Y-25010000D02*
X45690000Y-33640000D01*
X43150000Y-25010000D02*
X43150000Y-33640000D01*
X40610000Y-25010000D02*
X40610000Y-33640000D01*
X38010000Y-25010000D02*
X38010000Y-33640000D01*
X50830000Y-33640000D02*
X38010000Y-33640000D01*
X49860000Y-33640000D02*
X49860000Y-33990000D01*
X49140000Y-33640000D02*
X49140000Y-33990000D01*
X47320000Y-33640000D02*
X47320000Y-34050000D01*
X46600000Y-33640000D02*
X46600000Y-34050000D01*
X44780000Y-33640000D02*
X44780000Y-34050000D01*
X44060000Y-33640000D02*
X44060000Y-34050000D01*
X42240000Y-33640000D02*
X42240000Y-34050000D01*
X41520000Y-33640000D02*
X41520000Y-34050000D01*
X39700000Y-33640000D02*
X39700000Y-34050000D01*
X38980000Y-33640000D02*
X38980000Y-34050000D01*
X50830000Y-35100000D02*
X50830000Y-36210000D01*
X50830000Y-36210000D02*
X49500000Y-36210000D01*
%TO.C,J2*%
X30395000Y-50770000D02*
X29125000Y-50770000D01*
X30395000Y-49500000D02*
X30395000Y-50770000D01*
X28082071Y-47340000D02*
X27685000Y-47340000D01*
X28082071Y-46580000D02*
X27685000Y-46580000D01*
X28082071Y-44800000D02*
X27685000Y-44800000D01*
X28082071Y-44040000D02*
X27685000Y-44040000D01*
X28082071Y-42260000D02*
X27685000Y-42260000D01*
X28082071Y-41500000D02*
X27685000Y-41500000D01*
X28082071Y-39720000D02*
X27685000Y-39720000D01*
X28082071Y-38960000D02*
X27685000Y-38960000D01*
X28015000Y-49880000D02*
X27685000Y-49880000D01*
X28015000Y-49120000D02*
X27685000Y-49120000D01*
X27685000Y-50830000D02*
X27685000Y-38010000D01*
X27685000Y-48230000D02*
X25025000Y-48230000D01*
X27685000Y-45690000D02*
X25025000Y-45690000D01*
X27685000Y-43150000D02*
X25025000Y-43150000D01*
X27685000Y-40610000D02*
X25025000Y-40610000D01*
X27685000Y-38010000D02*
X25025000Y-38010000D01*
X25025000Y-50830000D02*
X27685000Y-50830000D01*
X25025000Y-49880000D02*
X19025000Y-49880000D01*
X25025000Y-49820000D02*
X19025000Y-49820000D01*
X25025000Y-49700000D02*
X19025000Y-49700000D01*
X25025000Y-49580000D02*
X19025000Y-49580000D01*
X25025000Y-49460000D02*
X19025000Y-49460000D01*
X25025000Y-49340000D02*
X19025000Y-49340000D01*
X25025000Y-49220000D02*
X19025000Y-49220000D01*
X25025000Y-47340000D02*
X19025000Y-47340000D01*
X25025000Y-44800000D02*
X19025000Y-44800000D01*
X25025000Y-42260000D02*
X19025000Y-42260000D01*
X25025000Y-39720000D02*
X19025000Y-39720000D01*
X25025000Y-38010000D02*
X25025000Y-50830000D01*
X19025000Y-49880000D02*
X19025000Y-49120000D01*
X19025000Y-49120000D02*
X25025000Y-49120000D01*
X19025000Y-47340000D02*
X19025000Y-46580000D01*
X19025000Y-46580000D02*
X25025000Y-46580000D01*
X19025000Y-44800000D02*
X19025000Y-44040000D01*
X19025000Y-44040000D02*
X25025000Y-44040000D01*
X19025000Y-42260000D02*
X19025000Y-41500000D01*
X19025000Y-41500000D02*
X25025000Y-41500000D01*
X19025000Y-39720000D02*
X19025000Y-38960000D01*
X19025000Y-38960000D02*
X25025000Y-38960000D01*
%TD*%
M02*
